<svg width="400" height="400" viewBox="0 0 400 400" fill="none" xmlns="http://www.w3.org/2000/svg">
<path d="M310.799 179.577H324.425V194.412C326.064 197.622 329.804 197.182 332.563 194.119L348.503 179.577H365.053L341.877 200.711L365.856 221.834H349.03C342.953 216.262 336.553 211.123 330.482 205.553C327.054 203.627 324.466 205.002 324.587 208.795C324.617 209.675 324.577 210.611 324.577 211.585V221.94L310.799 221.98V179.577ZM245.585 179.363H269.184C275.382 188.339 281.587 197.319 287.791 206.302C289.715 209.822 291.719 210.628 292.398 207.945L292.186 200.487V179.595L306.003 179.62L305.967 221.781L282.828 221.804C275.568 211.963 269.393 202.948 262.133 193.11C260.728 190.681 258.88 192.071 258.876 193.749C258.873 195.119 258.849 196.904 258.941 198.743V222L245.585 221.781V221.776L244.235 221.781C243.513 221.786 242.854 221.749 242.236 221.677L232.424 221.716C226.478 210.958 220.59 200.2 214.645 189.44C213.586 188.851 212.729 188.951 212.147 190.067L204.143 204.41L216.931 204.425L221.95 213.709C215.049 213.724 208.714 213.736 201.811 213.75C198.237 213.614 196.785 218.065 194.781 221.776H180.206L203.299 179.604L224.23 179.589L241.592 211.697C242.138 212.512 242.954 214.153 243.585 214.432C244.438 214.685 245.033 214.455 245.585 213.89V179.363ZM138.835 196.163C143.059 196.163 158.093 196.173 162.395 196.168C162.422 196.168 162.45 196.158 162.476 196.158C167.78 196.288 166.863 190.425 164.168 189.912C163.852 189.851 163.735 189.773 163.28 189.771C157.599 189.734 142.793 189.788 138.84 189.788L138.835 196.163ZM138.835 211.61C143.059 211.61 159.655 211.617 163.954 211.615C163.983 211.615 164.018 211.605 164.041 211.605C169.344 211.732 168.182 205.288 165.49 204.781C165.177 204.723 165.296 204.873 164.841 204.872C159.16 204.842 142.554 204.658 138.601 204.658L138.835 211.61ZM125.059 179.63H160.292C163.409 179.63 172.712 179.015 177.362 182.75C179.179 184.212 179.774 186.85 179.774 189.572C179.774 191.906 179.592 194.308 179.045 195.929C178.127 198.635 176.387 199.898 174.313 200.365C178.264 201.029 182.058 203.164 181.711 212.282C181.248 224.364 163.163 221.778 157.674 221.679L125.059 221.097V179.63ZM82.6527 196.163C86.8766 196.163 96.8634 196.168 101.168 196.168C101.188 196.168 101.221 196.158 101.246 196.158C106.553 196.287 105.634 190.422 102.936 189.912C102.621 189.851 102.504 189.773 102.048 189.771C96.3683 189.738 83.0073 189.788 79.0544 189.788L82.6527 196.163ZM45.4337 189.44C44.3781 188.851 43.5183 188.951 42.9412 190.067L34.9333 204.41L48.2909 204.425L53.3128 213.709C46.409 213.724 39.5069 213.736 32.6014 213.75C29.0282 213.614 27.5762 218.065 25.5738 221.776H11L34.0935 179.604L54.4169 179.747L71.9649 211.725C81.4499 211.434 99.177 211.354 104.45 211.337C107.953 211.021 107.192 205.034 104.441 204.691L74.6632 204.716L60.8874 179.63H98.5179C100.462 179.63 106.248 179.52 110.45 179.681C110.626 179.686 110.797 179.734 110.962 179.761C113.292 180.169 114.427 180.838 115.86 182.342C117.495 184.063 118.006 186.85 118.006 189.572C118.006 191.906 117.822 194.308 117.272 195.929C116.352 198.635 114.617 199.898 112.541 200.365C115.778 200.661 119.013 201.792 119.525 208.038C119.634 209.407 119.835 210.981 119.76 212.833C119.626 216.103 118.284 219.054 115.698 220.083C109.761 222.448 99.7524 221.66 95.9032 221.679L75.0262 221.781C74.3069 221.786 73.6444 221.749 73.0288 221.677L63.216 221.716C57.2674 210.958 51.3823 200.2 45.4337 189.44Z" fill="#00A9AC"/>
<path d="M374.548 179.577L388.117 179.589L364.838 200.715L388.977 221.801L375.351 221.833L351.232 200.83L374.548 179.577Z" fill="#DF762E"/>
</svg>
