<svg width="400" height="400" viewBox="0 0 400 400" fill="none" xmlns="http://www.w3.org/2000/svg">
<g clip-path="url(#clip0_15_627)">
<path d="M219.049 120C175.304 119.999 139.841 155.754 139.84 199.86C139.841 243.966 175.304 279.721 219.049 279.72C240.604 279.719 260.135 271.028 274.416 256.945C275.908 255.479 275.576 252.765 274.416 251.592L258.143 235.138C256.568 233.545 254.006 233.908 253.182 234.726C244.909 242.929 233.722 247.962 221.411 247.962C195.931 247.961 175.277 226.397 175.279 199.798C175.279 173.305 195.777 151.787 221.155 151.639C221.24 151.639 221.325 151.639 221.411 151.639C233.384 151.639 244.293 156.399 252.493 164.207C253.442 165.111 255.811 164.986 257.203 163.577L273.287 147.3C274.051 146.526 275.498 143.942 273.859 142.24C259.629 128.475 240.327 120.001 219.049 120ZM56.6714 123.911C55.5048 124.012 52.9983 124.713 51.5988 128.678C49.7328 133.965 -1.16323 270.082 -1.16323 270.082C-1.16323 270.082 -3.75505 275.459 0.184249 275.459H29.6229C29.6229 275.459 32.8174 275.29 34.6007 269.768L43.9424 240.845H98.122L107.682 270.807C107.682 270.807 108.825 275.459 113.179 275.459H144.175C144.175 275.459 147.493 275.262 145.42 270.597C143.347 265.932 93.1689 128.056 93.1689 128.056C93.1689 128.056 92.3426 123.911 86.7446 123.911H57.3019C57.3019 123.911 57.0603 123.877 56.6714 123.911ZM289.609 123.911C289.609 123.911 285.95 123.794 285.95 127.698V271.709C285.95 271.709 285.954 275.459 289.531 275.459H349.945C349.945 275.459 377.104 275.529 391.416 261.218C405.728 246.906 401.825 225.602 401.825 225.602C401.825 225.602 398.411 201.206 371.414 195.026C371.414 195.026 395.648 188.197 394.103 159.736C391.822 134.821 369.332 123.911 345.964 123.911H289.609ZM319.291 150.386H341.489C341.489 150.386 360.192 150.386 360.436 167.706C360.68 185.026 340.838 184.622 340.838 184.622H319.291V150.386ZM71.1929 156.46L89.5879 214.101H52.5795L71.1929 156.46ZM319.291 209.585H344.419C344.419 209.585 367.267 209.745 367.429 229.505C367.592 249.265 345.474 249.268 345.474 249.268H319.291V209.585Z" fill="#1F419B"/>
<path d="M249.86 199.768C249.86 203.343 249.155 206.884 247.787 210.187C246.419 213.49 244.414 216.491 241.885 219.019C239.357 221.548 236.356 223.553 233.053 224.921C229.75 226.289 226.209 226.994 222.634 226.994C219.059 226.994 215.518 226.289 212.215 224.921C208.912 223.553 205.911 221.548 203.382 219.019C200.854 216.491 198.849 213.49 197.481 210.187C196.112 206.884 195.408 203.343 195.408 199.768C195.408 196.193 196.112 192.652 197.481 189.349C198.849 186.046 200.854 183.045 203.382 180.516C205.911 177.988 208.912 175.983 212.215 174.615C215.518 173.246 219.059 172.542 222.634 172.542C226.209 172.542 229.75 173.246 233.053 174.615C236.356 175.983 239.357 177.988 241.885 180.516C244.414 183.045 246.419 186.046 247.787 189.349C249.155 192.652 249.86 196.193 249.86 199.768Z" fill="#00AEEF"/>
</g>
<defs>
<clipPath id="clip0_15_627">
<rect width="400" height="400" fill="white"/>
</clipPath>
</defs>
</svg>
