<svg width="400" height="400" viewBox="0 0 400 400" fill="none" xmlns="http://www.w3.org/2000/svg">
<g clip-path="url(#clip0_15_646)">
<path fill-rule="evenodd" clip-rule="evenodd" d="M400 20.8708C400 10.5578 391.542 2.18994 381.123 2.18994H18.9079C8.43796 2.18994 0 10.5578 0 20.8708V378.742C0 389.125 8.43796 397.434 18.9079 397.434H381.123C391.542 397.434 400 389.125 400 378.742V20.8708Z" fill="white" stroke="#C4C6C8" stroke-width="1.9149"/>
<path fill-rule="evenodd" clip-rule="evenodd" d="M139.445 378.568L354.36 378.585C368.844 378.585 380.771 366.823 380.771 352.506L380.824 140.048L139.445 378.568Z" fill="#00422B"/>
<path fill-rule="evenodd" clip-rule="evenodd" d="M380.861 47.2038C380.861 32.5806 368.901 21.0938 354.417 21.0938H275.328L19.1455 274.556V352.378C19.1455 366.764 30.7298 378.546 45.5473 378.546L123.342 378.564L380.831 124.1L380.861 47.2038Z" fill="#AF0B35"/>
<path fill-rule="evenodd" clip-rule="evenodd" d="M45.6138 21.0408C30.8043 21.0408 19.1809 32.4965 19.1809 47.1357L19.1455 258.348L259.235 21.0992L45.6138 21.0408Z" fill="#00422B"/>
<path fill-rule="evenodd" clip-rule="evenodd" d="M148.594 374.956C148.594 374.956 162.281 369.483 175.007 367.313C179.82 366.241 207.718 359.757 206.28 331.4C205.938 324.019 194.805 333.402 194.805 333.402C194.805 333.402 172.745 336.469 163.549 342.129C158.961 344.791 148.703 356.033 148.594 374.956Z" fill="#FFDC00" stroke="#9D1D26" stroke-width="1.9149"/>
<path fill-rule="evenodd" clip-rule="evenodd" d="M243.246 284.083C243.246 284.083 248.432 316.203 222.602 326.422C211.617 330.923 195.158 335.973 192.612 338.538C192.612 338.538 186.738 316.203 205.829 302.789C211.959 298.427 224.526 294.24 232.604 291.333C240.397 288.514 243.246 284.083 243.246 284.083Z" fill="#FFDC00" stroke="#9D1D26" stroke-width="1.9149"/>
<path fill-rule="evenodd" clip-rule="evenodd" d="M256.605 244.37C256.605 244.37 272.718 263.836 254.65 286.142C250.767 291.289 231.439 303.669 226.577 309.438C226.577 309.438 216.937 288.696 228.563 271.813C231.746 267.009 242.751 258.116 247.583 254.598C252.43 251.032 256.605 244.37 256.605 244.37Z" fill="#FFDC00" stroke="#9D1D26" stroke-width="1.9149"/>
<path fill-rule="evenodd" clip-rule="evenodd" d="M236.988 201.938C236.988 201.938 221.898 210.642 231.919 235.474C232.883 238.353 244.584 259.026 244.969 264.756C244.969 264.756 265.879 251.943 257.419 225.814C256.121 221.02 246.372 205.779 236.988 201.938Z" fill="#FFDC00" stroke="#9D1D26" stroke-width="1.9149"/>
<path fill-rule="evenodd" clip-rule="evenodd" d="M198.501 168.06C198.501 168.06 193.323 183.722 205.607 198.451C210.784 204.455 234.003 211.499 244.016 218.83C244.016 218.83 256.261 179.282 198.501 168.06Z" fill="#FFDC00" stroke="#9D1D26" stroke-width="1.9149"/>
<path fill-rule="evenodd" clip-rule="evenodd" d="M166.307 140.048C166.307 140.048 216.529 143.615 209.778 189.06C209.778 189.06 198.419 182.025 189.164 178.349C185.137 176.373 165.098 170.115 166.307 151.495C166.642 146.376 166.307 140.048 166.307 140.048Z" fill="#FFDC00" stroke="#9D1D26" stroke-width="1.9149"/>
<path fill-rule="evenodd" clip-rule="evenodd" d="M167.222 96.859C167.222 96.859 148.516 110.884 157.83 134.464C159.501 138.935 169.181 151.739 174.32 153.978C174.32 153.978 180.146 137.659 183.703 125.865C185.009 121.061 188.566 102.274 176.901 94.9343C170.76 91.4476 167.222 96.859 167.222 96.859Z" fill="#FFDC00" stroke="#9D1D26" stroke-width="1.9149"/>
<path fill-rule="evenodd" clip-rule="evenodd" d="M163.336 110.827C163.336 110.827 148.842 68.7041 200.782 57.2759C200.782 57.2759 212.385 73.5366 193.381 90.4294C188.243 95.2149 166.625 106.052 163.336 110.827Z" fill="#FFDC00" stroke="#9D1D26" stroke-width="1.9149"/>
<path fill-rule="evenodd" clip-rule="evenodd" d="M244.308 25.2674C244.308 25.2674 190.424 24.0307 192.694 71.7268C192.694 71.7268 226.435 61.4768 235.524 51.5911C240.017 46.4528 244.907 36.7932 244.308 25.2674Z" fill="#FFDC00" stroke="#9D1D26" stroke-width="1.9149"/>
</g>
<defs>
<clipPath id="clip0_15_646">
<rect width="400" height="400" fill="white"/>
</clipPath>
</defs>
</svg>
