<svg width="400" height="400" viewBox="0 0 400 400" fill="none" xmlns="http://www.w3.org/2000/svg">
    <g clip-path="url(#clip0_15_411)">
        <g filter="url(#filter0_d_15_411)">
            <path fill-rule="evenodd" clip-rule="evenodd"
                d="M0.119799 225.406C-0.304833 225.271 0.409791 225.696 2.09796 226.535C39.362 245.105 98.6964 259.905 139.513 247.228C139.513 247.228 175.037 228.43 190.593 202.963C180.205 198.52 168.067 207.934 159.108 201.43C164.245 194.801 177.025 194.584 181.582 187.862C181.582 187.862 180.298 184.6 165.695 177.505C151.102 170.411 129.974 154.161 129.974 154.161C129.974 154.161 62.9963 153.291 0.119799 225.406Z"
                fill="#CA8D17" />
            <path fill-rule="evenodd" clip-rule="evenodd"
                d="M108.454 0.811935C108.454 0.366592 108.257 1.17444 107.988 3.03867C101.836 44.2176 106.103 105.219 130.773 140.122C130.773 140.122 159.627 168.096 188.657 175.014C189.672 163.767 176.965 155.14 180.393 144.607C188.285 147.434 192.427 159.531 200.236 161.789C200.236 161.789 202.94 159.562 205.177 143.478C207.414 127.414 216.341 102.288 216.341 102.288C216.341 102.288 196.467 38.3245 108.454 0.811935Z"
                fill="#CA8D17" />
            <path fill-rule="evenodd" clip-rule="evenodd"
                d="M180.256 397.841C179.997 398.204 180.628 397.655 181.944 396.319C211.109 366.605 243.515 314.759 244.085 272.016C244.085 272.016 237.177 232.422 217.768 209.771C210.332 218.264 215.531 232.722 206.572 239.236C201.86 232.297 205.609 220.076 200.628 213.665C200.628 213.665 197.117 213.872 185.869 225.565C174.611 237.258 152.623 252.327 152.623 252.327C152.623 252.327 131.102 315.753 180.256 397.841Z"
                fill="#CA8D17" />
            <path fill-rule="evenodd" clip-rule="evenodd"
                d="M399.911 279.81C400.17 280.173 399.849 279.406 398.979 277.739C379.746 240.806 340.442 193.962 299.967 180.229C299.967 180.229 260.176 174.564 232.627 186.019C238.416 195.713 253.775 195.236 257.193 205.779C249.136 208.11 238.675 200.767 231.032 203.532C231.032 203.532 230.151 206.929 237.805 221.242C245.438 235.566 252.978 261.126 252.978 261.126C252.978 261.126 306.647 301.197 399.911 279.81Z"
                fill="#CA8D17" />
            <path fill-rule="evenodd" clip-rule="evenodd"
                d="M355.536 34.4314C355.951 34.2967 355.122 34.3692 353.258 34.6799C312.203 41.5569 255.51 64.4559 229.939 98.7164C229.939 98.7164 212.249 134.8 214.641 164.545C225.64 162.028 229.928 147.28 241.01 147.28C240.751 155.669 230.529 163.343 230.798 171.463C230.798 171.463 233.75 173.358 249.731 170.521C265.711 167.662 292.349 168.408 292.349 168.408C292.349 168.408 347.054 129.735 355.536 34.4314Z"
                fill="#CA8D17" />
            <path fill-rule="evenodd" clip-rule="evenodd"
                d="M186.269 152.392C186.269 152.392 191.675 171.77 206.071 184.312C204.58 186.269 197.268 193.55 169.377 197.403C169.377 197.403 189.48 198.242 205.864 188.423C207.252 190.453 211.933 199.64 206.962 227.365C206.962 227.365 213.974 208.516 209.707 189.904C212.068 189.2 222.259 187.595 247.074 200.883C247.074 200.883 231.321 188.392 212.296 186.704C212.358 184.229 213.984 174.048 234.294 154.546C234.294 154.546 217.547 165.68 210.059 183.245C207.728 182.427 198.552 177.725 186.269 152.392Z"
                fill="#CA8D17" />
        </g>
    </g>
    <defs>
        <filter id="filter0_d_15_411" x="-4" y="0.692108" width="407.998" height="405.258"
            filterUnits="userSpaceOnUse" color-interpolation-filters="sRGB">
            <feFlood flood-opacity="0" result="BackgroundImageFix" />
            <feColorMatrix in="SourceAlpha" type="matrix"
                values="0 0 0 0 0 0 0 0 0 0 0 0 0 0 0 0 0 0 127 0" result="hardAlpha" />
            <feOffset dy="4" />
            <feGaussianBlur stdDeviation="2" />
            <feComposite in2="hardAlpha" operator="out" />
            <feColorMatrix type="matrix" values="0 0 0 0 0 0 0 0 0 0 0 0 0 0 0 0 0 0 0.25 0" />
            <feBlend mode="normal" in2="BackgroundImageFix" result="effect1_dropShadow_15_411" />
            <feBlend mode="normal" in="SourceGraphic" in2="effect1_dropShadow_15_411"
                result="shape" />
        </filter>
        <clipPath id="clip0_15_411">
            <rect width="400" height="400" fill="white" />
        </clipPath>
    </defs>
</svg>
