<svg width="400" height="400" viewBox="0 0 400 400" fill="none" xmlns="http://www.w3.org/2000/svg">
<g clip-path="url(#clip0_19_220)">
<path d="M-4 200.33C64 133.87 132.06 67.48 200.04 1C257.27 56.73 314.31 112.67 371.46 168.48C382.31 179.17 393.34 189.68 404.07 200.49C336 266.84 268.07 333.33 200.05 399.72C132.03 333.26 63.99 266.82 -4 200.33ZM9.12 200.35C72.75 262.48 136.31 324.66 199.95 386.76C263.68 324.71 327.28 262.51 390.99 200.43C327.38 138.21 263.67 76.09 200.03 13.89C136.39 76.04 72.75 138.19 9.12 200.35Z" fill="#ED1D24"/>
<path d="M168.13 75.08C189.43 75.11 210.73 75.11 232.04 75.12C232.04 127.08 232.02 179.04 232.01 231C210.7 230.94 189.39 230.99 168.08 230.97C168.1 179.01 168.11 127.05 168.13 75.08Z" fill="#ED1D24"/>
<path d="M17.5898 200.35C47.6198 200.36 77.6498 200.29 107.68 200.39C123.83 215.44 139.39 231.28 155.32 246.63C170.22 261.19 185.11 275.76 200.02 290.31C230.76 260.35 261.43 230.31 292.19 200.36C322.31 200.4 352.43 200.36 382.55 200.38C321.71 259.81 260.86 319.22 200 378.63C139.2 319.2 78.3898 259.78 17.5898 200.35Z" fill="#ED1D24"/>
<path d="M9.12109 200.35C72.7511 138.19 136.391 76.04 200.031 13.89C263.671 76.09 327.381 138.21 390.991 200.43C327.281 262.51 263.681 324.71 199.951 386.76C136.311 324.66 72.7511 262.48 9.12109 200.35ZM168.131 75.08C168.111 127.05 168.101 179.01 168.081 230.97C189.391 230.99 210.701 230.94 232.011 231C232.021 179.04 232.041 127.08 232.041 75.12C210.731 75.11 189.431 75.11 168.131 75.08ZM133.081 106.11C133.081 137.57 133.081 169.02 133.081 200.47C143.731 200.48 154.371 200.48 165.021 200.47C165.031 169.02 165.031 137.57 165.021 106.12C154.371 106.1 143.731 106.11 133.081 106.11ZM235.181 106.15C235.171 137.6 235.171 169.05 235.161 200.51C241.391 200.44 247.631 200.58 253.871 200.39C263.141 199.8 270.661 192.99 275.241 185.35C283.711 171.11 285.161 153.5 281.641 137.53C279.131 126.74 273.881 115.75 264.281 109.6C255.581 104.03 244.861 106.81 235.181 106.15ZM17.5911 200.35C78.3911 259.78 139.201 319.2 200.001 378.63C260.861 319.22 321.711 259.81 382.551 200.38C352.431 200.36 322.311 200.4 292.191 200.36C261.431 230.31 230.761 260.35 200.021 290.31C185.111 275.76 170.221 261.19 155.321 246.63C139.391 231.28 123.831 215.44 107.681 200.39C77.6511 200.29 47.6211 200.36 17.5911 200.35Z" fill="white"/>
<path d="M133.08 106.11C143.73 106.11 154.37 106.1 165.02 106.12C165.03 137.57 165.03 169.02 165.02 200.47C154.37 200.48 143.73 200.48 133.08 200.47C133.08 169.02 133.08 137.57 133.08 106.11Z" fill="#21409A"/>
<path d="M235.18 106.15C244.86 106.81 255.58 104.03 264.28 109.6C273.88 115.75 279.13 126.74 281.64 137.53C285.16 153.5 283.71 171.11 275.24 185.35C270.66 192.99 263.14 199.8 253.87 200.39C247.63 200.58 241.39 200.44 235.16 200.51C235.17 169.05 235.17 137.6 235.18 106.15Z" fill="#21409A"/>
</g>
<defs>
<clipPath id="clip0_19_220">
<rect width="400" height="400" fill="white"/>
</clipPath>
</defs>
</svg>
