<svg width="400" height="400" viewBox="0 0 400 400" fill="none" xmlns="http://www.w3.org/2000/svg">
    <path
        d="M316.9 112.32L250.981 145.275V145.284C249.727 145.911 248.722 146.92 248.091 148.17C247.627 149.097 247.414 150.081 247.418 151.053C247.418 153.419 248.722 155.703 250.981 156.826V156.834L278.167 170.423L316.9 151.053L351.548 168.377V95L316.9 112.32Z"
        fill="url(#paint0_radial_15_652)" />
    <path
        d="M247.406 151.053V189.789H247.414C247.414 192.151 248.718 194.435 250.978 195.567V195.571L316.896 228.526V189.794L278.164 170.423L250.978 156.834V156.826C248.718 155.703 247.414 153.419 247.414 151.053H247.406Z"
        fill="url(#paint1_linear_15_652)" />
    <path
        d="M316.895 151.057V189.79L355.635 209.156L382.821 195.567V195.563C385.085 194.427 386.38 192.152 386.389 189.79C386.389 188.818 386.167 187.834 385.712 186.903C385.085 185.652 384.072 184.644 382.821 184.016L316.895 151.057Z"
        fill="url(#paint2_linear_15_652)" />
    <path
        d="M382.821 195.563V195.567L355.635 209.156L316.895 228.526V267.259L382.821 234.304V234.296C385.085 233.168 386.38 230.888 386.389 228.526V189.79C386.38 192.151 385.085 194.427 382.821 195.563Z"
        fill="url(#paint3_linear_15_652)" />
    <path
        d="M75.6504 280.743C67.0887 280.743 60.8848 280.144 57.0427 278.951C53.4097 277.709 50.3262 274.801 47.7798 270.234C46.5333 267.896 45.5369 265.744 44.7824 263.771C44.032 261.803 43.4128 259.905 42.9167 258.088C42.4205 256.268 42.1007 254.5 41.9408 252.753C41.7891 251.015 41.7112 249.084 41.7112 246.955C41.7112 243.224 42.0597 239.603 42.7609 236.093C43.4621 232.596 44.9259 228.926 47.1606 225.084C49.3913 221.242 52.6839 218.609 57.0427 217.182C61.4055 215.751 66.9821 215.046 73.7806 215.046H88.4109V215.042C90.6456 215.042 92.7245 213.881 93.9014 211.975L107.613 189.787H65.7151C55.8453 189.787 47.2467 191.161 39.9111 193.904C32.5754 196.651 26.9045 201.424 22.8902 208.231C18.9866 214.935 16.3664 221.451 15.0133 227.786C13.6684 234.117 13 240.899 13 248.132C13 255.251 13.7504 262.197 15.2552 268.946C16.756 275.699 19.409 282.322 23.2101 288.817C25.1619 292.036 27.3228 294.75 29.701 296.968C32.0752 299.178 34.8307 300.942 37.9716 302.237C41.1125 303.529 44.725 304.48 48.8213 305.087C52.9053 305.69 57.6167 305.993 62.9473 305.993H91.8717C94.1064 305.993 96.1853 304.833 97.3621 302.926L111.078 280.743H110.709H75.6504Z"
        fill="#005BAA" />
    <path
        d="M183.891 260.465C191.428 260.465 196.759 260.895 199.908 262.843C203.057 264.791 204.525 267.399 204.32 270.675C204.32 272.422 203.75 274.263 202.598 276.21C201.445 278.154 199.764 279.38 197.562 279.893C195.258 280.463 191.801 280.741 187.192 280.741H154.131V260.465H183.891ZM197.669 305.98C205.374 305.98 211.495 305.319 216.031 303.999C220.574 302.736 224.555 299.513 227.983 294.342C231.362 289.016 233.051 283.337 233.051 277.33C232.842 269.305 230.808 262.868 226.958 258.013C223.104 253.154 218.433 249.91 212.947 248.274C221.328 245.642 226.786 237.408 228.332 230.15C228.754 228.096 229.07 226.271 229.283 224.689C229.492 223.11 229.599 221.74 229.599 220.576C229.599 216.779 229.07 213.047 228.016 209.378C226.962 205.708 224.904 202.079 221.841 198.495C220.365 196.65 218.753 195.153 217.015 194.022C215.276 192.89 213.267 192.004 210.999 191.364C208.728 190.733 206.132 190.319 203.204 190.106C200.273 189.892 199.727 189.786 196.09 189.786L125.436 189.79L125.432 306L197.669 305.98ZM200.892 225.267C200.892 228.65 199.383 231.147 196.365 232.758C193.347 234.374 188.64 235.173 182.239 235.173H173.308C171.106 235.173 169.056 236.317 167.896 238.191V238.199L154.131 260.465V235.173V215.044H183.018C189.624 215.044 194.306 215.721 197.066 217.693C199.822 219.674 201.097 222.2 200.892 225.267Z"
        fill="#005BAA" />
    <defs>
        <radialGradient id="paint0_radial_15_652" cx="0" cy="0" r="1" gradientUnits="userSpaceOnUse"
            gradientTransform="translate(351.351 94.9411) scale(142.252 142.252)">
            <stop stop-color="#FFCF01" />
            <stop offset="0.681179" stop-color="#FBAD18" />
            <stop offset="0.7" stop-color="#FBAD18" />
            <stop offset="0.74284" stop-color="#FBAD18" />
            <stop offset="1" stop-color="#F7941E" />
        </radialGradient>
        <linearGradient id="paint1_linear_15_652" x1="247.206" y1="189.791" x2="316.125"
            y2="189.791" gradientUnits="userSpaceOnUse">
            <stop stop-color="#007BC1" />
            <stop offset="0.323457" stop-color="#2D6CB5" />
            <stop offset="0.4" stop-color="#2D6CB5" />
            <stop offset="0.866273" stop-color="#004789" />
            <stop offset="1" stop-color="#004789" />
        </linearGradient>
        <linearGradient id="paint2_linear_15_652" x1="332.518" y1="142.567" x2="363.89" y2="204.148"
            gradientUnits="userSpaceOnUse">
            <stop stop-color="#007BC1" />
            <stop offset="0.323457" stop-color="#2D6CB5" />
            <stop offset="0.4" stop-color="#2D6CB5" />
            <stop offset="0.858124" stop-color="#005198" />
            <stop offset="1" stop-color="#005198" />
        </linearGradient>
        <linearGradient id="paint3_linear_15_652" x1="385.854" y1="228.523" x2="317.299"
            y2="228.523" gradientUnits="userSpaceOnUse">
            <stop stop-color="#007BC1" />
            <stop offset="0.323457" stop-color="#2D6CB5" />
            <stop offset="0.4" stop-color="#2D6CB5" />
            <stop offset="0.866273" stop-color="#004789" />
            <stop offset="1" stop-color="#004789" />
        </linearGradient>
    </defs>
</svg>
