<svg width="400" height="400" viewBox="0 0 400 400" fill="none" xmlns="http://www.w3.org/2000/svg">
<g clip-path="url(#clip0_15_653)">
<path fill-rule="evenodd" clip-rule="evenodd" d="M163.157 153.95C152.39 138.684 134.491 129.585 116.287 129.585C98.0926 129.585 80.1903 138.684 69.4361 153.95L68.8848 154.736H82.452L82.5981 154.571C91.832 145.04 103.893 140.005 116.287 140.005C128.689 140.005 140.737 145.04 149.988 154.571L150.138 154.736H163.702L163.157 153.95Z" fill="#E04245"/>
<path fill-rule="evenodd" clip-rule="evenodd" d="M63.3039 204.687L63.0338 204.938C58.8637 209.191 54.0371 211.438 49.0613 211.438C38.6887 211.438 31.1559 203.65 31.1559 192.907C31.1559 182.179 38.6887 174.376 49.0613 174.376C54.0371 174.376 58.8637 176.635 63.0338 180.898L63.3039 181.149L69.9776 173.078L69.7954 172.864C64.2479 166.299 57.582 163.113 49.3895 163.113C41.175 163.113 33.6611 165.886 28.2486 170.858C22.3587 176.263 19.2598 183.877 19.2598 192.907C19.2598 201.929 22.3587 209.556 28.2486 214.959C33.6611 219.974 41.175 222.719 49.3895 222.719C57.582 222.719 64.2479 219.525 69.7954 212.958L69.9776 212.763L63.3039 204.687Z" fill="#1F4889"/>
<path fill-rule="evenodd" clip-rule="evenodd" d="M76.7188 221.619H88.5128V164.043H76.7188V221.619Z" fill="#1F4889"/>
<path fill-rule="evenodd" clip-rule="evenodd" d="M134.712 209.103C131.563 211.019 128.634 211.983 126.006 211.983C122.197 211.983 120.466 209.978 120.466 205.492V174.939H132.49V164.094H120.466V146.184L108.91 152.372V164.094H98.9375V174.939H108.91V207.438C108.91 216.285 114.154 222.337 121.993 222.497C127.305 222.604 130.503 221.019 132.449 219.862L132.575 219.78L135.406 208.677L134.712 209.103Z" fill="#1F4889"/>
<path fill-rule="evenodd" clip-rule="evenodd" d="M144.479 221.619H156.282V164.043H144.479V221.619Z" fill="#1F4889"/>
<path d="M213.341 192.913C213.341 179.332 208.509 169.204 195.755 169.204C190.276 169.204 184.247 172.427 177.777 178.319V211.096C183.808 216.276 189.863 218.208 194.052 218.208C205.284 218.208 213.341 207.897 213.341 192.913ZM177.755 215.746H177.502L176.926 221.34H172.691V146.186L177.777 142.67V162.576L177.524 173.347C183.106 168.629 189.827 164.693 196.55 164.693C211.372 164.693 218.68 175.788 218.68 192.878C218.68 211.649 207.356 222.721 194.329 222.721C189.058 222.721 182.957 219.98 177.755 215.746Z" fill="#1F4889"/>
<path d="M261.374 209.415V190.61C238.68 193.233 230.921 198.506 230.921 207.322C230.921 215.252 236.285 218.301 242.638 218.301C248.968 218.301 254.537 215.239 261.374 209.415ZM225.721 207.586C225.721 195.306 236.792 189.46 261.374 186.743C261.538 178.249 259.21 169.158 248.346 169.158C240.888 169.158 234.444 172.84 230.737 175.648L228.391 171.874C232.303 169.113 239.968 164.693 248.944 164.693C262.042 164.693 266.46 174.2 266.46 186.029V221.34H262.158L261.604 214.157H261.351C255.712 218.715 248.991 222.72 241.74 222.72C232.994 222.72 225.721 217.955 225.721 207.586Z" fill="#1F4889"/>
<path d="M282.5 166.074H286.804L287.358 174.637H287.609C293.25 169.019 299.003 164.693 306.622 164.693C318.039 164.693 323.334 171.621 323.334 185.892V221.34H318.248V186.56C318.248 174.843 314.54 169.273 305.656 169.273C299.073 169.273 294.308 172.749 287.586 179.654V221.34H282.5V166.074Z" fill="#1F4889"/>
<path d="M345.034 143.109V199.565H345.287L372.563 166.074H378.433L360.433 187.94L381.45 221.34H375.786L357.441 191.738L345.034 206.286V221.34H339.994V146.491L345.034 143.109Z" fill="#1F4889"/>
</g>
<defs>
<clipPath id="clip0_15_653">
<rect width="400" height="400" fill="white"/>
</clipPath>
</defs>
</svg>
