<svg width="400" height="400" viewBox="0 0 400 400" fill="none" xmlns="http://www.w3.org/2000/svg">
<g clip-path="url(#clip0_15_622)">
<path d="M302.552 48.9549C337.651 63.4434 363.403 60.3559 363.403 60.3559C363.403 60.3559 352.585 38.9706 319.505 24.629C289.387 11.5795 259.176 19.4341 259.176 19.4341C259.176 19.4341 270.167 35.5801 302.552 48.9549Z" fill="#ED1C24"/>
<path d="M353.159 140.11C353.159 140.11 351.6 119.767 336.3 95.7578C315.94 63.8179 291.288 59.2289 291.288 59.2289C291.288 59.2289 289.952 81.3895 313.324 110.728C334.157 136.871 353.159 140.11 353.159 140.11Z" fill="#ED1C24"/>
<path d="M255.966 64.4356C223.865 52.785 199.584 64.4356 199.584 64.4356C199.584 64.4356 204.561 77.3738 238.759 90.1025C264.007 99.4898 292.276 96.1617 292.276 96.1617C292.276 96.1617 285.838 75.2842 255.966 64.4356Z" fill="#ED1C24"/>
<path d="M361.443 109.484C381.354 131.391 399.999 133.28 399.999 133.28C399.999 133.28 397.014 111.039 379.456 91.2757C359.625 68.9369 335.905 67.5781 335.905 67.5781C335.905 67.5781 344.165 90.4827 361.443 109.484Z" fill="#ED1C24"/>
<path d="M363.952 132.522C363.952 132.522 364.309 153.382 366.67 171.613C369.036 189.871 378.548 214.959 386.621 224.065C393.918 232.276 395.558 197.503 395.531 194.469C395.335 169.853 384.616 150.272 373.388 134.853C368.933 128.753 364.193 124.619 363.952 132.522Z" fill="#ED1C24"/>
<path d="M240.538 385.401C234.493 386.239 228.175 385.825 221.889 385.825C147.744 385.825 87.6463 325.718 87.6463 251.56C87.6463 177.42 147.744 117.3 221.889 117.3C225.916 117.3 229.89 117.509 233.82 117.861C237.201 118.075 240.552 118.369 243.853 118.828C194.092 93.3618 126.363 107.031 90.0522 136.845C101.32 115.718 118.009 94.8811 142.531 76.9441C205.279 31.0948 271.333 45.6858 271.333 45.6858C271.333 45.6858 244.508 29.3527 191.432 35.599C154.36 39.9474 122.701 53.5583 100.732 72.0834C129.063 38.6599 170.185 16.4413 214.101 9.41089C217.914 8.71585 222.062 8.08765 226.518 7.56195H226.54C238.471 6.16296 252.621 5.58826 268.7 6.68427C194.8 -18.0782 110.052 0.718628 53.8708 61.7516C-22.368 144.566 -17.044 273.538 65.762 349.799C148.595 426.078 278.275 420.411 354.513 337.583C363.215 327.621 369.857 318.817 375.03 311.065C339.673 352.789 293.694 379.939 240.538 385.401Z" fill="#ED1C24"/>
</g>
<defs>
<clipPath id="clip0_15_622">
<rect width="400" height="400" fill="white"/>
</clipPath>
</defs>
</svg>
