<svg width="400" height="400" viewBox="0 0 400 400" fill="none" xmlns="http://www.w3.org/2000/svg">
<path d="M22.8184 323.674C149.959 437.298 355.518 400.957 387.356 324.727C384.853 307.587 377.683 285.665 368.91 267.407C346.78 317.68 308.166 334.375 264.488 344.727C320.766 312.246 340.101 269.154 343.683 220.612C332.663 202.311 317.036 184.67 305.192 176.417C309.946 267.279 199.265 378.128 22.8184 323.674Z" fill="url(#paint0_linear_15_54)"/>
<path d="M205.723 4.13071C43.7496 57.4263 -27.2806 257.988 22.8187 323.674C39.8442 329.281 58.8844 334.059 78.955 336.356C44.6002 290.302 51.6209 248.001 66.9311 207.266C66.9224 272.247 95.0036 309.9 135.251 337.274C155.815 334.851 177.412 332.418 191.152 326.044C110.088 284.73 70.3408 129.712 205.723 4.13071Z" fill="url(#paint1_linear_15_54)"/>
<path d="M387.358 324.727C422.189 157.807 287.658 -6.41348 205.723 4.13065C192.13 14.8672 179.417 28.8869 167.605 46.2696C224.667 39.546 256.857 66.9091 284.476 100.536C228.207 68.0389 181.558 73.5309 137.729 94.701C128.946 113.932 121.759 132.146 120.37 146.668C196.682 97.1198 346.291 144.691 387.358 324.727Z" fill="url(#paint2_linear_15_54)"/>
<defs>
<linearGradient id="paint0_linear_15_54" x1="421.974" y1="245.927" x2="38.7186" y2="386.634" gradientUnits="userSpaceOnUse">
<stop stop-color="#F28A12"/>
<stop offset="1" stop-color="#FFD4A1"/>
</linearGradient>
<linearGradient id="paint1_linear_15_54" x1="39.9264" y1="338.667" x2="172.796" y2="2.73483" gradientUnits="userSpaceOnUse">
<stop stop-color="#F28A12"/>
<stop offset="1" stop-color="#FFD4A1"/>
</linearGradient>
<linearGradient id="paint2_linear_15_54" x1="184.236" y1="11.5157" x2="408.622" y2="294.418" gradientUnits="userSpaceOnUse">
<stop stop-color="#F28A12"/>
<stop offset="1" stop-color="#FFD4A1"/>
</linearGradient>
</defs>
</svg>
