<svg width="400" height="400" viewBox="0 0 400 400" fill="none" xmlns="http://www.w3.org/2000/svg">
<g clip-path="url(#clip0_15_641)">
<path d="M181.601 36.4205V362.845C187.523 363.49 193.537 363.833 199.631 363.833C205.727 363.833 211.741 363.49 217.666 362.845V36.4205C211.741 35.7726 205.727 35.4301 199.631 35.4301C193.537 35.4301 187.523 35.7726 181.601 36.4205Z" fill="#92A4D3"/>
<path d="M199.63 -0.737579C193.551 -0.737579 187.539 -0.452118 181.6 0.079071V36.4204V362.845C99.4006 353.862 35.4315 284.222 35.4315 199.63H165.57V38.9895C165.739 38.9522 165.905 38.9125 166.076 38.8777C165.907 38.91 165.739 38.9423 165.57 38.9771V2.17648C71.1379 18.3503 -0.737305 100.584 -0.737305 199.63C-0.737305 304.214 79.3892 390.064 181.6 399.184C187.539 399.715 193.551 400 199.63 400C205.711 400 211.723 399.715 217.665 399.184V362.845V36.4204V0.079071C211.723 -0.452118 205.711 -0.737579 199.63 -0.737579Z" fill="#1C93D4"/>
<path d="M363.833 199.63H233.695V397.104C328.127 380.93 400 298.681 400 199.63H363.833Z" fill="#1C93D4"/>
</g>
<defs>
<clipPath id="clip0_15_641">
<rect width="400" height="400" fill="white"/>
</clipPath>
</defs>
</svg>
