<svg width="400" height="400" viewBox="0 0 400 400" fill="none" xmlns="http://www.w3.org/2000/svg">
<g clip-path="url(#clip0_16_3316)">
<g clip-path="url(#clip1_16_3316)">
<path d="M198.983 85.6729H199.415C200.378 103.315 199.859 121.019 199.711 138.685C137.97 156.253 76.2791 173.982 14.5137 191.463V173.969C53.4149 162.685 92.4026 151.698 131.341 140.549C133.353 139.981 135.143 138.833 136.748 137.525C156.378 121.364 176.057 105.265 195.761 89.1914C196.958 88.142 198.032 86.9568 198.983 85.6729Z" fill="#1D5393"/>
<path d="M14.5137 200.414C76.2668 182.586 138.143 165.167 199.909 147.414C199.859 165.265 199.921 183.117 199.896 200.969C198.156 201.13 196.44 201.401 194.748 201.809C134.674 218.957 74.6248 236.191 14.5137 253.191V200.414Z" fill="#1D5393"/>
<path d="M14.5137 262.08C76.3655 244.414 138.242 226.833 200.082 209.105C199.551 226.944 200.205 244.796 199.773 262.623C198.106 262.87 196.44 263.191 194.798 263.574C134.687 280.586 74.6865 298.056 14.5137 314.858V262.08Z" fill="#1D5393"/>
<path d="M199.773 85.6976C261.724 103.179 323.564 120.994 385.477 138.599C385.489 156.241 385.477 173.87 385.489 191.5C323.613 173.895 261.786 156.191 199.909 138.599C200.527 132.068 200.329 125.562 200.489 119.019C200.206 107.907 201.094 96.7346 199.773 85.6976Z" fill="#FFC62A"/>
<path d="M200.684 200.883C200.154 183.068 200.684 165.241 200.438 147.414C262.042 165.29 323.796 182.673 385.462 200.315C385.512 217.957 385.462 235.599 385.487 253.253C328.919 237.142 272.376 220.969 215.82 204.846C210.771 203.549 205.87 201.636 200.684 200.883Z" fill="#FFC62A"/>
<path d="M200.404 262.191C200.577 244.512 200.367 226.87 200.491 209.191C262.083 227.031 323.812 244.426 385.466 262.068C385.503 279.71 385.466 297.352 385.491 314.994C323.787 297.426 262.096 279.784 200.404 262.191Z" fill="#FFC62A"/>
</g>
</g>
<defs>
<clipPath id="clip0_16_3316">
<rect width="400" height="400" fill="white"/>
</clipPath>
<clipPath id="clip1_16_3316">
<rect width="400" height="266.667" fill="white" transform="translate(0 67)"/>
</clipPath>
</defs>
</svg>
