<svg width="400" height="400" viewBox="0 0 400 400" fill="none" xmlns="http://www.w3.org/2000/svg">
<path fill-rule="evenodd" clip-rule="evenodd" d="M133.818 159.019L134.84 158.548C134.871 158.71 134.726 158.933 134.312 158.933L133.818 159.019Z" fill="#F7A81A"/>
<path fill-rule="evenodd" clip-rule="evenodd" d="M131.004 159.5L133.955 158.128L134.627 158.386C134.955 158.386 134.955 158.934 134.309 158.934L131.004 159.5Z" fill="#F7A81A"/>
<path fill-rule="evenodd" clip-rule="evenodd" d="M134.836 158.548L133.814 159.019C131.949 159.344 130.067 159.662 128.166 159.971L132.964 157.749C133.515 157.965 134.063 158.185 134.626 158.386C134.744 158.386 134.817 158.456 134.836 158.548Z" fill="#F9AA18"/>
<path fill-rule="evenodd" clip-rule="evenodd" d="M133.964 158.131L131.026 159.497L125.791 160.356L132.13 157.421C132.732 157.669 133.347 157.902 133.964 158.131Z" fill="#F9AC18"/>
<path fill-rule="evenodd" clip-rule="evenodd" d="M133.068 157.787L128.438 159.926L123.42 160.729L131.326 157.067C131.899 157.316 132.479 157.555 133.068 157.787Z" fill="#F9AC18"/>
<path fill-rule="evenodd" clip-rule="evenodd" d="M132.125 157.421L125.786 160.356L121.414 161.038L130.638 156.768C131.128 156.991 131.622 157.211 132.125 157.421Z" fill="#F9AC18"/>
<path fill-rule="evenodd" clip-rule="evenodd" d="M131.334 157.071L123.473 160.72L119.107 161.385L129.834 156.402C130.325 156.634 130.831 156.851 131.334 157.071Z" fill="#F9AC18"/>
<path fill-rule="evenodd" clip-rule="evenodd" d="M130.643 156.768L121.412 161.038L116.273 161.799L128.895 155.931C129.471 156.217 130.051 156.501 130.643 156.768Z" fill="#F9AC18"/>
<path fill-rule="evenodd" clip-rule="evenodd" d="M129.837 156.405L119.11 161.385L113.965 162.127L128.118 155.542C128.681 155.838 129.254 156.128 129.837 156.405Z" fill="#F9AC18"/>
<path fill-rule="evenodd" clip-rule="evenodd" d="M128.907 155.937L116.302 161.796L111.873 162.416L127.497 155.215C127.959 155.463 128.433 155.701 128.907 155.937Z" fill="#F9AE18"/>
<path fill-rule="evenodd" clip-rule="evenodd" d="M128.173 155.568L114.089 162.108L109.473 162.741L126.711 154.765C127.192 155.036 127.676 155.31 128.173 155.568Z" fill="#F9AE18"/>
<path fill-rule="evenodd" clip-rule="evenodd" d="M127.494 155.211L111.86 162.416L107.342 163.021L126.019 154.38C126.506 154.667 126.994 154.941 127.494 155.211Z" fill="#F7AE18"/>
<path fill-rule="evenodd" clip-rule="evenodd" d="M126.71 154.765L109.471 162.741L104.816 163.343L125.181 153.868C125.681 154.176 126.194 154.472 126.71 154.765Z" fill="#F7AE18"/>
<path fill-rule="evenodd" clip-rule="evenodd" d="M126.009 154.374L107.316 163.025L102.73 163.601L124.538 153.463C125.025 153.772 125.509 154.081 126.009 154.374Z" fill="#F7AF18"/>
<path fill-rule="evenodd" clip-rule="evenodd" d="M125.175 153.871L104.816 163.343L99.9766 163.935L123.707 152.938C124.188 153.256 124.681 153.565 125.175 153.871Z" fill="#F7B118"/>
<path fill-rule="evenodd" clip-rule="evenodd" d="M124.541 153.463L102.734 163.601L98.5664 164.104L123.332 152.673L124.541 153.463Z" fill="#F7B118"/>
<path fill-rule="evenodd" clip-rule="evenodd" d="M123.71 152.941L99.9978 163.932L96.123 164.381L122.605 152.167L123.71 152.941Z" fill="#F9B116"/>
<path fill-rule="evenodd" clip-rule="evenodd" d="M123.329 152.673L98.564 164.104L93.9727 164.617L121.89 151.661C122.364 152.008 122.842 152.342 123.329 152.673Z" fill="#F9B116"/>
<path fill-rule="evenodd" clip-rule="evenodd" d="M122.599 152.161L96.1047 164.384L91.9688 164.833L121.268 151.193C121.704 151.524 122.15 151.842 122.599 152.161Z" fill="#F9B116"/>
<path fill-rule="evenodd" clip-rule="evenodd" d="M121.892 151.664L93.9873 164.617L89.2402 165.113L120.472 150.572C120.94 150.941 121.408 151.311 121.892 151.664Z" fill="#F9B316"/>
<path fill-rule="evenodd" clip-rule="evenodd" d="M121.351 151.263L92.1852 164.808L87.1289 165.324L119.889 150.123C120.367 150.511 120.857 150.89 121.351 151.263Z" fill="#F9B516"/>
<path fill-rule="evenodd" clip-rule="evenodd" d="M120.472 150.575L89.2433 165.113L85.6328 165.467L119.504 149.795L120.472 150.575Z" fill="#F9B516"/>
<path fill-rule="evenodd" clip-rule="evenodd" d="M119.89 150.123L87.1171 165.324L83.7324 165.642L118.919 149.298C119.241 149.576 119.559 149.856 119.89 150.123Z" fill="#F9B516"/>
<path fill-rule="evenodd" clip-rule="evenodd" d="M119.504 149.795L85.6226 165.467L81.4766 165.843L118.325 148.789L119.504 149.795Z" fill="#F9B516"/>
<path fill-rule="evenodd" clip-rule="evenodd" d="M118.937 149.314L83.6614 165.648L80.0254 165.967L117.937 148.448L118.937 149.314Z" fill="#F9B515"/>
<path fill-rule="evenodd" clip-rule="evenodd" d="M118.329 148.789L81.4805 165.843L77.6758 166.161L117.25 147.795L118.329 148.789Z" fill="#F9B616"/>
<path fill-rule="evenodd" clip-rule="evenodd" d="M117.947 148.451L80.0474 165.964L75.7168 166.311L116.711 147.296C117.119 147.687 117.526 148.073 117.947 148.451Z" fill="#F9B616"/>
<path fill-rule="evenodd" clip-rule="evenodd" d="M117.244 147.795L77.6763 166.161L73.6328 166.463L116.171 146.77L117.244 147.795Z" fill="#F9B615"/>
<path fill-rule="evenodd" clip-rule="evenodd" d="M116.771 147.35L75.869 166.301L72.0098 166.578L115.793 146.382L116.771 147.35Z" fill="#F9B615"/>
<path fill-rule="evenodd" clip-rule="evenodd" d="M116.177 146.773L73.6511 166.463L70.0566 166.705L115.142 145.713L116.177 146.773Z" fill="#FBB813"/>
<path fill-rule="evenodd" clip-rule="evenodd" d="M115.783 146.376L71.9939 166.578L68.0137 166.83L114.663 145.216C115.029 145.611 115.405 145.994 115.783 146.376Z" fill="#FBB813"/>
<path fill-rule="evenodd" clip-rule="evenodd" d="M115.137 145.707L70.0669 166.702L66.3828 166.919L114.21 144.704L115.137 145.707Z" fill="#FBBA13"/>
<path fill-rule="evenodd" clip-rule="evenodd" d="M114.662 145.213L68.0096 166.83L64.5137 167.017L113.713 144.153C114.025 144.51 114.337 144.866 114.662 145.213Z" fill="#FBBA13"/>
<path fill-rule="evenodd" clip-rule="evenodd" d="M114.206 144.707L66.3816 166.919L62.7422 167.1L113.391 143.797L114.206 144.707Z" fill="#F9BA13"/>
<path fill-rule="evenodd" clip-rule="evenodd" d="M113.711 144.153L64.5116 167.017L61.127 167.17L112.826 143.128L113.711 144.153Z" fill="#F9BA13"/>
<path fill-rule="evenodd" clip-rule="evenodd" d="M113.399 143.8L62.7857 167.1L59.4043 167.237L112.396 142.605L113.399 143.8Z" fill="#F9BC13"/>
<path fill-rule="evenodd" clip-rule="evenodd" d="M112.822 143.121L61.1199 167.17L57.3438 167.301L111.921 142.029L112.822 143.121Z" fill="#F9BC13"/>
<path fill-rule="evenodd" clip-rule="evenodd" d="M112.466 142.688L59.4486 167.234C58.1239 167.282 56.8217 167.317 55.5449 167.345L111.418 141.383C111.759 141.826 112.112 142.259 112.466 142.688Z" fill="#F9BC13"/>
<path fill-rule="evenodd" clip-rule="evenodd" d="M111.919 142.023L57.326 167.301L54.4316 167.368L111.123 140.991L111.919 142.023Z" fill="#F9BD11"/>
<path fill-rule="evenodd" clip-rule="evenodd" d="M111.414 141.383L55.5409 167.346L52.6816 167.397L110.755 140.51L111.414 141.383Z" fill="#F9BD11"/>
<path fill-rule="evenodd" clip-rule="evenodd" d="M111.123 140.994L54.4351 167.368L51.0664 167.406L110.359 139.989L111.123 140.994Z" fill="#FBBD11"/>
<path fill-rule="evenodd" clip-rule="evenodd" d="M110.756 140.51L52.6917 167.397L49.4727 167.41L109.81 139.209L110.756 140.51Z" fill="#FBBD11"/>
<path fill-rule="evenodd" clip-rule="evenodd" d="M110.357 139.988L51.0708 167.406C49.7115 167.41 48.3898 167.406 47.1035 167.389L109.437 138.682C109.743 139.121 110.042 139.557 110.357 139.987V139.988Z" fill="#FBBF13"/>
<path fill-rule="evenodd" clip-rule="evenodd" d="M109.796 139.192L49.3825 167.409L46.1348 167.375L109.051 138.126L109.796 139.192Z" fill="#FBBF13"/>
<path fill-rule="evenodd" clip-rule="evenodd" d="M109.444 138.683L47.1168 167.39L44.4707 167.336L108.629 137.476L109.444 138.683Z" fill="#FBC115"/>
<path fill-rule="evenodd" clip-rule="evenodd" d="M109.059 138.132L46.143 167.374C45.089 167.353 44.0635 167.327 43.0605 167.288L108.346 137.043L109.059 138.132Z" fill="#FBC115"/>
<path fill-rule="evenodd" clip-rule="evenodd" d="M108.64 137.495L44.4824 167.336L42.852 167.282L41.2949 167.247L107.978 136.473L108.64 137.495Z" fill="#FBC115"/>
<path fill-rule="evenodd" clip-rule="evenodd" d="M108.339 137.04L43.0695 167.288L42.8463 167.284C41.7958 167.266 40.7673 167.236 39.7578 167.188L107.495 135.717L108.339 137.04Z" fill="#FDC313"/>
<path fill-rule="evenodd" clip-rule="evenodd" d="M107.979 136.476L41.3187 167.247C40.2777 167.217 39.2586 167.167 38.2617 167.103L107.202 135.215L107.979 136.476Z" fill="#FDC313"/>
<path fill-rule="evenodd" clip-rule="evenodd" d="M107.503 135.719L39.7622 167.186C38.6637 167.135 37.5876 167.068 36.5371 166.976L106.767 134.487L107.503 135.719Z" fill="#FDC311"/>
<path fill-rule="evenodd" clip-rule="evenodd" d="M107.2 135.219L38.2563 167.103C37.397 167.049 36.5563 166.986 35.7285 166.903L106.56 134.146L107.2 135.219Z" fill="#FDC311"/>
<path fill-rule="evenodd" clip-rule="evenodd" d="M106.792 134.534L36.5589 166.979C35.7117 166.906 34.8773 166.817 34.0625 166.718L106.095 133.321L106.792 134.534Z" fill="#FDC311"/>
<path fill-rule="evenodd" clip-rule="evenodd" d="M106.569 134.162L35.8579 166.916C34.8805 166.823 33.9251 166.712 32.9922 166.581L105.881 132.936L106.569 134.162Z" fill="#FDC411"/>
<path fill-rule="evenodd" clip-rule="evenodd" d="M106.095 133.321L34.0629 166.718C33.2857 166.623 32.528 166.518 31.7832 166.397L105.468 132.187L106.095 133.321Z" fill="#FDC411"/>
<path fill-rule="evenodd" clip-rule="evenodd" d="M105.884 132.945L33.078 166.591C32.2056 166.47 31.3523 166.333 30.5215 166.18L105.161 131.624L105.884 132.945Z" fill="#FDC611"/>
<path fill-rule="evenodd" clip-rule="evenodd" d="M105.465 132.181L31.774 166.397C30.9682 166.266 30.1785 166.123 29.4082 165.96L104.764 130.838L105.465 132.181Z" fill="#FDC611"/>
<path fill-rule="evenodd" clip-rule="evenodd" d="M105.164 131.624L30.5241 166.18C29.8459 166.056 29.1867 165.916 28.5371 165.77L104.572 130.462L105.164 131.624Z" fill="#FDC60F"/>
<path fill-rule="evenodd" clip-rule="evenodd" d="M104.752 130.799L29.1345 165.9C28.5264 165.77 27.9244 165.626 27.3418 165.476L104.252 129.822L104.752 130.799Z" fill="#FDC60F"/>
<path fill-rule="evenodd" clip-rule="evenodd" d="M104.575 130.462L28.5409 165.77C27.7577 165.591 26.9965 165.394 26.2578 165.177L103.923 129.147L104.575 130.462Z" fill="#FDC60F"/>
<path fill-rule="evenodd" clip-rule="evenodd" d="M104.243 129.825L27.3456 165.476C26.6358 165.292 25.9447 165.094 25.2695 164.878L103.692 128.669L104.243 129.825Z" fill="#FDC60E"/>
<path fill-rule="evenodd" clip-rule="evenodd" d="M103.922 129.147L26.2573 165.177C25.5727 164.98 24.904 164.763 24.2578 164.534L103.333 127.905L103.922 129.147Z" fill="#FDC60E"/>
<path fill-rule="evenodd" clip-rule="evenodd" d="M103.691 128.669L25.2685 164.878C24.7084 164.7 24.1604 164.508 23.6289 164.308L103.121 127.456L103.691 128.669Z" fill="#FFCA0C"/>
<path fill-rule="evenodd" clip-rule="evenodd" d="M103.329 127.899L24.2508 164.534C23.6137 164.308 22.9931 164.066 22.3945 163.808L102.81 126.746L103.329 127.899Z" fill="#FFCA0C"/>
<path fill-rule="evenodd" clip-rule="evenodd" d="M103.128 127.453L23.648 164.311C23.0494 164.085 22.4733 163.846 21.9062 163.592L102.577 126.202L103.128 127.453Z" fill="#FFCA0A"/>
<path fill-rule="evenodd" clip-rule="evenodd" d="M102.815 126.743L22.3867 163.802C21.9348 163.607 21.492 163.407 21.0625 163.194L102.277 125.523L102.815 126.743Z" fill="#FFCA0A"/>
<path fill-rule="evenodd" clip-rule="evenodd" d="M102.572 126.198L21.8921 163.585C21.3125 163.324 20.752 163.047 20.2109 162.754L101.973 124.791L102.572 126.198Z" fill="#FFCA0A"/>
<path fill-rule="evenodd" clip-rule="evenodd" d="M102.28 125.542L21.0656 163.197C20.4831 162.91 19.9195 162.604 19.375 162.283L101.736 124.208L102.28 125.542Z" fill="#FDCA0C"/>
<path fill-rule="evenodd" clip-rule="evenodd" d="M101.975 124.791L20.2195 162.757C19.697 162.477 19.1971 162.181 18.707 161.869L101.437 123.463L101.975 124.791Z" fill="#FDCA0C"/>
<path fill-rule="evenodd" clip-rule="evenodd" d="M101.733 124.208L19.3622 162.277C18.9864 162.053 18.6205 161.824 18.2637 161.583L101.271 123.065L101.733 124.208Z" fill="#FDCA0C"/>
<path fill-rule="evenodd" clip-rule="evenodd" d="M101.434 123.463L18.6941 161.862C18.2512 161.579 17.8212 161.28 17.4043 160.971L100.998 122.333L101.434 123.463Z" fill="#FDCA0C"/>
<path fill-rule="evenodd" clip-rule="evenodd" d="M101.28 123.065L18.2721 161.583C17.8106 161.274 17.3713 160.952 16.9414 160.615L100.738 121.632L101.28 123.065Z" fill="#FDCA0C"/>
<path fill-rule="evenodd" clip-rule="evenodd" d="M101.01 122.365L17.5501 161.083C17.1202 160.77 16.7128 160.442 16.3145 160.102L100.516 121.053L101.01 122.365Z" fill="#FDCD0C"/>
<path fill-rule="evenodd" clip-rule="evenodd" d="M100.733 121.632L16.9359 160.615C16.4935 160.264 16.0695 159.901 15.6621 159.519L100.268 120.359L100.733 121.632Z" fill="#FDCD0C"/>
<path fill-rule="evenodd" clip-rule="evenodd" d="M100.513 121.043L16.3176 160.102C15.9037 159.748 15.5088 159.382 15.127 159L100.045 119.709L100.513 121.043Z" fill="#FBCD0E"/>
<path fill-rule="evenodd" clip-rule="evenodd" d="M100.266 120.359L15.6599 159.519C15.297 159.178 14.9437 158.828 14.6094 158.462L99.8105 119.06L100.266 120.359Z" fill="#FBCD0E"/>
<path fill-rule="evenodd" clip-rule="evenodd" d="M100.039 119.706L15.118 158.994C14.8442 158.717 14.58 158.43 14.3223 158.137L99.6349 118.541L100.039 119.706Z" fill="#FBCD0C"/>
<path fill-rule="evenodd" clip-rule="evenodd" d="M99.8184 119.069L14.6493 158.5C14.337 158.163 14.0348 157.809 13.748 157.45L99.3825 117.751L99.8184 119.069Z" fill="#FBCD0C"/>
<path fill-rule="evenodd" clip-rule="evenodd" d="M99.6296 118.534L14.3263 158.14C14.0115 157.78 13.7023 157.408 13.416 157.023L99.1841 117.159L99.6296 118.534Z" fill="#FBCD0C"/>
<path fill-rule="evenodd" clip-rule="evenodd" d="M99.3791 117.742L13.7516 157.45C13.4328 157.052 13.1335 156.638 12.8438 156.211L98.9622 116.455L99.3791 117.742Z" fill="#FBCF0C"/>
<path fill-rule="evenodd" clip-rule="evenodd" d="M99.1919 117.159L13.4238 157.026C13.1085 156.606 12.8126 156.173 12.5293 155.724L98.7204 115.656L99.1919 117.159Z" fill="#FBCF0C"/>
<path fill-rule="evenodd" clip-rule="evenodd" d="M98.9552 116.442L12.8433 156.211C12.592 155.835 12.3562 155.447 12.127 155.052L98.5732 115.166L98.9552 116.442Z" fill="#FDD10A"/>
<path fill-rule="evenodd" clip-rule="evenodd" d="M98.7217 115.656L12.5306 155.724C12.2949 155.345 12.0717 154.96 11.8555 154.558L98.3749 114.494L98.7217 115.656Z" fill="#FDD10A"/>
<path fill-rule="evenodd" clip-rule="evenodd" d="M98.5695 115.166L12.1167 155.046C11.913 154.689 11.7159 154.32 11.5312 153.944L98.1937 113.892L98.5695 115.166Z" fill="#FDD10A"/>
<path fill-rule="evenodd" clip-rule="evenodd" d="M98.3692 114.494L11.8498 154.558C11.6331 154.157 11.4294 153.744 11.2383 153.32L98.0124 113.243L98.3692 114.494Z" fill="#FBD10C"/>
<path fill-rule="evenodd" clip-rule="evenodd" d="M98.1959 113.892L11.5334 153.944C11.3487 153.568 11.1735 153.183 11.0078 152.788L97.766 112.351L98.1959 113.892Z" fill="#FBD108"/>
<path fill-rule="evenodd" clip-rule="evenodd" d="M98.0208 113.249L11.2372 153.31C11.0365 152.871 10.8548 152.416 10.6797 151.951L97.6195 111.803L98.0208 113.249Z" fill="#FBD108"/>
<path fill-rule="evenodd" clip-rule="evenodd" d="M97.7702 112.351L11.012 152.788C10.8274 152.349 10.6553 151.9 10.4961 151.435L97.4518 111.151L97.7702 112.351Z" fill="#FBD108"/>
<path fill-rule="evenodd" clip-rule="evenodd" d="M97.6147 111.797L10.6779 151.951C10.5317 151.556 10.3947 151.158 10.2676 150.744L97.2834 110.501L97.6147 111.797Z" fill="#FBD307"/>
<path fill-rule="evenodd" clip-rule="evenodd" d="M97.4484 111.148L10.4926 151.432C10.34 150.989 10.1999 150.544 10.0723 150.079L97.0856 109.734L97.4484 111.148Z" fill="#FBD307"/>
<path fill-rule="evenodd" clip-rule="evenodd" d="M97.2864 110.498L10.267 150.735C10.1459 150.343 10.0313 149.945 9.92969 149.537L96.9871 109.326L97.2864 110.498Z" fill="#FBD401"/>
<path fill-rule="evenodd" clip-rule="evenodd" d="M97.0852 109.73L10.0719 150.079C9.96379 149.693 9.86209 149.298 9.76953 148.897L96.8049 108.568L97.0852 109.73Z" fill="#FBD401"/>
<path fill-rule="evenodd" clip-rule="evenodd" d="M96.9801 109.333L9.92271 149.547L9.66797 148.429L96.6458 107.903L96.9801 109.333Z" fill="#FBD401"/>
<path fill-rule="evenodd" clip-rule="evenodd" d="M96.8004 108.565L9.7622 148.884C9.67311 148.499 9.59653 148.101 9.52344 147.703L96.4883 107.238L96.8004 108.565Z" fill="#FBD400"/>
<path fill-rule="evenodd" clip-rule="evenodd" d="M96.6404 107.89L9.65603 148.394C9.53493 147.811 9.43284 147.219 9.34375 146.605L96.2805 106.302L96.6404 107.89Z" fill="#FBD400"/>
<path fill-rule="evenodd" clip-rule="evenodd" d="M96.4844 107.228L9.52258 147.703C9.427 147.181 9.34741 146.646 9.27734 146.095L96.1596 105.738L96.4844 107.228Z" fill="#FBD400"/>
<path fill-rule="evenodd" clip-rule="evenodd" d="M96.2855 106.317L9.34264 146.602C9.27906 146.165 9.22814 145.719 9.18359 145.27L96.0247 105.114L96.2855 106.317Z" fill="#FBD600"/>
<path fill-rule="evenodd" clip-rule="evenodd" d="M96.1667 105.738L9.28444 146.095L9.13477 144.697L95.8804 104.388L96.1667 105.738Z" fill="#FBD600"/>
<path fill-rule="evenodd" clip-rule="evenodd" d="M96.0445 105.158L9.19734 145.334C9.1463 144.85 9.10472 144.357 9.07617 143.854L95.7738 103.856L96.0445 105.158Z" fill="#FBD600"/>
<path fill-rule="evenodd" clip-rule="evenodd" d="M95.8777 104.397L9.13206 144.697L9.04297 143.344L95.6129 103.079L95.8777 104.397Z" fill="#FBD600"/>
<path fill-rule="evenodd" clip-rule="evenodd" d="M95.7689 103.853L9.0713 143.848L9.00781 142.361L95.46 102.299L95.7689 103.853Z" fill="#FBD800"/>
<path fill-rule="evenodd" clip-rule="evenodd" d="M95.6123 103.054L9.03894 143.204C9.01299 142.666 9 142.118 9 141.561L95.3251 101.551L95.6123 103.054Z" fill="#FBD800"/>
<path fill-rule="evenodd" clip-rule="evenodd" d="M95.4579 102.293L9.00871 142.364L9 141.463L9.00871 141.071L95.2413 101.089L95.4579 102.293Z" fill="#FBDA00"/>
<path fill-rule="evenodd" clip-rule="evenodd" d="M95.3252 101.551L9 141.561V141.463C9 140.979 9.01741 140.488 9.03471 140.001L95.0831 100.201L95.3252 101.551Z" fill="#FBDA00"/>
<path fill-rule="evenodd" clip-rule="evenodd" d="M95.2404 101.089L9.00781 141.077C9.01084 140.574 9.02077 140.068 9.04239 139.558L94.9502 99.44L95.2404 101.089Z" fill="#FBDA00"/>
<path fill-rule="evenodd" clip-rule="evenodd" d="M95.0815 100.21L9.0332 140.001L9.11622 138.441L94.8492 98.8379L95.0815 100.21Z" fill="#FBDA00"/>
<path fill-rule="evenodd" clip-rule="evenodd" d="M94.9507 99.4365L9.04297 139.559C9.06892 138.992 9.10653 138.419 9.1541 137.849L94.7376 98.1729L94.9507 99.4365Z" fill="#FBDA00"/>
<path fill-rule="evenodd" clip-rule="evenodd" d="M94.8502 98.838L9.11719 138.441L9.25076 136.862L94.611 97.3831L94.8502 98.838Z" fill="#FDDB00"/>
<path fill-rule="evenodd" clip-rule="evenodd" d="M94.7358 98.1568L9.15234 137.839L9.31495 136.244L94.5035 96.6889L94.7358 98.1568Z" fill="#FDDB00"/>
<path fill-rule="evenodd" clip-rule="evenodd" d="M94.6075 97.383L9.24414 136.9C9.29518 136.409 9.34275 135.916 9.40979 135.42L94.4103 96.0678L94.6075 97.383Z" fill="#FDDB00"/>
<path fill-rule="evenodd" clip-rule="evenodd" d="M94.5089 96.6889L9.32031 136.244C9.38692 135.655 9.46998 135.066 9.55908 134.471L94.3048 95.3356L94.5089 96.6889Z" fill="#FDDB00"/>
<path fill-rule="evenodd" clip-rule="evenodd" d="M94.4115 96.0583L9.41406 135.426L9.63686 133.929L94.2079 94.6385L94.4115 96.0583Z" fill="#FDDB00"/>
<path fill-rule="evenodd" clip-rule="evenodd" d="M94.3 95.3387L9.55078 134.483L9.80895 132.936L94.1122 93.9568L94.3 95.3387Z" fill="#FDDB00"/>
<path fill-rule="evenodd" clip-rule="evenodd" d="M94.2058 94.6385L9.63477 133.933C9.73035 133.334 9.84152 132.732 9.95959 132.13L94.0016 93.142L94.2058 94.6385Z" fill="#FDDB00"/>
<path fill-rule="evenodd" clip-rule="evenodd" d="M94.1157 93.9663L9.8125 132.936L10.0988 131.423L93.928 92.556L94.1157 93.9663Z" fill="#FDDB00"/>
<path fill-rule="evenodd" clip-rule="evenodd" d="M94.0162 93.2532L9.94531 132.194L10.3371 130.335L93.8061 91.5945L94.0162 93.2532Z" fill="#FDDB00"/>
<path fill-rule="evenodd" clip-rule="evenodd" d="M93.9269 92.556L10.0977 131.423C10.2188 130.844 10.3464 130.261 10.4865 129.675L93.7548 91.1421L93.9269 92.556Z" fill="#FDDB00"/>
<path fill-rule="evenodd" clip-rule="evenodd" d="M93.8128 91.5945L10.3438 130.335L10.7641 128.612L93.6346 90.0822L93.8128 91.5945Z" fill="#FDDB00"/>
<path fill-rule="evenodd" clip-rule="evenodd" d="M93.7566 91.1422L10.4883 129.675L10.9147 128.01L93.6004 89.8018L93.7566 91.1422Z" fill="#FDDB00"/>
<path fill-rule="evenodd" clip-rule="evenodd" d="M93.6331 90.0755L10.7656 128.596L11.1731 127.071L93.5024 88.9165L93.6331 90.0755Z" fill="#FDDB00"/>
<path fill-rule="evenodd" clip-rule="evenodd" d="M93.5939 89.7892L10.9082 128.013C11.0643 127.427 11.233 126.838 11.4082 126.249L93.4413 88.4105L93.5939 89.7892Z" fill="#FDDB00"/>
<path fill-rule="evenodd" clip-rule="evenodd" d="M93.5073 88.9996L11.1719 127.061L11.6874 125.323L93.3612 87.5987L93.5073 88.9996Z" fill="#FDDB00"/>
<path fill-rule="evenodd" clip-rule="evenodd" d="M93.4491 88.4105L11.416 126.249L11.9606 124.498L93.2674 86.6052L93.4491 88.4105Z" fill="#FDDB00"/>
<path fill-rule="evenodd" clip-rule="evenodd" d="M93.3573 87.5891L11.6836 125.319L12.2187 123.67L93.2042 86.0668L93.3573 87.5891Z" fill="#FDDB00"/>
<path fill-rule="evenodd" clip-rule="evenodd" d="M93.2654 86.5987L11.9746 124.447C12.1749 123.829 12.3789 123.212 12.5986 122.594L93.1448 85.2775L93.2654 86.5987Z" fill="#FDDB00"/>
<path fill-rule="evenodd" clip-rule="evenodd" d="M93.2089 86.0448L12.2773 123.505L12.7933 122.043L93.1037 84.8475L93.2089 86.0448Z" fill="#FDDB00"/>
<path fill-rule="evenodd" clip-rule="evenodd" d="M93.1456 85.2804L12.6055 122.585L13.1404 121.091L93.0405 84.0738L93.1456 85.2804Z" fill="#FDDB00"/>
<path fill-rule="evenodd" clip-rule="evenodd" d="M93.104 84.8475L12.7871 122.056C13.0323 121.375 13.2871 120.699 13.5544 120.015L92.9769 83.316L93.104 84.8475Z" fill="#FDDB00"/>
<path fill-rule="evenodd" clip-rule="evenodd" d="M93.0388 84.0738L13.1387 121.091L13.8774 119.187L92.9111 82.4532L93.0388 84.0738Z" fill="#FDDB00"/>
<path fill-rule="evenodd" clip-rule="evenodd" d="M92.9772 83.316L13.5547 120.015L14.2524 118.283L92.8466 81.5935L92.9772 83.316Z" fill="#FDDB00"/>
<path fill-rule="evenodd" clip-rule="evenodd" d="M92.9132 82.4532L13.873 119.2C14.1723 118.458 14.4811 117.716 14.8029 116.971L92.8116 81.0139L92.9132 82.4532Z" fill="#FDDB00"/>
<path fill-rule="evenodd" clip-rule="evenodd" d="M92.8461 81.5935L14.252 118.277L15.1592 116.163L92.757 80.2912L92.8461 81.5935Z" fill="#FDDB00"/>
<path fill-rule="evenodd" clip-rule="evenodd" d="M92.8114 81.0139L14.8027 116.971L15.5574 115.271L92.7064 79.4794L92.8114 81.0139Z" fill="#FDDB00"/>
<path fill-rule="evenodd" clip-rule="evenodd" d="M92.7621 80.2687L15.2344 116.003L16.0557 114.198L92.6601 78.6261L92.7621 80.2687Z" fill="#FDDB00"/>
<path fill-rule="evenodd" clip-rule="evenodd" d="M92.7056 79.4794L15.5566 115.271L16.416 113.424L92.626 78.0721L92.7056 79.4794Z" fill="#FDDB00"/>
<path fill-rule="evenodd" clip-rule="evenodd" d="M92.6571 78.6261L16.0527 114.198L16.9921 112.243L92.5809 77.2473L92.6571 78.6261Z" fill="#FDDB00"/>
<path fill-rule="evenodd" clip-rule="evenodd" d="M92.6212 78.072L16.4082 113.437L17.3447 111.523L92.5416 76.5406L92.6212 78.072Z" fill="#FDDB00"/>
<path fill-rule="evenodd" clip-rule="evenodd" d="M92.5777 77.2472L16.9824 112.255L17.8997 110.434L92.5042 75.7378L92.5777 77.2472Z" fill="#FDDB00"/>
<path fill-rule="evenodd" clip-rule="evenodd" d="M92.5427 76.5406L17.3457 111.523L18.3611 109.556L92.4787 75.1457L92.5427 76.5406Z" fill="#FDDB00"/>
<path fill-rule="evenodd" clip-rule="evenodd" d="M92.5088 75.7284L17.9043 110.434L18.8723 108.597L92.4453 74.248L92.5088 75.7284Z" fill="#FDDB00"/>
<path fill-rule="evenodd" clip-rule="evenodd" d="M92.4815 75.1488L18.332 109.613L19.5837 107.295L92.4179 73.5602L92.4815 75.1488Z" fill="#FDDB00"/>
<path fill-rule="evenodd" clip-rule="evenodd" d="M92.4402 74.2545L18.8672 108.594L20.0448 106.454L92.3891 72.863L92.4402 74.2545Z" fill="#FDDB00"/>
<path fill-rule="evenodd" clip-rule="evenodd" d="M92.4139 73.5602L19.5762 107.301L20.7513 105.222L92.3663 72.1083L92.4139 73.5602Z" fill="#FDDB00"/>
<path fill-rule="evenodd" clip-rule="evenodd" d="M92.3915 72.8596L20.0508 106.448L21.1554 104.528L92.344 71.2835L92.3915 72.8596Z" fill="#FDDB00"/>
<path fill-rule="evenodd" clip-rule="evenodd" d="M92.3709 72.1083L20.7559 105.222L21.9049 103.27L92.3294 70.6785L92.3709 72.1083Z" fill="#FDDB00"/>
<path fill-rule="evenodd" clip-rule="evenodd" d="M92.3429 71.2835L21.1543 104.528C21.6227 103.729 22.1001 102.926 22.5906 102.13L92.3044 69.8442L92.3429 71.2835Z" fill="#FDDB00"/>
<path fill-rule="evenodd" clip-rule="evenodd" d="M92.3307 70.6785L21.9062 103.27L23.1675 101.21L92.2927 69.163L92.3307 70.6785Z" fill="#FDDB00"/>
<path fill-rule="evenodd" clip-rule="evenodd" d="M92.3076 69.8442L22.5938 102.13L23.8068 100.188L92.2825 68.5515L92.3076 69.8442Z" fill="#FDDB00"/>
<path fill-rule="evenodd" clip-rule="evenodd" d="M92.2931 69.3287L23.1074 101.299L24.4286 99.2139L92.2677 67.8098L92.2931 69.3287Z" fill="#FDDB00"/>
<path fill-rule="evenodd" clip-rule="evenodd" d="M92.2842 68.5515L23.8086 100.188L25.1964 98.0387L92.2586 66.9023L92.2842 68.5515Z" fill="#FDDB00"/>
<path fill-rule="evenodd" clip-rule="evenodd" d="M92.2704 67.7972L24.4414 99.2043L25.8773 97.0202L92.2483 66.116L92.2704 67.7972Z" fill="#FDDB00"/>
<path fill-rule="evenodd" clip-rule="evenodd" d="M92.2557 66.9023L25.2031 98.0292L26.5598 96.0013L92.2427 65.5872L92.2557 66.9023Z" fill="#FDDB00"/>
<path fill-rule="evenodd" clip-rule="evenodd" d="M92.2499 66.116L25.8789 97.0202C26.3979 96.243 26.9233 95.4692 27.4579 94.7019L92.24 64.5686L92.2499 66.116Z" fill="#FDDB00"/>
<path fill-rule="evenodd" clip-rule="evenodd" d="M92.2454 65.5872L26.5625 96.0013L28.0398 93.8713L92.2389 64.2153L92.2454 65.5872Z" fill="#FDDB00"/>
<path fill-rule="evenodd" clip-rule="evenodd" d="M92.2375 64.6642L27.4238 94.75L29.0254 92.4828L92.2344 63.0176L92.2375 64.6642Z" fill="#FDDB00"/>
<path fill-rule="evenodd" clip-rule="evenodd" d="M92.2362 64.2214L28.0371 93.8677L29.7277 91.515L92.2332 62.5337L92.2362 64.2214Z" fill="#FDDB00"/>
<path fill-rule="evenodd" clip-rule="evenodd" d="M92.2305 63.0177L29.0215 92.4829L30.7376 90.1361L92.2336 61.5628L92.2305 63.0177Z" fill="#FDDB00"/>
<path fill-rule="evenodd" clip-rule="evenodd" d="M92.2359 62.5336L29.7305 91.515L31.5233 89.1012L92.2424 61.0373L92.2359 62.5336Z" fill="#FDDB00"/>
<path fill-rule="evenodd" clip-rule="evenodd" d="M92.2371 61.5658L30.7441 90.1331L32.3426 88.0221L92.2436 60.2925L92.2371 61.5658Z" fill="#FDDB00"/>
<path fill-rule="evenodd" clip-rule="evenodd" d="M92.2346 61.0373L31.5059 89.1172L33.3782 86.6848L92.2445 59.681L92.2346 61.0373Z" fill="#FDDB00"/>
<path fill-rule="evenodd" clip-rule="evenodd" d="M92.2372 60.2955L32.3809 87.9645L34.116 85.7424L92.2467 58.9613L92.2372 60.2955Z" fill="#FDDB00"/>
<path fill-rule="evenodd" clip-rule="evenodd" d="M92.2432 59.681L33.377 86.6848L35.3989 84.1409L92.2624 57.8438L92.2432 59.681Z" fill="#FDDB00"/>
<path fill-rule="evenodd" clip-rule="evenodd" d="M92.2499 58.9708L34.1133 85.7519C34.7849 84.9046 35.46 84.0643 36.1442 83.23L92.2725 57.0639L92.2499 58.9708Z" fill="#FDDB00"/>
<path fill-rule="evenodd" clip-rule="evenodd" d="M92.2634 57.8437L35.3965 84.1469L37.1861 81.9723L92.2824 56.4268L92.2634 57.8437Z" fill="#FDDB00"/>
<path fill-rule="evenodd" clip-rule="evenodd" d="M92.2767 57.064L36.1484 83.23L38.1293 80.8517L92.2988 55.6881L92.2767 57.064Z" fill="#FDDB00"/>
<path fill-rule="evenodd" clip-rule="evenodd" d="M92.2794 56.4268L37.1797 81.9787C37.8453 81.1795 38.5169 80.3867 39.1955 79.6035L92.3015 55.1691L92.2794 56.4268Z" fill="#FDDB00"/>
<path fill-rule="evenodd" clip-rule="evenodd" d="M92.295 55.6691L38.1445 80.8323C38.9628 79.8678 39.7877 78.9159 40.6185 77.973L92.3239 53.975L92.295 55.6691Z" fill="#FDDB00"/>
<path fill-rule="evenodd" clip-rule="evenodd" d="M92.307 55.1726L39.166 79.6416C39.9999 78.6737 40.8376 77.7153 41.6845 76.7699L92.339 53.2462L92.307 55.1726Z" fill="#FDDB00"/>
<path fill-rule="evenodd" clip-rule="evenodd" d="M92.3299 53.9785L40.5449 78.0591L42.6018 75.7574L92.352 52.6793L92.3299 53.9785Z" fill="#FDDB00"/>
<path fill-rule="evenodd" clip-rule="evenodd" d="M92.3375 53.2462L41.6895 76.7604C42.4472 75.9131 43.208 75.0853 43.9722 74.2575L92.3601 51.823L92.3375 53.2462Z" fill="#FDDB00"/>
<path fill-rule="evenodd" clip-rule="evenodd" d="M92.3419 52.6793L42.5918 75.7574C43.3655 74.904 44.1454 74.0537 44.9286 73.2224L92.3645 51.256L92.3419 52.6793Z" fill="#FDDB00"/>
<path fill-rule="evenodd" clip-rule="evenodd" d="M92.3605 51.8229L43.9727 74.2574C44.8195 73.3436 45.6667 72.4391 46.5166 71.5507L92.3826 50.2564L92.3605 51.8229Z" fill="#FDDB00"/>
<path fill-rule="evenodd" clip-rule="evenodd" d="M92.3675 51.2559L44.9316 73.2224C45.7914 72.309 46.6481 71.4108 47.514 70.5229L92.3831 49.8235L92.3675 51.2559Z" fill="#FDDB00"/>
<path fill-rule="evenodd" clip-rule="evenodd" d="M92.3797 50.2565L46.5137 71.5508C47.5011 70.5228 48.4976 69.5164 49.4876 68.5265L92.3797 48.5943V50.2565Z" fill="#FDDB00"/>
<path fill-rule="evenodd" clip-rule="evenodd" d="M92.3801 49.8235L47.5176 70.5163C48.5171 69.4908 49.52 68.4849 50.5199 67.498L92.3706 48.0594L92.3801 49.8235Z" fill="#FDDB00"/>
<path fill-rule="evenodd" clip-rule="evenodd" d="M92.3803 48.5943L49.4883 68.5265C50.3226 67.6922 51.1569 66.8738 51.9942 66.0681L92.3483 47.3271L92.3803 48.5943Z" fill="#FDDB00"/>
<path fill-rule="evenodd" clip-rule="evenodd" d="M92.378 48.0594L50.5273 67.498C51.5779 66.466 52.6288 65.4601 53.6793 64.4731L92.2889 46.5309C92.3369 46.9038 92.3655 47.4132 92.378 48.0594Z" fill="#FDDB00"/>
<path fill-rule="evenodd" clip-rule="evenodd" d="M92.3517 47.327L52.0391 66.03C53.004 65.1001 53.9684 64.1897 54.9333 63.3014L92.1866 46.0154L92.2211 46.1489C92.2847 46.3941 92.3262 46.8016 92.3513 47.327H92.3517Z" fill="#FDDB00"/>
<path fill-rule="evenodd" clip-rule="evenodd" d="M92.2885 46.5309L53.6855 64.4665C54.679 63.5336 55.6694 62.6232 56.6563 61.7379L91.9671 45.3878C92.0657 45.6205 92.1518 45.8752 92.2219 46.149L92.2885 46.5309Z" fill="#FDDB00"/>
<path fill-rule="evenodd" clip-rule="evenodd" d="M92.1788 46.0154L54.916 63.3109C56.0907 62.2249 57.2628 61.1775 58.4249 60.162L91.6597 44.8052C91.8699 45.149 92.0482 45.5505 92.1788 46.0154Z" fill="#FDDB00"/>
<path fill-rule="evenodd" clip-rule="evenodd" d="M91.9741 45.3973L56.6348 61.7538C57.9435 60.5787 59.2427 59.4547 60.5259 58.3691L91.1402 44.1365C91.4806 44.4708 91.7609 44.8847 91.9741 45.3973Z" fill="#FDDB00"/>
<path fill-rule="evenodd" clip-rule="evenodd" d="M91.6731 44.8082L58.4258 60.1715C59.8076 58.9648 61.18 57.8086 62.5298 56.7071L90.6382 43.7321C91.0491 44.0029 91.3963 44.3563 91.6731 44.8082Z" fill="#FDDB00"/>
<path fill-rule="evenodd" clip-rule="evenodd" d="M91.1448 44.146L60.502 58.3882C61.8423 57.258 63.167 56.1721 64.4723 55.1471L89.9761 43.3853C90.422 43.5634 90.8139 43.8182 91.1448 44.146Z" fill="#FDDB00"/>
<path fill-rule="evenodd" clip-rule="evenodd" d="M90.6318 43.7321L62.5234 56.7071C64.0294 55.4779 65.5132 54.3193 66.9651 53.2333L88.9252 43.0986C89.5748 43.2067 90.1513 43.4138 90.6318 43.7321Z" fill="#FDDB00"/>
<path fill-rule="evenodd" clip-rule="evenodd" d="M89.9656 43.3818L64.4902 55.1341C66.4836 53.5676 68.4255 52.1317 70.3043 50.8325L87.1699 43.022L87.6063 43.0004C88.5072 43.0004 89.2969 43.1149 89.9656 43.3822V43.3818Z" fill="#FDDB00"/>
<path fill-rule="evenodd" clip-rule="evenodd" d="M88.923 43.0986L66.9629 53.2333C69.16 51.5902 71.2871 50.1128 73.312 48.83L85.3666 43.2578C86.1659 43.0921 86.917 43 87.5986 43C88.0731 43 88.5126 43.0303 88.923 43.0986Z" fill="#FDDB00"/>
<path fill-rule="evenodd" clip-rule="evenodd" d="M87.1664 43.022L70.3008 50.8325C77.1909 46.066 83.1611 43.2167 87.1664 43.022Z" fill="#FDDB00"/>
<path fill-rule="evenodd" clip-rule="evenodd" d="M85.5632 43.2166L73.0723 48.9858C77.9534 45.8658 82.258 43.8437 85.5632 43.2166Z" fill="#FDDB00"/>
<path fill-rule="evenodd" clip-rule="evenodd" d="M77.9885 191.929L76.4316 200.752C76.1003 197.832 75.82 194.919 75.6133 192.018L77.9885 191.929Z" fill="#F7AE18"/>
<path fill-rule="evenodd" clip-rule="evenodd" d="M75.9023 195.642L76.552 191.983L79.6084 191.866L77.093 206.05C76.6125 202.573 76.2111 199.103 75.9023 195.642Z" fill="#F7AF18"/>
<path fill-rule="evenodd" clip-rule="evenodd" d="M76.4336 200.752L77.9905 191.929L81.0534 191.812L77.7388 210.406C77.2293 207.187 76.7995 203.965 76.4336 200.752Z" fill="#F7AF18"/>
<path fill-rule="evenodd" clip-rule="evenodd" d="M77.1016 206.06L79.6169 191.866L82.6609 191.744L78.5278 215.09C77.9928 212.081 77.5155 209.069 77.1016 206.06Z" fill="#F7B118"/>
<path fill-rule="evenodd" clip-rule="evenodd" d="M77.7266 210.342L81.0282 191.812L84.2062 191.674L79.3315 219.382C78.739 216.37 78.201 213.358 77.7266 210.342Z" fill="#F7B118"/>
<path fill-rule="evenodd" clip-rule="evenodd" d="M78.5547 215.239L82.7226 191.741L85.757 191.601L80.1181 223.232C79.5511 220.573 79.0322 217.905 78.5547 215.239Z" fill="#F7B118"/>
<path fill-rule="evenodd" clip-rule="evenodd" d="M79.332 219.372L84.2037 191.674L87.3783 191.525L81.0132 227.24C80.4116 224.623 79.848 221.999 79.332 219.372Z" fill="#F9B316"/>
<path fill-rule="evenodd" clip-rule="evenodd" d="M80.1367 223.286L85.7917 191.598L88.9342 191.449L81.9009 230.965C81.2737 228.412 80.6847 225.852 80.1367 223.286Z" fill="#F9B316"/>
<path fill-rule="evenodd" clip-rule="evenodd" d="M81.0469 227.403L87.4245 191.522L90.2518 191.372L82.6676 234.028C82.0975 231.828 81.5594 229.619 81.0469 227.403Z" fill="#F9B316"/>
<path fill-rule="evenodd" clip-rule="evenodd" d="M81.8926 230.965L88.9294 191.449L91.9858 191.276L83.6914 237.881C83.0613 235.585 82.4626 233.277 81.8926 230.965Z" fill="#F9B316"/>
<path fill-rule="evenodd" clip-rule="evenodd" d="M82.7441 234.325L90.3474 191.369L93.6301 191.184L84.7085 241.479C84.0174 239.104 83.3648 236.719 82.7441 234.325Z" fill="#F9B316"/>
<path fill-rule="evenodd" clip-rule="evenodd" d="M83.6914 237.878L91.9858 191.276L95.1634 191.095L85.6562 244.679C84.9715 242.424 84.3155 240.154 83.6914 237.878Z" fill="#F9B316"/>
<path fill-rule="evenodd" clip-rule="evenodd" d="M84.7031 241.466L93.6251 191.184L96.6751 190.996L86.5499 247.576C85.9102 245.548 85.2956 243.511 84.7031 241.466Z" fill="#F9B316"/>
<path fill-rule="evenodd" clip-rule="evenodd" d="M85.6582 244.679L95.1654 191.095L98.1491 190.901L87.524 250.595C86.8774 248.633 86.2598 246.659 85.6582 244.679Z" fill="#F9B516"/>
<path fill-rule="evenodd" clip-rule="evenodd" d="M86.5605 247.599L96.6888 190.996L99.8888 190.79L88.6746 254.021C87.9458 251.894 87.2387 249.751 86.5605 247.599Z" fill="#F9B516"/>
<path fill-rule="evenodd" clip-rule="evenodd" d="M87.5195 250.579L98.1416 190.901L101.418 190.69L89.6851 256.915C88.9399 254.817 88.2171 252.703 87.5195 250.579Z" fill="#F9B616"/>
<path fill-rule="evenodd" clip-rule="evenodd" d="M88.6992 254.107L99.913 190.786L102.906 190.579L90.6541 259.602C89.9854 257.781 89.3328 255.95 88.6992 254.107Z" fill="#F9B616"/>
<path fill-rule="evenodd" clip-rule="evenodd" d="M89.6367 256.785L101.293 190.697L104.541 190.461L91.7764 262.599C91.0442 260.672 90.3278 258.737 89.6367 256.785Z" fill="#F7B616"/>
<path fill-rule="evenodd" clip-rule="evenodd" d="M90.6484 259.593L102.894 190.582L106.158 190.344L92.8006 265.27C92.0654 263.391 91.3487 261.497 90.6484 259.593Z" fill="#F7B616"/>
<path fill-rule="evenodd" clip-rule="evenodd" d="M91.7754 262.592L104.54 190.461L107.727 190.229L93.9434 268.117C93.2047 266.289 92.4821 264.445 91.7754 262.592Z" fill="#F7B616"/>
<path fill-rule="evenodd" clip-rule="evenodd" d="M92.7969 265.257L106.147 190.344L109.21 190.108L94.9745 270.629C94.2328 268.849 93.5036 267.063 92.7969 265.257Z" fill="#F7B616"/>
<path fill-rule="evenodd" clip-rule="evenodd" d="M93.9375 268.094L107.705 190.229L110.759 189.981L95.9915 273.02C95.2943 271.39 94.6061 269.747 93.9375 268.094Z" fill="#F7B616"/>
<path fill-rule="evenodd" clip-rule="evenodd" d="M94.9766 270.629L109.212 190.108L112.205 189.863L97.0715 275.529C96.3583 273.908 95.6612 272.275 94.9766 270.629Z" fill="#F9B815"/>
<path fill-rule="evenodd" clip-rule="evenodd" d="M95.9805 273.001L110.735 189.984L113.872 189.726L98.104 277.824C97.3813 276.229 96.6746 274.621 95.9805 273.001Z" fill="#F9B815"/>
<path fill-rule="evenodd" clip-rule="evenodd" d="M97.0781 275.545L112.218 189.86L115.549 189.579L99.3548 280.56C98.581 278.901 97.8199 277.232 97.0781 275.545Z" fill="#F9BA13"/>
<path fill-rule="evenodd" clip-rule="evenodd" d="M98.2109 278.073L113.956 189.72L117.064 189.443L100.472 282.929C99.7044 281.324 98.9496 279.706 98.2109 278.073Z" fill="#F9BA13"/>
<path fill-rule="evenodd" clip-rule="evenodd" d="M99.3516 280.55L115.54 189.579L118.682 189.296L101.654 285.396C100.874 283.801 100.11 282.177 99.3516 280.55Z" fill="#F9BA13"/>
<path fill-rule="evenodd" clip-rule="evenodd" d="M100.467 282.925L117.062 189.443L120.354 189.146L102.874 287.838C102.059 286.217 101.257 284.581 100.467 282.925Z" fill="#F9BA13"/>
<path fill-rule="evenodd" clip-rule="evenodd" d="M101.656 285.39L118.675 189.299L121.719 189.016L103.777 289.606C103.061 288.211 102.353 286.81 101.656 285.39Z" fill="#F9BA13"/>
<path fill-rule="evenodd" clip-rule="evenodd" d="M102.873 287.835L120.347 189.149L123.483 188.844L105.178 292.305C104.398 290.831 103.631 289.341 102.873 287.835Z" fill="#F9BC13"/>
<path fill-rule="evenodd" clip-rule="evenodd" d="M103.805 289.672L121.737 189.013L124.832 188.71L106.161 294.143C105.365 292.669 104.578 291.178 103.805 289.672Z" fill="#F9BC13"/>
<path fill-rule="evenodd" clip-rule="evenodd" d="M105.188 292.325L123.518 188.841L126.501 188.548L107.363 296.337C106.63 295.012 105.904 293.678 105.188 292.325Z" fill="#F9BC13"/>
<path fill-rule="evenodd" clip-rule="evenodd" d="M106.16 294.143L124.831 188.71L128.095 188.382L108.519 298.419C107.72 297.011 106.937 295.585 106.16 294.143Z" fill="#F9BC13"/>
<path fill-rule="evenodd" clip-rule="evenodd" d="M107.453 296.502L126.56 188.541L129.566 188.226L109.688 300.447C108.934 299.145 108.189 297.833 107.453 296.502Z" fill="#F9BC13"/>
<path fill-rule="evenodd" clip-rule="evenodd" d="M108.533 298.435L128.134 188.379L131.171 188.057L110.87 302.463C110.084 301.135 109.303 299.794 108.533 298.435Z" fill="#F9BC13"/>
<path fill-rule="evenodd" clip-rule="evenodd" d="M109.691 300.447L129.566 188.226L132.779 187.889L112.14 304.577C111.312 303.22 110.5 301.841 109.691 300.447Z" fill="#F9BC13"/>
<path fill-rule="evenodd" clip-rule="evenodd" d="M110.906 302.52L131.191 188.054L134.391 187.711L113.304 306.474C112.498 305.175 111.696 303.854 110.906 302.52Z" fill="#F9BF13"/>
<path fill-rule="evenodd" clip-rule="evenodd" d="M112.141 304.577L132.779 187.889L135.887 187.538L114.468 308.315C113.685 307.082 112.908 305.841 112.141 304.577Z" fill="#F9BF13"/>
<path fill-rule="evenodd" clip-rule="evenodd" d="M113.297 306.465L134.385 187.711L137.374 187.37L115.657 310.177C114.86 308.958 114.077 307.719 113.297 306.465Z" fill="#F7BF16"/>
<path fill-rule="evenodd" clip-rule="evenodd" d="M114.473 308.324L135.888 187.538L139.044 187.182L116.838 311.967C116.042 310.773 115.256 309.553 114.473 308.324Z" fill="#F7BF16"/>
<path fill-rule="evenodd" clip-rule="evenodd" d="M115.652 310.177L137.37 187.37L140.663 186.991L118.215 314.014C117.353 312.753 116.499 311.477 115.652 310.177Z" fill="#F7BF16"/>
<path fill-rule="evenodd" clip-rule="evenodd" d="M116.83 311.957L139.039 187.182L142.273 186.797L119.282 315.565C118.457 314.38 117.642 313.177 116.83 311.957Z" fill="#F9C115"/>
<path fill-rule="evenodd" clip-rule="evenodd" d="M118.221 314.024L140.665 186.991L143.801 186.612L120.599 317.431C119.8 316.313 119.007 315.176 118.221 314.024Z" fill="#F9C313"/>
<path fill-rule="evenodd" clip-rule="evenodd" d="M119.264 315.539L142.163 186.809L145.427 186.418L121.722 318.972C120.897 317.845 120.075 316.705 119.264 315.539Z" fill="#F9C313"/>
<path fill-rule="evenodd" clip-rule="evenodd" d="M120.637 317.481L143.816 186.609L146.981 186.22L123.021 320.748C122.219 319.682 121.429 318.586 120.637 317.481Z" fill="#F9C313"/>
<path fill-rule="evenodd" clip-rule="evenodd" d="M121.916 319.233L145.535 186.405L148.735 185.997L124.654 322.869C123.737 321.681 122.823 320.468 121.916 319.233Z" fill="#F9C313"/>
<path fill-rule="evenodd" clip-rule="evenodd" d="M123.029 320.749L146.989 186.22L150.151 185.816L125.561 324.028C124.714 322.952 123.867 321.866 123.029 320.749Z" fill="#F9C313"/>
<path fill-rule="evenodd" clip-rule="evenodd" d="M124.65 322.869L148.731 185.997L151.835 185.6L126.918 325.738C126.156 324.798 125.402 323.84 124.65 322.869Z" fill="#F9C313"/>
<path fill-rule="evenodd" clip-rule="evenodd" d="M125.545 324.009L150.109 185.822L153.319 185.402L128.136 327.215C127.267 326.168 126.404 325.098 125.545 324.009Z" fill="#F9C311"/>
<path fill-rule="evenodd" clip-rule="evenodd" d="M127.031 325.881L151.895 185.593L154.86 185.192L129.439 328.769C128.633 327.823 127.831 326.865 127.031 325.881Z" fill="#FBC611"/>
<path fill-rule="evenodd" clip-rule="evenodd" d="M128.012 327.066L153.239 185.415L156.649 184.953L130.753 330.294C129.833 329.247 128.923 328.164 128.012 327.066Z" fill="#FBC611"/>
<path fill-rule="evenodd" clip-rule="evenodd" d="M129.449 328.778L154.87 185.192L158.064 184.759L131.831 331.494C131.035 330.606 130.239 329.702 129.449 328.778Z" fill="#FBC611"/>
<path fill-rule="evenodd" clip-rule="evenodd" d="M130.75 330.294L156.646 184.953L159.581 184.549L133.345 333.16C132.479 332.227 131.61 331.275 130.75 330.294Z" fill="#FBC611"/>
<path fill-rule="evenodd" clip-rule="evenodd" d="M131.822 331.491L158.052 184.762L161.338 184.297L134.716 334.624C133.749 333.612 132.784 332.561 131.822 331.491Z" fill="#FBC611"/>
<path fill-rule="evenodd" clip-rule="evenodd" d="M133.352 333.169L159.594 184.546L162.721 184.1L135.816 335.748C134.991 334.908 134.17 334.051 133.352 333.169Z" fill="#FBC80F"/>
<path fill-rule="evenodd" clip-rule="evenodd" d="M134.721 334.624L161.342 184.297L164.66 183.826L137.335 337.267C136.459 336.407 135.59 335.532 134.721 334.624Z" fill="#FBC80F"/>
<path fill-rule="evenodd" clip-rule="evenodd" d="M135.904 335.831L162.765 184.097L165.981 183.629L138.442 338.343C137.595 337.531 136.748 336.688 135.904 335.831Z" fill="#FBC80F"/>
<path fill-rule="evenodd" clip-rule="evenodd" d="M137.33 337.267L164.646 183.826L167.575 183.39L139.919 339.735C139.053 338.935 138.19 338.114 137.33 337.267Z" fill="#FBC80F"/>
<path fill-rule="evenodd" clip-rule="evenodd" d="M138.428 338.334L165.963 183.632L169.157 183.154L141.223 340.922C140.29 340.088 139.357 339.225 138.428 338.334Z" fill="#FBC80E"/>
<path fill-rule="evenodd" clip-rule="evenodd" d="M139.932 339.741L167.582 183.39L170.642 182.934L142.409 341.96C141.581 341.244 140.756 340.502 139.932 339.741Z" fill="#FBCA0E"/>
<path fill-rule="evenodd" clip-rule="evenodd" d="M141.225 340.922L169.158 183.154L172.533 182.642L144.071 343.361C143.119 342.575 142.17 341.766 141.225 340.922Z" fill="#FBCA0E"/>
<path fill-rule="evenodd" clip-rule="evenodd" d="M142.5 342.043L170.682 182.928L173.917 182.425L145.076 344.189C144.217 343.498 143.357 342.782 142.5 342.043Z" fill="#FBCA0F"/>
<path fill-rule="evenodd" clip-rule="evenodd" d="M144.078 343.368L172.54 182.642L175.702 182.148L146.555 345.348C145.727 344.715 144.902 344.049 144.078 343.368Z" fill="#FBCA0F"/>
<path fill-rule="evenodd" clip-rule="evenodd" d="M145.074 344.189L173.909 182.428L177.179 181.919L147.975 346.412C147.007 345.701 146.039 344.963 145.074 344.189Z" fill="#FBCA0F"/>
<path fill-rule="evenodd" clip-rule="evenodd" d="M146.537 345.332L175.442 182.189L178.68 181.673L149.234 347.325C148.336 346.692 147.435 346.023 146.537 345.332Z" fill="#FBCC0F"/>
<path fill-rule="evenodd" clip-rule="evenodd" d="M147.982 346.412L177.186 181.919L180.491 181.381L150.851 348.43C149.893 347.793 148.938 347.115 147.982 346.412Z" fill="#FBCC0F"/>
<path fill-rule="evenodd" clip-rule="evenodd" d="M149.242 347.325L178.688 181.673L181.939 181.145L152.054 349.204C151.114 348.605 150.178 347.985 149.242 347.325Z" fill="#FBCC0F"/>
<path fill-rule="evenodd" clip-rule="evenodd" d="M150.848 348.43L180.481 181.381L183.554 180.881L153.503 350.111C152.618 349.577 151.733 349.019 150.848 348.43Z" fill="#FBCC0F"/>
<path fill-rule="evenodd" clip-rule="evenodd" d="M152.037 349.201L181.928 181.145L185.151 180.61L154.886 350.923C153.938 350.382 152.986 349.806 152.037 349.201Z" fill="#FBCD0F"/>
<path fill-rule="evenodd" clip-rule="evenodd" d="M153.508 350.111L183.562 180.881L186.628 180.362L156.205 351.646C155.304 351.162 154.409 350.653 153.508 350.111Z" fill="#FBCD0F"/>
<path fill-rule="evenodd" clip-rule="evenodd" d="M154.885 350.923L185.149 180.61L188.307 180.078L157.658 352.407C156.734 351.942 155.811 351.452 154.885 350.923Z" fill="#FBCD0F"/>
<path fill-rule="evenodd" clip-rule="evenodd" d="M156.199 351.646L186.619 180.362L189.991 179.789L159.192 353.152C158.196 352.691 157.199 352.181 156.199 351.646Z" fill="#FBCD0F"/>
<path fill-rule="evenodd" clip-rule="evenodd" d="M157.664 352.407L188.377 180.066L191.383 179.547L160.641 353.783C159.651 353.362 158.658 352.904 157.664 352.407Z" fill="#FBCD0F"/>
<path fill-rule="evenodd" clip-rule="evenodd" d="M159.184 353.149L189.983 179.792L193.199 179.229L162.008 354.343C161.068 353.977 160.126 353.585 159.184 353.149Z" fill="#FBCF0C"/>
<path fill-rule="evenodd" clip-rule="evenodd" d="M160.645 353.786L191.469 179.531L194.561 178.989L163.323 354.84C162.431 354.521 161.539 354.165 160.645 353.786Z" fill="#FBCF0C"/>
<path fill-rule="evenodd" clip-rule="evenodd" d="M162.014 354.343L193.214 179.225L196.487 178.645L165.051 355.406C164.042 355.094 163.03 354.738 162.014 354.343Z" fill="#FDD10A"/>
<path fill-rule="evenodd" clip-rule="evenodd" d="M163.322 354.84L194.561 178.989L197.754 178.413L166.436 355.805C165.401 355.521 164.363 355.209 163.322 354.84Z" fill="#FDD10A"/>
<path fill-rule="evenodd" clip-rule="evenodd" d="M165.055 355.41L196.484 178.642L199.352 178.123L167.812 356.161C166.895 355.945 165.975 355.696 165.055 355.41Z" fill="#FBD10C"/>
<path fill-rule="evenodd" clip-rule="evenodd" d="M166.432 355.805L197.747 178.416L201.217 177.786L169.218 356.457C168.294 356.276 167.362 356.056 166.432 355.805Z" fill="#FBD10C"/>
<path fill-rule="evenodd" clip-rule="evenodd" d="M167.809 356.158L199.362 178.123L202.521 177.544L170.674 356.699C169.722 356.553 168.767 356.381 167.809 356.158Z" fill="#FBD10C"/>
<path fill-rule="evenodd" clip-rule="evenodd" d="M169.219 356.457L201.202 177.789L204.154 177.238L172.381 356.913C171.33 356.804 170.276 356.661 169.219 356.457Z" fill="#FBD108"/>
<path fill-rule="evenodd" clip-rule="evenodd" d="M170.791 356.718L202.558 177.534L205.809 176.926L173.937 357.037C172.893 356.979 171.845 356.871 170.791 356.718Z" fill="#FBD108"/>
<path fill-rule="evenodd" clip-rule="evenodd" d="M172.588 356.935L204.218 177.226L207.654 176.579L175.384 357.084C174.457 357.076 173.524 357.021 172.588 356.935Z" fill="#FBD108"/>
<path fill-rule="evenodd" clip-rule="evenodd" d="M173.93 357.037L205.808 176.926L209.231 176.274L176.891 357.056C176.455 357.064 176.021 357.09 175.582 357.09C175.034 357.09 174.48 357.064 173.93 357.036V357.037Z" fill="#FBD307"/>
<path fill-rule="evenodd" clip-rule="evenodd" d="M175.377 357.084L207.494 176.611L210.487 176.031L178.242 357.021C177.357 357.042 176.475 357.091 175.587 357.091L175.377 357.084Z" fill="#FBD407"/>
<path fill-rule="evenodd" clip-rule="evenodd" d="M176.947 357.056L209.249 176.27L212.185 175.7L179.896 356.979C178.915 357.024 177.931 357.043 176.947 357.056Z" fill="#FBD401"/>
<path fill-rule="evenodd" clip-rule="evenodd" d="M178.248 357.021L210.486 176.028L213.849 175.376L181.436 356.9C180.375 356.96 179.312 356.992 178.248 357.021Z" fill="#FBD401"/>
<path fill-rule="evenodd" clip-rule="evenodd" d="M179.994 356.976L212.22 175.694L215.327 175.079L183.347 356.753C182.229 356.839 181.115 356.925 179.994 356.976Z" fill="#FBD400"/>
<path fill-rule="evenodd" clip-rule="evenodd" d="M181.426 356.9L213.846 175.376L217.074 174.732L184.766 356.645C183.655 356.75 182.54 356.833 181.426 356.9Z" fill="#FBD400"/>
<path fill-rule="evenodd" clip-rule="evenodd" d="M183.369 356.753L215.696 175.006L218.651 174.417L186.559 356.464C185.499 356.581 184.436 356.67 183.369 356.753Z" fill="#FBD600"/>
<path fill-rule="evenodd" clip-rule="evenodd" d="M184.762 356.645L216.994 174.748L220.267 174.089L187.926 356.289C186.873 356.419 185.819 356.546 184.762 356.645Z" fill="#FBD600"/>
<path fill-rule="evenodd" clip-rule="evenodd" d="M186.559 356.464L218.65 174.417L222.15 173.701L189.883 356.04C188.778 356.2 187.67 356.339 186.559 356.464Z" fill="#FBD600"/>
<path fill-rule="evenodd" clip-rule="evenodd" d="M187.938 356.289L220.268 174.086L223.624 173.398L191.176 355.849C190.1 356.018 189.017 356.154 187.938 356.289Z" fill="#FBD600"/>
<path fill-rule="evenodd" clip-rule="evenodd" d="M189.83 356.046L222.139 173.704L225.17 173.08L192.791 355.565C191.807 355.735 190.82 355.903 189.83 356.046Z" fill="#FBD600"/>
<path fill-rule="evenodd" clip-rule="evenodd" d="M191.182 355.849L223.63 173.398L226.623 172.774L194.324 355.295C193.28 355.489 192.232 355.683 191.182 355.849Z" fill="#FBD800"/>
<path fill-rule="evenodd" clip-rule="evenodd" d="M192.795 355.565L225.167 173.083L228.313 172.421L195.883 355.008C194.858 355.215 193.826 355.387 192.795 355.565Z" fill="#FBD800"/>
<path fill-rule="evenodd" clip-rule="evenodd" d="M194.324 355.295L226.601 172.781L230.014 172.061L197.642 354.614C196.537 354.856 195.435 355.085 194.324 355.295Z" fill="#FBDA00"/>
<path fill-rule="evenodd" clip-rule="evenodd" d="M195.877 355.008L228.313 172.417L231.599 171.72L199.09 354.286C198.02 354.537 196.95 354.789 195.877 355.008Z" fill="#FBDA00"/>
<path fill-rule="evenodd" clip-rule="evenodd" d="M197.652 354.61L229.993 172.064L233.148 171.386L200.833 353.881C199.776 354.148 198.716 354.375 197.652 354.61Z" fill="#FBDA00"/>
<path fill-rule="evenodd" clip-rule="evenodd" d="M199.195 354.263L231.627 171.714L234.751 171.036L202.459 353.435C201.373 353.729 200.287 354.005 199.195 354.263Z" fill="#FBDA00"/>
<path fill-rule="evenodd" clip-rule="evenodd" d="M200.828 353.881L233.143 171.386L236.356 170.689L203.741 353.088C202.773 353.362 201.803 353.636 200.828 353.881Z" fill="#FDDB00"/>
<path fill-rule="evenodd" clip-rule="evenodd" d="M202.467 353.435L234.756 171.036L237.991 170.326L205.619 352.567C204.571 352.878 203.517 353.152 202.467 353.435Z" fill="#FDDB00"/>
<path fill-rule="evenodd" clip-rule="evenodd" d="M203.744 353.089L236.361 170.689L239.52 169.985L207.154 352.072C206.021 352.429 204.884 352.77 203.744 353.089Z" fill="#FDDB00"/>
<path fill-rule="evenodd" clip-rule="evenodd" d="M205.619 352.566L237.991 170.326L241.118 169.632L208.981 351.49C207.861 351.863 206.743 352.232 205.619 352.566Z" fill="#FDDB00"/>
<path fill-rule="evenodd" clip-rule="evenodd" d="M207.154 352.072L239.52 169.985L242.87 169.237L210.593 350.958C209.453 351.353 208.3 351.713 207.154 352.072Z" fill="#FDDB00"/>
<path fill-rule="evenodd" clip-rule="evenodd" d="M208.971 351.493L241.114 169.632L244.365 168.896L212.11 350.401C211.066 350.777 210.019 351.146 208.971 351.493Z" fill="#FDDB00"/>
<path fill-rule="evenodd" clip-rule="evenodd" d="M210.574 350.964L242.86 169.237L246.013 168.524L213.707 349.815C212.666 350.207 211.622 350.602 210.574 350.964Z" fill="#FDDB00"/>
<path fill-rule="evenodd" clip-rule="evenodd" d="M212.098 350.407L244.361 168.899L247.539 168.176L215.501 349.14C214.371 349.583 213.234 349.997 212.098 350.407Z" fill="#FDDB00"/>
<path fill-rule="evenodd" clip-rule="evenodd" d="M213.902 349.745L246.068 168.511L249.236 167.779L217.249 348.417C216.138 348.876 215.02 349.322 213.902 349.745Z" fill="#FDDB00"/>
<path fill-rule="evenodd" clip-rule="evenodd" d="M215.5 349.14L247.538 168.176L250.995 167.371L218.907 347.736C217.777 348.22 216.64 348.691 215.5 349.14Z" fill="#FDDB00"/>
<path fill-rule="evenodd" clip-rule="evenodd" d="M217.258 348.417L249.244 167.779L252.339 167.059L220.483 347.058C219.413 347.529 218.334 347.975 217.258 348.417Z" fill="#FDDB00"/>
<path fill-rule="evenodd" clip-rule="evenodd" d="M218.896 347.739L250.832 167.409L254.21 166.613L222.338 346.208C221.195 346.733 220.049 347.249 218.896 347.739Z" fill="#FDDB00"/>
<path fill-rule="evenodd" clip-rule="evenodd" d="M220.475 347.058L252.331 167.059L255.499 166.308L223.888 345.498C222.754 346.033 221.614 346.555 220.475 347.058Z" fill="#FDDB00"/>
<path fill-rule="evenodd" clip-rule="evenodd" d="M222.346 346.208L254.221 166.613L257.186 165.91L225.447 344.75C224.416 345.253 223.381 345.733 222.346 346.208Z" fill="#FDDB00"/>
<path fill-rule="evenodd" clip-rule="evenodd" d="M223.887 345.498L255.498 166.308L259.098 165.448L227.3 343.814C226.163 344.387 225.029 344.957 223.887 345.498Z" fill="#FDDB00"/>
<path fill-rule="evenodd" clip-rule="evenodd" d="M225.441 344.75L257.18 165.91L260.466 165.113L228.893 343.017C227.747 343.613 226.594 344.186 225.441 344.75Z" fill="#FDDB00"/>
<path fill-rule="evenodd" clip-rule="evenodd" d="M227.412 343.759L259.128 165.441L262.258 164.677L230.723 342.033C229.625 342.622 228.52 343.199 227.412 343.759Z" fill="#FDDB00"/>
<path fill-rule="evenodd" clip-rule="evenodd" d="M228.908 343.014L260.471 165.113L263.837 164.292L232.557 341.037C231.341 341.709 230.131 342.377 228.908 343.014Z" fill="#FDDB00"/>
<path fill-rule="evenodd" clip-rule="evenodd" d="M230.725 342.033L262.259 164.677L265.256 163.942L233.877 340.311C232.829 340.903 231.779 341.467 230.725 342.033Z" fill="#FDDB00"/>
<path fill-rule="evenodd" clip-rule="evenodd" d="M232.557 341.037L263.837 164.292L267.056 163.493L235.916 339.114C234.801 339.767 233.681 340.413 232.557 341.037Z" fill="#FDDB00"/>
<path fill-rule="evenodd" clip-rule="evenodd" d="M233.984 340.251L265.264 163.938L268.576 163.117L237.296 338.302C236.194 338.964 235.092 339.62 233.984 340.251Z" fill="#FDDB00"/>
<path fill-rule="evenodd" clip-rule="evenodd" d="M235.908 339.117L267.048 163.496L270.239 162.694L239.267 337.105C238.153 337.792 237.029 338.458 235.908 339.117Z" fill="#FDDB00"/>
<path fill-rule="evenodd" clip-rule="evenodd" d="M237.287 338.305L268.542 163.123L271.929 162.267L241.27 335.84C239.949 336.681 238.621 337.506 237.287 338.305Z" fill="#FDDB00"/>
<path fill-rule="evenodd" clip-rule="evenodd" d="M239.279 337.098L270.244 162.694L273.418 161.891L242.635 334.981C241.524 335.704 240.4 336.404 239.279 337.098Z" fill="#FDDB00"/>
<path fill-rule="evenodd" clip-rule="evenodd" d="M241.275 335.84L271.934 162.267L275.214 161.429L244.536 333.717C243.45 334.437 242.367 335.146 241.275 335.84Z" fill="#FDDB00"/>
<path fill-rule="evenodd" clip-rule="evenodd" d="M242.742 334.914L273.443 161.885L276.554 161.083L246.092 332.669C244.977 333.427 243.866 334.185 242.742 334.914Z" fill="#FDDB00"/>
<path fill-rule="evenodd" clip-rule="evenodd" d="M244.533 333.717L275.208 161.429L278.389 160.608L248.051 331.326C246.886 332.141 245.711 332.934 244.533 333.717Z" fill="#FDDB00"/>
<path fill-rule="evenodd" clip-rule="evenodd" d="M246.088 332.669L276.55 161.083L280.026 160.178L249.797 330.078C248.565 330.956 247.33 331.823 246.088 332.669Z" fill="#FDDB00"/>
<path fill-rule="evenodd" clip-rule="evenodd" d="M248.057 331.326L278.394 160.608L281.476 159.799L251.447 328.903C250.32 329.724 249.193 330.533 248.057 331.326Z" fill="#FDDB00"/>
<path fill-rule="evenodd" clip-rule="evenodd" d="M249.795 330.078L280.024 160.178L283.285 159.322L253.348 327.483C252.167 328.364 250.983 329.228 249.795 330.078Z" fill="#FDDB00"/>
<path fill-rule="evenodd" clip-rule="evenodd" d="M251.342 328.976L281.45 159.806L284.694 158.949L255.146 326.126C253.886 327.091 252.616 328.046 251.342 328.976Z" fill="#FDDB00"/>
<path fill-rule="evenodd" clip-rule="evenodd" d="M253.355 327.483L283.289 159.322L286.438 158.481L256.785 324.878C255.648 325.763 254.502 326.626 253.355 327.483Z" fill="#FDDB00"/>
<path fill-rule="evenodd" clip-rule="evenodd" d="M255.145 326.126L284.692 158.949L288.068 158.042L258.781 323.283C257.574 324.244 256.364 325.196 255.145 326.126Z" fill="#FDDB00"/>
<path fill-rule="evenodd" clip-rule="evenodd" d="M256.758 324.897L286.344 158.507L289.652 157.615L260.391 322.009C259.184 322.99 257.974 323.948 256.758 324.897Z" fill="#FDDB00"/>
<path fill-rule="evenodd" clip-rule="evenodd" d="M258.783 323.283L288.07 158.042L291.343 157.153L262.387 320.35C261.193 321.344 259.99 322.321 258.783 323.283Z" fill="#FDDB00"/>
<path fill-rule="evenodd" clip-rule="evenodd" d="M260.48 321.933L289.652 157.615L292.948 156.714L264.088 318.927C262.891 319.94 261.691 320.949 260.48 321.933Z" fill="#FDDB00"/>
<path fill-rule="evenodd" clip-rule="evenodd" d="M262.383 320.35L291.345 157.15L294.771 156.211L266.051 317.246C264.838 318.297 263.612 319.332 262.383 320.35Z" fill="#FDDB00"/>
<path fill-rule="evenodd" clip-rule="evenodd" d="M264.098 318.918L292.951 156.714L296.256 155.8L267.887 315.644C266.629 316.749 265.368 317.845 264.098 318.918Z" fill="#FDDB00"/>
<path fill-rule="evenodd" clip-rule="evenodd" d="M265.988 317.303L294.571 156.265L297.813 155.367L269.679 314.062C268.456 315.157 267.224 316.237 265.988 317.303Z" fill="#FDDB00"/>
<path fill-rule="evenodd" clip-rule="evenodd" d="M267.838 315.686L296.112 155.839L299.58 154.871L271.515 312.387C270.299 313.502 269.071 314.6 267.838 315.686Z" fill="#FDDB00"/>
<path fill-rule="evenodd" clip-rule="evenodd" d="M269.68 314.062L297.814 155.367L301.077 154.447L273.278 310.783C272.087 311.891 270.883 312.983 269.68 314.062Z" fill="#FDDB00"/>
<path fill-rule="evenodd" clip-rule="evenodd" d="M271.521 312.387L299.589 154.871L302.658 154.001L275.167 308.996C273.957 310.139 272.744 311.269 271.521 312.387Z" fill="#FDDB00"/>
<path fill-rule="evenodd" clip-rule="evenodd" d="M273.279 310.779L301.085 154.444L304.298 153.53L276.973 307.274C275.747 308.455 274.521 309.626 273.279 310.779Z" fill="#FDDB00"/>
<path fill-rule="evenodd" clip-rule="evenodd" d="M275.359 308.815L302.694 153.992L305.999 153.046L278.839 305.462C277.684 306.592 276.525 307.71 275.359 308.815Z" fill="#FDDB00"/>
<path fill-rule="evenodd" clip-rule="evenodd" d="M276.963 307.283L304.295 153.533L307.584 152.587L280.751 303.564C279.494 304.816 278.233 306.057 276.963 307.283Z" fill="#FDDB00"/>
<path fill-rule="evenodd" clip-rule="evenodd" d="M278.836 305.462L305.996 153.046L309.176 152.123L282.666 301.638C281.399 302.927 280.122 304.201 278.836 305.462Z" fill="#FDDB00"/>
<path fill-rule="evenodd" clip-rule="evenodd" d="M280.771 303.552L307.594 152.587L310.778 151.658L284.494 299.772C283.261 301.043 282.02 302.306 280.771 303.552Z" fill="#FDDB00"/>
<path fill-rule="evenodd" clip-rule="evenodd" d="M282.666 301.638L309.176 152.123L312.402 151.18L286.353 297.84C285.133 299.119 283.901 300.383 282.666 301.638Z" fill="#FDDB00"/>
<path fill-rule="evenodd" clip-rule="evenodd" d="M284.488 299.772L310.772 151.658L313.943 150.725L288.385 295.68C287.093 297.056 285.797 298.422 284.488 299.772Z" fill="#FDDB00"/>
<path fill-rule="evenodd" clip-rule="evenodd" d="M286.355 297.84L312.404 151.18L315.706 150.203L290.135 293.815C288.883 295.168 287.623 296.512 286.355 297.84Z" fill="#FDDB00"/>
<path fill-rule="evenodd" clip-rule="evenodd" d="M288.393 295.68L313.951 150.725L317.488 149.671L292.217 291.535C290.952 292.929 289.676 294.311 288.393 295.68Z" fill="#FDDB00"/>
<path fill-rule="evenodd" clip-rule="evenodd" d="M290.217 293.726L315.718 150.2L319.048 149.2L294.009 289.551C292.754 290.956 291.491 292.347 290.217 293.726Z" fill="#FDDB00"/>
<path fill-rule="evenodd" clip-rule="evenodd" d="M292.227 291.516L317.52 149.658L320.621 148.722L296.146 287.128C294.85 288.603 293.541 290.064 292.227 291.516Z" fill="#FDDB00"/>
<path fill-rule="evenodd" clip-rule="evenodd" d="M294.01 289.551L319.049 149.2L322.109 148.27L297.827 285.214C296.563 286.67 295.293 288.115 294.01 289.551Z" fill="#FDDB00"/>
<path fill-rule="evenodd" clip-rule="evenodd" d="M296.146 287.128L320.625 148.722L323.943 147.71L299.824 282.884C298.608 284.307 297.382 285.724 296.146 287.128Z" fill="#FDDB00"/>
<path fill-rule="evenodd" clip-rule="evenodd" d="M297.963 285.059L322.13 148.264L325.508 147.226L301.848 280.502C300.564 282.034 299.269 283.552 297.963 285.059Z" fill="#FDDB00"/>
<path fill-rule="evenodd" clip-rule="evenodd" d="M299.814 282.894L323.927 147.713L327.156 146.716L303.906 278.025C302.556 279.655 301.19 281.282 299.814 282.894Z" fill="#FDDB00"/>
<path fill-rule="evenodd" clip-rule="evenodd" d="M301.873 280.467L325.556 147.21L328.829 146.197L305.914 275.583C304.58 277.22 303.233 278.85 301.873 280.467Z" fill="#FDDB00"/>
<path fill-rule="evenodd" clip-rule="evenodd" d="M303.961 277.955L327.261 146.681L330.42 145.694L307.88 273.15C306.584 274.761 305.279 276.36 303.961 277.955Z" fill="#FDDB00"/>
<path fill-rule="evenodd" clip-rule="evenodd" d="M305.926 275.564L328.854 146.188L332.226 145.127L309.846 270.683C308.553 272.32 307.244 273.947 305.926 275.564Z" fill="#FDDB00"/>
<path fill-rule="evenodd" clip-rule="evenodd" d="M307.879 273.15L330.419 145.694L333.797 144.627L311.815 268.183C310.515 269.849 309.2 271.504 307.879 273.15Z" fill="#FDDB00"/>
<path fill-rule="evenodd" clip-rule="evenodd" d="M309.82 270.721L332.179 145.143L335.344 144.134L313.782 265.643C312.476 267.343 311.155 269.036 309.82 270.721Z" fill="#FDDB00"/>
<path fill-rule="evenodd" clip-rule="evenodd" d="M311.816 268.18L333.789 144.631L336.916 143.628L315.675 263.172C314.405 264.85 313.115 266.515 311.816 268.18Z" fill="#FDDB00"/>
<path fill-rule="evenodd" clip-rule="evenodd" d="M313.775 265.652L335.335 144.137L338.652 143.067L317.969 260.115C316.587 261.968 315.189 263.815 313.775 265.652Z" fill="#FDDB00"/>
<path fill-rule="evenodd" clip-rule="evenodd" d="M315.676 263.172L336.917 143.628L340.304 142.529L319.891 257.527C318.5 259.411 317.099 261.297 315.676 263.172Z" fill="#FDDB00"/>
<path fill-rule="evenodd" clip-rule="evenodd" d="M317.957 260.124L338.647 143.067L341.927 141.994L321.902 254.779C320.603 256.568 319.285 258.348 317.957 260.124Z" fill="#FDDB00"/>
<path fill-rule="evenodd" clip-rule="evenodd" d="M319.748 257.73L340.275 142.539L343.737 141.399L324.132 251.69C322.687 253.706 321.232 255.721 319.748 257.73Z" fill="#FDDB00"/>
<path fill-rule="evenodd" clip-rule="evenodd" d="M321.902 254.785L341.933 141.994L345.139 140.934L325.885 249.242C324.573 251.092 323.246 252.938 321.902 254.785Z" fill="#FDDB00"/>
<path fill-rule="evenodd" clip-rule="evenodd" d="M324.133 251.69L343.737 141.399L346.912 140.342L328.231 245.895C326.884 247.828 325.515 249.76 324.133 251.69Z" fill="#FDDB00"/>
<path fill-rule="evenodd" clip-rule="evenodd" d="M326.023 249.041L345.153 140.928L348.665 139.75L330.169 243.093C328.806 245.077 327.424 247.061 326.023 249.041Z" fill="#FDDB00"/>
<path fill-rule="evenodd" clip-rule="evenodd" d="M328.129 246.042L346.896 140.345L350.242 139.215L332.322 239.951C330.947 241.979 329.546 244.01 328.129 246.042Z" fill="#FDDB00"/>
<path fill-rule="evenodd" clip-rule="evenodd" d="M330.195 243.055L348.609 139.769L351.917 138.642L334.462 236.76C333.061 238.856 331.641 240.954 330.195 243.055Z" fill="#FDDB00"/>
<path fill-rule="evenodd" clip-rule="evenodd" d="M332.326 239.944L350.243 139.215L353.414 138.126L336.408 233.841C335.068 235.872 333.708 237.907 332.326 239.944Z" fill="#FDDB00"/>
<path fill-rule="evenodd" clip-rule="evenodd" d="M334.463 236.76L351.915 138.642L355.395 137.441L338.892 230.055C337.443 232.28 335.963 234.522 334.463 236.76Z" fill="#FDDB00"/>
<path fill-rule="evenodd" clip-rule="evenodd" d="M336.406 233.841L353.412 138.126L356.86 136.928L340.809 227.078C339.368 229.325 337.9 231.577 336.406 233.841Z" fill="#FDDB00"/>
<path fill-rule="evenodd" clip-rule="evenodd" d="M338.873 230.09L355.376 137.447L358.331 136.412L342.878 223.84C341.564 225.912 340.233 227.998 338.873 230.09Z" fill="#FDDB00"/>
<path fill-rule="evenodd" clip-rule="evenodd" d="M340.814 227.078L356.865 136.928L359.836 135.878L344.881 220.675C343.55 222.795 342.19 224.935 340.814 227.078Z" fill="#FDDB00"/>
<path fill-rule="evenodd" clip-rule="evenodd" d="M342.877 223.84L358.329 136.412L361.596 135.25L346.927 217.373C345.606 219.516 344.253 221.671 342.877 223.84Z" fill="#FDDB00"/>
<path fill-rule="evenodd" clip-rule="evenodd" d="M344.887 220.662L359.842 135.874L363.268 134.649L349.303 213.504C347.857 215.873 346.393 218.258 344.887 220.662Z" fill="#FDDB00"/>
<path fill-rule="evenodd" clip-rule="evenodd" d="M346.98 217.287L361.599 135.247L364.891 134.057L351.339 210.132C349.916 212.495 348.467 214.88 346.98 217.287Z" fill="#FDDB00"/>
<path fill-rule="evenodd" clip-rule="evenodd" d="M349.305 213.504L363.27 134.649L366.616 133.426L353.606 206.353C352.208 208.712 350.769 211.097 349.305 213.504Z" fill="#FDDB00"/>
<path fill-rule="evenodd" clip-rule="evenodd" d="M351.24 210.311L364.785 134.098L368.485 132.732L356.112 202.102C354.536 204.799 352.909 207.541 351.24 210.311Z" fill="#FDDB00"/>
<path fill-rule="evenodd" clip-rule="evenodd" d="M353.664 206.254L366.629 133.42L369.944 132.181L358.144 198.6C356.692 201.115 355.196 203.672 353.664 206.254Z" fill="#FDDB00"/>
<path fill-rule="evenodd" clip-rule="evenodd" d="M356.104 202.102L368.477 132.732L371.6 131.554L360.364 194.709C358.985 197.135 357.565 199.603 356.104 202.102Z" fill="#FDDB00"/>
<path fill-rule="evenodd" clip-rule="evenodd" d="M358.141 198.6L369.94 132.181L373.207 130.939L362.63 190.704C361.178 193.289 359.688 195.919 358.141 198.6Z" fill="#FDDB00"/>
<path fill-rule="evenodd" clip-rule="evenodd" d="M360.367 194.706L371.601 131.554L374.995 130.242L365.102 186.268C363.583 189.019 362.001 191.834 360.367 194.706Z" fill="#FDDB00"/>
<path fill-rule="evenodd" clip-rule="evenodd" d="M362.635 190.704L373.212 130.939L376.714 129.567L367.328 182.221C365.828 184.975 364.258 187.809 362.635 190.704Z" fill="#FDDB00"/>
<path fill-rule="evenodd" clip-rule="evenodd" d="M365.107 186.268L375 130.242L378.235 128.959L369.517 178.171C368.104 180.795 366.636 183.501 365.107 186.268Z" fill="#FDDB00"/>
<path fill-rule="evenodd" clip-rule="evenodd" d="M367.322 182.221L376.709 129.567C377.896 129.099 379.014 128.644 380.062 128.214L371.968 173.567C370.491 176.359 368.946 179.241 367.322 182.221Z" fill="#FDDB00"/>
<path fill-rule="evenodd" clip-rule="evenodd" d="M369.578 178.053L378.289 128.933L381.55 127.593L374.144 169.428C372.698 172.195 371.183 175.066 369.578 178.053Z" fill="#FDDB00"/>
<path fill-rule="evenodd" clip-rule="evenodd" d="M371.979 173.564L380.069 128.211L383.018 126.975L376.182 165.518C374.854 168.09 373.456 170.775 371.979 173.564Z" fill="#FDDB00"/>
<path fill-rule="evenodd" clip-rule="evenodd" d="M374.148 169.434L381.555 127.593L383.261 126.87L384.904 126.313L378.889 160.213C377.422 163.111 375.839 166.199 374.148 169.434Z" fill="#FDDB00"/>
<path fill-rule="evenodd" clip-rule="evenodd" d="M376.242 165.391L383.018 126.972L383.26 126.87C384.549 126.421 385.613 126.055 386.527 125.851L381.266 155.479C379.738 158.545 378.063 161.853 376.242 165.391Z" fill="#FDDB00"/>
<path fill-rule="evenodd" clip-rule="evenodd" d="M378.885 160.213L384.899 126.313C386.1 125.924 387.074 125.676 387.917 125.676H388.032L383.578 150.798C382.171 153.66 380.61 156.806 378.885 160.213Z" fill="#FDDB00"/>
<path fill-rule="evenodd" clip-rule="evenodd" d="M381.287 155.437L386.541 125.848C387.041 125.737 387.496 125.676 387.919 125.676H388.139C388.617 125.676 389.059 125.727 389.463 125.832L385.878 146.076C384.544 148.833 383.013 151.976 381.287 155.437Z" fill="#FDDB00"/>
<path fill-rule="evenodd" clip-rule="evenodd" d="M383.557 150.843L388.011 125.676H388.138C389.316 125.676 390.281 125.982 390.953 126.651L388.45 140.721C387.142 143.465 385.508 146.869 383.557 150.843Z" fill="#FDDB00"/>
<path fill-rule="evenodd" clip-rule="evenodd" d="M385.898 146.038L389.474 125.835C392.629 126.663 393.301 130.831 388.742 140.112L385.898 146.038Z" fill="#FDDB00"/>
<path fill-rule="evenodd" clip-rule="evenodd" d="M388.434 140.753L390.946 126.644C392.697 128.373 392.458 132.541 388.739 140.112L388.434 140.753Z" fill="#FDDB00"/>
</svg>
