<svg width="400" height="400" viewBox="0 0 400 400" fill="none" xmlns="http://www.w3.org/2000/svg">
<path fill-rule="evenodd" clip-rule="evenodd" d="M195.304 200.647C148.952 165.642 109.644 114.839 96.8795 81.5598L68 103.312C84.4597 140.877 110.991 171.201 137.188 200.647C194.625 263.812 289.666 300.103 331.989 298.392V254.01C308.485 256.132 248.021 240.772 195.304 200.647Z" fill="#00529B"/>
<path fill-rule="evenodd" clip-rule="evenodd" d="M148.275 41.8596L118.728 63.6121C163.054 148.133 246.354 216.446 331.991 221.551V178.032C260.799 173.747 187.905 120.398 148.275 41.8596Z" fill="#00529B"/>
<path fill-rule="evenodd" clip-rule="evenodd" d="M198.992 1.73488L169.1 24.7886C217.466 105.038 273.901 137.483 331.993 146.012V101.177C294.723 99.9324 233.258 65.3377 198.992 1.73488Z" fill="#00529B"/>
<path d="M169.1 374.37L198.992 397C212.758 371.386 231.255 350.907 250.385 335.108C278.931 312.055 309.502 299.241 331.993 297.982V253.572C304.127 257.843 276.916 267.248 250.385 284.758C221.828 303.526 194.295 332.534 169.1 374.37Z" fill="#CE1041"/>
<path d="M118.709 336.805L148.267 357.724C172.45 310.357 209.398 271.491 250.375 248.027C276.573 232.653 304.451 223.701 331.995 221.551V178.032C304.117 179.729 276.573 188.272 250.375 201.51C196.3 229.669 148.612 279.171 118.709 336.805Z" fill="#CE1041"/>
<path d="M250.381 121.246C211.418 138.317 168.761 165.218 137.188 199.798C111.002 229.669 84.4597 260.841 68 297.982L97.5584 319.749C109.644 286.427 148.952 234.803 195.304 199.374C213.433 185.697 232.24 175.033 250.381 166.505C285.314 150.721 316.542 144.286 332 146.011V101.629C312.858 100.328 282.966 107.598 250.381 121.246Z" fill="#CE1041"/>
</svg>
