<svg width="401" height="400" viewBox="0 0 401 400" fill="none" xmlns="http://www.w3.org/2000/svg">
<path d="M97.3196 4.98315C86.5199 10.5496 78.4671 20.1312 74.6637 31.9589L2.34481 256.352C-1.48987 268.14 -0.597725 280.832 4.84908 292.029C10.2489 303.106 19.5383 311.435 30.9562 315.369L268.135 397.581C279.631 401.524 291.91 400.627 302.702 395.036C313.502 389.405 321.562 379.872 325.319 368.012L397.677 143.683C405.604 119.252 392.715 92.737 369.05 84.5934L131.887 2.41403C120.367 -1.50427 108.166 -0.655975 97.3196 4.98315Z" fill="white"/>
<path d="M118.107 265.402H101.766V148.839H118.107V265.402ZM213.254 220.491C200.372 235.324 184.306 247.297 165.688 254.722L154.99 259.004V155.035L165.555 159.269C184.204 166.612 200.31 178.594 213.254 193.362C222.465 178.053 228.193 160.295 229.367 140.97C232.294 91.131 202.055 45.3954 160.515 29.4799L126.253 17.709C110.789 12.385 94.3316 21.1909 89.2291 37.1146L16.699 261.63C11.5496 277.61 20.2285 294.955 35.7081 300.199L200.31 356.937C217.088 338.517 227.974 314.111 229.563 286.884C231.018 262.591 224.883 239.679 213.254 220.491Z" fill="#0099DA"/>
<path d="M203.758 206.927C194.562 195.802 183.457 186.455 170.631 179.612V234.404C183.457 227.544 194.625 218.084 203.758 206.927Z" fill="#F15D22"/>
<path d="M323.766 265.034L303.364 265.09L261.386 206.8L304.029 148.527L324.603 148.438L281.866 206.889L323.766 265.034ZM363.787 99.5842L212.732 47.4587C233.017 70.3949 245.437 100.853 245.492 134.219C245.523 160.589 237.556 185.811 223.696 206.93C237.611 227.975 245.625 253.182 245.687 279.552C245.703 311.051 234.739 340.079 216.481 362.547L273.211 382.098C288.714 387.422 305.101 378.616 310.251 362.652L382.82 138.153C387.962 122.197 379.275 104.876 363.787 99.5842Z" fill="#0056A3"/>
</svg>
