<svg width="400" height="400" viewBox="0 0 400 400" fill="none" xmlns="http://www.w3.org/2000/svg">
<g clip-path="url(#clip0_14_5353)">
<path fill-rule="evenodd" clip-rule="evenodd" d="M355.646 162.028C354.902 161.3 353.849 161.163 352.39 161.613C350.296 162.26 347.571 164.061 344.088 167.115C344.055 167.143 344.043 167.16 344.018 167.18C341.619 169.462 340.177 171.618 339.325 173.426C337.931 176.341 338.004 179.158 339.53 182.073C339.619 182.255 339.717 182.437 339.841 182.624C340.165 183.159 340.543 183.683 341.008 184.201C340.975 183.893 340.947 183.599 340.941 183.291C340.924 182.529 341.025 181.753 341.224 181.003C341.619 179.539 342.341 178.094 343.223 176.882C343.923 175.927 344.771 175.067 345.67 174.322C346.608 173.524 347.611 172.836 348.641 172.169C350.371 171.072 352.118 169.949 353.728 168.675C354.692 167.919 355.551 166.984 356.05 165.852C356.428 164.92 356.694 163.747 356.192 162.806C356.064 162.529 355.856 162.238 355.646 162.028Z" fill="#0A70B8"/>
<path fill-rule="evenodd" clip-rule="evenodd" d="M375.234 124.811C375.134 124.321 374.842 123.769 374.296 123.052C373.692 122.266 372.516 121.258 369.391 121.753C368.103 121.963 366.647 122.386 365.009 123.052C364.37 123.346 363.715 123.649 363.066 123.974C361.842 124.553 360.607 125.175 359.367 125.808C355.366 127.866 351.348 130.206 347.758 133.062C344.933 135.311 341.475 138.281 338.577 141.891C336.545 144.405 334.823 147.227 333.775 150.302C333.75 150.374 333.655 150.677 333.644 150.705C333.098 152.396 332.756 154.227 332.585 155.969C332.294 159.225 333.171 162.504 334.008 165.139C334.134 165.531 334.251 165.931 334.377 166.301C334.45 165.601 334.582 164.741 334.786 163.837C334.935 163.198 335.128 162.532 335.357 161.893C337.662 155.924 345.434 147.045 359.977 139.273C367.478 135.266 373.988 131.03 375.092 127.434C375.377 126.569 375.405 125.676 375.234 124.811Z" fill="#0A70B8"/>
<path fill-rule="evenodd" clip-rule="evenodd" d="M387.45 101.174C387.388 100.706 387.109 100.07 386.607 99.2444C386.238 98.634 385.356 97.2229 381.405 97.4272C379.756 97.542 376.18 98.0992 370.9 100.222C368.175 101.356 365.179 102.761 361.92 104.553C357.715 106.83 353.064 109.694 347.987 113.272C344.185 115.96 339.775 119.858 336.138 124.548C333.632 127.784 331.487 131.371 330.132 135.196C328.609 139.561 328.416 143.38 328.71 146.488C328.979 149.19 329.679 151.73 330.213 153.418C330.395 154.034 330.566 154.546 330.692 154.894C330.692 154.894 330.692 152.883 331.84 149.588C332 149.156 332.21 148.711 332.403 148.269C332.599 147.818 332.792 147.376 333.008 146.931C333.223 146.471 333.464 146.004 333.691 145.547C333.951 145.052 334.203 144.565 334.497 144.086C334.805 143.573 335.102 143.039 335.432 142.532C335.791 141.98 336.155 141.44 336.53 140.911C336.933 140.323 337.362 139.76 337.798 139.208C338.266 138.598 338.762 138.001 339.252 137.405C339.798 136.789 340.338 136.17 340.906 135.571C341.511 134.922 342.113 134.286 342.74 133.687C343.424 133.015 344.107 132.368 344.807 131.746C345.563 131.074 346.341 130.422 347.117 129.795C347.976 129.123 348.83 128.456 349.684 127.832C350.628 127.154 351.583 126.488 352.551 125.85C353.582 125.172 354.623 124.52 355.693 123.864C356.824 123.176 357.969 122.526 359.126 121.874C360.338 121.179 361.567 120.535 362.824 119.875C364.126 119.186 365.437 118.519 366.744 117.867C368.111 117.173 369.494 116.506 370.86 115.834C374.889 113.888 378.874 112.135 382.391 109.33C383.695 108.305 384.958 107.194 385.924 105.836C386.313 105.292 386.739 104.668 386.988 104.046C387.383 103.08 387.531 102.117 387.45 101.174Z" fill="#F79121"/>
<path fill-rule="evenodd" clip-rule="evenodd" d="M399.664 73.2998C399.255 72.499 398.325 70.6595 393.442 70.5055C390.029 70.4215 386.481 71.3539 383.25 72.3114C380.593 73.0898 377.981 73.9998 375.402 75.047C372.857 76.0886 370.337 77.2394 367.862 78.4742C366.442 79.1854 365.036 79.9246 363.625 80.6833C360.968 82.1337 358.356 83.6429 355.755 85.2081C353.489 86.5772 351.247 88.0024 349.057 89.5088C346.921 90.9732 344.835 92.5131 342.869 94.1595C341.749 95.0975 340.638 96.0943 339.596 97.1079C335.754 100.767 332.38 104.897 329.609 109.444C328.066 111.967 326.781 114.669 325.795 117.472C324.697 120.56 324.168 123.419 323.969 126.026C323.384 133.435 325.624 138.757 326.372 141.017C326.372 141.017 326.719 136.828 327.691 133.93C328.307 132.149 329.13 130.402 330.006 128.773C331.459 126.065 333.223 123.548 335.158 121.188C338.179 117.511 341.64 114.216 345.358 111.222C348.309 108.848 351.434 106.698 354.646 104.682C357.883 102.68 361.2 100.851 364.583 99.1099C366.574 98.0907 368.584 97.1191 370.603 96.1559C374.85 94.1539 379.14 92.236 383.46 90.3964C386.717 89.0244 390.018 87.5964 393 85.6729C395.458 84.1077 398.269 81.8957 399.636 79.2414C400.226 78.127 400.512 76.9426 400.501 75.7582C400.478 75.1842 400.204 74.3582 399.664 73.2998Z" fill="#0A70B8"/>
<path fill-rule="evenodd" clip-rule="evenodd" d="M364.358 148.865C364.546 148.115 364.546 147.376 364.369 146.656C364.269 146.247 364 145.774 363.515 145.2C362.65 144.175 361.281 143.881 359.338 144.256C356.989 144.727 353.892 146.258 350.132 148.759C349.238 149.35 348.32 150.005 347.365 150.722C343.655 153.72 338.89 158.206 337.017 163.811C337.011 163.828 336.994 163.856 336.989 163.89L336.927 164.1C336.448 165.575 336.165 167.026 336.079 168.277C335.969 170.013 336.221 172.04 336.79 174.062C337.109 173.709 337.417 173.342 337.759 172.973C340.41 166.737 346.766 161.529 357.91 155.546C362.236 153.213 363.955 150.512 364.358 148.865Z" fill="#F79121"/>
<path fill-rule="evenodd" clip-rule="evenodd" d="M348.696 188.042C348.203 188.037 347.669 187.871 347.223 187.748C346.677 187.589 346.131 187.337 345.538 187.001C345.014 186.695 344.208 186.205 343.337 185.637C341.52 184.413 342.004 182.347 342.214 181.642C342.561 180.48 343.051 179.488 343.827 178.464L344.043 178.606L344.639 178.976C345.266 179.354 345.916 179.757 346.563 180.149C346.607 180.194 346.644 180.219 346.689 180.242L346.784 180.309C346.826 180.32 346.854 180.342 346.871 180.359C347.361 180.656 347.985 181.076 348.595 181.555C349.043 181.913 349.433 182.283 349.757 182.652C350.74 183.842 351.104 186.04 349.928 187.535C349.858 187.639 349.738 187.754 349.603 187.849C349.494 187.908 349.351 187.964 349.214 187.992C349.057 188.037 348.892 188.042 348.696 188.042Z" fill="#F79121"/>
<path fill-rule="evenodd" clip-rule="evenodd" d="M216.3 141.056C216.053 141.022 215.81 141.006 215.524 141.006L205.763 141.056H193.864C191.064 141.056 188.582 142.632 187.654 145.012C186.465 148.017 184.308 153.281 181.428 160.241L176.904 171.351C175.168 175.63 173.153 180.661 170.82 186.454C168.515 192.234 165.851 198.811 162.846 206.199C161.85 208.68 160.797 211.276 159.71 213.95C158.612 211.264 157.565 208.68 156.557 206.199C153.552 198.811 150.894 192.239 148.584 186.454C146.267 180.661 144.241 175.635 142.5 171.351L137.981 160.241C135.101 153.281 132.944 148.005 131.76 145.012C130.821 142.643 128.345 141.056 125.551 141.056H97.0832C93.4349 141.056 90.4756 143.724 90.4756 147.009V150.133C90.4756 153.407 93.4293 156.075 97.0832 156.075C100.35 156.075 102.911 156.685 104.664 157.864C105.734 158.581 107.851 160.616 110.139 166.258L146.427 254.683C147.394 257.016 149.853 258.57 152.619 258.57H166.784C168.361 258.57 169.88 258.041 171.03 257.17C171.889 256.51 172.567 255.673 172.971 254.672L205.08 176.439L209.274 166.258C209.77 165.035 210.249 163.999 210.716 163.086L217.893 146.065L218.495 144.648C219.189 142.677 218.358 141.325 216.3 141.056Z" fill="#0A70B8"/>
<path fill-rule="evenodd" clip-rule="evenodd" d="M291.951 230.844C290.784 232.813 289.328 234.339 287.494 235.449C285.475 236.695 283.14 237.617 280.55 238.18C277.683 238.795 274.684 239.108 271.626 239.108C268.376 239.108 266.175 239 264.484 238.784C264.358 238.772 264.576 238.755 264.484 238.738C264.467 238.351 264.54 214.988 264.484 207.51V205.251C267.911 205.251 272.116 205.427 276.036 205.757C279.332 206.059 282.395 206.844 285.128 208.113C287.62 209.252 289.627 210.925 291.313 213.235C292.878 215.415 293.67 218.745 293.67 223.167C293.67 226.325 293.11 228.904 291.951 230.844ZM264.484 159.43C265.338 159.304 266.413 159.158 269.106 159.158C272.06 159.158 274.894 159.43 277.489 159.964C279.721 160.421 281.575 161.138 283.157 162.179C284.534 163.095 285.646 164.341 286.486 165.965C286.612 166.186 286.704 166.413 286.788 166.64C287.46 168.325 287.807 170.495 287.807 173.119C287.807 176.801 287.13 179.606 285.839 181.255C284.38 183.106 282.692 184.408 280.726 185.228C278.405 186.178 275.913 186.754 273.334 186.903C270.142 187.096 266.886 187.191 264.484 187.191V183.299C264.506 176.031 264.335 161.21 264.484 160.124C264.523 159.822 264.45 159.584 264.484 159.43ZM319.996 208.62C318.033 204.602 315.421 201.227 312.212 198.576C310.355 197.039 308.337 195.7 306.195 194.575C306.811 194.096 307.418 193.606 308.017 193.088C310.596 190.806 312.763 187.961 314.477 184.59C316.247 181.085 317.14 176.896 317.14 172.099C317.14 171.119 317.112 170.176 317.025 169.257C316.583 162.885 314.466 157.744 310.949 153.768C304.881 146.807 295.941 141.165 281.552 141.165C278.377 140.995 275.583 141.042 273.071 141.087C271.638 141.048 270.288 141.037 269.493 141.037H227.177C223.565 141.037 220.628 143.699 220.628 146.984V150.114C220.628 153.385 223.557 156.056 227.177 156.056C229.243 156.056 234.407 156.078 235.112 157.5C235.289 157.974 235.23 159.18 235.23 161.468L235.163 251.885C235.174 251.948 235.185 252.021 235.202 252.101V252.591C235.202 255.863 238.144 258.538 241.742 258.538H271.688C276.3 258.538 281.376 258.254 286.783 257.719C292.685 257.133 298.268 255.744 303.344 253.604C308.807 251.321 313.441 246.455 317.117 241.965C321.009 237.247 322.992 230.93 322.992 223.172V223.15C322.992 217.561 321.978 212.666 319.996 208.62Z" fill="#0A70B8"/>
<path fill-rule="evenodd" clip-rule="evenodd" d="M82.0906 141.012H51.8698C48.176 141.012 45.1826 143.714 45.1826 147.032V150.212C45.1826 153.539 48.1875 156.235 51.8698 156.235C57.7147 156.235 59.1488 156.252 59.5702 156.952C59.9969 157.68 59.7295 160.242 59.7295 163.179V252.486C59.7295 255.81 62.74 258.502 66.4225 258.502H82.0791C85.7728 258.502 88.7665 255.81 88.7665 252.486V147.032C88.7777 143.714 85.7843 141.012 82.0906 141.012Z" fill="#0A70B8"/>
<path fill-rule="evenodd" clip-rule="evenodd" d="M0 329.665H7.92808V294.515H0V329.665Z" fill="#0A70B8"/>
<path fill-rule="evenodd" clip-rule="evenodd" d="M14.8232 329.665V294.515H24.1057L31.4077 307.395C33.4906 311.1 35.5281 315.482 37.1445 319.443H37.247C36.7802 314.799 36.6209 310.058 36.6209 304.737V294.515H43.9227V329.665H35.5737L28.0668 316.102C25.9839 312.3 23.6333 307.816 21.9657 303.695H21.761C22.0228 308.391 22.1194 313.342 22.1194 319.079V329.665H14.8232Z" fill="#0A70B8"/>
<path fill-rule="evenodd" clip-rule="evenodd" d="M58.7503 323.667C59.4274 323.82 60.577 323.82 61.5105 323.82C68.7669 323.877 73.5019 319.91 73.5019 311.516C73.5019 303.952 69.2278 300.355 62.3472 300.355C60.6227 300.355 59.4274 300.509 58.7503 300.668V323.667ZM50.8223 295.034C53.7362 294.516 57.5494 294.254 61.5105 294.254C68.2377 294.254 72.6199 295.347 75.955 297.902C79.603 300.617 81.9024 304.994 81.9024 311.254C81.9024 317.981 79.4493 322.625 76.1143 325.494C72.4094 328.567 66.7238 330.03 59.8429 330.03C55.7281 330.03 52.7517 329.768 50.8223 329.506V295.034Z" fill="#0A70B8"/>
<path fill-rule="evenodd" clip-rule="evenodd" d="M102.408 323.929C107.781 323.929 110.854 318.869 110.854 311.989C110.854 305.671 107.889 300.253 102.408 300.253C96.9332 300.253 93.8543 305.574 93.8543 312.142C93.8543 318.767 97.0356 323.929 102.357 323.929H102.408ZM102.044 330.235C91.6687 330.235 85.5107 322.364 85.5107 312.353C85.5107 301.818 92.2892 293.941 102.619 293.941C113.415 293.941 119.306 302.023 119.306 311.721C119.306 323.303 112.374 330.235 102.095 330.235H102.044Z" fill="#0A70B8"/>
<path fill-rule="evenodd" clip-rule="evenodd" d="M131.942 329.665L120.673 294.515H129.386L133.66 309.381C134.861 313.604 135.954 317.565 136.791 321.947H136.944C137.838 317.724 138.925 313.553 140.126 309.534L144.611 294.515H153.062L141.224 329.665H131.942Z" fill="#0A70B8"/>
<path fill-rule="evenodd" clip-rule="evenodd" d="M156.874 329.665H164.802V294.515H156.874V329.665Z" fill="#0A70B8"/>
<path fill-rule="evenodd" clip-rule="evenodd" d="M171.702 329.665V294.515H180.979L188.281 307.395C190.364 311.1 192.396 315.482 194.018 319.443H194.126C193.654 314.799 193.494 310.058 193.494 304.737V294.515H200.797V329.665H192.453L184.946 316.102C182.857 312.3 180.512 307.816 178.845 303.695H178.634C178.896 308.391 178.999 313.342 178.999 319.079V329.665H171.702Z" fill="#0A70B8"/>
<path fill-rule="evenodd" clip-rule="evenodd" d="M224.742 314.699L222.558 307.238C221.984 305.154 221.357 302.497 220.833 300.459H220.674C220.206 302.548 219.632 305.206 219.114 307.238L216.975 314.699H224.742ZM215.83 320.64L213.377 329.667H205.137L215.877 294.512H226.257L237.207 329.667H228.659L225.943 320.64H215.83Z" fill="#0A70B8"/>
<path fill-rule="evenodd" clip-rule="evenodd" d="M260.336 324.033C261.109 324.187 262.052 324.187 263.408 324.187C267.006 324.187 270.186 322.781 270.186 319.082C270.186 315.53 267.006 314.119 263.044 314.119H260.336V324.033ZM260.336 308.439H262.934C267.165 308.439 269.355 306.715 269.355 304.108C269.355 301.45 267.319 300.044 263.716 300.044C261.952 300.044 260.955 300.147 260.336 300.306V308.439ZM252.457 295.036C254.54 294.62 258.712 294.25 262.73 294.25C267.58 294.25 270.55 294.723 273.112 296.237C275.565 297.54 277.284 299.936 277.284 303.175C277.284 306.248 275.456 309.116 271.542 310.63V310.732C275.565 311.774 278.53 314.853 278.53 319.389C278.53 322.627 277.074 325.132 274.882 326.845C272.326 328.882 268.047 330.032 261.059 330.032C257.147 330.032 254.229 329.77 252.457 329.508V295.036Z" fill="#0A70B8"/>
<path fill-rule="evenodd" clip-rule="evenodd" d="M300.809 314.699L298.62 307.238C298.043 305.154 297.418 302.497 296.895 300.459H296.746C296.268 302.548 295.694 305.206 295.176 307.238L293.034 314.699H300.809ZM291.886 320.64L289.439 329.667H281.198L291.947 294.512H302.324L313.275 329.667H304.718L302.01 320.64H291.886Z" fill="#0A70B8"/>
<path fill-rule="evenodd" clip-rule="evenodd" d="M317.979 329.665V294.515H327.267L334.564 307.395C336.652 311.1 338.685 315.482 340.295 319.443H340.404C339.937 314.799 339.783 310.058 339.783 304.737V294.515H347.085V329.665H338.736L331.223 316.102C329.14 312.3 326.797 307.816 325.122 303.695H324.918C325.173 308.391 325.282 313.342 325.282 319.079V329.665H317.979Z" fill="#0A70B8"/>
<path fill-rule="evenodd" clip-rule="evenodd" d="M353.976 294.513H361.852V310.055H361.955C362.739 308.701 363.571 307.449 364.408 306.197L372.335 294.513H382.14L370.504 309.481L382.717 329.668H373.48L364.823 314.489L361.852 318.189V329.668H353.976V294.513Z" fill="#0A70B8"/>
</g>
<defs>
<clipPath id="clip0_14_5353">
<rect width="400" height="400" fill="white"/>
</clipPath>
</defs>
</svg>
