<svg width="389" height="389" viewBox="0 0 389 389" fill="none" xmlns="http://www.w3.org/2000/svg">
<path d="M31.536 128.984L388.695 129.66L388.501 229.562C389.368 247.576 378.446 260.15 357.824 260.118L0.682617 259.461L0.876435 159.529C0.907373 142.709 14.7085 128.97 31.536 128.984Z" fill="white"/>
<path d="M366.949 202.406C326.727 206.791 344.791 226.619 322.063 238.079C322.063 238.079 331.073 225.735 325.283 216.275C325.283 216.275 318.961 237.304 294.302 250.205C294.302 250.205 308.565 234.112 303.697 222.791C291.95 236.056 278.993 242.943 242.387 246.401C274.785 235.92 283.765 227.765 286.622 213.038C275.137 218.259 268.148 220.894 255.683 218.344C239.981 215.134 226.709 210.484 207.408 220.316C209.119 222.529 227.982 246.41 227.982 246.41L210.169 246.376L194.54 224.723L194.49 246.34H180.816L180.901 194.538L192.955 194.556L194.581 194.546L194.559 215.955L211.25 194.592L225.764 194.609H229.262C229.262 194.609 216.526 209.508 210.437 216.633C219.095 209.508 236.04 202.058 249.336 203.287C267.894 205.007 273.624 202.339 279.443 192.474C252.211 204.903 225.859 186.041 225.859 186.041C233.034 187.847 246.942 192.641 261.114 187.454C267.124 185.246 270.307 183.259 274.609 178.61C260.645 173.959 235.656 172.04 204.866 185.96L204.749 186.022L6.42988 185.662L6.3125 254.638L358.086 255.288C373.86 255.323 383.02 241.507 383.038 231.69L383.078 212.258C383.078 212.258 378.009 206.005 366.949 202.406ZM173.56 246.299L167.117 246.293C161.195 246.287 156.473 243.571 153.316 237.672C149.415 230.656 143.162 219.373 140.879 215.256L140.811 246.239L127.59 246.214L127.696 194.429L134.67 194.443C138.22 194.443 144.657 195.53 148.368 203.115C152.305 210.448 157.998 221.31 160.454 225.869L160.503 194.483L173.651 194.511L173.56 246.299ZM108.197 246.186C108.197 246.186 104.196 236.542 103.515 234.885L87.0534 234.852C86.3628 236.516 82.3045 246.137 82.3045 246.137L66.6253 246.112C66.6253 246.112 81.3026 210.719 83.5511 205.462C86.8787 197.675 91.776 194.37 98.4532 194.374H102.462L123.962 246.214L108.197 246.186ZM49.6685 246.058L19.7068 246.004L19.7896 194.222L51.8114 194.276C61.0719 194.283 66.7017 201.5 66.6926 208.587C66.6844 212.749 64.9182 217.5 60.9499 220.196C64.3185 222.799 66.5252 226.437 66.638 231.658C66.7381 236.209 64.8727 239.733 62.132 242.204C58.1956 245.852 53.8879 246.074 49.6685 246.058ZM33.3974 214.195V214.197C34.4489 220.958 39.0275 225.671 46.1234 226.095H47.5357C50.1099 226.11 51.7796 228.005 51.7669 230.222C51.7669 231.939 50.2464 234.186 47.7759 234.177L33.3561 234.152V233.996L33.3974 214.197L33.397 214.195H33.3974ZM90.7235 223.07L99.8709 223.079C98.8326 220.555 96.8544 215.665 95.3194 211.919C93.7806 215.671 91.776 220.543 90.7235 223.07ZM33.3974 214.195L33.4143 206.072L33.5908 206.077L33.5735 206.131L47.9251 206.158C49.573 206.158 51.816 207.568 51.8115 210.294C51.8115 212.019 50.291 214.221 47.8614 214.221L33.3974 214.195Z" fill="#007F87"/>
<path d="M351.602 187.264C372.781 187.305 382.884 174.817 383.146 174.491L383.222 134.637L33.0752 133.978C18.7454 133.954 6.55127 143.829 6.51032 160.326V160.316L6.45117 180.922L210.539 181.301C215.162 177.784 219.782 174.976 224.332 172.64L214.693 172.628C206.593 172.606 202.142 164.461 202.159 157.869C202.159 153.959 203.772 148.602 207.321 145.797C210.238 143.512 213.623 142.966 216.236 142.97L229.261 143.006V149.806L216.922 149.779C212.196 149.779 210.516 151.748 210.507 157.363C210.507 159.436 210.851 162.177 211.667 163.676C212.688 165.563 214.985 165.81 217.081 165.833H221.518L221.528 161.088C216.9 161.088 214.678 157.302 214.678 154.275L229.238 154.302L229.212 170.321C251.839 160.483 271.7 163.504 278.567 165.571C270.878 158.46 263.538 152.09 244.477 153.038C266.797 148.085 277.145 156.55 289.902 159.097C301.272 161.369 307.881 161.824 329.456 155.797C350.13 150.032 350.5 163.467 348.837 168.683C352.278 162.375 356.739 155.098 365.032 156.405C364.991 152.333 363.112 147.999 360.18 145.747C354.712 141.535 344.907 141.936 330.979 146.98L327.431 148.28C313.995 153.156 305.114 156.379 297.768 153.011C293.764 151.165 292.936 147.534 293.524 144.735C294.3 140.974 297.38 138.297 300.977 138.239C301.171 138.239 301.366 138.312 301.542 138.412C302.702 138.428 303.663 139.378 303.705 140.542C303.754 141.797 302.788 142.835 301.542 142.904C300.356 142.935 299.362 142.041 299.249 140.857C297.384 141.593 296.102 143.403 295.713 145.196C295.199 147.693 296.318 149.851 298.702 150.952C305.209 153.959 313.75 150.845 326.667 146.148L330.215 144.835C344.907 139.559 355.449 139.237 361.538 143.955C364.97 146.573 366.889 151.097 367.466 156.746C370.04 157.503 371.407 159.828 371.845 163.088C372.627 169.146 369.597 173.446 371.52 176.136C369.064 175.495 367.769 173.066 367.494 171.688C360.74 181.426 351.299 180.157 338.67 181.216C314.198 183.274 305.963 198.903 314.536 211.838C324.142 197.283 350.405 196.61 367.533 202.357C367.322 202.379 367.163 202.412 366.947 202.434C378.008 206.023 383.077 212.289 383.077 212.289L383.14 174.746C382.734 177.065 378.912 193.273 351.602 192.298C334.612 191.676 323.434 194.397 315.692 201.762C321.706 187.712 334.17 187.232 351.602 187.264ZM198.584 172.687L194.954 172.677C191.605 172.677 188.951 171.124 187.175 167.801C184.959 163.847 181.446 157.242 180.15 154.912L180.114 172.555L172.647 172.552L172.715 142.899L176.644 142.916C178.652 142.908 182.291 143.52 184.404 147.794C186.612 151.937 189.82 158.059 191.179 160.623L191.215 142.925L198.651 142.943L198.584 172.687ZM161.92 171.513C159.447 172.457 158.643 172.533 156.394 172.525L152.493 172.506C152.493 172.506 149.694 172.768 147.36 171.494C142.526 168.85 139.37 163.147 139.387 157.363C139.419 151.589 142.693 146.907 145.938 144.532C147.898 143.096 150.318 142.862 152.548 142.862H156.452C158.67 142.872 160.977 143.053 163.044 144.353C167.094 146.939 169.893 151.665 169.88 157.444C169.88 162.926 166.836 169.653 161.92 171.513ZM115.536 172.525H111.91C108.565 172.506 105.869 170.98 104.114 167.639C101.915 163.693 98.4159 157.084 97.0983 154.755L97.071 172.41L89.6134 172.393L89.6717 142.736H93.6114C95.5996 142.744 99.2384 143.373 101.341 147.63C103.551 151.779 106.773 157.906 108.145 160.474L108.177 142.769L115.596 142.786L115.536 172.525ZM138.245 172.493L128.877 172.452C124.741 172.452 119.631 168.877 119.644 163.017L119.685 142.798L127.364 142.817L127.337 161.955C127.337 164.393 129.216 165.678 131.301 165.678H138.272L138.245 172.493ZM85.7926 149.544L77.0126 149.527C72.8223 149.517 70.8805 149.875 69.9915 154.204L85.789 154.239C85.789 157.784 82.7325 161.016 79.1382 161.007L70.0916 160.994C70.7686 164.708 72.9542 165.563 77.2328 165.563L85.7708 165.586L85.7489 172.388L76.9707 172.361C74.664 172.361 71.8696 172.27 69.3427 171.35C63.7256 169.31 61.1423 162.759 61.1523 157.287C61.1741 151.523 64.0241 146.511 68.1625 143.974C70.2954 142.678 72.421 142.717 74.6831 142.717L85.8081 142.727L85.7926 149.544ZM57.7573 172.334L50.0274 172.316L50.0865 142.663L57.8146 142.681L57.7573 172.334ZM46.4567 172.316L36.3837 172.297L27.5445 159.873L27.5072 172.27H19.8009L19.8555 142.62L27.5855 142.627L27.5491 154.88L37.0152 142.646L47.1929 142.663C47.1929 142.663 35.6803 156.289 34.7949 157.346C35.6348 158.433 46.4567 172.316 46.4567 172.316ZM316.116 168.194L334.997 167.765C334.147 166.8 333.597 165.563 333.469 164.194C333.381 163.296 333.474 162.402 333.736 161.598C330.964 163.9 327.316 167.123 316.116 168.194ZM343.754 163.178C343.57 161.228 341.858 159.806 339.944 160C338.012 160.207 336.604 161.914 336.79 163.856C336.983 165.805 338.694 167.214 340.612 167.034C342.541 166.853 343.954 165.11 343.754 163.178ZM154.429 165.805C154.392 165.809 154.533 165.806 154.267 165.797C153.266 165.725 152.314 165.678 151.395 165.274C149.018 164.195 147.149 160.56 147.149 157.554C147.161 154.38 148.707 151.755 150.922 150.357C152.083 149.653 153.188 149.557 154.398 149.557H154.476C155.68 149.557 157.072 149.653 158.227 150.357C160.101 151.54 161.822 154.51 161.822 157.698C161.811 160.696 160.186 164.195 157.162 165.292C156.258 165.607 155.599 165.742 154.61 165.797C154.492 165.8 154.446 165.803 154.429 165.805Z" fill="#ED1C24"/>
</svg>
