<svg width="400" height="400" viewBox="0 0 400 400" fill="none" xmlns="http://www.w3.org/2000/svg">
<path d="M398.499 164.746H329.024C329.024 93.637 271.363 36.0034 200.245 36.0034C129.145 36.0034 71.4836 93.637 71.4836 164.746H2C2 274.231 90.7502 363 200.245 363C254.378 363 303.412 341.277 339.184 306.124H339.166H339.23V306.068C375.787 270.112 398.499 220.071 398.499 164.746Z" fill="white"/>
<path fill-rule="evenodd" clip-rule="evenodd" d="M200.245 293.511C129.145 293.511 71.4836 235.878 71.4836 164.75H2C2 274.226 90.7502 362.995 200.245 362.995C309.73 362.995 398.48 274.226 398.48 164.75H328.997C328.997 235.878 271.363 293.511 200.245 293.511Z" fill="#EE7626"/>
<path fill-rule="evenodd" clip-rule="evenodd" d="M262.959 164.746C262.959 167.849 260.76 169.724 260.742 169.724C259.828 170.713 245.539 179.506 230.281 194.764C215.032 210.003 206.203 224.292 205.242 225.215C205.242 225.215 203.349 227.395 200.245 227.395C197.133 227.395 195.258 225.215 195.258 225.215C194.288 224.292 185.467 210.003 170.228 194.764C154.979 179.506 140.672 170.713 139.776 169.724C139.776 169.724 137.541 167.849 137.541 164.746H262.959Z" fill="#EE7626"/>
<path fill-rule="evenodd" clip-rule="evenodd" d="M200.246 36C129.146 36 71.4844 93.6336 71.4844 164.743H137.532C137.532 161.649 139.767 159.764 139.767 159.764C140.663 158.776 154.97 150.011 170.219 134.734C185.458 119.495 194.279 105.188 195.249 104.301C195.249 104.301 197.124 102.094 200.236 102.094C203.34 102.094 205.233 104.283 205.233 104.283C206.203 105.188 215.023 119.495 230.272 134.734C245.53 150.011 259.819 158.776 260.733 159.764C260.733 159.764 262.95 161.649 262.95 164.743H328.997C328.997 93.6336 271.364 36 200.246 36Z" fill="#EE7626"/>
</svg>
