<svg width="400" height="400" viewBox="0 0 400 400" fill="none" xmlns="http://www.w3.org/2000/svg">
<path d="M58.8965 138.82C58.8965 150.931 63.3033 161.941 70.4568 170.745L172.284 292.391C181.093 303.397 194.855 310 210.262 310C237.785 309.45 259.8 287.43 259.8 259.907C259.8 247.801 255.398 236.796 248.245 227.991L146.417 106.895C137.608 95.8899 123.847 89.2867 108.439 89.2867C81.4668 89.2867 58.8965 111.302 58.8965 138.82" fill="url(#paint0_radial_19_271)"/>
<path d="M207.501 99.1916C198.142 106.345 191.539 116.805 189.338 127.81L162.92 245.6L162.365 248.902C159.063 262.663 161.815 278.08 171.169 290.186C187.687 311.656 219.057 316.053 240.526 298.995C249.886 291.841 256.494 281.377 258.69 270.371L285.662 149.83C288.959 136.069 286.213 120.657 276.853 108.546C267.193 95.6642 252.623 88.9999 237.789 88.9999C227.278 88.9999 216.635 92.3438 207.501 99.1916" fill="url(#paint1_radial_19_271)"/>
<path d="M187.689 138.82C187.689 150.931 192.092 161.941 199.245 170.745L301.077 292.391C309.882 303.397 323.638 310 339.055 310C367.128 309.45 389.148 287.43 389.148 259.907C389.148 247.801 384.741 236.796 377.588 227.991L275.201 106.895C266.401 95.8899 252.64 89.2867 237.232 89.2867C210.255 89.2867 187.689 111.302 187.689 138.82" fill="url(#paint2_radial_19_271)"/>
<path d="M11 259.907C11 287.274 33.18 309.45 60.5381 309.45C87.9009 309.45 110.081 287.274 110.081 259.907C110.081 232.553 87.9009 210.378 60.5381 210.378C33.18 210.378 11 232.553 11 259.907Z" fill="url(#paint3_radial_19_271)"/>
<defs>
<radialGradient id="paint0_radial_19_271" cx="0" cy="0" r="1" gradientUnits="userSpaceOnUse" gradientTransform="translate(182.385 153.872) scale(105.308 105.308)">
<stop stop-color="#6F0000"/>
<stop offset="0.0184049" stop-color="#6F0000"/>
<stop offset="0.3252" stop-color="#910D11"/>
<stop offset="0.4457" stop-color="#A61519"/>
<stop offset="0.5938" stop-color="#BC1B20"/>
<stop offset="0.7384" stop-color="#CB1E24"/>
<stop offset="0.8762" stop-color="#D52027"/>
<stop offset="1" stop-color="#DA2128"/>
</radialGradient>
<radialGradient id="paint1_radial_19_271" cx="0" cy="0" r="1" gradientUnits="userSpaceOnUse" gradientTransform="translate(262.403 217.311) scale(93.8857 93.8857)">
<stop stop-color="#6F0000"/>
<stop offset="0.0368098" stop-color="#6F0000"/>
<stop offset="0.3006" stop-color="#910D11"/>
<stop offset="0.4172" stop-color="#A01317"/>
<stop offset="0.6776" stop-color="#BE1B21"/>
<stop offset="0.8806" stop-color="#D11F26"/>
<stop offset="1" stop-color="#DA2128"/>
</radialGradient>
<radialGradient id="paint2_radial_19_271" cx="0" cy="0" r="1" gradientUnits="userSpaceOnUse" gradientTransform="translate(215.506 110.408) scale(189.541 189.541)">
<stop stop-color="#DA2128"/>
<stop offset="0.3558" stop-color="#DA2128"/>
<stop offset="1" stop-color="#F37021"/>
</radialGradient>
<radialGradient id="paint3_radial_19_271" cx="0" cy="0" r="1" gradientUnits="userSpaceOnUse" gradientTransform="translate(35.5052 278.983) scale(98.3451 98.3451)">
<stop stop-color="#DA2128"/>
<stop offset="0.3129" stop-color="#DA2128"/>
<stop offset="0.7914" stop-color="#910D11"/>
<stop offset="1" stop-color="#6F0000"/>
</radialGradient>
</defs>
</svg>
