<svg width="400" height="400" viewBox="0 0 400 400" fill="none" xmlns="http://www.w3.org/2000/svg">
<g clip-path="url(#clip0_15_647)">
<rect width="400" height="400" fill="white"/>
<path d="M262.856 184.327L279.999 167.184L297.142 184.327L279.999 201.47L262.856 184.327Z" fill="white"/>
<path d="M279.997 146.615C300.569 146.615 317.711 162.615 317.711 184.33C317.711 206.044 301.711 222.044 281.14 222.044C260.569 222.044 243.426 206.044 243.426 184.33C243.426 174.044 246.854 164.901 253.711 156.901C260.569 148.901 269.711 146.615 279.997 146.615ZM262.854 184.33L279.997 202.615L297.14 185.472L279.997 167.187L262.854 184.33Z" fill="#FFF200"/>
<path d="M198.853 75.7554L235.425 137.47L177.139 238.041H103.996C137.139 184.327 167.996 130.613 198.853 75.7554Z" fill="#0072BC"/>
<path d="M118.852 75.7554C131.424 96.3268 142.852 116.898 155.424 137.47C135.995 170.613 116.567 204.898 97.138 238.041H23.9951C57.138 184.327 87.9952 130.613 118.852 75.7554Z" fill="#0072BC"/>
<path d="M280.003 75.7554L374.86 238.041H260.574L267.431 225.47C286.86 231.184 307.431 223.184 317.717 204.898C328.003 186.613 324.574 164.898 309.717 151.184L313.146 144.327L308.574 138.613L302.86 147.755C277.717 132.898 251.431 144.327 241.146 162.613C230.86 179.755 233.146 208.327 259.431 223.184L251.431 238.041H185.146L280.003 75.7554Z" fill="#0072BC"/>
<path d="M400 198.043C400 247.185 398.857 296.328 400 346.614C400 361.471 394.286 375.185 385.143 385.471C376 395.757 361.143 401.471 347.429 401.471C301.714 401.471 256 401.471 210.286 401.471H53.7143C32 401.471 16 392.328 5.71429 374.043C1.14286 366.043 0 358.043 0 350.043C0 250.614 0 150.043 0 50.6139C0 36.8997 5.71428 23.1854 14.8571 14.0425C25.1428 3.7568 37.7143 -0.814633 51.4286 -0.814633C107.429 -0.814633 164.571 -0.814633 220.571 -0.814633H347.429C373.714 -4.2432 395.429 14.0425 400 39.1854C400 41.4711 400 44.8997 400 47.1854C400 97.4711 400 147.757 400 198.043ZM200 391.185H348.571C360 391.185 371.429 386.614 379.429 378.614C387.429 370.614 392 359.185 392 347.757V48.3282C392 23.1854 373.714 3.7568 348.571 3.7568C249.143 3.7568 150.857 3.7568 51.4286 3.7568C40 3.7568 28.5714 8.32822 20.5714 16.3282C12.5714 24.3282 8.00001 35.7568 8.00001 47.1854C8.00001 147.757 8.00001 247.185 8.00001 347.757C8.00001 359.185 12.5714 369.471 20.5714 377.471C28.5714 385.471 40 390.043 50.2857 390.043H200V391.185Z" fill="#0072BC"/>
<path d="M200.002 391.187H50.2877C38.8591 391.187 28.5734 386.615 20.5734 378.615C12.5734 370.615 8.00195 359.187 8.00195 347.758C8.00195 247.187 8.00195 147.758 8.00195 47.1866C8.00195 35.7581 12.5734 24.3295 20.5734 16.3295C28.5734 8.32948 40.0019 3.75806 51.4305 3.75806C150.859 3.75806 249.145 3.75806 348.573 3.75806C373.716 3.75806 392.002 23.1866 392.002 48.3295V346.615C392.002 358.044 387.43 369.472 379.43 377.472C371.43 385.472 360.002 390.044 348.573 390.044H200.002V391.187ZM198.859 76.9009C166.859 131.758 136.002 185.472 105.145 239.187H178.288L236.573 138.615L198.859 76.9009ZM118.859 76.9009C86.8591 130.615 56.0019 185.472 25.1448 239.187H98.2876C117.716 206.044 137.145 171.758 156.573 138.615C144.002 118.044 131.431 97.4723 118.859 76.9009ZM280.002 76.9009L186.288 239.187H252.573L260.573 224.329C234.288 209.472 233.145 180.901 242.288 163.758C252.573 145.472 277.716 134.044 304.002 148.901L309.716 139.758L314.288 146.615L310.859 153.472C325.716 167.187 329.145 190.044 318.859 207.187C308.573 225.472 288.002 233.472 268.573 227.758L261.716 240.329H376.002L280.002 76.9009ZM280.002 146.615C259.43 147.758 243.431 163.758 243.431 184.329C243.431 204.901 259.43 222.044 280.002 222.044C293.716 222.044 306.288 215.187 313.145 203.758C320.002 192.329 320.002 177.472 313.145 164.901C306.288 153.472 293.716 146.615 280.002 146.615ZM139.43 268.901C136.002 275.758 133.716 282.615 130.288 290.615C126.859 282.615 123.43 275.758 121.145 268.901H107.431V304.329H116.573V284.901L125.716 304.329H134.859C138.288 297.472 140.573 290.615 144.002 284.901H145.145V304.329H154.288V268.901H139.43ZM294.859 303.187H305.145V280.329C309.716 288.329 314.288 296.329 318.859 303.187H333.716V267.758H324.573V289.472H323.431C318.859 282.615 314.288 274.615 310.859 267.758H296.002L294.859 303.187ZM25.1448 267.758V303.187H34.2877V280.329C38.8591 288.329 43.4305 296.329 48.0019 303.187H62.8591V268.901H52.5734V291.758L38.8591 268.901H25.1448V267.758ZM218.288 303.187C226.288 303.187 234.288 303.187 241.145 303.187C249.145 303.187 253.716 297.472 251.43 289.472C250.288 287.187 250.288 286.044 249.145 283.758C253.716 275.758 250.288 267.758 241.145 267.758C236.573 267.758 233.145 267.758 228.573 267.758H218.288V303.187ZM347.431 290.615L362.288 303.187H374.859C369.145 297.472 363.431 291.758 357.716 284.901L373.716 267.758H360.002L347.431 281.472V268.901H337.145V304.329H347.431V290.615ZM179.43 267.758C174.859 279.187 170.288 290.615 165.716 303.187H176.002L178.288 297.472H192.002C193.145 299.758 193.145 300.901 194.288 303.187H204.573C200.002 291.758 195.43 279.187 190.859 267.758H179.43ZM105.145 303.187C100.573 291.758 96.0019 279.187 91.4305 267.758H78.8591C74.2877 279.187 69.7162 290.615 65.1448 303.187H76.5734L78.8591 297.472H91.4305C92.5734 299.758 92.5734 300.901 93.7162 303.187H105.145ZM266.288 267.758L252.573 303.187H264.002L266.288 297.472H280.002L282.288 303.187H292.573L278.859 267.758H266.288Z" fill="white"/>
<path d="M139.433 268.9H154.29V304.329H145.147V284.9H144.004C141.718 291.757 138.29 297.472 134.861 304.329H125.718L116.575 284.9V304.329H107.433V270.043H121.147C123.433 276.9 126.861 283.757 130.29 291.757C133.718 282.614 137.147 274.614 139.433 268.9Z" fill="#0072BC"/>
<path d="M294.855 303.185V267.756H309.713C314.284 274.613 318.855 282.613 322.284 289.47H323.427V267.756H332.57V303.185H317.713C313.141 296.328 308.57 288.328 303.998 280.328V303.185H294.855Z" fill="#0072BC"/>
<path d="M25.1455 267.756H40.0026L53.7169 290.613V267.756H64.0026V302.042H49.1455C44.5741 295.185 40.0026 287.185 35.4312 279.185V302.042H26.2883L25.1455 267.756Z" fill="#0072BC"/>
<path d="M218.282 303.185V267.756H228.568C233.139 267.756 236.568 267.756 241.139 267.756C250.282 268.899 253.711 275.756 249.139 283.756C250.282 284.899 251.425 287.185 251.425 289.47C253.711 297.47 249.139 303.185 241.139 303.185C234.282 303.185 226.282 303.185 218.282 303.185ZM241.139 295.185C241.139 292.899 241.139 291.756 241.139 289.47H228.568V295.185H241.139ZM241.139 281.47V276.899H229.711V281.47H241.139Z" fill="#0072BC"/>
<path d="M347.429 290.613V303.185H337.144V267.756H347.429V281.47L360.001 268.899H373.715L357.715 286.042C363.429 291.756 369.144 298.613 374.858 304.328H362.286L347.429 290.613Z" fill="#0072BC"/>
<path d="M179.424 267.756H191.995C196.567 279.185 201.138 290.613 205.71 303.185H195.424C194.281 300.899 194.281 299.756 193.138 297.47H179.424L177.138 303.185H166.853C170.281 291.756 174.853 280.328 179.424 267.756ZM186.281 279.185L182.853 289.47H190.853L186.281 279.185Z" fill="#0072BC"/>
<path d="M105.139 303.185H94.8532C93.7104 300.899 93.7104 299.756 92.5675 297.47H77.7104L75.4247 303.185H63.9961C68.5675 291.756 73.139 279.185 77.7104 267.756H90.2818C94.8533 280.328 100.568 291.756 105.139 303.185ZM87.9961 289.47C86.8533 286.042 85.7104 282.613 83.4247 279.185C82.2818 283.756 81.139 286.042 78.8533 289.47H87.9961Z" fill="#0072BC"/>
<path d="M266.282 267.756H278.853L292.567 303.185H282.282L279.996 297.47H266.282L262.853 303.185H252.567L266.282 267.756ZM268.567 289.47H276.567L271.996 279.185L268.567 289.47Z" fill="#0072BC"/>
<path d="M241.143 295.187H228.571V289.472H241.143C241.143 291.758 241.143 292.901 241.143 295.187Z" fill="white"/>
<path d="M241.138 281.471H229.709V276.899H241.138V281.471Z" fill="white"/>
<path d="M186.286 279.185L190.857 289.47H182.857L186.286 279.185Z" fill="white"/>
<path d="M88.001 289.47H80.001C81.1438 286.042 82.2867 282.613 84.5724 279.185C85.7153 282.613 86.8581 286.042 88.001 289.47Z" fill="white"/>
<path d="M268.572 289.47L272.001 279.185L276.572 289.47H268.572Z" fill="white"/>
</g>
<defs>
<clipPath id="clip0_15_647">
<rect width="400" height="400" fill="white"/>
</clipPath>
</defs>
</svg>
