<svg width="400" height="400" viewBox="0 0 400 400" fill="none" xmlns="http://www.w3.org/2000/svg">
<g clip-path="url(#clip0_15_645)">
<path d="M197.981 292.475C87.9694 292.475 -0.964967 308.693 -0.999994 328.912C-1.02626 349.211 88.8713 365.822 199.829 365.997C310.69 366.234 400.658 349.832 400.684 329.569C400.746 309.28 310.839 292.589 199.899 292.475H197.981Z" fill="url(#paint0_linear_15_645)"/>
<path d="M197.581 292.037C136.913 292.037 82.761 297.125 46.7617 305.19L50.2032 330.524L348.504 331.031L352.016 305.742C315.693 297.467 260.787 292.177 199.384 292.037H197.581Z" fill="url(#paint1_linear_15_645)"/>
<path d="M197.581 292.037C136.913 292.037 82.761 297.125 46.7617 305.19L50.2032 330.524L348.504 331.031L352.016 305.742C315.693 297.467 260.787 292.177 199.384 292.037H197.581Z" fill="url(#paint2_linear_15_645)"/>
<path d="M348.516 330.473C348.516 327.416 346.064 324.947 343.034 324.816V324.781H55.749C52.6929 324.816 50.1797 327.294 50.1797 330.411C50.1797 333.494 52.6929 336.016 55.749 336.016V336.086H343.034C346.064 336.016 348.516 333.494 348.516 330.473Z" fill="white"/>
<path d="M63.4162 171.333C63.2936 247.264 124.758 309.034 200.741 309.104C252.651 309.201 297.924 280.496 321.41 238.034C323.415 232.526 324.553 226.536 324.553 220.371C324.615 192.148 301.803 169.301 273.589 169.223C259.508 169.188 246.767 174.88 237.484 184.109L206.328 214.881C191.336 230.792 170.048 240.652 146.448 240.652C101.079 240.503 64.327 203.663 64.4145 158.277C64.4145 157.103 64.4583 155.746 64.502 154.459C63.8015 159.984 63.4425 165.615 63.4162 171.333Z" fill="url(#paint3_linear_15_645)"/>
<path d="M200.993 34.0001C149.739 34.0001 105.079 62.0307 81.401 103.608C78.5989 109.913 77.0314 116.875 77.0314 124.222C76.9701 152.41 99.7904 175.257 128.005 175.318C142.086 175.362 154.853 169.643 164.118 160.475L195.31 129.73C210.319 113.827 231.563 103.915 255.119 103.941C300.523 104.028 337.276 140.912 337.162 186.29C337.162 188.041 337.092 190.064 336.995 192.008C337.985 185.379 338.519 178.672 338.519 171.824C338.659 95.8058 277.204 34.1402 201.221 34.0001H200.993Z" fill="url(#paint4_linear_15_645)"/>
<path d="M64.5056 154.459C64.4619 155.746 64.4181 157.103 64.4181 158.277C64.3306 203.663 101.083 240.503 146.452 240.652C167.801 240.652 187.294 232.526 201.979 219.163L152.24 169.302C145.016 173.172 136.776 175.361 128.001 175.318C99.7869 175.256 76.9666 152.41 77.0279 124.222C77.0279 116.875 78.5954 109.913 81.3976 103.608C72.6407 118.932 66.7649 136.166 64.5056 154.459Z" fill="url(#paint5_linear_15_645)"/>
<path d="M252.621 103.967C232.708 104.554 214.502 112.234 200.57 124.563L250.554 174.696C257.481 171.255 265.301 169.223 273.585 169.223C301.799 169.302 324.611 192.149 324.549 220.372C324.549 226.528 323.411 232.491 321.415 237.999H321.432C329.147 223.945 334.515 208.436 336.984 192.008C337.081 190.064 337.151 188.042 337.151 186.29C337.264 141.604 301.694 105.263 257.306 103.967H252.621Z" fill="url(#paint6_linear_15_645)"/>
</g>
<defs>
<linearGradient id="paint0_linear_15_645" x1="199.918" y1="291.622" x2="199.792" y2="365.539" gradientUnits="userSpaceOnUse">
<stop stop-color="#20366A"/>
<stop offset="0.258364" stop-color="#20366A"/>
<stop offset="1" stop-color="#1357A2"/>
</linearGradient>
<linearGradient id="paint1_linear_15_645" x1="43.2192" y1="311.275" x2="355.399" y2="311.804" gradientUnits="userSpaceOnUse">
<stop stop-color="#676D94"/>
<stop offset="0.135182" stop-color="#676D94"/>
<stop offset="0.515335" stop-color="white"/>
<stop offset="0.865797" stop-color="#676D94"/>
<stop offset="1" stop-color="#676D94"/>
</linearGradient>
<linearGradient id="paint2_linear_15_645" x1="46.7253" y1="311.279" x2="352.044" y2="311.799" gradientUnits="userSpaceOnUse">
<stop stop-color="#60658F"/>
<stop offset="0.0285499" stop-color="#60658F"/>
<stop offset="0.521469" stop-color="white"/>
<stop offset="0.995121" stop-color="#60658F"/>
<stop offset="1" stop-color="#60658F"/>
</linearGradient>
<linearGradient id="paint3_linear_15_645" x1="166.694" y1="308.899" x2="218.201" y2="163.288" gradientUnits="userSpaceOnUse">
<stop stop-color="#0C5DAA"/>
<stop offset="0.456575" stop-color="#0C5DAA"/>
<stop offset="1" stop-color="#18234C"/>
</linearGradient>
<linearGradient id="paint4_linear_15_645" x1="207.815" y1="59.6611" x2="207.815" y2="169.35" gradientUnits="userSpaceOnUse">
<stop stop-color="#EC2227"/>
<stop offset="0.427059" stop-color="#EC2227"/>
<stop offset="1" stop-color="#700F11"/>
</linearGradient>
<linearGradient id="paint5_linear_15_645" x1="121.188" y1="122.007" x2="147.92" y2="233.881" gradientUnits="userSpaceOnUse">
<stop stop-color="#0C5DAA"/>
<stop offset="0.324" stop-color="#0C5DAA"/>
<stop offset="1" stop-color="#18234C"/>
</linearGradient>
<linearGradient id="paint6_linear_15_645" x1="216.058" y1="170.986" x2="333.145" y2="170.986" gradientUnits="userSpaceOnUse">
<stop stop-color="#700F11"/>
<stop offset="0.0312706" stop-color="#700F11"/>
<stop offset="1" stop-color="#EA2629"/>
</linearGradient>
<clipPath id="clip0_15_645">
<rect width="400" height="400" fill="white"/>
</clipPath>
</defs>
</svg>
