<svg width="400" height="400" viewBox="0 0 400 400" fill="none" xmlns="http://www.w3.org/2000/svg">
<g clip-path="url(#clip0_14_4032)">
<path d="M5.17231 221.637C10.3934 266.725 31.0156 308.628 63.5516 340.277C59.9633 330.903 59.1637 320.696 61.24 310.879C67.543 283.161 95.4693 263.842 134.947 258.379V124.627C32.6821 107.405 -0.290665 172.295 5.17231 221.637Z" fill="#E49F15"/>
<path d="M394.695 178.168C389.649 133.282 369.248 91.5201 336.948 59.9451C340.643 69.2919 341.45 79.5325 339.259 89.343C333.171 117.061 305.03 136.38 265.553 141.843V275.185C367.817 292.4 400.783 227.725 394.695 178.168Z" fill="#E49F15"/>
<path d="M9.58105 156.545C36.2509 120.004 83.9192 99.2205 171.898 123.995C326.655 167.464 376.42 67.3028 288.226 25.3057C261.711 11.9809 232.515 4.86495 202.848 4.48865C173.181 4.11236 143.81 10.4825 116.966 23.1286C90.1213 35.7748 66.5022 54.3543 47.9025 77.4694C29.3029 100.578 16.1998 127.617 9.58105 156.545Z" fill="#E49F15"/>
<path d="M390.912 243.267C364.242 279.808 316.573 300.591 228.38 275.816C73.8306 232.348 24.0658 333.356 112.26 374.721C138.788 388.039 167.998 395.155 197.678 395.518C227.358 395.881 256.736 389.491 283.587 376.824C310.432 364.158 334.051 345.552 352.644 322.416C371.237 299.274 384.326 272.208 390.912 243.267Z" fill="#E49F15"/>
</g>
<defs>
<clipPath id="clip0_14_4032">
<rect width="400" height="400" fill="white"/>
</clipPath>
</defs>
</svg>
