<svg width="400" height="400" viewBox="0 0 400 400" fill="none" xmlns="http://www.w3.org/2000/svg">
<path d="M106.444 40.4963C135.87 23.1109 170.221 14.2672 204.354 15.0475C223.636 15.6852 242.876 18.966 261.083 25.4267C295.132 37.1065 325.448 59.283 347.171 87.9454C369.39 116.818 382.571 152.453 384.786 188.792C386.607 219.25 380.809 250.178 367.98 277.867C367.544 278.883 367.133 279.898 366.73 280.93C363.583 281.014 360.772 279.478 357.844 278.589C339.754 272.967 320.674 271.113 301.786 271.474C316.998 260.633 328.426 244.355 332.504 226.047C334.459 218.244 334.526 210.155 334.141 202.175C332.815 186.879 326.606 172.045 316.764 160.281C312.065 155.171 307.198 150.103 301.383 146.269C288.252 137.291 272.285 132.592 256.393 133.028C237.103 133.574 218.14 141.704 204.614 155.482C185.702 173.907 178.15 202.78 185.047 228.186C185.651 230.318 186.516 232.424 186.499 234.689C169.055 229.873 150.721 229.604 132.748 230.376C113.903 231.593 95.2759 235.008 76.8836 239.161C58.2816 243.03 39.0586 244.389 20.1629 242.006C17.3269 233.531 16.6472 224.495 15.6404 215.651C12.4855 178.01 21.0355 139.38 40.2417 106.808C56.1084 79.4876 79.191 56.4469 106.444 40.4963Z" fill="#8ED4DE"/>
<path d="M97.8935 256.79C117.804 251.068 138.236 246.428 159.036 245.975C175.943 245.454 192.917 247.921 208.969 253.274C225.742 258.493 241.071 267.228 257.005 274.469C253.926 277.02 249.42 276.181 245.778 277.599C230.231 280.662 214.725 283.976 199.378 287.928C178.62 293.054 158.155 299.431 137.086 303.224C125.239 305.439 113.215 307.067 101.132 306.865C88.4792 306.899 75.6751 304.441 64.331 298.685C51.5269 292.081 40.9966 281.819 32.0522 270.668C31.641 270.005 30.8272 268.688 30.416 268.025C39.2514 267.723 48.1203 267.22 56.813 265.508C70.6743 263.461 84.351 260.356 97.8935 256.79Z" fill="#009EDB"/>
<path d="M281.455 289.874C307.516 286.342 334.391 286.09 359.991 292.769C346.054 317.597 325.707 338.666 302.062 354.432C273.006 373.756 238.386 384.554 203.498 385.142C178.569 385.561 153.54 380.972 130.44 371.591C106.527 361.908 84.7197 347.115 66.8477 328.513C97.6749 334.882 129.593 330.452 159.757 322.749C179.618 317.798 198.581 309.97 218.198 304.222C238.889 297.896 260.017 292.845 281.455 289.874Z" fill="#204B82"/>
</svg>
