<svg width="400" height="400" viewBox="0 0 400 400" fill="none" xmlns="http://www.w3.org/2000/svg">
<path fill-rule="evenodd" clip-rule="evenodd" d="M191.029 39.9049L256.748 128.218C150.335 210.424 2.47447 378.991 160.907 376.734C129.547 384.396 106.869 378.881 89.1663 365.82C79.3054 358.555 47.2796 321.528 41.1181 310.008C25.0233 279.934 33.1312 240.737 59.5836 194.627C87.4025 143.588 131.845 91.9936 191.029 39.9049Z" fill="#024EA2"/>
<path d="M267.062 19.2634C258.869 19.2634 249.945 20.3695 240.178 22.7562C398.613 20.4984 250.747 189.066 144.331 271.271L210.055 359.582C269.24 307.496 313.682 255.904 341.504 204.865C367.951 158.753 376.059 119.553 359.964 89.4819C353.803 77.9672 321.779 40.937 311.918 33.6668C299.73 24.6811 285.184 19.2634 267.076 19.2634C267.07 19.2634 267.068 19.2634 267.062 19.2634Z" fill="url(#paint0_radial_14_5597)"/>
<defs>
<radialGradient id="paint0_radial_14_5597" cx="0" cy="0" r="1" gradientUnits="userSpaceOnUse" gradientTransform="translate(238.416 273.466) scale(74.2118 74.2118)">
<stop stop-color="#FFF200"/>
<stop offset="1" stop-color="#F5821F"/>
</radialGradient>
</defs>
</svg>
