<svg width="400" height="400" viewBox="0 0 400 400" fill="none" xmlns="http://www.w3.org/2000/svg">
<path fill-rule="evenodd" clip-rule="evenodd" d="M43.2924 264.15C43.2924 268.288 42.8794 270.36 41.6363 272.014C39.5672 274.085 37.4959 274.5 32.9427 274.5L20.1087 274.085C19.6958 274.085 19.6958 274.5 19.2807 274.5V281.124H11V254.626H32.9427C37.4981 254.626 39.5693 254.626 41.2233 256.282C42.8773 258.354 43.2924 259.597 43.2924 264.15ZM32.5275 267.878C33.3556 267.878 34.1837 267.878 35.0117 267.049C35.4247 266.221 35.8398 265.391 35.8398 264.15C35.8398 263.322 35.8398 262.494 35.0117 261.664C33.7686 260.836 33.3556 260.836 32.5275 260.836H19.6936C19.2807 261.251 19.2807 261.251 19.2807 261.664V267.049C19.2807 267.46 19.2807 267.46 19.6936 267.878H32.5275ZM51.573 279.055C49.9169 277.399 49.0889 275.741 49.0889 273.259V254.629H56.9566V271.605C56.9566 274.915 63.5811 274.915 66.4782 274.915C68.9624 274.915 74.7589 275.33 74.7589 271.605V254.629H83.0395V273.259C83.0395 275.741 82.2115 276.984 80.9704 278.64C78.4862 281.54 70.6207 281.127 66.4804 281.127C61.9228 281.127 53.6421 281.537 51.573 279.055ZM119.885 256.282C121.126 257.941 121.541 259.182 121.541 261.253C121.541 262.909 121.128 264.978 120.713 265.806C119.472 267.462 117.816 267.462 117.816 267.878C117.816 268.288 119.885 268.288 120.713 269.121C121.954 270.777 122.372 272.016 122.372 273.674C122.372 276.156 121.956 278.227 120.3 279.883C118.644 281.127 114.919 281.127 112.02 281.127H88.4187V254.629H111.605C114.917 254.629 118.644 254.629 119.885 256.282ZM114.089 262.907C114.089 261.664 113.261 260.425 111.605 260.425H96.2843V265.391H111.605C113.261 265.391 114.089 264.15 114.089 262.907ZM114.917 272.846C114.917 271.188 114.089 270.36 111.605 270.36H96.2843V274.913H112.018C114.504 274.913 114.917 274.087 114.917 272.846ZM154.664 274.913V281.127H126.925V254.629H135.203V274.913H154.664ZM160.045 254.629H168.326V281.127H160.045V254.629ZM206.832 271.188C206.832 271.188 207.66 276.573 205.589 278.64C203.518 280.712 196.48 281.127 190.684 281.127C184.887 281.127 177.435 280.712 175.779 278.64C173.707 275.33 173.707 271.605 173.707 267.878C173.707 263.735 174.122 259.597 176.192 256.7C177.848 255.044 184.885 254.629 190.682 254.629C196.891 254.629 203.103 255.044 204.759 256.7C206.83 259.182 206.415 263.735 206.415 263.735H199.377C199.377 263.735 199.377 262.907 198.549 261.664C197.308 260.836 193.994 260.836 190.684 260.836C186.959 260.836 183.646 260.836 182.403 262.079C181.575 263.322 181.162 265.804 181.162 267.875C181.162 269.947 181.162 272.014 182.403 273.672C183.231 274.911 186.959 274.911 190.684 274.911C193.996 274.911 197.308 274.911 198.549 274.083C199.792 272.844 199.377 271.183 199.377 271.183H206.832V271.188ZM259.413 256.282C261.069 257.941 261.069 259.182 261.069 261.253C261.069 262.909 260.654 264.978 260.241 265.806C258.998 267.462 257.342 267.462 257.342 267.878C257.342 268.288 259.413 268.288 260.241 269.121C261.48 270.777 261.897 272.016 261.897 273.674C261.897 276.156 261.482 278.227 259.826 279.883C258.17 281.127 254.445 281.127 251.545 281.127H228.362V254.629H251.13C254.443 254.629 258.17 254.629 259.413 256.282ZM253.617 262.907C253.617 261.664 252.789 260.425 251.13 260.425H235.814V265.391H251.13C252.789 265.391 253.617 264.15 253.617 262.907ZM254.443 272.846C254.443 271.188 253.615 270.36 251.128 270.36H235.812V274.913H251.543C254.028 274.913 254.443 274.087 254.443 272.846ZM264.379 281.127L279.285 254.629H291.29L305.368 281.127H296.676L293.777 275.741H275.974L273.075 281.127H264.379ZM279.282 270.36C279.282 270.775 279.282 270.775 279.698 270.775H290.46C290.875 270.775 290.875 270.775 290.875 270.36C291.286 270.36 291.286 269.949 291.286 269.949L286.733 260.838C286.733 260.427 286.322 260.427 286.322 260.427C286.322 260.012 285.907 260.012 285.907 260.012H284.668C284.668 260.012 284.253 260.012 284.253 260.427L283.842 260.838L279.285 269.534C279.282 269.949 278.872 269.949 279.282 270.36ZM319.443 262.081C319.032 261.253 319.032 261.253 318.204 261.253C317.376 261.253 317.376 261.253 317.376 262.081V281.127H309.923V254.629H323.585L336.834 273.674C337.245 274.502 337.662 274.502 338.49 274.502C338.905 274.502 338.905 274.502 338.905 273.674V254.629H346.358V281.127H332.692L319.443 262.081ZM360.846 271.603V281.127H352.982V254.629H360.846V264.15C361.261 264.561 361.674 264.561 361.674 264.561H365.816L376.166 254.626H387.757L372.441 267.46L389 281.127H377.409L365.399 270.777H360.846V271.603ZM243.678 143.255L218.01 118H180.747L154.664 143.67V170.168L158.804 173.893L154.664 177.618V204.114L180.334 229.371H218.421L243.676 204.532V177.205L239.95 173.893L243.676 170.581V143.255H243.678ZM199.377 221.504L168.739 190.87L172.051 187.557L180.334 195.423H218.421L226.706 187.142L230.431 190.87L199.377 221.504ZM185.715 173.893L199.379 160.229L213.457 173.893L199.379 187.557L185.715 173.893ZM226.706 160.231L218.01 151.951H180.747L172.051 160.644L168.739 156.917L199.377 126.281L230.431 156.917L226.706 160.231Z" fill="#C32C2C"/>
</svg>
