<svg width="400" height="400" viewBox="0 0 400 400" fill="none" xmlns="http://www.w3.org/2000/svg">
<g clip-path="url(#clip0_17_2)">
<path d="M363.262 163.787L200.638 -1L119.51 81.2111L27.8516 172.313L27.8643 172.297C52.1737 150.617 118.968 143.72 139.118 141.663V141.747C216.815 132.269 303.654 140.324 363.262 163.787L363.262 163.787Z" fill="url(#paint0_linear_17_2)"/>
<path d="M139.122 236.064V188.863V141.663C115.151 144.116 25.1962 153.404 19.2364 186.276C13.4051 218.47 117.197 233.573 139.122 236.064Z" fill="url(#paint1_linear_17_2)"/>
<path d="M37.7305 236.466L200.355 401.251L281.483 319.04L373.141 227.941L373.129 227.947C348.819 249.629 282.025 256.526 261.875 258.581V258.506C184.178 267.976 97.3456 259.929 37.7311 236.465L37.7305 236.466Z" fill="url(#paint2_linear_17_2)"/>
<path d="M261.871 164.192V211.383V258.581C285.842 256.137 375.797 246.85 381.765 213.977C387.588 181.784 283.803 166.68 261.871 164.192V164.192Z" fill="url(#paint3_linear_17_2)"/>
</g>
<defs>
<linearGradient id="paint0_linear_17_2" x1="-2796.47" y1="-991.097" x2="-2912.44" y2="-1119.89" gradientUnits="userSpaceOnUse">
<stop stop-color="#60B8E2"/>
<stop offset="1" stop-color="#0062A1"/>
</linearGradient>
<linearGradient id="paint1_linear_17_2" x1="495.407" y1="-943.709" x2="557.339" y2="-872.464" gradientUnits="userSpaceOnUse">
<stop stop-color="#60BAE1"/>
<stop offset="1" stop-color="#0062A1"/>
</linearGradient>
<linearGradient id="paint2_linear_17_2" x1="37.7305" y1="227.941" x2="373.141" y2="227.941" gradientUnits="userSpaceOnUse">
<stop stop-color="#FFDB54"/>
<stop offset="1" stop-color="#ED8721"/>
</linearGradient>
<linearGradient id="paint3_linear_17_2" x1="-2911.99" y1="-1822.6" x2="-2936.42" y2="-1913.77" gradientUnits="userSpaceOnUse">
<stop stop-color="#FFDB54"/>
<stop offset="1" stop-color="#ED8721"/>
</linearGradient>
<clipPath id="clip0_17_2">
<rect width="400" height="400" fill="white"/>
</clipPath>
</defs>
</svg>
