<svg width="400" height="400" viewBox="0 0 400 400" fill="none" xmlns="http://www.w3.org/2000/svg">
<g clip-path="url(#clip0_15_642)">
<g clip-path="url(#clip1_15_642)">
<path d="M44.8452 173.223C41.0747 170.418 36.0638 169.049 29.6745 169.049C28.2963 169.049 27.0558 169.118 25.8942 169.197C24.7325 169.276 23.5708 169.433 22.4879 169.571C20.384 169.946 18.3182 170.509 16.3153 171.254C12.7326 172.66 9.51007 174.85 6.88403 177.663C4.64512 180.233 3.13875 183.358 2.52283 186.711C2.52283 186.711 2.31609 187.616 2.16842 188.68C2.09027 189.451 2.06396 190.228 2.08966 191.003C2.08966 195.486 3.69106 198.833 6.89388 201.045C10.0934 203.25 14.5826 205.081 20.3221 206.528C22.9957 207.291 25.625 208.201 28.1978 209.255C28.742 209.541 29.2024 209.964 29.5338 210.482C29.8652 210.999 30.0562 211.594 30.088 212.208V213.193C29.4284 215.851 26.8097 217.239 22.3107 217.239C20.4557 217.258 18.6367 216.727 17.0832 215.713C16.3079 215.203 15.6788 214.5 15.2576 213.673C14.8364 212.847 14.6377 211.924 14.681 210.998H-2.78348C-2.96715 211.714 -3.04018 212.454 -3.00006 213.193C-3.05233 215.461 -2.59679 217.713 -1.66676 219.782C-0.736722 221.852 0.644267 223.687 2.37515 225.154C6.37211 228.787 11.8064 230.638 18.7174 230.638C25.3731 230.779 31.9437 229.122 37.7373 225.843C43.2504 222.723 46.6567 217.623 47.966 210.604L48.1826 207.178C48.2335 205.429 47.8797 203.692 47.1489 202.102C46.418 200.512 45.3298 199.112 43.9691 198.012C41.1338 195.728 37.1368 193.897 32.0471 192.608L26.1403 191.023C24.434 190.592 22.8152 189.869 21.3558 188.886C20.956 188.581 20.6298 188.19 20.4015 187.742C20.1732 187.294 20.0484 186.8 20.0366 186.297L20.1153 185.608C20.5485 183.55 22.5863 182.487 26.1403 182.487C30.6393 182.487 32.9725 184.003 32.9725 187.203V187.518H50.309V186.533C50.309 180.528 48.4976 176.029 44.796 173.194" fill="#0057A0"/>
<path d="M167.471 201.015C163.147 198.592 158.172 197.583 153.246 198.13C149.335 198.499 145.582 199.853 142.338 202.068C138.331 204.815 135.791 208.96 134.698 214.522L134.551 216.107L134.334 217.958C134.334 222.083 135.86 225.243 138.922 227.389C142.347 229.635 146.386 230.76 150.479 230.608C151.464 230.608 152.448 230.539 153.246 230.47C153.758 230.43 154.266 230.341 154.762 230.204C155.757 230.026 156.743 229.796 157.715 229.515C158.444 229.309 159.162 229.033 159.891 228.747C161.353 228.125 162.765 227.391 164.114 226.552C165.429 225.628 166.625 224.547 167.678 223.333C169.936 220.586 171.396 217.273 171.901 213.754L172.187 210.594C172.187 206.203 170.582 203.033 167.393 201.035M157.272 218.991C156.888 219.802 156.32 220.511 155.612 221.061C154.904 221.612 154.076 221.989 153.196 222.161C152.72 222.28 152.229 222.326 151.739 222.299C148.845 222.299 147.378 220.586 147.378 217.131C147.719 214.422 148.428 211.772 149.485 209.255C149.857 208.527 150.381 207.886 151.021 207.377C151.661 206.867 152.403 206.501 153.196 206.301C153.794 206.163 154.405 206.094 155.018 206.095C157.705 206.095 159.084 207.955 159.084 211.677C159.101 214.215 158.478 216.718 157.272 218.952" fill="#0057A0"/>
<path d="M85.4845 199.922C83.4467 198.623 79.8829 197.953 74.803 197.953H73.8186C71.9284 197.953 70.2548 198.022 68.6501 198.17C60.118 199.049 55.3171 202.419 54.2473 208.28H66.7501C67.0695 207.307 67.7494 206.493 68.6501 206.006C69.6346 205.476 70.7422 205.218 71.8595 205.258C74.3896 205.258 75.63 206.006 75.63 207.453C75.63 208.438 74.9802 209.176 73.5921 209.718C71.9877 210.207 70.3389 210.536 68.6698 210.702C68.2268 210.771 67.7936 210.85 67.2915 210.909L62.4971 211.598L59.209 212.218C57.1652 212.735 55.24 213.641 53.5385 214.886C51.6353 216.453 50.3484 218.643 49.9058 221.069C49.9058 221.206 49.7286 221.836 49.7089 222.279C49.6892 222.722 49.7089 222.86 49.7089 223.264C49.6525 224.222 49.8439 225.178 50.2647 226.04C50.6854 226.902 51.3213 227.641 52.111 228.186C54.2822 229.71 56.8715 230.525 59.524 230.519H60.1836C63.1165 230.536 66.0193 229.929 68.6993 228.738C70.1829 228.03 71.594 227.179 72.9128 226.198V230.362H86.2229L86.3706 229.013C85.6637 228.409 85.1758 227.589 84.9825 226.68L85.3467 224.613L88.1721 209.649C88.3878 208.396 88.5128 207.129 88.5462 205.858C88.6163 204.678 88.3694 203.501 87.831 202.448C87.2926 201.396 86.4825 200.507 85.4845 199.873M71.8988 221.275C71.2828 221.977 70.5417 222.558 69.7133 222.988C69.3989 223.141 69.0688 223.26 68.7288 223.343C68.1153 223.541 67.4735 223.637 66.8288 223.628C64.5055 223.628 63.2946 222.713 63.3438 221.285C63.3646 220.67 63.561 220.073 63.9099 219.565C64.2587 219.058 64.7455 218.66 65.3127 218.42C66.7019 217.846 68.1424 217.404 69.6149 217.101C71.1366 216.817 72.6392 216.439 74.1139 215.969C73.8795 217.903 73.1317 219.738 71.9481 221.285" fill="#0057A0"/>
<path d="M313.714 199.922C311.676 198.623 308.112 197.953 303.032 197.953H302.048C300.158 197.953 298.484 198.022 296.889 198.17C288.357 199.049 283.553 202.419 282.477 208.28H295.009C295.333 207.307 296.016 206.493 296.919 206.006C297.896 205.477 298.998 205.218 300.109 205.258C302.639 205.258 303.889 206.006 303.889 207.453C303.889 208.438 303.239 209.176 301.851 209.718C300.246 210.205 298.598 210.535 296.929 210.702C296.476 210.771 296.043 210.85 295.541 210.909L290.736 211.598L287.458 212.218C285.414 212.734 283.488 213.64 281.788 214.886C279.883 216.452 278.596 218.643 278.155 221.069C278.155 221.206 277.968 221.836 277.948 222.279C277.928 222.722 277.948 222.86 277.948 223.264C277.892 224.222 278.083 225.178 278.504 226.04C278.925 226.902 279.561 227.641 280.35 228.186C282.522 229.709 285.111 230.524 287.763 230.519H288.433C291.365 230.535 294.268 229.927 296.948 228.738C298.428 228.028 299.836 227.177 301.152 226.198V230.362H314.403L314.551 229.013C313.845 228.408 313.357 227.589 313.163 226.68L313.527 224.613L316.352 209.649C316.565 208.396 316.69 207.129 316.726 205.858C316.797 204.678 316.55 203.501 316.011 202.448C315.473 201.396 314.663 200.507 313.665 199.873M300.079 221.275C299.462 221.976 298.721 222.557 297.893 222.988C297.579 223.14 297.249 223.259 296.909 223.343C296.292 223.541 295.647 223.637 294.999 223.628C292.676 223.628 291.465 222.713 291.524 221.285C291.546 220.67 291.743 220.074 292.092 219.566C292.44 219.059 292.926 218.661 293.493 218.42C294.882 217.846 296.323 217.405 297.795 217.101C299.32 216.818 300.826 216.44 302.304 215.969C302.071 217.903 301.323 219.739 300.138 221.285" fill="#0057A0"/>
<path d="M126.724 201.231C123.771 199.026 119.892 197.993 114.911 197.993C108.571 197.993 103.56 199.578 99.8484 202.807C96.2702 205.842 93.8384 210.011 92.9571 214.62C92.9571 214.62 92.8094 215.477 92.7208 216.264C92.6322 217.052 92.6125 217.81 92.6125 217.81C92.5881 219.529 92.9393 221.233 93.6416 222.802C94.3439 224.372 95.3802 225.769 96.6784 226.897C99.4447 229.309 103.442 230.47 108.679 230.47C113.247 230.585 117.761 229.462 121.743 227.221C123.528 226.207 125.091 224.844 126.339 223.214C127.587 221.583 128.495 219.719 129.008 217.731H116.112C114.871 220.754 112.981 222.279 110.353 222.279C107.242 222.279 105.627 220.626 105.627 217.249C105.914 214.501 106.625 211.815 107.734 209.284C108.238 208.269 109.031 207.426 110.014 206.862C110.998 206.297 112.126 206.037 113.257 206.114C113.806 206.071 114.358 206.154 114.87 206.357C115.382 206.56 115.84 206.878 116.21 207.286C116.534 207.623 116.788 208.021 116.957 208.457C117.126 208.893 117.207 209.358 117.195 209.826L117.136 210.574H130.209L130.298 208.861C130.344 207.405 130.052 205.958 129.444 204.634C128.835 203.31 127.928 202.145 126.793 201.231" fill="#0057A0"/>
<path d="M355.869 200.198C353.979 198.711 351.419 197.993 348.161 197.993C343.731 197.993 339.645 199.961 336.012 203.899L337.056 197.993H325.242L319.404 230.608H332.409L335.363 214.364C335.953 211.755 336.672 210.052 337.627 209.196C338.72 208.269 340.136 207.812 341.565 207.926C343.967 207.926 345.207 209.137 345.207 211.687V212.75L345.129 213.734L342.087 230.608H354.963L358.448 211.47C358.706 210.21 358.828 208.926 358.813 207.64C358.813 204.155 357.828 201.684 355.977 200.198" fill="#0057A0"/>
<path d="M404.001 197.884H388.889L378.828 207.404L383.977 179.12H371.031L361.737 230.48H374.663L376.554 220.508L379.35 218.096L384.183 230.47H399.679L389.775 209.974L404.001 197.884Z" fill="#0057A0"/>
<path d="M231.768 200.04C230.104 198.633 227.485 197.993 224.138 197.993C219.403 197.993 215.278 199.912 211.694 203.781C210.533 199.903 207.402 197.993 202.233 197.993H201.938C199.824 198.042 197.753 198.603 195.903 199.627C193.974 200.587 192.247 201.907 190.814 203.516L191.798 197.904H179.984L174.146 230.49H187.033L189.987 214.305C190.291 212.509 191.039 210.818 192.162 209.383C192.638 208.902 193.205 208.521 193.831 208.264C194.457 208.007 195.128 207.878 195.805 207.887C198.059 207.887 199.152 209.019 199.152 211.273L198.926 214.03L195.972 230.49H208.918L211.871 214.305C212.373 211.5 213.171 209.728 214.185 208.95C215.165 208.252 216.339 207.88 217.542 207.887C218.532 207.776 219.526 208.058 220.308 208.674C220.6 209.025 220.82 209.43 220.955 209.866C221.091 210.302 221.138 210.76 221.096 211.214C221.055 212.253 220.934 213.286 220.732 214.305L217.778 230.49H230.734L233.973 211.559C234.227 210.066 234.353 208.554 234.347 207.04C234.347 203.781 233.481 201.468 231.728 200.04" fill="#0057A0"/>
<path d="M264.717 197.993C262.865 197.951 261.02 198.231 259.263 198.82C258.623 199.174 257.954 199.509 257.294 199.922C256.29 200.531 255.339 201.223 254.449 201.99L258.584 179.13H245.589L236.345 230.569H247.991L248.975 225.341C250.275 228.708 253.041 230.441 257.334 230.638H257.983C260.498 230.705 262.992 230.18 265.267 229.106C267.541 228.032 269.531 226.439 271.077 224.455C274.394 220.483 276.178 215.454 276.107 210.279C276.107 206.43 275.005 203.388 272.75 201.281C271.711 200.222 270.465 199.388 269.09 198.831C267.715 198.274 266.24 198.005 264.757 198.042M261.114 218.814C260.278 220.215 258.923 221.231 257.343 221.64C256.911 221.717 256.473 221.763 256.034 221.778C253.081 221.778 251.663 219.986 251.663 216.471C252.075 214.149 252.835 211.902 253.918 209.806C254.28 209.197 254.776 208.677 255.367 208.285C255.959 207.893 256.631 207.639 257.334 207.542C257.815 207.458 258.302 207.412 258.791 207.404C261.626 207.404 263.004 209.127 263.004 212.563C262.996 214.788 262.335 216.961 261.104 218.814" fill="#0057A0"/>
</g>
</g>
<defs>
<clipPath id="clip0_15_642">
<rect width="400" height="400" fill="white"/>
</clipPath>
<clipPath id="clip1_15_642">
<rect width="407" height="61.5983" fill="white" transform="translate(-3 169)"/>
</clipPath>
</defs>
</svg>
