<svg width="400" height="400" viewBox="0 0 400 400" fill="none" xmlns="http://www.w3.org/2000/svg">
<path d="M371.439 185.592L214.407 28.5587C206.437 20.5894 193.516 20.5894 185.547 28.5587L28.5133 185.592C20.544 193.561 20.544 206.483 28.5133 214.453L185.547 371.485C193.516 379.456 206.437 379.456 214.407 371.485L371.439 214.453C379.409 206.483 379.409 193.561 371.439 185.592ZM379.681 222.405L222.359 379.728C209.997 392.091 189.955 392.091 177.593 379.728L20.272 222.405C7.90933 210.044 7.90933 190.001 20.272 177.639L177.593 20.3174C189.955 7.95471 209.997 7.95471 222.359 20.3174L379.681 177.639C392.043 190.001 392.043 210.044 379.681 222.405Z" fill="#1263AA"/>
<path d="M156.81 210.934H326.778L319.068 226.544L222.716 231.746L198.627 302.085H171.263L194.195 233.866L170.684 235.022L156.81 210.934Z" fill="#1263AA"/>
<path d="M216.935 258.533C216.935 258.533 244.878 257.088 276.867 233.673L274.651 256.509C274.651 256.509 249.02 274.624 215.104 275.684L216.935 258.533Z" fill="#1263AA"/>
<path d="M136.094 200.022C136.094 200.022 147.946 181.884 154.738 181.594L161.531 181.305V173.645C161.531 173.645 173.383 170.032 177.574 167.286V158.469H164.566C164.566 158.469 171.07 149.653 183.934 142.137C196.796 134.622 201.132 133.321 201.132 133.321L220.934 148.93V166.672L261.98 180.294C261.98 180.294 265.16 180.872 265.594 189.4L279.758 190.845V198.938L203.3 198.794L203.446 183.908L182.922 183.473L182.632 199.228L136.094 200.022Z" fill="#1263AA"/>
<path d="M276.867 128.455V148.305C276.867 148.305 235.627 119.013 194.389 125.758C153.149 132.502 129.061 151.195 122.507 181.45C115.955 211.706 147.313 242.581 179.742 252.559L172.613 273.565C172.613 273.565 102.081 248.513 89.1701 210.934C76.2581 173.357 89.9408 145.799 123.471 125.95C157.003 106.101 214.789 103.815 276.867 128.455Z" fill="#1263AA"/>
</svg>
