<svg width="400" height="400" viewBox="0 0 400 400" fill="none" xmlns="http://www.w3.org/2000/svg">
<path d="M64.3164 61.5107C70.6991 54.7974 77.2164 49.8187 83.5591 44.6187C86.3444 42.3334 89.3444 42.7281 92.3804 42.7267C163.906 42.7014 235.432 42.7561 306.958 42.6067C312.167 42.5961 316.407 43.7187 320.247 47.2294C325.27 51.8227 330.536 56.1494 336.767 61.5107H64.3164Z" fill="#E90A2A"/>
<path d="M281.439 24.8442H118.164C172.473 -0.281096 226.895 -0.438429 281.439 24.8442Z" fill="#E90C2C"/>
<path d="M184.173 81.0427C178.259 86.6254 172.317 92.1801 166.454 97.8161C165.169 99.0521 163.723 99.0307 162.175 99.0307C120.053 99.0254 77.9285 99.0267 34.6445 99.0267C38.5299 91.8827 42.7739 85.8854 47.5885 80.2641C48.7419 78.9174 50.4752 79.3587 51.9859 79.3574C95.6579 79.3414 139.329 79.3441 183.001 79.3441C183.391 79.9107 183.782 80.4761 184.173 81.0427Z" fill="#E90B2A"/>
<path d="M366.267 99.0251C322.669 99.0251 280.547 99.0198 238.425 99.0425C236.589 99.0438 235 98.7985 233.579 97.4238C227.872 91.9025 222.083 86.4665 216.135 80.8185C218.961 78.5398 221.233 79.3945 223.284 79.3905C263.879 79.3278 304.476 79.4585 345.069 79.2065C350.576 79.1731 354.24 80.5478 356.997 85.3465C359.505 89.7091 362.629 93.7171 366.267 99.0251Z" fill="#E90B2A"/>
<path d="M147.786 116.425C141.152 123.065 135.544 128.591 130.046 134.229C128.236 136.083 126.069 135.882 123.872 135.882C90.1478 135.886 56.4225 135.81 22.6985 135.967C17.7491 135.991 17.2025 134.822 18.9425 130.318C24.2798 116.497 24.0918 116.425 38.7345 116.425H139.909H147.786Z" fill="#E90B2B"/>
<path d="M252.318 116.425C293.364 116.425 332.201 116.489 371.037 116.327C374.941 116.311 376.414 118.061 377.792 121.176C384.313 135.912 384.373 135.885 368.654 135.885C338.914 135.885 309.173 135.759 279.434 136.001C274.1 136.045 270.202 134.663 266.676 130.649C262.646 126.064 258.014 122.009 252.318 116.425Z" fill="#E90B2B"/>
<path d="M110.061 154.306C104.153 160.158 98.389 165.858 92.6383 171.571C90.969 173.231 88.8717 172.555 86.9663 172.558C62.585 172.608 38.2023 172.455 13.825 172.706C8.86768 172.756 7.67701 171.322 8.80901 166.72C12.905 150.064 8.58768 153.324 25.1943 153.186C51.125 152.97 77.0583 153.108 102.99 153.167C105.112 153.171 107.388 152.46 110.061 154.306Z" fill="#E90B2B"/>
<path d="M16.0359 240.77C16.0346 235.89 16.2346 230.999 15.9679 226.134C15.7719 222.571 17.1026 221.554 20.5293 221.677C26.9533 221.909 33.3946 221.638 39.8253 221.769C49.1186 221.958 53.9786 228.377 51.2773 237.259C50.5679 239.587 51.2759 240.714 52.3813 242.438C57.7026 250.723 52.9706 260.002 43.0866 260.423C35.3373 260.754 27.5599 260.407 19.7999 260.559C16.9146 260.615 15.9013 259.606 15.9893 256.738C16.1546 251.419 16.0373 246.093 16.0359 240.77Z" fill="#1A25AA"/>
<path d="M34.414 244.614C36.406 244.618 38.3993 244.579 40.39 244.628C43.1393 244.696 45.3033 245.924 45.482 248.771C45.6687 251.755 43.458 253.078 40.7567 253.175C36.3353 253.334 31.9033 253.176 27.4793 253.296C23.93 253.391 24.5033 250.942 24.418 248.771C24.3233 246.363 24.3967 244.286 27.7753 244.575C29.9727 244.763 32.1993 244.611 34.414 244.614Z" fill="#EDEEF6"/>
<path d="M32.3559 237.558C31.0332 237.56 29.6945 237.427 28.3919 237.586C25.0412 237.992 24.2745 236.33 24.3665 233.331C24.4465 230.664 24.4439 228.523 28.0985 228.796C31.1652 229.027 34.2639 228.772 37.3452 228.85C40.1825 228.919 42.9719 229.688 43.0025 233.052C43.0372 236.798 40.1012 237.526 36.9839 237.554C35.4412 237.568 33.8985 237.556 32.3559 237.558Z" fill="#EDEDF6"/>
<path d="M21.133 272.517C58.9197 272.517 96.6557 272.553 134.392 272.451C137.622 272.441 139.085 274.549 140.91 276.372C159 294.413 177.177 312.369 195.044 330.628C198.869 334.539 200.832 335.333 205.192 330.9C234.165 301.439 263.46 272.292 292.796 243.189C296.046 239.964 297.661 236.784 297.38 232.156C297.001 225.959 297.189 219.719 297.324 213.501C297.385 210.647 296.349 209.408 293.465 209.653C291.921 209.783 290.356 209.671 288.801 209.671C197.042 209.669 105.284 209.609 13.5264 209.811C7.65172 209.823 5.92638 208.299 6.00238 202.465C6.16638 189.996 5.85572 189.992 18.2384 189.992C140.88 189.992 263.52 190.049 386.161 189.831C392.616 189.819 394.185 191.477 394.256 197.805C395.326 293.876 326.953 375.071 230.957 391.381C145.552 405.893 58.1997 358.913 23.3317 279.656C22.3824 277.499 20.889 275.433 21.133 272.517Z" fill="#E90A2A"/>
<path d="M120.323 234.141C120.323 242.668 120.191 249.261 120.381 255.845C120.471 259.016 120.018 260.648 116.174 260.656C112.23 260.665 111.343 259.217 111.426 255.606C111.633 246.513 111.386 237.409 111.573 228.316C111.617 226.15 109.97 222.785 113.23 222.001C116.533 221.205 120.093 221.004 122.785 224.565C127.729 231.106 133.054 237.357 138.238 243.717C139.046 244.708 139.939 245.626 141.902 247.814C141.902 239.697 142.062 232.968 141.834 226.25C141.719 222.87 142.622 221.602 146.231 221.614C149.854 221.628 150.721 222.976 150.659 226.314C150.487 235.63 150.711 244.954 150.515 254.272C150.47 256.358 152.201 259.734 148.586 260.336C145.482 260.852 142.233 261.248 139.638 257.836C133.877 250.265 127.642 243.054 120.323 234.141Z" fill="#1C27AB"/>
<path d="M103.045 260.085C96.8796 261.16 92.0836 261.042 90.4769 254.324C90.1596 252.997 89.0369 252.02 87.4729 252.248C81.1716 253.169 73.1169 248.67 69.8129 258.784C68.6316 262.398 63.9089 261.01 61.5529 260.126C58.4209 258.952 61.5356 256.372 62.2463 254.773C66.5649 245.068 71.2529 235.53 75.6596 225.864C76.8609 223.228 78.0703 221.628 81.4343 221.596C84.8796 221.562 85.9543 223.39 87.1236 225.93C92.2943 237.169 97.5689 248.362 103.045 260.085Z" fill="#1B26AB"/>
<path d="M199.804 259.423C189.316 263.609 184.535 256.989 179.013 251.635C176.944 249.629 175.41 245.321 172.066 246.555C168.176 247.991 170.173 252.395 169.93 255.526C169.722 258.197 170.396 260.675 166.064 260.658C162.041 260.641 161.34 259.113 161.413 255.574C161.612 245.805 161.602 236.026 161.417 226.257C161.354 222.891 162.206 221.662 165.828 221.606C169.845 221.543 170.036 223.53 169.904 226.514C169.757 229.817 169.87 233.129 169.87 236.899C179.688 232.643 183.812 218.747 197.636 222.163C193.76 227.417 188.717 231.319 183.878 235.233C179.577 238.713 180.029 240.899 183.878 244.225C189.245 248.859 194.173 254.002 199.804 259.423Z" fill="#1A25AA"/>
<path d="M81.1211 235.366C83.3398 238.409 84.6544 241.073 85.4838 244.356H77.6211C77.6158 240.946 79.7984 238.649 81.1211 235.366Z" fill="#EAEBF5"/>
</svg>
