<svg width="400" height="400" viewBox="0 0 400 400" fill="none" xmlns="http://www.w3.org/2000/svg">
<g clip-path="url(#clip0_15_602)">
<rect width="400" height="400" fill="white"/>
<path d="M0 -1.4895H400V399.835H0V-1.4895Z" fill="#D6171F"/>
<path d="M200.204 384.854C97.2633 386.206 13.9807 301.247 14.4404 198.009C14.873 95.6637 100.914 13.1922 200.528 13.5437C301.062 13.8412 382.371 96.1774 385.562 192.52C389.077 301.193 300.197 387.045 200.204 384.854ZM303.631 199.524C278.917 188.194 258.394 175.512 241.115 158.18C223.81 140.82 211.047 120.027 200.447 97.0967C162.24 158.72 171.028 156.287 97.4526 200.2C121.031 209.88 141.771 222.805 158.941 240.408C176.598 258.66 190.578 280.156 200.123 303.708C220.781 254.36 254.365 220.723 303.631 199.524ZM213.994 358.572C258.502 354.191 293.437 335.236 321.369 303.275C343.488 278.291 356.629 246.6 358.792 213.26C319.585 217.83 286.596 231.836 259.8 258.849C232.976 285.889 218.212 318.742 213.994 358.572ZM40.8312 213.422C45.5632 257.118 63.761 293 96.4251 321.013C121.085 342.537 151.911 355.651 184.467 358.491C184.737 301.599 135.849 222.183 40.8853 213.422H40.8312ZM184.953 41.8003C128.251 30.2273 38.4247 119.756 41.5613 184.03C100.887 194.548 190.605 105.885 184.953 41.8003ZM214.075 41.8003C218.239 79.7642 232.381 112.374 258.988 139.117C286.163 166.4 319.071 181.596 357.467 185.111C367.229 125.624 274.861 32.8501 214.075 41.7462V41.8003Z" fill="white"/>
<path d="M303.632 199.524C254.365 220.723 220.782 254.361 200.123 303.708C190.578 280.157 176.599 258.66 158.942 240.408C141.771 222.697 121.032 209.88 97.4531 200.2C171.028 156.287 162.241 158.721 200.448 97.0972C211.047 120.027 223.729 140.766 241.116 158.18C258.475 175.594 278.917 188.194 303.632 199.524Z" fill="#D6171F"/>
<path d="M213.994 358.572C218.239 318.743 232.868 285.943 259.746 258.849C286.623 231.755 319.531 217.83 358.738 213.26C356.602 246.6 343.434 278.291 321.315 303.276C293.437 335.237 258.502 354.192 213.994 358.572Z" fill="#D6171F"/>
<path d="M40.8828 213.422C135.847 222.129 184.735 301.599 184.626 358.491C152.071 355.652 121.245 342.538 96.5848 321.014C63.8396 293.001 45.6418 257.119 40.8828 213.422Z" fill="#D6171F"/>
<path d="M184.955 41.8012C190.606 105.886 100.888 194.549 41.6169 184.031C38.4262 119.757 128.252 30.2282 184.955 41.8012Z" fill="#D6171F"/>
<path d="M214.075 41.7468C274.861 32.8507 367.229 125.624 357.467 184.977C319.071 181.516 286.163 166.292 258.988 139.009C232.381 112.321 218.212 79.7107 214.075 41.7468Z" fill="#D6171F"/>
</g>
<defs>
<clipPath id="clip0_15_602">
<rect width="400" height="400" fill="white"/>
</clipPath>
</defs>
</svg>
