<svg width="400" height="400" viewBox="0 0 400 400" fill="none" xmlns="http://www.w3.org/2000/svg">
<path d="M235.415 23.28C237.175 21.81 239.505 22.17 241.635 22.17C236.035 25.89 230.595 29.86 225.375 34.09C210.815 45.78 196.705 58.5 186.255 74.11C178.625 85.55 173.425 99.55 176.035 113.43C178.915 129.09 189.655 141.77 200.845 152.47C219.195 169.69 240.335 183.53 259.385 199.91C272.485 211.32 285.305 224.09 292.135 240.37C297.355 252.41 297.645 266.26 293.695 278.71C289.075 293.42 280.165 306.37 270.165 317.94C250.815 339.84 227.685 357.99 203.875 374.76C202.055 376.1 200.225 377.78 197.795 377.63C190.455 377.66 183.095 377.96 175.785 377.28C192.125 366.71 207.615 354.81 222.265 341.99C235.245 330.35 247.525 317.59 256.625 302.62C264.345 289.84 269.045 274.55 266.455 259.58C263.685 243.12 254.015 228.79 242.685 216.93C227.105 200.9 208.895 187.8 191.815 173.46C180.945 164.07 170.075 154.32 162.185 142.19C157.785 135.43 154.605 127.68 154.325 119.55C153.755 108.26 158.165 97.37 164.085 87.98C171.585 76.14 181.465 66.05 191.785 56.66C205.445 44.43 220.225 33.51 235.415 23.28Z" fill="#F58634"/>
<path d="M0.0245042 106.63C0.134504 78.4699 -0.185496 50.3099 0.184504 22.1499C54.7345 22.2399 109.284 22.1599 163.824 22.1899C168.374 22.2099 172.925 22.0599 177.475 22.3699C165.415 31.2299 152.924 39.5899 141.734 49.5799C129.204 60.4799 117.305 72.6999 109.655 87.5999C103.785 98.9099 102.035 112.64 106.555 124.72C110.955 136.89 119.534 146.92 128.564 155.94C142.744 169.8 158.625 181.74 173.395 194.93C182.465 202.93 191.004 211.66 197.954 221.59C205.204 232.09 210.154 244.69 209.424 257.62C208.884 274.48 200.274 289.85 190.134 302.86C178.774 317.42 165.055 329.93 150.755 341.54C135.315 354.05 118.975 365.39 102.375 376.28C100.205 377.94 97.3545 377.69 94.7845 377.71C63.1945 377.51 31.5845 377.98 0.00450373 377.47C0.0645037 287.19 0.0145042 196.91 0.0245042 106.63Z" fill="#F58634"/>
<path d="M203.565 23.41C205.085 22.25 206.975 22.05 208.845 22C208.285 23.29 207.185 24.16 206.075 24.93C195.215 32.6 184.775 40.87 174.815 49.68C164.205 59.44 153.965 69.85 146.335 82.16C140.945 90.99 136.905 101.1 137.415 111.62C137.755 121.92 142.975 131.25 149.185 139.19C164.855 158.92 185.975 173.15 205.045 189.3C220.205 202.18 235.625 216 244.065 234.42C249.985 246.8 251.705 261.23 248.135 274.54C243.635 291.61 232.915 306.21 221.175 319.06C200.875 340.77 176.775 358.49 152.185 375C150.255 376.3 148.255 377.85 145.795 377.67C139.735 377.7 133.665 377.82 127.615 377.38C143.235 367.29 158.225 356.22 172.595 344.41C187.365 331.9 201.585 318.41 212.535 302.33C220.475 290.66 226.485 276.99 226.165 262.64C225.945 248.06 218.745 234.6 209.645 223.59C191.665 202.17 168.175 186.49 147.995 167.34C136.775 156.56 125.805 144.17 121.935 128.71C118.915 117.26 121.265 105 126.625 94.62C132.835 82.16 142.315 71.69 152.335 62.16C168.035 47.53 185.585 35.05 203.565 23.41Z" fill="#F58634"/>
<path d="M223.854 57.7099C237.584 44.4799 252.974 33.1299 268.544 22.1799C312.144 22.1799 355.734 22.2099 399.324 22.1699C399.654 140.6 399.314 259.03 399.494 377.46C381.914 377.98 364.324 377.52 346.734 377.68C312.764 377.69 278.794 377.67 244.824 377.68C239.074 377.68 233.314 377.78 227.574 377.4C243.364 366.01 258.724 353.98 272.854 340.57C286.534 327.38 299.554 312.91 307.684 295.55C313.854 282.61 316.034 267.29 311.354 253.52C306.674 239.02 296.534 227.1 285.734 216.68C269.764 201.69 251.764 189.13 234.734 175.42C220.354 163.64 205.484 151.1 197.414 133.95C191.644 122.17 191.514 108.09 196.274 95.9599C202.054 81.1099 212.634 68.7599 223.854 57.7099Z" fill="#F58634"/>
</svg>
