<svg width="400" height="400" viewBox="0 0 400 400" fill="none" xmlns="http://www.w3.org/2000/svg">
<path d="M191.365 23.9258C94.1075 28.2834 18.7934 110.726 23.1825 208.027C27.5959 305.265 110.004 380.606 207.301 376.222C304.59 371.796 379.877 289.363 375.493 192.084C371.223 97.5342 293.208 23.7486 199.524 23.7413C196.812 23.7413 194.102 23.802 191.365 23.9258Z" fill="url(#paint0_radial_16_3314)"/>
<path d="M191.6 21.1869C93.0324 25.6172 16.7041 109.181 21.1879 207.79C25.6498 306.347 109.174 382.693 207.749 378.216C306.363 373.747 382.674 290.215 378.237 191.633C373.899 95.778 294.814 21.0073 199.837 21C197.098 20.9976 194.364 21.0607 191.6 21.1869ZM212.886 356.892C212.738 352.842 218.663 351.826 218.663 351.826C271.466 341.441 256.044 306.758 237.323 289.082C229.491 281.636 155.926 218.138 155.926 218.138C85.7391 157.726 91.3631 110.581 91.3631 110.581C94.7502 52.5465 145.561 38.1756 183.989 41.4923C188.499 41.8878 190.984 44.6125 190.202 48.3733C189.363 52.4421 183.394 52.7382 183.394 52.7382C171.163 53.5025 160.231 54.7301 151.913 60.3397C120.92 81.1475 130.108 116.639 171.372 156.044C176.572 161.04 182.089 166.264 187.767 171.57C187.767 171.57 196.062 178.859 212.539 194.581C244.342 223.849 261.722 239.647 261.722 239.647C317.723 286.255 298.616 328.885 277.165 343.724C260.902 354.99 242.797 360.31 219.102 361.567C218.884 361.601 218.648 361.618 218.398 361.618C216.222 361.618 213.039 360.264 212.886 356.892ZM226.005 184.754C207.832 180.931 204.144 164.478 204.144 164.478C202.652 158.701 202.305 151.364 203.496 142.062C206.01 122.55 211.267 113.371 217.239 98.2625C225.289 77.9739 205.685 66.0754 208.921 58.5952C213.332 48.4995 227.346 61.3418 242.998 62.2419C256.464 63.0329 264.529 62.368 274.996 63.734C288.916 65.5901 305.553 70.3166 312.97 79.0294C319.754 86.973 309.389 96.6805 296.896 90.6245C287.778 86.1577 276.299 88.8655 283.015 98.3959C291.153 107.402 295.064 107.674 303.308 109.845C326.033 115.848 326.538 137.614 311.123 148.918C293.586 161.763 275.824 156.445 268.717 131.245C265.148 118.704 256.316 112.315 247.189 115.94C238.175 119.417 243.535 135.974 250.379 151.291C262.329 181.76 238.136 184.885 228.96 184.885C227.574 184.885 226.531 184.813 226.005 184.754ZM159.396 351.171C139.661 349.264 116.087 343.038 95.5582 325.285C76.6745 308.946 64.9919 286.491 59.2974 266.799C53.4719 246.598 51.0772 222.983 60.6367 224.834C63.5992 225.431 68.6993 238.404 74.2239 247.838C79.9766 257.618 84.6569 263.002 89.0097 266.285C91.0162 267.77 97.7152 252.773 107.556 244.264C113.243 239.562 119.459 237.956 120.5 251.996C121.701 269.184 118.593 289.681 123.621 289.681C128.323 289.681 138.906 286.132 162.196 284.183C170.931 283.407 175.902 285.047 167.573 296.846C163.378 302.686 157.848 310.984 144.649 320.461C164.404 338.945 188.155 336.761 188.572 344.61C188.827 349.137 180.027 351.634 168.419 351.634C165.551 351.634 162.511 351.484 159.396 351.171Z" fill="url(#paint1_radial_16_3314)"/>
<defs>
<radialGradient id="paint0_radial_16_3314" cx="0" cy="0" r="1" gradientUnits="userSpaceOnUse" gradientTransform="translate(231.535 152.428) scale(167.544 167.544)">
<stop stop-color="white"/>
<stop offset="1" stop-color="#CA953E"/>
</radialGradient>
<radialGradient id="paint1_radial_16_3314" cx="0" cy="0" r="1" gradientUnits="userSpaceOnUse" gradientTransform="translate(221.263 147.128) scale(374.602 374.602)">
<stop stop-color="#4DC6F4"/>
<stop offset="0.219101" stop-color="#3B98DA"/>
<stop offset="0.375647" stop-color="#1C63B7"/>
<stop offset="0.573029" stop-color="#1C63B7"/>
<stop offset="1" stop-color="#1C63B7"/>
</radialGradient>
</defs>
</svg>
