<svg width="400" height="400" viewBox="0 0 400 400" fill="none" xmlns="http://www.w3.org/2000/svg">
<path d="M268.768 390.306L104.352 283.272C104.352 283.272 83.7341 271.417 79.0141 249.333C72.3839 218.325 94.2386 191.739 94.2386 191.739L307.622 330.705C324.083 341.432 328.573 363.38 317.993 379.934C307.123 396.94 284.788 400.692 268.761 390.306H268.768Z" fill="#38D200"/>
<path d="M113.036 168.802C113.036 168.802 87.8516 153.596 87.8516 118.423C87.8516 83.3726 113.025 68.3524 113.025 68.3524L202.91 9.52591C210.82 4.51348 220.387 2.82172 229.536 4.8176C238.685 6.81349 246.679 12.3361 251.782 20.1874C256.886 28.0387 258.689 37.5857 256.799 46.7574C254.909 55.9291 249.479 63.9859 241.688 69.1802L165.931 118.509L295.006 202.574C295.006 202.574 318.24 215.884 322.817 238.356C329.207 269.704 307.628 295.533 307.628 295.533L113.036 168.802ZM112.559 395.98C120.996 395.98 127.002 393.303 132.862 389.504L176.74 360.922L132.862 332.347C126.949 328.538 120.741 325.871 112.559 325.871C107.914 325.805 103.301 326.662 98.9899 328.394C94.6787 330.126 90.7547 332.698 87.4461 335.959C84.1374 339.221 81.5101 343.108 79.7168 347.394C77.9235 351.68 77 356.28 77 360.926C77 365.572 77.9235 370.171 79.7168 374.457C81.5101 378.743 84.1374 382.63 87.4461 385.892C90.7547 389.154 94.6787 391.725 98.9899 393.457C103.301 395.189 107.914 396.046 112.559 395.98Z" fill="#0473EA"/>
<path d="M282.217 83.4586C273.777 83.4586 267.771 86.1358 261.911 89.9312L218.029 118.509L261.911 147.088C267.824 150.901 274.035 153.567 282.217 153.567C286.821 153.567 291.379 152.661 295.632 150.899C299.885 149.137 303.749 146.555 307.004 143.3C310.26 140.045 312.842 136.181 314.603 131.928C316.365 127.675 317.272 123.116 317.272 118.513C317.272 113.91 316.365 109.351 314.603 105.098C312.842 100.845 310.26 96.9809 307.004 93.7258C303.749 90.4707 299.885 87.8886 295.632 86.127C291.379 84.3653 286.821 83.4586 282.217 83.4586Z" fill="#38D200"/>
</svg>
