<svg width="400" height="400" viewBox="0 0 400 400" fill="none" xmlns="http://www.w3.org/2000/svg">
<path d="M34.766 21.9998C32.4003 21.9998 30.1521 22.132 28.0068 22.3891C30.7031 22.6609 33.2672 23.3662 35.6623 24.4022H35.6696L139.613 68.5495L302.816 137.867L391.302 71.2091V71.2017C391.86 70.783 392.397 70.3348 392.948 69.8719L393.278 69.2768C400.522 56.6035 401.669 44.7089 396.504 35.8192C391.339 26.9074 380.451 21.9998 365.838 21.9998H34.766Z" fill="url(#paint0_linear_15_640)"/>
<path d="M4.15183 35.783C-0.990976 44.6801 0.191872 56.5379 7.46527 69.1892L173.865 358.391C175.268 360.83 176.766 363.057 178.324 365.07C178.221 364.879 178.082 364.739 177.993 364.577C176.142 361.381 175.062 357.936 174.68 354.49H174.673L139.613 68.55L35.6699 24.4027H35.6625C33.2675 23.3668 30.7034 22.6615 28.0071 22.3896C16.8178 23.6827 8.4571 28.3259 4.15183 35.783Z" fill="url(#paint1_linear_15_640)"/>
<path d="M391.306 71.2022V71.2095L302.82 137.868L161.194 244.544L174.676 354.49H174.683C175.065 357.936 176.145 361.381 177.997 364.577C178.085 364.739 178.224 364.878 178.327 365.069C184.873 373.445 192.72 378 200.941 378C211.153 378 220.785 371.02 228.043 358.325L392.944 69.8797C392.4 70.3426 391.864 70.7834 391.306 71.2022Z" fill="url(#paint2_linear_15_640)"/>
<defs>
<linearGradient id="paint0_linear_15_640" x1="32.3609" y1="36.8106" x2="350.002" y2="111.869" gradientUnits="userSpaceOnUse">
<stop stop-color="#F5B419"/>
<stop offset="0.521671" stop-color="#F68E20"/>
<stop offset="0.526882" stop-color="#F68E20"/>
<stop offset="0.990473" stop-color="#E16226"/>
<stop offset="1" stop-color="#E16226"/>
</linearGradient>
<linearGradient id="paint1_linear_15_640" x1="88.6636" y1="362.123" x2="88.6636" y2="60.6593" gradientUnits="userSpaceOnUse">
<stop stop-color="#F5B419"/>
<stop offset="0.521671" stop-color="#F68E20"/>
<stop offset="0.526882" stop-color="#F68E20"/>
<stop offset="0.990473" stop-color="#E16226"/>
<stop offset="1" stop-color="#E16226"/>
</linearGradient>
<linearGradient id="paint2_linear_15_640" x1="412.798" y1="83.0043" x2="185.5" y2="319.003" gradientUnits="userSpaceOnUse">
<stop stop-color="#F5B419"/>
<stop offset="0.521671" stop-color="#F68E20"/>
<stop offset="0.526882" stop-color="#F68E20"/>
<stop offset="0.990473" stop-color="#E16226"/>
<stop offset="1" stop-color="#E16226"/>
</linearGradient>
</defs>
</svg>
