<svg width="400" height="400" viewBox="0 0 400 400" fill="none" xmlns="http://www.w3.org/2000/svg">
<g clip-path="url(#clip0_15_638)">
<path d="M297.323 389.411C297.323 398.827 310.269 400 317.328 400H323.214C340.862 398.839 340.861 391.768 340.861 389.411V10.5886C342.022 1.16104 329.089 0 320.857 0H317.374C310.268 0 297.323 1.16104 297.323 10.5886V389.411Z" fill="#E1091D"/>
<path d="M60.8545 389.411C60.8545 398.827 73.8001 400 80.859 400H86.7461C104.394 398.839 104.393 391.768 104.393 389.411V10.5886C104.393 1.16104 92.6206 0 84.3888 0H80.9058C72.6162 0 60.8545 1.16104 60.8545 10.5886V389.411Z" fill="#E1091D"/>
<path d="M139.675 389.411C139.675 398.827 152.621 400 159.68 400H166.739C184.387 398.839 184.387 391.768 184.387 389.411V10.5886C184.387 1.16104 171.441 0 164.383 0H159.68C152.621 0 139.675 1.16104 139.675 10.5886V389.411Z" fill="#E1091D"/>
<path d="M218.499 389.411C218.499 398.827 231.444 400 238.504 400H244.39C262.038 398.839 262.038 391.768 262.038 389.411V10.5886C262.038 1.16104 249.092 0 242.033 0H238.55C231.445 0 218.499 1.16104 218.499 10.5886V389.411Z" fill="#E1091D"/>
<path d="M11.4391 177.65C2.01179 177.65 0.850586 190.595 0.850586 197.654V204.714C2.01177 222.361 9.08239 222.361 11.4391 222.361H390.262C399.678 222.361 400.851 209.416 400.851 202.357V197.654C400.851 190.595 399.69 177.65 390.262 177.65H11.4391Z" fill="#E1091D"/>
</g>
<defs>
<clipPath id="clip0_15_638">
<rect width="400" height="400" fill="white"/>
</clipPath>
</defs>
</svg>
