<svg width="400" height="400" viewBox="0 0 400 400" fill="none" xmlns="http://www.w3.org/2000/svg">
<path fill-rule="evenodd" clip-rule="evenodd" d="M299.664 29C269.432 29 255.78 35.8825 239.313 53.7159L200.897 96.2491L162.512 53.6837C144.663 35.8825 132.313 29 102.146 29H56.8467C56.8467 29 126.781 116.816 136.414 126.432C151.529 142.883 161.129 151.084 181.68 151.084H218.714C239.313 151.084 250.296 142.883 265.396 126.432C274.964 116.816 344.931 29 344.931 29H299.664Z" fill="#FCB813"/>
<path fill-rule="evenodd" clip-rule="evenodd" d="M274.963 142.883C253.061 147 240.631 152.403 229.696 170.301L220.096 185.352L211.911 201.835C200.912 219.668 202.263 233.369 210.464 255.319C214.613 267.701 254.396 372 254.396 372L277.761 333.519C292.829 307.517 292.829 292.417 285.914 269.052L269.431 214.233L324.411 201.835C349.014 196.4 361.396 188.086 376.48 162.068L398.462 122.252C398.462 122.252 288.664 140.118 274.963 142.883Z" fill="#F37920"/>
<path fill-rule="evenodd" clip-rule="evenodd" d="M189.95 201.835L180.35 185.352L172.117 170.301C161.134 152.403 148.768 147 126.786 142.883C113.165 140.118 2 122.252 2 122.252L25.3651 162.068C40.4005 188.086 52.7343 196.4 76.1477 201.835L132.317 214.233L114.516 269.052C107.682 292.417 108.92 307.517 124.068 333.519L146.05 372C146.05 372 187.216 267.701 191.285 255.319C198.119 233.369 200.917 219.668 189.95 201.835Z" fill="#F6921E"/>
</svg>
