<svg width="400" height="400" viewBox="0 0 400 400" fill="none" xmlns="http://www.w3.org/2000/svg">
<g clip-path="url(#clip0_18_3)">
<path fill-rule="evenodd" clip-rule="evenodd" d="M140.371 10.5294C111.871 16.3129 101.433 29.2253 102.453 47.8128C103.861 73.9313 132.608 123.741 146.34 145.931C170.309 184.746 198.685 219.756 230.247 251.983C255.84 277.235 271.814 282.709 299.138 245.41C322.443 214.684 343.999 184.112 362.463 146.024C370.566 129.277 378.051 111.014 384.747 90.5241C391.937 66.6015 389.324 45.4314 365.958 29.8438C388.597 40.8232 398.355 61.1273 399.808 83.4727C401.2 105.076 394.721 128.612 389.788 145.931C377.494 189.076 361.767 232.591 341.85 271.684C326.803 301.204 307.628 336.755 288.515 363.044C246.206 421.281 205.567 402.462 157.953 363.06C127.783 338.085 98.7576 306.431 73.8762 271.9C48.7319 237.029 20.9432 185.426 4.56694 145.761C-17.9021 91.4521 -0.443439 63.6325 27.2988 45.9882C57.7781 26.612 103.428 15.648 140.371 10.5294" fill="url(#paint0_linear_18_3)"/>
<path fill-rule="evenodd" clip-rule="evenodd" d="M139.382 134.426C183.47 127.838 298.026 120.709 338.217 141.539C351.655 148.498 352.026 157.931 350.696 168.616C354.732 161.364 358.66 153.848 362.464 146.024C370.567 129.276 378.052 111.013 384.747 90.5236C391.938 66.601 389.325 45.431 365.959 29.8434L365.851 29.7816C357.129 25.2198 347.108 21.926 338.124 19.3126C311.603 11.6425 282.237 8.48785 252.701 6.3693C240.5 5.47239 227.743 5.56519 214.815 5.61158C191.48 5.6889 165.856 7.11147 140.356 10.529C111.872 16.3125 101.434 29.2248 102.454 47.8124C103.661 70.0649 124.707 109.513 139.382 134.426" fill="url(#paint1_linear_18_3)"/>
</g>
<defs>
<linearGradient id="paint0_linear_18_3" x1="350.571" y1="258.725" x2="27.0406" y2="32.1865" gradientUnits="userSpaceOnUse">
<stop stop-color="#20663E"/>
<stop offset="0.4" stop-color="#247A45"/>
<stop offset="1" stop-color="#79CA2B"/>
</linearGradient>
<linearGradient id="paint1_linear_18_3" x1="147.624" y1="8.58065" x2="339.083" y2="142.642" gradientUnits="userSpaceOnUse">
<stop stop-color="#20663E"/>
<stop offset="0.3" stop-color="#247A45"/>
<stop offset="1" stop-color="#79CA2B"/>
</linearGradient>
<clipPath id="clip0_18_3">
<rect width="400" height="400" fill="white"/>
</clipPath>
</defs>
</svg>
