<svg width="400" height="400" viewBox="0 0 400 400" fill="none" xmlns="http://www.w3.org/2000/svg">
<path d="M307.538 223.533C301.651 225.077 295.9 225.851 290.279 225.851C277.844 225.851 271.629 219.161 271.629 205.781C271.629 193.431 277.711 187.258 289.877 187.258C292.466 187.258 295.117 187.868 297.828 189.094V173.29H307.538V223.533ZM197.203 223.277C192.684 224.991 187.553 225.85 181.813 225.85C163.003 225.85 153.596 216.72 153.596 198.467C153.596 181.19 163.003 172.554 181.813 172.554C187.553 172.554 192.684 173.409 197.203 175.126V183.946C192.684 181.987 187.797 181.006 182.545 181.006C169.964 181.006 163.674 186.829 163.674 198.467C163.674 211.086 169.964 217.396 182.545 217.396C187.797 217.396 192.684 216.415 197.203 214.456V223.277ZM206.915 225.85V187.258H214.427L215.637 192.184C219.006 188.9 222.573 187.258 226.335 187.258V195.124C222.72 195.124 219.483 196.63 216.625 199.644V225.85H206.915ZM103.147 187.258C114.825 187.258 120.663 193.237 120.663 205.195C120.663 206.787 120.555 208.379 120.334 209.97H94.793C94.793 215.41 98.7756 218.133 106.739 218.133C110.622 218.133 114.507 217.765 118.391 217.029V224.748C114.996 225.484 110.867 225.85 106.006 225.85C92.0572 225.85 85.0829 219.272 85.0829 206.114C85.0829 193.544 91.1033 187.258 103.147 187.258ZM249.253 187.258C260.932 187.258 266.771 193.237 266.771 205.195C266.771 206.787 266.662 208.379 266.441 209.97H240.899C240.899 215.41 244.885 218.133 252.847 218.133C256.731 218.133 260.615 217.765 264.499 217.029V224.748C261.105 225.484 256.976 225.85 252.115 225.85C238.167 225.85 231.189 219.272 231.189 206.114C231.189 193.544 237.213 187.258 249.253 187.258ZM336.674 181.006H343.856L345.321 187.258H354.996V194.975H346.384V212.728C346.384 216.331 347.934 218.133 351.037 218.133H354.996V225.85H346.346C339.897 225.85 336.674 222.385 336.674 215.449V181.006ZM125.565 181.006H132.746L134.212 187.258H143.886V194.975H135.275V212.728C135.275 216.331 136.825 218.133 139.928 218.133H143.886V225.85H135.238C128.789 225.85 125.565 222.385 125.565 215.449V181.006ZM75.6475 225.85H65.9354V187.258H75.6475V225.85ZM326.961 225.85H317.248V187.258H326.961V225.85ZM61.0799 173.29L38.1041 225.85H27.6602L5.6748 173.29H17.2174L33.451 213.539L49.6467 173.29H61.0799ZM297.828 197.325C295.825 196.007 293.307 195.342 290.279 195.342C284.249 195.342 281.227 198.736 281.227 205.525C281.227 213.586 284.368 217.616 290.647 217.616C293.188 217.616 295.58 217.262 297.828 216.552V197.325ZM94.793 203.208H111.21V202.915C111.21 197.574 108.522 194.903 103.147 194.903C98.0176 194.903 95.2331 197.673 94.793 203.208ZM240.899 203.208H257.317V202.915C257.317 197.574 254.632 194.903 249.253 194.903C244.125 194.903 241.342 197.673 240.899 203.208ZM75.6475 181.006H65.9354V173.29H75.6475V181.006ZM326.961 181.006H317.248V173.29H326.961V181.006Z" fill="#58595B"/>
<path d="M338.374 257.317H340.352V255.48H338.374V257.317ZM277.963 257.317H279.941V255.48H277.963V257.317ZM218.162 248.184C218.162 251.904 220.046 253.765 223.814 253.765C225.109 253.765 226.189 253.574 227.05 253.195V248.746H225.071V251.863C224.615 251.982 224.206 252.042 223.845 252.042C221.426 252.042 220.216 250.755 220.216 248.184C220.216 245.813 221.497 244.627 224.063 244.627C225.129 244.627 226.127 244.828 227.05 245.227V243.429C226.127 243.08 225.081 242.905 223.913 242.905C220.08 242.905 218.162 244.664 218.162 248.184ZM342.803 243.985L343.771 241.166H341.795L341.114 243.145C340.534 242.988 339.884 242.905 339.151 242.905C335.577 242.905 333.789 244.72 333.789 248.349C333.949 251.959 335.738 253.765 339.151 253.765C342.671 253.765 344.432 251.959 344.432 248.349C344.432 246.336 343.883 244.881 342.803 243.985ZM189.118 249.48C189.118 251.188 188.247 252.041 186.505 252.041C184.763 252.041 183.891 251.188 183.891 249.48V242.979H181.913V249.48C181.913 252.335 183.443 253.764 186.505 253.764C189.566 253.764 191.096 252.335 191.096 249.48V242.979H189.118V249.48ZM143.013 249.48C143.013 251.188 142.142 252.041 140.4 252.041C138.657 252.041 137.786 251.188 137.786 249.48V242.979H135.808V249.48C135.808 252.335 137.337 253.764 140.4 253.764C143.461 253.764 144.992 252.335 144.992 249.48V242.979H143.013V249.48ZM353.017 253.69H354.995V242.98H353.017V253.69ZM108.905 253.69H110.883V242.98H108.905V253.69ZM263.896 253.69H265.874V242.98H263.896V253.69ZM168.213 242.98H164.03V253.69H168.213C171.746 253.69 173.514 251.808 173.514 248.041C173.514 244.667 171.746 242.98 168.213 242.98ZM276.774 249.159H281.891V247.383H276.798V244.687H282.143V242.98H274.836V253.689H282.249V251.966H276.774V249.159ZM121.785 249.159H126.899V247.383H121.807V244.687H127.153V242.98H119.843V253.689H127.258V251.966H121.785V249.159ZM324.696 242.979H322.716V253.689H328.937V251.966H324.696V242.979ZM68.4138 248.14L65.4123 242.979H63.2833L67.3825 249.945V253.689H69.3616V249.945L73.2887 242.979H71.236L68.4138 248.14ZM49.4339 242.979L44.9017 253.689H46.9332L50.4492 245.024L52.1298 249.046H49.9787L49.2986 250.768H52.8456L54.0632 253.689H56.1908L51.5615 242.979H49.4339ZM32.3653 251.18L29.0586 242.979H26.7051L31.1862 253.689H33.3138L37.9956 242.979H35.6659L32.3653 251.18ZM298.415 250.783L292.776 242.979H290.797V253.689H292.701V245.721L298.336 253.689H300.319V242.979H298.415V250.783ZM207.672 250.783L202.037 242.979H200.057V253.689H201.962V245.721L207.597 253.689H209.576V242.979H207.672V250.783ZM92.9636 244.702H96.026V253.689H98.0051V244.702H101.065V242.979H92.9636V244.702ZM247.955 244.702H251.015V253.689H252.994V244.702H256.057V242.979H247.955V244.702ZM339.151 252.041C336.944 252.041 335.843 250.796 335.843 248.304C335.843 245.853 336.944 244.627 339.151 244.627C341.301 244.627 342.378 245.853 342.378 248.304C342.378 250.796 341.301 252.041 339.151 252.041ZM168.213 251.966H166.009V244.702H168.213C170.426 244.702 171.534 245.815 171.534 248.041C171.534 250.659 170.426 251.966 168.213 251.966ZM278.396 241.107L278.921 242.08H280.263L278.955 240.134H277.837L276.529 242.08H277.875L278.396 241.107ZM123.405 241.107L123.928 242.08H125.271L123.965 240.134H122.845L121.539 242.08H122.882L123.405 241.107ZM187.654 242.073L186.579 240.134H184.197L185.982 242.073H187.654ZM395.781 146.753L395.74 147.408L395.61 148.031C395.583 148.123 395.556 148.212 395.525 148.297C395.515 148.338 395.501 148.382 395.478 148.419C395.454 148.491 395.426 148.562 395.396 148.631C395.304 148.838 395.202 149.043 395.079 149.234L394.656 149.837C394.629 149.874 394.609 149.908 394.582 149.939C394.156 150.525 393.703 151.121 393.219 151.758C392.636 152.515 392.057 153.274 391.522 154.034C390.078 156.051 367.074 186.117 367.044 186.151C367.04 186.158 367.03 186.165 367.026 186.171C366.406 186.839 365.514 187.262 364.522 187.262C363.357 187.262 362.328 186.679 361.722 185.8L359.037 182.046C355.334 176.874 349.27 168.391 347.519 165.931C347.519 165.931 346.687 164.776 346.401 164.394C345.679 163.648 345.236 162.647 345.236 161.536C345.236 159.267 347.11 157.424 349.426 157.424L350.118 157.482L350.786 157.649C350.878 157.679 350.97 157.713 351.055 157.744C351.259 157.833 351.454 157.928 351.641 158.047L352.142 158.412C352.176 158.436 352.206 158.463 352.241 158.494C353.348 159.352 354.462 160.211 355.559 161.086C356.768 162.047 357.985 163.066 359.167 164.057C360.274 164.987 361.378 165.914 362.471 166.786L362.86 167.103C363.592 167.72 363.861 167.91 364.57 167.924C365.17 167.924 365.763 167.553 366.386 166.766L368.502 164.384C370.025 162.674 384.63 146.259 386.705 143.892C386.705 143.888 386.712 143.888 386.712 143.888L387.345 143.18C387.366 143.159 387.386 143.139 387.407 143.118C388.296 142.324 389.478 141.844 390.773 141.844C393.539 141.844 395.781 144.042 395.781 146.753Z" fill="#BE1E2D"/>
</svg>
