<svg width="400" height="400" viewBox="0 0 400 400" fill="none" xmlns="http://www.w3.org/2000/svg">
<path fill-rule="evenodd" clip-rule="evenodd" d="M200.003 0.00012207C257.261 0.00012207 308.894 24.0677 345.349 62.6313C273.563 210.332 370.825 303.844 370.907 303.926C363.558 315.985 354.971 327.204 345.324 337.4C332.829 244.458 192.869 236.502 213.085 163.889C217.624 147.581 231.148 140.302 231.148 140.302C259.894 119.972 296.589 147.234 296.589 147.234C262.95 86.1496 229.93 68.9828 205.281 67.1203C175.835 64.8979 168.435 83.5421 137.896 82.0773C105.286 80.5115 91.333 56.5134 91.333 56.5134C83.3904 102.11 114.63 109.548 114.63 109.548C102.464 227.537 164.047 221.242 163.384 297.928C162.967 346.536 109.548 356.405 87.0208 329.016C43.804 276.449 112.578 198.368 92.8356 128.287C82.7022 92.3054 59.6259 72.1396 51.5445 65.9902C88.1446 25.4693 141.097 0.00012207 200.003 0.00012207ZM303.212 371.343C273.077 389.532 237.759 400 200.003 400C89.5462 400 0 310.454 0 199.997C0 167.962 7.55109 137.688 20.9486 110.842C88.6181 152.285 64.0644 223.585 64.0644 223.585C48.6086 285.023 39.7948 369.486 135.465 366.266C167.115 365.199 203.305 340.482 205.218 299.929C206.936 263.417 178.587 232.518 178.587 232.518C131.488 178.973 130.995 158.636 130.995 158.636C120.584 101.624 172.646 81.2944 172.646 81.2944C237.392 61.6212 255.904 142.145 168.182 128.4C171.156 142.777 193.961 144.26 193.961 144.26C175.689 223.995 247.387 245.114 287.169 305.864C299.613 324.881 306.836 345.899 303.212 371.343ZM378.186 109.068C392.133 136.349 400 167.261 400 199.997C400 233.693 391.653 265.431 376.943 293.281C327.482 205.256 362.402 133.9 378.186 109.068Z" fill="#C4151C"/>
</svg>
