<svg width="400" height="400" viewBox="0 0 400 400" fill="none" xmlns="http://www.w3.org/2000/svg">
<g clip-path="url(#clip0_15_657)">
<path fill-rule="evenodd" clip-rule="evenodd" d="M143.426 141.829H257.449V245.884C299.869 252.588 339.864 266.543 376.491 286.683C388.296 260.691 395 231.602 395 200.837C395 89.5074 307.756 -0.707916 200.378 -0.707916C93.0112 -0.707916 6 89.5074 6 200.837C6 231.533 12.5963 260.559 24.3868 286.558C61.0247 266.48 101.023 252.439 143.426 245.825V141.829Z" fill="#005A93"/>
<path fill-rule="evenodd" clip-rule="evenodd" d="M200.445 402C268.384 402 328.251 365.839 363.084 311.009C314.52 284.366 259.07 269.305 200.264 269.305C141.513 269.305 86.2379 284.3 37.7295 310.946C72.4539 365.769 132.315 402 200.445 402Z" fill="#D61D4B"/>
</g>
<defs>
<clipPath id="clip0_15_657">
<rect width="400" height="400" fill="white"/>
</clipPath>
</defs>
</svg>
