<svg width="400" height="400" viewBox="0 0 400 400" fill="none" xmlns="http://www.w3.org/2000/svg">
<path d="M371.356 298.882H285.445V100.823H351.651C362.534 100.823 371.356 109.644 371.356 120.526V298.882Z" fill="#F7931D"/>
<path d="M197.646 391.288L153.832 342.108L324.535 228.61L370.711 297.045C371.92 298.835 371.389 301.267 369.548 302.359L215.159 394.066C209.447 397.46 202.107 396.296 197.646 391.288Z" fill="#FFDF40"/>
<path d="M28 105.494V280.905C28 285.848 30.636 290.417 34.9185 292.886L186.829 380.594C191.109 383.066 196.383 383.066 200.666 380.594L352.578 292.886C356.856 290.417 359.494 285.848 359.494 280.905V105.494C359.494 100.55 356.856 95.9838 352.578 93.51L200.666 5.80438C196.383 3.33261 191.109 3.33261 186.829 5.80438L34.9185 93.51C30.636 95.9838 28 100.55 28 105.494Z" fill="#FFC20D"/>
<path d="M247.235 181.697H223.138V170.458H247.235C250.34 170.458 252.856 172.972 252.856 176.077C252.856 179.181 250.34 181.697 247.235 181.697ZM247.235 224.502H223.138V213.262H247.235C250.34 213.262 252.856 215.779 252.856 218.883C252.856 221.986 250.34 224.502 247.235 224.502ZM284.409 195.216C295.314 190.155 302.877 179.114 302.877 166.299C302.877 148.697 288.608 134.426 271.006 134.426H201.016H186.679H172.941L151.385 198.481L131.059 134.426H76.5508L120.434 258.376C120.434 258.376 149.124 258.654 173.762 258.652H275.682C293.532 258.652 308.001 244.181 308.001 226.335C308.001 211.508 298.017 199.026 284.409 195.216Z" fill="#DB202C"/>
</svg>
