<svg width="400" height="400" viewBox="0 0 400 400" fill="none" xmlns="http://www.w3.org/2000/svg">
<path fill-rule="evenodd" clip-rule="evenodd" d="M12 184.509C16.698 185.575 21.4679 184.96 26.1864 184.98C44.3323 185.062 62.4885 185.35 80.6036 184.868C89.9894 184.632 98.2572 187.186 106.238 191.556C125.276 201.998 140.55 217.046 155.557 232.351C167.743 244.762 179.591 257.502 191.695 270.007C193.572 271.956 194.587 273.833 194.557 276.674C194.269 301.395 194.054 326.137 194.054 350.848C194.054 355.577 192.146 355.382 188.699 354.243C176.247 350.099 166.081 342.344 156.398 333.902C135.934 316.084 117.726 295.948 98.8521 276.52C69.6586 246.434 42.209 214.697 12 185.606V184.509Z" fill="#EA2127"/>
<path fill-rule="evenodd" clip-rule="evenodd" d="M284.622 46.0001C283.72 47.9183 284.14 49.9699 284.14 51.9496C284.099 80.6815 283.874 109.424 284.202 138.135C284.458 160.62 277.627 180.028 262.014 196.43C243.735 215.622 225.753 235.111 207.649 254.437C205.546 253.463 206.438 251.791 206.438 250.539C206.377 211.19 206.469 171.852 206.264 132.493C206.243 128.359 208.541 126.205 210.869 123.723C235.078 97.8016 259.306 71.8906 283.525 46.0001H284.622Z" fill="#EA2128"/>
<path fill-rule="evenodd" clip-rule="evenodd" d="M388.921 185.011C378.447 195.781 368.764 205.475 359.389 215.435C326.102 250.721 293.298 286.49 258.812 320.638C249.19 330.178 239.117 339.246 227.659 346.611C223.033 349.585 218.242 352.222 212.96 353.904C206.949 355.812 206.764 355.73 206.743 349.555C206.672 332.168 206.631 314.75 206.569 297.353C206.569 295.517 206.825 293.66 206.528 291.875C204.374 278.992 208.59 269.37 218.335 260.148C237.199 242.32 253.642 221.969 273.973 205.598C278.671 201.813 283.615 198.325 288.662 195.022C299.289 188.078 310.582 184.241 323.753 184.795C343.325 185.636 362.948 185.011 382.55 185.011H388.921Z" fill="#EA2127"/>
<path fill-rule="evenodd" clip-rule="evenodd" d="M115.416 46.2203C124.176 55.4215 132.208 63.8226 140.209 72.2442C156.857 89.7438 173.485 107.285 190.164 124.774C192.103 126.795 193.631 128.662 193.621 131.821C193.518 171.939 193.549 212.057 193.549 252.175C193.549 252.708 193.405 253.252 193.19 254.832C186.994 248.349 181.24 242.409 175.557 236.378C161.494 221.463 147.174 206.805 133.562 191.459C121.601 177.97 115.436 162.235 115.242 144.428C114.903 112.731 115.149 81.0453 115.16 49.3592C115.16 48.7027 115.252 48.0564 115.416 46.2203Z" fill="#EA2128"/>
</svg>
