<svg width="400" height="400" viewBox="0 0 400 400" fill="none" xmlns="http://www.w3.org/2000/svg">
<path fill-rule="evenodd" clip-rule="evenodd" d="M274.766 207.628C274.772 214.162 274.766 220.696 274.769 227.228C283.566 227.21 292.366 227.304 301.163 227.094C304.745 226.991 308.583 226.467 311.427 224.087C315.431 220.992 315.254 214.188 311.339 211.087C308.11 208.36 303.71 208.072 299.678 207.833C291.38 207.482 283.07 207.656 274.766 207.628H274.766ZM274.783 195.403C282.438 195.386 290.092 195.442 297.743 195.272C300.359 195.226 303.018 194.984 305.477 194.043C307.21 193.357 308.848 192.26 309.862 190.667C311.091 188.689 311.21 186.144 310.447 183.976C309.754 182.049 308.127 180.585 306.269 179.801C303.211 178.513 299.837 178.57 296.586 178.484C289.314 178.407 282.044 178.405 274.775 178.407C274.769 184.072 274.752 189.738 274.783 195.403ZM256.036 166.191C267.85 166.182 279.665 166.188 291.479 166.188C297.273 166.208 303.086 166.208 308.854 166.855C314.103 167.453 319.355 169.308 323.333 172.876C325.35 174.725 327.174 176.894 328.171 179.473C329.727 183.448 329.374 188.113 327.231 191.806C325.179 195.437 321.768 198.135 318.015 199.851C317.388 200.099 316.764 200.352 316.143 200.6C320.515 201.657 324.88 203.347 328.248 206.413C331.041 208.91 333.07 212.346 333.532 216.097C334.107 220.123 333.059 224.272 330.958 227.72C328.741 231.485 325.308 234.471 321.361 236.315C316.673 238.532 311.43 239.176 306.3 239.318C289.547 239.757 272.789 239.575 256.036 239.609C256.024 226.338 256.044 213.067 256.024 199.797C256.047 188.595 256.024 177.393 256.036 166.191V166.191ZM181.247 178.627C181.253 184.828 181.247 191.026 181.25 197.226C190.266 197.158 199.297 197.466 208.299 196.845C211.1 196.716 214.018 196.044 216.189 194.172C219.905 191.142 220.088 184.668 216.357 181.573C213.656 179.314 209.98 178.729 206.56 178.715C198.122 178.581 189.685 178.621 181.247 178.627H181.247ZM162.51 199.797C162.522 188.595 162.496 177.39 162.525 166.188C175.582 166.188 188.639 166.182 201.699 166.191C208.367 166.288 215.103 166.319 221.658 167.719C226.354 168.707 230.85 171.067 233.945 174.791C237.051 178.376 238.624 183.201 238.285 187.928C238.111 192.416 236.114 196.782 232.822 199.843C227.727 204.639 220.62 206.363 213.867 207.209C218.078 209.192 222.168 211.583 225.505 214.869C229.634 218.941 233.15 223.572 236.761 228.1C239.81 231.932 242.819 235.805 245.899 239.615C238.428 239.601 230.953 239.618 223.481 239.61C219.58 234.991 215.667 230.38 211.764 225.761C208.347 221.774 205.018 217.696 201.303 213.977C199.111 211.774 196.333 210.056 193.241 209.523C189.286 208.839 185.253 208.982 181.258 208.953C181.235 219.172 181.255 229.391 181.25 239.61C175.006 239.618 168.765 239.607 162.522 239.613C162.499 226.342 162.525 213.071 162.51 199.798V199.797ZM66.6084 166.197C73.3735 166.174 80.1357 166.191 86.8979 166.188C91.7423 177.39 96.5554 188.606 101.408 199.803C104.363 206.719 107.375 213.612 110.33 220.528C113.246 213.629 116.118 206.707 119.002 199.794C123.701 188.598 128.366 177.387 133.051 166.188C139.668 166.191 146.284 166.174 152.901 166.197C147.837 177.396 142.771 188.595 137.713 199.803C131.697 213.068 125.719 226.35 119.7 239.612C113.04 239.606 106.381 239.618 99.7241 239.606C93.7313 226.338 87.7557 213.064 81.7544 199.802C76.7219 188.592 71.6352 177.41 66.6084 166.196V166.197Z" fill="white"/>
<path fill-rule="evenodd" clip-rule="evenodd" d="M32.1875 137.213H368.163C372.896 137.826 377.399 139.991 380.83 143.305C385.099 147.352 387.743 152.986 388.361 158.816V199.808C372.971 199.785 357.58 199.805 342.186 199.8C334.13 199.834 326.068 199.728 318.015 199.851C321.768 198.135 325.179 195.437 327.231 191.806C329.374 188.113 329.727 183.448 328.171 179.473C327.174 176.894 325.35 174.726 323.333 172.876C319.355 169.308 314.103 167.453 308.854 166.855C303.086 166.208 297.273 166.208 291.479 166.188C279.665 166.188 267.85 166.182 256.035 166.191C256.024 177.393 256.047 188.595 256.024 199.797C248.29 199.831 240.556 199.74 232.822 199.843C236.114 196.782 238.111 192.416 238.285 187.928C238.624 183.201 237.051 178.376 233.945 174.791C230.85 171.067 226.354 168.707 221.657 167.719C215.103 166.319 208.367 166.288 201.699 166.191C188.639 166.183 175.581 166.188 162.524 166.188C162.496 177.39 162.521 188.595 162.51 199.797C154.243 199.8 145.979 199.794 137.713 199.803C142.771 188.595 147.837 177.396 152.901 166.197C146.284 166.174 139.667 166.191 133.051 166.188C128.366 177.388 123.701 188.598 119.002 199.794C113.137 199.809 107.273 199.791 101.408 199.803C96.5552 188.607 91.7421 177.39 86.8977 166.188C80.1356 166.191 73.3734 166.174 66.6082 166.197C71.635 177.41 76.7217 188.592 81.7542 199.803C58.4212 199.817 35.0913 199.754 11.7612 199.834L11.6387 199.133V161.991C11.8696 160.763 11.8296 159.506 12.0006 158.272C12.696 152.57 15.3888 147.104 19.5978 143.175C23.0231 139.92 27.4941 137.789 32.1875 137.213V137.213ZM181.247 178.627C189.684 178.621 198.122 178.581 206.56 178.715C209.98 178.729 213.655 179.314 216.357 181.573C220.087 184.668 219.905 191.142 216.189 194.172C214.017 196.044 211.099 196.716 208.298 196.845C199.296 197.466 190.266 197.158 181.249 197.226C181.246 191.026 181.252 184.828 181.246 178.627H181.247ZM274.783 195.403C274.752 189.738 274.769 184.072 274.775 178.407C282.044 178.404 289.314 178.407 296.586 178.484C299.837 178.57 303.211 178.513 306.269 179.801C308.127 180.585 309.754 182.049 310.446 183.976C311.21 186.144 311.091 188.689 309.862 190.667C308.848 192.26 307.209 193.357 305.477 194.043C303.017 194.984 300.359 195.226 297.743 195.272C290.092 195.442 282.437 195.386 274.783 195.403Z" fill="#E70F04"/>
<path fill-rule="evenodd" clip-rule="evenodd" d="M11.6387 199.133L11.7612 199.834C35.0913 199.754 58.4212 199.817 81.7542 199.803C87.7555 213.065 93.7312 226.339 99.7239 239.607C106.381 239.618 113.04 239.607 119.7 239.613C125.718 226.35 131.697 213.068 137.713 199.803C145.979 199.795 154.243 199.8 162.51 199.797C162.524 213.071 162.499 226.341 162.522 239.612C168.765 239.606 175.006 239.618 181.249 239.609C181.255 229.39 181.235 219.172 181.258 208.953C185.253 208.981 189.285 208.839 193.241 209.523C196.333 210.056 199.111 211.774 201.302 213.977C205.018 217.695 208.347 221.773 211.763 225.76C215.667 230.379 219.58 234.99 223.481 239.609C230.953 239.618 238.427 239.601 245.899 239.614C242.819 235.805 239.81 231.932 236.76 228.099C233.15 223.571 229.634 218.94 225.504 214.868C222.167 211.583 218.078 209.192 213.866 207.208C220.62 206.362 227.727 204.638 232.822 199.842C240.556 199.739 248.29 199.831 256.024 199.796C256.044 213.067 256.024 226.338 256.035 239.609C272.788 239.575 289.547 239.757 306.3 239.318C311.43 239.176 316.673 238.532 321.361 236.315C325.307 234.471 328.741 231.485 330.958 227.72C333.058 224.272 334.107 220.123 333.531 216.096C333.07 212.346 331.041 208.91 328.248 206.413C324.88 203.347 320.514 201.657 316.143 200.6C316.764 200.352 317.388 200.098 318.015 199.851C326.068 199.728 334.13 199.834 342.186 199.799C357.58 199.805 372.971 199.785 388.361 199.808V240.823C387.834 245.824 385.837 250.68 382.565 254.512C379.262 258.442 374.623 261.283 369.557 262.209C367.209 262.671 364.806 262.574 362.43 262.583C255.189 262.586 147.949 262.583 40.708 262.583C36.9179 262.5 33.0509 262.899 29.3435 261.902C24.2798 260.628 19.7915 257.431 16.7081 253.242C14.0039 249.588 12.3425 245.183 11.9207 240.66C11.821 239.52 11.8097 238.369 11.6387 237.241V199.133ZM101.408 199.803C107.273 199.791 113.137 199.809 119.002 199.794C116.118 206.707 113.245 213.629 110.33 220.528C107.375 213.612 104.363 206.719 101.408 199.803ZM274.766 207.628C283.07 207.656 291.38 207.483 299.678 207.833C303.71 208.072 308.11 208.36 311.338 211.087C315.254 214.188 315.431 220.993 311.427 224.087C308.583 226.467 304.744 226.991 301.162 227.094C292.366 227.305 283.566 227.211 274.769 227.228C274.766 220.696 274.772 214.162 274.766 207.628H274.766Z" fill="#0E64B1"/>
</svg>
