<svg width="400" height="400" viewBox="0 0 400 400" fill="none" xmlns="http://www.w3.org/2000/svg">
<path d="M385.39 200.432C385.39 303.437 301.757 387 198.951 387C95.9142 387 12.4277 303.437 12.4277 200.432C12.4277 97.4696 95.9142 14 198.951 14C301.757 14 385.39 97.4696 385.39 200.432Z" fill="white"/>
<path d="M198.923 377.63C297.118 377.63 376.672 297.978 376.672 199.84C376.672 101.656 297.118 22.0974 198.923 22.0974C100.728 22.0974 21.2227 101.656 21.2227 199.84C21.2227 298.122 100.728 377.63 198.923 377.63Z" fill="#0083CA"/>
<path d="M199.669 280.539C277.779 280.539 344.741 302.239 373.437 333.185C383.017 311.149 388.298 286.7 388.298 261.171C388.298 159.246 303.805 76.5797 199.669 76.5797C95.5225 76.5797 11 159.288 11 261.181C11 286.759 16.3786 311.149 25.975 333.185C54.5868 302.239 121.568 280.539 199.669 280.539Z" fill="#0083CA"/>
<path d="M199.642 280.734C277.551 280.734 344.341 302.255 372.961 332.951C382.52 311.096 387.793 286.848 387.793 261.52C387.793 160.43 303.511 78.1659 199.642 78.1659C95.7739 78.1659 11.4629 160.473 11.4629 261.531C11.4629 286.916 16.8203 311.107 26.3999 332.951C54.9334 302.255 121.743 280.734 199.642 280.734Z" fill="#0085CC"/>
<path d="M199.622 280.932C277.33 280.932 343.949 302.282 372.491 332.729C382.033 311.045 387.287 287 387.287 261.873C387.287 161.574 303.234 79.7533 199.622 79.7533C96.0122 79.7533 11.9316 161.616 11.9316 261.881C11.9316 287.066 17.2701 311.045 26.8116 332.729C55.288 302.282 121.924 280.932 199.622 280.932Z" fill="#0087CD"/>
<path d="M199.599 281.127C277.106 281.127 343.552 302.293 372.028 332.493C381.53 310.991 386.784 287.136 386.784 262.22C386.784 162.756 302.942 81.3164 199.599 81.3164C96.2658 81.3164 12.3945 162.799 12.3945 262.22C12.3945 287.193 17.7139 311.002 27.2364 332.493C55.6368 302.293 122.102 281.127 199.599 281.127Z" fill="#0088CE"/>
<path d="M199.58 281.324C276.878 281.324 343.159 302.318 371.551 332.268C381.033 310.948 386.276 287.284 386.276 262.579C386.276 163.919 302.654 82.9018 199.58 82.9018C96.5153 82.9018 12.8555 163.961 12.8555 262.579C12.8555 287.343 18.1558 310.959 27.6572 332.268C55.9899 302.318 122.284 281.324 199.58 281.324Z" fill="#008ACF"/>
<path d="M199.562 281.521C276.657 281.521 342.777 302.35 371.083 332.034C380.554 310.896 385.781 287.453 385.781 262.928C385.781 165.103 302.379 84.4664 199.562 84.4664C96.7558 84.4664 13.3242 165.124 13.3242 262.937C13.3242 287.5 18.5971 310.906 28.09 332.034C56.3466 302.35 122.467 281.521 199.562 281.521Z" fill="#008CD0"/>
<path d="M199.518 281.718C276.423 281.718 342.361 302.368 370.588 331.8C380.032 310.846 385.257 287.583 385.257 263.278C385.257 166.266 302.056 86.074 199.518 86.074C96.9885 86.074 13.7578 166.288 13.7578 263.288C13.7578 287.64 19.0307 310.854 28.4855 331.8C56.6745 302.368 122.632 281.718 199.518 281.718Z" fill="#008ED2"/>
<path d="M199.492 281.903C276.186 281.903 341.961 302.39 370.112 331.575C379.529 310.792 384.745 287.73 384.745 263.628C384.745 167.429 301.772 87.6379 199.492 87.6379C97.2209 87.6379 14.2207 167.45 14.2207 263.637C14.2207 287.787 19.4661 310.811 28.8998 331.575C57.0126 302.39 122.807 281.903 199.492 281.903Z" fill="#0090D3"/>
<path d="M199.483 282.108C275.976 282.108 341.578 302.413 369.653 331.351C379.051 310.739 384.256 287.888 384.256 263.977C384.256 168.591 301.495 89.2021 199.483 89.2021C97.4888 89.2021 14.6895 168.634 14.6895 263.977C14.6895 287.927 19.9243 310.758 29.3305 331.351C57.3757 302.413 122.999 282.108 199.483 282.108Z" fill="#0091D4"/>
<path d="M199.454 282.306C275.745 282.306 341.176 302.44 369.175 331.126C378.543 310.698 383.738 288.038 383.738 264.336C383.738 169.777 301.199 90.7894 199.454 90.7894C97.7278 90.7894 15.1504 169.798 15.1504 264.336C15.1504 288.087 20.364 310.717 29.7427 331.126C57.7203 302.44 123.172 282.306 199.454 282.306Z" fill="#0093D5"/>
<path d="M199.428 282.502C275.519 282.502 340.779 302.451 368.701 330.89C378.051 310.644 383.237 288.185 383.237 264.685C383.237 170.938 300.907 92.3736 199.428 92.3736C97.9708 92.3736 15.6133 170.959 15.6133 264.693C15.6133 288.223 20.8079 310.663 30.1676 330.89C58.0796 302.451 123.337 282.502 199.428 282.502Z" fill="#0095D7"/>
<path d="M199.421 282.687C275.311 282.687 340.398 302.466 368.242 330.665C377.572 310.591 382.739 288.324 382.739 265.023C382.739 172.101 300.64 93.9377 199.421 93.9377C98.2302 93.9377 16.082 172.122 16.082 265.033C16.082 288.362 21.2598 310.61 30.5983 330.665C58.4342 302.466 123.531 282.687 199.421 282.687Z" fill="#0097D8"/>
<path d="M199.385 282.893C275.074 282.893 340 302.5 367.768 330.431C377.069 310.538 382.228 288.472 382.228 265.383C382.228 173.264 300.337 95.524 199.385 95.524C98.4732 95.524 16.5449 173.306 16.5449 265.393C16.5449 288.51 21.6931 310.576 31.0147 330.431C58.7829 302.5 123.717 282.893 199.385 282.893Z" fill="#0099D9"/>
<path d="M199.368 283.091C274.856 283.091 339.609 302.516 367.292 330.208C376.582 310.495 381.741 288.632 381.741 265.744C381.741 174.449 300.052 97.1111 199.368 97.1111C98.7141 97.1111 17.0078 174.449 17.0078 265.744C17.0078 288.67 22.1454 310.517 31.4374 330.208C59.1295 302.516 123.89 283.091 199.368 283.091Z" fill="#009BDA"/>
<path d="M199.319 283.286C274.607 283.286 339.186 302.538 366.793 329.972C376.056 310.443 381.204 288.768 381.204 266.091C381.204 175.611 299.745 98.6739 199.319 98.6739C98.9444 98.6739 17.4453 175.632 17.4453 266.091C17.4453 288.808 22.5554 310.471 31.8284 329.972C59.4528 302.538 124.042 283.286 199.319 283.286Z" fill="#009DDC"/>
<path d="M199.302 283.474C274.381 283.474 338.797 302.553 366.337 329.74C375.561 310.391 380.709 288.908 380.709 266.442C380.709 176.774 299.451 100.26 199.302 100.26C99.1938 100.26 17.9082 176.795 17.9082 266.451C17.9082 288.948 23.0077 310.42 32.2511 329.74C59.7994 302.553 124.226 283.474 199.302 283.474Z" fill="#009FDD"/>
<path d="M199.279 283.68C274.154 283.68 338.399 302.588 365.852 329.504C375.068 310.328 380.195 289.067 380.195 266.79C380.195 177.958 299.168 101.825 199.279 101.825C99.4389 101.825 18.3711 177.98 18.3711 266.8C18.3711 289.095 23.4537 310.366 32.6781 329.504C60.1588 302.588 124.412 283.68 199.279 283.68Z" fill="#00A1DE"/>
<path d="M199.27 283.866C273.944 283.866 338.016 302.613 365.393 329.28C374.579 310.296 379.698 289.215 379.698 267.14C379.698 179.121 298.89 103.432 199.27 103.432C99.6857 103.432 18.8398 179.142 18.8398 267.14C18.8398 289.245 23.9013 310.323 33.1066 329.28C60.5112 302.613 124.593 283.866 199.27 283.866Z" fill="#00A3E0"/>
<path d="M199.244 284.072C273.718 284.072 337.618 302.625 364.917 329.055C374.084 310.232 379.194 289.362 379.194 267.499C379.194 180.283 298.596 104.995 199.244 104.995C99.9392 104.995 19.3027 180.304 19.3027 267.499C19.3027 289.392 24.3452 310.272 33.523 329.055C60.8705 302.625 124.779 284.072 199.244 284.072Z" fill="#00A5E1"/>
<path d="M199.217 284.259C273.49 284.259 337.219 302.651 364.441 328.821C373.59 310.182 378.689 289.513 378.689 267.848C378.689 181.468 298.302 106.582 199.217 106.582C100.18 106.582 19.7637 181.468 19.7637 267.848C19.7637 289.532 24.7871 310.228 33.9353 328.821C61.2151 302.651 124.955 284.259 199.217 284.259Z" fill="#00A7E2"/>
<path d="M199.202 284.456C273.274 284.456 336.838 302.674 363.985 328.586C373.105 310.138 378.186 289.661 378.186 268.198C378.186 182.631 298.027 108.147 199.202 108.147C100.432 108.147 20.2266 182.631 20.2266 268.208C20.2266 289.68 25.231 310.176 34.3686 328.586C61.5639 302.674 125.139 284.456 199.202 284.456Z" fill="#00A9E3"/>
<path d="M199.174 284.65C273.045 284.65 336.438 302.697 363.498 328.362C372.608 310.084 377.688 289.809 377.688 268.546C377.688 183.793 297.731 109.732 199.174 109.732C100.672 109.732 20.6953 183.814 20.6953 268.546C20.6953 289.828 25.6722 310.122 34.7824 328.362C61.91 302.697 125.311 284.65 199.174 284.65Z" fill="#00ABE5"/>
<path d="M199.132 284.847C272.792 284.847 336.024 302.713 363.008 328.128C372.088 310.032 377.15 289.958 377.15 268.906C377.15 184.978 297.422 111.318 199.132 111.318C100.899 111.318 21.125 184.978 21.125 268.906C21.125 289.977 26.0998 310.081 35.1804 328.128C62.2403 302.713 125.473 284.847 199.132 284.847Z" fill="#00ADE6"/>
<path d="M199.109 285.044C272.567 285.044 335.626 302.735 362.534 327.903C371.585 309.97 376.647 290.096 376.647 269.254C376.647 186.14 297.131 112.882 199.109 112.882C101.142 112.882 21.5879 186.14 21.5879 269.254C21.5879 290.115 26.5352 310.027 35.5967 327.903C62.5912 302.735 125.648 285.044 199.109 285.044Z" fill="#00AFE7"/>
<path d="M199.093 285.248C272.351 285.248 335.247 302.761 362.076 327.677C371.1 309.928 376.153 290.253 376.153 269.595C376.153 187.303 296.857 114.468 199.093 114.468C101.405 114.468 22.0605 187.303 22.0605 269.603C22.0605 290.263 26.9888 309.974 36.0313 327.677C62.9475 302.761 125.844 285.248 199.093 285.248Z" fill="#00B2E9"/>
<path d="M199.074 285.437C272.131 285.437 334.845 302.784 361.599 327.442C370.603 309.884 375.656 290.403 375.656 269.963C375.656 188.466 296.559 116.033 199.074 116.033C101.644 116.033 22.5195 188.466 22.5195 269.963C22.5195 290.422 27.4288 309.932 36.4523 327.442C63.3008 302.784 126.015 285.437 199.074 285.437Z" fill="#00B4EA"/>
<path d="M199.047 285.631C271.903 285.631 334.444 302.807 361.123 327.218C370.107 309.831 375.141 290.541 375.141 270.312C375.141 189.65 296.274 117.618 199.047 117.618C101.885 117.618 22.9805 189.65 22.9805 270.312C22.9805 290.56 27.8707 309.89 36.8646 327.218C63.6391 302.807 126.188 285.631 199.047 285.631Z" fill="#00B6EC"/>
<path d="M199.031 285.827C271.686 285.827 334.056 302.813 360.657 326.993C369.621 309.769 374.647 290.698 374.647 270.651C374.647 190.812 295.991 119.203 199.031 119.203C102.147 119.203 23.4531 190.812 23.4531 270.651C23.4531 290.707 28.3222 309.836 37.2992 326.993C63.9955 302.813 126.384 285.827 199.031 285.827Z" fill="#00B9ED"/>
<path d="M199.016 286.025C271.46 286.025 333.667 302.848 360.192 326.751C369.129 309.728 374.144 290.848 374.144 271.012C374.144 191.976 295.697 120.769 199.016 120.769C102.39 120.769 23.916 191.976 23.916 271.012C23.916 290.858 28.7681 309.785 37.724 326.751C64.3526 302.848 126.559 286.025 199.016 286.025Z" fill="#07BBEE"/>
<path d="M198.985 286.221C271.24 286.221 333.274 302.862 359.712 326.535C368.63 309.674 373.634 290.986 373.634 271.36C373.634 193.138 295.419 122.353 198.985 122.353C102.637 122.353 24.375 193.138 24.375 271.36C24.375 290.986 29.2166 309.741 38.1344 326.535C64.6975 302.862 126.742 286.221 198.985 286.221Z" fill="#0FBDEF"/>
<path d="M198.971 286.418C271.015 286.418 332.886 302.896 359.248 326.301C368.147 309.632 373.143 291.135 373.143 271.711C373.143 194.322 295.136 123.94 198.971 123.94C102.89 123.94 24.8477 194.322 24.8477 271.711C24.8477 291.135 29.6617 309.698 38.5605 326.301C65.056 302.896 126.918 286.418 198.971 286.418Z" fill="#19C0F1"/>
<path d="M198.943 286.615C270.787 286.615 332.486 302.909 358.77 326.066C367.642 309.569 372.627 291.283 372.627 272.061C372.627 195.486 294.843 125.505 198.943 125.505C103.131 125.505 25.3086 195.486 25.3086 272.061C25.3086 291.283 30.1037 309.637 38.9834 326.066C65.4028 302.909 127.102 286.615 198.943 286.615Z" fill="#1EC4F4"/>
<path d="M198.934 287.063C270.691 287.063 332.303 303.262 358.56 326.275C367.401 309.884 372.387 291.714 372.387 272.614C372.387 196.542 294.708 126.963 198.934 126.963C103.246 126.963 25.5293 196.542 25.5293 272.614C25.5293 291.714 30.3222 309.951 39.1935 326.275C65.5748 303.262 127.188 287.063 198.934 287.063Z" fill="#33C6F4"/>
<path d="M198.945 287.519C270.597 287.519 332.125 303.604 358.354 326.465C367.185 310.179 372.16 292.122 372.16 273.157C372.16 197.578 294.587 128.4 198.945 128.4C103.393 128.4 25.7715 197.578 25.7715 273.157C25.7715 292.122 30.556 310.245 39.4167 326.465C65.7578 303.604 127.294 287.519 198.945 287.519Z" fill="#3FC7F4"/>
<path d="M198.925 287.97C270.49 287.97 331.923 303.949 358.122 326.665C366.945 310.484 371.901 292.552 371.901 273.712C371.901 198.614 294.431 129.86 198.925 129.86C103.496 129.86 25.9883 198.636 25.9883 273.712C25.9883 292.552 30.7728 310.541 39.6145 326.665C65.9197 303.949 127.37 287.97 198.925 287.97Z" fill="#4AC8F5"/>
<path d="M198.947 288.419C270.408 288.419 331.763 304.292 357.933 326.866C366.736 310.789 371.683 292.983 371.683 274.258C371.683 199.672 294.33 131.298 198.947 131.298C103.653 131.298 26.2402 199.672 26.2402 274.258C26.2402 292.983 31.0247 310.848 39.858 326.866C66.123 304.292 127.488 288.419 198.947 288.419Z" fill="#54CAF5"/>
<path d="M198.915 288.874C270.281 288.874 331.549 304.644 357.691 327.063C366.476 311.092 371.423 293.409 371.423 274.799C371.423 200.706 294.163 132.776 198.915 132.776C103.745 132.776 26.4492 200.717 26.4492 274.799C26.4492 293.409 31.2232 311.149 40.0352 327.063C66.2728 304.644 127.551 288.874 198.915 288.874Z" fill="#5DCCF5"/>
<path d="M198.941 289.324C270.219 289.324 331.403 304.988 357.505 327.274C366.271 311.401 371.207 293.823 371.207 275.345C371.207 201.761 294.055 134.195 198.941 134.195C103.904 134.195 26.7031 201.77 26.7031 275.345C26.7031 293.823 31.4686 311.458 40.2722 327.274C66.4717 304.988 127.674 289.324 198.941 289.324Z" fill="#64CDF6"/>
<path d="M198.931 289.774C270.102 289.774 331.199 305.332 357.284 327.464C366.02 311.696 370.957 294.241 370.957 275.909C370.957 202.792 293.91 135.653 198.931 135.653C104.017 135.653 26.9219 202.811 26.9219 275.909C26.9219 294.241 31.6873 311.753 40.4804 327.464C66.6418 305.332 127.758 289.774 198.931 289.774Z" fill="#6DCFF6"/>
<path d="M198.936 290.229C270.012 290.229 331.033 305.673 357.078 327.661C365.797 312.008 370.734 294.669 370.734 276.451C370.734 203.842 293.791 137.089 198.936 137.089C104.147 137.089 27.166 203.861 27.166 276.451C27.166 294.669 31.923 312.056 40.7055 327.661C66.8204 305.673 127.858 290.229 198.936 290.229Z" fill="#73D1F6"/>
<path d="M198.954 290.679C269.935 290.679 330.869 306.028 356.886 327.874C365.595 312.314 370.513 295.091 370.513 276.995C370.513 204.886 293.675 138.55 198.954 138.55C104.3 138.55 27.4141 204.905 27.4141 276.995C27.4141 295.091 32.1605 312.373 40.9346 327.874C67.0199 306.028 127.981 290.679 198.954 290.679Z" fill="#7AD2F7"/>
<path d="M198.936 291.128C269.821 291.128 330.669 306.38 356.657 328.064C365.346 312.62 370.255 295.509 370.255 277.54C370.255 205.936 293.532 139.987 198.936 139.987C104.404 139.987 27.6348 205.955 27.6348 277.54C27.6348 295.509 32.3812 312.666 41.1362 328.064C67.1834 306.38 128.058 291.128 198.936 291.128Z" fill="#81D4F7"/>
<path d="M198.947 291.586C269.736 291.586 330.499 306.724 356.459 328.263C365.127 312.914 370.037 295.931 370.037 278.093C370.037 206.968 293.409 141.425 198.947 141.425C104.551 141.425 27.877 206.998 27.877 278.093C27.877 295.931 32.6213 312.963 41.3678 328.263C67.377 306.724 128.167 291.586 198.947 291.586Z" fill="#88D6F8"/>
<path d="M198.938 292.033C269.631 292.033 330.307 307.066 356.238 328.472C364.89 313.229 369.788 296.349 369.788 278.638C369.788 208.029 293.266 142.883 198.938 142.883C104.667 142.883 28.0957 208.048 28.0957 278.638C28.0957 296.349 32.8337 313.267 41.5697 328.472C67.5493 307.066 128.253 292.033 198.938 292.033Z" fill="#8FD8F8"/>
<path d="M198.957 292.482C269.555 292.482 330.145 307.419 356.048 328.672C364.679 313.525 369.569 296.781 369.569 279.192C369.569 209.072 293.163 144.343 198.957 144.343C104.819 144.343 28.3457 209.091 28.3457 279.192C28.3457 296.781 33.0921 313.574 41.8091 328.672C67.7506 307.419 128.378 292.482 198.957 292.482Z" fill="#95DAF8"/>
<path d="M198.94 292.929C269.443 292.929 329.937 307.761 355.822 328.871C364.433 313.837 369.312 297.187 369.312 279.734C369.312 210.113 293.01 145.779 198.94 145.779C104.926 145.779 28.5586 210.141 28.5586 279.734C28.5586 297.187 33.286 313.866 42.0114 328.871C67.9043 307.761 128.447 292.929 198.94 292.929Z" fill="#9ADCF9"/>
<path d="M198.951 293.381C269.359 293.381 329.775 308.107 355.63 329.063C364.213 314.145 369.093 297.62 369.093 280.281C369.093 211.146 292.896 147.218 198.951 147.218C105.071 147.218 28.8086 211.184 28.8086 280.281C28.8086 297.62 33.536 314.183 42.2424 329.063C68.0972 308.107 128.553 293.381 198.951 293.381Z" fill="#A1DEF9"/>
<path d="M198.939 293.836C269.252 293.836 329.581 308.448 355.398 329.26C363.973 314.44 368.842 298.037 368.842 280.823C368.842 212.206 292.751 148.676 198.939 148.676C105.184 148.676 29.0273 212.234 29.0273 280.823C29.0273 298.037 33.7548 314.478 42.4421 329.26C68.2589 308.448 128.637 293.836 198.939 293.836Z" fill="#A7DFF9"/>
<path d="M198.944 294.295C269.16 294.295 329.405 308.8 355.194 329.469C363.748 314.743 368.609 298.466 368.609 281.377C368.609 213.246 292.623 150.113 198.944 150.113C105.324 150.113 29.2715 213.275 29.2715 281.377C29.2715 298.466 33.9883 314.781 42.6587 329.469C68.4459 308.8 128.748 294.295 198.944 294.295Z" fill="#ADE1FA"/>
<path d="M198.962 294.744C269.082 294.744 329.24 309.154 355 329.668C363.535 315.057 368.396 298.896 368.396 281.921C368.396 214.289 292.516 151.572 198.962 151.572C105.467 151.572 29.5195 214.327 29.5195 281.921C29.5195 298.896 34.2258 315.076 42.8962 329.668C68.6454 309.154 128.861 294.744 198.962 294.744Z" fill="#B2E3FA"/>
<path d="M198.944 295.191C268.969 295.191 329.051 309.488 354.773 329.86C363.297 315.353 368.139 299.306 368.139 282.466C368.139 215.331 292.365 153.01 198.944 153.01C105.582 153.01 29.7402 215.369 29.7402 282.466C29.7402 299.306 34.4465 315.372 43.0979 329.86C68.7984 309.488 128.94 295.191 198.944 295.191Z" fill="#B9E5FB"/>
<path d="M198.958 295.641C268.896 295.641 328.883 309.832 354.586 330.069C363.072 315.669 367.914 299.737 367.914 283.03C367.914 216.383 292.254 154.449 198.958 154.449C105.729 154.449 29.9824 216.421 29.9824 283.03C29.9824 299.737 34.6908 315.688 43.3317 330.069C68.9941 309.832 129.049 295.641 198.958 295.641Z" fill="#BEE7FB"/>
<path d="M198.937 296.098C268.781 296.098 328.681 310.183 354.346 330.268C362.822 315.972 367.665 300.155 367.665 283.563C367.665 217.424 292.099 155.906 198.937 155.906C105.833 155.906 30.2012 217.462 30.2012 283.563C30.2012 300.155 34.8905 315.991 43.5313 330.268C69.1557 310.183 129.124 296.098 198.937 296.098Z" fill="#C3E9FB"/>
<path d="M198.951 296.547C268.697 296.547 328.513 310.537 354.148 330.468C362.615 316.277 367.438 300.575 367.438 284.107C367.438 218.475 291.979 157.345 198.951 157.345C105.972 157.345 30.4453 218.513 30.4453 284.107C30.4453 300.575 35.1347 316.288 43.7544 330.468C69.3513 310.537 129.232 296.547 198.951 296.547Z" fill="#CAEBFC"/>
<path d="M198.942 296.995C268.584 296.995 328.322 310.869 353.927 330.677C362.377 316.573 367.189 300.995 367.189 284.669C367.189 219.517 291.845 158.803 198.942 158.803C106.095 158.803 30.6641 219.555 30.6641 284.669C30.6641 300.995 35.3534 316.592 43.9646 330.677C69.5235 310.869 129.329 296.995 198.942 296.995Z" fill="#CFEDFC"/>
<path d="M198.961 297.453C268.509 297.453 328.151 311.221 353.737 330.866C362.158 316.877 366.97 301.424 366.97 285.214C366.97 220.557 291.721 160.24 198.961 160.24C106.24 160.24 30.9141 220.606 30.9141 285.214C30.9141 301.424 35.6034 316.887 44.1956 330.866C69.7164 311.221 129.435 297.453 198.961 297.453Z" fill="#D5EFFC"/>
<path d="M198.935 297.902C268.385 297.902 327.951 311.566 353.5 331.076C361.91 317.183 366.714 301.845 366.714 285.749C366.714 221.599 291.58 161.699 198.935 161.699C106.347 161.699 31.127 221.648 31.127 285.749C31.127 301.845 35.8057 317.192 44.4001 331.076C69.8722 311.566 129.514 297.902 198.935 297.902Z" fill="#DBF1FD"/>
<path d="M198.955 298.351C268.31 298.351 327.789 311.909 353.31 331.267C361.701 317.489 366.494 302.264 366.494 286.304C366.494 222.651 291.467 163.116 198.955 163.116C106.491 163.116 31.377 222.7 31.377 286.304C31.377 302.264 36.0558 317.508 44.6311 331.267C70.0631 311.909 129.629 298.351 198.955 298.351Z" fill="#E0F3FD"/>
<path d="M198.968 298.8C268.228 298.8 327.62 312.253 353.112 331.467C361.484 317.784 366.268 302.686 366.268 286.859C366.268 223.694 291.344 164.597 198.968 164.597C106.639 164.597 31.6289 223.743 31.6289 286.859C31.6289 302.686 36.2992 317.803 44.8639 331.467C70.2579 312.253 129.737 298.8 198.968 298.8Z" fill="#E6F6FD"/>
<path d="M198.938 299.258C268.102 299.258 327.409 312.616 352.872 331.677C361.226 318.108 366 303.104 366 287.401C366 224.736 291.192 166.034 198.938 166.034C106.734 166.034 31.8379 224.793 31.8379 287.401C31.8379 303.104 36.4892 318.108 45.0434 331.677C70.4098 312.616 129.805 299.258 198.938 299.258Z" fill="#EBF7FE"/>
<path d="M198.972 299.706C268.039 299.706 327.259 312.958 352.693 331.865C361.019 318.402 365.803 303.533 365.803 287.944C365.803 225.776 291.08 167.472 198.972 167.472C106.891 167.472 32.0918 225.835 32.0918 287.944C32.0918 303.533 36.741 318.402 45.2867 331.865C70.6151 312.958 129.932 299.706 198.972 299.706Z" fill="#F0F9FE"/>
<path d="M198.952 300.162C267.922 300.162 327.057 313.3 352.463 332.074C360.779 318.708 365.544 303.953 365.544 288.498C365.544 226.828 290.935 168.909 198.952 168.909C107.004 168.909 32.3105 226.885 32.3105 288.498C32.3105 303.953 36.9618 318.708 45.4864 332.074C70.7767 313.3 130.007 300.162 198.952 300.162Z" fill="#F7FCFE"/>
<path d="M198.965 300.613C267.84 300.613 326.889 313.645 352.266 332.276C360.562 319.013 365.317 304.383 365.317 289.044C365.317 227.871 290.824 170.368 198.965 170.368C107.142 170.368 32.5547 227.928 32.5547 289.044C32.5547 304.383 37.2039 319.013 45.72 332.276C70.9723 313.645 130.118 300.613 198.965 300.613Z" fill="white"/>
<path d="M198.94 244.731C138.714 244.731 82.757 254.989 36.5781 272.146C64.2977 334.362 126.515 377.631 198.94 377.631C271.329 377.631 333.612 334.256 361.342 272.146C315.144 254.989 259.185 244.731 198.94 244.731Z" fill="#0083CA"/>
</svg>
