<svg width="20" height="20" viewBox="0 0 20 20" fill="none" xmlns="http://www.w3.org/2000/svg">
<path fill-rule="evenodd" clip-rule="evenodd" d="M10 5.19531C10.2373 5.19531 10.4297 5.38769 10.4297 5.625V14.375C10.4297 14.6123 10.2373 14.8047 10 14.8047C9.76269 14.8047 9.57031 14.6123 9.57031 14.375V5.625C9.57031 5.38769 9.76269 5.19531 10 5.19531Z" fill="#2E3A5B"/>
<path fill-rule="evenodd" clip-rule="evenodd" d="M5.19531 10C5.19531 9.76269 5.38769 9.57031 5.625 9.57031H14.375C14.6123 9.57031 14.8047 9.76269 14.8047 10C14.8047 10.2373 14.6123 10.4297 14.375 10.4297H5.625C5.38769 10.4297 5.19531 10.2373 5.19531 10Z" fill="#2E3A5B"/>
<path fill-rule="evenodd" clip-rule="evenodd" d="M10 1.36719C5.23223 1.36719 1.36719 5.23223 1.36719 10C1.36719 14.7678 5.23223 18.6328 10 18.6328C14.7678 18.6328 18.6328 14.7678 18.6328 10C18.6328 5.23223 14.7678 1.36719 10 1.36719ZM0.507812 10C0.507812 4.75761 4.75761 0.507812 10 0.507812C15.2424 0.507812 19.4922 4.75761 19.4922 10C19.4922 15.2424 15.2424 19.4922 10 19.4922C4.75761 19.4922 0.507812 15.2424 0.507812 10Z" fill="#2E3A5B"/>
</svg>
