<svg width="300" height="382" viewBox="0 0 300 382" fill="none" xmlns="http://www.w3.org/2000/svg">
<g clip-path="url(#clip0_3503_7672)">
<path d="M567.606 0.725586L32.2458 0.725586C13.6745 0.725586 -1.38049 16.1118 -1.38049 35.0916L-1.38049 348.014C-1.38049 366.994 13.6745 382.38 32.2458 382.38L567.606 382.38C586.177 382.38 601.232 366.994 601.232 348.014V35.0916C601.232 16.1118 586.177 0.725586 567.606 0.725586Z" fill="#F4E8AC"/>
<path d="M129.4 90.4599L39.8032 90.4599C38.37 90.4599 36.9955 89.8815 35.982 88.852C34.9686 87.8225 34.3993 86.4261 34.3993 84.9702C34.3993 83.5142 34.9686 82.1179 35.982 81.0884C36.9955 80.0588 38.37 79.4805 39.8032 79.4805L129.4 79.4805C130.833 79.4805 132.208 80.0588 133.221 81.0884C134.235 82.1179 134.804 83.5142 134.804 84.9702C134.804 86.4261 134.235 87.8225 133.221 88.852C132.208 89.8815 130.833 90.4599 129.4 90.4599Z" fill="#E2D390"/>
<path d="M129.4 175.272L39.8032 175.272C38.37 175.272 36.9955 174.694 35.982 173.664C34.9686 172.634 34.3993 171.238 34.3993 169.782C34.3993 168.326 34.9686 166.93 35.982 165.9C36.9955 164.871 38.37 164.292 39.8032 164.292L129.4 164.292C130.833 164.292 132.208 164.871 133.221 165.9C134.235 166.93 134.804 168.326 134.804 169.782C134.804 171.238 134.235 172.634 133.221 173.664C132.208 174.694 130.833 175.272 129.4 175.272Z" fill="#E2D390"/>
<path d="M129.4 260.084H39.8032C38.37 260.084 36.9955 259.506 35.982 258.476C34.9686 257.447 34.3993 256.051 34.3993 254.595C34.3993 253.139 34.9686 251.742 35.982 250.713C36.9955 249.683 38.37 249.105 39.8032 249.105L129.4 249.105C130.833 249.105 132.208 249.683 133.221 250.713C134.235 251.742 134.804 253.139 134.804 254.595C134.804 256.051 134.235 257.447 133.221 258.476C132.208 259.506 130.833 260.084 129.4 260.084Z" fill="#E2D390"/>
<rect x="34.3993" y="109.771" width="238.534" height="16.0195" rx="8.00973" fill="white"/>
<rect x="34.3993" y="194.583" width="238.534" height="16.0195" rx="8.00973" fill="white"/>
<rect x="34.3993" y="279.395" width="238.534" height="16.0195" rx="8.00973" fill="white"/>
</g>
<defs>
<clipPath id="clip0_3503_7672">
<rect width="300" height="382" fill="white"/>
</clipPath>
</defs>
</svg>
