<svg width="291" height="203" viewBox="0 0 291 203" fill="none" xmlns="http://www.w3.org/2000/svg">
<g clip-path="url(#clip0_3503_7609)">
<rect width="291" height="202.52" rx="11.7973" fill="#F4F8F7"/>
<rect x="27" y="25" width="235.946" height="149.381" rx="4.51974" fill="#F4E8AC"/>
<circle cx="144.469" cy="99.2121" r="32.9216" fill="#F6EBAD"/>
<circle cx="144.864" cy="99.6061" r="27.9523" fill="#EADA95"/>
<g clip-path="url(#clip1_3503_7609)">
<path d="M160.584 116.682L156.021 116.143L157.909 114.587L162.473 115.126L160.584 116.682Z" fill="#F6EBAD"/>
<path d="M155.759 110.834L155.421 115.417L157.31 113.861L157.648 109.277L155.759 110.834Z" fill="#F6EBAD"/>
<path d="M163.959 113.01L159.381 113.433L160.907 111.519L165.48 111.096L163.959 113.01Z" fill="#F6EBAD"/>
<path d="M158.018 108.296L158.643 112.844L160.164 110.93L159.544 106.377L158.018 108.296Z" fill="#F6EBAD"/>
<path d="M166.491 108.719L162.104 110.084L163.197 107.893L167.584 106.528L166.491 108.719Z" fill="#F6EBAD"/>
<path d="M159.708 105.339L161.259 109.66L162.352 107.469L160.796 103.148L159.708 105.339Z" fill="#F6EBAD"/>
<path d="M168.079 103.994L164.07 106.241L164.684 103.868L168.693 101.622L168.079 103.994Z" fill="#F6EBAD"/>
<path d="M160.74 102.095L163.158 106.004L163.772 103.632L161.35 99.728L160.74 102.095Z" fill="#F6EBAD"/>
<path d="M168.65 99.038L165.195 102.07L165.301 99.6273L168.756 96.5952L168.65 99.038Z" fill="#F6EBAD"/>
<path d="M161.078 98.7104L164.256 102.03L164.362 99.5818L161.184 96.2676L161.078 98.7104Z" fill="#F6EBAD"/>
<path d="M168.179 94.0767L165.429 97.7585L165.026 95.3459L167.776 91.6641L168.179 94.0767Z" fill="#F6EBAD"/>
<path d="M160.698 95.3311L164.501 97.9149L164.093 95.5023L160.295 92.9185L160.698 95.3311Z" fill="#F6EBAD"/>
<path d="M166.683 89.3171L164.764 93.4926L163.863 91.216L165.787 87.0405L166.683 89.3171Z" fill="#F6EBAD"/>
<path d="M159.632 92.0979L163.883 93.8356L162.987 91.559L158.736 89.8213L159.632 92.0979Z" fill="#F6EBAD"/>
<path d="M164.235 84.9754L163.223 89.4581L161.873 87.4182L162.885 82.9355L164.235 84.9754Z" fill="#F6EBAD"/>
<path d="M157.916 89.1615L162.439 89.9774L161.089 87.9375L156.566 87.1216L157.916 89.1615Z" fill="#F6EBAD"/>
<path d="M160.936 81.2384L160.875 85.8319L159.128 84.1194L159.188 79.5259L160.936 81.2384Z" fill="#F6EBAD"/>
<path d="M155.624 86.6476L160.217 86.5066L158.47 84.7891L153.881 84.9301L155.624 86.6476Z" fill="#F6EBAD"/>
<path d="M155.416 116.314C152.591 118.097 149.37 119.156 146.038 119.397L146.002 118.39C149.241 118.392 152.431 117.598 155.29 116.078L155.416 116.314Z" fill="#F6EBAD"/>
<path d="M158.343 80.1101L158.297 83.4293L157.038 82.1903L157.079 78.8711L158.343 80.1101Z" fill="#F6EBAD"/>
<path d="M154.499 84.0185L157.824 83.9177L156.559 82.6787L153.24 82.7794L154.499 84.0185Z" fill="#F6EBAD"/>
<path d="M128.663 116.622L133.226 116.083L131.337 114.526L126.774 115.065L128.663 116.622Z" fill="#F6EBAD"/>
<path d="M133.48 110.774L133.823 115.352L131.934 113.796L131.597 109.217L133.48 110.774Z" fill="#F6EBAD"/>
<path d="M125.287 112.95L129.861 113.373L128.34 111.454L123.766 111.036L125.287 112.95Z" fill="#F6EBAD"/>
<path d="M131.222 108.23L130.602 112.783L129.081 110.869L129.701 106.316L131.222 108.23Z" fill="#F6EBAD"/>
<path d="M122.751 108.658L127.138 110.018L126.045 107.827L121.658 106.467L122.751 108.658Z" fill="#F6EBAD"/>
<path d="M129.536 105.274L127.98 109.601L126.892 107.41L128.443 103.083L129.536 105.274Z" fill="#F6EBAD"/>
<path d="M121.162 103.929L125.171 106.175L124.561 103.808L120.552 101.562L121.162 103.929Z" fill="#F6EBAD"/>
<path d="M128.503 102.035L126.081 105.938L125.471 103.571L127.889 99.6626L128.503 102.035Z" fill="#F6EBAD"/>
<path d="M120.592 98.9776L124.047 102.005L123.942 99.5619L120.486 96.5298L120.592 98.9776Z" fill="#F6EBAD"/>
<path d="M128.168 98.6505L124.989 101.965L124.884 99.5219L128.062 96.2026L128.168 98.6505Z" fill="#F6EBAD"/>
<path d="M121.067 94.0112L123.812 97.6931L124.22 95.2805L121.469 91.5986L121.067 94.0112Z" fill="#F6EBAD"/>
<path d="M128.539 95.2656L124.742 97.8495L125.145 95.4369L128.947 92.853L128.539 95.2656Z" fill="#F6EBAD"/>
<path d="M122.557 89.2566L124.481 93.427L125.377 91.1504L123.453 86.98L122.557 89.2566Z" fill="#F6EBAD"/>
<path d="M129.612 92.0374L125.356 93.775L126.252 91.4984L130.509 89.7607L129.612 92.0374Z" fill="#F6EBAD"/>
<path d="M125.01 84.9154L126.022 89.393L127.372 87.3532L126.36 82.8755L125.01 84.9154Z" fill="#F6EBAD"/>
<path d="M131.33 89.1004L126.807 89.9164L128.157 87.8765L132.68 87.0605L131.33 89.1004Z" fill="#F6EBAD"/>
<path d="M128.309 81.1729L128.365 85.7665L130.113 84.054L130.052 79.4604L128.309 81.1729Z" fill="#F6EBAD"/>
<path d="M133.616 86.582L129.028 86.441L130.77 84.7285L135.364 84.8695L133.616 86.582Z" fill="#F6EBAD"/>
<path d="M134.269 116.078C137.129 117.597 140.318 118.391 143.557 118.39L143.521 119.397C140.19 119.154 136.969 118.096 134.143 116.314L134.269 116.078Z" fill="#F6EBAD"/>
<path d="M130.901 80.0447L130.942 83.369L132.206 82.1299L132.16 78.8057L130.901 80.0447Z" fill="#F6EBAD"/>
<path d="M134.739 83.9581L131.42 83.8523L132.684 82.6133L136.003 82.714L134.739 83.9581Z" fill="#F6EBAD"/>
<path d="M144.915 87.3677L147.459 95.1984H155.693L149.031 100.038L151.576 107.869L144.915 103.029L138.253 107.869L140.798 100.038L134.137 95.1984H142.37L144.915 87.3677Z" fill="#F6EBAD"/>
</g>
<circle cx="228.075" cy="144.746" r="18.9237" fill="white" stroke="#EB2227" stroke-width="3.52592"/>
<circle cx="228.075" cy="144.746" r="12.6878" fill="#EB2227"/>
<rect x="214.482" y="42.0215" width="34.2807" height="34.2807" fill="white"/>
<path d="M71.5271 45.7469H41.1262C40.6399 45.7469 40.1735 45.5506 39.8296 45.2013C39.4858 44.852 39.2926 44.3782 39.2926 43.8842C39.2926 43.3902 39.4858 42.9164 39.8296 42.5671C40.1735 42.2177 40.6399 42.0215 41.1262 42.0215H71.5271C72.0134 42.0215 72.4798 42.2177 72.8237 42.5671C73.1676 42.9164 73.3607 43.3902 73.3607 43.8842C73.3607 44.3782 73.1676 44.852 72.8237 45.2013C72.4798 45.5506 72.0134 45.7469 71.5271 45.7469Z" fill="#E2D390"/>
<path d="M71.5271 74.5247H41.1262C40.6399 74.5247 40.1735 74.3285 39.8296 73.9791C39.4858 73.6298 39.2926 73.156 39.2926 72.662C39.2926 72.168 39.4858 71.6942 39.8296 71.3449C40.1735 70.9956 40.6399 70.7993 41.1262 70.7993H71.5271C72.0134 70.7993 72.4798 70.9956 72.8237 71.3449C73.1676 71.6942 73.3607 72.168 73.3607 72.662C73.3607 73.156 73.1676 73.6298 72.8237 73.9791C72.4798 74.3285 72.0134 74.5247 71.5271 74.5247Z" fill="#E2D390"/>
<path d="M71.5271 103.302H41.1262C40.6399 103.302 40.1735 103.106 39.8296 102.756C39.4858 102.407 39.2926 101.933 39.2926 101.439C39.2926 100.945 39.4858 100.472 39.8296 100.122C40.1735 99.7729 40.6399 99.5767 41.1262 99.5767H71.5271C72.0134 99.5767 72.4798 99.7729 72.8237 100.122C73.1676 100.472 73.3607 100.945 73.3607 101.439C73.3607 101.933 73.1676 102.407 72.8237 102.756C72.4798 103.106 72.0134 103.302 71.5271 103.302Z" fill="#E2D390"/>
<path d="M71.5271 132.039H41.1262C40.6399 132.039 40.1735 131.843 39.8296 131.494C39.4858 131.144 39.2926 130.671 39.2926 130.177C39.2926 129.683 39.4858 129.209 39.8296 128.86C40.1735 128.51 40.6399 128.314 41.1262 128.314H71.5271C72.0134 128.314 72.4798 128.51 72.8237 128.86C73.1676 129.209 73.3607 129.683 73.3607 130.177C73.3607 130.671 73.1676 131.144 72.8237 131.494C72.4798 131.843 72.0134 132.039 71.5271 132.039Z" fill="#E2D390"/>
<rect x="39.2926" y="52.2993" width="80.9365" height="5.91047" rx="2.95524" fill="white"/>
<rect x="39.2926" y="81.0776" width="80.9365" height="5.91047" rx="2.95524" fill="white"/>
<rect x="39.2926" y="109.854" width="80.9365" height="5.91047" rx="2.95524" fill="white"/>
<rect x="39.2926" y="138.592" width="80.9365" height="5.91047" rx="2.95524" fill="white"/>
<g clip-path="url(#clip2_3503_7609)">
<path d="M226.612 54.1528H219.098V46.6392H226.612V54.1528Z" stroke="black" stroke-width="1.12879" stroke-linecap="round" stroke-linejoin="round"/>
<path d="M224.106 49.1445H221.602V51.6491H224.106V49.1445Z" stroke="black" stroke-width="1.12879" stroke-linecap="round" stroke-linejoin="round"/>
<path d="M226.612 71.6851H219.098V64.1714H226.612V71.6851Z" stroke="black" stroke-width="1.12879" stroke-linecap="round" stroke-linejoin="round"/>
<path d="M224.106 66.6763H221.602V69.1808H224.106V66.6763Z" stroke="black" stroke-width="1.12879" stroke-linecap="round" stroke-linejoin="round"/>
<path d="M244.143 54.1528H236.63V46.6392H244.143V54.1528Z" stroke="black" stroke-width="1.12879" stroke-linecap="round" stroke-linejoin="round"/>
<path d="M241.637 49.1445H239.133V51.6491H241.637V49.1445Z" stroke="black" stroke-width="1.12879" stroke-linecap="round" stroke-linejoin="round"/>
<path d="M244.146 71.2679H234.962V70.0156" stroke="black" stroke-width="1.12879" stroke-linecap="round" stroke-linejoin="round"/>
<path d="M232.457 71.2677H230.787V67.5109H229.117V64.5889" stroke="black" stroke-width="1.12879" stroke-linecap="round" stroke-linejoin="round"/>
<path d="M229.117 70.4331H230.787" stroke="black" stroke-width="1.12879" stroke-linecap="round" stroke-linejoin="round"/>
<path d="M234.124 46.6392V49.1437H231.62V46.6392H229.115V51.6483H231.62V56.24H227.028" stroke="black" stroke-width="1.12879" stroke-linecap="round" stroke-linejoin="round"/>
<path d="M229.117 53.7363H231.622" stroke="black" stroke-width="1.12879" stroke-linecap="round" stroke-linejoin="round"/>
<path d="M219.098 56.6582H221.185V58.3279H225.36V62.0848H228.699" stroke="black" stroke-width="1.12879" stroke-linecap="round" stroke-linejoin="round"/>
<path d="M223.273 60.8325H225.36" stroke="black" stroke-width="1.12879" stroke-linecap="round" stroke-linejoin="round"/>
<path d="M223.691 56.6582V58.3279" stroke="black" stroke-width="1.12879" stroke-linecap="round" stroke-linejoin="round"/>
<path d="M227.866 59.9974V58.7451H231.205V63.3368H233.292V67.9285H238.301" stroke="black" stroke-width="1.12879" stroke-linecap="round" stroke-linejoin="round"/>
<path d="M235.795 66.2588V67.9285" stroke="black" stroke-width="1.12879" stroke-linecap="round" stroke-linejoin="round"/>
<path d="M235.795 61.2495V63.7541H238.3V61.2495H244.144" stroke="black" stroke-width="1.12879" stroke-linecap="round" stroke-linejoin="round"/>
<path d="M244.142 59.9976V66.259H242.055V68.7635H244.142" stroke="black" stroke-width="1.12879" stroke-linecap="round" stroke-linejoin="round"/>
<path d="M234.125 55.4058V58.7452H240.387" stroke="black" stroke-width="1.12879" stroke-linecap="round" stroke-linejoin="round"/>
<path d="M236.63 56.6582H240.386" stroke="black" stroke-width="1.12879" stroke-linecap="round" stroke-linejoin="round"/>
<path d="M237.881 56.6582V58.7453" stroke="black" stroke-width="1.12879" stroke-linecap="round" stroke-linejoin="round"/>
<path d="M238.717 56.6582V58.7453" stroke="black" stroke-width="1.12879" stroke-linecap="round" stroke-linejoin="round"/>
<path d="M241.222 63.3366V61.2495" stroke="black" stroke-width="1.12879" stroke-linecap="round" stroke-linejoin="round"/>
<path d="M219.098 61.6674V60.8325H220.768" stroke="black" stroke-width="1.12879" stroke-linecap="round" stroke-linejoin="round"/>
<path d="M244.145 57.4925V56.2402H242.892" stroke="black" stroke-width="1.12879" stroke-linecap="round" stroke-linejoin="round"/>
<path d="M238.3 69.1808V66.2588" stroke="black" stroke-width="1.12879" stroke-linecap="round" stroke-linejoin="round"/>
<path d="M229.117 47.4741H231.622" stroke="black" stroke-width="1.12879" stroke-linecap="round" stroke-linejoin="round"/>
<path d="M235.795 62.9199H238.3" stroke="black" stroke-width="1.12879" stroke-linecap="round" stroke-linejoin="round"/>
</g>
<rect opacity="0.5" x="5" y="6" width="281" height="190" fill="white"/>
<path fill-rule="evenodd" clip-rule="evenodd" d="M10.3923 14.1099C9.21925 14.1099 8.26831 15.0608 8.26831 16.2338L8.26831 34.7704C8.26831 35.9435 9.21925 36.8944 10.3923 36.8944C11.5653 36.8944 12.5163 35.9435 12.5163 34.7704L12.5163 18.3578L28.9289 18.3578C30.1019 18.3578 31.0529 17.4069 31.0529 16.2338C31.0529 15.0608 30.1019 14.1099 28.9289 14.1099L10.3923 14.1099Z" fill="#EB2227"/>
<path fill-rule="evenodd" clip-rule="evenodd" d="M279.173 186.346C280.346 186.346 281.297 185.395 281.297 184.222L281.297 165.685C281.297 164.512 280.346 163.561 279.173 163.561C278 163.561 277.049 164.512 277.049 165.685L277.049 182.098L260.636 182.098C259.463 182.098 258.512 183.049 258.512 184.222C258.512 185.395 259.463 186.346 260.636 186.346L279.173 186.346Z" fill="#EB2227"/>
<path fill-rule="evenodd" clip-rule="evenodd" d="M279.173 14.1099C280.346 14.1099 281.297 15.0608 281.297 16.2338L281.297 34.7704C281.297 35.9435 280.346 36.8944 279.173 36.8944C278 36.8944 277.049 35.9435 277.049 34.7704L277.049 18.3578L260.636 18.3578C259.463 18.3578 258.512 17.4069 258.512 16.2338C258.512 15.0608 259.463 14.1099 260.636 14.1099L279.173 14.1099Z" fill="#EB2227"/>
<path fill-rule="evenodd" clip-rule="evenodd" d="M10.3923 186.346C9.21925 186.346 8.26831 185.395 8.26831 184.222L8.26831 165.685C8.26831 164.512 9.21925 163.561 10.3923 163.561C11.5653 163.561 12.5163 164.512 12.5163 165.685L12.5163 182.098L28.9289 182.098C30.1019 182.098 31.0529 183.049 31.0529 184.222C31.0529 185.395 30.1019 186.346 28.9289 186.346L10.3923 186.346Z" fill="#EB2227"/>
</g>
<defs>
<clipPath id="clip0_3503_7609">
<rect width="291" height="203" fill="white"/>
</clipPath>
<clipPath id="clip1_3503_7609">
<rect width="48.2721" height="40.5911" fill="white" transform="translate(120.487 78.8057)"/>
</clipPath>
<clipPath id="clip2_3503_7609">
<rect width="26.7153" height="26.7153" fill="white" transform="translate(218.261 45.8052)"/>
</clipPath>
</defs>
</svg>
