<svg width="291" height="203" viewBox="0 0 291 203" fill="none" xmlns="http://www.w3.org/2000/svg">
<g clip-path="url(#clip0_3503_7610)">
<rect width="291" height="202.52" rx="11.7973" fill="#F4F4F4"/>
<path d="M252.135 24L43.1279 24C35.8776 24 30 30.0068 30 37.4167L30 159.583C30 166.993 35.8776 173 43.1279 173L252.135 173C259.386 173 265.263 166.993 265.263 159.583V37.4167C265.263 30.0068 259.386 24 252.135 24Z" fill="#F4E8AC"/>
<line x1="149.843" y1="24" x2="149.843" y2="173" stroke="#E2D390" stroke-width="4.42188"/>
<rect x="165.031" y="106.778" width="93.125" height="54.3968" rx="6" fill="white"/>
<path d="M81.0576 59.0325L46.0785 59.0325C45.5189 59.0325 44.9823 58.8067 44.5867 58.4048C44.191 58.0028 43.9688 57.4577 43.9688 56.8893C43.9688 56.3209 44.191 55.7758 44.5867 55.3738C44.9823 54.9719 45.5189 54.7461 46.0785 54.7461L81.0576 54.7461C81.6171 54.7461 82.1537 54.9719 82.5494 55.3738C82.945 55.7758 83.1673 56.3209 83.1673 56.8893C83.1673 57.4577 82.945 58.0028 82.5494 58.4048C82.1537 58.8067 81.6171 59.0325 81.0576 59.0325Z" fill="#E2D390"/>
<path d="M202.12 59.0325L167.141 59.0325C166.581 59.0325 166.045 58.8067 165.649 58.4048C165.254 58.0028 165.031 57.4577 165.031 56.8893C165.031 56.3209 165.254 55.7758 165.649 55.3738C166.045 54.9719 166.581 54.7461 167.141 54.7461L202.12 54.7461C202.68 54.7461 203.216 54.9719 203.612 55.3738C204.008 55.7758 204.23 56.3209 204.23 56.8893C204.23 57.4577 204.008 58.0028 203.612 58.4048C203.216 58.8067 202.68 59.0325 202.12 59.0325Z" fill="#E2D390"/>
<path d="M81.0576 92.1433H46.0785C45.5189 92.1433 44.9823 91.9175 44.5867 91.5156C44.191 91.1137 43.9688 90.5686 43.9688 90.0001C43.9688 89.4317 44.191 88.8866 44.5867 88.4847C44.9823 88.0827 45.5189 87.8569 46.0785 87.8569H81.0576C81.6171 87.8569 82.1537 88.0827 82.5494 88.4847C82.945 88.8866 83.1673 89.4317 83.1673 90.0001C83.1673 90.5686 82.945 91.1137 82.5494 91.5156C82.1537 91.9175 81.6171 92.1433 81.0576 92.1433Z" fill="#E2D390"/>
<path d="M81.0576 125.255H46.0785C45.5189 125.255 44.9823 125.029 44.5867 124.627C44.191 124.225 43.9688 123.68 43.9688 123.111C43.9688 122.543 44.191 121.998 44.5867 121.596C44.9823 121.194 45.5189 120.968 46.0785 120.968H81.0576C81.6171 120.968 82.1537 121.194 82.5494 121.596C82.945 121.998 83.1673 122.543 83.1673 123.111C83.1673 123.68 82.945 124.225 82.5494 124.627C82.1537 125.029 81.6171 125.255 81.0576 125.255Z" fill="#E2D390"/>
<rect x="43.9688" y="66.5713" width="93.125" height="6.25408" rx="3.12704" fill="white"/>
<rect x="165.031" y="66.5713" width="93.125" height="6.25408" rx="3.12704" fill="white"/>
<rect x="43.9688" y="99.6826" width="93.125" height="6.25408" rx="3.12704" fill="white"/>
<rect x="43.9688" y="132.793" width="93.125" height="6.25408" rx="3.12704" fill="white"/>
<path d="M253.384 88.6395C253.384 96.1869 247.266 102.305 239.718 102.305C232.171 102.305 226.053 96.1869 226.053 88.6395C226.053 81.092 232.171 74.9736 239.718 74.9736C247.266 74.9736 253.384 81.092 253.384 88.6395Z" fill="white"/>
<path fill-rule="evenodd" clip-rule="evenodd" d="M239.718 99.5967C245.77 99.5967 250.676 94.691 250.676 88.6395C250.676 82.5879 245.77 77.6822 239.718 77.6822C233.667 77.6822 228.761 82.5879 228.761 88.6395C228.761 94.691 233.667 99.5967 239.718 99.5967ZM239.718 102.305C247.266 102.305 253.384 96.1869 253.384 88.6395C253.384 81.092 247.266 74.9736 239.718 74.9736C232.171 74.9736 226.053 81.092 226.053 88.6395C226.053 96.1869 232.171 102.305 239.718 102.305Z" fill="#EB2227"/>
<path d="M248.1 88.6395C248.1 93.2686 244.348 97.0212 239.719 97.0212C235.09 97.0212 231.337 93.2686 231.337 88.6395C231.337 84.0104 235.09 80.2578 239.719 80.2578C244.348 80.2578 248.1 84.0104 248.1 88.6395Z" fill="#EB2227"/>
<path d="M213.309 146.541C193.277 146.541 177.039 145.409 177.039 144.014C177.039 142.618 193.277 141.486 213.309 141.486C233.34 141.486 249.579 142.618 249.579 144.014C249.579 145.409 233.34 146.541 213.309 146.541Z" fill="#EBF7F2"/>
<path d="M225.406 125.734H229.223C229.691 125.734 230.071 126.113 230.071 126.581V127.283C230.071 127.751 229.691 128.13 229.223 128.13H225.406C224.937 128.13 224.558 127.751 224.558 127.283V126.581C224.558 126.113 224.937 125.734 225.406 125.734Z" fill="#2E3A5B"/>
<path d="M227.142 139.669L204.705 139.684C204.705 139.684 204.763 134.181 200.181 134.06C195.598 133.939 195.849 139.433 195.849 139.433L195.864 140.317C195.864 140.317 192.635 140.01 191.7 139.531C191.489 139.077 191.331 138.601 191.229 138.112C191.095 137.399 191.191 135.921 191.191 135.921L191.954 135.332C191.954 135.332 191.654 131.926 192.147 130.69C192.147 130.69 191.68 129.376 191.802 128.571L201.515 120.066L215.458 120.223C217.327 120.262 218.282 120.682 219.956 121.514C226.213 124.623 230.007 127.356 230.007 127.356C230.007 127.356 237.046 128.61 239.5 130.499C240.483 131.436 240.999 132.067 241.366 134.539L241.422 135.515L235.635 137.379L227.142 139.669Z" fill="#4D9578"/>
<path d="M240.538 138.834L240.111 140.654C240.111 141.216 239.279 141.586 238.717 141.586L186.812 141.64L183.751 141.587C183.478 141.583 183.211 141.507 182.977 141.367C182.743 141.227 182.55 141.027 182.418 140.788L181.46 139.05C182.887 135.647 185.08 133.718 188.431 133.308L211.98 131.698L227.274 134.175L240.538 138.834Z" fill="#2E3A5B"/>
<path d="M234.842 134.853C234.604 134.86 234.368 134.89 234.137 134.943C233.843 134.875 233.542 134.845 233.241 134.853C231.003 134.912 229.229 137.017 229.277 139.553C229.325 142.09 231.178 144.099 233.416 144.039C233.656 144.033 234.709 144.047 235.015 144.039C237.253 143.98 239.027 141.876 238.979 139.339C238.931 136.802 237.079 134.794 234.842 134.853Z" fill="#2E3A5B"/>
<path d="M202.775 134.853C202.538 134.86 202.301 134.89 202.07 134.943C201.776 134.875 201.475 134.845 201.174 134.853C198.937 134.912 197.162 137.017 197.21 139.553C197.259 142.09 199.111 144.099 201.348 144.039C201.589 144.033 202.642 144.047 202.948 144.039C205.185 143.98 206.96 141.876 206.912 139.339C206.864 136.802 205.013 134.794 202.775 134.853Z" fill="#2E3A5B"/>
<path d="M221.955 135.238C221.918 135.238 221.882 135.242 221.846 135.244H220.002V135.865C218.772 136.681 217.957 138.209 217.99 139.938C218.023 141.667 218.886 143.133 220.135 143.888V144.425H221.99C222.036 144.425 222.082 144.425 222.129 144.425C224.367 144.366 226.141 142.261 226.093 139.724C226.045 137.188 224.192 135.178 221.955 135.238Z" fill="#2E3A5B"/>
<path d="M216.389 139.843C216.384 137.305 218.096 135.245 220.212 135.241C222.328 135.238 224.047 137.292 224.052 139.829C224.056 142.367 222.344 144.427 220.228 144.431C218.112 144.434 216.393 142.38 216.389 139.843Z" fill="#8592AB"/>
<path d="M220.077 142.994C218.536 142.982 217.297 141.556 217.31 139.808C217.323 138.06 218.583 136.653 220.125 136.664C221.667 136.676 222.906 138.102 222.892 139.85C222.879 141.598 221.619 143.005 220.077 142.994Z" fill="#E0D7CD"/>
<path d="M220.104 140.895C219.589 140.892 219.176 140.416 219.18 139.832C219.184 139.249 219.605 138.779 220.119 138.783C220.634 138.786 221.047 139.262 221.043 139.846C221.039 140.429 220.618 140.899 220.104 140.895Z" fill="#F7FEFB"/>
<path d="M190.344 135.238C190.307 135.238 190.27 135.242 190.234 135.244H188.391V135.865C187.16 136.681 186.346 138.209 186.379 139.938C186.411 141.667 187.274 143.133 188.524 143.888V144.425H190.378C190.424 144.425 190.471 144.425 190.518 144.425C192.755 144.366 194.53 142.261 194.482 139.724C194.434 137.188 192.581 135.178 190.344 135.238Z" fill="#2E3A5B"/>
<path d="M184.777 139.843C184.773 137.306 186.485 135.245 188.601 135.242C190.717 135.238 192.436 137.292 192.441 139.83C192.445 142.367 190.733 144.427 188.617 144.431C186.501 144.435 184.782 142.381 184.777 139.843Z" fill="#8592AB"/>
<path d="M215.126 139.043L192.865 139.1C192.865 139.1 192.022 134.641 188.634 134.689C184.692 134.748 184.455 139.056 184.455 139.056H181.456C181.456 139.056 179.924 135.242 181.276 134.174C181.276 134.174 182.353 131.925 182.828 130.688C182.828 130.688 182.376 129.374 182.495 128.569L185.82 125.963C187.232 124.057 192.75 121.264 195.04 120.887C199.853 120.094 203.778 119.574 208.601 121.99C216.048 125.721 218.47 129.777 218.47 129.777C218.47 129.777 221.409 129.567 226.043 130.5C226.991 131.437 227.131 132.541 227.349 133.539L227.329 139.07L225.538 139.065C225.323 139.064 225.115 138.992 224.946 138.859C224.777 138.727 224.657 138.541 224.605 138.333C224.268 136.954 223.145 134.646 220.646 134.573C218.263 134.506 216.352 135.211 215.874 138.401C215.846 138.579 215.756 138.742 215.618 138.86C215.481 138.978 215.306 139.043 215.126 139.043Z" fill="#217B56"/>
<path d="M182.676 131.427C182.676 131.427 226.322 130.778 226.042 130.499C221.389 129.137 217.013 127.693 217.013 127.693C217.013 127.693 212.945 123.606 207.703 121.187C204.082 119.516 197.722 119.956 193.456 120.931C190.657 121.572 187.747 123.394 186.793 124.677L182.514 128.585C182.395 129.389 182.848 130.704 182.848 130.704C182.765 130.938 182.707 131.18 182.676 131.427Z" fill="#217B56"/>
<path d="M186.854 129.874C186.854 129.874 183.301 127.538 182.547 128.658C182.459 129.027 182.447 129.41 182.513 129.783C182.579 130.157 182.721 130.513 182.931 130.829L186.967 130.809L186.854 129.874Z" fill="#F7FEFB"/>
<path d="M197.703 121.244L198.551 127.878L190.562 127.91C188.918 127.918 188.039 125.993 189.109 124.747C191.729 121.688 195.978 121.33 197.703 121.244Z" fill="#2E3A5B"/>
<path d="M198.393 121.167C198.393 121.167 204.568 120.201 208.868 122.716C211.349 124.166 213.576 125.716 215.751 127.774L199.182 127.931L198.393 121.167Z" fill="#2E3A5B"/>
<path d="M186.531 125.13L186.77 131.174L187.789 133.818H188.057L187.087 131.178L186.794 124.678L186.531 125.13Z" fill="#066132"/>
<path d="M214.729 128.742L215.497 131.427L215.391 139.026L215.755 139.034L215.903 131.391L215.153 128.763L214.729 128.742Z" fill="#066132"/>
<path d="M206.667 120.756H215.137C216.495 120.754 217.836 121.055 219.063 121.636C222.994 123.507 229.791 127.693 229.791 127.693H217.979C217.371 127.693 216.785 127.461 216.341 127.044C213.763 124.628 210.29 122.243 206.667 120.756Z" fill="#2E3A5B"/>
<path d="M240.195 139.038L226.994 139.069V132.845L241.366 134.539L241.422 136.245C241.422 137.063 241.212 139.038 240.195 139.038Z" fill="#4D9578"/>
<path d="M209.27 127.909L213.701 127.886C214.361 127.886 214.25 125.489 211.754 125.5L209.712 125.511C209.394 125.513 209.09 125.641 208.866 125.867C208.642 126.093 208.518 126.398 208.519 126.715V127.171C208.521 127.368 208.601 127.556 208.742 127.695C208.882 127.833 209.072 127.911 209.27 127.909Z" fill="#066132"/>
<path d="M182.868 130.897C182.868 130.897 182.22 130.161 182.452 128.656" stroke="#3B260D" stroke-width="1.20266" stroke-linecap="round" stroke-linejoin="round"/>
<path d="M229.095 132.317C228.308 131.463 227.305 130.836 226.191 130.503C225.757 130.374 225.325 130.251 225.001 130.171C224.036 129.941 222.611 130.021 222.611 130.021C222.611 130.021 222.8 132.869 224.525 132.844C226.251 132.82 229.575 132.838 229.575 132.838L229.095 132.317Z" fill="#F7FEFB"/>
<path d="M238.204 132.057C239.18 130.875 238.942 130.788 239.418 130.438C239.418 130.438 240.826 131.423 240.999 132.646C241.024 132.819 240.765 132.846 240.504 132.829C239.331 132.769 239.038 132.778 239.038 132.778L238.204 132.057Z" fill="#F7FEFB"/>
<path d="M228.469 130.984H239.25V131.522C239.25 131.866 239.113 132.196 238.869 132.44C238.626 132.683 238.295 132.82 237.95 132.82H229.768C229.423 132.82 229.093 132.683 228.849 132.44C228.606 132.196 228.469 131.866 228.469 131.522V130.984Z" fill="#2E3A5B"/>
<path d="M236.16 133.777H232.467C231.984 133.777 231.592 133.386 231.592 132.904V132.179C231.592 131.697 231.984 131.306 232.467 131.306H236.16C236.643 131.306 237.035 131.697 237.035 132.179V132.904C237.035 133.386 236.643 133.777 236.16 133.777Z" fill="#2E3A5B"/>
<path d="M188.581 142.992C187.039 142.98 185.8 141.554 185.813 139.806C185.827 138.058 187.087 136.651 188.628 136.662C190.17 136.674 191.409 138.1 191.396 139.848C191.383 141.596 190.123 143.003 188.581 142.992Z" fill="#E0D7CD"/>
<path d="M188.607 140.898C188.093 140.894 187.679 140.418 187.683 139.835C187.688 139.251 188.108 138.781 188.623 138.785C189.137 138.789 189.551 139.265 189.547 139.848C189.542 140.432 189.122 140.901 188.607 140.898Z" fill="#F7FEFB"/>
<path d="M200.774 139.08L198.975 131.576V128.656" stroke="#066132" stroke-width="2.7007" stroke-miterlimit="10"/>
<path d="M205.517 127.871L199.57 127.927L201.425 120.986C203.032 121 205.064 121.186 206.971 121.851L205.517 127.871Z" fill="#596481"/>
<path d="M214.845 120.756H215.137C216.495 120.754 217.837 121.055 219.064 121.636C220.177 122.169 221.52 122.88 222.873 123.633L221.892 127.693H217.98C217.371 127.693 216.786 127.461 216.342 127.044C215.517 126.273 214.652 125.544 213.751 124.862L214.845 120.756Z" fill="#596481"/>
<path d="M240.14 139.038L237.318 136.858H231.449L226.996 139.07L240.14 139.038Z" fill="#4D9578"/>
<path d="M237.358 135.588H231.594" stroke="#066132" stroke-width="2.7007" stroke-miterlimit="10"/>
<path d="M241.002 132.832C241.002 132.832 241.119 132.172 240.714 131.426C240.31 130.681 239.455 130.321 239.455 130.321" stroke="#3B260D" stroke-width="1.20266" stroke-linecap="round" stroke-linejoin="round"/>
<path d="M201.08 130.806H203.962V129.663H200.839C200.764 129.663 200.691 129.692 200.638 129.746C200.585 129.799 200.555 129.871 200.555 129.946V130.279C200.554 130.348 200.568 130.417 200.594 130.48C200.621 130.544 200.659 130.602 200.708 130.651C200.757 130.7 200.815 130.739 200.879 130.766C200.943 130.792 201.011 130.806 201.08 130.806Z" fill="#066132"/>
<path d="M190.228 130.806H193.106V129.663H189.983C189.908 129.663 189.836 129.692 189.782 129.746C189.729 129.799 189.699 129.871 189.699 129.946V130.279C189.699 130.348 189.712 130.417 189.739 130.481C189.765 130.545 189.804 130.604 189.853 130.653C189.903 130.702 189.961 130.74 190.025 130.767C190.089 130.793 190.158 130.806 190.228 130.806Z" fill="#066132"/>
<rect opacity="0.5" x="152" y="15" width="171" height="127" transform="rotate(90 152 15)" fill="white"/>
<path fill-rule="evenodd" clip-rule="evenodd" d="M143.262 21.6559C143.262 20.9706 142.707 20.415 142.021 20.415L131.192 20.415C130.507 20.415 129.951 20.9706 129.951 21.6559C129.951 22.3412 130.507 22.8967 131.192 22.8967L140.78 22.8967L140.78 32.4852C140.78 33.1705 141.336 33.726 142.021 33.726C142.707 33.726 143.262 33.1705 143.262 32.4852L143.262 21.6559Z" fill="#EB2227"/>
<path fill-rule="evenodd" clip-rule="evenodd" d="M33 178.68C33 179.365 33.5555 179.921 34.2409 179.921L45.0701 179.921C45.7554 179.921 46.311 179.365 46.311 178.68C46.311 177.995 45.7554 177.439 45.0701 177.439L35.4817 177.439L35.4817 167.851C35.4817 167.165 34.9262 166.61 34.2409 166.61C33.5556 166.61 33 167.165 33 167.851L33 178.68Z" fill="#EB2227"/>
<path fill-rule="evenodd" clip-rule="evenodd" d="M143.262 178.68C143.262 179.365 142.707 179.92 142.021 179.92H131.192C130.507 179.92 129.951 179.365 129.951 178.68C129.951 177.994 130.507 177.439 131.192 177.439H140.78V167.85C140.78 167.165 141.336 166.609 142.021 166.609C142.707 166.609 143.262 167.165 143.262 167.85V178.68Z" fill="#EB2227"/>
<path fill-rule="evenodd" clip-rule="evenodd" d="M33 21.6559C33 20.9706 33.5555 20.415 34.2409 20.415H45.0701C45.7554 20.415 46.311 20.9706 46.311 21.6559C46.311 22.3412 45.7554 22.8967 45.0701 22.8967H35.4817V32.4852C35.4817 33.1705 34.9262 33.726 34.2409 33.726C33.5555 33.726 33 33.1705 33 32.4852V21.6559Z" fill="#EB2227"/>
<path fill-rule="evenodd" clip-rule="evenodd" d="M89.6253 96.9668C86.6097 96.9668 84.1651 99.4115 84.1651 102.427C84.1651 105.443 86.6097 107.887 89.6253 107.887C92.641 107.887 95.0856 105.443 95.0856 102.427C95.0856 99.4115 92.641 96.9668 89.6253 96.9668ZM83.063 102.427C83.063 98.8028 86.0011 95.8647 89.6253 95.8647C93.2496 95.8647 96.1877 98.8028 96.1877 102.427C96.1877 106.051 93.2496 108.989 89.6253 108.989C86.0011 108.989 83.063 106.051 83.063 102.427Z" fill="#474747"/>
<path fill-rule="evenodd" clip-rule="evenodd" d="M79.4562 91.6067C79.4562 91.3024 79.7029 91.0557 80.0072 91.0557H82.8125C83.1168 91.0557 83.3635 91.3024 83.3635 91.6067C83.3635 91.911 83.1168 92.1577 82.8125 92.1577H80.0072C79.7029 92.1577 79.4562 91.911 79.4562 91.6067Z" fill="#474747"/>
<path fill-rule="evenodd" clip-rule="evenodd" d="M86.3618 89.698C86.464 89.5447 86.636 89.4526 86.8203 89.4526H92.4308C92.6151 89.4526 92.7871 89.5447 92.8893 89.698L95.1302 93.0594H98.4421C99.1197 93.0594 99.7695 93.3286 100.249 93.8077C100.728 94.2868 100.997 94.9367 100.997 95.6142V109.24C100.997 109.917 100.728 110.567 100.249 111.046C99.7695 111.526 99.1197 111.795 98.4421 111.795H79.2059C78.5284 111.795 77.8785 111.526 77.3994 111.046C76.9203 110.567 76.6511 109.917 76.6511 109.24V95.6142C76.6511 94.9367 76.9203 94.2868 77.3994 93.8077C77.8785 93.3286 78.5284 93.0594 79.2059 93.0594H84.1208L86.3618 89.698ZM79.2059 110.693H98.4421C98.8274 110.693 99.1969 110.54 99.4694 110.267C99.7418 109.995 99.8949 109.625 99.8949 109.24V95.6142C99.8949 95.2289 99.7418 94.8594 99.4694 94.587C99.1969 94.3146 98.8274 94.1615 98.4421 94.1615H94.8353C94.6511 94.1615 94.4791 94.0694 94.3769 93.9161L92.1359 90.5547H87.1152L84.8742 93.9161C84.772 94.0694 84.6 94.1615 84.4157 94.1615H79.2059C78.8206 94.1615 78.4511 94.3146 78.1787 94.587C77.9063 94.8594 77.7532 95.2289 77.7532 95.6142V109.24C77.7532 109.625 77.9063 109.995 78.1787 110.267C78.4511 110.54 78.8206 110.693 79.2059 110.693Z" fill="#474747"/>
<path fill-rule="evenodd" clip-rule="evenodd" d="M89.6254 99.3711C88.8149 99.3711 88.0377 99.6931 87.4646 100.266C86.8915 100.839 86.5696 101.616 86.5696 102.427C86.5696 102.731 86.3229 102.978 86.0186 102.978C85.7142 102.978 85.4675 102.731 85.4675 102.427C85.4675 101.324 85.9056 100.267 86.6853 99.4868C87.4651 98.7071 88.5226 98.269 89.6254 98.269C89.9297 98.269 90.1764 98.5158 90.1764 98.8201C90.1764 99.1244 89.9297 99.3711 89.6254 99.3711Z" fill="#474747"/>
<path d="M81.0091 98.4198C81.5624 98.4198 82.011 97.9712 82.011 97.4179C82.011 96.8646 81.5624 96.416 81.0091 96.416C80.4558 96.416 80.0072 96.8646 80.0072 97.4179C80.0072 97.9712 80.4558 98.4198 81.0091 98.4198Z" fill="#474747"/>
</g>
<defs>
<clipPath id="clip0_3503_7610">
<rect width="291" height="203" fill="white"/>
</clipPath>
</defs>
</svg>
