<svg width="54" height="54" viewBox="0 0 54 54" fill="none" xmlns="http://www.w3.org/2000/svg">
<g clip-path="url(#clip0_402_1067)">
<path d="M18.8799 42.1478L10.8595 46.5227C10.3889 46.7793 9.96589 47.0948 9.57233 47.4386C14.2484 51.3814 20.2848 53.76 26.88 53.76C33.4265 53.76 39.4243 51.4169 44.0873 47.5279C43.6572 47.1648 43.1906 46.8381 42.6733 46.5805L34.0849 42.2868C32.9752 41.732 32.2743 40.5979 32.2743 39.3574V35.9877C32.5157 35.7129 32.7916 35.3599 33.0867 34.943C34.2573 33.2896 35.1428 31.4709 35.7565 29.5629C36.8581 29.2231 37.6695 28.2057 37.6695 26.9966V23.3998C37.6695 22.6086 37.3176 21.9016 36.7708 21.4066V16.2071C36.7708 16.2071 37.8389 8.11572 26.881 8.11572C15.9231 8.11572 16.9912 16.2071 16.9912 16.2071V21.4066C16.4435 21.9016 16.0925 22.6086 16.0925 23.3998V26.9966C16.0925 27.944 16.5905 28.7778 17.3361 29.2596C18.2348 33.1719 20.5881 35.9877 20.5881 35.9877V39.2742C20.587 40.4711 19.9318 41.5737 18.8799 42.1478Z" fill="#EAECED"/>
<path d="M27.3395 0.00406378C12.4967 -0.249521 0.257651 11.5777 0.00406643 26.4205C-0.13997 34.8365 3.61106 42.4004 9.58349 47.4305C9.97401 47.0897 10.3929 46.7773 10.8585 46.5237L18.8789 42.1489C19.9308 41.5747 20.586 40.4722 20.586 39.2732V35.9868C20.586 35.9868 18.2318 33.1709 17.3341 29.2586C16.5895 28.7768 16.0905 27.9441 16.0905 26.9956V23.3988C16.0905 22.6076 16.4425 21.9006 16.9892 21.4056V16.2061C16.9892 16.2061 15.9211 8.11472 26.879 8.11472C37.8369 8.11472 36.7688 16.2061 36.7688 16.2061V21.4056C37.3166 21.9006 37.6675 22.6076 37.6675 23.3988V26.9956C37.6675 28.2047 36.856 29.2221 35.7545 29.5619C35.1408 31.4699 34.2553 33.2886 33.0847 34.942C32.7896 35.3589 32.5137 35.7119 32.2722 35.9868V39.3564C32.2722 40.5969 32.9732 41.732 34.0828 42.2858L42.6713 46.5795C43.1865 46.8371 43.6521 47.1627 44.0812 47.5249C49.8731 42.6946 53.615 35.4725 53.7539 27.3395C54.0095 12.4967 42.1834 0.257649 27.3395 0.00406378Z" fill="#2C3E50"/>
<circle cx="10.92" cy="42.92" r="10.92" fill="#228EEB"/>
<g clip-path="url(#clip1_402_1067)">
<path d="M15.96 38.72H14.3791L13.356 36.6645C13.2859 36.5243 13.1779 36.4064 13.0443 36.3243C12.9107 36.2422 12.7568 36.1992 12.6 36.2H9.23998C9.08388 36.2 8.93085 36.2434 8.79806 36.3254C8.66526 36.4075 8.55796 36.5249 8.48818 36.6645L7.46086 38.72H5.87998C5.43442 38.72 5.0071 38.897 4.69204 39.2121C4.37698 39.5271 4.19998 39.9545 4.19998 40.4V47.12C4.19998 47.5656 4.37698 47.9929 4.69204 48.308C5.0071 48.623 5.43442 48.8 5.87998 48.8H15.96C16.4055 48.8 16.8329 48.623 17.1479 48.308C17.463 47.9929 17.64 47.5656 17.64 47.12V40.4C17.64 39.9545 17.463 39.5271 17.1479 39.2121C16.8329 38.897 16.4055 38.72 15.96 38.72ZM10.92 46.28C10.4216 46.28 9.93436 46.1322 9.51994 45.8553C9.10553 45.5784 8.78254 45.1849 8.59181 44.7244C8.40107 44.2639 8.35117 43.7572 8.4484 43.2684C8.54564 42.7796 8.78564 42.3305 9.13807 41.9781C9.4905 41.6257 9.93952 41.3857 10.4284 41.2884C10.9172 41.1912 11.4239 41.2411 11.8843 41.4318C12.3448 41.6226 12.7384 41.9456 13.0153 42.36C13.2922 42.7744 13.44 43.2616 13.44 43.76C13.44 44.4284 13.1745 45.0693 12.7019 45.5419C12.2293 46.0145 11.5883 46.28 10.92 46.28Z" fill="white"/>
</g>
</g>
<defs>
<clipPath id="clip0_402_1067">
<rect width="53.76" height="53.76" fill="white"/>
</clipPath>
<clipPath id="clip1_402_1067">
<rect width="13.44" height="13.44" fill="white" transform="translate(4.19998 36.2)"/>
</clipPath>
</defs>
</svg>
