<svg width="212" height="192" viewBox="0 0 212 192" fill="none" xmlns="http://www.w3.org/2000/svg">
    <g clip-path="url(#clip0_1665_6629)">
        <path
            d="M146.055 1.60931C173.697 7.52068 212.936 27.7036 205.62 77.7847C197.657 132.294 111.964 122.6 107.204 144.831C107.204 144.831 98.3066 191.238 46.9228 175.692C-4.46096 160.147 -1.0435 94.4148 43.922 40.871C65.403 15.2792 109.756 -6.14466 146.055 1.60931Z"
            fill="#F4F8F7" />
        <path
            d="M9.80043 91.175C14.503 92.4578 19.3903 92.9263 24.2509 92.5603C25.3715 92.4761 26.5659 92.2595 27.6293 92.4505C28.6927 92.6415 29.6404 93.2026 30.594 93.8163C32.1313 94.8045 33.667 95.8439 35.1712 96.8728C33.5662 96.6501 31.9523 96.4892 30.3473 96.3929C28.4972 96.2816 26.1958 96.1432 24.3999 97.2849C22.8686 98.2596 21.739 100.301 22.661 102.163C23.3755 103.605 25.0512 104.604 27.6383 105.132C29.8434 105.583 32.0756 105.55 34.2882 105.636L41.2465 105.905C43.4456 105.991 45.759 105.881 47.9145 106.247C49.7962 106.548 50.804 108.479 52.1652 109.744C55.4187 112.821 59.6304 116.34 62.4462 119.637C55.4639 115.971 56.3077 114.166 47.8483 111.759C46.2148 111.248 43.5419 111.787 43.1147 113.954C42.5852 116.258 45.5589 118.704 46.8615 119.65C50.9423 122.659 58.5263 125.835 65.0529 127.036C66.0502 127.158 67.3197 126.995 68.2417 127.246C68.7862 127.397 69.0735 128.101 69.3443 128.698C69.7955 129.703 70.3355 130.673 70.856 131.611C73.0145 135.421 75.2903 139.666 75.8092 140.937C72.136 137.628 64.71 131.171 59.665 131.144C56.3017 131.329 55.9828 134.053 57.2087 136.784C58.9896 140.645 62.7636 142.694 66.8068 144.621C71.7856 146.995 76.7523 149.111 81.698 151.576C82.5148 153.026 83.3165 154.493 84.1047 155.923C84.1664 156.035 84.2668 156.121 84.3871 156.164C84.5073 156.208 84.6393 156.206 84.7583 156.159C84.8773 156.112 84.9752 156.024 85.0337 155.91C85.0922 155.796 85.1074 155.665 85.0763 155.541L84.1453 151.836C83.4789 150.806 82.9826 149.905 82.2591 149.013C82.0801 148.803 81.8574 148.541 81.8183 148.378C81.7522 148.111 81.88 147.626 81.9823 147.232C83.879 139.711 85.499 131.112 85.129 124.82C85.0433 122.413 85.0598 117.35 82.0876 117.018C79.4117 116.765 77.6383 120.863 77.3149 121.687C76.6831 123.277 76.5868 124.987 76.474 126.651C76.2364 130.199 76.1807 134.472 76.8335 138.146C74.8947 134.504 73.2235 130.834 71.047 127.305C70.6499 126.789 70.1596 126.245 69.8888 125.668C69.5789 125.067 69.7625 123.847 69.9053 122.866C70.507 117.125 69.6451 111.116 68.2372 106.003C67.4325 103.217 65.7599 97.4218 61.6731 97.1435C60.4923 97.0623 59.5793 97.4353 58.958 98.2521C56.8281 101.054 58.9129 108.489 60.9135 114.312C57.5261 111.331 54.0454 108.429 50.8355 105.237C50.0459 104.451 50.0835 103.083 50.1301 101.763C50.1301 94.7233 47.6648 87.6688 43.7885 81.8747C42.8244 80.4292 41.2134 78.0015 38.891 79.0168C36.7114 79.9659 36.4933 82.9622 36.4768 83.8587C36.4332 88.281 38.7436 92.1737 41.1517 95.7657C42.8063 98.0595 43.2139 98.956 43.2365 99.2929C43.0861 99.4028 42.0618 98.7349 41.5579 98.3513L36.3294 94.9128C33.2669 92.7769 29.6464 90.9584 27.2939 88.0674C25.8784 86.2714 25.0451 84.1565 24.1622 81.9003C23.4658 80.1269 22.7438 78.2903 21.7119 76.6493C20.4228 74.5961 18.9473 72.8888 17.3258 71.5637C15.0816 69.7316 13.1713 68.8216 11.4851 68.7825C6.04002 68.9193 10.9902 77.1426 12.6884 79.8531C9.94584 78.7932 7.16313 77.8511 4.34032 77.0268C3.1069 76.6583 1.5546 75.834 1.12742 77.0163C0.891266 78.1685 2.30217 78.6528 3.04523 78.9942L10.3795 82.4929C7.18018 82.1921 2.20891 81.4641 0.476117 83.9806C-1.67033 87.4176 3.77475 89.5069 9.80043 91.175Z"
            fill="#4D9578" />
        <path
            d="M25.3091 30.709C29.5431 33.123 34.1595 34.7937 38.9579 35.6487C40.0634 35.8457 41.2728 35.936 42.258 36.3827C43.2432 36.8294 44.0179 37.6101 44.7895 38.4419C46.0319 39.7821 47.2623 41.1705 48.4642 42.5393C46.96 41.9256 45.4408 41.369 43.9096 40.8847C42.1467 40.3161 39.9506 39.6106 37.9275 40.2695C36.2022 40.8335 34.6003 42.5257 35.032 44.5624C35.3644 46.1372 36.7392 47.521 39.1143 48.6747C41.1389 49.657 43.3079 50.1789 45.4318 50.8167L52.1073 52.7961C54.2131 53.4249 56.4859 53.8942 58.4819 54.7847C60.2297 55.5443 60.7246 57.6651 61.7294 59.228C64.1165 63.017 67.3219 67.4723 69.2292 71.3651C63.3765 66.0794 64.6415 64.5467 57.0454 60.1004C55.5894 59.1979 52.8669 59.0565 51.9147 61.0495C50.8272 63.1553 53.1 66.2584 54.1289 67.4979C57.3312 71.4297 63.8894 76.389 69.9136 79.1732C70.8476 79.5402 72.1187 79.6981 72.9505 80.1704C73.4408 80.4487 73.5431 81.2038 73.6559 81.8491C73.8469 82.9351 74.1267 84.0091 74.396 85.0485C75.5391 89.2752 76.6898 93.9516 76.8763 95.3159C74.1403 91.193 68.5523 83.096 63.6728 81.816C60.3636 81.1587 59.3829 83.7188 59.8913 86.6684C60.6569 90.8515 63.8021 93.7741 67.2392 96.6456C71.4719 100.182 75.7572 103.465 79.9388 107.084C80.369 108.692 80.7811 110.311 81.1858 111.898C81.2163 112.023 81.2917 112.132 81.3975 112.205C81.5034 112.278 81.6324 112.31 81.7601 112.294C81.8877 112.278 82.0051 112.216 82.09 112.12C82.1749 112.023 82.2214 111.899 82.2206 111.77L82.2402 107.949C81.8506 106.787 81.5949 105.789 81.1136 104.745C80.9932 104.497 80.8428 104.189 80.8458 104.022C80.8458 103.745 81.0925 103.306 81.2971 102.953C85.0018 96.1432 88.7096 88.2117 89.9144 82.0251C90.4319 79.6666 91.7044 74.7735 88.9082 73.7116C86.3782 72.8091 83.6436 76.3363 83.1201 77.0523C82.1138 78.4361 81.5949 80.0606 81.073 81.6505C79.9614 85.0274 78.8423 89.1578 78.5655 92.8731C77.5908 88.863 76.8793 84.892 75.6535 80.9331C75.3977 80.3314 75.0518 79.6876 74.939 79.0619C74.7886 78.4061 75.2699 77.2659 75.6504 76.3544C77.6525 70.9394 78.3203 64.9077 78.2256 59.6055C78.1398 56.707 77.9608 50.6768 74.0696 49.3922C72.946 49.0207 71.9637 49.1546 71.165 49.7908C68.4049 51.9764 68.5764 59.6973 69.0592 65.8327C66.5202 62.1024 63.8683 58.4277 61.5534 54.538C60.9848 53.5798 61.3654 52.2667 61.7339 50.9957C63.4787 44.1773 62.8485 36.7332 60.5306 30.157C59.956 28.5174 58.9993 25.7648 56.4964 26.1739C54.1499 26.5515 53.1872 29.3989 52.9556 30.2623C51.8139 34.5356 53.085 38.8796 54.5245 42.9589C55.5518 45.5897 55.7278 46.5599 55.6676 46.8923C55.4901 46.96 54.6673 46.0605 54.2748 45.5626L50.0721 40.9418C47.6369 38.111 44.5819 35.4501 43.0206 32.0673C42.097 29.975 41.8173 27.7127 41.5164 25.3181C41.2818 23.4273 41.0381 21.4704 40.447 19.6218C39.7084 17.3144 38.7052 15.2898 37.4627 13.6051C35.745 11.2737 34.1205 9.91842 32.499 9.45965C27.1923 8.23978 29.9419 17.4317 30.9121 20.4822C28.5235 18.7604 26.0652 17.1474 23.5372 15.6433C22.4331 14.9799 21.1305 13.7962 20.4265 14.8355C19.9121 15.8885 21.1576 16.7127 21.7923 17.2272L28.0301 22.4406C25.0067 21.3561 20.3724 19.4127 18.068 21.4193C15.1334 24.217 19.8865 27.5969 25.3091 30.709Z"
            fill="#4D9578" />
        <path
            d="M113.046 26.6348C113.212 25.2892 112.255 24.0641 110.91 23.8984C109.564 23.7327 108.339 24.6892 108.173 26.0348C108.008 27.3804 108.964 28.6055 110.31 28.7712C111.655 28.9369 112.881 27.9804 113.046 26.6348Z"
            stroke="#066132" stroke-width="0.463283" stroke-linecap="round"
            stroke-linejoin="round" />
        <path
            d="M195.478 55.0766C196.834 55.0766 197.933 53.9775 197.933 52.6218C197.933 51.266 196.834 50.167 195.478 50.167C194.123 50.167 193.024 51.266 193.024 52.6218C193.024 53.9775 194.123 55.0766 195.478 55.0766Z"
            stroke="#066132" stroke-width="0.463283" stroke-linecap="round"
            stroke-linejoin="round" />
        <path
            d="M26.094 143.478C26.4872 142.177 25.7509 140.803 24.4493 140.41C23.1478 140.017 21.774 140.753 21.3808 142.055C20.9877 143.356 21.724 144.73 23.0256 145.123C24.3271 145.516 25.7009 144.78 26.094 143.478Z"
            stroke="#066132" stroke-width="0.464601" stroke-linecap="round"
            stroke-linejoin="round" />
        <path d="M180.412 74.7976H165.61V79.7328H180.412V74.7976Z" fill="#25A67D" />
        <path d="M178.386 85.9495H163.584V90.8846H178.386V85.9495Z" fill="#CFC3B9" />
        <path
            d="M122.274 191.246C156.303 191.246 183.888 188.058 183.888 184.125C183.888 180.192 156.303 177.004 122.274 177.004C88.246 177.004 60.6606 180.192 60.6606 184.125C60.6606 188.058 88.246 191.246 122.274 191.246Z"
            fill="#E9F2EE" />
        <path
            d="M88.3119 59.2791H163.94C165.55 59.2791 167.095 59.9188 168.234 61.0576C169.372 62.1964 170.012 63.7409 170.012 65.3514V176.684C170.012 178.559 169.267 180.357 167.941 181.683C166.616 183.008 164.818 183.753 162.943 183.753H88.3119V59.2791Z"
            fill="#066132" />
        <path
            d="M75.3581 59.2791H88.318V183.752H76.22C75.2003 183.752 74.2224 183.347 73.5014 182.626C72.7804 181.905 72.3754 180.927 72.3754 179.907V62.2558C72.3754 61.8644 72.4526 61.4768 72.6025 61.1153C72.7525 60.7537 72.9723 60.4253 73.2494 60.1488C73.5264 59.8723 73.8553 59.6532 74.2171 59.5039C74.579 59.3547 74.9667 59.2783 75.3581 59.2791V59.2791Z"
            fill="#217B56" />
        <path d="M93.3984 64.5586V181.765" stroke="#217B56" stroke-width="0.570078"
            stroke-linecap="round" stroke-linejoin="round" />
        <path
            d="M147.426 123.823C157.513 113.737 157.513 97.3836 147.426 87.2971C137.34 77.2107 120.986 77.2107 110.9 87.2971C100.813 97.3836 100.813 113.737 110.9 123.823C120.986 133.91 137.34 133.91 147.426 123.823Z"
            fill="#EF4E52" />
        <path
            d="M145.355 84.925C148.202 87.1296 150.556 89.905 152.267 93.0731C153.978 96.2412 155.007 99.732 155.29 103.321C155.572 106.911 155.101 110.52 153.906 113.916C152.712 117.313 150.82 120.422 148.353 123.045C145.886 125.667 142.898 127.745 139.581 129.145C136.263 130.544 132.69 131.235 129.09 131.172C125.49 131.11 121.943 130.295 118.676 128.781C115.409 127.266 112.496 125.086 110.121 122.379"
            stroke="#401E1E" stroke-width="0.607683" stroke-linecap="round"
            stroke-linejoin="round" />
        <path
            d="M129.151 93.3621C128.105 93.3621 127.244 93.0583 126.569 92.4506C125.895 91.8429 125.557 91.0502 125.556 90.0725C125.541 89.622 125.625 89.1738 125.8 88.7584C125.975 88.3431 126.237 87.9704 126.569 87.6658C127.245 87.0431 128.106 86.7312 129.151 86.7302C130.195 86.7292 131.056 87.0411 131.732 87.6658C132.064 87.9707 132.326 88.3434 132.5 88.7587C132.675 89.1741 132.758 89.6221 132.744 90.0725C132.744 91.0512 132.407 91.8439 131.732 92.4506C131.057 93.0572 130.196 93.3611 129.151 93.3621ZM126.214 97.7151H132.036V122.568H126.214V97.7151Z"
            fill="white" />
        <path
            d="M51.9556 187.096C57.1277 187.096 61.3206 186.041 61.3206 184.74C61.3206 183.439 57.1277 182.385 51.9556 182.385C46.7835 182.385 42.5907 183.439 42.5907 184.74C42.5907 186.041 46.7835 187.096 51.9556 187.096Z"
            fill="#E9F2EE" />
        <path
            d="M50.5116 75.812L51.2486 75.8065C51.914 75.8015 52.574 75.9276 53.1907 76.1777C53.8074 76.4277 54.3688 76.7968 54.8429 77.2638C55.317 77.7308 55.6944 78.2866 55.9537 78.8995C56.213 79.5124 56.349 80.1704 56.354 80.8358L56.3743 83.5433L45.495 83.6249L45.4747 80.9175C45.4697 80.2514 45.596 79.5909 45.8466 78.9736C46.0971 78.3564 46.4668 77.7947 46.9346 77.3205C47.4024 76.8463 47.9592 76.469 48.5729 76.2102C49.1867 75.9513 49.8455 75.816 50.5116 75.812V75.812Z"
            fill="#24A37B" />
        <path d="M56.3688 83.5532L45.4955 83.6348L45.6052 98.2593L56.4785 98.1777L56.3688 83.5532Z"
            fill="white" />
        <path d="M56.4255 91.0324L45.5522 91.114L46.1608 172.194L57.0341 172.112L56.4255 91.0324Z"
            fill="#FFAC66" />
        <path fill-rule="evenodd" clip-rule="evenodd"
            d="M46.1578 172.194L50.738 184.093C50.812 184.285 50.9426 184.449 51.1123 184.565C51.282 184.68 51.4828 184.741 51.6881 184.74C51.8933 184.738 52.0933 184.674 52.2613 184.556C52.4293 184.438 52.5575 184.272 52.6288 184.08L57.0299 172.113L46.1578 172.194Z"
            fill="#E0D7CD" />
        <path fill-rule="evenodd" clip-rule="evenodd"
            d="M49.7111 181.423L51.137 185.128C51.1793 185.241 51.2551 185.339 51.3543 185.407C51.4535 185.476 51.5713 185.513 51.692 185.513C51.8128 185.513 51.9306 185.476 52.0298 185.407C52.129 185.339 52.2048 185.241 52.2471 185.128L53.6399 181.341L49.7111 181.423Z"
            fill="#4A2A1A" />
        <path d="M51.8341 171.261L51.24 91.9841" stroke="#A36027" stroke-width="0.696428"
            stroke-linecap="round" stroke-linejoin="round" />
        <path d="M88.312 90.895H72.3754V102.536H88.312V90.895Z" fill="white" />
        <path d="M88.312 108.05H72.3754V111.268H88.312V108.05Z" fill="white" />
        <path
            d="M180.907 116.29C177.182 119.521 173.974 120.311 170.159 123.469L171.072 126.177C179.676 120.984 182.655 121.514 184.805 117.82C183.288 113.53 181.931 115.738 180.907 116.29Z"
            fill="#FDEFE9" />
        <path
            d="M170.614 123.053L168.426 124.244C167.989 124.481 167.652 124.867 167.475 125.332L166.758 127.213C166.701 127.365 166.683 127.527 166.703 127.687C166.723 127.847 166.781 128 166.873 128.133C166.964 128.266 167.087 128.374 167.229 128.45C167.372 128.526 167.53 128.566 167.692 128.567L170.357 126.924C170.973 126.526 171.428 125.923 171.645 125.222L172.045 124.003L170.614 123.053Z"
            fill="#FDEFE9" />
        <path fill-rule="evenodd" clip-rule="evenodd"
            d="M192.307 107.187L184.894 121.099L174.385 125.53L171.805 121.404L180.701 115.129C180.701 115.129 181.12 112.579 182.83 104.709C183.355 102.303 184.911 100.046 188.5 100.072C193.839 100.101 192.307 107.187 192.307 107.187Z"
            fill="#BDD7CC" />
        <path
            d="M194.236 188.995C204.046 188.995 211.998 188.083 211.998 186.957C211.998 185.831 204.046 184.919 194.236 184.919C184.426 184.919 176.473 185.831 176.473 186.957C176.473 188.083 184.426 188.995 194.236 188.995Z"
            fill="#E9F2EE" />
        <path fill-rule="evenodd" clip-rule="evenodd"
            d="M188.953 184.146C188.953 184.146 194.691 165.945 191.274 158.638L195.478 134.212L183.171 133.433L186.259 184.29L188.953 184.146Z"
            fill="#FDEFE9" />
        <path fill-rule="evenodd" clip-rule="evenodd"
            d="M186.378 183.146L184.038 184.85C183.577 185.271 181.068 186.089 181.068 186.089C180.817 186.613 181.308 186.888 181.721 186.957L189.128 186.807C189.128 186.807 190.838 186.452 189.32 183.156C187.972 183.744 186.729 184.171 186.378 183.146Z"
            fill="#4A2A1A" />
        <path fill-rule="evenodd" clip-rule="evenodd"
            d="M201.094 120.935L184.937 121.042C182.256 121.819 182.899 136.724 182.899 136.724L192.785 138.188C197.831 138.46 203.839 139.635 204.421 134.543C205.489 125.201 201.094 120.935 201.094 120.935Z"
            fill="#4D9578" />
        <path fill-rule="evenodd" clip-rule="evenodd"
            d="M204.416 184.015C204.416 184.015 206.585 165.587 201.736 158.197L198.359 138.082L191.289 138.568L201.751 184.167L204.416 184.015Z"
            fill="#FDEFE9" />
        <path fill-rule="evenodd" clip-rule="evenodd"
            d="M201.519 183.281L200.466 184.635C200.077 185.056 198.768 185.946 198.768 185.946C198.768 185.946 197.526 187.186 199.606 187.032L204.895 186.939C204.895 186.939 206.549 186.584 204.469 183.281C203.213 183.88 202.043 184.307 201.519 183.281Z"
            fill="#4A2A1A" />
        <path fill-rule="evenodd" clip-rule="evenodd"
            d="M189.949 91.593C189.549 91.9828 189.125 92.3471 188.68 92.6835C188.302 92.9844 188.907 93.8718 189.36 93.7816C189.812 93.6913 190.579 92.3842 190.579 92.3842L189.949 91.593Z"
            fill="#FDEFE9" />
        <path fill-rule="evenodd" clip-rule="evenodd"
            d="M204.649 113.333C206.942 113.003 209.026 114.043 208.409 116.925L208.286 129.71L205.92 129.133L205.712 119.228L204.649 113.333Z"
            fill="#FDEFE9" />
        <path
            d="M205.94 129.027L205.65 131.401C205.591 131.876 205.705 132.357 205.972 132.754L207.048 134.364C207.134 134.494 207.251 134.6 207.388 134.675C207.525 134.75 207.679 134.79 207.835 134.793C207.991 134.795 208.145 134.76 208.285 134.69C208.424 134.62 208.545 134.518 208.636 134.391V134.391L208.833 131.383C208.863 130.679 208.644 129.987 208.216 129.427L207.484 128.436L205.94 129.027Z"
            fill="#FDEFE9" />
        <path fill-rule="evenodd" clip-rule="evenodd"
            d="M204.892 128.68L208.953 127.883C208.953 127.883 209.326 118.256 209.222 117.203C209.118 116.15 209.166 115.347 208.121 113.506C207.237 111.95 202.903 101.706 202.903 101.706C202.903 101.706 197.276 102.02 198.601 106.97C199.695 111.051 203.476 118.148 203.476 118.148L204.892 128.68Z"
            fill="#BDD7CC" />
        <path fill-rule="evenodd" clip-rule="evenodd"
            d="M190.775 94.6902L191.286 99.0523C191.315 99.3101 191.412 99.5555 191.567 99.7633C191.722 99.9711 191.93 100.134 192.169 100.235C192.407 100.335 192.667 100.369 192.923 100.334C193.178 100.299 193.42 100.196 193.622 100.036L194.015 99.7247C194.293 99.5035 194.503 99.2085 194.622 98.8733C194.74 98.5381 194.762 98.1763 194.684 97.8294C194.278 96.0109 193.539 92.6987 193.539 92.6987L190.775 94.6887V94.6902Z"
            fill="#FDEFE9" />
        <path fill-rule="evenodd" clip-rule="evenodd"
            d="M190.819 96.0017L191.095 97.4216L192.3 96.0258L190.819 96.0017Z" fill="#75331F" />
        <path fill-rule="evenodd" clip-rule="evenodd"
            d="M194.76 92.1948C194.874 91.878 194.858 91.5289 194.715 91.224C194.573 90.919 194.315 90.6829 193.999 90.5672L191.716 89.746C191.06 89.5113 190.436 89.8964 190.102 90.5221C189.708 91.2516 189.255 92.9002 189.071 94.1321C188.968 94.8285 189.264 95.6122 189.92 95.8484C190.621 96.0996 192.958 96.1778 193.61 94.985C194.106 94.0825 194.413 93.168 194.76 92.1902V92.1948Z"
            fill="#FDEFE9" />
        <path fill-rule="evenodd" clip-rule="evenodd"
            d="M194.624 95.6062C194.904 95.5913 195.178 95.5197 195.43 95.3958C195.682 95.2718 195.906 95.0981 196.089 94.8851C196.272 94.6721 196.409 94.4242 196.493 94.1565C196.578 93.8887 196.607 93.6067 196.579 93.3274C196.475 92.3286 196.278 91.2426 195.88 90.6861C194.745 89.0871 193.022 88.0056 190.669 89.3428C190.669 89.3428 190.595 92.4505 192.942 95.4392C193.1 95.6399 193.322 95.7808 193.571 95.8384C193.82 95.8961 194.082 95.8673 194.312 95.7566L194.624 95.6062Z"
            fill="#191919" />
        <path fill-rule="evenodd" clip-rule="evenodd"
            d="M189.721 98.252L192.223 97.8218L194.835 97.6714L200.372 99.3094C201.441 99.7156 202.323 100.503 202.848 101.52C203.372 102.537 203.502 103.712 203.213 104.819L203.225 109.851C203.957 114.01 204.649 121.018 204.904 126.624C201.733 130.046 191.939 131.297 181.839 127.343C182.833 117.555 182.567 112.17 184.169 105.541C184.397 104.595 183.484 102.533 184.506 101.507C185.837 100.177 189.721 98.252 189.721 98.252Z"
            fill="#BDD7CC" />
        <path d="M187.361 115.927L188.048 109.058" stroke="#217B56" stroke-width="0.436208"
            stroke-linecap="round" stroke-linejoin="round" />
        <path d="M203.614 116.103L202.347 107.435" stroke="#217B56" stroke-width="0.436208"
            stroke-linecap="round" stroke-linejoin="round" />
        <path fill-rule="evenodd" clip-rule="evenodd"
            d="M192.598 94.0268C192.231 94.478 191.64 94.5878 191.275 94.284C190.909 93.9801 190.912 93.3694 191.275 92.9302C191.637 92.491 192.233 92.3677 192.597 92.673C192.961 92.9783 192.964 93.5815 192.598 94.0268Z"
            fill="#FDEFE9" />
        <path fill-rule="evenodd" clip-rule="evenodd"
            d="M195.09 91.945C196.538 90.1927 198.637 89.1112 200.598 89.1082C200.915 89.1082 201.242 89.1382 201.49 89.3172C201.624 89.4178 201.721 89.5585 201.769 89.7187C201.817 89.879 201.813 90.0503 201.756 90.2077C201.636 90.5371 201.305 90.7071 201.033 90.9102C200.46 91.3449 200.836 91.4908 201.682 91.4802C202.04 91.459 202.396 91.541 202.708 91.7164C202.867 91.8169 202.993 91.9616 203.07 92.1326C203.148 92.3036 203.173 92.4935 203.145 92.679C203.035 93.3604 202.295 93.759 201.679 93.9064C200.598 94.1682 200.824 94.1652 200.917 94.3051C201.097 94.5713 201.308 94.7563 201.427 95.2707C201.561 95.8453 201.046 96.4124 200.478 96.5297C199.909 96.647 199.535 96.1446 199.064 95.8844L195.469 93.9004C195.168 93.729 194.837 93.5409 194.696 93.192C194.554 92.843 194.696 92.2895 195.051 92.1014C195.051 92.1165 195.054 92.133 195.09 91.945Z"
            fill="#191919" />
        <path fill-rule="evenodd" clip-rule="evenodd"
            d="M197.475 91.9045C197.888 91.3246 198.096 90.6241 198.068 89.913C198.051 89.531 197.935 89.1068 197.602 88.9203C197.197 88.6946 196.69 88.9203 196.326 89.2106C195.888 89.5535 195.52 89.9767 195.24 90.4575C195.028 90.7786 194.918 91.156 194.924 91.5405C194.951 91.9211 195.202 92.3061 195.575 92.3874C195.9 92.4596 196.227 92.2986 196.52 92.1422L197.463 91.6398C197.45 91.728 197.454 91.8179 197.475 91.9045V91.9045Z"
            fill="#191919" />
        <path fill-rule="evenodd" clip-rule="evenodd"
            d="M197.226 93.3364C197.747 93.4496 198.207 93.7551 198.514 94.1922C198.821 94.6293 198.951 95.1658 198.88 95.6949C198.829 96.0905 198.579 96.5282 198.182 96.5433C198.073 96.5391 197.965 96.5121 197.867 96.4639C197.769 96.4157 197.681 96.3474 197.611 96.2635C197.46 96.104 197.351 95.913 197.215 95.74C196.921 95.3622 196.517 95.0847 196.058 94.9458C195.833 94.8782 195.567 94.824 195.457 94.6179C195.306 94.3607 195.499 94.0433 195.716 93.8433C195.927 93.6423 196.178 93.4872 196.452 93.3875C196.727 93.2879 197.019 93.2459 197.31 93.2642C197.299 93.2657 197.287 93.2672 197.226 93.3364Z"
            fill="#191919" />
        <path fill-rule="evenodd" clip-rule="evenodd"
            d="M189.495 93.959L190.225 94.0207C190.225 94.0207 190.106 94.8916 189.528 94.7381C189.328 94.684 189.495 93.959 189.495 93.959Z"
            fill="white" />
        <path d="M195.487 90.3625C195.487 90.3625 194.112 91.7374 195.738 94.7352" stroke="#EB2227"
            stroke-width="0.430191" stroke-miterlimit="10" stroke-linecap="round" />
        <path fill-rule="evenodd" clip-rule="evenodd"
            d="M182.87 135.826L182.77 160.204C182.77 160.204 197.704 162.087 205.84 160.556L204.581 132.227L182.87 135.826Z"
            fill="#4D9578" />
        <path d="M72.3754 78.5686V116.469" stroke="#401E1E" stroke-width="0.607683"
            stroke-linecap="round" stroke-linejoin="round" />
    </g>
    <defs>
        <clipPath id="clip0_1665_6629">
            <rect width="212" height="191.247" fill="white" />
        </clipPath>
    </defs>
</svg>
