<svg width="24" height="24" viewBox="0 0 24 24" fill="none" xmlns="http://www.w3.org/2000/svg">
<path fill-rule="evenodd" clip-rule="evenodd" d="M9.11893 21.2578C9.36616 21.1164 9.68115 21.2023 9.82248 21.4495C10.0438 21.8367 10.3628 22.1591 10.7477 22.3846C11.1325 22.61 11.5697 22.7306 12.0157 22.7344C12.4617 22.7381 12.9009 22.6249 13.2895 22.406C13.6781 22.187 14.0025 21.87 14.2303 21.4866C14.3758 21.2418 14.6922 21.1613 14.937 21.3068C15.1818 21.4523 15.2623 21.7686 15.1169 22.0134C14.7969 22.5519 14.3414 22.997 13.7957 23.3044C13.2501 23.6119 12.6333 23.7709 12.0071 23.7656C11.3808 23.7603 10.7668 23.5909 10.2264 23.2744C9.68601 22.9578 9.23805 22.505 8.92721 21.9613C8.78587 21.7141 8.87171 21.3991 9.11893 21.2578Z" fill="#596481"/>
<path fill-rule="evenodd" clip-rule="evenodd" d="M11.9885 0.234502C11.9923 0.234418 11.9961 0.234375 12 0.234375C16.2922 0.234375 20.0156 3.91024 20.0156 8.175V11.25C20.0156 12.7833 20.616 13.6519 21.2599 14.4016C21.3443 14.4999 21.4341 14.6009 21.5256 14.7038C21.7724 14.9815 22.0319 15.2734 22.2339 15.5659C22.5283 15.992 22.7531 16.4845 22.7531 17.1C22.7531 17.748 22.3796 18.2895 21.8433 18.7129C21.307 19.1363 20.552 19.4903 19.6348 19.7766C17.7955 20.3508 15.1795 20.6906 12 20.6906C8.82041 20.6906 6.20439 20.3508 4.36505 19.7766C3.44793 19.4903 2.69293 19.1363 2.15662 18.7129C1.62033 18.2895 1.24683 17.748 1.24683 17.1C1.24683 16.4845 1.47157 15.992 1.76595 15.5659C1.96802 15.2734 2.22752 14.9815 2.4743 14.7038C2.56582 14.6009 2.65559 14.4999 2.74003 14.4016C3.38387 13.6519 3.98433 12.7833 3.98433 11.25V8.25C3.98433 8.24618 3.98437 8.24236 3.98445 8.23853C4.03134 6.13046 4.88967 4.12173 6.38068 2.63072C7.87168 1.13972 9.88041 0.281389 11.9885 0.234502ZM12.0057 1.26563C10.1652 1.30804 8.41175 2.05806 7.10988 3.35993C5.80798 4.66182 5.05796 6.41532 5.01558 8.25584V11.25C5.01558 13.1292 4.24728 14.2294 3.52237 15.0734C3.40858 15.2059 3.3016 15.3263 3.20114 15.4392C2.97297 15.6959 2.77847 15.9146 2.61442 16.1521C2.39552 16.4689 2.27808 16.7593 2.27808 17.1C2.27808 17.3145 2.39676 17.5886 2.79563 17.9035C3.19448 18.2184 3.8176 18.5253 4.67235 18.7922C6.37676 19.3242 8.87949 19.6594 12 19.6594C15.1204 19.6594 17.6231 19.3242 19.3275 18.7922C20.1823 18.5253 20.8054 18.2184 21.2043 17.9035C21.6031 17.5886 21.7218 17.3145 21.7218 17.1C21.7218 16.7593 21.6044 16.4689 21.3855 16.1521C21.2214 15.9146 21.0269 15.6958 20.7988 15.4392C20.6983 15.3262 20.5913 15.2059 20.4775 15.0734C19.7526 14.2294 18.9843 13.1292 18.9843 11.25V8.175C18.9843 4.49165 15.736 1.26892 12.0057 1.26563Z" fill="#596481"/>
</svg>
