<svg width="32" height="32" viewBox="0 0 32 32" fill="none" xmlns="http://www.w3.org/2000/svg">
<path d="M13.5445 5.73631C10.8667 6.60434 8.77616 8.78233 8.03707 11.5101L7.97729 11.7307C7.49824 13.4988 7.41023 15.3507 7.71941 17.1565L7.74943 17.3319C7.77616 17.488 7.69588 17.6433 7.55729 17.7189C6.62973 18.2249 6 19.2121 6 20.3472C6 21.7688 6.99673 22.9937 8.38345 23.2763L8.87357 23.3761C13.5767 24.3341 18.4233 24.3341 23.1264 23.3761L23.6165 23.2763C25.0033 22.9937 26 21.7688 26 20.3472C26 19.2236 25.3829 18.2448 24.4707 17.7344C24.3161 17.6479 24.2264 17.4735 24.2563 17.2983L24.2881 17.1124C24.5925 15.3348 24.5132 13.5124 24.0556 11.7683L23.9724 11.4511C23.2667 8.76113 21.2531 6.61321 18.6228 5.74451C16.9799 5.20194 15.1903 5.20282 13.5445 5.73631Z" fill="#C2E0CF"/>
<path d="M12.0121 23.8712C14.6624 24.1692 17.3376 24.1692 19.9879 23.8712C19.9691 24.1289 19.9287 24.3849 19.8668 24.6363L19.7576 25.0808C19.4152 26.4733 18.3273 27.5571 16.9385 27.8893C16.3215 28.0369 15.6785 28.0369 15.0615 27.8893C13.6727 27.5571 12.5849 26.4733 12.2424 25.0808L12.1331 24.6363C12.0713 24.3849 12.0309 24.1289 12.0121 23.8712Z" fill="#C2E0CF"/>
<path d="M8.03707 11.5101L9.00227 11.7716L8.03707 11.5101ZM13.5445 5.73631L13.2361 4.78503L13.5445 5.73631ZM7.97729 11.7307L7.01209 11.4692L7.97729 11.7307ZM7.71941 17.1565L8.70507 16.9879L7.71941 17.1565ZM7.74943 17.3319L6.76376 17.5007L7.74943 17.3319ZM8.38345 23.2763L8.58308 22.2964L8.38345 23.2763ZM8.87357 23.3761L9.0732 22.3961L8.87357 23.3761ZM23.1264 23.3761L22.9268 22.3961L23.1264 23.3761ZM23.6165 23.2763L23.8161 24.2561L23.6165 23.2763ZM24.2563 17.2983L25.242 17.4671L24.2563 17.2983ZM24.2881 17.1124L23.3025 16.9436L24.2881 17.1124ZM24.0556 11.7683L23.0884 12.0221V12.0221L24.0556 11.7683ZM23.9724 11.4511L24.9396 11.1974L23.9724 11.4511ZM18.6228 5.74451L18.9364 4.79495L18.6228 5.74451ZM24.4707 17.7344L23.9824 18.6071L24.4707 17.7344ZM7.55729 17.7189L7.0784 16.8411L7.55729 17.7189ZM17 4C17 3.44772 16.5523 3 16 3C15.4477 3 15 3.44772 15 4H17ZM15 5.33965C15 5.89193 15.4477 6.33965 16 6.33965C16.5523 6.33965 17 5.89193 17 5.33965H15ZM12.0121 23.8712L12.1239 22.8775L10.9274 22.7429L11.0148 23.9437L12.0121 23.8712ZM19.9879 23.8712L20.9852 23.9437L21.0725 22.7429L19.8761 22.8775L19.9879 23.8712ZM19.8668 24.6363L20.838 24.8751L19.8668 24.6363ZM19.7576 25.0808L18.7865 24.842L19.7576 25.0808ZM16.9385 27.8893L17.1712 28.8619L16.9385 27.8893ZM15.0615 27.8893L14.8288 28.8619L15.0615 27.8893ZM12.2424 25.0808L11.2714 25.3195L12.2424 25.0808ZM12.1331 24.6363L13.1042 24.3975L12.1331 24.6363ZM9.00227 11.7716C9.65233 9.37241 11.494 7.4522 13.8528 6.68757L13.2361 4.78503C10.2393 5.75645 7.89999 8.19221 7.07187 11.2486L9.00227 11.7716ZM8.94249 11.9922L9.00227 11.7716L7.07187 11.2486L7.01209 11.4692L8.94249 11.9922ZM8.70507 16.9879C8.4204 15.3252 8.50144 13.62 8.94249 11.9922L7.01209 11.4692C6.49504 13.3775 6.40005 15.3763 6.73376 17.3253L8.70507 16.9879ZM8.73508 17.1631L8.70507 16.9879L6.73376 17.3253L6.76376 17.5007L8.73508 17.1631ZM7 20.3472C7 19.5909 7.41847 18.9337 8.03619 18.5968L7.0784 16.8411C5.84099 17.516 5 18.8335 5 20.3472H7ZM8.58308 22.2964C7.66524 22.1093 7 21.2967 7 20.3472H5C5 22.2409 6.32821 23.878 8.18383 24.2561L8.58308 22.2964ZM9.0732 22.3961L8.58308 22.2964L8.18383 24.2561L8.67396 24.356L9.0732 22.3961ZM22.9268 22.3961C18.3555 23.3275 13.6445 23.3275 9.0732 22.3961L8.67396 24.356C13.5088 25.3409 18.4912 25.3409 23.326 24.356L22.9268 22.3961ZM23.4169 22.2964L22.9268 22.3961L23.326 24.356L23.8161 24.2561L23.4169 22.2964ZM25 20.3472C25 21.2967 24.3348 22.1093 23.4169 22.2964L23.8161 24.2561C25.6717 23.878 27 22.2409 27 20.3472H25ZM23.9824 18.6071C24.59 18.9471 25 19.5985 25 20.3472H27C27 18.8487 26.1759 17.5427 24.9589 16.8617L23.9824 18.6071ZM23.3025 16.9436L23.2707 17.1295L25.242 17.4671L25.2739 17.2811L23.3025 16.9436ZM23.0884 12.0221C23.5097 13.6281 23.5828 15.3065 23.3025 16.9436L25.2739 17.2811C25.6023 15.3631 25.5167 13.3965 25.0229 11.5145L23.0884 12.0221ZM23.0052 11.7049L23.0884 12.0221L25.0229 11.5145L24.9396 11.1974L23.0052 11.7049ZM18.3092 6.69405C20.6163 7.456 22.3849 9.34099 23.0052 11.7049L24.9396 11.1974C24.1484 8.18125 21.8899 5.77039 18.9364 4.79495L18.3092 6.69405ZM13.8528 6.68757C15.2987 6.21891 16.8704 6.21889 18.3092 6.69405L18.9364 4.79495C17.0895 4.18496 15.0819 4.18672 13.2361 4.78503L13.8528 6.68757ZM24.9589 16.8617C25.1501 16.9687 25.288 17.1984 25.242 17.4671L23.2707 17.1295C23.1647 17.7485 23.4821 18.3271 23.9824 18.6071L24.9589 16.8617ZM6.76376 17.5007C6.71439 17.2123 6.86283 16.9587 7.0784 16.8411L8.03619 18.5968C8.52892 18.328 8.83793 17.7637 8.73508 17.1631L6.76376 17.5007ZM15 4V5.33965H17V4H15ZM11.9004 24.8649C14.6249 25.1712 17.3751 25.1712 20.0996 24.8649L19.8761 22.8775C17.3001 23.1671 14.6999 23.1671 12.1239 22.8775L11.9004 24.8649ZM20.838 24.8751C20.9132 24.5691 20.9624 24.2576 20.9852 23.9437L18.9905 23.7987C18.9759 24.0004 18.9441 24.2008 18.8957 24.3975L20.838 24.8751ZM20.7287 25.3195L20.838 24.8751L18.8957 24.3975L18.7865 24.842L20.7287 25.3195ZM17.1712 28.8619C18.926 28.442 20.2973 27.0736 20.7287 25.3195L18.7865 24.842C18.5329 25.8729 17.7287 26.672 16.7059 26.9167L17.1712 28.8619ZM14.8288 28.8619C15.5988 29.046 16.4012 29.046 17.1712 28.8619L16.7059 26.9167C16.2417 27.0277 15.7583 27.0277 15.2941 26.9167L14.8288 28.8619ZM11.2714 25.3195C11.7027 27.0736 13.074 28.442 14.8288 28.8619L15.2941 26.9167C14.2713 26.672 13.4671 25.8729 13.2135 24.842L11.2714 25.3195ZM11.1621 24.8751L11.2714 25.3195L13.2135 24.842L13.1042 24.3975L11.1621 24.8751ZM11.0148 23.9437C11.0376 24.2576 11.0868 24.5691 11.1621 24.8751L13.1042 24.3975C13.0558 24.2008 13.0242 24.0004 13.0095 23.7987L11.0148 23.9437Z" fill="#00572E"/>
</svg>
