<svg width="40" height="40" viewBox="0 0 40 40" fill="none" xmlns="http://www.w3.org/2000/svg">
<g clip-path="url(#clip0_1254_1770)">
<path d="M7.25813 35.2894C9.12356 35.2894 10.6358 33.7772 10.6358 31.9118C10.6358 30.0464 9.12356 28.5341 7.25813 28.5341C5.39269 28.5341 3.88046 30.0464 3.88046 31.9118C3.88046 33.7772 5.39269 35.2894 7.25813 35.2894Z" fill="#C2E0CF"/>
<path d="M31.5697 34.542C33.4352 34.542 34.9474 33.0298 34.9474 31.1643C34.9474 29.2989 33.4352 27.7867 31.5697 27.7867C29.7043 27.7867 28.1921 29.2989 28.1921 31.1643C28.1921 33.0298 29.7043 34.542 31.5697 34.542Z" fill="#C2E0CF"/>
<path d="M12.0192 2.29132V38.8286H21.5411V2.29132H12.0192ZM16.7801 35.2894C14.9146 35.2894 13.4024 33.7772 13.4024 31.9118C13.4024 30.0463 14.9147 28.5341 16.7801 28.5341C18.6455 28.5341 20.1578 30.0464 20.1578 31.9118C20.1579 33.7772 18.6456 35.2894 16.7801 35.2894Z" fill="#C2E0CF"/>
<path d="M38.6548 36.8944L36.8286 26.964C36.7116 26.3276 36.1011 25.9068 35.4645 26.0237C34.8282 26.1408 34.4073 26.7515 34.5243 27.3878L34.5939 27.7664C33.7849 27.0459 32.7221 26.615 31.573 26.615C31.2973 26.615 31.0192 26.6404 30.7464 26.6907C29.5512 26.9104 28.5133 27.5824 27.8237 28.5828C27.7161 28.739 27.6201 28.9008 27.5336 29.0665L22.8933 3.83415L29.954 2.53571L33.2951 20.7042C33.4121 21.3405 34.0228 21.7617 34.6591 21.6444C35.2955 21.5274 35.7164 20.9167 35.5994 20.2804L32.0463 0.959848C31.9293 0.323597 31.3185 -0.0977321 30.6823 0.0196119L22.4358 1.5361C22.221 1.2818 21.9001 1.11985 21.5411 1.11985H12.0191H2.4972C1.85017 1.11985 1.32571 1.64446 1.32571 2.29134V21.9358C1.32571 22.5827 1.85017 23.1073 2.4972 23.1073C3.14423 23.1073 3.66869 22.5827 3.66869 21.9358V3.46282H10.8478V29.1221C10.0146 28.0526 8.71596 27.3626 7.2583 27.3626C5.80064 27.3626 4.50181 28.0526 3.66869 29.1221V28.7316C3.66869 28.0847 3.14423 27.5601 2.4972 27.5601C1.85017 27.5601 1.32571 28.0847 1.32571 28.7316V38.8284C1.32571 39.4753 1.85017 39.9999 2.4972 39.9999H12.0192H21.5411C22.1882 39.9999 22.7126 39.4753 22.7126 38.8284V15.8051L26.9857 39.0404C27.0418 39.3459 27.2172 39.6167 27.473 39.793C27.67 39.9287 27.902 40.0001 28.1379 40.0001C28.2085 40.0001 28.2794 39.9937 28.3498 39.9808L37.7148 38.2585C38.3508 38.1412 38.7718 37.5305 38.6548 36.8944ZM7.25815 29.7055C8.47471 29.7055 9.4644 30.6952 9.4644 31.9118C9.4644 33.1283 8.47471 34.1181 7.25815 34.1181C6.04158 34.1181 5.05189 33.1283 5.05189 31.9118C5.05189 30.6952 6.04166 29.7055 7.25815 29.7055ZM3.66869 34.7015C4.50181 35.771 5.80049 36.461 7.2583 36.461C8.71596 36.461 10.0146 35.771 10.8478 34.7015V37.6569H3.66869V34.7015ZM20.3697 37.6571H13.1906V34.7036C14.0237 35.7724 15.3231 36.461 16.7802 36.461C18.2373 36.461 19.5365 35.7724 20.3697 34.7036V37.6571ZM14.5739 31.9119C14.5739 30.6953 15.5637 29.7055 16.7802 29.7055C17.9967 29.7055 18.9865 30.6953 18.9865 31.9119C18.9865 33.1284 17.9968 34.1181 16.7802 34.1181C15.5636 34.1181 14.5739 33.1283 14.5739 31.9119ZM20.3697 29.1201C19.5365 28.0512 18.2372 27.3626 16.7802 27.3626C15.3232 27.3626 14.0239 28.0512 13.1906 29.1201V3.46282H20.3697V29.1201ZM29.7527 29.9126C30.0872 29.4273 30.5905 29.1015 31.1702 28.9948C31.3037 28.9704 31.4392 28.9579 31.5731 28.9579C32.6356 28.9579 33.5466 29.7183 33.7391 30.7658C33.9591 31.9623 33.1648 33.1147 31.9684 33.3348C31.8349 33.3592 31.6995 33.3716 31.5656 33.3716C30.5031 33.3716 29.5922 32.6113 29.3996 31.5638C29.2928 30.9842 29.4183 30.3978 29.7527 29.9126ZM29.078 37.4645L28.5444 34.5632C29.3533 35.2837 30.4162 35.7146 31.5653 35.7146C31.8409 35.7146 32.1191 35.6892 32.3919 35.6389C33.8255 35.3752 34.978 34.4617 35.6039 33.259L36.1384 36.1659L29.078 37.4645Z" fill="#00572E"/>
<path d="M16.7801 22.437C16.1331 22.437 15.6086 21.9124 15.6086 21.2655V6.72837C15.6086 6.0815 16.1331 5.55688 16.7801 5.55688C17.4272 5.55688 17.9516 6.0815 17.9516 6.72837V21.2655C17.9516 21.9124 17.4272 22.437 16.7801 22.437Z" fill="#00572E"/>
</g>
<defs>
<clipPath id="clip0_1254_1770">
<rect width="40" height="40" fill="white"/>
</clipPath>
</defs>
</svg>
