<svg width="20" height="20" viewBox="0 0 20 20" fill="none" xmlns="http://www.w3.org/2000/svg">
<path fill-rule="evenodd" clip-rule="evenodd" d="M19.666 17.8334C19.666 18.8459 18.8452 19.6667 17.8327 19.6667L0.666018 19.6667V12.6667C0.666018 12.6667 5.16602 12.6667 8.66602 9.66669C12.166 6.66669 12.666 1.66669 12.666 1.66669H19.6655L19.666 17.8334Z" fill="#474747"/>
<path fill-rule="evenodd" clip-rule="evenodd" d="M19.666 17.8334C19.666 18.8459 18.8452 19.6667 17.8327 19.6667L1.83268 19.6667C0.82016 19.6667 -0.000652313 18.8459 -0.000652313 17.8334C-0.000652313 16.8208 0.82016 16 1.83268 16L15.9993 16L15.9993 1.83335C15.9993 0.820831 16.8202 1.90735e-05 17.8327 1.90735e-05C18.8452 1.90735e-05 19.666 0.820831 19.666 1.83335L19.666 17.8334Z" fill="#EB2227"/>
</svg>
