<svg width="20" height="20" viewBox="0 0 20 20" fill="none" xmlns="http://www.w3.org/2000/svg">
<path fill-rule="evenodd" clip-rule="evenodd" d="M1.83333 19.6667C0.820811 19.6667 0 18.8459 0 17.8334L5.39422e-06 0.666689H7C7 0.666689 7 5.16669 10 8.66669C13 12.1667 18 12.6667 18 12.6667V19.6662L1.83333 19.6667Z" fill="#474747"/>
<path fill-rule="evenodd" clip-rule="evenodd" d="M1.83333 19.6667C0.820811 19.6667 0 18.8459 0 17.8334L0 1.83335C0 0.820831 0.820811 1.90735e-05 1.83333 1.90735e-05C2.84586 1.90735e-05 3.66667 0.820831 3.66667 1.83335L3.66667 16H17.8333C18.8459 16 19.6667 16.8208 19.6667 17.8334C19.6667 18.8459 18.8459 19.6667 17.8333 19.6667H1.83333Z" fill="#EB2227"/>
</svg>
