<svg width="20" height="20" viewBox="0 0 20 20" fill="none" xmlns="http://www.w3.org/2000/svg">
<path fill-rule="evenodd" clip-rule="evenodd" d="M0 1.83333C0 0.820811 0.820811 0 1.83333 0L19 5.39422e-06V7C19 7 14.5 7 11 10C7.5 13 7 18 7 18H0.000484437L0 1.83333Z" fill="#474747"/>
<path fill-rule="evenodd" clip-rule="evenodd" d="M0 1.83333C0 0.820811 0.820811 0 1.83333 0H17.8333C18.8459 0 19.6667 0.820811 19.6667 1.83333C19.6667 2.84586 18.8459 3.66667 17.8333 3.66667H3.66667V17.8333C3.66667 18.8459 2.84586 19.6667 1.83333 19.6667C0.820811 19.6667 0 18.8459 0 17.8333V1.83333Z" fill="#EB2227"/>
</svg>
