<svg width="20" height="20" viewBox="0 0 20 20" fill="none" xmlns="http://www.w3.org/2000/svg">
<path fill-rule="evenodd" clip-rule="evenodd" d="M17.8327 0C18.8452 0 19.666 0.820811 19.666 1.83333L19.666 19H12.666C12.666 19 12.666 14.5 9.66602 11C6.66602 7.5 1.66601 7 1.66601 7V0.000484437L17.8327 0Z" fill="#474747"/>
<path fill-rule="evenodd" clip-rule="evenodd" d="M17.8327 0C18.8452 0 19.666 0.820811 19.666 1.83333L19.666 17.8333C19.666 18.8459 18.8452 19.6667 17.8327 19.6667C16.8202 19.6667 15.9993 18.8459 15.9993 17.8333L15.9993 3.66667L1.83268 3.66667C0.82016 3.66667 -0.000652313 2.84586 -0.000652313 1.83333C-0.000652313 0.820811 0.82016 0 1.83268 0L17.8327 0Z" fill="#EB2227"/>
</svg>
