<svg width="16" height="16" viewBox="0 0 16 16" fill="none" xmlns="http://www.w3.org/2000/svg">
<path fill-rule="evenodd" clip-rule="evenodd" d="M0 6C0 5.72386 0.223858 5.5 0.5 5.5H15.5C15.7761 5.5 16 5.72386 16 6C16 6.27614 15.7761 6.5 15.5 6.5H0.5C0.223858 6.5 0 6.27614 0 6Z" fill="#2C3E50"/>
<path fill-rule="evenodd" clip-rule="evenodd" d="M2 2.5C1.44772 2.5 1 2.94772 1 3.5V13.5C1 14.0523 1.44772 14.5 2 14.5H14C14.5523 14.5 15 14.0523 15 13.5V3.5C15 2.94772 14.5523 2.5 14 2.5H2ZM0 3.5C0 2.39543 0.89543 1.5 2 1.5H14C15.1046 1.5 16 2.39543 16 3.5V13.5C16 14.6046 15.1046 15.5 14 15.5H2C0.89543 15.5 0 14.6046 0 13.5V3.5Z" fill="#2C3E50"/>
<path fill-rule="evenodd" clip-rule="evenodd" d="M4 0C4.27614 0 4.5 0.223858 4.5 0.5V3.5C4.5 3.77614 4.27614 4 4 4C3.72386 4 3.5 3.77614 3.5 3.5V0.5C3.5 0.223858 3.72386 0 4 0Z" fill="#2C3E50"/>
<path fill-rule="evenodd" clip-rule="evenodd" d="M12 0C12.2761 0 12.5 0.223858 12.5 0.5V3.5C12.5 3.77614 12.2761 4 12 4C11.7239 4 11.5 3.77614 11.5 3.5V0.5C11.5 0.223858 11.7239 0 12 0Z" fill="#2C3E50"/>
</svg>
