<svg width="16" height="16" viewBox="0 0 16 16" fill="none" xmlns="http://www.w3.org/2000/svg">
<path fill-rule="evenodd" clip-rule="evenodd" d="M0.40625 5.75C0.40625 5.56015 0.560152 5.40625 0.75 5.40625H15.25C15.4398 5.40625 15.5938 5.56015 15.5938 5.75C15.5938 5.93985 15.4398 6.09375 15.25 6.09375H0.75C0.560152 6.09375 0.40625 5.93985 0.40625 5.75Z" fill="#596481"/>
<path fill-rule="evenodd" clip-rule="evenodd" d="M2 2.59375C1.49949 2.59375 1.09375 2.99949 1.09375 3.5V13C1.09375 13.5005 1.49949 13.9062 2 13.9062H14C14.5005 13.9062 14.9062 13.5005 14.9062 13V3.5C14.9062 2.99949 14.5005 2.59375 14 2.59375H2ZM0.40625 3.5C0.40625 2.6198 1.1198 1.90625 2 1.90625H14C14.8802 1.90625 15.5938 2.6198 15.5938 3.5V13C15.5938 13.8802 14.8802 14.5938 14 14.5938H2C1.1198 14.5938 0.40625 13.8802 0.40625 13V3.5Z" fill="#596481"/>
<path fill-rule="evenodd" clip-rule="evenodd" d="M4.25 0.40625C4.43985 0.40625 4.59375 0.560152 4.59375 0.75V3.75C4.59375 3.93985 4.43985 4.09375 4.25 4.09375C4.06015 4.09375 3.90625 3.93985 3.90625 3.75V0.75C3.90625 0.560152 4.06015 0.40625 4.25 0.40625Z" fill="#596481"/>
<path fill-rule="evenodd" clip-rule="evenodd" d="M11.75 0.40625C11.9398 0.40625 12.0938 0.560152 12.0938 0.75V3.75C12.0938 3.93985 11.9398 4.09375 11.75 4.09375C11.5602 4.09375 11.4062 3.93985 11.4062 3.75V0.75C11.4062 0.560152 11.5602 0.40625 11.75 0.40625Z" fill="#596481"/>
</svg>
