<svg width="27" height="27" viewBox="0 0 27 27" fill="none" xmlns="http://www.w3.org/2000/svg">
<g clip-path="url(#clip0_403_6358)">
<path fill-rule="evenodd" clip-rule="evenodd" d="M14.3271 9.52044C11.2158 9.52044 8.69366 12.0426 8.69366 15.1539C8.69366 18.2651 11.2158 20.7873 14.3271 20.7873C17.4383 20.7873 19.9605 18.2651 19.9605 15.1539C19.9605 12.0426 17.4383 9.52044 14.3271 9.52044ZM7.55664 15.1539C7.55664 11.4146 10.5879 8.38342 14.3271 8.38342C18.0663 8.38342 21.0975 11.4146 21.0975 15.1539C21.0975 18.8931 18.0663 21.9243 14.3271 21.9243C10.5879 21.9243 7.55664 18.8931 7.55664 15.1539Z" fill="white"/>
<path fill-rule="evenodd" clip-rule="evenodd" d="M3.83594 3.99045C3.83594 3.67647 4.09047 3.42194 4.40445 3.42194H7.29868C7.61266 3.42194 7.86719 3.67647 7.86719 3.99045C7.86719 4.30442 7.61266 4.55896 7.29868 4.55896H4.40445C4.09047 4.55896 3.83594 4.30442 3.83594 3.99045Z" fill="white"/>
<path fill-rule="evenodd" clip-rule="evenodd" d="M10.96 2.02122C11.0654 1.86307 11.2429 1.76807 11.433 1.76807H17.2215C17.4115 1.76807 17.589 1.86307 17.6945 2.02122L20.0065 5.48922H23.4234C24.1224 5.48922 24.7929 5.76692 25.2872 6.26123C25.7815 6.75554 26.0592 7.42598 26.0592 8.12504V22.1827C26.0592 22.8818 25.7815 23.5522 25.2872 24.0465C24.7929 24.5408 24.1224 24.8185 23.4234 24.8185H3.57722C2.87816 24.8185 2.20773 24.5408 1.71342 24.0465C1.21911 23.5522 0.941406 22.8818 0.941406 22.1827V8.12504C0.941406 7.42598 1.21911 6.75554 1.71342 6.26123C2.20773 5.76692 2.87816 5.48922 3.57722 5.48922H8.64797L10.96 2.02122ZM3.57722 23.6815H23.4234C23.8209 23.6815 24.2021 23.5236 24.4832 23.2425C24.7643 22.9615 24.9222 22.5802 24.9222 22.1827V8.12504C24.9222 7.72753 24.7643 7.34631 24.4832 7.06523C24.2021 6.78415 23.8209 6.62624 23.4234 6.62624H19.7022C19.5121 6.62624 19.3346 6.53124 19.2292 6.37308L16.9172 2.90509H11.7373L9.42525 6.37308C9.31981 6.53124 9.14231 6.62624 8.95222 6.62624H3.57722C3.17972 6.62624 2.79849 6.78415 2.51741 7.06523C2.23633 7.34631 2.07843 7.72753 2.07843 8.12504V22.1827C2.07843 22.5802 2.23633 22.9615 2.51741 23.2425C2.79849 23.5236 3.17972 23.6815 3.57722 23.6815Z" fill="white"/>
<path fill-rule="evenodd" clip-rule="evenodd" d="M14.3268 12.0012C13.4906 12.0012 12.6888 12.3334 12.0975 12.9246C11.5063 13.5158 11.1741 14.3177 11.1741 15.1539C11.1741 15.4678 10.9196 15.7224 10.6056 15.7224C10.2916 15.7224 10.0371 15.4678 10.0371 15.1539C10.0371 14.0162 10.4891 12.9251 11.2935 12.1206C12.098 11.3161 13.1891 10.8642 14.3268 10.8642C14.6408 10.8642 14.8953 11.1187 14.8953 11.4327C14.8953 11.7467 14.6408 12.0012 14.3268 12.0012Z" fill="white"/>
<path d="M5.43795 11.0193C6.00882 11.0193 6.4716 10.5565 6.4716 9.98562C6.4716 9.41475 6.00882 8.95197 5.43795 8.95197C4.86708 8.95197 4.4043 9.41475 4.4043 9.98562C4.4043 10.5565 4.86708 11.0193 5.43795 11.0193Z" fill="white"/>
</g>
<defs>
<clipPath id="clip0_403_6358">
<rect width="26.4615" height="26.4615" fill="white" transform="translate(0.269531 0.269226)"/>
</clipPath>
</defs>
</svg>
