<svg width="32" height="32" viewBox="0 0 32 32" fill="none" xmlns="http://www.w3.org/2000/svg">
<path d="M17 10.6818C20.8 5.68176 21.0833 3.09843 20.75 2.43176C21.1667 3.18176 22.3 5.18176 23.5 7.18176C24.7 9.18176 23.3333 12.1818 22.5 13.4318L9.06973 30.344C9.03258 30.3907 8.96296 30.3947 8.92071 30.3525L4.56563 25.9974C4.52862 25.9604 4.52453 25.9033 4.55867 25.8636C7.17487 22.8232 13.2285 15.6443 17 10.6818Z" stroke="#217B56" stroke-width="1.375" stroke-linecap="round"/>
<path d="M10.5844 2.39906C15.1032 0.665595 19.3337 1.82771 20.9479 2.6547C20.981 2.67163 21.0004 2.70454 20.997 2.74151C20.9459 3.30263 20.2411 4.9613 19.528 6.8573C19.5116 6.9008 19.4651 6.9272 19.419 6.92124C13.8156 6.19671 14.2308 6.91596 12.3134 6.93151C12.2755 6.93182 12.2395 6.91058 12.2221 6.87689C11.9509 6.34898 11.2399 5.1139 10.524 2.51932C10.5104 2.47005 10.5367 2.41736 10.5844 2.39906Z" stroke="#217B56" stroke-width="1.375" stroke-linecap="round"/>
<path d="M14.5 10.9318C13.3145 8.87695 10.9598 4.55861 10.5492 2.92404C10.5273 2.83655 10.408 2.81133 10.3566 2.88541C9.38598 4.28178 8.23236 6.29792 7.75372 7.17492C7.75114 7.17966 7.74851 7.18364 7.74523 7.18793C7.16523 7.94647 6.90978 10.6448 10.5 15.4318" stroke="#217B56" stroke-width="1.375" stroke-linecap="round"/>
<path d="M21.25 19.1818L26.9409 26.1098C26.9742 26.1503 26.9705 26.2097 26.9324 26.2458L22.3296 30.6063C22.2869 30.6468 22.2186 30.6418 22.1822 30.5955L16.75 23.6818" stroke="#EB2227" stroke-width="1.375" stroke-linecap="round"/>
</svg>
