<svg width="40" height="40" viewBox="0 0 40 40" fill="none" xmlns="http://www.w3.org/2000/svg">
<path d="M9.59743 40C8.47688 40.0001 7.4072 39.5991 6.55618 38.8542L6.14353 38.4931C4.22368 36.8125 4.02899 33.8834 5.70931 31.9636C5.71196 31.9605 5.7147 31.9574 5.71743 31.9544L21.5818 14.2312C21.9876 13.7781 22.6838 13.7395 23.1369 14.1452C23.5899 14.5509 23.6286 15.2471 23.2229 15.7002L7.36314 33.418C6.48642 34.4241 6.58962 35.9563 7.59415 36.8356L8.00681 37.1967C8.49431 37.6236 9.11907 37.8345 9.76501 37.7917C10.4113 37.7488 11.0022 37.4566 11.4288 36.9692L32.6405 13.1815C33.3755 12.3414 33.3007 10.8388 32.4598 9.69352C31.9616 9.01524 31.2892 8.62461 30.5668 8.59383C29.8911 8.56586 29.2538 8.85461 28.7682 9.40946C28.3676 9.86727 27.6719 9.91336 27.2142 9.51289C26.7566 9.11227 26.7103 8.41657 27.1108 7.95891C28.0316 6.90672 29.3247 6.33672 30.6609 6.39321C32.0439 6.45235 33.3466 7.18016 34.235 8.38993C35.6959 10.3791 35.7195 13.0074 34.2913 14.6396L13.0794 38.4275C12.272 39.35 11.1445 39.9073 9.91103 39.9895C9.80634 39.9966 9.70149 40 9.59743 40Z" fill="#00572E"/>
<path d="M15.7998 12.9569L15.7751 12.9285L14.1069 11.0223L17.5723 8.85781C19.0905 7.9096 21.0171 7.91359 22.5313 8.86781L25.9133 10.9992L27.9393 8.68421C29.0782 7.38296 30.9284 7.18906 32.2883 8.02062L22.4794 1.81468C20.9634 0.86351 19.0366 0.86351 17.5205 1.81468L7.71171 8.02062C5.09616 9.82242 5.4896 12.7166 6.53765 13.9145L14.9244 23.3197L20.0001 17.6493L15.7998 12.9569Z" fill="#C2E0CF"/>
<path d="M14.9243 24.4209C14.924 24.4209 14.9237 24.4209 14.9233 24.4209C14.6096 24.4206 14.3111 24.2866 14.1024 24.0526L5.71577 14.6474C4.89874 13.7137 4.50194 12.2862 4.67343 10.9137C4.80679 9.8468 5.33374 8.32164 7.08694 7.11375C7.09882 7.1057 7.11069 7.09766 7.12296 7.09008L16.9319 0.884141C17.8548 0.305078 18.9145 0 20.0001 0C21.0856 0 22.1453 0.305078 23.0648 0.881875L32.8323 7.06164C33.1663 7.2507 33.3918 7.60938 33.3918 8.02063C33.3918 8.61398 32.9226 9.09758 32.335 9.12102C32.1247 9.12938 31.9076 9.07859 31.7137 8.96016C31.3514 8.73859 30.9324 8.62148 30.5021 8.62148C29.8286 8.62148 29.2126 8.90141 28.768 9.40953L26.7421 11.7245C26.3853 12.1322 25.7848 12.2201 25.3262 11.9309L21.9442 9.79953C21.3744 9.44039 20.7173 9.25078 20.0439 9.25078C19.3755 9.25078 18.7227 9.43789 18.1559 9.79195L15.7879 11.2711L16.6253 12.2279L20.8207 16.9149C21.1949 17.333 21.1949 17.9659 20.8207 18.384L15.7451 24.0543C15.5359 24.2876 15.2375 24.4209 14.9243 24.4209ZM8.31968 8.93906C7.25233 9.68141 6.93593 10.5704 6.85882 11.1867C6.75132 12.0467 7.03624 12.8121 7.36632 13.1891L14.9259 21.6666L18.5219 17.6492L14.9793 13.6915C14.976 13.6878 14.9728 13.6841 14.9696 13.6804L14.9448 13.652L13.2782 11.7477C13.0655 11.5047 12.9703 11.1807 13.0175 10.8613C13.0648 10.542 13.2496 10.2593 13.5235 10.0883L16.9891 7.92375C17.9062 7.35086 18.9625 7.04813 20.0438 7.04813C21.1335 7.04813 22.1967 7.35516 23.1184 7.93609L25.7043 9.56578L27.1105 7.95891C27.4954 7.51914 27.9569 7.16367 28.4662 6.90562L21.8905 2.74539C21.3258 2.39102 20.6707 2.2025 19.9999 2.2025C19.3291 2.2025 18.674 2.39102 18.1058 2.7475L8.31968 8.93906Z" fill="#00572E"/>
<path d="M33.4622 32.6888L25.0757 23.3197L20 29.0118L27.7426 37.6946C29.0252 39.1602 31.2531 39.3083 32.7185 38.0255L33.1313 37.6642C34.5965 36.3816 34.7447 34.1541 33.4622 32.6888Z" fill="#C2E0CF"/>
<path d="M30.3978 39.9998C30.3977 39.9998 30.3976 39.9998 30.3975 39.9998C29.0623 39.9997 27.7927 39.4239 26.914 38.4199L19.1781 29.7447C18.8057 29.3271 18.8057 28.6964 19.1781 28.2788L24.2537 22.5867C24.4626 22.3526 24.761 22.2187 25.0746 22.2184C25.0749 22.2184 25.0754 22.2184 25.0757 22.2184C25.389 22.2184 25.6873 22.3517 25.8962 22.5851L34.2827 31.9542C34.2853 31.9573 34.288 31.9604 34.2908 31.9634C35.9711 33.8833 35.7762 36.8123 33.8566 38.4927L33.4439 38.8541C32.6001 39.5929 31.5181 39.9998 30.3978 39.9998ZM21.4755 29.0116L28.5646 36.9616C29.0318 37.4953 29.6973 37.7971 30.3976 37.7971C30.3977 37.7971 30.3978 37.7971 30.3978 37.7971C30.9844 37.7971 31.5511 37.5839 31.9932 37.1968L32.4059 36.8355C33.4104 35.9563 33.5136 34.4245 32.6373 33.4184L25.0773 24.9727L21.4755 29.0116Z" fill="#00572E"/>
</svg>
