<svg width="24" height="24" viewBox="0 0 24 24" fill="none" xmlns="http://www.w3.org/2000/svg">
<g clip-path="url(#clip0_76_1827)">
<path fill-rule="evenodd" clip-rule="evenodd" d="M18.4176 15.3977C18.6978 15.3471 18.966 15.5333 19.0166 15.8135L19.3249 17.5203L22.3694 16.9704L22.0611 15.2637C22.0105 14.9834 22.1967 14.7152 22.4769 14.6646C22.7571 14.614 23.0253 14.8002 23.076 15.0804L23.4758 17.2946C23.5265 17.5748 23.3403 17.843 23.0601 17.8936L19.0007 18.6267C18.7205 18.6774 18.4523 18.4912 18.4017 18.211L18.0018 15.9968C17.9512 15.7166 18.1373 15.4483 18.4176 15.3977Z" fill="#217B56"/>
<path fill-rule="evenodd" clip-rule="evenodd" d="M16.6823 2.75488C16.9601 2.70465 17.2467 2.74873 17.4965 2.8801C17.7464 3.01149 17.9452 3.22268 18.0613 3.48006L20.3629 8.58412C20.48 8.84372 20.3644 9.14906 20.1048 9.26613C19.8452 9.38319 19.5399 9.26764 19.4228 9.00805L17.1212 3.90397C17.0997 3.85631 17.0629 3.81719 17.0166 3.79286C16.9703 3.76853 16.9172 3.76037 16.8658 3.76968L3.99539 6.09408C3.99537 6.09408 3.99542 6.09407 3.99539 6.09408C3.94399 6.10338 3.89709 6.12961 3.86229 6.16857C3.82747 6.20755 3.80668 6.25704 3.80322 6.30919L3.43197 11.896C3.41309 12.1802 3.16744 12.3952 2.88329 12.3763C2.59915 12.3575 2.38411 12.1118 2.40299 11.8277L2.77423 6.2409C2.77423 6.24089 2.77423 6.24092 2.77423 6.2409C2.79293 5.95931 2.90521 5.692 3.09323 5.48154C3.28125 5.27106 3.53423 5.12947 3.81196 5.07927L16.6823 2.75488C16.6823 2.75489 16.6824 2.75487 16.6823 2.75488Z" fill="#217B56"/>
<path fill-rule="evenodd" clip-rule="evenodd" d="M2.49386 11.5678C2.57184 11.4555 2.69125 11.3787 2.82582 11.3544L19.8012 8.28867C19.9358 8.26436 20.0745 8.29451 20.1868 8.37249L21.6742 9.40478C21.9499 9.59611 22.1384 9.88914 22.1981 10.2194L23.076 15.0804C23.1266 15.3606 22.9405 15.6288 22.6602 15.6795L2.73263 19.2784C2.45239 19.329 2.18418 19.1429 2.13357 18.8626L1.2557 14.0017C1.19612 13.6715 1.27015 13.3309 1.46153 13.0552C1.46154 13.0552 1.46151 13.0553 1.46153 13.0552L2.49386 11.5678ZM3.21928 12.3313L2.30872 13.6432C2.2733 13.6943 2.25953 13.7573 2.27053 13.8185C2.27054 13.8185 2.27052 13.8184 2.27053 13.8185L3.05676 18.1719L21.9696 14.7563L21.1833 10.4029C21.1833 10.4029 21.1833 10.403 21.1833 10.4029C21.1723 10.3418 21.1373 10.2875 21.0863 10.2521L19.7743 9.34146L3.21928 12.3313Z" fill="#217B56"/>
<path fill-rule="evenodd" clip-rule="evenodd" d="M5.25408 14.2502C4.92289 14.31 4.7029 14.627 4.76271 14.9582C4.82253 15.2894 5.1395 15.5094 5.47069 15.4496C5.80188 15.3897 6.02187 15.0728 5.96206 14.7416C5.90225 14.4104 5.58528 14.1904 5.25408 14.2502ZM3.74788 15.1415C3.58684 14.2498 4.17914 13.3964 5.07081 13.2354C5.96247 13.0743 6.81586 13.6666 6.97689 14.5583C7.13793 15.45 6.54563 16.3034 5.65397 16.4644C4.7623 16.6254 3.90892 16.0331 3.74788 15.1415Z" fill="#217B56"/>
<path fill-rule="evenodd" clip-rule="evenodd" d="M18.5392 11.8509C18.2081 11.9107 17.9881 12.2277 18.0479 12.5589C18.1077 12.8901 18.4247 13.1101 18.7558 13.0503C19.087 12.9904 19.307 12.6735 19.2472 12.3423C19.1874 12.0111 18.8704 11.7911 18.5392 11.8509ZM17.033 12.7422C16.872 11.8505 17.4643 10.9971 18.356 10.8361C19.2476 10.675 20.101 11.2673 20.262 12.159C20.4231 13.0507 19.8308 13.9041 18.9391 14.0651C18.0475 14.2261 17.1941 13.6338 17.033 12.7422Z" fill="#217B56"/>
<path fill-rule="evenodd" clip-rule="evenodd" d="M9.65243 14.0751C9.60182 13.7949 9.78797 13.5267 10.0682 13.4761L13.7585 12.8096C14.0387 12.759 14.307 12.9451 14.3576 13.2254C14.4082 13.5056 14.222 13.7738 13.9418 13.8244L10.2515 14.4909C9.97125 14.5415 9.70304 14.3553 9.65243 14.0751Z" fill="#217B56"/>
<path fill-rule="evenodd" clip-rule="evenodd" d="M22.9688 20.5312H1.03125V22.5938H22.9688V20.5312ZM0 19.5V23.625H24V19.5H0Z" fill="#EB2227"/>
<path fill-rule="evenodd" clip-rule="evenodd" d="M18.0212 4.54491C18.2035 4.76367 18.1739 5.08881 17.9551 5.27112L15.8279 7.04385C15.6417 7.19902 15.4002 7.2716 15.1593 7.24483L11.9431 6.88747C11.6601 6.85602 11.4561 6.60109 11.4876 6.31806C11.519 6.03503 11.774 5.83108 12.057 5.86253L15.2137 6.21327L17.295 4.47889C17.5137 4.29658 17.8389 4.32614 18.0212 4.54491Z" fill="#217B56"/>
<path fill-rule="evenodd" clip-rule="evenodd" d="M7.0895 8.24623L9.51942 9.46119C9.77413 9.58854 10.0839 9.4853 10.2112 9.23059C10.3386 8.97589 10.2353 8.66616 9.98061 8.53881L7.49749 7.29725C7.28209 7.18955 7.03227 7.17367 6.80497 7.25322L3.20468 8.51332C2.9359 8.6074 2.79427 8.90155 2.88834 9.17034C2.98242 9.43912 3.27657 9.58075 3.54536 9.48668L7.0895 8.24623Z" fill="#217B56"/>
<path fill-rule="evenodd" clip-rule="evenodd" d="M14.3129 6.48676C14.5618 6.62506 14.6515 6.93897 14.5132 7.18791L13.5757 8.87541C13.4374 9.12434 13.1235 9.21403 12.8746 9.07574C12.6256 8.93744 12.5359 8.62352 12.6742 8.37459L13.6117 6.68709C13.75 6.43815 14.0639 6.34846 14.3129 6.48676Z" fill="#217B56"/>
</g>
<defs>
<clipPath id="clip0_76_1827">
<rect width="24" height="24" fill="white"/>
</clipPath>
</defs>
</svg>
