<svg width="40" height="40" viewBox="0 0 40 40" fill="none" xmlns="http://www.w3.org/2000/svg">
<path d="M25.4452 23.7184C24.867 23.7184 24.3981 23.2495 24.3981 22.6713V12.4941C24.3981 11.9157 24.867 11.447 25.4452 11.447C26.0234 11.447 26.4924 11.9158 26.4924 12.4941V22.6712C26.4924 23.2495 26.0235 23.7184 25.4452 23.7184Z" fill="#00572E"/>
<path d="M10.4713 19.6246C10.3514 19.6246 10.2297 19.6039 10.1107 19.5602C9.56772 19.3609 9.28913 18.7594 9.4885 18.2165L12.0844 11.1434C13.1878 8.13664 16.0813 6.11641 19.2843 6.11641H25.2193C28.4223 6.11641 31.3156 8.13664 32.4191 11.1434L33.4255 13.8856C33.6248 14.4286 33.3462 15.0302 32.8033 15.2294C32.2601 15.4287 31.6587 15.15 31.4596 14.6072L30.4532 11.865C29.651 9.67922 27.5477 8.21071 25.2194 8.21071H19.2844C16.956 8.21071 14.8527 9.67922 14.0505 11.865L11.4547 18.9381C11.2989 19.3618 10.898 19.6246 10.4713 19.6246Z" fill="#00572E"/>
<path d="M31.3965 33.8837C28.7303 33.8837 26.5612 31.7147 26.5612 29.0484C26.5612 26.3822 28.7303 24.2132 31.3965 24.2132C31.9747 24.2132 32.4436 24.682 32.4436 25.2603C32.4436 25.8386 31.9747 26.3074 31.3965 26.3074C29.8851 26.3074 28.6554 27.537 28.6554 29.0484C28.6554 30.5597 29.885 31.7893 31.3965 31.7893C31.9747 31.7893 32.4436 32.2581 32.4436 32.8364C32.4436 33.4148 31.9747 33.8837 31.3965 33.8837Z" fill="#00572E"/>
<path d="M10.174 33.8837C7.50789 33.8837 5.33875 31.7147 5.33875 29.0484C5.33875 26.3822 7.50789 24.2132 10.174 24.2132C12.8402 24.2132 15.0093 26.3823 15.0093 29.0484C15.0093 31.7145 12.8402 33.8837 10.174 33.8837ZM10.174 26.3075C8.66257 26.3075 7.43304 27.5371 7.43304 29.0484C7.43304 30.5598 8.66257 31.7894 10.174 31.7894C11.6854 31.7894 12.9151 30.5598 12.9151 29.0484C12.9151 27.537 11.6854 26.3075 10.174 26.3075Z" fill="#00572E"/>
<path d="M5.54149 18.5772H29.9483C34.9214 18.5772 38.953 22.6087 38.953 27.5819V28.8388H35.1786C35.1767 28.8044 35.1744 28.7701 35.1716 28.7359C35.0126 26.79 33.3834 25.2603 31.3966 25.2603C29.3749 25.2603 27.7234 26.8442 27.6145 28.8387H13.9561C13.8472 26.8442 12.1958 25.2603 10.1741 25.2603C8.15235 25.2603 6.50087 26.8442 6.39204 28.8387H2.61758V21.501C2.61758 19.8862 3.92672 18.5772 5.54149 18.5772Z" fill="#C2E0CF"/>
<path d="M38.9529 29.8859H35.1785C34.622 29.8859 34.1626 29.4505 34.133 28.8946C34.1316 28.8698 34.1299 28.8451 34.1278 28.8205C34.0127 27.4116 32.813 26.3075 31.3965 26.3075C29.9413 26.3075 28.7392 27.4444 28.66 28.8958C28.6298 29.4512 28.1705 29.8859 27.6144 29.8859H13.9561C13.4 29.8859 12.9409 29.4512 12.9105 28.8959C12.8312 27.4444 11.6293 26.3075 10.174 26.3075C8.71867 26.3075 7.51679 27.4444 7.4375 28.8959C7.40711 29.4512 6.94797 29.8859 6.39195 29.8859H2.61757C2.03937 29.8859 1.57047 29.4171 1.57047 28.8388V21.5011C1.57047 19.3115 3.35187 17.5302 5.54148 17.5302H29.9482C35.4909 17.5302 40 22.0394 40 27.5819V28.8389C40 29.4171 39.5312 29.8859 38.9529 29.8859ZM36.065 27.7916H37.9058V27.5818C37.9058 23.1941 34.336 19.6243 29.9483 19.6243H5.54148C4.50664 19.6243 3.66468 20.4662 3.66468 21.5009V27.7916H5.5039C6.05867 25.7213 7.94851 24.2131 10.174 24.2131C12.3995 24.2131 14.2894 25.7212 14.8441 27.7916H26.7264C27.2812 25.7212 29.171 24.2131 31.3966 24.2131C33.5994 24.2132 35.5052 25.728 36.065 27.7916Z" fill="#00572E"/>
<path d="M36.8937 19.6145H29.3984C28.8202 19.6145 28.3513 19.1457 28.3513 18.5674C28.3513 17.9891 28.8202 17.5203 29.3984 17.5203H36.8937C37.4719 17.5203 37.9408 17.9891 37.9408 18.5674C37.9408 19.1457 37.472 19.6145 36.8937 19.6145Z" fill="#00572E"/>
<path d="M1.04711 27.7565C0.468906 27.7565 0 27.2877 0 26.7094V22.5209C0 21.9425 0.468906 21.4738 1.04711 21.4738C1.62531 21.4738 2.09422 21.9426 2.09422 22.5209V26.7094C2.09422 27.2877 1.62531 27.7565 1.04711 27.7565Z" fill="#00572E"/>
</svg>
