<svg width="32" height="32" viewBox="0 0 32 32" fill="none" xmlns="http://www.w3.org/2000/svg">
<g clip-path="url(#clip0_1314_3784)">
<path fill-rule="evenodd" clip-rule="evenodd" d="M-6.03046 23.7901C-5.96166 23.4167 -5.60317 23.1698 -5.22976 23.2386L7.65387 25.6124C8.02728 25.6812 8.27422 26.0397 8.20542 26.4131C8.13662 26.7865 7.77814 27.0334 7.40472 26.9646L-5.47891 24.5908C-5.85232 24.522 -6.09926 24.1635 -6.03046 23.7901Z" fill="#217B56"/>
<path fill-rule="evenodd" clip-rule="evenodd" d="M-9.88035 15.6452C-10.4835 15.5341 -11.1061 15.6671 -11.6112 16.015C-12.1163 16.363 -12.4625 16.8973 -12.5736 17.5004L-13.355 21.7415L-10.0482 22.3508C-9.67477 22.4196 -9.42783 22.7781 -9.49663 23.1515C-9.56543 23.5249 -9.92392 23.7719 -10.2973 23.7031L-14.2803 22.9692C-14.6537 22.9004 -14.9006 22.5419 -14.8318 22.1685L-13.9258 17.2513C-13.7486 16.2895 -13.1966 15.4375 -12.3912 14.8827C-11.5858 14.3279 -10.593 14.1158 -9.6312 14.293L-4.71397 15.199C-4.6413 15.2124 -4.57126 15.2374 -4.50656 15.2731L-1.83511 16.7462L13.7903 19.6252C14.7521 19.8024 15.6041 20.3545 16.1589 21.1599C16.7137 21.9653 16.9258 22.9581 16.7486 23.9199L16.0238 27.8536C15.955 28.227 15.5965 28.474 15.2231 28.4052L12.2236 27.8525C11.8502 27.7837 11.6032 27.4252 11.6721 27.0518C11.7409 26.6784 12.0993 26.4315 12.4727 26.5003L14.7961 26.9284L15.3964 23.6707C15.5075 23.0675 15.3745 22.4449 15.0266 21.9399C14.6786 21.4348 14.1443 21.0886 13.5412 20.9775L-2.19398 18.0783C-2.26665 18.0649 -2.33669 18.0399 -2.40139 18.0042L-5.07284 16.531L-9.88035 15.6452Z" fill="#217B56"/>
<path fill-rule="evenodd" clip-rule="evenodd" d="M10.1766 25.4417C9.19213 25.2603 8.24703 25.9113 8.06565 26.8958C7.88427 27.8802 8.53528 28.8253 9.51972 29.0067C10.5042 29.1881 11.4493 28.5371 11.6306 27.5526C11.812 26.5682 11.161 25.6231 10.1766 25.4417ZM6.71341 26.6466C7.0324 24.9154 8.69445 23.7705 10.4257 24.0895C12.157 24.4085 13.3019 26.0705 12.9829 27.8018C12.6639 29.533 11.0018 30.6779 9.27057 30.3589C7.53931 30.04 6.39443 28.3779 6.71341 26.6466Z" fill="#217B56"/>
<path fill-rule="evenodd" clip-rule="evenodd" d="M7.1201 12.8663C7.48851 12.7744 7.86166 12.9986 7.95354 13.367L9.41556 19.229C9.47213 19.4558 9.40958 19.6958 9.24951 19.8661C9.08945 20.0365 8.8538 20.1138 8.62392 20.0715L4.90895 19.387C4.53554 19.3182 4.2886 18.9597 4.35741 18.5863C4.42621 18.2129 4.78469 17.9659 5.1581 18.0347L7.82305 18.5257L6.61941 13.6998C6.52752 13.3313 6.75169 12.9582 7.1201 12.8663Z" fill="#217B56"/>
<path fill-rule="evenodd" clip-rule="evenodd" d="M30.1875 11.8125C30.5672 11.8125 30.875 12.1203 30.875 12.5V19.5C30.875 19.8797 30.5672 20.1875 30.1875 20.1875C29.8078 20.1875 29.5 19.8797 29.5 19.5V12.5C29.5 12.1203 29.8078 11.8125 30.1875 11.8125Z" fill="#217B56"/>
<path fill-rule="evenodd" clip-rule="evenodd" d="M20 19.5C20 19.1203 20.3078 18.8125 20.6875 18.8125H39.6875C40.0672 18.8125 40.375 19.1203 40.375 19.5C40.375 19.8797 40.0672 20.1875 39.6875 20.1875H20.6875C20.3078 20.1875 20 19.8797 20 19.5Z" fill="#217B56"/>
<path fill-rule="evenodd" clip-rule="evenodd" d="M22.5362 13.4408C22.96 12.4535 23.9313 11.8125 25.0065 11.8125H34.527C35.4911 11.8125 36.3819 12.3291 36.8604 13.1664L40.0865 18.8125H45.1875C46.6717 18.8125 47.875 20.0158 47.875 21.5V27.5C47.875 27.8797 47.5672 28.1875 47.1875 28.1875H44.1875C43.8078 28.1875 43.5 27.8797 43.5 27.5C43.5 27.1203 43.8078 26.8125 44.1875 26.8125H46.5V21.5C46.5 20.7752 45.9123 20.1875 45.1875 20.1875H39.6875C39.4408 20.1875 39.213 20.0553 39.0906 19.8411L35.6666 13.8486C35.4331 13.4399 34.9979 13.1875 34.527 13.1875H25.0065C24.4818 13.1875 24.0072 13.5003 23.7999 13.9828M23.7999 13.9828L21.3194 19.7708C21.2111 20.0236 20.9625 20.1875 20.6875 20.1875H19.1875C18.4627 20.1875 17.875 20.7752 17.875 21.5V26.8125H20.1875C20.5672 26.8125 20.875 27.1203 20.875 27.5C20.875 27.8797 20.5672 28.1875 20.1875 28.1875H17.1875C16.8078 28.1875 16.5 27.8797 16.5 27.5V21.5C16.5 20.0158 17.7033 18.8125 19.1875 18.8125H20.2342L22.5362 13.4408" fill="#217B56"/>
<path fill-rule="evenodd" clip-rule="evenodd" d="M25.5 27.5C25.5 27.1203 25.8078 26.8125 26.1875 26.8125H38.1875C38.5672 26.8125 38.875 27.1203 38.875 27.5C38.875 27.8797 38.5672 28.1875 38.1875 28.1875H26.1875C25.8078 28.1875 25.5 27.8797 25.5 27.5Z" fill="#217B56"/>
<path fill-rule="evenodd" clip-rule="evenodd" d="M23.1875 25.1875C21.9103 25.1875 20.875 26.2228 20.875 27.5C20.875 28.7772 21.9103 29.8125 23.1875 29.8125C24.4647 29.8125 25.5 28.7772 25.5 27.5C25.5 26.2228 24.4647 25.1875 23.1875 25.1875ZM19.5 27.5C19.5 25.4634 21.1509 23.8125 23.1875 23.8125C25.2241 23.8125 26.875 25.4634 26.875 27.5C26.875 29.5366 25.2241 31.1875 23.1875 31.1875C21.1509 31.1875 19.5 29.5366 19.5 27.5Z" fill="#217B56"/>
<path fill-rule="evenodd" clip-rule="evenodd" d="M14.1135 0.391235L19.157 5.43474L25.2382 2.82852L23.7105 9.19391L31.277 6.59966L31.723 7.90034L21.7895 11.3061L23.2618 5.17148L18.843 7.06527L14.3865 2.60877L10.8112 8.56755L3.63768 6.32582L5.76489 11.9984L0.459625 11.6863L0.540368 10.3137L3.7351 10.5016L1.36232 4.17419L10.1888 6.93246L14.1135 0.391235Z" fill="#EB2227"/>
</g>
<defs>
<clipPath id="clip0_1314_3784">
<rect width="32" height="32" fill="white"/>
</clipPath>
</defs>
</svg>
