<svg width="94" height="64" viewBox="0 0 94 64" fill="none" xmlns="http://www.w3.org/2000/svg">
    <path d="M93.8614 40.2126C93.8614 37.6546 92.8452 35.2014 91.0365 33.3926C89.2277 31.5838 86.7745 30.5677 84.2165 30.5677H83.7419C84.5159 29.0992 84.8973 27.4557 84.8492 25.7965C84.801 24.1373 84.325 22.5186 83.4672 21.0975C82.6094 19.6764 81.399 18.501 79.9533 17.6854C78.5076 16.8697 76.8756 16.4415 75.2157 16.4421H18.6457C16.9858 16.4415 15.3538 16.8697 13.9081 17.6854C12.4624 18.501 11.252 19.6764 10.3942 21.0975C9.5364 22.5186 9.06037 24.1373 9.01225 25.7965C8.96413 27.4557 9.34555 29.0992 10.1195 30.5677H9.64492C7.08693 30.5677 4.63371 31.5838 2.82493 33.3926C1.01616 35.2014 0 37.6546 0 40.2126C0 42.7706 1.01616 45.2238 2.82493 47.0326C4.63371 48.8414 7.08693 49.8575 9.64492 49.8575H10.1195C9.34555 51.326 8.96413 52.9695 9.01225 54.6287C9.06037 56.2879 9.5364 57.9066 10.3942 59.3277C11.252 60.7488 12.4624 61.9242 13.9081 62.7398C15.3538 63.5555 16.9858 63.9837 18.6457 63.9831H75.2157C76.8756 63.9837 78.5076 63.5555 79.9533 62.7398C81.399 61.9242 82.6094 60.7488 83.4672 59.3277C84.325 57.9066 84.801 56.2879 84.8492 54.6287C84.8973 52.9695 84.5159 51.326 83.7419 49.8575H84.2165C85.4831 49.8575 86.7373 49.608 87.9074 49.1233C89.0776 48.6386 90.1409 47.9282 91.0365 47.0326C91.9321 46.137 92.6425 45.0737 93.1272 43.9036C93.6119 42.7334 93.8614 41.4792 93.8614 40.2126Z" fill="#19B5FE"/>
    <g style="mix-blend-mode:soft-light" opacity="0.5">
        <path d="M93.8614 40.2126C93.8614 37.6546 92.8452 35.2014 91.0365 33.3926C89.2277 31.5838 86.7745 30.5677 84.2165 30.5677H83.7419C84.5159 29.0992 84.8973 27.4557 84.8492 25.7965C84.801 24.1373 84.325 22.5186 83.4672 21.0975C82.6094 19.6764 81.399 18.501 79.9533 17.6854C78.5076 16.8697 76.8756 16.4415 75.2157 16.4421H18.6457C16.9858 16.4415 15.3538 16.8697 13.9081 17.6854C12.4624 18.501 11.252 19.6764 10.3942 21.0975C9.5364 22.5186 9.06037 24.1373 9.01225 25.7965C8.96413 27.4557 9.34555 29.0992 10.1195 30.5677H9.64492C7.08693 30.5677 4.63371 31.5838 2.82493 33.3926C1.01616 35.2014 0 37.6546 0 40.2126C0 42.7706 1.01616 45.2238 2.82493 47.0326C4.63371 48.8414 7.08693 49.8575 9.64492 49.8575H10.1195C9.37628 51.2482 8.9881 52.8009 8.9895 54.3777C8.9895 54.6659 8.9895 54.9427 9.02905 55.2309C9.0686 55.519 9.09685 55.762 9.14205 56.0276C9.80603 56.1448 10.4793 56.2015 11.1535 56.1971C17.1258 56.1971 17.1258 52.3436 23.1037 52.3436C29.0817 52.3436 29.076 56.1971 35.0539 56.1971C41.0319 56.1971 41.0375 52.321 47.0098 52.321C52.9821 52.321 52.9877 56.1745 58.9657 56.1745C64.9436 56.1745 64.9379 52.321 70.9159 52.321C76.8938 52.321 76.8938 56.1745 82.8717 56.1745C83.4848 56.1777 84.0971 56.1305 84.7024 56.0332C84.7533 55.762 84.7872 55.4682 84.8154 55.2196C84.8437 54.971 84.8606 54.6546 84.8606 54.3551C84.862 52.7783 84.4738 51.2256 83.7306 49.8349H84.2052C86.7612 49.8379 89.2139 48.8262 91.0245 47.022C92.8351 45.2178 93.8554 42.7686 93.8614 40.2126Z" fill="white"/>
    </g>
    <g style="mix-blend-mode:soft-light" opacity="0.5">
        <path d="M84.2165 30.5677H83.7419C84.5159 29.0992 84.8973 27.4557 84.8492 25.7965C84.801 24.1373 84.325 22.5186 83.4672 21.0975C82.6094 19.6764 81.399 18.501 79.9533 17.6854C78.5076 16.8697 76.8756 16.4415 75.2157 16.4421H18.6457C16.9858 16.4415 15.3538 16.8697 13.9081 17.6854C12.4624 18.501 11.252 19.6764 10.3942 21.0975C9.5364 22.5186 9.06037 24.1373 9.01225 25.7965C8.96413 27.4557 9.34556 29.0992 10.1195 30.5677H9.64492C7.39286 30.5685 5.21215 31.3578 3.48131 32.7986C1.75046 34.2394 0.578736 36.2408 0.16951 38.4554C4.57668 38.7944 5.37336 41.4669 9.29461 42.1224C9.54319 42.1692 9.79401 42.2031 10.0461 42.2241H10.1647C10.4755 42.2241 10.7976 42.2636 11.1479 42.2636C17.1371 42.2749 17.1371 38.4215 23.1094 38.4215H23.1659C23.488 38.4215 23.7874 38.4215 24.0756 38.4554L24.4541 38.5006C24.6236 38.5006 24.7988 38.5401 24.957 38.5684C25.1152 38.5966 25.2226 38.6192 25.3525 38.6475L25.748 38.7379L26.1266 38.8509L26.4543 38.9583L26.8103 39.0939L27.0984 39.2238L27.4375 39.382L27.6917 39.512L28.0138 39.6928C28.0929 39.738 28.172 39.7832 28.2454 39.834C28.3189 39.8849 28.4997 39.9866 28.624 40.0657C29.076 40.3482 29.5111 40.6307 29.9744 40.9132L30.0761 40.9754L30.4886 41.2014L30.6468 41.2861L31.0649 41.4839L31.2514 41.5687C31.3983 41.6308 31.5508 41.6873 31.709 41.7438L31.9068 41.8116L32.4153 41.9642L32.6131 42.0094C32.8052 42.0489 32.9973 42.0941 33.2063 42.128C33.4135 42.1619 33.6282 42.1902 33.8505 42.2128H33.9013H34.0539C34.3533 42.2128 34.6697 42.2523 35.0031 42.2523H35.037C41.0432 42.2749 41.0488 38.4215 47.0155 38.4215C47.3714 38.4215 47.7048 38.4215 48.0212 38.4667L48.2585 38.4949C48.4902 38.4949 48.7162 38.5458 48.9252 38.5797L49.1625 38.6305C49.3603 38.6701 49.5581 38.7096 49.7276 38.7605L49.9253 38.817C50.1174 38.8791 50.3039 38.9356 50.4903 39.0035L50.6203 39.0543C50.8293 39.1391 51.0271 39.2238 51.1853 39.3142C52.7561 40.077 53.8635 41.1505 55.6659 41.7664C55.8806 41.8399 56.101 41.902 56.3383 41.9642H56.3722C56.8876 42.0936 57.4131 42.1786 57.943 42.2184C58.2424 42.2184 58.5532 42.258 58.8866 42.258H58.9431C59.1521 42.258 59.3499 42.258 59.5476 42.258C59.9509 42.2436 60.3528 42.204 60.7511 42.1393C61.0157 42.0966 61.2779 42.04 61.5365 41.9698C63.9774 41.3313 65.1413 39.8736 67.2771 39.0374C67.4918 38.9526 67.7122 38.8792 67.9439 38.8113H68.0286C68.249 38.7492 68.4863 38.6927 68.7349 38.6475H68.8535C69.1078 38.6023 69.379 38.5684 69.6672 38.5401H69.7745C70.1022 38.5401 70.4469 38.4949 70.8142 38.4949C76.7865 38.4949 76.7864 42.354 82.7644 42.354C82.996 42.354 83.2051 42.354 83.4255 42.354H83.7249C83.9566 42.354 84.1713 42.3032 84.3803 42.2749L84.6459 42.241L85.1657 42.128C85.2618 42.128 85.3691 42.0885 85.4595 42.0602C85.5499 42.032 85.7533 41.9698 85.9002 41.9246L86.1941 41.8286L86.567 41.676L86.8608 41.546C86.9738 41.4952 87.0811 41.4387 87.1885 41.3822L87.4823 41.224C87.5784 41.1731 87.6744 41.1223 87.7648 41.0658L88.0869 40.8737L88.3072 40.7381C88.5276 40.5912 88.7536 40.4499 88.9796 40.3087L89.426 40.0261L89.6124 39.9188L89.991 39.6984L90.217 39.5798L90.5899 39.3933L90.8611 39.2747L91.2454 39.1165L91.5674 39.0091L91.9629 38.8848L92.3585 38.7944L92.7709 38.704C92.9348 38.704 93.1099 38.6588 93.2851 38.6362L93.5676 38.6023C93.1909 36.3826 92.05 34.3644 90.3423 32.8971C88.6346 31.4298 86.4676 30.6058 84.2165 30.5677Z" fill="white"/>
    </g>
    <g style="mix-blend-mode:soft-light" opacity="0.5">
        <path d="M84.6685 27.9629C84.7538 27.5397 84.8104 27.1112 84.838 26.6803C84.838 26.5221 84.838 26.3639 84.838 26.2C84.838 26.0362 84.838 25.8949 84.838 25.748C84.838 25.748 84.838 25.7028 84.838 25.6802C84.7507 24.3252 84.3771 23.0042 83.7419 21.8042H83.8436C83.0496 20.1944 81.8204 18.8393 80.2954 17.8925C78.7704 16.9458 77.0106 16.4453 75.2157 16.4478H18.6457C16.8508 16.4488 15.0917 16.9507 13.5665 17.897C12.0412 18.8433 10.8103 20.1964 10.0122 21.8042H10.1195C9.49072 22.9976 9.12285 24.3112 9.04035 25.6576C9.03757 25.6801 9.03757 25.7029 9.04035 25.7254C9.04035 25.8723 9.04035 26.0249 9.04035 26.1774C9.04035 26.33 9.04035 26.4995 9.04035 26.6634C9.06792 27.0867 9.12456 27.5077 9.20986 27.9234C9.86304 28.0353 10.5247 28.0901 11.1874 28.0872C17.1597 28.0872 17.1597 24.2338 23.1376 24.2338C29.1156 24.2338 29.1099 28.0872 35.0879 28.0872C41.0658 28.0872 41.0601 24.2338 47.0324 24.2338C53.0047 24.2338 53.0103 28.0872 58.9883 28.0872C64.9662 28.0872 64.9605 24.2338 70.9385 24.2338C76.9164 24.2338 76.9164 28.0872 82.8943 28.0872C83.4881 28.0949 84.0816 28.0533 84.6685 27.9629Z" fill="white"/>
    </g>
    <path d="M30.5425 39.6521L21.0441 41.3269L22.7189 50.8253L32.2173 49.1505L30.5425 39.6521Z" fill="#22313F"/>
    <path d="M76.7565 31.5014L67.2581 33.1763L68.9329 42.6747L78.4313 40.9998L76.7565 31.5014Z" fill="#22313F"/>
    <path d="M67.8026 10.2324C68.7138 9.16688 69.9885 8.47813 71.3792 8.30005C73.2777 7.96669 74.6507 8.37351 74.9897 10.272C75.3287 12.1705 74.1704 13.0293 72.9047 13.2496L68.4693 14.035L67.8026 10.2324Z" fill="#22313F"/>
    <path d="M22.1997 18.2727C20.9796 17.5806 19.5456 17.3671 18.1767 17.6738C16.2783 18.0128 15.1256 18.866 15.459 20.7645C15.7924 22.6629 17.1541 23.0754 18.4367 22.855L22.8721 22.0697L22.1997 18.2727Z" fill="#22313F"/>
    <path d="M64.0735 2.22054C63.6284 1.58119 63.0455 1.04981 62.3679 0.66552C61.6902 0.281228 60.935 0.053807 60.1579 0C54.0042 0.0735243 47.8674 0.66131 41.8116 1.75722C31.3587 3.59919 25.8384 5.94403 25.8384 5.94403C25.1346 6.29235 24.5133 6.78715 24.0163 7.39523C23.5193 8.00332 23.1581 8.71064 22.9568 9.46976L19.4255 26.7594C19.1402 28.4294 19.1173 30.1337 19.3576 31.8107L21.3691 43.2242C21.4904 43.8952 21.8721 44.491 22.431 44.8816C22.9899 45.2722 23.6806 45.4259 24.3524 45.3091L75.0179 36.3761C75.6885 36.2562 76.2843 35.8756 76.675 35.3176C77.0657 34.7596 77.2196 34.0696 77.1029 33.3984L75.0914 21.985C74.7438 20.3251 74.1395 18.7295 73.3003 17.2558L64.0735 2.22054Z" fill="#EB2227"/>
    <g style="mix-blend-mode:multiply">
        <path d="M58.0221 28.9291L51.061 30.1552L44.7271 31.2853L37.7661 32.5001C28.7653 34.0878 22.3975 31.9351 19.222 30.3586C19.2386 30.8452 19.2858 31.3302 19.3633 31.8108L21.3748 43.2242C21.496 43.8952 21.8777 44.491 22.4366 44.8816C22.9956 45.2722 23.6863 45.4259 24.3581 45.3091L75.0236 36.3761C75.6942 36.2562 76.29 35.8757 76.6807 35.3176C77.0714 34.7596 77.2252 34.0696 77.1085 33.3985L75.097 21.985C75.0095 21.5228 74.8944 21.0662 74.7524 20.6177C70.1092 24.9658 64.2921 27.8557 58.0221 28.9291Z" fill="#F5DEA4"/>
    </g>
    <g style="mix-blend-mode:multiply">
        <path d="M21.0414 41.3257L21.3748 43.2242C21.496 43.8952 21.8777 44.491 22.4366 44.8817C22.9956 45.2723 23.6863 45.4259 24.3581 45.3091L75.0236 36.3761C75.6941 36.2562 76.29 35.8757 76.6807 35.3177C77.0714 34.7596 77.2252 34.0696 77.1085 33.3985L76.7752 31.5L21.0414 41.3257Z" fill="#F5DEA4"/>
    </g>
    <path d="M21.3409 28.2172C21.3409 28.2172 31.6977 27.686 32.6978 33.3928L22.6009 35.1782C22.6009 35.1782 22.2336 33.2798 21.3409 28.2172ZM72.012 19.2842C72.012 19.2842 62.1015 22.3353 63.1073 28.0307L73.2381 26.2452C73.2381 26.2452 72.8878 24.3468 72.012 19.2842Z" fill="white"/>
    <path d="M32.6978 33.3927L22.6009 35.1781L21.9454 31.4773C25.3845 32.6498 29.0107 33.1766 32.6413 33.0311C32.668 33.1502 32.6869 33.271 32.6978 33.3927ZM72.5827 22.533C69.7525 24.8207 66.5251 26.5675 63.0621 27.686C63.0621 27.8046 63.0621 27.9289 63.1073 28.0532L73.2381 26.2678C73.2381 26.2678 73.0517 25.1829 72.5827 22.533Z" fill="#C5EFF7"/>
    <path d="M60.1861 22.6743L33.5962 27.3583L37.766 32.5L58.0221 28.9291L60.1861 22.6743Z" fill="#34495E"/>
    <path d="M67.8026 11.9558L62.4292 3.23189C62.1479 2.8513 61.7938 2.53044 61.3873 2.28794C60.9809 2.04544 60.5303 1.88615 60.0618 1.81934C54.0555 1.97879 48.0699 2.59265 42.1563 3.65566C32.0763 5.43547 26.6521 7.70121 26.5956 7.72381C25.7585 8.1766 25.1348 8.94249 24.8609 9.85394L22.8043 19.8831L22.6009 20.8097L23.5275 20.6459L67.3506 12.922L68.2829 12.7582L67.8026 11.9558Z" fill="#4F6073"/>
    <path d="M63.0395 8.47539L62.6383 7.82562L58.977 1.84204C53.3356 2.06713 47.7159 2.67309 42.1563 3.65576C37.2209 4.47562 32.3633 5.70985 27.6352 7.34535L26.2227 14.2443L26.0701 14.9957L26.8272 14.8658L62.288 8.611L63.0395 8.47539Z" fill="#5D7187"/>
    <path d="M57.948 32.2038L38.9568 35.5525L39.7378 39.9817L58.729 36.6331L57.948 32.2038Z" fill="#C5EFF7"/>
    <g style="mix-blend-mode:multiply">
        <path d="M26.5165 39.0543C26.4574 38.7179 26.5343 38.3718 26.7303 38.0921C26.9263 37.8123 27.2254 37.6219 27.5618 37.5627L31.3587 36.8959C31.6943 36.8367 32.0397 36.9128 32.3192 37.1077C32.5988 37.3025 32.7898 37.6002 32.8504 37.9356L33.1837 39.834C33.2428 40.1704 33.1659 40.5166 32.9699 40.7963C32.7739 41.076 32.4748 41.2664 32.1384 41.3257L28.3415 41.9981C28.0055 42.0541 27.6609 41.976 27.3819 41.7805C27.1029 41.585 26.9118 41.2878 26.8498 40.9528L26.5165 39.0543ZM64.2034 34.3646C64.2627 34.701 64.4531 35.0001 64.7328 35.1961C65.0126 35.3921 65.3587 35.469 65.6951 35.4099L69.4977 34.7432C69.8341 34.6839 70.1331 34.4935 70.3292 34.2138C70.5252 33.9341 70.6021 33.5879 70.543 33.2515L70.2096 31.3531C70.1503 31.0167 69.9599 30.7176 69.6802 30.5216C69.4005 30.3256 69.0544 30.2487 68.7179 30.3078L64.921 30.9802C64.7521 31.0055 64.59 31.0643 64.4442 31.1531C64.2984 31.242 64.1718 31.359 64.0718 31.4974C63.9718 31.6358 63.9004 31.7928 63.8619 31.9592C63.8234 32.1255 63.8185 32.2979 63.8475 32.4662L64.2034 34.3646Z" fill="#A17F58"/>
    </g>
    <g style="mix-blend-mode:soft-light" opacity="0.41">
        <path d="M37.1954 4.64447L26.3357 20.1543L23.5444 20.6459L22.7534 20.7871L33.4154 5.5598C34.5454 5.26034 35.7998 4.95523 37.1954 4.64447ZM58.1012 14.5493L64.1017 5.98357L62.6326 3.59353L54.5415 15.1821L58.1012 14.5493ZM36.0484 18.4423L39.6306 17.8095L50.366 2.48608C49.2887 2.60286 48.1436 2.74411 46.9307 2.90985L36.0484 18.4423Z" fill="white"/>
    </g>
    <path opacity="0.84" d="M77.5379 35.9298L76.9051 32.342L76.7582 31.5001L74.6337 19.4482L72.7748 16.4253H21.5443L21.2505 17.8491C20.2564 17.5363 19.2 17.4761 18.1767 17.674C16.2783 18.013 15.1256 18.8662 15.459 20.7647C15.7924 22.6631 17.1541 23.0756 18.4367 22.8552L20.2956 22.5275L18.9169 29.3078L19.3633 31.8334L21.3748 43.2469L21.8211 45.7669L22.7195 50.8521L32.2062 49.157L31.3135 44.0718L68.0399 37.5967L68.9326 42.6818L78.4307 40.9868L77.5379 35.9298Z" fill="#19B5FE"/>
    <path opacity="0.84" d="M77.5379 35.9298L76.9051 32.342L76.7582 31.5001L74.6337 19.4482L72.7748 16.4253H21.5443L21.2505 17.8491C20.2564 17.5363 19.2 17.4761 18.1767 17.674C16.2783 18.013 15.1256 18.8662 15.459 20.7647C15.7924 22.6631 17.1541 23.0756 18.4367 22.8552L20.2956 22.5275L18.9169 29.3078L19.3633 31.8334L21.3748 43.2469L21.8211 45.7669L22.7195 50.8521L32.2062 49.157L31.3135 44.0718L68.0399 37.5967L68.9326 42.6818L78.4307 40.9868L77.5379 35.9298Z" fill="#19B5FE"/>
</svg>
