<svg width="127" height="64" viewBox="0 0 127 64" fill="none" xmlns="http://www.w3.org/2000/svg">
    <path opacity="0.29" d="M100.572 63.9999H1.2214C1.05456 64.011 0.887223 63.9877 0.729758 63.9315C0.572293 63.8752 0.428052 63.7872 0.305969 63.673C0.183886 63.5587 0.0865627 63.4206 0.0200265 63.2672C-0.0465097 63.1138 -0.0808411 62.9484 -0.0808411 62.7812C-0.0808411 62.614 -0.0465097 62.4486 0.0200265 62.2952C0.0865627 62.1418 0.183886 62.0037 0.305969 61.8894C0.428052 61.7752 0.572293 61.6872 0.729758 61.631C0.887223 61.5747 1.05456 61.5514 1.2214 61.5625H100.572C100.881 61.583 101.171 61.7203 101.383 61.9466C101.595 62.1729 101.713 62.4713 101.713 62.7812C101.713 63.0911 101.595 63.3895 101.383 63.6158C101.171 63.8421 100.881 63.9794 100.572 63.9999Z" fill="#48626B"/>
    <path d="M126.779 19.1995C126.78 17.838 126.485 16.4925 125.915 15.2559C125.346 14.0193 124.514 12.9211 123.479 12.0372C124.206 10.7826 124.485 9.31807 124.271 7.8839C124.056 6.44972 123.361 5.13099 122.298 4.14396C121.236 3.15694 119.87 2.56021 118.424 2.45163C116.978 2.34305 115.538 2.72906 114.34 3.54637C113.012 1.90414 111.172 0.754244 109.114 0.28039C107.056 -0.193464 104.899 0.0360648 102.987 0.932308C101.075 1.82855 99.5182 3.33979 98.5658 5.22461C97.6134 7.10942 97.3202 9.25905 97.733 11.3301C95.3706 11.9849 93.3572 13.5361 92.1215 15.6533C90.8858 17.7706 90.5254 20.2865 91.1171 22.6655L90.8385 22.553C90.8385 22.553 92.0599 26.2065 89.0118 27.4278C86.7404 28.3385 79.6692 28.7778 76.8193 31.6652C74.3818 34.1348 73.1658 34.7401 71.9444 34.7401C67.0695 34.7401 87.1797 41.4471 87.1797 41.4471C87.1797 41.4471 93.2867 40.3757 91.4653 39.0097C89.0279 37.1776 89.1564 36.2669 89.6386 35.8919C90.6872 35.0984 91.9779 34.6915 93.292 34.7401C99.1151 34.7401 104.381 36.3955 111.742 33.3634C113.129 33.1127 114.444 32.5544 115.588 31.7293C116.731 30.9043 117.676 29.8335 118.352 28.5957C120.668 28.3435 122.809 27.2448 124.364 25.5106C125.919 23.7764 126.779 21.5289 126.779 19.1995Z" fill="#D7E7F2"/>
    <path d="M114.286 10.9712C114.125 10.9712 113.97 10.9712 113.815 10.9712C113.592 9.96528 113.151 9.02076 112.522 8.20488C111.893 7.389 111.092 6.72183 110.176 6.25089C109.26 5.77995 108.251 5.51683 107.222 5.48025C106.192 5.44367 105.167 5.63455 104.22 6.03928C103.272 6.44401 102.426 7.05265 101.741 7.82184C101.056 8.59102 100.548 9.50185 100.255 10.4894C99.9622 11.477 99.8905 12.5171 100.045 13.5355C100.2 14.554 100.578 15.5258 101.151 16.3817C99.8618 17.1315 98.7921 18.2064 98.0486 19.4989C97.305 20.7915 96.9136 22.2565 96.9134 23.7476C96.9134 29.2332 89.6011 29.2332 82.8941 31.0653C76.1872 32.8974 78.0192 35.9401 78.0192 35.9401C78.0192 35.9401 84.1048 42.0578 84.7208 39.0097C85.3369 35.9615 88.3475 33.2884 93.2545 33.5241C102.945 33.9848 107.392 32.3509 108.983 31.5313C110.285 30.9367 111.416 30.024 112.273 28.8771C113.129 27.7303 113.684 26.3863 113.884 24.969C114.018 24.969 114.147 24.969 114.286 24.969C116.112 24.9185 117.845 24.1579 119.119 22.8488C120.392 21.5398 121.105 19.7856 121.105 17.9594C121.105 16.1332 120.392 14.379 119.119 13.0699C117.845 11.7609 116.112 11.0002 114.286 10.9497V10.9712Z" fill="#C8DAE8"/>
    <path d="M73.3908 56.077H14.63L2.91957 55.4663C2.91957 55.4663 -0.203561 46.3165 2.91957 41.9238L3.65883 35.3561C3.65883 35.3561 11.2497 23.7475 12.7979 23.1636C14.346 22.5797 18.1709 21.9636 40.2257 21.9636C47.0665 21.9636 51.9521 22.1458 56.077 23.7904C62.1679 26.2278 69.4695 34.4293 69.4695 34.4293C69.4695 34.4293 99.3669 36.5721 99.3669 46.954C99.3669 54.5663 99.3347 56.0984 99.3347 56.0984L73.3908 56.077Z" fill="#3FC380"/>
    <path d="M69.6409 35.3562C69.5183 35.357 69.3984 35.3196 69.2981 35.249C69.232 35.2039 69.1754 35.1462 69.1318 35.0791C69.0881 35.012 69.0582 34.937 69.0438 34.8582C69.0293 34.7795 69.0306 34.6987 69.0476 34.6205C69.0646 34.5423 69.0969 34.4683 69.1427 34.4026C69.6409 33.7062 80.8906 17.4478 89.9975 14.421C90.1471 14.3839 90.3051 14.4047 90.44 14.4793C90.5749 14.5539 90.6766 14.6767 90.7247 14.8231C90.7728 14.9695 90.7638 15.1287 90.6995 15.2687C90.6352 15.4088 90.5203 15.5193 90.3778 15.5782C81.6406 18.4763 70.2623 34.9223 70.1766 35.0883C70.1178 35.1752 70.0377 35.2455 69.9439 35.2924C69.85 35.3393 69.7457 35.3613 69.6409 35.3562Z" fill="#3FC380"/>
    <g style="mix-blend-mode:multiply" opacity="0.65">
        <path d="M99.3508 51.8075H14.6299L2.91956 48.2933C2.37258 47.1199 1.9783 45.8813 1.74638 44.6077C0.883902 48.4861 2.91956 55.4663 2.91956 55.4663L14.6299 56.077H99.3508C99.3508 56.077 99.3829 54.5449 99.3829 46.9326V46.8415C99.3722 50.8914 99.3508 51.8075 99.3508 51.8075Z" fill="#C8D9CB"/>
    </g>
    <g style="mix-blend-mode:multiply">
        <path d="M97.658 45.722C91.3367 39.6418 69.4856 39.6418 69.4856 39.6418H3.1767L3.65883 35.3562L2.91957 41.9239C-0.203561 46.3166 2.91957 55.4664 2.91957 55.4664L14.63 56.0771H99.3508C99.3508 56.0771 99.3829 54.5664 99.3829 47.1202C98.7087 46.792 98.1186 46.3137 97.658 45.722Z" fill="#AEE6BA"/>
    </g>
    <path d="M31.0705 53.6342C31.0716 55.4446 30.5352 57.2146 29.5294 58.7199C28.5236 60.2252 27.0936 61.3981 25.4206 62.0899C23.7476 62.7817 21.9068 62.9614 20.1316 62.6061C18.3564 62.2508 16.7266 61.3766 15.4487 60.0942C14.1708 58.8118 13.3023 57.1789 12.9533 55.4024C12.6043 53.626 12.7904 51.7859 13.4881 50.1154C14.1859 48.4448 15.3637 47.0189 16.8726 46.0184C18.3814 45.0179 20.1533 44.4878 21.9637 44.4952C24.3815 44.5051 26.6969 45.4722 28.4036 47.1848C30.1103 48.8975 31.0691 51.2164 31.0705 53.6342Z" fill="#22313F"/>
    <path d="M27.2766 54.8964C27.9726 51.9478 26.1464 48.9934 23.1978 48.2974C20.2493 47.6015 17.2948 49.4276 16.5989 52.3762C15.903 55.3248 17.7291 58.2792 20.6777 58.9752C23.6262 59.6711 26.5807 57.845 27.2766 54.8964Z" fill="#E4F1FE"/>
    <path d="M91.4278 53.6342C91.4289 55.443 90.8935 57.2115 89.8893 58.716C88.8851 60.2204 87.4574 61.3933 85.7865 62.0863C84.1157 62.7792 82.2769 62.9611 80.5027 62.6088C78.7285 62.2566 77.0987 61.3861 75.8193 60.1075C74.5399 58.8288 73.6684 57.1994 73.3151 55.4255C72.9619 53.6515 73.1426 51.8126 73.8346 50.1413C74.5265 48.4701 75.6986 47.0416 77.2025 46.0366C78.7064 45.0316 80.4746 44.4951 82.2834 44.4951C84.7077 44.4951 87.0328 45.4578 88.7476 47.1716C90.4623 48.8853 91.4264 51.2098 91.4278 53.6342Z" fill="#22313F"/>
    <path d="M87.769 53.6342C87.769 54.7192 87.4472 55.7798 86.8445 56.6819C86.2417 57.584 85.385 58.2871 84.3826 58.7022C83.3803 59.1174 82.2773 59.2261 81.2132 59.0144C80.1491 58.8027 79.1717 58.2803 78.4045 57.5131C77.6374 56.746 77.1149 55.7685 76.9033 54.7044C76.6916 53.6403 76.8002 52.5374 77.2154 51.535C77.6306 50.5327 78.3337 49.6759 79.2358 49.0732C80.1379 48.4704 81.1985 48.1487 82.2834 48.1487C83.7383 48.1487 85.1335 48.7266 86.1623 49.7554C87.191 50.7841 87.769 52.1794 87.769 53.6342Z" fill="#E4F1FE"/>
    <path d="M2.82849 42.0578H6.53553C6.53553 42.0578 7.96585 40.7828 10.0497 38.7043C12.1336 36.6258 10.0497 35.3508 10.0497 35.3508H3.65882L2.91956 41.9239L2.82849 42.0578Z" fill="#EC644B"/>
    <g style="mix-blend-mode:soft-light" opacity="0.35">
        <path d="M10.0497 35.3562H3.65883L3.1767 39.6418H9.06939H9.10689L10.0658 38.699C12.1282 36.6258 10.0497 35.3562 10.0497 35.3562Z" fill="#FFFBFA"/>
    </g>
    <path d="M85.3315 38.3989C85.3315 38.3989 96.3027 40.8364 96.3027 45.1059L92.6438 46.9326L85.3315 38.3989Z" fill="#C5EFF7"/>
    <path d="M85.3315 38.3989L88.01 41.5381C91.1974 42.256 94.1491 43.2524 96.2384 44.6184C95.4723 40.6542 85.3315 38.3989 85.3315 38.3989Z" fill="white"/>
    <path d="M43.2738 24.4011C48.0201 24.4654 52.0003 24.7653 55.1717 26.0349C58.9483 27.5456 63.4107 31.6812 65.8535 34.1347H43.2738V24.4011ZM19.5048 24.7386C16.6442 24.8939 14.7853 25.1028 13.88 25.3707C12.8782 26.2921 10.0658 30.192 7.39264 34.1347H19.5048V24.7386ZM39.6417 24.3796C32.4098 24.3796 26.785 24.46 22.5744 24.6046V34.1347H39.6417V24.3796Z" fill="#4F6073"/>
    <path d="M37.7882 31.0705H24.3957V24.5457C27.9581 24.4493 32.4312 24.3957 37.7882 24.385V31.0705ZM45.1059 31.0705H62.6179C60.3358 29.0617 57.6091 26.9939 55.1717 26.0189C52.4128 24.9154 49.0486 24.5457 45.1059 24.4118V31.0705ZM17.6781 24.8564C16.3986 24.9213 15.1275 25.1005 13.88 25.3921C13.1407 26.0671 11.4157 28.3653 9.49258 31.108H17.6781V24.8564Z" fill="#5D7187"/>
    <g style="mix-blend-mode:multiply">
        <path d="M48.7486 38.3989H44.463C44.2962 38.4099 44.1289 38.3866 43.9714 38.3304C43.8139 38.2741 43.6697 38.1862 43.5476 38.0719C43.4255 37.9577 43.3282 37.8196 43.2617 37.6662C43.1951 37.5128 43.1608 37.3473 43.1608 37.1801C43.1608 37.0129 43.1951 36.8475 43.2617 36.6941C43.3282 36.5407 43.4255 36.4026 43.5476 36.2884C43.6697 36.1741 43.8139 36.0861 43.9714 36.0299C44.1289 35.9737 44.2962 35.9504 44.463 35.9614H48.7486C48.9155 35.9504 49.0828 35.9737 49.2403 36.0299C49.3977 36.0861 49.542 36.1741 49.6641 36.2884C49.7861 36.4026 49.8835 36.5407 49.95 36.6941C50.0165 36.8475 50.0509 37.0129 50.0509 37.1801C50.0509 37.3473 50.0165 37.5128 49.95 37.6662C49.8835 37.8196 49.7861 37.9577 49.6641 38.0719C49.542 38.1862 49.3977 38.2741 49.2403 38.3304C49.0828 38.3866 48.9155 38.4099 48.7486 38.3989ZM29.2545 37.1775C29.2545 36.8549 29.1264 36.5456 28.8984 36.3176C28.6703 36.0895 28.361 35.9614 28.0385 35.9614H23.7529C23.4436 35.9819 23.1537 36.1193 22.942 36.3456C22.7302 36.5719 22.6124 36.8702 22.6124 37.1801C22.6124 37.4901 22.7302 37.7884 22.942 38.0147C23.1537 38.241 23.4436 38.3783 23.7529 38.3989H28.0385C28.1986 38.3989 28.3572 38.3672 28.5051 38.3058C28.653 38.2443 28.7873 38.1543 28.9003 38.0408C29.0133 37.9273 29.1027 37.7926 29.1635 37.6445C29.2243 37.4963 29.2552 37.3376 29.2545 37.1775Z" fill="#64B56C"/>
    </g>
    <g style="mix-blend-mode:soft-light" opacity="0.41">
        <path d="M8.53905 34.1347L17.8227 24.8457C18.3584 24.8082 18.8941 24.7707 19.5048 24.7386V26.6135L12.005 34.1133L8.53905 34.1347ZM50.9557 24.9314L43.2738 32.6133V34.1347H45.2023L53.7735 25.5635C52.8484 25.2939 51.9073 25.0828 50.9557 24.9314ZM19.5048 33.8294L19.2048 34.1347H19.5048V33.8294ZM28.8796 24.4546L22.5529 30.7812V34.1347H22.6494L32.3723 24.4118L28.8796 24.4546ZM61.4394 30.0848C60.8126 29.5491 60.1644 29.0509 59.5055 28.5688L53.9449 34.1347H57.3948L61.4394 30.0848ZM39.6418 26.9189V24.3796H38.7043L28.9545 34.1347H32.4045L39.6418 26.9189Z" fill="white"/>
    </g>
    <path d="M98.7401 49.3699H95.0813C93.7351 49.3699 92.6439 50.4611 92.6439 51.8073V53.6394C92.6439 54.9855 93.7351 56.0768 95.0813 56.0768H98.7401C100.086 56.0768 101.178 54.9855 101.178 53.6394V51.8073C101.178 50.4611 100.086 49.3699 98.7401 49.3699Z" fill="#34495E"/>
    <path d="M7.31765 49.3699H3.65882C2.31267 49.3699 1.22139 50.4611 1.22139 51.8073V53.6394C1.22139 54.9855 2.31267 56.0768 3.65882 56.0768H7.31765C8.6638 56.0768 9.75508 54.9855 9.75508 53.6394V51.8073C9.75508 50.4611 8.6638 49.3699 7.31765 49.3699Z" fill="#34495E"/>
</svg>
