<svg width="208" height="66" viewBox="0 0 208 66" fill="none" xmlns="http://www.w3.org/2000/svg">
    <g clip-path="url(#clip0_2203_5162)">
        <path opacity="0.29" d="M87.8223 65.9998H1.06655C0.783686 65.9998 0.512404 65.8874 0.312386 65.6874C0.112369 65.4874 0 65.2161 0 64.9333C0 64.6504 0.112369 64.3791 0.312386 64.1791C0.512404 63.9791 0.783686 63.8667 1.06655 63.8667H87.8223C88.1051 63.8667 88.3764 63.9791 88.5764 64.1791C88.7764 64.3791 88.8888 64.6504 88.8888 64.9333C88.8888 65.2161 88.7764 65.4874 88.5764 65.6874C88.3764 65.8874 88.1051 65.9998 87.8223 65.9998Z" fill="#48626B"/>
        <path d="M88.9543 31.5148C88.7406 29.2895 88.2873 27.0938 87.6024 24.9658C86.9611 22.9468 86.1634 20.9808 85.2167 19.0857C84.7489 18.1501 84.2811 17.2426 83.7338 16.3538C83.4718 15.9141 83.1958 15.4791 82.9151 15.0487C82.7701 14.8382 82.6251 14.623 82.4754 14.4172C82.3349 14.2012 82.1631 14.0073 81.9655 13.8418C82.0765 14.0642 82.1523 14.3025 82.1901 14.5482C82.2462 14.7914 82.293 15.0159 82.3398 15.2826C82.424 15.7738 82.4988 16.2696 82.5596 16.7655C82.6844 17.7509 82.7701 18.738 82.8169 19.7266C82.9201 21.6594 82.8701 23.5975 82.6672 25.5224C82.4894 27.3355 82.1081 29.1228 81.5305 30.8505C81.0875 32.1865 80.4457 33.4481 79.6266 34.5928C80.0573 30.285 79.7247 25.935 78.6443 21.7427C77.3867 17.0273 75.1717 12.6213 72.1373 8.79906C69.4556 5.44198 66.3139 2.4798 62.805 0C63.788 3.81711 64.2196 7.75526 64.0867 11.6947C63.9924 15.0933 63.1203 18.425 61.5373 21.434C60.4947 23.3271 59.0783 24.9886 57.374 26.3177C57.0811 25.9096 56.8125 25.4848 56.5694 25.0453C56.4315 24.7898 56.3066 24.5275 56.1952 24.2594C56.1334 24.1257 56.0803 23.9882 56.0361 23.8478L55.9613 23.539L55.8864 23.2911C55.5006 21.8436 55.2608 20.3611 55.1707 18.8658C55.074 17.3018 55.1603 15.7319 55.428 14.188C55.6897 12.5728 56.2026 11.0086 56.9483 9.5522C55.5123 10.5463 54.2402 11.7584 53.178 13.1448C52.0561 14.5773 51.1003 16.1325 50.3291 17.7806C49.5328 19.4863 48.906 21.2662 48.458 23.0946L48.3738 23.4595L48.2896 23.7636C48.2381 24.0115 48.196 24.3062 48.1539 24.5775C48.0791 25.1295 48.0276 25.6862 48.0042 26.2381C47.9607 27.3313 48.003 28.4261 48.1305 29.5127C48.3888 31.5824 48.859 33.6202 49.5339 35.5939C50.1752 37.4764 50.9409 39.3141 51.8261 41.095C52.6868 42.8539 53.6364 44.5473 54.6328 46.1939C55.1427 47.0219 55.6713 47.8358 56.2326 48.6451C56.5086 49.0474 56.7939 49.4544 57.0933 49.8614L57.5611 50.4788L57.8137 50.7969C57.9139 50.9279 58.0217 51.0529 58.1365 51.1712L63.1699 45.0899L63.8622 45.932L63.6844 56.7565C66.1588 56.3818 68.6025 55.8268 70.9959 55.0959L71.3187 54.993L71.5245 55.2409C71.721 55.0491 71.852 54.9088 71.9596 54.7731C74.194 54.0541 76.3455 53.0991 78.3776 51.9243C80.8571 50.4672 83.0457 48.564 84.8331 46.3109C86.5583 44.1157 87.7929 41.5763 88.4537 38.8637C89.0202 36.4577 89.1893 33.9753 88.9543 31.5148Z" fill="#F89406"/>
        <path d="M76.7731 41.2635C75.9295 41.5323 75.0481 41.6634 74.1629 41.6518C72.6256 41.6112 71.1169 41.2277 69.747 40.5291C70.1184 39.2624 70.3367 37.9557 70.3972 36.6371C70.4889 34.704 70.1584 32.7741 69.4289 30.9816C68.743 29.3571 67.7593 27.8752 66.5286 26.6124C67.0085 28.1577 67.191 29.7799 67.0665 31.3932C66.9417 32.8397 66.4907 34.2392 65.7474 35.4863C65.1673 36.4446 64.4484 37.3116 63.6143 38.0592C62.8705 37.997 62.1629 37.7117 61.5841 37.2405C60.603 36.4368 59.7892 35.4482 59.189 34.3309C58.4858 33.0607 57.9137 31.7221 57.4816 30.336C56.7594 31.7089 56.1764 33.1506 55.7414 34.6396C55.252 36.3084 55.0558 38.0494 55.1614 39.7853C55.3093 41.9397 56.0349 44.0145 57.2617 45.7917C58.3638 47.374 59.8136 48.6829 61.4999 49.6182C61.8159 49.7907 62.1407 49.9469 62.4729 50.086C62.6506 50.1608 62.8331 50.231 63.0389 50.3011L63.371 50.4087L63.5722 50.4602H63.6985C63.6985 50.4602 63.9043 50.4883 63.8949 50.4929L64.2317 45.9367L65.7661 47.8874C65.9392 47.719 66.014 47.6207 66.1169 47.5038L66.3836 47.167C66.552 46.9471 66.7063 46.7319 66.8514 46.5121C67.1507 46.077 67.4267 45.642 67.6887 45.1976C68.2041 44.3181 68.6574 43.4037 69.0453 42.461C69.1575 42.1897 69.2605 41.9184 69.3587 41.6424L68.8909 47.9061C71.2776 47.4928 73.5401 46.5461 75.5101 45.1368C76.4264 44.4548 77.2339 43.6378 77.9051 42.7136C78.5386 41.8596 79.0037 40.8928 79.2758 39.8648C78.5395 40.488 77.6897 40.9629 76.7731 41.2635Z" fill="#F7CA18"/>
        <g style="mix-blend-mode:multiply" opacity="0.41">
            <path d="M81.9656 13.8371C82.1631 14.0026 82.335 14.1965 82.4755 14.4125C82.6252 14.6183 82.7702 14.8335 82.9152 15.044C83.1959 15.4744 83.4719 15.9094 83.7338 16.3491C84.2624 17.2379 84.7536 18.1454 85.2167 19.081C86.1635 20.9761 86.9611 22.9421 87.6024 24.9611C88.2874 27.0891 88.7406 29.2848 88.9543 31.5101C89.1904 33.9737 89.0213 36.4594 88.4538 38.8684C87.7923 41.5793 86.5577 44.1171 84.8331 46.3109C84.1888 47.1431 83.482 47.9251 82.7187 48.6498C80.2254 48.1259 78.242 47.2979 78.242 46.8488C78.242 45.7869 83.5607 44.1918 86.2224 35.1542C88.8842 26.1165 81.9656 13.8371 81.9656 13.8371ZM75.5803 33.5309C75.5803 33.5309 75.047 37.7878 73.4519 40.4495C73.4519 40.4495 79.0653 37.3106 79.6267 34.6022C80.0573 30.2944 79.7248 25.9444 78.6443 21.7521C77.3867 17.0366 75.1718 12.6306 72.1374 8.80842C69.4563 5.44803 66.3146 2.48267 62.805 0C62.805 0 78.242 15.437 75.5803 33.5309ZM56.9484 9.58027C56.9484 9.58027 50.0532 18.6273 54.8199 27.6742C54.8199 27.6742 56.7332 27.6321 57.374 26.3223C57.0812 25.9143 56.8125 25.4895 56.5695 25.05C56.4315 24.7945 56.3066 24.5322 56.1952 24.2641C56.1335 24.1304 56.0803 23.9929 56.0362 23.8524L55.9613 23.5437L55.8865 23.2958C55.5006 21.8483 55.2609 20.3658 55.1708 18.8705C55.074 17.3065 55.1604 15.7366 55.4281 14.1926C55.6921 12.5855 56.205 11.0294 56.9484 9.58027Z" fill="#F89406"/>
        </g>
        <path d="M64.0868 59.0767H12.7753L2.54944 58.5481C2.54944 58.5481 -0.177752 50.5583 2.54944 46.7225L3.19499 40.9827C3.19499 40.9827 9.82352 30.8739 11.1754 30.3359C12.5273 29.798 15.8533 29.274 35.1261 29.274C41.0997 29.274 45.3659 29.4284 48.9679 30.8692C54.2866 32.9976 60.6626 40.1594 60.6626 40.1594C60.6626 40.1594 86.7697 42.0306 86.7697 51.0963C86.7697 57.7435 86.7417 59.0767 86.7417 59.0767H64.0868Z" fill="#217B56"/>
        <g style="mix-blend-mode:multiply">
            <path d="M86.7557 55.353H12.7752L2.54943 52.2843C2.07179 51.2597 1.7275 50.1781 1.52498 49.0659C0.771845 52.4527 2.54943 58.548 2.54943 58.548L12.7752 59.0766H86.7557C86.7557 59.0766 86.7838 57.7434 86.7838 51.0961V51.0119C86.7744 54.539 86.7557 55.353 86.7557 55.353Z" fill="#066132"/>
        </g>
        <path d="M60.6766 44.7063C60.6766 44.7063 79.7576 44.7063 85.2775 50.0391C85.6783 50.556 86.194 50.9724 86.7838 51.2553V51.0963C86.7838 49.0473 85.4459 47.354 83.3783 45.9927C76.979 41.7405 63.5769 40.4073 61.0836 40.1921H61.0461L60.728 40.1641H60.6766C60.6766 40.1641 54.2866 33.0023 48.9819 30.8738C45.38 29.4331 41.1138 29.2787 35.1401 29.2787C15.8814 29.2787 12.5554 29.8307 11.1895 30.3406C9.82351 30.8504 3.19498 40.9827 3.19498 40.9827L2.77397 44.725L60.6766 44.7063Z" fill="#4D9578"/>
        <path d="M27.1316 56.9485C27.1325 58.5294 26.6642 60.075 25.7858 61.3895C24.9075 62.7039 23.6588 63.7281 22.1979 64.3322C20.737 64.9363 19.1296 65.0932 17.5795 64.783C16.0293 64.4727 14.6061 63.7093 13.4902 62.5895C12.3743 61.4697 11.616 60.0438 11.3112 58.4926C11.0064 56.9413 11.1689 55.3345 11.7782 53.8758C12.3875 52.417 13.416 51.1719 14.7336 50.2982C16.0511 49.4245 17.5984 48.9616 19.1792 48.9681C21.2905 48.9767 23.3125 49.8212 24.8028 51.3168C26.2931 52.8123 27.1304 54.8372 27.1316 56.9485Z" fill="#22313F"/>
        <path d="M23.9507 56.9486C23.9507 57.8968 23.6693 58.8237 23.1421 59.6118C22.6149 60.3999 21.8657 61.0139 20.9893 61.3759C20.1129 61.7379 19.1488 61.8316 18.2191 61.6453C17.2894 61.4589 16.436 61.0009 15.7668 60.3291C15.0976 59.6573 14.6429 58.802 14.4602 57.8716C14.2775 56.9412 14.375 55.9775 14.7404 55.1025C15.1059 54.2276 15.7227 53.4807 16.5129 52.9567C17.3031 52.4326 18.2311 52.1548 19.1793 52.1585C20.4468 52.1622 21.6611 52.6687 22.5557 53.5667C23.4502 54.4648 23.9519 55.6811 23.9507 56.9486Z" fill="#E4F1FE"/>
        <path d="M79.8371 56.9485C79.838 58.528 79.3705 60.0723 78.4937 61.386C77.6168 62.6998 76.37 63.724 74.911 64.3291C73.452 64.9342 71.8463 65.093 70.297 64.7854C68.7478 64.4778 67.3245 63.7177 66.2073 62.6011C65.0901 61.4846 64.3291 60.0618 64.0207 58.5127C63.7122 56.9636 63.87 55.3578 64.4743 53.8984C65.0785 52.4391 66.102 51.1917 67.4152 50.3141C68.7285 49.4365 70.2725 48.968 71.852 48.968C73.969 48.968 75.9993 49.8087 77.4967 51.3051C78.994 52.8016 79.8359 54.8315 79.8371 56.9485Z" fill="#22313F"/>
        <path d="M76.6422 56.9486C76.6422 57.896 76.3612 58.8221 75.8349 59.6098C75.3085 60.3976 74.5604 61.0115 73.6851 61.3741C72.8098 61.7366 71.8467 61.8315 70.9175 61.6467C69.9883 61.4618 69.1348 61.0056 68.4649 60.3357C67.795 59.6658 67.3388 58.8123 67.1539 57.8831C66.9691 56.9539 67.064 55.9908 67.4265 55.1155C67.7891 54.2402 68.403 53.4921 69.1908 52.9657C69.9785 52.4394 70.9046 52.1584 71.852 52.1584C72.4812 52.1578 73.1044 52.2813 73.6859 52.5218C74.2673 52.7623 74.7956 53.1151 75.2405 53.5601C75.6855 54.005 76.0383 54.5333 76.2788 55.1147C76.5193 55.6962 76.6428 56.3194 76.6422 56.9486Z" fill="#E4F1FE"/>
        <path d="M2.46991 46.8349H5.70699C5.70699 46.8349 6.95598 45.7263 8.77099 43.9113C10.586 42.0962 8.77099 40.9829 8.77099 40.9829H3.19498L2.54943 46.7226L2.46991 46.8349Z" fill="#EC644B"/>
        <g style="mix-blend-mode:soft-light" opacity="0.35">
            <path d="M8.77099 40.9829H3.19498L2.77397 44.7252H7.91962L7.96172 44.7533L8.79438 43.93C10.5907 42.1009 8.77099 40.9829 8.77099 40.9829Z" fill="#FFFBFA"/>
        </g>
        <path d="M74.5137 43.6443C74.5137 43.6443 84.094 45.7727 84.094 49.4963L80.899 51.0961L74.5137 43.6443Z" fill="#C5EFF7"/>
        <path d="M74.5137 43.6443L76.8527 46.3808C79.636 47.0123 82.2135 47.8824 84.0379 49.0753C83.3643 45.6137 74.5137 43.6443 74.5137 43.6443Z" fill="white"/>
        <path d="M37.7878 31.4212C41.9324 31.4773 45.408 31.7393 48.1773 32.8245C51.4565 34.1484 55.3719 37.7737 57.505 39.9162H37.7878V31.4212ZM17.0321 31.7159C14.5341 31.8515 12.9109 32.034 12.1204 32.2679C11.2269 33.0678 8.78971 36.4873 6.45546 39.9162H17.0321V31.7159ZM34.6162 31.4025C28.3011 31.4025 23.3893 31.468 19.7125 31.5989V39.9162H34.6162V31.4025Z" fill="#4F6073"/>
        <path d="M32.9977 37.2545H21.303V31.5475C24.4138 31.4633 28.3198 31.4165 32.9977 31.4025V37.2545ZM39.3876 37.2545H54.6796C52.6868 35.505 50.3058 33.6993 48.1773 32.8479C45.7682 31.8843 42.8305 31.5615 39.3876 31.4446V37.2545ZM15.437 31.8094C14.3197 31.8661 13.2097 32.0226 12.1204 32.2772C11.4748 32.8666 9.96854 34.8688 8.28918 37.2638H15.437V31.8094Z" fill="#5D7187"/>
        <g style="mix-blend-mode:multiply">
            <path d="M42.5686 43.6446H38.8263C38.6806 43.6543 38.5345 43.6339 38.397 43.5848C38.2595 43.5357 38.1335 43.4589 38.0269 43.3591C37.9203 43.2594 37.8353 43.1388 37.7772 43.0048C37.7191 42.8709 37.6891 42.7264 37.6891 42.5804C37.6891 42.4344 37.7191 42.2899 37.7772 42.156C37.8353 42.022 37.9203 41.9014 38.0269 41.8017C38.1335 41.7019 38.2595 41.6251 38.397 41.576C38.5345 41.5269 38.6806 41.5065 38.8263 41.5162H42.5686C42.7143 41.5065 42.8604 41.5269 42.9979 41.576C43.1354 41.6251 43.2613 41.7019 43.368 41.8017C43.4746 41.9014 43.5595 42.022 43.6176 42.156C43.6757 42.2899 43.7057 42.4344 43.7057 42.5804C43.7057 42.7264 43.6757 42.8709 43.6176 43.0048C43.5595 43.1388 43.4746 43.2594 43.368 43.3591C43.2613 43.4589 43.1354 43.5357 42.9979 43.5848C42.8604 43.6339 42.7143 43.6543 42.5686 43.6446ZM25.5458 42.5687C25.5458 42.2871 25.4339 42.017 25.2348 41.8179C25.0357 41.6187 24.7656 41.5068 24.4839 41.5068H20.7417C20.4716 41.5248 20.2185 41.6447 20.0335 41.8423C19.8486 42.0399 19.7457 42.3004 19.7457 42.571C19.7457 42.8417 19.8486 43.1022 20.0335 43.2998C20.2185 43.4974 20.4716 43.6173 20.7417 43.6353H24.4839C24.766 43.634 25.0361 43.5211 25.2351 43.3212C25.4341 43.1213 25.5458 42.8508 25.5458 42.5687Z" fill="#649EB5"/>
        </g>
        <g style="mix-blend-mode:soft-light" opacity="0.41">
            <path d="M7.45651 39.9162L15.5633 31.8094C16.031 31.7767 16.4988 31.744 17.0321 31.7159V33.3531L10.4831 39.9021L7.45651 39.9162ZM44.4958 31.8843L37.7878 38.5877V39.9162H39.4718L46.9564 32.4316C46.1485 32.1978 45.3267 32.015 44.4958 31.8843ZM17.0321 39.6542L16.7701 39.9162H17.0321V39.6542ZM25.2184 31.468L19.6938 36.9925V39.9162H19.778L28.2683 31.4305C27.1971 31.4399 26.196 31.4492 25.2184 31.468ZM53.6504 36.3797C53.1031 35.9119 52.5371 35.4816 51.9617 35.0606L47.1061 39.9162H50.1186L53.6504 36.3797ZM34.6162 33.6151V31.4025H33.7976L25.2839 39.9162H28.2964L34.6162 33.6151Z" fill="white"/>
        </g>
        <path d="M86.2224 53.2249H83.0274C81.8519 53.2249 80.899 54.1778 80.899 55.3533V56.9531C80.899 58.1286 81.8519 59.0815 83.0274 59.0815H86.2224C87.3979 59.0815 88.3508 58.1286 88.3508 56.9531V55.3533C88.3508 54.1778 87.3979 53.2249 86.2224 53.2249Z" fill="#34495E"/>
        <path d="M6.38997 53.2249H3.19499C2.01949 53.2249 1.06656 54.1778 1.06656 55.3533V56.9531C1.06656 58.1286 2.01949 59.0815 3.19499 59.0815H6.38997C7.56547 59.0815 8.5184 58.1286 8.5184 56.9531V55.3533C8.5184 54.1778 7.56547 53.2249 6.38997 53.2249Z" fill="#34495E"/>
    </g>
    <g clip-path="url(#clip1_2203_5162)">
        <path opacity="0.29" d="M206.376 65.9999H106.149C105.857 65.9807 105.583 65.8523 105.383 65.6408C105.183 65.4293 105.071 65.1504 105.071 64.8607C105.071 64.571 105.183 64.2921 105.383 64.0806C105.583 63.869 105.857 63.7407 106.149 63.7215H206.386C206.544 63.7112 206.702 63.7329 206.851 63.7855C206.999 63.8381 207.136 63.9203 207.251 64.0271C207.366 64.1339 207.458 64.263 207.521 64.4064C207.584 64.5498 207.617 64.7044 207.617 64.8607C207.617 65.017 207.584 65.1716 207.521 65.315C207.458 65.4584 207.366 65.5875 207.251 65.6943C207.136 65.8011 206.999 65.8833 206.851 65.9359C206.702 65.9884 206.544 66.0102 206.386 65.9999H206.376Z" fill="#48626B"/>
        <path d="M176.948 18.9051L178.153 20.0418L180.679 17.1124L178.608 15.6353L176.948 18.9051Z" fill="#FCD1A9"/>
        <path d="M189.361 18.9302C189.361 18.9302 186.87 20.3673 184.395 19.7564C182.952 19.4059 181.762 18.4294 180.76 16.782L180.653 16.8471L177.925 20.3523C179.252 22.1459 181.166 23.4303 183.342 23.9877C184.1 24.1709 184.879 24.2618 185.66 24.2581C187.755 24.224 189.808 23.6751 191.634 22.6607L189.361 18.9302Z" fill="#4E6D8C"/>
        <path d="M188.607 36.6816C188.607 35.9606 187.26 26.3263 185.797 21.9898C184.334 17.6534 191.275 11.3941 195.659 15.7305C200.043 20.067 202.24 28.0088 202.964 35.2595L200.569 41.1883L188.607 36.6816Z" fill="#384F66"/>
        <path d="M192.009 9.9468C192.009 5.56028 189.224 2 185.797 2C182.37 2 179.59 5.56028 179.59 9.9468C179.583 11.3508 179.883 12.7398 180.471 14.0178C181.544 16.7769 185.797 19.6412 185.797 19.6412C190.91 19.6412 193.492 14.2832 193.492 14.2832C192.029 12.8361 192.009 9.9468 192.009 9.9468Z" fill="#22313F"/>
        <path d="M184.87 14.2633C183.812 14.2633 182.962 13.6074 182.962 12.7962C182.962 11.985 183.812 11.329 184.87 11.329C185.929 11.329 186.779 11.985 186.779 12.7962C186.779 13.6074 185.923 14.2633 184.87 14.2633ZM180.471 14.018C180.608 14.3585 180.778 14.6854 180.977 14.9944C181.207 14.9029 181.405 14.7489 181.549 14.5504C181.694 14.3518 181.778 14.1168 181.793 13.8728C181.793 13.1367 181.018 12.5408 180.061 12.5408H179.95C180.083 13.0462 180.258 13.5402 180.471 14.018Z" fill="#FCD1A9"/>
        <path d="M185.184 12.9763C185.151 13.0765 185.087 13.1638 185 13.2256C184.914 13.2874 184.81 13.3207 184.703 13.3207C184.597 13.3207 184.493 13.2874 184.407 13.2256C184.32 13.1638 184.256 13.0765 184.223 12.9763C184.256 12.8762 184.32 12.7889 184.407 12.7271C184.493 12.6653 184.597 12.632 184.703 12.632C184.81 12.632 184.914 12.6653 185 12.7271C185.087 12.7889 185.151 12.8762 185.184 12.9763Z" fill="#22313F"/>
        <path d="M180.431 13.3919C180.363 13.392 180.296 13.4056 180.233 13.4319C180.309 13.6322 180.385 13.8275 180.471 14.0178C180.471 14.0779 180.527 14.143 180.557 14.2031C180.652 14.1853 180.738 14.1366 180.801 14.0649C180.864 13.9932 180.901 13.9026 180.907 13.8075C180.899 13.6901 180.844 13.5806 180.755 13.5027C180.666 13.4249 180.549 13.385 180.431 13.3919Z" fill="#22313F"/>
        <path d="M171.885 36.0505L171.445 35.9053C171.535 34.4481 171.803 33.0071 172.245 31.6139C174.386 25.0642 177.424 15.3748 177.424 13.5521C177.424 11.5091 175.596 10.3924 175.232 10.3874V9.93677C176.492 9.93677 178.882 10.6929 178.882 13.5521C178.882 15.7354 175.566 26.1859 173.607 32.1547C172.948 34.1778 172.741 32.6855 171.885 36.0505Z" fill="#B5C4C7"/>
        <path d="M180.679 16.812C180.679 16.812 178.846 13.9127 178.021 14.6187C177.196 15.3248 179.074 17.1224 180.147 17.488L180.679 16.812Z" fill="#FCD1A9"/>
        <path d="M176.264 18.6195C176.264 18.6195 175.12 18.1187 175.475 17.4878C175.925 16.6866 176.396 15.6351 176.396 15.6351C176.439 15.5376 176.503 15.4503 176.582 15.3787C176.662 15.3072 176.756 15.2532 176.858 15.2201C176.961 15.187 177.069 15.1756 177.176 15.1867C177.283 15.1979 177.386 15.2312 177.479 15.2845C177.692 15.3847 177.808 15.6451 177.697 16.0907C177.482 16.8912 177.212 17.6759 176.887 18.4392C176.887 18.4392 176.588 18.8298 176.264 18.6195Z" fill="#FCD1A9"/>
        <path d="M194.428 17.1825C193.85 17.1281 193.273 17.3033 192.825 17.6695C192.377 18.0357 192.094 18.563 192.039 19.1354C192.039 19.1854 191.492 24.3932 187.331 27.688C184.592 29.8613 180.841 30.6925 176.193 30.2569L175.788 34.5733C176.703 34.6708 177.622 34.7226 178.542 34.7285C183.139 34.7285 187.007 33.5017 190.07 31.0731C195.664 26.6415 196.377 19.8314 196.403 19.556C196.431 19.2718 196.403 18.9848 196.319 18.7115C196.235 18.4382 196.098 18.1839 195.914 17.9634C195.731 17.7428 195.505 17.5603 195.25 17.4263C194.995 17.2923 194.716 17.2094 194.428 17.1825Z" fill="#4E6D8C"/>
        <path d="M175.814 34.3328C175.814 34.3328 173.08 33.5917 172.331 32.6353C171.581 31.6788 171.576 31.2933 171.789 30.6323C172.068 29.9484 172.384 29.2798 172.736 28.6293C172.786 28.5467 172.853 28.4756 172.933 28.4209C173.014 28.3662 173.105 28.329 173.201 28.3119C173.297 28.2949 173.395 28.2983 173.489 28.3219C173.584 28.3456 173.672 28.3889 173.748 28.449C174.035 28.6358 174.334 28.8031 174.644 28.9498L174.943 28.0635C175.392 28.3768 175.743 28.8089 175.955 29.3103C176.138 29.9713 176.188 30.2617 176.188 30.2617L175.814 34.3328Z" fill="#FCD1A9"/>
        <path d="M186.217 53.4613C186.345 54.1289 186.497 54.7649 186.673 55.3691C187.017 56.594 187.43 57.7993 187.908 58.9795C188.222 59.7506 188.561 60.4817 188.92 61.2478H193.016C192.51 60.0611 192.095 58.8493 191.725 57.6525C191.391 56.5819 191.117 55.4935 190.905 54.3927C190.804 53.8519 190.718 53.3161 190.662 52.7853C190.603 52.2868 190.581 51.7847 190.596 51.2831C190.719 49.1006 191.104 46.9404 191.745 44.8485C191.897 44.3177 192.059 43.7819 192.252 43.2461C193.245 43.6791 194.315 43.9172 195.4 43.9472C194.89 46.3986 194.679 48.902 194.773 51.4032C194.816 52.0943 194.906 52.7818 195.041 53.4613C195.173 54.1289 195.324 54.7649 195.497 55.3691C195.843 56.5941 196.257 57.7994 196.737 58.9795C197.051 59.7506 197.385 60.4817 197.749 61.2478H201.845C201.364 60.0611 200.924 58.8493 200.554 57.6525C200.222 56.5812 199.948 55.493 199.734 54.3927C199.633 53.8519 199.552 53.3161 199.491 52.7853C199.434 52.2866 199.412 51.7847 199.425 51.2831C199.547 49.1006 199.933 46.9404 200.574 44.8485C200.974 43.4162 201.462 42.0098 202.037 40.6373C202.206 40.3144 202.349 39.9796 202.468 39.6358C202.92 38.226 203.105 36.7457 203.014 35.2693C195.097 38.5241 188.607 36.3559 188.607 36.3559C188.604 36.3725 188.604 36.3894 188.607 36.406C187.818 38.7953 187.177 41.2301 186.688 43.6968C186.145 46.2404 185.917 48.8401 186.01 51.4383C186.032 52.1165 186.102 52.7924 186.217 53.4613Z" fill="#5D7187"/>
        <path d="M193.001 61.248V64.8584H183.266C183.266 64.8584 182.537 61.9691 186.187 61.9691C189.108 61.9691 188.905 61.248 188.905 61.248H193.001Z" fill="#22313F"/>
        <path d="M183.266 64.8583H184.481C184.424 64.5162 184.44 64.1662 184.528 63.8305C184.615 63.4949 184.772 63.1808 184.989 62.9083C185.205 62.6357 185.477 62.4106 185.786 62.2472C186.095 62.0838 186.435 61.9857 186.784 61.959H186.182C182.537 61.969 183.266 64.8583 183.266 64.8583Z" fill="#2F4357"/>
        <path d="M201.809 61.248V64.8584H192.074C192.074 64.8584 191.345 61.9691 195 61.9691C197.922 61.9691 197.714 61.248 197.714 61.248H201.809Z" fill="#22313F"/>
        <path d="M192.074 64.8583H193.299C193.243 64.5166 193.259 64.167 193.346 63.8316C193.433 63.4963 193.59 63.1825 193.806 62.91C194.022 62.6375 194.293 62.4123 194.601 62.2486C194.909 62.0849 195.249 61.9863 195.598 61.959H195C191.345 61.969 192.074 64.8583 192.074 64.8583Z" fill="#2F4357"/>
        <path d="M118.983 54.022H108.027V64.8581H118.983V54.022Z" fill="#22313F"/>
        <path d="M172.305 54.022H161.35V64.8581H172.305V54.022Z" fill="#22313F"/>
        <path d="M166.463 28.7346C166.463 28.7346 167.926 27.2875 170.847 27.2875C173.04 27.2875 174.498 28.0085 174.498 30.1768C174.498 32.345 173.04 33.046 171.576 33.046H166.463V28.7346Z" fill="#22313F"/>
        <path d="M113.869 28.7346C113.869 28.7346 112.411 27.2875 109.49 27.2875C107.298 27.2875 105.835 28.0085 105.835 30.1768C105.835 32.345 107.298 33.046 108.756 33.046H113.869V28.7346Z" fill="#22313F"/>
        <path d="M163.669 18.5694C163.378 17.9407 162.947 17.385 162.409 16.9437C161.871 16.5024 161.239 16.1869 160.561 16.0207C153.462 14.8484 146.277 14.2639 139.081 14.2731C127.022 14.2731 119.777 15.9255 119.777 15.9255C119.102 16.1213 118.478 16.4576 117.945 16.9119C117.412 17.3662 116.984 17.9279 116.689 18.5594L108.873 38.1535C108.362 39.5698 108.08 41.0569 108.037 42.56V56.8112C108.041 57.4121 108.284 57.9873 108.713 58.4126C109.142 58.838 109.723 59.0793 110.331 59.0846H170.027C170.637 59.0819 171.222 58.8411 171.653 58.4143C172.085 57.9876 172.328 57.4096 172.331 56.8062V42.56C172.284 41.0598 171.998 39.5761 171.485 38.1635L163.669 18.5694Z" fill="#EF4E52"/>
        <path d="M172.331 56.1903V43.171C172.323 42.6451 172.285 42.12 172.214 41.5987C166.157 45.4953 159.079 47.5528 151.853 47.5175H128.48C118.097 47.5175 111.399 43.8771 108.154 41.5085C108.081 42.0498 108.042 42.595 108.037 43.141V56.8012C108.039 57.4038 108.28 57.9816 108.71 58.4091C109.139 58.8366 109.722 59.0794 110.331 59.0846H170.027C170.637 59.082 171.222 58.8411 171.653 58.4144C172.085 57.9877 172.328 57.4097 172.331 56.8063V56.2004V56.1903Z" fill="#EB2227"/>
        <g style="mix-blend-mode:multiply">
            <path d="M108.037 54.022V56.8011C108.039 57.4037 108.28 57.9815 108.71 58.409C109.139 58.8365 109.722 59.0792 110.331 59.0845H170.027C170.637 59.0819 171.222 58.841 171.653 58.4143C172.085 57.9875 172.328 57.4096 172.331 56.8061V54.027L108.037 54.022Z" fill="#F5E3A4"/>
        </g>
        <path d="M110.948 39.5557C110.948 39.5557 122.638 41.0178 122.638 47.5175H110.948V39.5557ZM169.41 39.5557C169.41 39.5557 157.72 41.0028 157.72 47.5025H169.41V39.5557Z" fill="white"/>
        <path d="M122.638 47.5175H110.948V43.2913C114.561 45.257 118.507 46.5487 122.592 47.1019C122.622 47.2421 122.638 47.3773 122.638 47.5175ZM169.41 43.2812C165.798 45.2494 161.851 46.5445 157.766 47.1019C157.758 47.2404 157.758 47.3791 157.766 47.5175H169.455L169.41 43.2812Z" fill="#C5EFF7"/>
        <path d="M155.508 41.0181H124.83L128.48 47.5177H151.853L155.508 41.0181Z" fill="#34495E"/>
        <path d="M166.129 30.6377L161.857 19.9318C161.363 18.9803 160.51 18.2604 159.482 17.9288C152.729 16.9287 145.909 16.4399 139.081 16.4666C127.437 16.4666 120.937 17.9138 120.856 17.9288C120.347 18.0913 119.875 18.352 119.468 18.6958C119.062 19.0396 118.728 19.4597 118.486 19.9318L114.229 30.6377L113.834 31.6391H166.524L166.129 30.6377Z" fill="#4F6073"/>
        <path d="M161.502 25.8452L161.193 25.034L158.277 17.7181C151.919 16.8605 145.508 16.4339 139.091 16.4413C133.406 16.3833 127.726 16.797 122.111 17.6781L119.175 25.034L118.856 25.8302H161.507L161.502 25.8452Z" fill="#5D7187"/>
        <path d="M151.124 51.1331H129.209V56.1906H151.124V51.1331Z" fill="#C5EFF7"/>
        <g style="mix-blend-mode:multiply">
            <path d="M114.619 52.2697C114.62 51.9678 114.742 51.6787 114.959 51.4657C115.175 51.2526 115.468 51.1331 115.773 51.1331H120.775C121.08 51.1331 121.373 51.2526 121.589 51.4657C121.805 51.6787 121.928 51.9678 121.929 52.2697V55.0489C121.928 55.3513 121.806 55.6409 121.589 55.8547C121.373 56.0685 121.08 56.1892 120.775 56.1906H115.753C115.45 56.1853 115.162 56.0627 114.95 55.8492C114.737 55.6356 114.619 55.3482 114.619 55.0489V52.2697ZM157.72 55.0489C157.72 55.3508 157.841 55.6404 158.057 55.8544C158.272 56.0684 158.564 56.1892 158.87 56.1906H163.871C164.177 56.1892 164.47 56.0685 164.686 55.8547C164.902 55.6409 165.024 55.3513 165.026 55.0489V52.2697C165.024 51.9678 164.902 51.6787 164.686 51.4657C164.469 51.2526 164.177 51.1331 163.871 51.1331H158.87C158.565 51.1331 158.273 51.2528 158.057 51.466C157.842 51.6792 157.72 51.9683 157.72 52.2697V55.0489Z" fill="#A15858"/>
        </g>
        <g style="mix-blend-mode:soft-light" opacity="0.41">
            <path d="M133.35 16.5764L118.162 31.6238H113.996L128.93 16.8518C130.252 16.7417 131.72 16.6465 133.35 16.5764ZM154.815 31.6238L163.218 23.3114L162.054 20.3821L150.674 31.6238H154.815ZM129.345 31.6238H133.476L148.497 16.7567C147.267 16.6766 145.965 16.6065 144.568 16.5564L129.345 31.6238Z" fill="white"/>
        </g>
    </g>
    <defs>
        <clipPath id="clip0_2203_5162">
            <rect width="89.0525" height="66" fill="white"/>
        </clipPath>
        <clipPath id="clip1_2203_5162">
            <rect width="102.53" height="64" fill="white" transform="translate(105 2)"/>
        </clipPath>
    </defs>
</svg>
