<svg width="46" height="46" viewBox="0 0 46 46" fill="none" xmlns="http://www.w3.org/2000/svg">
    <path
        d="M44.7371 29.9146H42.5691C42.0233 29.9146 41.5808 29.4722 41.5808 28.9264C41.5808 28.3806 42.0233 27.9381 42.5691 27.9381H44.7371C46.0475 27.9898 46.0482 29.8625 44.7371 29.9146V29.9146Z"
        fill="#EB2227" />
    <path
        d="M35.0058 37.3413C32.737 37.3413 30.8911 35.5087 30.8911 33.2559C31.1168 27.8365 38.8956 27.838 39.1204 33.2559C39.1204 35.5087 37.2746 37.3413 35.0058 37.3413ZM35.0058 31.1473C33.8268 31.1473 32.8677 32.0933 32.8677 33.256C32.9847 36.0534 37.0272 36.0527 37.1438 33.256C37.1438 32.0933 36.1847 31.1473 35.0058 31.1473Z"
        fill="#EB2227" />
    <path
        d="M10.4941 37.3413C8.22527 37.3413 6.37952 35.5087 6.37952 33.2559C6.60511 27.8364 14.3839 27.8381 14.6088 33.2559C14.6088 35.5087 12.7629 37.3413 10.4941 37.3413ZM10.4941 31.1473C9.31516 31.1473 8.35608 32.0933 8.35608 33.256C8.47315 36.0535 12.5156 36.0526 12.6322 33.256C12.6322 32.0933 11.673 31.1473 10.4941 31.1473Z"
        fill="#EB2227" />
    <path
        d="M4.99317 10.6353H0.988297C-0.321625 10.5837 -0.323242 8.71098 0.988297 8.65869H4.99317C5.53897 8.65869 5.98145 9.10117 5.98145 9.64697C5.98145 10.1928 5.53897 10.6353 4.99317 10.6353V10.6353Z"
        fill="#217B56" />
    <path
        d="M13.2372 16.0812H6.11998C4.81095 16.0301 4.80763 14.1572 6.11998 14.1047H13.2372C13.783 14.1047 14.2255 14.5471 14.2255 15.0929C14.2255 15.6387 13.783 16.0812 13.2372 16.0812Z"
        fill="#217B56" />
    <path
        d="M30.9669 32.4782H14.533C14.6627 33.1204 14.6227 33.8386 14.4276 34.4548H31.0722C30.8771 33.8386 30.8371 33.1204 30.9669 32.4782Z"
        fill="#217B56" />
    <path
        d="M41.866 25.0862L33.1554 23.6335C33.029 23.5935 6.616 23.6341 6.46812 23.62C2.90177 23.62 0 26.5217 0 30.0884V33.4665C0 34.0123 0.44248 34.4548 0.988281 34.4548H6.56057C6.36552 33.8386 6.32545 33.1204 6.45518 32.4782H1.97656V30.0884C1.97656 27.6116 3.99158 25.5966 6.46839 25.5966H32.911C32.9397 25.6009 41.5564 27.0392 41.5828 27.0423C42.256 27.1344 42.8486 27.464 43.2814 27.9381H44.7372C46.0482 27.9901 46.0477 29.8628 44.7372 29.9146H44.0234V32.4782H39.0447C39.1744 33.1205 39.1343 33.8386 38.9393 34.4548H45.0117C45.5575 34.4548 46 34.0123 46 33.4665V29.8397C46 27.4573 44.2238 25.4164 41.866 25.0862V25.0862Z"
        fill="#217B56" />
    <path
        d="M33.1554 23.6335L33.5028 23.6914L27.8667 17.2748C27.5065 16.8645 26.882 16.8242 26.4721 17.1844C26.062 17.5446 26.0215 18.169 26.3817 18.5791L30.8095 23.62H32.9929C33.0473 23.62 33.1017 23.6245 33.1554 23.6335V23.6335Z"
        fill="#EB2227" />
    <path
        d="M11.4824 21.2836C11.4303 19.9726 9.5577 19.9732 9.50586 21.2836V23.6201H11.4824V21.2836Z"
        fill="#EB2227" />
    <path
        d="M20.9286 21.2836C20.8765 19.9726 19.0039 19.9732 18.952 21.2836V23.6201H20.9286V21.2836Z"
        fill="#EB2227" />
</svg>
