<svg width="64" height="64" viewBox="0 0 64 64" fill="none" xmlns="http://www.w3.org/2000/svg">
    <path d="M25.47 41.6129L58.7311 48.7643H61.3655V33.4761H44.6768L25.47 41.6129Z" fill="#464655"/>
    <path d="M61.3655 30.8416C59.9105 30.8416 58.731 32.0211 58.731 33.4761V48.7644C58.731 50.2194 59.9105 51.3989 61.3655 51.3989C62.8204 51.3989 64 50.2194 64 48.7644V33.4761C64 32.0212 62.8205 30.8416 61.3655 30.8416Z" fill="#2A2A33"/>
    <path d="M53.3883 33.4762V36.7032C53.3883 38.5786 51.8625 40.1043 49.9873 40.1043H42.5041C41.943 40.1043 41.4881 40.5592 41.4881 41.1203C41.4881 41.6814 41.943 42.1363 42.5041 42.1363H49.9873C52.9831 42.1363 55.4204 39.6989 55.4204 36.7031V33.4761L53.3883 33.4762Z" fill="#707487"/>
    <path opacity="0.1" d="M44.6768 33.4761L25.47 41.6129L43.8948 45.5745C47.7874 44.0291 50.548 40.228 50.548 35.7916V33.4761H44.6768Z" fill="black"/>
    <path d="M40.0247 12.6011H15.9179C13.8694 12.6011 11.9123 13.4494 10.5118 14.9446L2.00137 24.0298C0.715625 25.4024 0 27.2128 0 29.0938V35.7916C0 39.8827 3.31637 43.1991 7.4075 43.1991H40.0247C44.1159 43.1991 47.4323 39.8827 47.4323 35.7916V20.0086C47.4321 15.9176 44.1157 12.6011 40.0247 12.6011Z" fill="#2A2A33"/>
    <path d="M7.40749 38.2709C6.04024 38.2709 4.92799 37.1586 4.92799 35.7913V29.0937C4.92799 28.4618 5.16587 27.8598 5.59787 27.3987L14.1082 18.3133C14.5752 17.8149 15.2347 17.5291 15.9177 17.5291H40.0245C41.3917 17.5291 42.5041 18.6413 42.5041 20.0086V35.7914C42.5041 37.1587 41.3917 38.2711 40.0245 38.2711H7.40749V38.2709Z" fill="#99EEFF"/>
    <path opacity="0.1" d="M15.9179 12.6011C13.8694 12.6011 11.9123 13.4494 10.5118 14.9446L2.00137 24.0298C0.7155 25.4024 0 27.2128 0 29.0938V35.7916C0 39.8827 3.31637 43.1991 7.4075 43.1991H13.758C3.82213 33.8103 15.6107 16.9302 18.9269 12.6012H15.9179V12.6011Z" fill="black"/>
</svg>
