<svg width="46" height="46" viewBox="0 0 46 46" fill="none" xmlns="http://www.w3.org/2000/svg">
    <path
        d="M44.9009 29.9554H42.5692C42.0234 29.9554 41.5809 29.513 41.5809 28.9672C41.5809 28.4214 42.0234 27.9789 42.5692 27.9789H44.9009C46.2112 28.0306 46.212 29.9034 44.9009 29.9554Z"
        fill="#EB2227" />
    <path
        d="M35.0058 37.3821C32.737 37.3821 30.8911 35.5495 30.8911 33.2969C31.1167 27.8774 38.8956 27.879 39.1204 33.2969C39.1204 35.5495 37.2746 37.3821 35.0058 37.3821ZM35.0058 31.1882C33.8268 31.1882 32.8677 32.1341 32.8677 33.2969C32.9847 36.0941 37.0272 36.0934 37.1438 33.2969C37.1438 32.1341 36.1847 31.1882 35.0058 31.1882Z"
        fill="#EB2227" />
    <path
        d="M9.58076 37.3821C7.31194 37.3821 5.46619 35.5495 5.46619 33.2969C5.69178 27.8774 13.4705 27.879 13.6953 33.2969C13.6953 35.5495 11.8496 37.3821 9.58076 37.3821ZM9.58076 31.1882C8.40183 31.1882 7.44275 32.1341 7.44275 33.2969C7.55982 36.0942 11.6022 36.0934 11.7188 33.2969C11.7188 32.1341 10.7597 31.1882 9.58076 31.1882Z"
        fill="#EB2227" />
    <path
        d="M5.54192 32.519H1.97656V26.7612C1.97656 26.1417 2.48068 25.6376 3.10024 25.6376H32.911C32.9397 25.642 41.5564 27.0801 41.5828 27.0833C42.256 27.1755 42.8485 27.5049 43.2813 27.979H44.9009C45.339 27.979 45.71 28.2644 45.8395 28.6593C45.3539 26.8318 43.8077 25.3992 41.866 25.1271L33.1554 23.6746C33.0631 23.6286 3.22404 23.6793 3.10006 23.6611C1.39078 23.6609 0 25.0517 0 26.7612V33.5073C0 34.0531 0.44248 34.4956 0.988281 34.4956H5.64722C5.45217 33.8795 5.41219 33.1612 5.54192 32.519Z"
        fill="#217B56" />
    <path
        d="M45.8711 28.7811C45.993 29.3807 45.5137 29.9624 44.9009 29.9555H44.0234V32.5191H39.0446C39.1743 33.1612 39.1343 33.8795 38.9392 34.4957H45.0117C45.5575 34.4957 46 34.0532 46 33.5074V29.8805C46 29.5037 45.9553 29.1354 45.8711 28.7811Z"
        fill="#217B56" />
    <path
        d="M30.9668 32.519H13.6195C13.7493 33.1612 13.7093 33.8794 13.5142 34.4956H31.0721C30.8771 33.8795 30.8371 33.1612 30.9668 32.519Z"
        fill="#217B56" />
    <path
        d="M3.10023 23.6609H3.56301L5.7499 19.7962C6.41304 18.6153 7.70355 17.921 9.0522 17.98V23.6609H11.0288V17.98H18.1963V23.6609H20.1729V17.98H22.0106C26.4619 17.98 29.6884 21.5753 31.1855 23.6609C31.2257 23.665 33.1943 23.649 33.1554 23.6744L33.6166 23.7513C31.3417 19.8355 26.7215 15.8651 22.0105 16.0035C22.0106 16.0034 8.86433 16.0034 8.86433 16.0034C6.86621 16.0034 5.01372 17.0837 4.02966 18.8227L0.406982 25.225L0.4086 25.2259C0.94335 24.2921 1.94915 23.6609 3.10023 23.6609Z"
        fill="#EB2227" />
    <path
        d="M41.6826 16.2084C41.6826 14.4045 40.1836 12.9368 38.3413 12.9368C37.5888 12.9368 36.9766 12.3559 36.9766 11.6417C36.9766 10.9276 37.5888 10.3467 38.3413 10.3467C38.9906 10.3467 39.5534 10.7844 39.6796 11.3874C39.7914 11.9216 40.3152 12.2644 40.8494 12.1524C41.3836 12.0406 41.7261 11.5169 41.6143 10.9826C41.366 9.79639 40.467 8.86525 39.3296 8.51764V7.98828C39.3296 7.44248 38.8871 7 38.3413 7C37.7955 7 37.353 7.44248 37.353 7.98828V8.5162C35.9915 8.92975 35 10.1744 35 11.6417C35 13.4457 36.499 14.9133 38.3413 14.9133C39.0938 14.9133 39.706 15.4944 39.706 16.2084C39.706 16.9225 39.0938 17.5035 38.3413 17.5035C37.692 17.5035 37.1292 17.0658 37.0031 16.4627C36.8912 15.9285 36.3676 15.5861 35.8333 15.6977C35.2991 15.8094 34.9566 16.3331 35.0683 16.8674C35.3164 18.0537 36.2154 18.9849 37.3529 19.3324V19.8618C37.3529 20.4076 37.7954 20.85 38.3412 20.85C38.887 20.85 39.3295 20.4076 39.3295 19.8618V19.3338C40.6911 18.9204 41.6826 17.6757 41.6826 16.2084Z"
        fill="#EB2227" />
</svg>
