<svg width="86" height="64" viewBox="0 0 86 64" fill="none" xmlns="http://www.w3.org/2000/svg">
    <path opacity="0.29" d="M69.1442 49.779H1.09615C0.946421 49.7889 0.796245 49.768 0.654926 49.7176C0.513607 49.6671 0.384156 49.5881 0.274592 49.4856C0.165027 49.3831 0.0776828 49.2591 0.0179692 49.1215C-0.0417444 48.9838 -0.0725555 48.8353 -0.0725555 48.6853C-0.0725555 48.5352 -0.0417444 48.3867 0.0179692 48.2491C0.0776828 48.1114 0.165027 47.9875 0.274592 47.8849C0.384156 47.7824 0.513607 47.7034 0.654926 47.653C0.796245 47.6025 0.946421 47.5816 1.09615 47.5915H69.1442C69.4218 47.6099 69.6819 47.7332 69.872 47.9363C70.0621 48.1394 70.1678 48.4071 70.1678 48.6853C70.1678 48.9634 70.0621 49.2312 69.872 49.4343C69.6819 49.6374 69.4218 49.7606 69.1442 49.779Z" fill="#48626B"/>
    <path d="M15 38.1541H4.59616V48.5579H15V38.1541Z" fill="#22313F"/>
    <path d="M65.6394 38.1541H55.2356V48.5579H65.6394V38.1541Z" fill="#22313F"/>
    <path d="M60.0962 13.875C60.0962 13.875 61.4808 12.5 64.2548 12.5C66.3365 12.5 67.7212 13.1923 67.7212 15.274C67.7212 17.3558 66.3365 18.0481 64.9471 18.0481H60.0962V13.875Z" fill="#22313F"/>
    <path d="M10.1442 13.875C10.1442 13.875 8.75961 12.5 5.98077 12.5C3.89903 12.5 2.51442 13.1923 2.51442 15.274C2.51442 17.3558 3.89903 18.0385 5.28846 18.0385H10.1442V13.875Z" fill="#22313F"/>
    <path d="M57.4375 4.11549C57.159 3.5135 56.7486 2.98186 56.2368 2.55993C55.725 2.138 55.1248 1.83658 54.4808 1.67799C47.7412 0.552333 40.9195 -0.00890923 34.0865 0.000106916C22.6298 0.000106916 15.7548 1.58665 15.7548 1.58665C15.1132 1.77431 14.5191 2.09706 14.0124 2.53322C13.5058 2.96939 13.0983 3.50888 12.8173 4.11549L5.39905 22.9184C4.91217 24.2747 4.64124 25.6991 4.59616 27.1395V40.8222C4.59869 41.4016 4.82997 41.9565 5.23966 42.3662C5.64935 42.7759 6.20428 43.0072 6.78366 43.0097H63.4615C64.0418 43.0085 64.5979 42.7777 65.0087 42.3679C65.4194 41.9581 65.6513 41.4024 65.6539 40.8222V27.1395C65.6071 25.6989 65.3346 24.2745 64.8462 22.9184L57.4375 4.11549Z" fill="#4D9578"/>
    <path d="M65.6635 40.2358V27.7358C65.6564 27.2293 65.6194 26.7236 65.5529 26.2214C59.8028 29.9686 53.0796 31.9462 46.2163 31.9089H24.0385C14.1779 31.9089 7.81731 28.4137 4.73558 26.1396C4.6613 26.6541 4.62115 27.1728 4.61539 27.6925V40.8223C4.61792 41.4017 4.8492 41.9567 5.25889 42.3663C5.66857 42.776 6.2235 43.0073 6.80289 43.0098H63.4615C64.0418 43.0086 64.5979 42.7779 65.0086 42.368C65.4194 41.9582 65.6513 41.4026 65.6538 40.8223V40.2406L65.6635 40.2358Z" fill="#217B56"/>
    <g style="mix-blend-mode:multiply">
        <path d="M4.59616 38.1541V40.8223C4.59869 41.4017 4.82997 41.9566 5.23966 42.3663C5.64935 42.776 6.20428 43.0073 6.78366 43.0098H63.4615C64.0418 43.0086 64.5979 42.7778 65.0087 42.368C65.4194 41.9582 65.6513 41.4025 65.6539 40.8223V38.1541H4.59616Z" fill="#A4E0F5"/>
    </g>
    <path d="M7.37019 24.2791C7.37019 24.2791 18.4712 25.6685 18.4712 31.9137H7.37019V24.2791ZM62.8894 24.2791C62.8894 24.2791 51.7885 25.6685 51.7885 31.9137H62.8894C62.8894 31.9137 62.8846 29.8319 62.8894 24.2791Z" fill="white"/>
    <path d="M18.4712 31.9137H7.37019V27.8512C10.8005 29.7385 14.5488 30.9787 18.4279 31.5098C18.4567 31.6444 18.4712 31.7742 18.4712 31.9137ZM62.8894 27.8416C59.459 29.7305 55.711 30.9739 51.8317 31.5098C51.8317 31.6396 51.8317 31.7742 51.8317 31.9137H62.9327L62.8894 27.8416Z" fill="#C5EFF7"/>
    <path d="M49.6875 25.6685H20.5529L24.0192 31.9088H46.2163L49.6875 25.6685Z" fill="#34495E"/>
    <path d="M59.774 15.7021L55.7164 5.42802C55.2471 4.51521 54.437 3.82422 53.4615 3.50494C47.0488 2.5383 40.5717 2.06256 34.0865 2.08186C23.0289 2.08186 16.8558 3.47129 16.7789 3.48571C15.8024 3.80313 14.9916 4.49466 14.524 5.40879L10.4856 15.7021L10.1106 16.6636H60.1442L59.774 15.7021Z" fill="#4F6073"/>
    <path d="M55.3798 11.1011L55.0769 10.3319L52.3029 3.30786C46.2658 2.48415 40.1795 2.07454 34.0865 2.08189C28.6913 2.02312 23.3006 2.41713 17.9712 3.25978L15.1779 10.3319L14.875 11.1011H55.3798Z" fill="#5D7187"/>
    <path d="M45.524 35.3799H24.7115V40.2357H45.524V35.3799Z" fill="#C5EFF7"/>
    <g style="mix-blend-mode:multiply">
        <path d="M16.6779 35.3799H11.9327C11.3273 35.3799 10.8365 35.8707 10.8365 36.476V39.1395C10.8365 39.7449 11.3273 40.2357 11.9327 40.2357H16.6779C17.2833 40.2357 17.774 39.7449 17.774 39.1395V36.476C17.774 35.8707 17.2833 35.3799 16.6779 35.3799Z" fill="#A17F58"/>
    </g>
    <g style="mix-blend-mode:multiply">
        <path d="M57.6106 35.3799H52.8654C52.26 35.3799 51.7692 35.8707 51.7692 36.476V39.1395C51.7692 39.7449 52.26 40.2357 52.8654 40.2357H57.6106C58.216 40.2357 58.7067 39.7449 58.7067 39.1395V36.476C58.7067 35.8707 58.216 35.3799 57.6106 35.3799Z" fill="#A17F58"/>
    </g>
    <g style="mix-blend-mode:soft-light" opacity="0.41">
        <path d="M28.6346 2.20209L14.2115 16.6492H10.2644L24.4471 2.46652C25.7019 2.36075 27.0961 2.2694 28.6346 2.20209ZM49.0385 16.6492L56.9952 8.65402L55.8846 5.84152L45.0962 16.6492H49.0385ZM24.851 16.6492H28.774L43.0288 2.37517C41.8558 2.29825 40.625 2.23094 39.2981 2.18286L24.851 16.6492Z" fill="white"/>
    </g>
    <path d="M48.9038 45.9472C48.9038 42.3767 49.9626 38.8863 51.9463 35.9175C53.93 32.9488 56.7495 30.6349 60.0482 29.2685C63.3469 27.9021 66.9768 27.5446 70.4787 28.2412C73.9806 28.9378 77.1973 30.6571 79.722 33.1819C82.2468 35.7066 83.9661 38.9233 84.6627 42.4252C85.3593 45.9272 85.0018 49.557 83.6354 52.8557C82.269 56.1545 79.9552 58.9739 76.9864 60.9576C74.0176 62.9413 70.5272 64.0001 66.9567 64.0001C64.586 64.0001 62.2385 63.5331 60.0482 62.6259C57.8579 61.7186 55.8678 60.3889 54.1914 58.7125C50.8058 55.3269 48.9038 50.7351 48.9038 45.9472Z" fill="#F7CA18"/>
    <path d="M71.899 47.5962L71.726 47.7692L77.6539 53.0577C78.6154 54.1202 78.7404 55.5721 77.9375 56.375C77.1346 57.1779 75.6779 57.0433 74.6202 56.0962L69.3317 50.1635L69.1587 50.3414C68.975 50.525 68.726 50.6281 68.4664 50.6281C68.2067 50.6281 67.9577 50.525 67.774 50.3414C67.5904 50.1577 67.4873 49.9087 67.4873 49.649C67.4873 49.3894 67.5904 49.1403 67.774 48.9567L68.7356 47.9952L60.2115 39.4808L58.4087 38.7885L56.8846 36.4327L57.4375 35.8798L57.9952 35.3269L60.3462 36.851L61.0577 38.649L69.5625 47.1539L70.524 46.1923C70.7102 46.01 70.9612 45.9091 71.2217 45.9118C71.4823 45.9145 71.7311 46.0206 71.9135 46.2067C72.0958 46.3929 72.1967 46.6439 72.194 46.9044C72.1913 47.165 72.0852 47.4138 71.899 47.5962ZM67.2067 43.2692L69.4615 45.5192L70.9712 44.0096C71.7705 44.4033 72.6612 44.5741 73.5495 44.5039C74.4377 44.4337 75.2906 44.1251 76.0181 43.6107C76.7456 43.0963 77.3209 42.3952 77.6833 41.5812C78.0456 40.7671 78.1816 39.8704 78.0769 38.9856L77.4039 38.3221L75.6539 40.0721C75.2499 40.442 74.7188 40.6417 74.1712 40.6294C73.6236 40.6171 73.1019 40.3939 72.7149 40.0063C72.328 39.6187 72.1056 39.0967 72.0942 38.5491C72.0828 38.0015 72.2833 37.4707 72.6538 37.0673L74.4038 35.3173L73.7404 34.6539C72.8547 34.5465 71.9565 34.6807 71.1409 35.0422C70.3252 35.4036 69.6225 35.979 69.1071 36.7072C68.5917 37.4354 68.2829 38.2895 68.2132 39.1789C68.1436 40.0683 68.3158 40.9601 68.7115 41.7596L67.2067 43.2692ZM64.8462 50.1346C65.2402 50.9343 65.4111 51.8256 65.3407 52.7143C65.2703 53.603 64.9613 54.4563 64.4463 55.184C63.9313 55.9117 63.2294 56.4869 62.4146 56.8488C61.5999 57.2108 60.7025 57.3461 59.8173 57.2404L59.1346 56.5817L60.8846 54.8269C61.0816 54.6299 61.2379 54.3961 61.3445 54.1387C61.4511 53.8813 61.5059 53.6055 61.5059 53.3269C61.5059 53.0484 61.4511 52.7725 61.3445 52.5151C61.2379 52.2578 61.0816 52.0239 60.8846 51.8269C60.6876 51.6299 60.4538 51.4737 60.1964 51.3671C59.939 51.2605 59.6632 51.2056 59.3846 51.2056C59.106 51.2056 58.8302 51.2605 58.5728 51.3671C58.3155 51.4737 58.0816 51.6299 57.8846 51.8269L56.1298 53.5769L55.4664 52.9135C55.3597 52.0255 55.4952 51.1252 55.8586 50.308C56.2221 49.4908 56.7999 48.7871 57.5307 48.2716C58.2616 47.7561 59.1183 47.448 60.0101 47.3798C60.9019 47.3117 61.7955 47.4861 62.5962 47.8846L64.8317 45.6731L67.0817 47.9231L64.8462 50.1346Z" fill="white"/>
</svg>
