<svg width="40" height="40" viewBox="0 0 40 40" fill="none" xmlns="http://www.w3.org/2000/svg">
<path d="M35.4051 35.3955H4.59492C2.06125 35.3955 0 33.3344 0 30.8007V9.19937C0 6.6657 2.06125 4.60445 4.59492 4.60445H35.4051C37.9387 4.60445 40 6.6657 40 9.19937V17.7192C40 18.3491 39.4893 18.8596 38.8596 18.8596C38.2299 18.8596 37.7192 18.3491 37.7192 17.7192V9.19937C37.7192 7.92335 36.6811 6.88523 35.4051 6.88523H4.59492C3.31891 6.88523 2.28078 7.92335 2.28078 9.19937V30.8007C2.28078 32.0767 3.31891 33.1148 4.59492 33.1148H35.4051C36.6811 33.1148 37.7192 32.0767 37.7192 30.8007V24.9609C37.7192 24.3311 38.2299 23.8205 38.8596 23.8205C39.4893 23.8205 40 24.3311 40 24.9609V30.8007C40 33.3344 37.9387 35.3955 35.4051 35.3955Z" fill="#00572E"/>
<path d="M17.3961 29.3513H5.99203V24.8851C5.99203 22.3132 8.07696 20.2284 10.6487 20.2284H12.7394C15.3113 20.2284 17.396 22.3134 17.396 24.8851V29.3513H17.3961Z" fill="#C2E0CF"/>
<path d="M17.3961 30.4917H5.99204C5.36228 30.4917 4.85165 29.9812 4.85165 29.3513V24.8852C4.85165 21.6886 7.4522 19.0881 10.6488 19.0881H12.7395C15.936 19.0881 18.5365 21.6887 18.5365 24.8852V29.3513C18.5365 29.9811 18.0259 30.4917 17.3961 30.4917ZM7.13244 28.2109H16.2557V24.8851C16.2557 22.9462 14.6783 21.3688 12.7395 21.3688H10.6488C8.70986 21.3688 7.13244 22.9462 7.13244 24.8851V28.2109Z" fill="#00572E"/>
<path d="M11.6938 19.7724C14.2131 19.7724 16.2554 17.7301 16.2554 15.2108C16.2554 12.6915 14.2131 10.6491 11.6938 10.6491C9.17443 10.6491 7.13211 12.6915 7.13211 15.2108C7.13211 17.7301 9.17443 19.7724 11.6938 19.7724Z" fill="#C2E0CF"/>
<path d="M11.6941 20.9125C8.55 20.9125 5.99203 18.3545 5.99203 15.2105C5.99203 12.0664 8.55 9.50844 11.6941 9.50844C14.8381 9.50844 17.3961 12.0664 17.3961 15.2105C17.3961 18.3545 14.8382 20.9125 11.6941 20.9125ZM11.6941 11.7892C9.80758 11.7892 8.27282 13.324 8.27282 15.2105C8.27282 17.097 9.80758 18.6317 11.6941 18.6317C13.5806 18.6317 15.1153 17.097 15.1153 15.2105C15.1153 13.324 13.5806 11.7892 11.6941 11.7892Z" fill="#00572E"/>
<path d="M24.8847 18.1371H20.323C19.6933 18.1371 19.1826 17.6266 19.1826 16.9967V12.3591C19.1826 11.7292 19.6934 11.2187 20.323 11.2187H24.8847C25.5144 11.2187 26.0251 11.7292 26.0251 12.3591V16.9967C26.0251 17.6266 25.5144 18.1371 24.8847 18.1371ZM21.4635 15.8563H23.7443V13.4994H21.4635V15.8563Z" fill="#00572E"/>
<path d="M29.4463 18.1371H24.8847C24.2549 18.1371 23.7443 17.6266 23.7443 16.9967V12.3591C23.7443 11.7292 24.255 11.2187 24.8847 11.2187H29.4463C30.0761 11.2187 30.5867 11.7292 30.5867 12.3591V16.9967C30.5867 17.6266 30.0761 18.1371 29.4463 18.1371ZM26.0251 15.8563H28.3059V13.4994H26.0251V15.8563Z" fill="#00572E"/>
<path d="M34.008 18.1371H29.4463C28.8166 18.1371 28.3059 17.6266 28.3059 16.9967V12.3591C28.3059 11.7292 28.8166 11.2187 29.4463 11.2187H34.008C34.6377 11.2187 35.1484 11.7292 35.1484 12.3591C35.1484 12.9889 34.6377 13.4995 34.008 13.4995H30.5867V15.8563H34.008C34.6377 15.8563 35.1484 16.3669 35.1484 16.9967C35.1484 17.6266 34.6377 18.1371 34.008 18.1371Z" fill="#00572E"/>
<path d="M32.1262 23.4213H22.2048C21.575 23.4213 21.0644 22.9107 21.0644 22.2809C21.0644 21.651 21.5751 21.1405 22.2048 21.1405H32.1262C32.756 21.1405 33.2666 21.651 33.2666 22.2809C33.2666 22.9107 32.756 23.4213 32.1262 23.4213Z" fill="#00572E"/>
<path d="M32.1262 29.1233H22.2048C21.575 29.1233 21.0644 28.6127 21.0644 27.9829C21.0644 27.353 21.5751 26.8425 22.2048 26.8425H32.1262C32.756 26.8425 33.2666 27.353 33.2666 27.9829C33.2666 28.6127 32.756 29.1233 32.1262 29.1233Z" fill="#00572E"/>
</svg>
