<svg width="32" height="32" viewBox="0 0 32 32" fill="none" xmlns="http://www.w3.org/2000/svg">
<path d="M2.875 5.82263C2.49531 5.82263 2.1875 5.51481 2.1875 5.13513V0.6875C2.1875 0.307813 2.49531 0 2.875 0H7.25C7.62969 0 7.9375 0.307813 7.9375 0.6875V0.760125C7.9375 3.55156 5.6665 5.82263 2.875 5.82263ZM3.5625 1.375V4.38331C5.06962 4.09794 6.25544 2.89225 6.51125 1.375H3.5625Z" fill="#EB2227"/>
<path d="M7.25 16.6239H2.875C2.49531 16.6239 2.1875 16.3161 2.1875 15.9364V11.4888C2.1875 11.1091 2.49531 10.8013 2.875 10.8013C5.6665 10.8013 7.9375 13.0723 7.9375 15.8638V15.9364C7.9375 16.3161 7.62969 16.6239 7.25 16.6239ZM3.5625 15.2489H6.51125C6.2555 13.7316 5.06969 12.526 3.5625 12.2406V15.2489Z" fill="#EB2227"/>
<path d="M29.125 5.82263C26.3335 5.82263 24.0625 3.55162 24.0625 0.760188V0.6875C24.0625 0.307813 24.3703 0 24.75 0H29.125C29.5047 0 29.8125 0.307813 29.8125 0.6875V5.13513C29.8125 5.51481 29.5047 5.82263 29.125 5.82263ZM25.4888 1.375C25.7445 2.89225 26.9303 4.09794 28.4375 4.38331V1.375H25.4888Z" fill="#EB2227"/>
<path d="M29.125 16.6239H24.75C24.3703 16.6239 24.0625 16.3161 24.0625 15.9364V15.8638C24.0625 13.0723 26.3335 10.8013 29.125 10.8013C29.5047 10.8013 29.8125 11.1091 29.8125 11.4888V15.9364C29.8125 16.3161 29.5047 16.6239 29.125 16.6239ZM25.4888 15.2489H28.4375V12.2406C26.9304 12.526 25.7446 13.7317 25.4888 15.2489Z" fill="#EB2227"/>
<path d="M16 12.1764C13.8977 12.1764 12.1875 10.4428 12.1875 8.31201C12.1875 6.18119 13.8977 4.44763 16 4.44763C18.1023 4.44763 19.8125 6.18119 19.8125 8.31201C19.8125 10.4428 18.1023 12.1764 16 12.1764ZM16 5.82263C14.6559 5.82263 13.5625 6.93938 13.5625 8.31201C13.5625 9.68463 14.6559 10.8014 16 10.8014C17.3441 10.8014 18.4375 9.68463 18.4375 8.31201C18.4375 6.93938 17.3441 5.82263 16 5.82263Z" fill="#EB2227"/>
<path d="M29.125 0H2.875C2.49531 0 2.1875 0.307813 2.1875 0.6875V19.7487C2.1875 20.1284 2.49531 20.4362 2.875 20.4362H9.0625V23.4838C9.0625 24.5344 9.46556 25.5228 10.1974 26.2668C10.6678 26.7449 10.9375 27.4079 10.9375 28.0856V31.3125C10.9375 31.6922 11.2453 32 11.625 32H20.375C20.7547 32 21.0625 31.6922 21.0625 31.3125V28.0856C21.0625 27.4079 21.3323 26.7451 21.8026 26.2669C22.5344 25.5229 22.9375 24.5345 22.9375 23.4839V20.4362H29.125C29.5047 20.4362 29.8125 20.1284 29.8125 19.7487V0.6875C29.8125 0.307813 29.5047 0 29.125 0ZM3.5625 1.375H28.4375V15.2489H22.8454C22.5469 14.1515 21.5528 13.3428 20.375 13.3428C19.1972 13.3428 18.2031 14.1515 17.9046 15.2489H3.5625V1.375ZM3.5625 16.6239H17.8125V19.0612H3.5625V16.6239ZM21.5625 23.4839C21.5625 24.1616 21.2927 24.8245 20.8224 25.3027C20.0906 26.0467 19.6875 27.035 19.6875 28.0856V30.625H12.3125V28.0856C12.3125 27.035 11.9094 26.0466 11.1776 25.3027C10.7072 24.8244 10.4375 24.1616 10.4375 23.4839V20.4363H17.8125V20.9167C16.3844 21.2362 15.3125 22.5279 15.3125 24.0693C15.3125 24.4489 15.6203 24.7568 16 24.7568C16.3797 24.7568 16.6875 24.4489 16.6875 24.0693C16.6875 23.0469 17.5006 22.2153 18.5 22.2153C18.8797 22.2153 19.1875 21.9074 19.1875 21.5278V15.9365C19.1875 15.2646 19.7202 14.7179 20.375 14.7179C21.0298 14.7179 21.5625 15.2646 21.5625 15.9365V21.6549V23.4839ZM28.4375 19.0612H22.9375V16.6239H28.4375V19.0612Z" fill="#2C3E50"/>
<path d="M24.75 8.99951H22.875C22.4953 8.99951 22.1875 8.6917 22.1875 8.31201C22.1875 7.93232 22.4953 7.62451 22.875 7.62451H24.75C25.1297 7.62451 25.4375 7.93232 25.4375 8.31201C25.4375 8.6917 25.1297 8.99951 24.75 8.99951Z" fill="#2C3E50"/>
<path d="M9.125 8.99951H7.25C6.87031 8.99951 6.5625 8.6917 6.5625 8.31201C6.5625 7.93232 6.87031 7.62451 7.25 7.62451H9.125C9.50469 7.62451 9.8125 7.93232 9.8125 8.31201C9.8125 8.6917 9.50469 8.99951 9.125 8.99951Z" fill="#2C3E50"/>
</svg>
