<svg width="232" height="209" viewBox="0 0 232 209" fill="none" xmlns="http://www.w3.org/2000/svg">
<g clip-path="url(#clip0_309_1409)">
<path d="M206.183 173.749C248.055 138.188 237.338 70.1713 185.972 50.7834C170.484 44.9377 152.889 44.476 134.745 55.9407C78.9257 91.1896 52.7722 46.8176 33.3025 73.3489C13.8328 99.8802 49.9828 160.286 104.446 142.333C144.255 129.211 152.285 213.972 192.645 184.388C197.543 180.799 202.055 177.252 206.183 173.749Z" fill="#F4F8F7"/>
<path d="M96.4991 45.3868C94.3474 43.1971 95.8553 39.4663 98.8877 39.4767C99.7102 39.4737 100.524 39.3077 101.282 38.9883C102.04 38.6689 102.728 38.2024 103.305 37.6156C103.882 37.0289 104.337 36.3335 104.645 35.5697C104.952 34.8058 105.105 33.9886 105.096 33.1651V31.3642C105.085 27.8685 102.294 25.0236 98.8648 25.0132C95.8324 25.0132 94.2955 21.2699 96.4389 19.0864C97.6027 17.8856 98.2514 16.2768 98.2463 14.6035C98.2413 12.9303 97.5829 11.3254 96.4119 10.1317L95.1657 8.85484C94.5952 8.26621 93.913 7.79775 93.159 7.47702C92.405 7.15629 91.5946 6.98977 90.7754 6.98725C89.9563 6.98473 89.1448 7.14627 88.3889 7.46235C87.633 7.77844 86.9479 8.2427 86.3738 8.82781V8.82781C84.2345 11.0051 80.5582 9.45168 80.5582 6.35727C80.5582 2.85941 77.7543 0.0166235 74.3272 0.00622559H72.5618C71.7402 0.0105569 70.9275 0.177542 70.1706 0.497571C69.4137 0.817599 68.7275 1.28435 68.1515 1.87096C67.5754 2.45757 67.121 3.15246 66.8142 3.91562C66.5074 4.67879 66.3545 5.49516 66.3641 6.31775V6.31775C66.3744 9.40801 62.7106 10.9427 60.5609 8.75087C59.9906 8.16198 59.3084 7.69329 58.5544 7.3724C57.8004 7.0515 56.9899 6.88489 56.1707 6.88238C55.3514 6.87986 54.5399 7.04148 53.784 7.35773C53.0281 7.67398 52.343 8.13846 51.769 8.72383L50.5228 9.99238C49.3595 11.1934 48.7112 12.8022 48.7162 14.4752C48.7213 16.1483 49.3793 17.7531 50.5498 18.9471C52.7016 21.1369 51.1937 24.8676 48.1613 24.8572C47.3397 24.8616 46.527 25.0285 45.7701 25.3486C45.0132 25.6686 44.327 26.1353 43.751 26.722C43.1749 27.3086 42.7205 28.0035 42.4137 28.7666C42.1069 29.5298 41.954 30.3462 41.9636 31.1688V32.9697C41.9739 36.4654 44.7654 39.3103 48.1945 39.3207C51.2269 39.3207 52.7639 43.064 50.6184 45.2475C49.4549 46.4486 48.8066 48.0576 48.812 49.7308C48.8174 51.404 49.4762 53.0088 50.6475 54.2022L51.8937 55.4791C52.4641 56.0677 53.1464 56.5362 53.9004 56.8569C54.6543 57.1776 55.4647 57.3441 56.2839 57.3467C57.1031 57.3492 57.9145 57.1876 58.6704 56.8715C59.4263 56.5555 60.1115 56.0912 60.6856 55.5061C62.8228 53.3288 66.5011 54.8822 66.5011 57.9766C66.5136 61.4724 69.3051 64.3173 72.7321 64.3277H74.4996C75.3199 64.3217 76.1308 64.1536 76.886 63.8331C77.6412 63.5126 78.3258 63.046 78.9004 62.46C79.4751 61.874 79.9285 61.1802 80.2348 60.4183C80.541 59.6564 80.694 58.8415 80.6849 58.0203V58.0203C80.6849 54.93 84.3384 53.3953 86.4901 55.5851C87.0606 56.1738 87.7429 56.6422 88.4968 56.9629C89.2508 57.2837 90.0612 57.4502 90.8804 57.4527C91.6996 57.4552 92.511 57.2937 93.2669 56.9776C94.0228 56.6615 94.708 56.1973 95.282 55.6122L96.5282 54.3436C97.6929 53.1427 98.3419 51.5332 98.3364 49.8593C98.331 48.1854 97.6716 46.5801 96.4991 45.3868V45.3868ZM62.6317 43.2407C56.5877 37.0852 56.5565 27.1344 62.5632 21.0183C63.9875 19.5675 65.6872 18.4164 67.5622 17.6327C69.4373 16.8491 71.45 16.4487 73.4818 16.4551C75.5137 16.4614 77.5237 16.8745 79.3939 17.6699C81.264 18.4654 82.9564 19.6272 84.3716 21.0869C90.4156 27.2425 90.4447 37.1933 84.4401 43.3093C83.0158 44.7602 81.3161 45.9113 79.441 46.6949C77.566 47.4786 75.5533 47.879 73.5215 47.8726C71.4896 47.8662 69.4796 47.4532 67.6094 46.6577C65.7393 45.8623 64.0469 44.7005 62.6317 43.2407Z" fill="#4D9578"/>
<path d="M123.635 207.297C163.617 207.297 196.029 205.743 196.029 203.826C196.029 201.909 163.617 200.355 123.635 200.355C83.6531 200.355 51.2415 201.909 51.2415 203.826C51.2415 205.743 83.6531 207.297 123.635 207.297Z" fill="#DBD2C8"/>
<path d="M165.32 25.7348H78.016C74.4577 25.7348 71.5732 28.623 71.5732 32.1857V196.76C71.5732 200.322 74.4577 203.21 78.016 203.21H165.32C168.879 203.21 171.763 200.322 171.763 196.76V32.1857C171.763 28.623 168.879 25.7348 165.32 25.7348Z" fill="#1F1406"/>
<path d="M167.349 33.5873H75.9161C75.3931 33.5873 74.969 34.0119 74.969 34.5356V193.418C74.969 193.941 75.3931 194.366 75.9161 194.366H167.349C167.873 194.366 168.297 193.941 168.297 193.418V34.5356C168.297 34.0119 167.873 33.5873 167.349 33.5873Z" fill="#2C3E50"/>
<path d="M114.984 33.4501L74.969 127.077V137.169L119.94 33.4501H114.984Z" fill="#969FA7"/>
<path d="M129.648 33.4521L74.9794 161.386V193.251C74.9727 193.504 75.0665 193.749 75.2402 193.933C75.4139 194.117 75.6532 194.224 75.9057 194.231H94.391L163.326 33.4521H129.648Z" fill="#969FA7"/>
<path d="M36.4011 52.9845C36.5958 50.6278 34.8456 48.5592 32.4918 48.3642C30.1379 48.1692 28.0719 49.9216 27.8771 52.2784C27.6824 54.6351 29.4327 56.7037 31.7865 56.8987C34.1403 57.0937 36.2063 55.3413 36.4011 52.9845Z" stroke="#1F1406" stroke-width="1.3524" stroke-linecap="round" stroke-linejoin="round"/>
<path d="M224.196 161.507C226.541 161.218 228.207 159.081 227.918 156.734C227.629 154.387 225.495 152.719 223.151 153.008C220.807 153.297 219.141 155.434 219.429 157.781C219.718 160.128 221.852 161.796 224.196 161.507Z" stroke="#1F1406" stroke-width="1.3524" stroke-linecap="round" stroke-linejoin="round"/>
<path d="M191.628 25.9244C193.811 25.0194 194.847 22.5147 193.943 20.3299C193.039 18.1451 190.537 17.1076 188.355 18.0126C186.173 18.9175 185.137 21.4223 186.041 23.6071C186.945 25.7919 189.446 26.8294 191.628 25.9244Z" stroke="#1F1406" stroke-width="1.3524" stroke-linecap="round" stroke-linejoin="round"/>
<path d="M150.497 166.828H94.9642C91.7459 166.818 88.6621 165.534 86.3864 163.255C84.1107 160.977 82.8278 157.889 82.818 154.667V94.6521C82.8278 91.4298 84.1107 88.3422 86.3864 86.0636C88.6621 83.7851 91.7459 82.5006 94.9642 82.4908H150.497C153.715 82.5006 156.799 83.7851 159.075 86.0636C161.35 88.3422 162.633 91.4298 162.643 94.6521V154.667C162.633 157.889 161.35 160.977 159.075 163.255C156.799 165.534 153.715 166.818 150.497 166.828V166.828Z" fill="white"/>
<path d="M143.323 140.357H101.15C97.8516 140.357 95.1782 143.034 95.1782 146.336V151.287C95.1782 154.589 97.8516 157.266 101.15 157.266H143.323C146.621 157.266 149.294 154.589 149.294 151.287V146.336C149.294 143.034 146.621 140.357 143.323 140.357Z" fill="#217B56"/>
<path d="M143.323 135.408H101.15C99.5675 135.403 98.0515 134.772 96.9327 133.653C95.8139 132.533 95.1831 131.015 95.1782 129.431V124.475C95.1831 122.891 95.8139 121.374 96.9327 120.254C98.0515 119.134 99.5675 118.503 101.15 118.499H143.312C144.894 118.503 146.41 119.134 147.529 120.254C148.648 121.374 149.279 122.891 149.284 124.475V129.429C149.279 131.011 148.65 132.528 147.533 133.648C146.417 134.767 144.903 135.4 143.323 135.408V135.408Z" fill="#EB2227"/>
<path d="M109.096 126.052H107.38L108.589 124.841C108.621 124.808 108.64 124.765 108.643 124.719C108.695 123.573 107.605 123.263 107.073 123.814L106.116 124.775V123.061C106.114 123.016 106.097 122.972 106.068 122.937C105.293 122.09 104.317 122.641 104.317 123.411V124.775L103.108 123.565C103.075 123.533 103.032 123.513 102.986 123.51C101.839 123.458 101.532 124.54 102.082 125.083L103.046 126.048H101.334C101.289 126.049 101.245 126.066 101.21 126.095C100.362 126.869 100.915 127.849 101.683 127.849H103.046L101.837 129.059C101.804 129.091 101.784 129.135 101.781 129.182C101.729 130.329 102.809 130.637 103.353 130.086L104.317 129.121V130.835C104.317 130.881 104.334 130.925 104.365 130.96C105.137 131.806 106.116 131.255 106.116 130.485V129.121L107.324 130.332C107.357 130.365 107.401 130.385 107.447 130.388C108.591 130.44 108.901 129.348 108.35 128.813L107.38 127.853H108.745C109.514 127.853 110.064 126.873 109.217 126.1C109.183 126.07 109.141 126.053 109.096 126.052V126.052Z" fill="white"/>
<path d="M120.2 126.052H118.488L119.699 124.841C119.731 124.808 119.75 124.765 119.753 124.719C119.805 123.573 118.715 123.263 118.181 123.814L117.217 124.775V123.063C117.217 123.017 117.2 122.971 117.169 122.937C116.397 122.09 115.421 122.641 115.421 123.411V124.775L114.21 123.562C114.177 123.53 114.133 123.511 114.087 123.508C112.943 123.456 112.633 124.538 113.186 125.081L114.149 126.045H112.438C112.392 126.046 112.348 126.063 112.313 126.093C111.466 126.867 112.018 127.846 112.785 127.846H114.149L112.938 129.057C112.907 129.09 112.887 129.133 112.884 129.179C112.833 130.327 113.923 130.635 114.457 130.084L115.421 129.119V130.833C115.421 130.879 115.438 130.923 115.468 130.957C116.241 131.804 117.217 131.253 117.217 130.483V129.119L118.428 130.329C118.46 130.363 118.504 130.383 118.551 130.386C119.695 130.438 120.004 129.346 119.452 128.811L118.488 127.846H119.853C120.619 127.846 121.172 126.867 120.324 126.093C120.289 126.065 120.245 126.051 120.2 126.052V126.052Z" fill="white"/>
<path d="M131.303 126.052H129.592L130.801 124.841C130.834 124.809 130.854 124.765 130.857 124.719C130.909 123.573 129.829 123.263 129.284 123.814L128.321 124.775V123.063C128.321 123.017 128.304 122.972 128.273 122.937C127.5 122.09 126.524 122.641 126.524 123.411V124.775L125.313 123.562C125.28 123.53 125.237 123.511 125.191 123.508C124.046 123.456 123.737 124.538 124.287 125.081L125.251 126.045H123.542C123.496 126.046 123.451 126.063 123.417 126.093C122.57 126.867 123.12 127.846 123.888 127.846H125.253L124.042 129.057C124.01 129.09 123.991 129.133 123.988 129.179C123.936 130.327 125.016 130.635 125.558 130.084L126.524 129.119V130.833C126.524 130.879 126.541 130.923 126.572 130.957C127.345 131.804 128.321 131.253 128.321 130.483V129.119L129.532 130.329C129.563 130.363 129.606 130.383 129.652 130.386C130.799 130.438 131.106 129.346 130.556 128.811L129.592 127.846H130.954C131.723 127.846 132.275 126.867 131.428 126.093C131.392 126.065 131.348 126.051 131.303 126.052V126.052Z" fill="white"/>
<path d="M142.407 126.052H140.695L141.904 124.841C141.938 124.809 141.958 124.765 141.96 124.719C142.012 123.573 140.922 123.263 140.388 123.814L139.424 124.775V123.063C139.423 123.017 139.406 122.972 139.377 122.937C138.604 122.09 137.626 122.641 137.626 123.411V124.775L136.417 123.562C136.384 123.531 136.34 123.511 136.294 123.508C135.15 123.456 134.84 124.538 135.391 125.081L136.355 126.045H134.645C134.599 126.047 134.554 126.064 134.518 126.093C133.673 126.867 134.224 127.846 134.992 127.846H136.355L135.146 129.057C135.113 129.09 135.094 129.133 135.092 129.179C135.04 130.327 136.13 130.635 136.662 130.084L137.626 129.119V130.833C137.627 130.878 137.644 130.922 137.673 130.957C138.446 131.804 139.424 131.253 139.424 130.483V129.119L140.633 130.329C140.666 130.363 140.709 130.383 140.756 130.386C141.9 130.438 142.21 129.346 141.659 128.811L140.695 127.846H142.066C142.835 127.846 143.385 126.869 142.54 126.093C142.502 126.065 142.455 126.05 142.407 126.052V126.052Z" fill="white"/>
<path d="M141.942 147.376H104.039C103.478 147.376 103.023 147.831 103.023 148.393V149.233C103.023 149.794 103.478 150.25 104.039 150.25H141.942C142.503 150.25 142.957 149.794 142.957 149.233V148.393C142.957 147.831 142.503 147.376 141.942 147.376Z" fill="white"/>
<path d="M143.323 96.6382H101.15C97.8516 96.6382 95.1782 99.315 95.1782 102.617V107.568C95.1782 110.87 97.8516 113.547 101.15 113.547H143.323C146.621 113.547 149.294 110.87 149.294 107.568V102.617C149.294 99.315 146.621 96.6382 143.323 96.6382Z" fill="#C0C5CB"/>
<path d="M141.942 103.655H104.039C103.478 103.655 103.023 104.11 103.023 104.672V105.512C103.023 106.073 103.478 106.529 104.039 106.529H141.942C142.503 106.529 142.957 106.073 142.957 105.512V104.672C142.957 104.11 142.503 103.655 141.942 103.655Z" fill="white"/>
<path d="M180.665 130.698C181.128 130.696 181.572 130.512 181.9 130.184C182.227 129.856 182.412 129.412 182.414 128.949V127.062C182.412 126.599 182.227 126.154 181.9 125.826C181.572 125.498 181.128 125.313 180.665 125.311V125.311C180.202 125.313 179.758 125.498 179.43 125.826C179.103 126.154 178.918 126.599 178.916 127.062V128.957C178.92 129.419 179.106 129.861 179.433 130.187C179.761 130.513 180.203 130.696 180.665 130.698V130.698Z" fill="#217B56"/>
<path d="M184.125 129.25C184.125 130.217 184.908 131.001 185.874 131.001C186.84 131.001 187.623 130.217 187.623 129.25V127.358C187.623 126.391 186.84 125.607 185.874 125.607C184.908 125.607 184.125 126.391 184.125 127.358V129.25Z" fill="#217B56"/>
<path d="M216.549 126.809C217.59 121.276 213.955 115.946 208.429 114.904C202.903 113.861 197.579 117.501 196.538 123.034C195.497 128.567 199.133 133.897 204.658 134.939C210.184 135.982 215.508 132.342 216.549 126.809Z" fill="#217B56"/>
<path d="M178.175 127.597H201.362C202.411 127.597 203.261 126.746 203.261 125.696V124.124C203.261 123.074 202.411 122.223 201.362 122.223H178.175C177.126 122.223 176.276 123.074 176.276 124.124V125.696C176.276 126.746 177.126 127.597 178.175 127.597Z" fill="#217B56"/>
<path d="M211.473 124.91C211.473 125.319 211.594 125.72 211.821 126.06C212.047 126.401 212.37 126.667 212.748 126.823C213.126 126.98 213.541 127.021 213.942 126.942C214.343 126.862 214.712 126.665 215.001 126.375C215.29 126.086 215.487 125.717 215.567 125.315C215.646 124.914 215.605 124.498 215.449 124.119C215.292 123.741 215.027 123.418 214.687 123.191C214.346 122.964 213.947 122.843 213.538 122.843C212.99 122.844 212.465 123.061 212.078 123.449C211.691 123.837 211.474 124.362 211.473 124.91V124.91Z" fill="#F0E6DB"/>
<path d="M196.71 127.597C196.71 127.597 195.729 125.216 196.785 121.965" stroke="#066132" stroke-width="0.897529" stroke-linecap="round" stroke-linejoin="round"/>
<path d="M138.994 84.0271C148.582 74.4269 148.582 58.862 138.994 49.2619C129.406 39.6617 113.861 39.6617 104.272 49.2619C94.6841 58.862 94.6841 74.4269 104.272 84.0271C113.861 93.6272 129.406 93.6272 138.994 84.0271Z" fill="#2C3E50"/>
<path d="M146.185 66.6443C146.183 70.6212 145.218 74.5382 143.372 78.0596C141.526 81.581 138.856 84.6018 135.588 86.8631C132.321 89.1245 128.555 90.5588 124.613 91.0432C120.67 91.5276 116.669 91.0477 112.953 89.6445" stroke="#1F1406" stroke-width="1.3524" stroke-linecap="round" stroke-linejoin="round"/>
<path d="M121.633 86.5938C132.721 86.5938 141.709 77.5941 141.709 66.4925C141.709 55.3909 132.721 46.3913 121.633 46.3913C110.545 46.3913 101.557 55.3909 101.557 66.4925C101.557 77.5941 110.545 86.5938 121.633 86.5938Z" fill="#969FA7"/>
<path d="M127.549 65.923C130.796 62.6712 130.796 57.3991 127.549 54.1473C124.301 50.8955 119.035 50.8955 115.788 54.1473C112.54 57.3991 112.54 62.6712 115.788 65.923C119.035 69.1747 124.301 69.1747 127.549 65.923Z" fill="white"/>
<path d="M128.285 68.5222C127.511 69.5484 126.509 70.3805 125.358 70.9527C124.208 71.525 122.94 71.8218 121.656 71.8198C120.371 71.8177 119.104 71.5169 117.956 70.9411C116.807 70.3652 115.808 69.53 115.036 68.5014C110.657 70.0329 106.94 73.0305 104.512 76.9882C106.307 79.922 108.823 82.3455 111.821 84.0269C114.818 85.7083 118.197 86.5912 121.633 86.5912C125.069 86.5912 128.447 85.7083 131.445 84.0269C134.442 82.3455 136.959 79.922 138.753 76.9882C136.336 73.0484 132.641 70.0596 128.285 68.5222V68.5222Z" fill="white"/>
<path d="M217.833 71.5979H165.968C159.549 71.5979 154.345 76.8081 154.345 83.2352V96.0039C154.345 102.431 159.549 107.641 165.968 107.641H217.833C224.252 107.641 229.456 102.431 229.456 96.0039V83.2352C229.456 76.8081 224.252 71.5979 217.833 71.5979Z" fill="#EB2227"/>
<path d="M159.82 101.267L157.912 117.997L181.969 105.647L159.82 101.267Z" fill="#EB2227"/>
<path d="M212.36 97.5927H172.577C171.085 97.5883 169.655 96.9926 168.6 95.9358C167.545 94.879 166.95 93.4471 166.947 91.9528V87.2821C166.951 85.788 167.545 84.3564 168.6 83.2997C169.655 82.2431 171.085 81.6472 172.577 81.6423H212.36C213.852 81.6467 215.282 82.242 216.337 83.2983C217.393 84.3545 217.988 85.786 217.993 87.28V91.9528C217.988 93.4473 217.394 94.8792 216.338 95.9359C215.283 96.9927 213.853 97.5883 212.36 97.5927V97.5927Z" fill="white"/>
<path d="M180.075 88.769H178.461L179.602 87.6273C179.633 87.5963 179.651 87.5548 179.654 87.5108C179.703 86.4295 178.684 86.1446 178.171 86.6582L177.263 87.5691V85.9532C177.263 85.9094 177.247 85.8672 177.217 85.8347C176.488 85.0341 175.556 85.556 175.556 86.2818V87.5691L174.415 86.4274C174.384 86.3962 174.343 86.3776 174.299 86.3754C173.219 86.3255 172.935 87.3466 173.448 87.8581L174.357 88.769H172.743C172.7 88.769 172.657 88.7853 172.625 88.8147C171.827 89.5447 172.347 90.4659 173.072 90.4659H174.357L173.215 91.6097C173.185 91.6414 173.167 91.6827 173.165 91.7262C173.115 92.8075 174.135 93.0904 174.646 92.5788L175.556 91.6679V93.2838C175.556 93.3274 175.573 93.3694 175.601 93.4023C176.33 94.2009 177.263 93.681 177.263 92.9552V91.6679L178.403 92.8096C178.434 92.8408 178.476 92.8594 178.52 92.8616C179.6 92.9115 179.882 91.8904 179.371 91.3768L178.461 90.4618H179.747C180.472 90.4618 180.993 89.5405 180.194 88.8106C180.16 88.7833 180.118 88.7686 180.075 88.769V88.769Z" fill="#EB2227"/>
<path d="M190.547 88.769H188.934L190.076 87.6273C190.106 87.5958 190.125 87.5546 190.128 87.5109C190.176 86.4295 189.158 86.1446 188.645 86.6582L187.735 87.5691V85.9533C187.735 85.9094 187.719 85.8672 187.689 85.8347C186.96 85.0362 186.04 85.5561 186.04 86.2818V87.5691L184.898 86.4274C184.868 86.3963 184.827 86.3778 184.784 86.3754C183.704 86.3255 183.419 87.3466 183.932 87.8582L184.84 88.769H183.226C183.183 88.7694 183.141 88.7857 183.11 88.8148C182.31 89.5447 182.829 90.466 183.554 90.466H184.852L183.71 91.6097C183.679 91.6407 183.66 91.6822 183.658 91.7262C183.61 92.8076 184.628 93.0904 185.141 92.5788L186.051 91.6679V93.2838C186.052 93.3271 186.067 93.3688 186.094 93.4023C186.823 94.2009 187.756 93.681 187.756 92.9552V91.6679L188.898 92.8096C188.928 92.8407 188.969 92.8593 189.012 92.8616C190.093 92.9115 190.377 91.8905 189.864 91.3768L188.934 90.4618H190.221C190.944 90.4618 191.467 89.5385 190.666 88.8085C190.632 88.7814 190.59 88.7673 190.547 88.769V88.769Z" fill="#EB2227"/>
<path d="M201.022 88.769H199.408L200.548 87.6273C200.579 87.5963 200.598 87.5548 200.6 87.5109C200.65 86.4295 199.63 86.1446 199.117 86.6582L198.209 87.5691V85.9533C198.209 85.9094 198.193 85.8672 198.164 85.8347C197.435 85.0362 196.502 85.5561 196.502 86.2818V87.5691L195.362 86.4274C195.331 86.3962 195.289 86.3777 195.246 86.3754C194.166 86.3255 193.881 87.3466 194.394 87.8582L195.304 88.769H193.7C193.656 88.769 193.614 88.7853 193.582 88.8148C192.784 89.5447 193.304 90.468 194.028 90.468H195.314L194.174 91.6097C194.143 91.6407 194.124 91.6822 194.122 91.7262C194.072 92.8076 195.092 93.0904 195.605 92.5788L196.513 91.6679V93.2838C196.513 93.3275 196.529 93.3694 196.558 93.4023C197.287 94.2009 198.209 93.681 198.209 92.9552V91.6679L199.35 92.8096C199.381 92.8409 199.422 92.8594 199.466 92.8616C200.546 92.9115 200.829 91.8905 200.318 91.3768L199.408 90.4618H200.693C201.418 90.4618 201.94 89.5385 201.14 88.8085C201.107 88.7814 201.065 88.7673 201.022 88.769V88.769Z" fill="#EB2227"/>
<path d="M211.496 88.769H209.882L211.022 87.6273C211.053 87.5958 211.071 87.5546 211.074 87.5109C211.122 86.4295 210.104 86.1446 209.591 86.6582L208.682 87.5691V85.9533C208.681 85.9099 208.666 85.8679 208.638 85.8347C207.907 85.0362 206.987 85.5561 206.987 86.2818V87.5691L205.844 86.4274C205.814 86.3963 205.773 86.3778 205.73 86.3754C204.65 86.3255 204.366 87.3466 204.879 87.8602L205.786 88.769H204.168C204.125 88.7694 204.084 88.7857 204.052 88.8148C203.252 89.5447 203.774 90.468 204.496 90.468H205.784L204.642 91.6097C204.611 91.6413 204.593 91.6825 204.59 91.7262C204.542 92.8076 205.56 93.0904 206.073 92.5788L206.983 91.6679V93.2838C206.983 93.3275 207 93.3694 207.028 93.4023C207.757 94.2009 208.677 93.681 208.677 92.9552V91.6679L209.82 92.8096C209.85 92.8407 209.891 92.8593 209.934 92.8616C211.014 92.9115 211.299 91.8905 210.786 91.3768L209.88 90.4618H211.168C211.893 90.4618 212.414 89.5385 211.612 88.8085C211.58 88.7817 211.538 88.7676 211.496 88.769V88.769Z" fill="#EB2227"/>
<path d="M186.254 56.2984V49.1883C186.254 47.5381 186.909 45.9555 188.074 44.7886C189.24 43.6218 190.82 42.9662 192.469 42.9662C194.117 42.9662 195.697 43.6218 196.863 44.7886C198.028 45.9555 198.683 47.5381 198.683 49.1883V56.2984H203.284V49.1883C203.303 47.7538 203.038 46.3297 202.504 44.9986C201.969 43.6676 201.176 42.4561 200.17 41.4347C199.164 40.4133 197.965 39.6022 196.643 39.0486C195.321 38.495 193.902 38.2099 192.47 38.2099C191.037 38.2099 189.618 38.495 188.296 39.0486C186.975 39.6022 185.776 40.4133 184.77 41.4347C183.763 42.4561 182.97 43.6676 182.436 44.9986C181.901 46.3297 181.636 47.7538 181.656 49.1883V56.2984H186.254Z" fill="#066132"/>
<path d="M203.207 51.688H181.731C179.134 51.688 177.028 53.7959 177.028 56.3962V72.2571C177.028 74.8574 179.134 76.9653 181.731 76.9653H203.207C205.804 76.9653 207.909 74.8574 207.909 72.2571V56.3962C207.909 53.7959 205.804 51.688 203.207 51.688Z" fill="#4D9578"/>
<path d="M203.209 51.688H197.601C198.847 51.6891 200.042 52.1856 200.923 53.0684C201.804 53.9513 202.299 55.1482 202.299 56.3962V72.2571C202.3 73.5045 201.805 74.7011 200.925 75.584C200.045 76.4668 198.851 76.9636 197.605 76.9653H203.213C204.459 76.9636 205.653 76.4668 206.533 75.584C207.413 74.7011 207.907 73.5045 207.907 72.2571V56.3962C207.907 55.1482 207.412 53.9513 206.531 53.0684C205.65 52.1856 204.455 51.6891 203.209 51.688V51.688Z" fill="#217B56"/>
<path d="M193.714 66.8095C194.963 65.558 194.963 63.529 193.714 62.2775C192.464 61.026 190.437 61.026 189.187 62.2775C187.937 63.529 187.937 65.558 189.187 66.8095C190.437 68.061 192.464 68.061 193.714 66.8095Z" fill="#066132"/>
<path d="M191.451 63.7724C191.88 63.7735 192.292 63.9447 192.596 64.2486C192.9 64.5525 193.071 64.9644 193.073 65.3945V70.7369C193.071 71.167 192.9 71.5789 192.596 71.8828C192.292 72.1867 191.88 72.3579 191.451 72.359V72.359C191.022 72.3579 190.61 72.1867 190.307 71.8827C190.003 71.5788 189.832 71.1668 189.831 70.7369V65.3945C189.832 64.9646 190.003 64.5527 190.307 64.2487C190.61 63.9448 191.022 63.7735 191.451 63.7724V63.7724Z" fill="#066132"/>
<path d="M190.714 70.737V67.3015C190.144 66.9677 189.692 66.4658 189.42 65.8645C189.147 65.2633 189.067 64.5922 189.19 63.9435C189.313 63.2948 189.634 62.7002 190.109 62.2414C190.583 61.7825 191.188 61.482 191.839 61.3809C191.104 61.266 190.352 61.4112 189.713 61.7917C189.073 62.1722 188.586 62.7641 188.336 63.4655C188.086 64.1668 188.087 64.9336 188.341 65.6338C188.594 66.3341 189.084 66.9238 189.725 67.3015V70.737C189.725 70.9923 189.786 71.2439 189.901 71.4714C190.017 71.6989 190.185 71.8959 190.391 72.0464C190.597 72.1969 190.835 72.2967 191.087 72.3377C191.339 72.3786 191.596 72.3596 191.839 72.2821C191.513 72.1758 191.229 71.9693 191.027 71.6919C190.825 71.4145 190.715 71.0803 190.714 70.737V70.737Z" fill="#E9F2EE"/>
<path d="M186.256 50.043H181.656V51.688H186.256V50.043Z" fill="#162070"/>
<path d="M203.284 50.043H198.683V51.688H203.284V50.043Z" fill="#162070"/>
<path d="M34.3181 111.22C34.3181 111.22 36.8251 109.141 37.849 109.257C38.873 109.373 39.2261 109.413 39.4587 109.534C39.6913 109.654 42.4205 109.721 42.4579 110.925C42.4953 112.129 45.2099 112.137 44.9503 113.339C44.6906 114.541 46.5828 115.352 45.536 116.44C44.4892 117.528 45.6668 118.104 44.512 118.613C44.0572 118.821 43.5525 118.405 43.1931 118.709C42.6365 119.195 42.6427 119.316 41.9739 119.148C41.4131 119.004 40.3456 117.808 40.5387 117.026C40.6841 116.436 39.5979 116.5 39.0558 116.161C38.4493 115.781 38.3434 115.028 37.7971 115.036C35.6786 115.072 35.0472 112.68 35.0472 112.68L34.3181 111.22Z" fill="#612F24"/>
<path d="M41.8659 117.819C42.1546 118.285 42.0736 118.858 41.6582 119.116C41.2428 119.374 40.6924 119.195 40.412 118.73C40.1316 118.264 40.2147 117.69 40.6197 117.43C41.0248 117.17 41.5752 117.353 41.8659 117.819Z" stroke="#EDA24C" stroke-width="0.662462" stroke-linecap="round" stroke-linejoin="round"/>
<path d="M44.1174 119.651C44.6533 120.514 44.4829 121.595 43.7332 122.061C42.9834 122.527 41.9386 122.207 41.4007 121.342C40.8628 120.476 41.0372 119.397 41.7849 118.929C42.5327 118.461 43.5795 118.786 44.1174 119.651Z" stroke="#EDA24C" stroke-width="0.662462" stroke-linecap="round" stroke-linejoin="round"/>
<path fill-rule="evenodd" clip-rule="evenodd" d="M0 206.758C0 207.996 20.1468 209 45.0084 209C69.87 209 90.0189 207.996 90.0189 206.758C90.0189 205.521 69.8721 204.518 45.0084 204.518C20.1447 204.518 0 205.521 0 206.758Z" fill="#DBD2C8"/>
<path d="M49.0232 167.415H15.2576C13.8054 167.415 12.6281 168.593 12.6281 170.047V172.227C12.6281 173.681 13.8054 174.86 15.2576 174.86H49.0232C50.4755 174.86 51.6527 173.681 51.6527 172.227V170.047C51.6527 168.593 50.4755 167.415 49.0232 167.415Z" fill="#734229"/>
<path fill-rule="evenodd" clip-rule="evenodd" d="M57.3354 205.96C57.5214 205.883 57.6694 205.735 57.7473 205.549C57.8251 205.364 57.8263 205.154 57.7508 204.968L43.918 170.68C43.8412 170.493 43.6935 170.344 43.5074 170.266C43.3213 170.188 43.112 170.187 42.9252 170.264C42.739 170.341 42.5909 170.489 42.5131 170.675C42.4354 170.861 42.4341 171.071 42.5098 171.258L56.3405 205.544C56.3785 205.636 56.4344 205.721 56.505 205.792C56.5756 205.863 56.6595 205.919 56.7519 205.958C56.8443 205.997 56.9434 206.017 57.0435 206.017C57.1436 206.017 57.2428 205.998 57.3354 205.96V205.96Z" fill="#734229"/>
<path fill-rule="evenodd" clip-rule="evenodd" d="M28.2658 205.96C28.0794 205.883 27.931 205.736 27.8531 205.55C27.7752 205.364 27.7742 205.154 27.8504 204.968L41.6811 170.68C41.7579 170.493 41.9056 170.344 42.0916 170.266C42.2777 170.188 42.4871 170.187 42.6739 170.264V170.264C42.86 170.341 43.0081 170.489 43.0859 170.675C43.1637 170.861 43.1649 171.071 43.0893 171.258L29.2565 205.544C29.1797 205.73 29.0324 205.878 28.8468 205.956C28.6612 206.034 28.4523 206.035 28.2658 205.96V205.96Z" fill="#734229"/>
<path fill-rule="evenodd" clip-rule="evenodd" d="M10.4826 205.96C10.2966 205.883 10.1485 205.735 10.0707 205.549C9.99288 205.364 9.99162 205.154 10.0672 204.968L23.8854 170.68C23.9623 170.493 24.1099 170.344 24.296 170.266C24.4821 170.188 24.6915 170.187 24.8782 170.264V170.264C25.0647 170.341 25.2132 170.488 25.2911 170.675C25.3689 170.861 25.3698 171.071 25.2936 171.258L11.4754 205.537C11.4379 205.631 11.3825 205.715 11.3124 205.787C11.2422 205.858 11.1586 205.915 11.0664 205.955C10.9742 205.994 10.8752 206.014 10.775 206.015C10.6748 206.016 10.5755 205.997 10.4826 205.96V205.96Z" fill="#734229"/>
<path fill-rule="evenodd" clip-rule="evenodd" d="M38.9394 205.96C39.1254 205.883 39.2735 205.735 39.3513 205.549C39.4291 205.364 39.4304 205.154 39.3548 204.968L25.5221 170.68C25.4452 170.493 25.2976 170.344 25.1115 170.266C24.9254 170.188 24.716 170.187 24.5293 170.264V170.264C24.3431 170.341 24.195 170.489 24.1172 170.675C24.0394 170.861 24.0382 171.071 24.1139 171.258L37.9466 205.537C37.9841 205.631 38.0395 205.715 38.1097 205.787C38.1798 205.858 38.2634 205.915 38.3556 205.955C38.4478 205.994 38.5469 206.014 38.647 206.015C38.7472 206.016 38.8466 205.997 38.9394 205.96Z" fill="#734229"/>
<path fill-rule="evenodd" clip-rule="evenodd" d="M49.9745 130.687L56.0788 136.836L64.3161 129.579L66.3163 131.45L62.3347 137.371C60.536 139.361 59.024 141.152 56.9574 142.503C56.4218 142.848 55.7967 143.027 55.1602 143.017C54.5237 143.008 53.9041 142.811 53.3787 142.451L45.6938 137.279C44.7052 137.714 49.9745 130.687 49.9745 130.687Z" fill="#F9D1BD"/>
<path fill-rule="evenodd" clip-rule="evenodd" d="M35.1926 133.761C35.5166 134.062 45.7208 140.771 47.8622 139.053C50.0036 137.336 56.2616 131.746 54.1846 129.34C52.8117 127.749 50.2113 127.468 48.8986 126.532C45.1144 123.854 42.0093 123.569 42.0093 123.569L35.1926 133.761Z" fill="#BDD7CC"/>
<path fill-rule="evenodd" clip-rule="evenodd" d="M62.0751 202.087C61.9858 201.127 62.0751 170.617 61.3627 168.429C60.5672 165.957 58.4445 164.143 56.1266 163.118L43.2991 155.553L27.0154 165.743L52.712 172.254C51.5094 179.509 56.6022 192.376 58.5483 202.135L62.0751 202.087Z" fill="#F9D1BD"/>
<path fill-rule="evenodd" clip-rule="evenodd" d="M62.073 202.087L65.3193 204.475C65.9249 205.03 66.6981 205.369 67.5168 205.436L68.331 205.494C68.5155 205.513 68.6896 205.589 68.8299 205.711C68.9702 205.832 69.0701 205.994 69.1161 206.174V206.174C69.1543 206.29 69.1678 206.413 69.1555 206.534C69.1432 206.656 69.1054 206.773 69.0446 206.879C68.9839 206.985 68.9015 207.077 68.8029 207.149C68.7042 207.221 68.5916 207.271 68.4722 207.297L59.4996 206.918C59.4996 206.918 57.3727 206.411 58.648 202.121L62.073 202.087Z" fill="#4A2A1A"/>
<path fill-rule="evenodd" clip-rule="evenodd" d="M50.1199 202.087C50.1822 201.114 54.9801 170.23 54.6353 168.014C54.2448 165.518 52.4669 163.667 50.3754 162.623L39.1056 154.929L35.8344 166.678L45.6502 171.877C43.3655 179.212 46.3149 192.257 46.6887 202.123L50.1199 202.087Z" fill="#F9D1BD"/>
<path fill-rule="evenodd" clip-rule="evenodd" d="M50.1199 202.087L53.3641 204.475C53.97 205.03 54.743 205.368 55.5616 205.436L56.3758 205.494C56.5605 205.513 56.7349 205.588 56.8753 205.71C57.0158 205.832 57.1154 205.994 57.1609 206.174V206.174C57.1992 206.29 57.2127 206.412 57.2005 206.534C57.1883 206.655 57.1508 206.773 57.0902 206.879C57.0297 206.985 56.9475 207.077 56.8491 207.149C56.7507 207.221 56.6383 207.271 56.5191 207.297L47.5444 206.918C47.5444 206.918 45.4197 206.411 46.6949 202.121L50.1199 202.087Z" fill="#4A2A1A"/>
<path fill-rule="evenodd" clip-rule="evenodd" d="M45.3324 152.641C45.3324 152.641 61.9608 162.58 62.9453 165.969C63.9298 169.359 66.3121 178.189 66.6984 178.963C66.6984 178.963 57.9522 188.36 48.2901 186.112C38.6279 183.864 33.668 183.282 33.668 183.282C33.668 183.282 34.5861 174.901 31.6804 172.129C28.7746 169.357 23.6237 165.62 24.575 160.203C25.5262 154.785 25.6135 154.272 25.6135 154.272L45.3324 152.641Z" fill="#BDD7CC"/>
<path fill-rule="evenodd" clip-rule="evenodd" d="M24.575 160.203C25.5241 154.796 25.6135 154.272 25.6135 154.272L33.4894 155.222C33.4894 155.222 33.3959 155.784 32.4779 161.683C31.5599 167.583 37.228 171.536 40.4411 174.487C42.8047 176.656 42.9833 182.165 42.9127 184.925C36.7898 183.648 33.6618 183.282 33.6618 183.282C33.6618 183.282 34.5798 174.901 31.6741 172.129C28.7684 169.357 23.6258 165.62 24.575 160.203Z" fill="#4D9578"/>
<path fill-rule="evenodd" clip-rule="evenodd" d="M27.0196 135.381C27.5554 129.918 23.3994 127.239 26.7184 124.536C29.109 123.513 34.8478 122.155 34.8478 122.155L36.499 122.017L37.1221 121.907C39.116 121.56 41.6603 122.34 44.5182 124.365C48.6016 126.871 42.4849 121.963 45.1704 127.299C47.4385 131.808 45.6544 141.994 45.6544 141.994L48.2942 155.012C48.2942 155.012 23.8127 161.696 25.412 154.003L27.0196 135.381Z" fill="#BDD7CC"/>
<path fill-rule="evenodd" clip-rule="evenodd" d="M33.4396 157.888C33.4396 157.888 30.8994 149.759 30.0728 134.264C30.0728 134.264 27.8047 137.737 27.0217 135.379L26.3404 141.979L25.8876 144.019L25.4099 154.001C25.0755 157.354 22.606 159.35 33.4396 157.888Z" fill="#4D9578"/>
<path fill-rule="evenodd" clip-rule="evenodd" d="M23.9955 132.232L21.2954 147.168C20.2714 149.468 21.4304 152.425 23.9373 153.916L34.5134 159.739L35.8281 157.225L27.1317 150.027L27.7278 136.579C27.7278 136.579 26.654 133.834 23.9955 132.232Z" fill="#F9D1BD"/>
<path fill-rule="evenodd" clip-rule="evenodd" d="M25.8274 125.511C25.6716 125.838 23.4949 127.058 20.9298 135.481C20.3872 137.16 19.7471 138.806 19.0128 140.411C17.8393 142.855 28.3592 145.779 29.352 142.761C30.3448 139.744 30.0312 128.697 30.0312 128.697L25.8274 125.511Z" fill="#BDD7CC"/>
<path fill-rule="evenodd" clip-rule="evenodd" d="M40.4037 116.968L39.2759 123.377C39.2074 123.756 39.0397 124.11 38.7899 124.403C38.5401 124.696 38.2172 124.917 37.8541 125.044C37.491 125.17 37.1008 125.199 36.7234 125.125C36.3459 125.052 35.9947 124.879 35.7056 124.625L35.1469 124.151C34.7504 123.804 34.4608 123.351 34.3119 122.845C34.1629 122.339 34.1608 121.801 34.3057 121.294L36.445 113.807L40.4037 116.976V116.968Z" fill="#F9D1BD"/>
<path fill-rule="evenodd" clip-rule="evenodd" d="M33.5808 114.793C33.4382 114.313 33.4918 113.796 33.7297 113.355C33.9677 112.914 34.3705 112.586 34.8498 112.443L38.3226 111.403C39.3216 111.106 40.221 111.732 40.6696 112.674C41.1992 113.784 41.7392 116.255 41.9158 118.097C42.0155 119.137 41.5004 120.27 40.5117 120.568C39.4462 120.886 35.9423 120.824 35.0742 119.01C34.4074 117.627 34.0211 116.261 33.5829 114.791L33.5808 114.793Z" fill="#F9D1BD"/>
<path fill-rule="evenodd" clip-rule="evenodd" d="M39.71 120.982L39.4151 122.66L37.5396 120.352L39.71 120.982Z" fill="#4A2A1A"/>
<path fill-rule="evenodd" clip-rule="evenodd" d="M41.0621 117.958L39.3174 118.44C39.3174 118.44 39.6809 119.624 40.4909 119.291C41.301 118.958 41.0621 117.958 41.0621 117.958Z" fill="white"/>
<path d="M42.3229 165.772L62.9453 163.027L51.4014 156.632L32.2931 159.435C32.1796 159.452 32.0745 159.505 31.9926 159.585C31.9108 159.666 31.8564 159.77 31.8373 159.883C31.8182 159.996 31.8353 160.113 31.8862 160.216C31.9371 160.319 32.0191 160.403 32.1207 160.456L42.3229 165.772Z" fill="#94866F"/>
<path fill-rule="evenodd" clip-rule="evenodd" d="M38.9457 157.198C38.9457 157.198 39.9135 157.268 40.8918 158.724C42.165 160.616 42.2647 160.215 40.979 161.704C40.6197 162.12 39.0412 162.224 39.0412 162.224L36.2518 160.752C36.2518 160.752 32.5132 160.157 33.4375 157.882C34.0917 156.283 38.9457 157.198 38.9457 157.198Z" fill="#F9D1BD"/>
<path d="M42.3229 165.772L62.9453 163.027L65.9217 149.973C66.1626 148.915 65.1282 147.956 63.9257 148.122L48.3482 150.302C46.7967 150.51 45.5692 151.562 45.2577 152.928L42.3229 165.772Z" fill="#C7C0B7"/>
<path d="M56.2112 158.518C57.6243 157.964 58.4479 156.692 58.0506 155.676C57.6533 154.66 56.1857 154.285 54.7725 154.839C53.3594 155.393 52.5358 156.666 52.9331 157.682C53.3304 158.698 54.798 159.072 56.2112 158.518Z" fill="white"/>
<path d="M45.7146 141.642L46.0739 135.834C46.0739 135.834 46.346 133.58 43.7082 130.614" stroke="#4D9578" stroke-width="1.22113" stroke-linecap="round" stroke-linejoin="round"/>
<path fill-rule="evenodd" clip-rule="evenodd" d="M30.4321 141.443C30.4113 140.445 30.0811 131.461 30.0811 131.461Z" fill="#4D9578"/>
<path d="M30.4321 141.443C30.4113 140.445 30.0811 131.461 30.0811 131.461" stroke="#4D9578" stroke-width="1.22113" stroke-linecap="round" stroke-linejoin="round"/>
<path fill-rule="evenodd" clip-rule="evenodd" d="M64.3099 129.579C64.3099 129.579 69.276 126.898 70.2086 129.624C71.1411 132.351 67.0702 133.241 65.6932 132.442C64.3161 131.644 64.3099 129.579 64.3099 129.579Z" fill="#F9D1BD"/>
<path d="M36.8147 110.494C36.8147 110.494 34.7377 109.43 33.8757 109.871C33.0138 110.311 32.777 110.286 32.6108 110.48C32.4447 110.673 30.3469 111.881 30.7104 113.015C31.0739 114.148 28.6334 114.841 29.2565 115.872C29.8796 116.904 28.3738 118.9 29.7716 119.366C31.1694 119.832 30.3698 120.884 31.562 120.971C32.7542 121.059 34.5653 121.664 35.016 120.3C35.2029 119.734 34.0668 115.354 35.9506 114.685C37.8345 114.015 37.8719 111.773 37.8719 111.773L36.8147 110.494Z" fill="#612F24"/>
<path d="M36.6485 112.187C36.6485 112.187 37.66 114.161 37.3422 114.622C37.0245 115.084 36.8209 115.194 36.9538 115.739C37.0868 116.284 36.2726 116.03 36.5197 116.746C36.5197 116.746 35.6661 116.407 35.8447 116.018C36.0233 115.629 36.2165 115.2 36.0192 114.897C35.8219 114.593 34.1104 114.173 34.8768 113.135C35.6433 112.098 36.5094 112.029 36.5094 112.029" fill="#612F24"/>
<path d="M36.6423 110.788C36.6423 110.788 37.0826 111.975 38.0235 111.971C38.9644 111.967 39.3071 111.763 40.059 112.345C40.8108 112.928 40.8898 114.217 42.0549 113.961C43.2201 113.705 42.0799 111.848 41.9511 111.717C41.8223 111.586 41.6437 109.887 40.1566 109.846C38.6694 109.804 37.606 109.968 37.4066 110.137L36.6423 110.788Z" fill="#612F24"/>
<path fill-rule="evenodd" clip-rule="evenodd" d="M33.6473 119.091C34.1561 119.78 35.0305 119.994 35.5996 119.572C36.1687 119.15 36.2227 118.249 35.7056 117.561C35.1884 116.872 34.3223 116.658 33.7532 117.08C33.1841 117.503 33.1446 118.403 33.6473 119.091Z" fill="#F9D1BD"/>
<path d="M35.6661 119.717C35.6661 120.266 35.2798 120.711 34.8042 120.711C34.3285 120.711 33.9422 120.266 33.9422 119.717C33.9422 119.168 34.3285 118.723 34.8042 118.723C35.2798 118.723 35.6661 119.16 35.6661 119.717Z" stroke="#EDA24C" stroke-width="0.662462" stroke-linecap="round" stroke-linejoin="round"/>
<path d="M35.0119 124.309C35.8951 124.309 36.6111 123.483 36.6111 122.464C36.6111 121.446 35.8951 120.62 35.0119 120.62C34.1286 120.62 33.4126 121.446 33.4126 122.464C33.4126 123.483 34.1286 124.309 35.0119 124.309Z" stroke="#EDA24C" stroke-width="0.662462" stroke-linecap="round" stroke-linejoin="round"/>
<path d="M188.688 209C201.278 209 211.483 208.262 211.483 207.351C211.483 206.44 201.278 205.702 188.688 205.702C176.099 205.702 165.893 206.44 165.893 207.351C165.893 208.262 176.099 209 188.688 209Z" fill="#DBD2C8"/>
<path d="M191.958 184.195C191.958 184.195 191.542 176.03 195.194 171.852C198.845 167.675 196.741 158.94 201.666 156.091C206.59 153.242 209.122 151.724 209.122 151.724C209.122 151.724 208.981 161.409 204.902 164.826C200.822 168.242 202.039 173.391 200.586 178.307C199.132 183.224 196.037 187.231 196.037 187.231L191.958 184.195Z" fill="#4D9578"/>
<path d="M191.114 141.472C191.114 141.472 194.631 142.231 194.631 147.738C194.631 153.244 201.244 157.422 199.134 165.206C197.023 172.99 195.898 182.107 195.898 182.107L195.331 186.707L189.706 185.526C189.706 185.526 193.193 176.03 191.943 173.181C190.693 170.332 191.505 164.258 191.943 161.03C192.381 157.803 190.269 157.231 189.706 154.003C189.143 150.776 190.973 147.738 191.114 141.472Z" fill="#4D9578"/>
<path d="M188.105 184.284C188.105 184.284 185.612 164.177 176.32 168.544C167.028 172.911 169.707 181.984 166.893 184.284C166.893 184.284 170.691 186.204 172.38 182.215C174.069 178.226 176.326 172.911 178.148 174.62C179.969 176.33 180.164 184.284 184.15 184.284H188.105Z" fill="#4D9578"/>
<path d="M174.883 150.314C174.883 150.314 173.898 158.859 177.275 162.278C180.653 165.697 183.184 166.645 184.31 170.538C185.436 174.431 187.685 185.634 187.685 185.634L191.096 184.746C191.096 184.746 191.625 176.33 189.374 172.53C187.122 168.731 188.67 162.848 184.028 159.618C179.386 156.389 175.45 155.44 174.883 150.314Z" fill="#4D9578"/>
<path d="M182.655 183.835H198.874V200.274C198.874 202.248 198.091 204.141 196.697 205.537C195.303 206.933 193.412 207.717 191.441 207.717H190.088C188.117 207.717 186.226 206.933 184.832 205.537C183.438 204.141 182.655 202.248 182.655 200.274V183.835V183.835Z" fill="#E0D7CD"/>
<path d="M198.876 200.902V185.193C195.617 196.73 189.081 204.101 186.481 206.685C187.804 207.374 189.274 207.731 190.765 207.725V207.725C195.237 207.723 198.876 204.67 198.876 200.902Z" fill="#C4B5A7"/>
<path d="M188.105 184.284C188.105 184.284 188.013 177.303 185 173.196" stroke="#42373B" stroke-width="0.95248" stroke-linecap="round" stroke-linejoin="round"/>
<path d="M192.678 183.34C192.678 183.34 196.575 179.466 195.74 174.982C194.905 170.499 195.445 169.278 196.65 167.234C197.854 165.189 198.538 160.215 199.111 159.123" stroke="#42373B" stroke-width="0.95248" stroke-linecap="round" stroke-linejoin="round"/>
</g>
<defs>
<clipPath id="clip0_309_1409">
<rect width="232" height="209" fill="white"/>
</clipPath>
</defs>
</svg>
