<svg width="206" height="159" viewBox="0 0 206 159" fill="none" xmlns="http://www.w3.org/2000/svg">
    <path
        d="M100.985 1.53005C116.181 -3.49464 141.912 3.73067 147.759 25.07C153.551 46.2104 146.458 52.0358 148.609 70.2488C150.76 88.4619 193.528 108.183 172.377 133.304C153.355 155.893 113.957 115.469 82.2836 120.956C82.2836 120.956 30.2351 134.073 14.4649 112.63C-9.09669 80.5902 45.6152 75.3908 63.1385 46.4335C79.4315 19.5073 81.0112 8.13444 100.985 1.53005Z"
        fill="#F4F8F7" />
    <path
        d="M118.311 155.864C143.147 155.864 163.281 154.148 163.281 152.032C163.281 149.917 143.147 148.201 118.311 148.201C93.4747 148.201 73.3411 149.917 73.3411 152.032C73.3411 154.148 93.4747 155.864 118.311 155.864Z"
        fill="#E3E5EB" />
    <path
        d="M156.598 93.9266L154.933 93.4548C156.243 94.6822 157.215 96.2266 157.755 97.9391C158.295 99.6516 158.384 101.474 158.014 103.231C157.614 105.132 156.693 106.883 155.353 108.289C154.014 109.695 152.309 110.701 150.431 111.192L152.884 111.599C154.044 111.843 155.242 111.856 156.407 111.638C157.573 111.419 158.684 110.973 159.677 110.325C160.67 109.677 161.526 108.839 162.196 107.86C162.865 106.882 163.336 105.78 163.58 104.62C164.072 102.276 163.612 99.8327 162.303 97.8273C160.994 95.822 158.942 94.4189 156.598 93.9266Z"
        fill="#CF1A1E" />
    <path
        d="M117.574 151.679L118.451 151.934C120.361 152.491 122.414 152.266 124.159 151.31C125.904 150.354 127.199 148.744 127.758 146.834L137.726 112.708C138.283 110.798 138.058 108.744 137.102 106.999C136.146 105.254 134.536 103.96 132.626 103.401L131.749 103.146C129.838 102.589 127.785 102.813 126.039 103.769C124.294 104.726 123 106.336 122.441 108.246L112.479 142.373C111.922 144.283 112.146 146.335 113.101 148.08C114.056 149.825 115.665 151.119 117.574 151.679Z"
        fill="#CF1A1E" />
    <path
        d="M105.078 109.333L140.478 114.612C142.407 115.018 144.398 115.039 146.335 114.676C148.273 114.312 150.12 113.571 151.771 112.493C153.422 111.416 154.845 110.024 155.958 108.397C157.071 106.769 157.852 104.939 158.258 103.01C159.076 99.1133 158.314 95.0515 156.138 91.7173C153.962 88.3831 150.551 86.0496 146.655 85.23L111.179 74.0994C110.422 73.9413 104.326 109.175 105.078 109.333Z"
        fill="#EB2227" />
    <path
        d="M145.048 106.185L110.18 100.986C109.47 105.623 106.304 108.599 106.304 108.599L141.445 113.839C145.092 114.605 148.893 113.988 152.11 112.107C155.327 110.226 157.73 107.216 158.851 103.662C154.76 106.284 149.802 107.19 145.048 106.185Z"
        fill="#CF1A1E" />
    <path
        d="M147.733 85.5512L144.966 84.762C147.145 86.8027 148.761 89.3708 149.659 92.2183C150.556 95.0658 150.704 98.0965 150.089 101.018C149.425 104.178 147.893 107.091 145.666 109.43C143.439 111.768 140.604 113.439 137.479 114.256L141.559 114.932C143.488 115.337 145.479 115.359 147.416 114.996C149.354 114.632 151.201 113.89 152.852 112.813C154.503 111.736 155.926 110.344 157.039 108.716C158.152 107.089 158.933 105.259 159.339 103.329C160.157 99.4329 159.394 95.3709 157.217 92.0369C155.041 88.7029 151.629 86.37 147.733 85.5512Z"
        fill="white" />
    <path
        d="M88.553 42.7539L118.047 76.2552C119.942 85.4759 117.688 101.182 111.828 110.008L70.252 129.839C70.0115 129.975 69.7368 130.039 69.4609 130.023C69.185 130.007 68.9196 129.912 68.6965 129.749C68.4734 129.585 68.3022 129.361 68.2033 129.103C68.1045 128.845 68.0823 128.564 68.1393 128.293L85.9967 43.3174C86.0533 43.0468 86.1869 42.7984 86.3813 42.6019C86.5758 42.4054 86.8228 42.2692 87.0928 42.2097C87.3627 42.1502 87.6441 42.1699 87.9031 42.2664C88.1622 42.3629 88.3878 42.5322 88.553 42.7539Z"
        fill="#EB2227" />
    <path
        d="M95.9451 89.7772C101.098 65.2612 97.2502 43.7004 87.3506 41.6197C77.4511 39.5389 65.2487 57.7262 60.0958 82.2421C54.9429 106.758 58.7908 128.319 68.6903 130.4C78.5898 132.48 90.7922 114.293 95.9451 89.7772Z"
        fill="#EF4E52" />
    <path
        d="M93.2228 90.7255C97.9524 68.2238 94.8109 48.5165 86.2062 46.7079C77.6015 44.8993 66.7919 61.6743 62.0624 84.176C57.3328 106.678 60.4743 126.385 69.079 128.194C77.6837 130.002 88.4933 113.227 93.2228 90.7255Z"
        fill="#EB2227" />
    <path
        d="M95.2965 74.9687C94.0215 73.6287 92.109 72.5463 89.3793 71.7379C83.5896 70.0384 76.8922 77.0444 74.5959 86.7062C72.2997 96.368 75.3915 104.652 81.0652 106.723C84.1162 107.838 86.4519 107.826 88.2917 107.014C90.4312 101.696 92.2442 95.5698 93.5294 88.9578C94.4339 84.3401 95.0243 79.6663 95.2965 74.9687Z"
        fill="#CF1A1E" />
    <path
        d="M87.4829 88.5894C88.7081 83.1661 87.6462 78.3054 85.111 77.7327C82.5759 77.1599 79.5275 81.0921 78.3024 86.5154C77.0772 91.9387 78.1391 96.7995 80.6743 97.3722C83.2094 97.9449 86.2577 94.0127 87.4829 88.5894Z"
        fill="#EF4E52" />
    <path d="M111.827 110.008C111.827 110.008 122.716 89.2906 117.368 75.2659" stroke="#27427A"
        stroke-width="0.509991" stroke-linecap="round" stroke-linejoin="round" />
    <path
        d="M86.2033 46.7038C79.1795 45.2274 70.6868 56.1387 65.2312 72.4342C71.4429 66.5833 81.1251 63.4672 95.3845 73.1545C95.8154 58.7587 92.4494 48.0158 86.2033 46.7038Z"
        fill="#CF1A1E" />
    <path
        d="M94.7498 118.154C101.839 110.742 109.667 80.0393 105.015 61.4514L110.741 67.9538C113.126 70.6631 113.043 102.623 102.865 114.283L94.7498 118.154Z"
        fill="white" />
    <g style="mix-blend-mode:multiply" opacity="0.21">
        <path
            d="M147.464 106.546C145.097 109.83 141.662 112.188 137.747 113.218L141.668 113.868L141.806 113.889C145.452 114.655 149.253 114.037 152.47 112.157C155.687 110.276 158.089 107.267 159.21 103.713C155.722 105.945 151.586 106.943 147.464 106.546Z"
            fill="#8B92E3" />
    </g>
    <g style="mix-blend-mode:multiply" opacity="0.21">
        <path
            d="M105.971 109.555C107.285 106.971 108.348 103.999 109.194 100.851L102.881 99.9214C102.054 103.05 101.044 106.128 99.8552 109.138L105.971 109.555Z"
            fill="#8B92E3" />
    </g>
    <path
        d="M50.0388 40.2778C51.5114 41.3503 52.6378 42.8305 53.279 44.5357C53.9201 46.2409 54.048 48.0965 53.6467 49.8736C53.2455 51.6506 52.3328 53.2713 51.0212 54.5356C49.7095 55.7999 48.0564 56.6525 46.2659 56.9882C44.4753 57.3239 42.6256 57.128 40.9451 56.4247C39.2646 55.7213 37.8268 54.5414 36.8091 53.0303C35.7914 51.5193 35.2384 49.7434 35.2183 47.9217C35.1983 46.1001 35.712 44.3124 36.6961 42.7793"
        stroke="#2D4E73" stroke-width="0.543141" stroke-miterlimit="10" stroke-linecap="round" />
    <path d="M44.8364 38.4968C45.8991 38.5289 46.9486 38.7419 47.9397 39.1267" stroke="#2D4E73"
        stroke-width="0.543141" stroke-miterlimit="10" stroke-linecap="round" />
    <path d="M40.5586 46.4387L44.4562 51.0706L49.6785 44.1462" stroke="#2D4E73"
        stroke-width="0.543141" stroke-miterlimit="10" stroke-linecap="round" />
    <path
        d="M128.673 53.5919C128.826 52.3458 127.94 51.2113 126.694 51.0578C125.448 50.9044 124.314 51.7901 124.16 53.0362C124.007 54.2823 124.892 55.4169 126.139 55.5703C127.385 55.7238 128.519 54.838 128.673 53.5919Z"
        stroke="#2D4E73" stroke-width="0.543141" stroke-miterlimit="10" stroke-linecap="round" />
    <path
        d="M73.3407 28.4577C74.5962 28.4577 75.614 27.4399 75.614 26.1844C75.614 24.9289 74.5962 23.9111 73.3407 23.9111C72.0852 23.9111 71.0674 24.9289 71.0674 26.1844C71.0674 27.4399 72.0852 28.4577 73.3407 28.4577Z"
        stroke="#2D4E73" stroke-width="0.543141" stroke-miterlimit="10" stroke-linecap="round" />
    <path
        d="M95.9984 139.747C97.2208 139.461 97.9797 138.238 97.6934 137.016C97.4072 135.793 96.1841 135.034 94.9617 135.321C93.7393 135.607 92.9804 136.83 93.2666 138.052C93.5529 139.275 94.7759 140.034 95.9984 139.747Z"
        stroke="#2D4E73" stroke-width="0.543141" stroke-miterlimit="10" stroke-linecap="round" />
    <path d="M105.102 18.2847H121.888V29.5389H104.526V21.0973" stroke="#2D4E73"
        stroke-width="0.543141" stroke-miterlimit="10" stroke-linecap="round" />
    <path d="M105.902 19.6604L113.431 25.2231L121.889 18.2847" stroke="#2D4E73"
        stroke-width="0.543141" stroke-miterlimit="10" stroke-linecap="round" />
    <path fill-rule="evenodd" clip-rule="evenodd"
        d="M17.1968 86.4092C16.4484 88.0348 14.8177 88.9183 12.6795 88.2107L3.07129 82.8558L4.80654 81.5808L12.5546 84.4916L17.1968 86.4092Z"
        fill="#F9D1BD" />
    <path
        d="M4.80698 81.5797L2.84351 81.2163C2.45976 81.1419 2.06209 81.2023 1.7177 81.3872L0.3675 82.1254C-0.102967 82.3804 -0.125917 83.0179 0.322876 83.3621L2.80526 83.6936C3.37496 83.7626 3.95106 83.6338 4.43723 83.329L5.26979 82.819L4.80698 81.5797Z"
        fill="#F9D1BD" />
    <path fill-rule="evenodd" clip-rule="evenodd"
        d="M31.2368 89.0179C29.2581 90.8028 15.6387 89.8071 14.5512 89.2818C13.3285 88.6889 6.10571 85.476 6.10571 85.476L8.06408 82.0833C8.06408 82.0833 14.6302 84.0544 15.3378 83.9562C16.0454 83.858 29.3103 83.0739 29.3103 83.0739L31.2368 89.0179Z"
        fill="#BDD7CC" />
    <path fill-rule="evenodd" clip-rule="evenodd"
        d="M48.7573 97.5882C50.4964 97.1636 52.1998 97.8929 52.9762 100.011L54.7612 110.865L52.6804 110.301L50.1445 102.422L48.7573 97.5882Z"
        fill="#F9D1BD" />
    <path
        d="M52.6753 110.297L53.6086 112.063C53.7888 112.409 54.0835 112.682 54.4424 112.836L55.864 113.433C56.3587 113.639 56.8738 113.26 56.861 112.698L55.5733 110.541C55.2729 110.052 54.8139 109.681 54.2728 109.489L53.3536 109.156L52.6753 110.297Z"
        fill="#F9D1BD" />
    <path fill-rule="evenodd" clip-rule="evenodd"
        d="M42.0742 84.9685C44.702 85.4109 52.3888 96.6983 52.6566 97.8751C52.9536 99.2011 54.926 106.857 54.926 106.857L51.0501 107.431C51.0501 107.431 48.5129 101.056 47.9901 100.569C47.4674 100.082 40.3301 93.1475 40.3301 93.1475L42.0742 84.9685Z"
        fill="#BDD7CC" />
    <path fill-rule="evenodd" clip-rule="evenodd"
        d="M35.4119 78.633C35.4119 78.633 36.5237 77.0495 34.6775 75.7579C32.8314 74.4664 33.0481 78.0529 33.108 78.0988C33.1679 78.1447 35.4119 78.633 35.4119 78.633Z"
        fill="#101C33" />
    <path fill-rule="evenodd" clip-rule="evenodd"
        d="M30.4719 79.5127C30.4719 79.5127 30.9398 81.3117 32.3232 81.1702C33.7065 81.0287 33.1825 77.0571 33.1825 77.0571L30.4719 79.5127Z"
        fill="#101C33" />
    <path fill-rule="evenodd" clip-rule="evenodd"
        d="M34.9156 79.8431C34.9156 79.8431 35.0546 81.8436 35.1706 83.4998C35.1812 83.7243 35.1279 83.9472 35.0169 84.1426C34.9058 84.3381 34.7416 84.498 34.5433 84.6039C34.332 84.7228 34.0955 84.7898 33.8532 84.7993C33.6109 84.8089 33.3698 84.7607 33.1498 84.6587L32.7316 84.4636C32.1273 84.1831 31.7601 83.6171 31.7881 83.0114C31.8633 81.4585 31.9998 78.6306 31.9998 78.6306L34.9156 79.8393V79.8431Z"
        fill="#F9D1BD" />
    <path fill-rule="evenodd" clip-rule="evenodd"
        d="M35.136 81.1079L35.0824 82.2465L33.7539 81.354L35.136 81.1079Z" fill="#633C1D" />
    <path fill-rule="evenodd" clip-rule="evenodd"
        d="M31.2009 78.0454C31.113 77.7782 31.1347 77.4871 31.2611 77.2359C31.3875 76.9847 31.6085 76.7939 31.8754 76.7054L33.798 76.0679C34.3501 75.8868 34.8614 76.2273 35.1253 76.75C35.4377 77.3684 35.7781 78.753 35.903 79.787C35.9744 80.3709 35.7092 81.0174 35.1572 81.1984C34.5681 81.3922 32.6174 81.4062 32.0972 80.3964C31.7033 79.6315 31.4674 78.8665 31.2047 78.0416L31.2009 78.0454Z"
        fill="#F9D1BD" />
    <path fill-rule="evenodd" clip-rule="evenodd"
        d="M30.2295 79.9068C30.2295 79.9068 29.5716 77.7393 30.3022 76.7627C31.2839 75.4546 32.7463 74.5952 34.6766 75.758C34.6766 75.758 35.7094 76.1826 32.7361 77.0623C32.3536 77.1745 33.204 78.934 32.7361 79.1724C32.1101 79.4924 31.2928 79.7538 30.2244 79.9068H30.2295Z"
        fill="#101C33" />
    <path fill-rule="evenodd" clip-rule="evenodd"
        d="M31.3078 80.4667C31.6023 80.8492 32.0945 80.9563 32.4043 80.7102C32.7141 80.4641 32.7281 79.9567 32.4336 79.5755C32.1391 79.1943 31.6469 79.0859 31.3359 79.332C31.0248 79.578 31.0133 80.0855 31.3078 80.4667Z"
        fill="#F9D1BD" />
    <g style="mix-blend-mode:multiply" opacity="0.21">
        <path
            d="M37.3864 159C47.2269 159 55.2043 158.406 55.2043 157.673C55.2043 156.94 47.2269 156.346 37.3864 156.346C27.5459 156.346 19.5686 156.94 19.5686 157.673C19.5686 158.406 27.5459 159 37.3864 159Z"
            fill="#646AA3" />
    </g>
    <path fill-rule="evenodd" clip-rule="evenodd"
        d="M30.4178 155.011C30.4178 155.011 34.2198 138.887 31.6571 132.509L35.2436 110.636L24.9902 111.339L27.5568 155.165L30.4178 155.011Z"
        fill="#F9D1BD" />
    <path fill-rule="evenodd" clip-rule="evenodd"
        d="M27.5111 154.377L25.9187 155.851C25.4903 156.214 23.2578 156.922 23.2578 156.922C23.0028 157.374 23.4057 157.613 23.7589 157.673L30.1758 157.539C30.1758 157.539 31.6803 157.232 30.6144 154.38C29.4045 154.895 27.7381 155.263 27.5111 154.377Z"
        fill="#101C33" />
    <path fill-rule="evenodd" clip-rule="evenodd"
        d="M24.3403 114.757L24.7458 133.28L26.2464 151.85H33.7063C33.7063 151.85 33.2881 148.622 33.459 147.597C33.6298 146.572 34.734 136.856 32.8508 132.385L34.6014 114.179L24.3403 114.757Z"
        fill="#217B56" />
    <path
        d="M32.8384 132.378L32.8368 132.394L32.8431 132.408C33.7814 134.63 33.9773 138.164 33.915 141.281C33.8527 144.394 33.5332 147.076 33.4484 147.585C33.4045 147.848 33.3989 148.248 33.4141 148.695C33.4294 149.143 33.4657 149.644 33.5074 150.112C33.549 150.58 33.596 151.017 33.6326 151.336C33.6509 151.495 33.6666 151.625 33.6777 151.716L33.6863 151.785H30.2755L30.2649 151.7C30.2538 151.61 30.2382 151.48 30.2199 151.32C30.1834 151.002 30.1366 150.566 30.095 150.099C30.0535 149.632 30.0173 149.133 30.0022 148.688C29.987 148.242 29.9932 147.854 30.0348 147.606L30.0348 147.606C30.1755 146.758 30.9558 139.984 30.1623 135.129L30.1623 135.128C29.7485 132.678 29.6523 130.185 29.876 127.71L31.1534 114.433L34.5818 114.246L32.8384 132.378Z"
        fill="#066132" stroke="#066132" stroke-width="0.127498" />
    <path fill-rule="evenodd" clip-rule="evenodd"
        d="M51.6025 153.875C51.6025 153.875 50.4104 137.512 45.934 131.755L42.7695 109.834L32.8948 112.326L48.9353 154.507L51.6025 153.875Z"
        fill="#F9D1BD" />
    <path fill-rule="evenodd" clip-rule="evenodd"
        d="M48.999 154.042L48.3768 156.038C48.22 156.548 46.6875 158.206 46.6875 158.206C46.7347 158.702 47.2306 158.704 47.58 158.588L53.1249 155.393C53.1249 155.393 54.2609 154.417 51.614 152.577C50.8592 153.574 49.7309 154.664 48.999 154.042Z"
        fill="#101C33" />
    <path fill-rule="evenodd" clip-rule="evenodd"
        d="M32.3298 114.111L39.3664 133.729L46.528 151.538L53.8706 150.223C53.8706 150.223 52.4681 147.154 52.3253 146.128C52.1825 145.102 50.2981 135.447 47.0699 131.429L43.2054 111.603L32.3298 114.111Z"
        fill="#217B56" />
    <path fill-rule="evenodd" clip-rule="evenodd"
        d="M39.6343 99.7979L25.7013 100.859C23.4344 101.691 24.3396 114.756 24.3396 114.756L33.5016 115.18C37.7575 115.091 42.7924 118.43 43.3189 111.338C43.9271 103.231 39.6343 99.7979 39.6343 99.7979Z"
        fill="#217B56" />
    <path
        d="M43.1968 110.187C43.172 110.188 43.1382 110.191 43.0957 110.194C42.997 110.201 42.8516 110.211 42.6655 110.222C42.2933 110.244 41.7581 110.271 41.1064 110.291C39.8029 110.331 38.0339 110.341 36.1714 110.225C34.3084 110.109 32.3543 109.867 30.6796 109.401C29.0537 108.948 27.7023 108.288 26.9481 107.34L42.7431 105.834L42.7598 105.926C42.777 106.022 42.8014 106.16 42.83 106.33C42.8874 106.669 42.9619 107.131 43.0306 107.625C43.0993 108.12 43.162 108.646 43.1958 109.113C43.2277 109.553 43.2336 109.934 43.1968 110.187Z"
        fill="#066132" stroke="#066132" stroke-width="0.127498" />
    <path fill-rule="evenodd" clip-rule="evenodd"
        d="M29.0103 83.1288L30.7595 82.8267L34.9466 82.4365L41.7231 84.5313C43.5399 85.3753 43.0261 87.0711 42.3874 88.9784L43.0593 95.0333C44.5599 99.6003 44.63 103.003 44.5076 107.746C37.0184 110.741 25.6265 110.322 23.1543 106.912C23.3035 98.449 23.1913 94.7656 25.1203 86.7765C25.3422 85.8553 25.8286 85.0191 26.5198 84.371C27.211 83.7229 28.0767 83.2911 29.0103 83.1288Z"
        fill="#BDD7CC" />
    <path
        d="M30.7589 82.824C30.7589 82.824 29.1856 87.0149 32.0339 87.1271C34.8822 87.2393 36.3382 82.8865 36.3382 82.8865L34.2345 82.0144L30.7589 82.824Z"
        fill="#F9D1BD" />
    <path d="M43.5287 95.8631L41.5244 92.7445L41.8419 91.9617" stroke="#066132"
        stroke-width="0.535491" stroke-linecap="round" stroke-linejoin="round" />
    <path d="M24.0352 92.0114C24.2213 91.4606 24.1193 90.4686 25.0551 88.9514" stroke="#066132"
        stroke-width="0.535491" stroke-linecap="round" stroke-linejoin="round" />
    <path fill-rule="evenodd" clip-rule="evenodd"
        d="M171.629 82.4695C170.038 83.1861 168.314 82.8673 167.278 81.1321L164.04 71.7954L166.097 71.8949L169.627 78.4304L171.629 82.4695Z"
        fill="#F9D1BD" />
    <path
        d="M166.114 71.909L164.658 70.8508C164.367 70.6389 164.01 70.5388 163.652 70.569L162.199 70.6876C162.082 70.6974 161.969 70.7354 161.87 70.7983C161.771 70.8612 161.689 70.9472 161.63 71.0489C161.571 71.1506 161.538 71.265 161.533 71.3824C161.528 71.4998 161.551 71.6166 161.601 71.7228L163.506 72.9494C163.959 73.2264 164.494 73.3361 165.02 73.2592L165.94 73.1394L166.114 71.909Z"
        fill="#F9D1BD" />
    <path fill-rule="evenodd" clip-rule="evenodd"
        d="M167.854 73.3662L164.667 75.6777C164.667 75.6777 167.438 81.6141 167.832 82.7003C168.103 83.4487 168.614 84.8678 169.694 86.0433C170.774 87.2189 174.729 93.553 174.729 93.553C174.729 93.553 178.741 94.3779 179.018 90.5313C179.162 88.5346 176.146 85.7998 174.096 84.1819C172.843 83.1958 171.839 81.9293 171.164 80.4844L167.854 73.3662Z"
        fill="#BDD7CC" />
    <path
        d="M187.942 157.387C196.7 157.387 203.799 156.859 203.799 156.207C203.799 155.555 196.7 155.026 187.942 155.026C179.185 155.026 172.085 155.555 172.085 156.207C172.085 156.859 179.185 157.387 187.942 157.387Z"
        fill="#E3E5EB" />
    <path fill-rule="evenodd" clip-rule="evenodd"
        d="M182.179 152.007C182.179 152.007 184.325 137.658 181.554 131.981L183.067 112.517L173.995 113.142L180.115 152.119L182.179 152.007Z"
        fill="#F9D1BD" />
    <path fill-rule="evenodd" clip-rule="evenodd"
        d="M180.051 151.757L179.443 154.324C179.372 154.795 179.188 154.795 179.188 154.795L178.168 155.248C177.944 155.323 177.901 155.591 177.962 155.81C177.977 155.868 179.237 155.81 179.473 155.81L180.764 155.73L182.791 152.992C182.791 152.992 183.925 151.66 182.381 150.486C181.884 151.536 180.711 152.105 180.051 151.757Z"
        fill="#4A2A1A" />
    <path fill-rule="evenodd" clip-rule="evenodd"
        d="M173.365 116.184L175.463 132.668L178.225 149.193H184.864C184.864 149.193 184.243 146.32 184.317 145.408C184.391 144.495 184.631 135.845 182.607 131.871L182.767 115.669L173.365 116.184Z"
        fill="#217B56" />
    <path fill-rule="evenodd" clip-rule="evenodd"
        d="M182.654 131.871L182.815 115.669L179.664 115.842L179.546 127.699C179.539 129.931 179.817 132.154 180.372 134.315C181.449 138.632 181.274 144.643 181.213 145.408C181.141 146.32 181.76 149.193 181.76 149.193H184.909C184.909 149.193 184.29 146.32 184.364 145.408C184.438 144.495 184.677 135.849 182.654 131.871Z"
        fill="#066132" />
    <path fill-rule="evenodd" clip-rule="evenodd"
        d="M191.52 134.05L201.673 148.556C203.361 148.952 203.353 147.998 202.721 146.547C200.043 140.243 200.416 136.159 194.349 130.969L191.52 134.05Z"
        fill="#F9D1BD" />
    <path fill-rule="evenodd" clip-rule="evenodd"
        d="M181.302 116.151L188.101 131.705C188.465 132.552 188.906 133.363 189.419 134.128L198.997 147.251L202.894 144.361C201.064 137.76 199.421 134.671 194.085 128.728L190.482 113.346L186.239 114.016L181.302 116.151Z"
        fill="#217B56" />
    <path fill-rule="evenodd" clip-rule="evenodd"
        d="M201.588 148.525L201.784 150.745C201.88 151.215 201.423 153.195 201.423 153.195C201.669 153.567 202.044 153.353 202.255 153.107L205.09 148.162C205.09 148.162 205.534 146.887 202.758 146.586C202.617 147.71 202.404 148.7 201.588 148.525Z"
        fill="#4A2A1A" />
    <path fill-rule="evenodd" clip-rule="evenodd"
        d="M186.975 102.87L174.576 103.815C172.559 104.556 173.365 116.182 173.365 116.182L181.525 116.565C185.313 116.486 189.793 119.457 190.263 113.144C190.796 105.928 186.975 102.87 186.975 102.87Z"
        fill="#217B56" />
    <path fill-rule="evenodd" clip-rule="evenodd"
        d="M190.369 113.891C190.369 113.891 182.142 114.784 179.465 111.164L190.308 108.487C190.308 108.487 190.537 112.97 190.369 113.891Z"
        fill="#066132" />
    <path fill-rule="evenodd" clip-rule="evenodd"
        d="M176.203 88.5665L180.685 87.5925L181.931 87.5198L186.816 88.7042C187.621 89.0084 188.285 89.5994 188.681 90.3636C189.076 91.1278 189.175 92.0112 188.959 92.8441L188.332 98.3635C189.149 104.551 190.395 105.821 191.071 109.328C184.618 112.471 175.4 113.251 172.986 110.385C172.525 101.956 173.477 94.2912 176.203 88.5665Z"
        fill="#BDD7CC" />
    <path fill-rule="evenodd" clip-rule="evenodd"
        d="M179.08 85.0413C179.08 85.0413 179.195 86.8467 179.289 88.3409C179.301 88.5356 179.365 88.7236 179.473 88.8858C179.582 89.048 179.731 89.1785 179.907 89.264C180.081 89.349 180.275 89.3854 180.469 89.3692C180.662 89.353 180.848 89.285 181.006 89.1722L181.313 88.9555C181.532 88.8 181.702 88.5859 181.805 88.3377C181.907 88.0896 181.937 87.8176 181.892 87.553C181.66 86.1709 181.238 83.6528 181.238 83.6528L179.08 85.0413Z"
        fill="#F9D1BD" />
    <path fill-rule="evenodd" clip-rule="evenodd"
        d="M179.06 86.0242L179.212 87.1015L180.173 86.1007L179.06 86.0242Z" fill="#873B24" />
    <path
        d="M178.242 88.1356C178.242 88.1356 177.118 91.9606 179.656 91.8713C182.195 91.7821 183.203 87.8296 183.203 87.8296L181.279 87.1921L178.242 88.1356Z"
        fill="#F9D1BD" />
    <path fill-rule="evenodd" clip-rule="evenodd"
        d="M182.174 83.3212C182.272 83.0873 182.273 82.8243 182.177 82.5895C182.082 82.3547 181.897 82.1672 181.664 82.0679L179.982 81.3603C179.499 81.1563 179.014 81.4266 178.738 81.878C178.413 82.4109 178.007 83.6311 177.82 84.5554C177.714 85.0743 177.905 85.6748 178.388 85.8776C178.898 86.0956 180.658 86.2473 181.193 85.3765C181.603 84.7135 181.869 84.0442 182.169 83.3238L182.174 83.3212Z"
        fill="#F9D1BD" />
    <path fill-rule="evenodd" clip-rule="evenodd"
        d="M184.675 85.0807C184.675 85.0807 183.655 83.1605 183.074 82.2324C182.286 80.9867 181.034 80.1044 179.213 81.0148C179.213 81.0148 179.68 83.2562 182.83 85.7462L184.675 85.0807Z"
        fill="#101C33" />
    <path fill-rule="evenodd" clip-rule="evenodd"
        d="M178.174 84.2686L179.02 84.6039C179.02 84.6039 178.775 85.1827 178.382 84.9723C177.989 84.762 178.174 84.2686 178.174 84.2686Z"
        fill="white" />
    <path
        d="M182.866 83.232C182.866 83.232 187.404 86.6604 184.834 89.2895C182.265 91.9185 177.854 96.4064 178.572 99.6295C178.572 99.6295 176.421 97.7604 177.438 95.2411C178.456 92.7217 181.622 88.9121 181.773 88.1012C181.925 87.2903 180.261 82.3638 180.261 82.3638L182.52 82.5193L182.866 83.232Z"
        fill="#101C33" />
    <path fill-rule="evenodd" clip-rule="evenodd"
        d="M181.903 85.4912C181.611 85.8112 181.161 85.8737 180.9 85.6301C180.638 85.3866 180.664 84.9289 180.956 84.6102C181.248 84.2914 181.698 84.2277 181.961 84.4699C182.223 84.7122 182.195 85.1686 181.903 85.4912Z"
        fill="#F9D1BD" />
    <path fill-rule="evenodd" clip-rule="evenodd"
        d="M182.492 69.7592L161.611 71.3146C151.145 72.0937 141.943 64.1684 141.164 53.7021C140.384 43.2358 148.304 34.0343 158.776 33.2553L179.656 31.6998C190.122 30.9195 199.324 38.8397 200.103 49.3123C200.883 59.7786 192.958 68.9763 182.492 69.7592Z"
        fill="#EB2227" />
    <path fill-rule="evenodd" clip-rule="evenodd"
        d="M146.081 61.7014L145.476 75.3054L157.196 69.9085L146.081 61.7014Z" fill="#EB2227" />
    <path
        d="M158.073 56.4827C159.824 55.5456 160.484 53.3667 159.547 51.6161C158.609 49.8654 156.431 49.2059 154.68 50.143C152.929 51.0802 152.27 53.259 153.207 55.0097C154.144 56.7604 156.323 57.4199 158.073 56.4827Z"
        fill="white" />
    <path
        d="M172.359 55.1311C174.124 54.221 174.817 52.0525 173.907 50.2876C172.997 48.5228 170.828 47.8299 169.063 48.74C167.298 49.6501 166.605 51.8186 167.516 53.5835C168.426 55.3483 170.594 56.0412 172.359 55.1311Z"
        fill="white" />
    <path fill-rule="evenodd" clip-rule="evenodd"
        d="M188.553 50.7162C188.53 51.4269 188.298 52.115 187.884 52.6936C187.471 53.2722 186.895 53.7152 186.23 53.9666C185.565 54.2181 184.84 54.2667 184.148 54.1062C183.455 53.9458 182.825 53.5835 182.339 53.0653C181.852 52.5471 181.529 51.8961 181.412 51.1947C181.296 50.4933 181.389 49.773 181.682 49.1248C181.974 48.4767 182.452 47.9298 183.055 47.5533C183.659 47.1768 184.36 46.9877 185.071 47.0098C186.024 47.0401 186.926 47.4475 187.579 48.1424C188.232 48.8374 188.582 49.7631 188.553 50.7162Z"
        fill="white" />
    <path d="M111.177 68.3911L105.014 61.4514" stroke="#2D4E73" stroke-width="0.543141"
        stroke-miterlimit="10" stroke-linecap="round" />
    <path d="M94.7498 118.154L102.865 114.284" stroke="#2D4E73" stroke-width="0.543141"
        stroke-miterlimit="10" stroke-linecap="round" />
    <path d="M144.965 84.762L150.843 86.5622C150.843 86.5622 156.394 88.2835 158.553 94.578"
        stroke="#2D4E73" stroke-width="0.543141" stroke-miterlimit="10" stroke-linecap="round" />
    <path d="M137.478 114.256L143.258 115.258C143.258 115.258 148.429 116.406 154.249 111.782"
        stroke="#2D4E73" stroke-width="0.543141" stroke-miterlimit="10" stroke-linecap="round" />
    <path d="M154.62 70.3203C154.442 70.268 148.305 68.209 145.86 64.9807" stroke="#732626"
        stroke-width="0.56864" stroke-linecap="round" stroke-linejoin="round" />
    <path fill-rule="evenodd" clip-rule="evenodd"
        d="M186.075 82.7463C187.8 82.4913 189.079 81.2941 189.017 79.2733L186.709 69.665L185.031 70.8571L185.582 78.2648L186.075 82.7463Z"
        fill="#F9D1BD" />
    <path
        d="M185.026 70.8748L185.681 69.1982C185.813 68.8632 186.059 68.5864 186.377 68.4179L187.665 67.7358C187.769 67.6809 187.884 67.6519 188.002 67.6514C188.119 67.6509 188.235 67.6788 188.339 67.7328C188.444 67.7868 188.533 67.8653 188.601 67.9615C188.668 68.0578 188.711 68.1689 188.726 68.2853L187.782 70.3457C187.551 70.8231 187.159 71.2039 186.676 71.4218L185.836 71.817L185.026 70.8748Z"
        fill="#F9D1BD" />
    <path fill-rule="evenodd" clip-rule="evenodd"
        d="M189.073 91.8738L189.733 82.8724L187.715 72.4049L184.187 72.3054L185.479 83.1376L184.575 90.2533L189.073 91.8738Z"
        fill="#BDD7CC" />
</svg>
