<svg width="20" height="20" viewBox="0 0 20 20" fill="none" xmlns="http://www.w3.org/2000/svg">
<g clip-path="url(#clip0_2739_9720)">
<path fill-rule="evenodd" clip-rule="evenodd" d="M15.5892 6.07741C15.9147 6.40285 15.9147 6.93048 15.5892 7.25592L8.92258 13.9226C8.59714 14.248 8.0695 14.248 7.74407 13.9226L4.41073 10.5893C4.0853 10.2638 4.0853 9.73618 4.41073 9.41074C4.73617 9.08531 5.26381 9.08531 5.58925 9.41074L8.33332 12.1548L14.4107 6.07741C14.7362 5.75197 15.2638 5.75197 15.5892 6.07741Z" fill="#217B56"/>
<path fill-rule="evenodd" clip-rule="evenodd" d="M10 1.66667C5.39763 1.66667 1.66667 5.39763 1.66667 10C1.66667 14.6024 5.39763 18.3333 10 18.3333C14.6024 18.3333 18.3333 14.6024 18.3333 10C18.3333 5.39763 14.6024 1.66667 10 1.66667ZM0 10C0 4.47715 4.47715 0 10 0C15.5228 0 20 4.47715 20 10C20 15.5228 15.5228 20 10 20C4.47715 20 0 15.5228 0 10Z" fill="#217B56"/>
</g>
<defs>
<clipPath id="clip0_2739_9720">
<rect width="20" height="20" fill="white"/>
</clipPath>
</defs>
</svg>
