<svg width="16" height="16" viewBox="0 0 16 16" fill="none" xmlns="http://www.w3.org/2000/svg">
<path d="M6.3125 2.875H4.17203C3.63753 2.875 3.11422 3.06006 2.69859 3.39609C2.2829 3.73213 1.99231 4.20503 1.88031 4.72766L1.44025 6.78125H6.3125V2.875Z" fill="#217B56"/>
<path d="M13.3438 2.875H9.90625C9.64737 2.875 9.4375 2.66513 9.4375 2.40625V1.46875C9.4375 1.20987 9.64737 1 9.90625 1H13.3438C13.6026 1 13.8125 1.20987 13.8125 1.46875V2.40625C13.8125 2.66513 13.6026 2.875 13.3438 2.875Z" fill="#217B56"/>
<path d="M14.75 1.9375V2.40625C14.75 3.18291 14.1204 3.8125 13.3438 3.8125H9.90625C9.12959 3.8125 8.5 3.18291 8.5 2.40625V1.9375H7.71875C7.45987 1.9375 7.25 2.14737 7.25 2.40625V14.5938C7.25 14.8526 7.45987 15.0625 7.71875 15.0625H15.5312C15.7901 15.0625 16 14.8526 16 14.5938V2.40625C16 2.14737 15.7901 1.9375 15.5312 1.9375H14.75ZM10.5312 12.2121H8.96875C8.70987 12.2121 8.5 12.0022 8.5 11.7433C8.5 11.4845 8.70987 11.2746 8.96875 11.2746H10.5312C10.7901 11.2746 11 11.4845 11 11.7433C11 12.0022 10.7901 12.2121 10.5312 12.2121ZM10.5312 9.39959H8.96875C8.70987 9.39959 8.5 9.18972 8.5 8.93084C8.5 8.67197 8.70987 8.46209 8.96875 8.46209H10.5312C10.7901 8.46209 11 8.67197 11 8.93084C11 9.18972 10.7901 9.39959 10.5312 9.39959ZM10.5312 6.58709H8.96875C8.70987 6.58709 8.5 6.37722 8.5 6.11834C8.5 5.85947 8.70987 5.64959 8.96875 5.64959H10.5312C10.7901 5.64959 11 5.85947 11 6.11834C11 6.37722 10.7901 6.58709 10.5312 6.58709ZM14.6127 11.4119L13.2868 12.7377C13.199 12.8256 13.0797 12.875 12.9554 12.875C12.8311 12.875 12.7118 12.8257 12.624 12.7377L11.8506 11.9643C11.6675 11.7812 11.6675 11.4845 11.8506 11.3014C12.0337 11.1183 12.3305 11.1183 12.5135 11.3014L12.9554 11.7433L13.9498 10.749C14.1328 10.566 14.4297 10.566 14.6127 10.749C14.7958 10.932 14.7958 11.2288 14.6127 11.4119ZM14.6127 8.59937L13.2868 9.92522C13.199 10.0131 13.0797 10.0625 12.9554 10.0625C12.8311 10.0625 12.7118 10.0132 12.624 9.92522L11.8506 9.15181C11.6675 8.96875 11.6675 8.67197 11.8506 8.48891C12.0337 8.30584 12.3305 8.30581 12.5135 8.48891L12.9554 8.93084L13.9498 7.9365C14.1328 7.75347 14.4297 7.75347 14.6127 7.9365C14.7958 8.1195 14.7958 8.41631 14.6127 8.59937ZM14.6127 5.78687L13.2868 7.11272C13.199 7.20062 13.0797 7.25003 12.9554 7.25003C12.8311 7.25003 12.7118 7.20066 12.624 7.11272L11.8506 6.33931C11.6675 6.15625 11.6675 5.85947 11.8506 5.67641C12.0337 5.49334 12.3305 5.49334 12.5135 5.67641L12.9554 6.11834L13.9498 5.124C14.1328 4.94097 14.4297 4.94097 14.6127 5.124C14.7958 5.307 14.7958 5.60381 14.6127 5.78687Z" fill="#217B56"/>
<path d="M1.40625 10.1406H0V10.7656H2.17181C2.09922 10.4095 1.78353 10.1406 1.40625 10.1406Z" fill="#217B56"/>
<path d="M1.96875 15.0625H3.03125C3.54903 15.0625 3.96875 14.6428 3.96875 14.125H1.03125C1.03125 14.6428 1.45097 15.0625 1.96875 15.0625Z" fill="#217B56"/>
<path d="M1.48438 7.71875C0.664563 7.71875 0 8.38331 0 9.20312H1.40625C2.3555 9.20312 3.125 9.97263 3.125 10.9219V11.2344C3.125 11.4932 2.91512 11.7031 2.65625 11.7031H0V12.7188C0 12.9776 0.209875 13.1875 0.46875 13.1875H4.375V11.1562C4.375 10.3796 5.00459 9.75 5.78125 9.75H6.3125V7.71875H1.48438Z" fill="#217B56"/>
<path d="M5.78125 10.6875C5.52278 10.6875 5.3125 10.8978 5.3125 11.1562V13.1875H6.3125V10.6875H5.78125Z" fill="#217B56"/>
</svg>
