<svg width="24" height="24" viewBox="0 0 24 24" fill="none" xmlns="http://www.w3.org/2000/svg">
<rect x="0.5" y="0.5" width="23" height="23" rx="5.5" fill="#EB5353" stroke="white"/>
<path d="M19.4267 7.8232L17.6767 6.0732C17.6298 6.02633 17.5662 6 17.4999 6C17.4337 6 17.3701 6.02633 17.3232 6.0732L9.74995 13.6464L6.6767 10.5732C6.62981 10.5263 6.56624 10.5 6.49995 10.5C6.43366 10.5 6.37008 10.5263 6.3232 10.5732L4.5732 12.3232C4.52633 12.3701 4.5 12.4337 4.5 12.4999C4.5 12.5662 4.52633 12.6298 4.5732 12.6767L9.5732 17.6767C9.62008 17.7236 9.68366 17.7499 9.74995 17.7499C9.81624 17.7499 9.87981 17.7236 9.9267 17.6767L19.4267 8.1767C19.4736 8.12981 19.4999 8.06624 19.4999 7.99995C19.4999 7.93366 19.4736 7.87008 19.4267 7.8232V7.8232Z" fill="white"/>
</svg>
