<svg width="20" height="20" viewBox="0 0 20 20" fill="none" xmlns="http://www.w3.org/2000/svg">
<path fill-rule="evenodd" clip-rule="evenodd" d="M14.6788 6.57117C14.8466 6.73897 14.8466 7.01103 14.6788 7.17883L8.42883 13.4288C8.26103 13.5966 7.98897 13.5966 7.82117 13.4288L5.32117 10.9288C5.15336 10.761 5.15336 10.489 5.32117 10.3212C5.48897 10.1534 5.76103 10.1534 5.92883 10.3212L8.125 12.5173L14.0712 6.57117C14.239 6.40336 14.511 6.40336 14.6788 6.57117Z" fill="#36AE7C"/>
<path fill-rule="evenodd" clip-rule="evenodd" d="M10 1.36719C5.23223 1.36719 1.36719 5.23223 1.36719 10C1.36719 14.7678 5.23223 18.6328 10 18.6328C14.7678 18.6328 18.6328 14.7678 18.6328 10C18.6328 5.23223 14.7678 1.36719 10 1.36719ZM0.507812 10C0.507812 4.75761 4.75761 0.507812 10 0.507812C15.2424 0.507812 19.4922 4.75761 19.4922 10C19.4922 15.2424 15.2424 19.4922 10 19.4922C4.75761 19.4922 0.507812 15.2424 0.507812 10Z" fill="#36AE7C"/>
</svg>
