<svg width="15" height="15" viewBox="0 0 15 15" fill="none" xmlns="http://www.w3.org/2000/svg">
    <g clip-path="url(#clip0_3512_7983)">
        <circle cx="7.5" cy="7.5" r="5.625" fill="#655417"/>
        <path d="M7.5 0C6.01664 0 4.5666 0.439867 3.33323 1.26398C2.09986 2.08809 1.13856 3.25943 0.570907 4.62987C0.00324965 6.00032 -0.145275 7.50832 0.144114 8.96318C0.433503 10.418 1.14781 11.7544 2.1967 12.8033C3.2456 13.8522 4.58197 14.5665 6.03683 14.8559C7.49168 15.1453 8.99968 14.9968 10.3701 14.4291C11.7406 13.8614 12.9119 12.9001 13.736 11.6668C14.5601 10.4334 15 8.98336 15 7.5C14.9942 5.51265 14.2022 3.60835 12.7969 2.20307C11.3917 0.797801 9.48735 0.00577122 7.5 0V0ZM6.25 10.8837L2.86625 7.5L3.75 6.61625L6.25 9.11625L11.25 4.11625L12.1338 5L6.25 10.8837Z" fill="#FFD644"/>
    </g>
    <defs>
        <clipPath id="clip0_3512_7983">
            <rect width="15" height="15" fill="white"/>
        </clipPath>
    </defs>
</svg>
