<svg width="36" height="36" viewBox="0 0 36 36" fill="none" xmlns="http://www.w3.org/2000/svg">
<path d="M31.2001 4.80003H4.8001C2.4805 4.80003 0.600098 6.68044 0.600098 9.00003V27C0.600098 29.3196 2.4805 31.2 4.8001 31.2H31.2001C33.5197 31.2 35.4001 29.3196 35.4001 27V9.00003C35.4001 6.68044 33.5197 4.80003 31.2001 4.80003Z" fill="#F9C84E"/>
<path d="M12.0003 4.80003V31.2H10.8003V27.6H0.648331C0.614 27.4019 0.597933 27.2011 0.600331 27V26.4H10.8003V21.6H0.600331V20.4H10.8003V15.6H0.600331V14.4H10.8003V9.60003H0.600331V9.00003C0.597933 8.79899 0.614 8.59814 0.648331 8.40003H10.8003V4.80003H12.0003Z" fill="#EAAA42"/>
<path d="M35.4 9.00002V9.60002H25.2C24.882 9.59907 24.5774 9.47234 24.3525 9.2475C24.1277 9.02266 24.0009 8.71799 24 8.40002V4.80002H25.2V8.40002H35.352C35.3863 8.59813 35.4024 8.79897 35.4 9.00002V9.00002Z" fill="#EAAA42"/>
<path d="M25.2 15.5999V20.3999H35.4V21.5999H25.2V26.3999H35.4V26.9999C35.4024 27.201 35.3863 27.4018 35.352 27.5999H25.2V31.2H24V15.5999C24.0009 15.282 24.1277 14.9773 24.3525 14.7525C24.5774 14.5276 24.882 14.4009 25.2 14.3999H35.4V15.5999H25.2Z" fill="#EAAA42"/>
</svg>
