<svg width="20" height="20" viewBox="0 0 20 20" fill="none" xmlns="http://www.w3.org/2000/svg">
<g clip-path="url(#clip0_2739_9724)">
<path fill-rule="evenodd" clip-rule="evenodd" d="M13.9226 6.07741C14.248 6.40285 14.248 6.93048 13.9226 7.25592L7.25593 13.9226C6.9305 14.248 6.40286 14.248 6.07742 13.9226C5.75198 13.5972 5.75198 13.0695 6.07742 12.7441L12.7441 6.07741C13.0695 5.75197 13.5972 5.75197 13.9226 6.07741Z" fill="#BABABA"/>
<path fill-rule="evenodd" clip-rule="evenodd" d="M6.07742 6.07741C6.40286 5.75197 6.9305 5.75197 7.25593 6.07741L13.9226 12.7441C14.248 13.0695 14.248 13.5972 13.9226 13.9226C13.5972 14.248 13.0695 14.248 12.7441 13.9226L6.07742 7.25592C5.75198 6.93048 5.75198 6.40285 6.07742 6.07741Z" fill="#BABABA"/>
<path fill-rule="evenodd" clip-rule="evenodd" d="M10 1.66667C5.39763 1.66667 1.66667 5.39763 1.66667 10C1.66667 14.6024 5.39763 18.3333 10 18.3333C14.6024 18.3333 18.3333 14.6024 18.3333 10C18.3333 5.39763 14.6024 1.66667 10 1.66667ZM0 10C0 4.47715 4.47715 0 10 0C15.5228 0 20 4.47715 20 10C20 15.5228 15.5228 20 10 20C4.47715 20 0 15.5228 0 10Z" fill="#BABABA"/>
</g>
<defs>
<clipPath id="clip0_2739_9724">
<rect width="20" height="20" fill="white"/>
</clipPath>
</defs>
</svg>
