<svg width="20" height="20" viewBox="0 0 20 20" fill="none" xmlns="http://www.w3.org/2000/svg">
<path fill-rule="evenodd" clip-rule="evenodd" d="M14.0538 5.94617C14.2216 6.11397 14.2216 6.38603 14.0538 6.55383L6.55383 14.0538C6.38603 14.2216 6.11397 14.2216 5.94617 14.0538C5.77836 13.886 5.77836 13.614 5.94617 13.4462L13.4462 5.94617C13.614 5.77836 13.886 5.77836 14.0538 5.94617Z" fill="#EB5353"/>
<path fill-rule="evenodd" clip-rule="evenodd" d="M5.94617 5.94617C6.11397 5.77836 6.38603 5.77836 6.55383 5.94617L14.0538 13.4462C14.2216 13.614 14.2216 13.886 14.0538 14.0538C13.886 14.2216 13.614 14.2216 13.4462 14.0538L5.94617 6.55383C5.77836 6.38603 5.77836 6.11397 5.94617 5.94617Z" fill="#EB5353"/>
<path fill-rule="evenodd" clip-rule="evenodd" d="M10 1.36719C5.23223 1.36719 1.36719 5.23223 1.36719 10C1.36719 14.7678 5.23223 18.6328 10 18.6328C14.7678 18.6328 18.6328 14.7678 18.6328 10C18.6328 5.23223 14.7678 1.36719 10 1.36719ZM0.507812 10C0.507812 4.75761 4.75761 0.507812 10 0.507812C15.2424 0.507812 19.4922 4.75761 19.4922 10C19.4922 15.2424 15.2424 19.4922 10 19.4922C4.75761 19.4922 0.507812 15.2424 0.507812 10Z" fill="#EB5353"/>
</svg>
