<svg width="16" height="16" viewBox="0 0 16 16" fill="none" xmlns="http://www.w3.org/2000/svg">
<path fill-rule="evenodd" clip-rule="evenodd" d="M14.7892 1.21077C15.0703 1.49181 15.0703 1.94745 14.7892 2.22848L2.22848 14.7892C1.94745 15.0703 1.49181 15.0703 1.21077 14.7892C0.929742 14.5082 0.929742 14.0526 1.21077 13.7715L13.7715 1.21077C14.0526 0.929742 14.5082 0.929742 14.7892 1.21077Z" fill="#2E3A5B"/>
<path fill-rule="evenodd" clip-rule="evenodd" d="M1.21077 1.21077C1.49181 0.929742 1.94745 0.929742 2.22848 1.21077L14.7892 13.7715C15.0703 14.0526 15.0703 14.5082 14.7892 14.7892C14.5082 15.0703 14.0526 15.0703 13.7715 14.7892L1.21077 2.22848C0.929742 1.94745 0.929742 1.49181 1.21077 1.21077Z" fill="#2E3A5B"/>
</svg>
