<svg width="24" height="24" viewBox="0 0 24 24" fill="none" xmlns="http://www.w3.org/2000/svg">
<path fill-rule="evenodd" clip-rule="evenodd" d="M14.1152 12.509C14.396 12.4615 14.6621 12.6506 14.7096 12.9313C14.9205 14.1768 15.5536 16.0205 17.4093 16.6231L17.4093 16.6231C18.9875 17.1357 20.4061 17.7087 21.4193 18.7131C22.4597 19.7446 23.0156 21.1689 23.0156 23.25C23.0156 23.5348 22.7848 23.7657 22.5 23.7657H1.5C1.21523 23.7657 0.984375 23.5348 0.984375 23.25C0.984375 21.1689 1.54032 19.7446 2.58073 18.7132C3.59388 17.7087 5.01257 17.1358 6.59079 16.6235L6.5908 16.6235C8.44498 16.0216 9.07913 14.1776 9.29038 12.9316C9.33798 12.6508 9.60418 12.4618 9.88494 12.5094C10.1657 12.557 10.3547 12.8232 10.3071 13.104C10.0841 14.4193 9.35252 16.8112 6.9092 17.6043C5.33742 18.1146 4.13111 18.6283 3.30677 19.4455C2.58528 20.1608 2.11208 21.1564 2.0288 22.7344H21.9712C21.8879 21.1564 21.4147 20.1608 20.6932 19.4455C19.8689 18.6282 18.6625 18.1144 17.0907 17.604C14.6459 16.8101 13.9155 14.4185 13.6929 13.1035C13.6453 12.8227 13.8344 12.5566 14.1152 12.509Z" fill="#596481"/>
<path fill-rule="evenodd" clip-rule="evenodd" d="M12 1.26562C9.38527 1.26562 7.26562 3.38527 7.26562 6V8.25C7.26562 10.8647 9.38527 12.9844 12 12.9844C14.6147 12.9844 16.7344 10.8647 16.7344 8.25V6C16.7344 3.38527 14.6147 1.26562 12 1.26562ZM6.23438 6C6.23438 2.81573 8.81573 0.234375 12 0.234375C15.1843 0.234375 17.7656 2.81573 17.7656 6V8.25C17.7656 11.4343 15.1843 14.0156 12 14.0156C8.81573 14.0156 6.23438 11.4343 6.23438 8.25V6Z" fill="#596481"/>
</svg>
