<svg width="20" height="20" viewBox="0 0 20 20" fill="none" xmlns="http://www.w3.org/2000/svg">
<path fill-rule="evenodd" clip-rule="evenodd" d="M11.7626 10.4241C11.9966 10.3845 12.2184 10.542 12.258 10.776C12.4338 11.8139 12.9613 13.3503 14.5077 13.8525L14.5077 13.8525C15.8229 14.2796 17.0051 14.7571 17.8494 15.5941C18.7164 16.4537 19.1797 17.6407 19.1797 19.3749C19.1797 19.6122 18.9873 19.8046 18.75 19.8046H1.25C1.01269 19.8046 0.820312 19.6122 0.820312 19.3749C0.820312 17.6407 1.2836 16.4537 2.15061 15.5942C2.9949 14.7572 4.17714 14.2797 5.49232 13.8528L5.49233 13.8528C7.03748 13.3512 7.56594 11.8145 7.74198 10.7762C7.78165 10.5422 8.00348 10.3847 8.23745 10.4244C8.47142 10.4641 8.62894 10.6859 8.58927 10.9199C8.40343 12.0159 7.79377 14.0092 5.75767 14.6702C4.44785 15.0954 3.44259 15.5234 2.75564 16.2045C2.1544 16.8005 1.76006 17.6302 1.69066 18.9452H18.3093C18.2399 17.6302 17.8456 16.8005 17.2444 16.2044C16.5574 15.5233 15.5521 15.0952 14.2423 14.6698C12.205 14.0083 11.5962 12.0153 11.4107 10.9195C11.3711 10.6855 11.5287 10.4637 11.7626 10.4241Z" fill="#2E3A5B"/>
<path fill-rule="evenodd" clip-rule="evenodd" d="M10 1.05469C7.82106 1.05469 6.05469 2.82106 6.05469 5V6.875C6.05469 9.05394 7.82106 10.8203 10 10.8203C12.1789 10.8203 13.9453 9.05394 13.9453 6.875V5C13.9453 2.82106 12.1789 1.05469 10 1.05469ZM5.19531 5C5.19531 2.34644 7.34644 0.195312 10 0.195312C12.6536 0.195312 14.8047 2.34644 14.8047 5V6.875C14.8047 9.52856 12.6536 11.6797 10 11.6797C7.34644 11.6797 5.19531 9.52856 5.19531 6.875V5Z" fill="#2E3A5B"/>
</svg>
