<svg width="24" height="24" viewBox="0 0 24 24" fill="none" xmlns="http://www.w3.org/2000/svg">
<path d="M22.0548 0H1.94522C0.872625 0 0 0.872625 0 1.94522V3.03427C0 4.75336 0.591422 6.43936 1.66528 7.78162C2.5582 8.89781 3.82913 9.77222 5.24405 10.2438L6.07214 10.5199C6.94964 11.9832 8.35866 13.1023 10.0548 13.6004V14.8591C10.0548 15.3631 9.64477 15.7731 9.14081 15.7731C8.06822 15.7731 7.19559 16.6457 7.19559 17.7183V18.6322H6.28162C5.99686 18.6322 5.766 18.8631 5.766 19.1479V22.9688H4.85208C4.56731 22.9688 4.33645 23.1996 4.33645 23.4844C4.33645 23.7691 4.56731 24 4.85208 24H19.148C19.4327 24 19.6636 23.7691 19.6636 23.4844C19.6636 23.1996 19.4327 22.9688 19.148 22.9688H18.234V19.1479C18.234 18.8632 18.0032 18.6323 17.7184 18.6323H16.8045V17.7184C16.8045 16.6458 15.9318 15.7732 14.8592 15.7732C14.3553 15.7732 13.9453 15.3631 13.9453 14.8592V13.6004C15.6401 13.1027 17.0483 11.9849 17.9259 10.5233L18.797 10.246L18.8037 10.2439C20.1966 9.77958 21.4176 8.92819 22.3348 7.78172C23.4086 6.43936 24 4.75336 24 3.03427V1.94522C24 0.872625 23.1274 0 22.0548 0ZM2.47059 7.13747C1.54242 5.97731 1.03125 4.52011 1.03125 3.03427V1.94522C1.03125 1.44127 1.44127 1.03125 1.94522 1.03125H4.39055L5.13769 7.75552C5.19356 8.25784 5.30499 8.75241 5.46994 9.23016C4.28194 8.81353 3.2197 8.07389 2.47059 7.13747ZM17.2028 22.9688H6.79725V19.6635H17.2028V22.9688ZM13.314 12.7001C13.2003 12.7262 13.0988 12.7902 13.0262 12.8814C12.9535 12.9727 12.914 13.0859 12.914 13.2026V14.8592C12.914 15.9318 13.7866 16.8045 14.8592 16.8045C15.3631 16.8045 15.7732 17.2145 15.7732 17.7184V18.6323H8.22684V17.7184C8.22684 17.2145 8.63686 16.8045 9.14081 16.8045C10.2134 16.8045 11.086 15.9318 11.086 14.8592V13.2026C11.086 13.0859 11.0465 12.9727 10.9738 12.8814C10.9012 12.7902 10.7997 12.7262 10.686 12.7001C8.25445 12.1406 6.43664 10.1078 6.16266 7.64166L5.42817 1.03125H18.5718L17.8373 7.64161C17.5634 10.1078 15.7455 12.1406 13.314 12.7001ZM22.9688 3.03427C22.9688 4.52006 22.4576 5.97727 21.5294 7.13742C20.7469 8.11552 19.7083 8.84456 18.5238 9.24919C18.6922 8.76554 18.8058 8.26449 18.8623 7.75547L19.6095 1.03125H22.0548C22.5587 1.03125 22.9688 1.44127 22.9688 1.94522V3.03427Z" fill="white"/>
<path d="M13.7671 9.20025C13.6867 9.20025 13.606 9.1815 13.5317 9.14335L12.0001 8.35721L10.4685 9.14335C10.3831 9.18718 10.2872 9.20632 10.1916 9.1986C10.0959 9.19089 10.0043 9.15663 9.92706 9.09969C9.84981 9.04274 9.78999 8.96537 9.75433 8.87627C9.71866 8.78718 9.70857 8.6899 9.72518 8.59538L10.0148 6.94641L8.78543 5.77646C8.69898 5.78871 8.61083 5.7788 8.52926 5.74767C8.44768 5.71654 8.37535 5.6652 8.31904 5.59846C8.26273 5.53173 8.22429 5.45179 8.20733 5.36614C8.19037 5.28048 8.19544 5.19193 8.22206 5.10877C8.24869 5.02561 8.29599 4.95058 8.35955 4.89071C8.4231 4.83083 8.50082 4.78808 8.58542 4.76646C8.67001 4.74484 8.75871 4.74505 8.8432 4.76709C8.92769 4.78912 9.0052 4.83226 9.06846 4.89244L10.7778 4.64986L11.5399 3.14208C11.5829 3.05698 11.6487 2.98548 11.73 2.93553C11.8112 2.88558 11.9047 2.85913 12.0001 2.85913C12.0954 2.85913 12.1889 2.88558 12.2702 2.93553C12.3514 2.98548 12.4172 3.05698 12.4602 3.14208L13.2224 4.64986L14.9317 4.89244C15.0276 4.90605 15.1177 4.94641 15.1918 5.0089C15.2658 5.07138 15.3208 5.15346 15.3503 5.24573C15.3798 5.338 15.3828 5.43672 15.3588 5.53059C15.3348 5.62445 15.2849 5.70967 15.2147 5.77646L13.9853 6.94641L14.275 8.59538C14.288 8.66951 14.2846 8.7456 14.2651 8.81829C14.2456 8.89099 14.2104 8.95853 14.162 9.01618C14.1136 9.07382 14.0532 9.12017 13.985 9.15197C13.9167 9.18377 13.8424 9.20025 13.7671 9.20025ZM12.0001 7.26202C12.0809 7.26202 12.1616 7.28096 12.2356 7.31892L13.0799 7.75228L12.9219 6.85275C12.9072 6.76903 12.9134 6.68298 12.94 6.60224C12.9665 6.52151 13.0127 6.4486 13.0743 6.39L13.7322 5.76389L12.8112 5.63321C12.729 5.62154 12.6508 5.59017 12.5833 5.54179C12.5158 5.4934 12.461 5.42941 12.4235 5.35528L12.0001 4.51777L11.5768 5.35524C11.5393 5.42937 11.4845 5.49335 11.417 5.54173C11.3495 5.59012 11.2713 5.62149 11.189 5.63316L10.2681 5.76385L10.926 6.38996C10.9876 6.44855 11.0337 6.52146 11.0603 6.6022C11.0869 6.68293 11.0931 6.76899 11.0784 6.85271L10.9204 7.75224L11.7647 7.31888C11.8375 7.28149 11.9182 7.262 12.0001 7.26202Z" fill="white"/>
</svg>
