<svg width="120" height="76" viewBox="0 0 120 76" fill="none" xmlns="http://www.w3.org/2000/svg">
<rect width="119.786" height="75.8385" fill="#F4E8AC"/>
<line x1="58.5938" y1="2.59537e-08" x2="58.5937" y2="76" stroke="#E2D390" stroke-width="1.1875"/>
<rect x="66.875" y="42.2222" width="47.5" height="27.746" rx="4.75" fill="white"/>
<path d="M24.0428 17.8689H6.2011C5.9157 17.8689 5.64199 17.7537 5.44018 17.5487C5.23837 17.3437 5.125 17.0657 5.125 16.7757C5.125 16.4858 5.23837 16.2078 5.44018 16.0027C5.64199 15.7977 5.9157 15.6826 6.2011 15.6826H24.0428C24.3282 15.6826 24.6019 15.7977 24.8037 16.0027C25.0055 16.2078 25.1189 16.4858 25.1189 16.7757C25.1189 17.0657 25.0055 17.3437 24.8037 17.5487C24.6019 17.7537 24.3282 17.8689 24.0428 17.8689Z" fill="#E2D390"/>
<path d="M85.7928 17.8689H67.9511C67.6657 17.8689 67.392 17.7537 67.1902 17.5487C66.9884 17.3437 66.875 17.0657 66.875 16.7757C66.875 16.4858 66.9884 16.2078 67.1902 16.0027C67.392 15.7977 67.6657 15.6826 67.9511 15.6826H85.7928C86.0782 15.6826 86.3519 15.7977 86.5537 16.0027C86.7555 16.2078 86.8689 16.4858 86.8689 16.7757C86.8689 17.0657 86.7555 17.3437 86.5537 17.5487C86.3519 17.7537 86.0782 17.8689 85.7928 17.8689Z" fill="#E2D390"/>
<path d="M24.0428 34.7578H6.2011C5.9157 34.7578 5.64199 34.6427 5.44018 34.4376C5.23837 34.2326 5.125 33.9546 5.125 33.6647C5.125 33.3747 5.23837 33.0967 5.44018 32.8917C5.64199 32.6866 5.9157 32.5715 6.2011 32.5715H24.0428C24.3282 32.5715 24.6019 32.6866 24.8037 32.8917C25.0055 33.0967 25.1189 33.3747 25.1189 33.6647C25.1189 33.9546 25.0055 34.2326 24.8037 34.4376C24.6019 34.6427 24.3282 34.7578 24.0428 34.7578Z" fill="#E2D390"/>
<path d="M24.0428 51.6467H6.2011C5.9157 51.6467 5.64199 51.5315 5.44018 51.3265C5.23837 51.1215 5.125 50.8434 5.125 50.5535C5.125 50.2636 5.23837 49.9855 5.44018 49.7805C5.64199 49.5755 5.9157 49.4603 6.2011 49.4603H24.0428C24.3282 49.4603 24.6019 49.5755 24.8037 49.7805C25.0055 49.9855 25.1189 50.2636 25.1189 50.5535C25.1189 50.8434 25.0055 51.1215 24.8037 51.3265C24.6019 51.5315 24.3282 51.6467 24.0428 51.6467Z" fill="#E2D390"/>
<rect x="5.125" y="21.7143" width="47.5" height="3.19" rx="1.595" fill="white"/>
<rect x="66.875" y="21.7143" width="47.5" height="3.19" rx="1.595" fill="white"/>
<rect x="5.125" y="38.6031" width="47.5" height="3.19" rx="1.595" fill="white"/>
<rect x="5.125" y="55.4921" width="47.5" height="3.19" rx="1.595" fill="white"/>
<circle cx="104.97" cy="32.9705" r="6.27971" fill="white" stroke="#EB2227" stroke-width="1.38155"/>
<circle cx="104.971" cy="32.9705" r="4.27523" fill="#EB2227"/>
<path d="M91.4998 62.5041C81.2825 62.5041 72.9997 61.9269 72.9997 61.215C72.9997 60.503 81.2825 59.9259 91.4998 59.9259C101.717 59.9259 110 60.503 110 61.215C110 61.9269 101.717 62.5041 91.4998 62.5041Z" fill="#EBF7F2"/>
<path d="M97.6701 51.8909H99.617C99.856 51.8909 100.05 52.0844 100.05 52.3231V52.6809C100.05 52.9196 99.856 53.1131 99.617 53.1131H97.6701C97.4312 53.1131 97.2374 52.9196 97.2374 52.6809V52.3231C97.2374 52.0844 97.4312 51.8909 97.6701 51.8909Z" fill="#2E3A5B"/>
<path d="M98.5554 58.9991L87.111 59.0065C87.111 59.0065 87.1409 56.1999 84.8035 56.1381C82.4661 56.0763 82.5942 58.8785 82.5942 58.8785L82.6017 59.3297C82.6017 59.3297 80.9546 59.1729 80.4778 58.9288C80.3705 58.6973 80.2899 58.4543 80.2375 58.2046C80.1695 57.841 80.2181 57.0873 80.2181 57.0873L80.6073 56.7869C80.6073 56.7869 80.4546 55.0497 80.7058 54.4189C80.7058 54.4189 80.4679 53.7487 80.5298 53.3382L85.4843 49.0001L92.5962 49.0802C93.5496 49.1003 94.0363 49.3142 94.8904 49.7385C98.0816 51.3243 100.017 52.7183 100.017 52.7183C100.017 52.7183 103.608 53.3579 104.859 54.3218C105.36 54.7998 105.624 55.1216 105.811 56.3825L105.84 56.8802L102.888 57.8308L98.5554 58.9991Z" fill="#4D9578"/>
<path d="M105.389 58.573L105.171 59.5012C105.171 59.7877 104.746 59.9765 104.46 59.9765L77.9849 60.0043L76.4235 59.9771C76.2842 59.9751 76.148 59.9364 76.0287 59.8648C75.9093 59.7933 75.811 59.6915 75.7437 59.5697L75.2546 58.683C75.9826 56.9471 77.1012 55.9632 78.8105 55.7544L90.8222 54.9329L98.623 56.1965L105.389 58.573Z" fill="#2E3A5B"/>
<path d="M102.483 56.5424C102.362 56.5459 102.241 56.5612 102.123 56.5882C101.974 56.5539 101.82 56.5385 101.667 56.5424C100.525 56.5726 99.6201 57.6461 99.6446 58.9399C99.6691 60.2338 100.614 61.2584 101.756 61.2282C101.878 61.2251 102.415 61.2322 102.571 61.2282C103.713 61.198 104.618 60.1245 104.593 58.8306C104.569 57.5368 103.624 56.5122 102.483 56.5424Z" fill="#2E3A5B"/>
<path d="M86.1268 56.5424C86.0057 56.5459 85.8853 56.5612 85.7672 56.5882C85.6175 56.5539 85.464 56.5385 85.3104 56.5424C84.1691 56.5726 83.2636 57.6461 83.2884 58.9399C83.3132 60.2338 84.2578 61.2584 85.3991 61.2282C85.5222 61.2251 86.0588 61.2322 86.2148 61.2282C87.3562 61.198 88.2617 60.1245 88.2372 58.8306C88.2127 57.5368 87.2682 56.5122 86.1268 56.5424Z" fill="#2E3A5B"/>
<path d="M95.9099 56.7386C95.8912 56.7386 95.8725 56.7406 95.8542 56.7416H94.9137V57.0584C94.2863 57.4749 93.8709 58.2541 93.8876 59.1361C93.9042 60.0181 94.3444 60.7657 94.9817 61.151V61.4247H95.9276C95.951 61.4247 95.9748 61.4247 95.9986 61.4247C97.14 61.3945 98.0451 60.321 98.0206 59.0271C97.9962 57.7333 97.0509 56.7084 95.9099 56.7386Z" fill="#2E3A5B"/>
<path d="M93.0707 59.0874C93.0684 57.7931 93.9416 56.7423 95.021 56.7404C96.1003 56.7385 96.9772 57.7863 96.9794 59.0806C96.9817 60.3749 96.1085 61.4257 95.0292 61.4275C93.9498 61.4294 93.073 60.3817 93.0707 59.0874Z" fill="#8592AB"/>
<path d="M94.9523 60.6946C94.1659 60.6887 93.5339 59.9612 93.5406 59.0696C93.5473 58.1781 94.1902 57.4601 94.9765 57.466C95.7628 57.4719 96.3948 58.1994 96.3881 59.091C96.3814 59.9825 95.7386 60.7005 94.9523 60.6946Z" fill="#E0D7CD"/>
<path d="M94.9657 59.6244C94.7033 59.6225 94.4923 59.3797 94.4945 59.0822C94.4967 58.7846 94.7112 58.545 94.9736 58.5469C95.236 58.5488 95.447 58.7916 95.4448 59.0891C95.4426 59.3867 95.2281 59.6263 94.9657 59.6244Z" fill="#F7FEFB"/>
<path d="M79.786 56.7386C79.7673 56.7386 79.7486 56.7406 79.7303 56.7416H78.7898V57.0584C78.1624 57.4749 77.747 58.2541 77.7637 59.1361C77.7803 60.0181 78.2205 60.7657 78.8578 61.151V61.4247H79.8037C79.8271 61.4247 79.8509 61.4247 79.8747 61.4247C81.0161 61.3945 81.9212 60.321 81.8967 59.0271C81.8723 57.7333 80.927 56.7084 79.786 56.7386Z" fill="#2E3A5B"/>
<path d="M76.9469 59.0876C76.9447 57.7933 77.8178 56.7425 78.8972 56.7406C79.9766 56.7387 80.8534 57.7864 80.8556 59.0808C80.8579 60.3751 79.9847 61.4258 78.9054 61.4277C77.826 61.4296 76.9492 60.3819 76.9469 59.0876Z" fill="#8592AB"/>
<path d="M92.4265 58.6795L81.0722 58.7087C81.0722 58.7087 80.6423 56.434 78.9143 56.4585C76.9035 56.4887 76.7825 58.6859 76.7825 58.6859H75.253C75.253 58.6859 74.4712 56.7406 75.1612 56.1957C75.1612 56.1957 75.7101 55.0485 75.9528 54.4178C75.9528 54.4178 75.722 53.7476 75.7829 53.3371L77.4786 52.008C78.1991 51.0357 81.0134 49.6108 82.1816 49.4186C84.6366 49.0143 86.6386 48.7491 89.0984 49.9812C92.8973 51.8844 94.1325 53.9533 94.1325 53.9533C94.1325 53.9533 95.6314 53.846 97.995 54.322C98.479 54.8 98.55 55.3629 98.6611 55.8718L98.6513 58.6934L97.7377 58.6907C97.628 58.6903 97.5216 58.6534 97.4354 58.5857C97.3492 58.5181 97.2881 58.4236 97.2618 58.3172C97.0898 57.6141 96.5168 56.4368 95.2422 56.3994C94.0271 56.3655 93.0519 56.7247 92.8082 58.3519C92.7941 58.4429 92.7479 58.5259 92.6779 58.586C92.6079 58.6461 92.5188 58.6792 92.4265 58.6795Z" fill="#217B56"/>
<path d="M75.8749 54.7947C75.8749 54.7947 98.1376 54.4637 97.9946 54.3218C95.6211 53.6268 93.3894 52.8901 93.3894 52.8901C93.3894 52.8901 91.3144 50.8056 88.6405 49.5719C86.7935 48.7197 83.5493 48.9441 81.3736 49.4415C79.9461 49.7681 78.4618 50.6976 77.9747 51.3522L75.7927 53.3454C75.7318 53.7555 75.9626 54.426 75.9626 54.426C75.9203 54.5454 75.8909 54.669 75.8749 54.7947Z" fill="#217B56"/>
<path d="M78.0063 54.003C78.0063 54.003 76.194 52.8113 75.8092 53.3827C75.7643 53.5709 75.7584 53.7662 75.7921 53.9567C75.8258 54.1472 75.8982 54.3288 76.005 54.4902L78.0637 54.48L78.0063 54.003Z" fill="#F7FEFB"/>
<path d="M83.54 49.6007L83.9723 52.9845L79.8974 53.0011C79.0589 53.0049 78.6105 52.0234 79.1561 51.3875C80.4925 49.8272 82.66 49.6445 83.54 49.6007Z" fill="#2E3A5B"/>
<path d="M83.8916 49.562C83.8916 49.562 87.0417 49.069 89.235 50.3517C90.5001 51.0914 91.636 51.8821 92.7457 52.9318L84.294 53.0116L83.8916 49.562Z" fill="#2E3A5B"/>
<path d="M77.8415 51.583L77.9632 54.6657L78.4832 56.0145H78.6195L78.125 54.6677L77.9754 51.3522L77.8415 51.583Z" fill="#066132"/>
<path d="M92.2242 53.4254L92.6161 54.7946L92.5621 58.671L92.7473 58.6748L92.8231 54.7766L92.4404 53.4359L92.2242 53.4254Z" fill="#066132"/>
<path d="M88.112 49.3517H92.432C93.1247 49.3508 93.8089 49.5043 94.4346 49.8009C96.44 50.7552 99.9069 52.8903 99.9069 52.8903H93.882C93.5715 52.8901 93.2728 52.7717 93.0465 52.5593C91.7315 51.3266 89.96 50.1102 88.112 49.3517Z" fill="#2E3A5B"/>
<path d="M105.214 58.6772L98.4803 58.6931V55.5181L105.811 56.3825L105.84 57.2526C105.84 57.6695 105.732 58.6772 105.214 58.6772Z" fill="#4D9578"/>
<path d="M89.4395 53.0007L91.6998 52.9884C92.0363 52.9884 91.9799 51.7663 90.7066 51.7717L89.6652 51.7775C89.503 51.7784 89.3478 51.8436 89.2337 51.9587C89.1196 52.0739 89.056 52.2296 89.0568 52.3916V52.6238C89.0577 52.7244 89.0985 52.8206 89.1702 52.8912C89.242 52.9619 89.3388 53.0012 89.4395 53.0007Z" fill="#066132"/>
<path d="M75.9731 54.5248C75.9731 54.5248 75.6424 54.1493 75.7607 53.3813" stroke="#3B260D" stroke-width="0.322975" stroke-linecap="round" stroke-linejoin="round"/>
<path d="M99.5517 55.2489C99.1502 54.8132 98.6387 54.4937 98.0708 54.3237C97.8495 54.2579 97.6289 54.1951 97.4638 54.154C96.9713 54.0369 96.2446 54.0776 96.2446 54.0776C96.2446 54.0776 96.3411 55.5303 97.2211 55.5178C98.101 55.5052 99.7968 55.5147 99.7968 55.5147L99.5517 55.2489Z" fill="#F7FEFB"/>
<path d="M104.198 55.1161C104.696 54.5135 104.574 54.469 104.817 54.2901C104.817 54.2901 105.535 54.7929 105.624 55.4166C105.636 55.5048 105.504 55.5184 105.371 55.5099C104.773 55.4794 104.623 55.4841 104.623 55.4841L104.198 55.1161Z" fill="#F7FEFB"/>
<path d="M99.2324 54.5692H104.731V54.8432C104.731 55.0188 104.662 55.1872 104.537 55.3114C104.413 55.4356 104.244 55.5055 104.069 55.5056H99.8952C99.7194 55.5055 99.5508 55.4356 99.4265 55.3114C99.3022 55.1872 99.2324 55.0188 99.2324 54.8432V54.5692Z" fill="#2E3A5B"/>
<path d="M103.156 55.9934H101.272C101.025 55.9934 100.826 55.794 100.826 55.548V55.1786C100.826 54.9326 101.025 54.7332 101.272 54.7332H103.156C103.402 54.7332 103.602 54.9326 103.602 55.1786V55.548C103.602 55.794 103.402 55.9934 103.156 55.9934Z" fill="#2E3A5B"/>
<path d="M78.8869 60.6936C78.1006 60.6877 77.4686 59.9602 77.4753 59.0686C77.482 58.1771 78.1249 57.4591 78.9112 57.465C79.6975 57.4709 80.3295 58.1984 80.3228 59.09C80.3161 59.9815 79.6733 60.6995 78.8869 60.6936Z" fill="#E0D7CD"/>
<path d="M78.9004 59.6256C78.6379 59.6237 78.427 59.3809 78.4292 59.0834C78.4313 58.7858 78.6459 58.5462 78.9083 58.5481C79.1707 58.55 79.3817 58.7928 79.3795 59.0903C79.3773 59.3879 79.1628 59.6276 78.9004 59.6256Z" fill="#F7FEFB"/>
<path d="M85.1062 58.6982L84.1888 54.8707V53.3813" stroke="#066132" stroke-width="0.725277" stroke-miterlimit="10"/>
<path d="M87.5253 52.9814L84.4922 53.0099L85.4381 49.4693C86.2579 49.4764 87.2942 49.5711 88.267 49.9106L87.5253 52.9814Z" fill="#596481"/>
<path d="M92.2833 49.3517H92.4325C93.1252 49.3508 93.8093 49.5043 94.4351 49.8009C95.0031 50.0725 95.688 50.4354 96.3779 50.8194L95.878 52.8903H93.8825C93.572 52.8901 93.2733 52.7717 93.047 52.5593C92.6259 52.1657 92.1847 51.7942 91.7252 51.4461L92.2833 49.3517Z" fill="#596481"/>
<path d="M105.186 58.6771L103.746 57.5649H100.752L98.4814 58.693L105.186 58.6771Z" fill="#4D9578"/>
<path d="M103.766 56.9175H100.827" stroke="#066132" stroke-width="0.725277" stroke-miterlimit="10"/>
<path d="M105.625 55.5117C105.625 55.5117 105.685 55.1749 105.479 54.7947C105.272 54.4144 104.836 54.2308 104.836 54.2308" stroke="#3B260D" stroke-width="0.322975" stroke-linecap="round" stroke-linejoin="round"/>
<path d="M85.2625 54.4783H86.7322V53.895H85.1395C85.101 53.895 85.0642 53.9102 85.037 53.9374C85.0097 53.9645 84.9944 54.0013 84.9943 54.0396V54.2094C84.9942 54.2446 85.0011 54.2796 85.0145 54.3122C85.028 54.3448 85.0477 54.3744 85.0726 54.3994C85.0975 54.4243 85.1271 54.4442 85.1597 54.4577C85.1923 54.4712 85.2272 54.4782 85.2625 54.4783Z" fill="#066132"/>
<path d="M79.7269 54.4783H81.1952V53.895H79.6021C79.5637 53.895 79.5269 53.9103 79.4997 53.9374C79.4726 53.9645 79.4573 54.0013 79.4573 54.0396V54.2094C79.4572 54.2448 79.4641 54.2798 79.4776 54.3125C79.4911 54.3452 79.5109 54.3749 79.536 54.3999C79.5611 54.4249 79.5908 54.4447 79.6236 54.4582C79.6563 54.4716 79.6915 54.4785 79.7269 54.4783Z" fill="#066132"/>
</svg>
