<svg width="24" height="24" viewBox="0 0 24 24" fill="none" xmlns="http://www.w3.org/2000/svg">
    <path fill-rule="evenodd" clip-rule="evenodd" d="M14.4844 9C14.4844 8.71523 14.7152 8.48438 15 8.48438H21C21.2149 8.48438 21.4073 8.6177 21.4828 8.81895L23.7328 14.819C23.7545 14.8768 23.7656 14.9382 23.7656 15V19.5C23.7656 19.7848 23.5348 20.0156 23.25 20.0156H20.2125C19.9277 20.0156 19.6969 19.7848 19.6969 19.5C19.6969 19.2152 19.9277 18.9844 20.2125 18.9844H22.7344V15.0935L20.6427 9.51562H15C14.7152 9.51562 14.4844 9.28477 14.4844 9Z" fill="#217B56"/>
    <path fill-rule="evenodd" clip-rule="evenodd" d="M7.35938 19.5C7.35938 19.2152 7.59023 18.9844 7.875 18.9844H15.75C16.0348 18.9844 16.2656 19.2152 16.2656 19.5C16.2656 19.7848 16.0348 20.0156 15.75 20.0156H7.875C7.59023 20.0156 7.35938 19.7848 7.35938 19.5Z" fill="#217B56"/>
    <path fill-rule="evenodd" clip-rule="evenodd" d="M0.609375 13.875C0.609375 13.5902 0.840228 13.3594 1.125 13.3594H14.625C14.9098 13.3594 15.1406 13.5902 15.1406 13.875C15.1406 14.1598 14.9098 14.3906 14.625 14.3906H1.125C0.840228 14.3906 0.609375 14.1598 0.609375 13.875Z" fill="#217B56"/>
    <path fill-rule="evenodd" clip-rule="evenodd" d="M3.23438 6C3.23438 5.71523 3.46523 5.48438 3.75 5.48438H15C15.2848 5.48438 15.5156 5.71523 15.5156 6V14.625C15.5156 14.9098 15.2848 15.1406 15 15.1406C14.7152 15.1406 14.4844 14.9098 14.4844 14.625V6.51562H3.75C3.46523 6.51562 3.23438 6.28477 3.23438 6Z" fill="#217B56"/>
    <path fill-rule="evenodd" clip-rule="evenodd" d="M0.75 13.3594C1.03477 13.3594 1.26562 13.5902 1.26562 13.875V18.9844H3.375C3.65977 18.9844 3.89062 19.2152 3.89062 19.5C3.89062 19.7848 3.65977 20.0156 3.375 20.0156H0.75C0.465228 20.0156 0.234375 19.7848 0.234375 19.5V13.875C0.234375 13.5902 0.465228 13.3594 0.75 13.3594Z" fill="#217B56"/>
    <path fill-rule="evenodd" clip-rule="evenodd" d="M5.625 17.7656C4.66713 17.7656 3.89062 18.5421 3.89062 19.5C3.89062 20.4579 4.66713 21.2344 5.625 21.2344C6.58287 21.2344 7.35938 20.4579 7.35938 19.5C7.35938 18.5421 6.58287 17.7656 5.625 17.7656ZM2.85938 19.5C2.85938 17.9726 4.09759 16.7344 5.625 16.7344C7.15241 16.7344 8.39062 17.9726 8.39062 19.5C8.39062 21.0274 7.15241 22.2656 5.625 22.2656C4.09759 22.2656 2.85938 21.0274 2.85938 19.5Z" fill="#217B56"/>
    <path fill-rule="evenodd" clip-rule="evenodd" d="M18 17.7656C17.0421 17.7656 16.2656 18.5421 16.2656 19.5C16.2656 20.4579 17.0421 21.2344 18 21.2344C18.9579 21.2344 19.7344 20.4579 19.7344 19.5C19.7344 18.5421 18.9579 17.7656 18 17.7656ZM15.2344 19.5C15.2344 17.9726 16.4726 16.7344 18 16.7344C19.5274 16.7344 20.7656 17.9726 20.7656 19.5C20.7656 21.0274 19.5274 22.2656 18 22.2656C16.4726 22.2656 15.2344 21.0274 15.2344 19.5Z" fill="#217B56"/>
    <path fill-rule="evenodd" clip-rule="evenodd" d="M4.7 6C4.86569 6 5 6.13431 5 6.3V9.01169C5 9.41241 4.84289 9.79748 4.56202 10.082C4.28103 10.3666 3.89908 10.5273 3.5 10.5273C3.10092 10.5273 2.71897 10.3666 2.43798 10.082C2.15711 9.79748 2 9.41241 2 9.01169V8.07662C2 7.96392 2.06317 7.86072 2.16354 7.80945C2.26391 7.75819 2.38455 7.76751 2.47586 7.83357L3.12201 8.30111C3.25625 8.39823 3.28633 8.58578 3.1892 8.72002C3.09208 8.85425 2.90453 8.88433 2.77029 8.7872L2.6 8.66399V9.01169C2.6 9.25576 2.69575 9.48906 2.86497 9.66048C3.03406 9.83176 3.26256 9.92727 3.5 9.92727C3.73744 9.92727 3.96594 9.83176 4.13503 9.66048C4.30425 9.48906 4.4 9.25576 4.4 9.01169V6.3C4.4 6.13431 4.53431 6 4.7 6Z" fill="#217B56"/>
    <path fill-rule="evenodd" clip-rule="evenodd" d="M17.25 10.3594C17.5348 10.3594 17.7656 10.5902 17.7656 10.875V13.3594H20.25C20.5348 13.3594 20.7656 13.5902 20.7656 13.875C20.7656 14.1598 20.5348 14.3906 20.25 14.3906H17.25C16.9652 14.3906 16.7344 14.1598 16.7344 13.875V10.875C16.7344 10.5902 16.9652 10.3594 17.25 10.3594Z" fill="#EB2227"/>
</svg>
