<svg width="24" height="24" viewBox="0 0 24 24" fill="none" xmlns="http://www.w3.org/2000/svg">
    <path fill-rule="evenodd" clip-rule="evenodd" d="M10.7344 3.75C10.7344 3.46523 10.9652 3.23438 11.25 3.23438H18C18.2149 3.23438 18.4073 3.3677 18.4828 3.56895L20.6617 9.37936L23.4806 10.7888C23.6553 10.8762 23.7656 11.0547 23.7656 11.25V17.25C23.7656 17.5348 23.5348 17.7656 23.25 17.7656H19.5C19.2152 17.7656 18.9844 17.5348 18.9844 17.25C18.9844 16.9652 19.2152 16.7344 19.5 16.7344H22.7344V11.5687L20.0194 10.2112C19.903 10.153 19.8129 10.0529 19.7672 9.93105L17.6427 4.26562H11.7656V16.7344H13.5C13.7848 16.7344 14.0156 16.9652 14.0156 17.25C14.0156 17.5348 13.7848 17.7656 13.5 17.7656H11.25C10.9652 17.7656 10.7344 17.5348 10.7344 17.25V3.75Z" fill="#EB2227"/>
    <path fill-rule="evenodd" clip-rule="evenodd" d="M16.5 14.7656C15.1279 14.7656 14.0156 15.8779 14.0156 17.25C14.0156 18.6221 15.1279 19.7344 16.5 19.7344C17.8721 19.7344 18.9844 18.6221 18.9844 17.25C18.9844 15.8779 17.8721 14.7656 16.5 14.7656ZM12.9844 17.25C12.9844 15.3084 14.5584 13.7344 16.5 13.7344C18.4416 13.7344 20.0156 15.3084 20.0156 17.25C20.0156 19.1916 18.4416 20.7656 16.5 20.7656C14.5584 20.7656 12.9844 19.1916 12.9844 17.25Z" fill="#EB2227"/>
    <path fill-rule="evenodd" clip-rule="evenodd" d="M14.25 6.23438C14.5348 6.23438 14.7656 6.46523 14.7656 6.75V9.23438H17.25C17.5348 9.23438 17.7656 9.46523 17.7656 9.75C17.7656 10.0348 17.5348 10.2656 17.25 10.2656H14.25C13.9652 10.2656 13.7344 10.0348 13.7344 9.75V6.75C13.7344 6.46523 13.9652 6.23438 14.25 6.23438Z" fill="#EB2227"/>
    <path fill-rule="evenodd" clip-rule="evenodd" d="M1.03125 2.15625V19.5938H10.5938V2.15625H1.03125ZM0.75 1.125C0.335786 1.125 0 1.46079 0 1.875V19.875C0 20.2892 0.335786 20.625 0.75 20.625H10.875C11.2892 20.625 11.625 20.2892 11.625 19.875V1.875C11.625 1.46079 11.2892 1.125 10.875 1.125H0.75Z" fill="#217B56"/>
    <path fill-rule="evenodd" clip-rule="evenodd" d="M5.6146 4.1354C5.81597 4.33676 5.81597 4.66324 5.6146 4.8646L3.3646 7.1146C3.16324 7.31597 2.83676 7.31597 2.6354 7.1146L1.8854 6.3646C1.68403 6.16324 1.68403 5.83676 1.8854 5.6354C2.08676 5.43403 2.41324 5.43403 2.6146 5.6354L3 6.0208L4.8854 4.1354C5.08676 3.93403 5.41324 3.93403 5.6146 4.1354Z" fill="#217B56"/>
    <path fill-rule="evenodd" clip-rule="evenodd" d="M6.60938 5.625C6.60938 5.34023 6.84023 5.10938 7.125 5.10938H9.375C9.65977 5.10938 9.89062 5.34023 9.89062 5.625C9.89062 5.90977 9.65977 6.14062 9.375 6.14062H7.125C6.84023 6.14062 6.60938 5.90977 6.60938 5.625Z" fill="#217B56"/>
    <path fill-rule="evenodd" clip-rule="evenodd" d="M3.375 10.2656C3.03845 10.2656 2.76562 10.5385 2.76562 10.875C2.76562 11.2115 3.03845 11.4844 3.375 11.4844C3.71155 11.4844 3.98438 11.2115 3.98438 10.875C3.98438 10.5385 3.71155 10.2656 3.375 10.2656ZM1.73438 10.875C1.73438 9.96891 2.46891 9.23438 3.375 9.23438C4.28109 9.23438 5.01562 9.96891 5.01562 10.875C5.01562 11.7811 4.28109 12.5156 3.375 12.5156C2.46891 12.5156 1.73438 11.7811 1.73438 10.875Z" fill="#217B56"/>
    <path fill-rule="evenodd" clip-rule="evenodd" d="M6.60938 10.875C6.60938 10.5902 6.84023 10.3594 7.125 10.3594H9.375C9.65977 10.3594 9.89062 10.5902 9.89062 10.875C9.89062 11.1598 9.65977 11.3906 9.375 11.3906H7.125C6.84023 11.3906 6.60938 11.1598 6.60938 10.875Z" fill="#217B56"/>
    <path fill-rule="evenodd" clip-rule="evenodd" d="M5.6146 14.6354C5.81597 14.8368 5.81597 15.1632 5.6146 15.3646L3.3646 17.6146C3.16324 17.816 2.83676 17.816 2.6354 17.6146L1.8854 16.8646C1.68403 16.6632 1.68403 16.3368 1.8854 16.1354C2.08676 15.934 2.41324 15.934 2.6146 16.1354L3 16.5208L4.8854 14.6354C5.08676 14.434 5.41324 14.434 5.6146 14.6354Z" fill="#217B56"/>
    <path fill-rule="evenodd" clip-rule="evenodd" d="M6.60938 16.125C6.60938 15.8402 6.84023 15.6094 7.125 15.6094H9.375C9.65977 15.6094 9.89062 15.8402 9.89062 16.125C9.89062 16.4098 9.65977 16.6406 9.375 16.6406H7.125C6.84023 16.6406 6.60938 16.4098 6.60938 16.125Z" fill="#217B56"/>
</svg>
