<svg width="216" height="170" viewBox="0 0 216 170" fill="none" xmlns="http://www.w3.org/2000/svg">
<g clip-path="url(#clip0_10140_20536)">
<path d="M141.997 169.651C159.179 169.651 173.108 167.807 173.108 165.531C173.108 163.256 159.179 161.411 141.997 161.411C124.815 161.411 110.886 163.256 110.886 165.531C110.886 167.807 124.815 169.651 141.997 169.651Z" fill="#C3E7D8"/>
<path d="M18.5574 109.881C3.8663 102.127 -3.48398 84.1366 1.61136 67.1947C3.31615 61.5356 6.36575 56.102 11.5372 51.91C30.3428 36.6579 46.4887 58.8256 64.5404 47.4558C82.5922 36.086 81.7568 2.5418 125.348 3.29571C168.939 4.04962 153.711 56.2881 182.596 65.6366C182.596 65.6366 218.88 70.5078 215.816 112.283C212.751 154.057 141.04 158.26 114.534 102.192C90.1775 50.6684 76.9997 140.73 18.5574 109.881Z" fill="#C3E7D8"/>
<path d="M119.477 101.88C119.477 101.88 134.202 68.6112 166.218 60.9199L144.561 86.0312C144.561 86.0312 160.195 73.8858 183.62 80.1901C183.62 80.1901 154.37 90.844 145.024 106.543C145.024 106.543 140.837 119.209 137.91 120.263C120.082 126.7 119.477 101.88 119.477 101.88Z" fill="#36AE7C"/>
<path d="M103.213 167.145C129.259 167.145 150.373 165.241 150.373 162.892C150.373 160.543 129.259 158.639 103.213 158.639C77.1664 158.639 56.0518 160.543 56.0518 162.892C56.0518 165.241 77.1664 167.145 103.213 167.145Z" fill="#C3E7D8"/>
<path d="M131.779 30.0654H76.1647C70.9176 30.0654 66.6641 34.319 66.6641 39.5661V153.584C66.6641 158.831 70.9176 163.085 76.1647 163.085H131.779C137.026 163.085 141.279 158.831 141.279 153.584V39.5661C141.279 34.319 137.026 30.0654 131.779 30.0654Z" fill="#217B56"/>
<path d="M130.828 33.709H76.4564C73.2169 33.709 70.5908 36.3351 70.5908 39.5745V152.429C70.5908 155.668 73.2169 158.294 76.4564 158.294H130.828C134.067 158.294 136.693 155.668 136.693 152.429V39.5745C136.693 36.3351 134.067 33.709 130.828 33.709Z" fill="#2E3A5B"/>
<path d="M97.8552 33.709H76.6724C73.3266 33.709 70.5908 36.2546 70.5908 39.3654V74.7842L97.8552 33.709Z" fill="#596481"/>
<path d="M130.612 33.709H110.354L70.5908 93.6143V152.639C70.5908 155.75 136.693 39.3667 136.693 39.3667C136.693 36.2546 133.957 33.709 130.612 33.709Z" fill="#596481"/>
<path d="M124.834 43.0449H82.2786C78.6881 43.0449 75.7773 45.9556 75.7773 49.5462V141.723C75.7773 145.313 78.6881 148.224 82.2786 148.224H124.834C128.425 148.224 131.336 145.313 131.336 141.723V49.5462C131.336 45.9556 128.425 43.0449 124.834 43.0449Z" fill="#F5ECE0"/>
<path d="M85.5843 23.207H49.3884C46.0004 23.207 43.2539 25.9535 43.2539 29.3416V52.4615C43.2539 55.8495 46.0004 58.596 49.3884 58.596H85.5843C88.9723 58.596 91.7188 55.8495 91.7188 52.4615V29.3416C91.7188 25.9535 88.9723 23.207 85.5843 23.207Z" fill="#EB5353"/>
<path d="M78.95 42.5449H55.4212C52.8457 42.5449 50.7578 44.6328 50.7578 47.2083V48.1347C50.7578 50.7102 52.8457 52.7981 55.4212 52.7981H78.95C81.5255 52.7981 83.6134 50.7102 83.6134 48.1347V47.2083C83.6134 44.6328 81.5255 42.5449 78.95 42.5449Z" fill="#EB5353"/>
<path d="M78.95 29.29H55.4212C52.8457 29.29 50.7578 31.3779 50.7578 33.9534V34.8798C50.7578 37.4554 52.8457 39.5432 55.4212 39.5432H78.95C81.5255 39.5432 83.6134 37.4554 83.6134 34.8798V33.9534C83.6134 31.3779 81.5255 29.29 78.95 29.29Z" fill="#EB5353"/>
<path d="M59.2081 33.8702H58.1703L58.9038 33.1353C58.9241 33.1161 58.9363 33.0898 58.9378 33.0619C58.969 32.3664 58.3129 32.183 57.9869 32.5185L57.4014 33.104V32.0581C57.4017 32.03 57.3915 32.0029 57.3729 31.982C56.9042 31.4685 56.3106 31.8027 56.3106 32.27V33.0972L55.5757 32.3623C55.556 32.3429 55.53 32.3314 55.5024 32.3297C54.8069 32.2985 54.6235 32.9546 54.959 33.2806L55.5445 33.8661H54.5053C54.4774 33.8664 54.4505 33.8765 54.4292 33.8946C53.9158 34.3646 54.2499 34.9569 54.7172 34.9569H55.5445L54.8096 35.6918C54.7904 35.7121 54.7789 35.7385 54.777 35.7665C54.7458 36.462 55.4005 36.644 55.7279 36.3098L56.3133 35.7244V36.7622C56.3134 36.7901 56.3236 36.8171 56.3419 36.8382C56.8119 37.3531 57.4041 37.0176 57.4041 36.5516V35.7244L58.139 36.4593C58.1594 36.4784 58.1858 36.49 58.2137 36.4919C58.9092 36.5231 59.0913 35.867 58.7571 35.541L58.1716 34.9569H59.0003C59.4662 34.9569 59.8017 34.3632 59.2869 33.8932C59.2643 33.8763 59.2363 33.8681 59.2081 33.8702V33.8702Z" fill="white"/>
<path d="M65.9507 33.8702H64.9116L65.6464 33.1353C65.6658 33.1156 65.6774 33.0895 65.679 33.0619C65.7116 32.3664 65.0555 32.183 64.7282 32.5185L64.1427 33.104V32.0581C64.1424 32.0301 64.1323 32.0032 64.1142 31.982C63.6442 31.4685 63.0519 31.8027 63.0519 32.27V33.0972L62.317 32.3623C62.2968 32.3429 62.2703 32.3314 62.2423 32.3297C61.5468 32.2985 61.3648 32.9546 61.6989 33.2806L62.2831 33.8661H61.2452C61.2173 33.8664 61.1904 33.8765 61.1692 33.8946C60.6543 34.3646 60.9899 34.9582 61.4558 34.9582H62.2844L61.5495 35.6918C61.5294 35.7117 61.5174 35.7383 61.5156 35.7665C61.4843 36.462 62.1404 36.644 62.4664 36.3098L63.0519 35.7244V36.7622C63.0514 36.7902 63.0616 36.8175 63.0804 36.8382C63.5491 37.3531 64.1427 37.0176 64.1427 36.5516V35.7244L64.8776 36.4593C64.8973 36.4786 64.9234 36.4902 64.9509 36.4919C65.6464 36.5231 65.8298 35.867 65.4943 35.541L64.9088 34.9555H65.7361C66.2034 34.9555 66.5376 34.3619 66.0241 33.8919C66.0027 33.8768 65.9769 33.8692 65.9507 33.8702V33.8702Z" fill="white"/>
<path d="M72.6911 33.8702H71.6533L72.3868 33.1353C72.4072 33.1161 72.4193 33.0898 72.4208 33.0619C72.452 32.3664 71.7959 32.183 71.4699 32.5185L70.8858 33.104V32.0581C70.8856 32.0299 70.8749 32.0028 70.8559 31.982C70.3873 31.4685 69.7937 31.8027 69.7937 32.27V33.0972L69.0588 32.3623C69.0391 32.3429 69.013 32.3314 68.9854 32.3297C68.2899 32.2985 68.1065 32.9546 68.4421 33.2806L69.0275 33.8661H67.9884C67.9605 33.8661 67.9338 33.8768 67.9136 33.896C67.3988 34.3646 67.733 34.9582 68.2003 34.9582H69.0275L68.2926 35.6918C68.2734 35.7121 68.2619 35.7385 68.26 35.7665C68.2288 36.462 68.8849 36.644 69.2109 36.3098L69.7964 35.7244V36.7622C69.7963 36.7904 69.807 36.8176 69.8263 36.8382C70.2949 37.3531 70.8885 37.0176 70.8885 36.5516V35.7244L71.6221 36.4593C71.6424 36.4784 71.6688 36.49 71.6968 36.4919C72.3923 36.5231 72.5743 35.867 72.2401 35.541L71.6547 34.9555H72.4819C72.9479 34.9555 73.2834 34.3619 72.7686 33.8932C72.7465 33.8761 72.7189 33.8679 72.6911 33.8702V33.8702Z" fill="white"/>
<path d="M79.4325 33.8702H78.3934L79.1283 33.1366C79.148 33.1166 79.1596 33.09 79.1609 33.0619C79.1935 32.3664 78.5374 32.1844 78.21 32.5185L77.6245 33.104V32.0581C77.6242 32.0301 77.6141 32.0032 77.596 31.982C77.126 31.4685 76.5337 31.8027 76.5337 32.27V33.0972L75.7988 32.3637C75.7788 32.344 75.7522 32.3324 75.7241 32.3311C75.03 32.2998 74.8466 32.956 75.1808 33.282L75.7662 33.8674H74.7271C74.6989 33.8677 74.6718 33.8783 74.651 33.8973C74.1375 34.366 74.4717 34.9596 74.9376 34.9596H75.7662L75.0313 35.6945C75.0114 35.7138 74.9997 35.7401 74.9987 35.7678C74.9661 36.4633 75.6222 36.6454 75.9496 36.3112L76.5351 35.7257V36.7649C76.5349 36.7925 76.5451 36.8192 76.5636 36.8396C77.0336 37.3544 77.6259 37.0189 77.6259 36.553V35.7257L78.3608 36.4606C78.3808 36.4803 78.4074 36.4919 78.4355 36.4932C79.1296 36.5245 79.313 35.8684 78.9788 35.5423L78.3934 34.9569H79.222C79.6879 34.9569 80.0221 34.3633 79.5086 33.8946C79.487 33.8776 79.46 33.8689 79.4325 33.8702Z" fill="white"/>
<path d="M79.1277 48.544H56.1599C55.9907 48.5436 55.8285 48.4762 55.7089 48.3566C55.5892 48.2369 55.5218 48.0748 55.5215 47.9055V47.4383C55.5218 47.269 55.5892 47.1069 55.7089 46.9872C55.8285 46.8675 55.9907 46.8002 56.1599 46.7998H79.1277C79.2969 46.8002 79.4591 46.8675 79.5788 46.9872C79.6984 47.1069 79.7658 47.269 79.7662 47.4383V47.9042C79.7662 48.0736 79.6989 48.2362 79.5792 48.3561C79.4595 48.4761 79.2972 48.5436 79.1277 48.544V48.544Z" fill="white"/>
<path d="M135.083 138.285V128.477C135.083 126.203 135.987 124.021 137.595 122.413C139.203 120.805 141.384 119.901 143.659 119.901C145.933 119.901 148.114 120.805 149.723 122.413C151.331 124.021 152.234 126.203 152.234 128.477V138.285H158.582V128.477C158.582 124.519 157.01 120.723 154.211 117.925C151.412 115.126 147.617 113.554 143.659 113.554C139.701 113.554 135.905 115.126 133.106 117.925C130.308 120.723 128.735 124.519 128.735 128.477V138.285H135.083Z" fill="#217B56"/>
<path d="M158.479 166.765H128.839C127.987 166.765 127.143 166.598 126.356 166.272C125.568 165.946 124.853 165.468 124.25 164.865C123.648 164.263 123.17 163.548 122.844 162.76C122.517 161.973 122.35 161.129 122.35 160.277V138.421C122.35 136.7 123.033 135.049 124.25 133.832C125.467 132.615 127.118 131.932 128.839 131.932H158.479C160.2 131.932 161.85 132.615 163.067 133.832C164.284 135.049 164.968 136.7 164.968 138.421V160.291C164.964 162.009 164.279 163.656 163.062 164.87C161.846 166.084 160.197 166.765 158.479 166.765V166.765Z" fill="#36AE7C"/>
<path d="M158.478 131.926H150.745C151.598 131.926 152.442 132.094 153.23 132.42C154.018 132.747 154.733 133.226 155.336 133.829C155.939 134.432 156.416 135.148 156.742 135.936C157.068 136.724 157.235 137.569 157.234 138.422V160.292C157.234 161.144 157.066 161.988 156.74 162.775C156.414 163.562 155.936 164.277 155.334 164.88C154.731 165.482 154.016 165.96 153.228 166.286C152.441 166.612 151.597 166.78 150.745 166.78H158.478C159.331 166.78 160.174 166.612 160.962 166.286C161.749 165.96 162.464 165.482 163.067 164.88C163.669 164.277 164.147 163.562 164.474 162.775C164.8 161.988 164.968 161.144 164.968 160.292V138.422C164.968 137.569 164.801 136.724 164.476 135.936C164.15 135.148 163.672 134.432 163.069 133.829C162.467 133.226 161.751 132.747 160.963 132.42C160.176 132.094 159.331 131.926 158.478 131.926Z" fill="#217B56"/>
<path d="M144.163 153.634C146.361 152.579 147.288 149.94 146.232 147.742C145.176 145.543 142.538 144.617 140.339 145.672C138.141 146.728 137.214 149.366 138.27 151.565C139.326 153.764 141.964 154.69 144.163 153.634Z" fill="#217B56"/>
<path d="M142.256 148.58C142.848 148.582 143.416 148.818 143.835 149.237C144.254 149.656 144.49 150.224 144.492 150.816V158.18C144.49 158.773 144.254 159.341 143.835 159.76C143.416 160.179 142.849 160.415 142.256 160.417C141.663 160.415 141.095 160.179 140.676 159.76C140.257 159.341 140.02 158.773 140.019 158.18V150.816C140.02 150.223 140.257 149.655 140.676 149.236C141.095 148.817 141.663 148.582 142.256 148.58V148.58Z" fill="#217B56"/>
<path d="M141.237 158.18V153.445C140.452 152.984 139.829 152.292 139.453 151.464C139.077 150.635 138.967 149.711 139.137 148.817C139.307 147.923 139.75 147.104 140.404 146.472C141.058 145.839 141.892 145.425 142.791 145.285C142.566 145.248 142.339 145.228 142.112 145.227C141.143 145.226 140.201 145.545 139.431 146.133C138.662 146.721 138.107 147.546 137.852 148.481C137.598 149.415 137.658 150.408 138.023 151.305C138.389 152.202 139.039 152.954 139.874 153.445V158.18C139.873 158.533 139.956 158.88 140.116 159.195C140.275 159.509 140.506 159.781 140.791 159.989C141.076 160.196 141.406 160.334 141.754 160.389C142.102 160.445 142.458 160.417 142.794 160.309C142.343 160.164 141.949 159.88 141.67 159.497C141.39 159.115 141.238 158.654 141.237 158.18Z" fill="#5EBE96"/>
<path d="M135.083 129.657H128.735V131.924H135.083V129.657Z" fill="#175A3E"/>
<path d="M158.582 129.657H152.234V131.924H158.582V129.657Z" fill="#175A3E"/>
<path d="M183.057 117.734C184.538 117.734 185.739 116.534 185.739 115.053C185.739 113.572 184.538 112.371 183.057 112.371C181.577 112.371 180.376 113.572 180.376 115.053C180.376 116.534 181.577 117.734 183.057 117.734Z" stroke="#217B56" stroke-width="0.577319" stroke-linecap="round" stroke-linejoin="round"/>
<path d="M113.831 5.65006C115.312 5.65006 116.512 4.44952 116.512 2.96858C116.512 1.48765 115.312 0.287109 113.831 0.287109C112.35 0.287109 111.149 1.48765 111.149 2.96858C111.149 4.44952 112.35 5.65006 113.831 5.65006Z" stroke="#217B56" stroke-width="0.577319" stroke-linecap="round" stroke-linejoin="round"/>
<path d="M15.7899 73.8639C17.2708 73.8639 18.4713 72.6634 18.4713 71.1825C18.4713 69.7015 17.2708 68.501 15.7899 68.501C14.3089 68.501 13.1084 69.7015 13.1084 71.1825C13.1084 72.6634 14.3089 73.8639 15.7899 73.8639Z" stroke="#217B56" stroke-width="0.577319" stroke-linecap="round" stroke-linejoin="round"/>
<path d="M103.779 59.0957H102.407C91.92 59.0957 83.4189 67.5968 83.4189 78.0834V118.581C83.4189 129.068 91.92 137.569 102.407 137.569H103.779C114.265 137.569 122.766 129.068 122.766 118.581V78.0834C122.766 67.5968 114.265 59.0957 103.779 59.0957Z" fill="#C4BDB4"/>
<path d="M111.422 119.548C111.415 118.885 111.146 118.253 110.673 117.788C110.201 117.323 109.564 117.064 108.901 117.067L106.195 117.089C105.533 117.096 104.9 117.365 104.435 117.837C103.971 118.31 103.712 118.946 103.715 119.609V119.609C103.722 120.271 103.991 120.904 104.463 121.369C104.935 121.834 105.572 122.093 106.235 122.089L108.941 122.069C109.603 122.062 110.236 121.793 110.702 121.32C111.167 120.848 111.426 120.211 111.422 119.548V119.548Z" fill="#217B56"/>
<path d="M111.796 112.095C111.789 111.432 111.52 110.8 111.048 110.335C110.576 109.87 109.939 109.611 109.277 109.614L106.571 109.636C105.908 109.643 105.275 109.912 104.81 110.384C104.345 110.856 104.086 111.493 104.089 112.156V112.156C104.096 112.819 104.365 113.451 104.838 113.916C105.31 114.381 105.947 114.64 106.61 114.636L109.316 114.616C109.979 114.608 110.611 114.339 111.076 113.867C111.541 113.394 111.8 112.757 111.796 112.095V112.095Z" fill="#217B56"/>
<path d="M103.347 97.1672C111.386 96.9005 117.686 90.1683 117.42 82.1303C117.153 74.0923 110.42 67.7925 102.382 68.0591C94.3428 68.3258 88.0423 75.058 88.309 83.096C88.5756 91.134 95.3084 97.4338 103.347 97.1672Z" fill="#36AE7C"/>
<path d="M107.012 122.024L106.771 91.1053C106.759 90.0892 106.345 89.1189 105.621 88.4064C104.896 87.6938 103.919 87.2967 102.903 87.3018C101.887 87.3133 100.916 87.7264 100.204 88.4511C99.4912 89.1757 99.0942 90.1528 99.0997 91.1692L99.3442 122.088C99.3564 123.104 99.7699 124.074 100.495 124.787C101.219 125.499 102.197 125.896 103.213 125.891V125.891C104.228 125.878 105.197 125.464 105.908 124.739C106.62 124.015 107.017 123.039 107.012 122.024Z" fill="#36AE7C"/>
<path d="M102.934 75.5414C104.564 75.4599 105.819 74.0728 105.738 72.4431C105.656 70.8134 104.269 69.5583 102.639 69.6397C101.01 69.7211 99.7545 71.1082 99.8359 72.7379C99.9173 74.3676 101.304 75.6228 102.934 75.5414Z" fill="#C4BDB4"/>
<path d="M106.809 96.6359C106.809 96.6359 103.413 98.0649 98.7617 96.5938" stroke="#162070" stroke-width="0.873449" stroke-linecap="round" stroke-linejoin="round"/>
<path d="M45.2038 165.587C55.8982 165.587 64.5677 164.63 64.5677 163.45C64.5677 162.27 55.8982 161.313 45.2038 161.313C34.5094 161.313 25.8398 162.27 25.8398 163.45C25.8398 164.63 34.5094 165.587 45.2038 165.587Z" fill="#C3E7D8"/>
<path fill-rule="evenodd" clip-rule="evenodd" d="M48.6119 156.021L47.9599 160.911L45.5148 160.775C45.5148 160.775 45.2254 158.835 44.9619 156.021H48.6119Z" fill="#E3633D"/>
<path fill-rule="evenodd" clip-rule="evenodd" d="M48.0629 160.18L50.2173 161.742C50.6615 162.122 52.9898 162.863 52.9898 162.863C53.2506 163.337 52.8254 163.585 52.4546 163.648L45.7359 163.512C45.7359 163.512 44.2689 163.184 45.4262 160.201C46.6868 160.735 47.8156 161.106 48.0629 160.18Z" fill="#101C33"/>
<path fill-rule="evenodd" clip-rule="evenodd" d="M36.8898 156.021L36.0503 160.911L33.6052 160.775C33.6052 160.775 33.3906 158.835 33.2344 156.021H36.8898Z" fill="#E3633D"/>
<path fill-rule="evenodd" clip-rule="evenodd" d="M36.1826 160.18L38.2773 161.742C38.7065 162.122 41.0049 162.863 41.0049 162.863C41.2481 163.337 40.8134 163.585 40.4398 163.648L33.728 163.512C33.728 163.512 32.2732 163.184 33.5446 160.201C34.7848 160.735 35.896 161.106 36.1826 160.18Z" fill="#101C33"/>
<path fill-rule="evenodd" clip-rule="evenodd" d="M33.4456 88.2516C33.4729 88.0625 33.4601 87.8699 33.4079 87.6861C33.3557 87.5024 33.2653 87.3317 33.1427 87.1853C31.2137 84.7184 35.0091 82.8031 36.1067 81.9391C37.2518 81.0385 35.8065 79.043 38.2801 78.1207C40.7538 77.1983 41.6163 78.4861 41.7345 78.4426C41.9084 78.3788 41.509 80.8796 41.509 80.8796C41.509 80.8796 40.2729 81.3238 40.3788 83.8287C40.4848 86.3335 41.1939 87.6131 39.7119 89.6344C38.2299 91.6557 32.0098 89.3179 32.0098 89.3179C33.0326 89.2731 33.3587 88.7311 33.4456 88.2516Z" fill="#14243D"/>
<path fill-rule="evenodd" clip-rule="evenodd" d="M44.8463 83.3388C44.8463 83.3388 44.5475 85.4457 44.303 87.1912C44.271 87.4186 44.1794 87.6334 44.0374 87.8138C43.8955 87.9942 43.7082 88.1337 43.4947 88.2182C43.2822 88.3016 43.0511 88.3263 42.8258 88.2898C42.6004 88.2532 42.389 88.1567 42.2138 88.0103L41.8728 87.7278C41.6313 87.5258 41.4516 87.26 41.354 86.9607C41.2565 86.6614 41.2452 86.3407 41.3213 86.0352L42.4447 81.5186L44.849 83.3388H44.8463Z" fill="#D45D39"/>
<path fill-rule="evenodd" clip-rule="evenodd" d="M44.78 84.4988L44.5042 85.7499L43.4678 84.4893L44.78 84.4988Z" fill="#C24A27"/>
<path fill-rule="evenodd" clip-rule="evenodd" d="M41.373 81.0441C41.279 80.761 41.3008 80.4523 41.4336 80.1853C41.5665 79.9183 41.7996 79.7148 42.0821 79.6191L44.1197 78.9399C44.7051 78.7456 45.2485 79.1056 45.531 79.6612C45.8638 80.316 46.2279 81.7857 46.3637 82.8833C46.4412 83.5014 46.1613 84.1887 45.5759 84.3776C44.951 84.5854 42.8808 84.6044 42.3293 83.534C41.9095 82.719 41.6569 81.9039 41.3716 81.0359L41.373 81.0441Z" fill="#D45D39"/>
<path fill-rule="evenodd" clip-rule="evenodd" d="M41.5675 83.5621C41.252 83.3849 40.9758 83.1453 40.7556 82.8581C40.5354 82.5709 40.3758 82.242 40.2865 81.8913C40.1031 81.1523 40.0026 80.2354 40.4128 79.6853C41.4506 78.2956 43.0019 77.376 45.0531 78.6094C45.0531 78.6094 44.6456 81.17 41.8867 83.7428L41.5675 83.5621Z" fill="#14243D"/>
<path fill-rule="evenodd" clip-rule="evenodd" d="M41.4309 83.4343C41.746 83.8418 42.2677 83.9519 42.5964 83.691C42.9251 83.4302 42.9374 82.8896 42.6236 82.4861C42.3098 82.0827 41.7882 81.9686 41.4581 82.2308C41.128 82.4929 41.1103 83.0322 41.4309 83.4343Z" fill="#D45D39"/>
<path fill-rule="evenodd" clip-rule="evenodd" d="M45.979 82.5195L44.9629 82.8374C44.9629 82.8374 45.1979 83.5383 45.672 83.3264C46.1461 83.1145 45.979 82.5195 45.979 82.5195Z" fill="white"/>
<path d="M41.5898 78.3262C41.5898 78.3262 40.3591 78.4851 40.0684 80.3991" stroke="#8893BA" stroke-width="0.27983" stroke-linecap="round" stroke-linejoin="round"/>
<path fill-rule="evenodd" clip-rule="evenodd" d="M36.4761 103.729L51.1468 104.841C53.5824 105.711 53.6258 119.376 53.6258 119.376L44.0655 119.82C39.6004 119.727 34.4466 123.293 33.3531 115.88C32.1048 107.397 36.4761 103.729 36.4761 103.729Z" fill="#36AE7C"/>
<path fill-rule="evenodd" clip-rule="evenodd" d="M47.5716 86.7255L45.2351 86.1128L41.3134 85.7705L35.7264 87.6628C34.8161 88.1023 34.1004 88.8629 33.717 89.7982C33.3336 90.7335 33.3095 91.7776 33.6494 92.7296L34.9548 99.1222C33.4606 103.92 34.8081 105.397 32.8887 112.242C40.7674 115.249 51.6345 115.204 54.1571 111.602C53.827 101.685 49.0115 92.6114 47.5716 86.7255Z" fill="#D6CEC4"/>
<path d="M45.6425 86.2109C45.6425 86.2109 47.4342 90.4288 44.4607 90.6678C41.4872 90.9069 39.8965 86.2585 39.8965 86.2585L41.9341 85.4258L43.6823 85.5548L45.6425 86.2109Z" fill="#D45D39"/>
<path fill-rule="evenodd" clip-rule="evenodd" d="M47.5434 86.7158C47.5434 86.7158 50.4803 87.4059 51.6621 89.6106C52.7248 91.6221 53.5455 93.7524 54.1072 95.957L49.8269 98.7254L47.1943 91.2542L47.5434 86.7158Z" fill="#D6CEC4"/>
<path fill-rule="evenodd" clip-rule="evenodd" d="M43.6901 131.014L43.826 118.887L53.6214 119.378C53.5915 121.066 53.6078 122.253 53.3877 123.914L51.2143 140.4L49.4117 159.122H43.1522C43.1522 159.122 42.6863 147.375 43.4008 142.379C43.9216 138.613 44.0186 134.802 43.6901 131.014V131.014Z" fill="#36AE7C"/>
<path fill-rule="evenodd" clip-rule="evenodd" d="M43.6901 131.014L43.826 118.887L46.9163 118.938C46.8864 120.625 46.9353 122.734 46.7153 124.395L45.6421 140.171L45.8214 159.122H43.1522C43.1522 159.122 42.6863 147.375 43.4008 142.379C43.9216 138.613 44.0186 134.802 43.6901 131.014V131.014Z" fill="#217B56"/>
<path fill-rule="evenodd" clip-rule="evenodd" d="M33.0357 131.015L33.5519 116.752L44.5386 118.48C44.4435 120.167 43.8091 122.176 43.5252 123.837L40.1999 140.41L37.68 159.123H31.4219C31.4219 159.123 31.4042 147.376 32.3103 142.379C32.9748 138.63 33.2181 134.818 33.0357 131.015V131.015Z" fill="#36AE7C"/>
<path d="M44.0518 122.096L44.3683 119.024L45.8747 119" stroke="#6376BA" stroke-width="0.27983" stroke-linecap="round" stroke-linejoin="round"/>
<path fill-rule="evenodd" clip-rule="evenodd" d="M32.6781 103.622C30.525 103.509 28.683 104.646 28.2646 107.11L28.7143 119.317L31.0385 118.282L32.1809 109.171L32.6781 103.622Z" fill="#D46D4E"/>
<path d="M31.0373 117.553L31.3782 119.751C31.4465 120.191 31.355 120.64 31.1201 121.017L30.1693 122.547C30.0927 122.67 29.9873 122.773 29.8622 122.847C29.7371 122.921 29.5959 122.963 29.4509 122.97C29.3058 122.977 29.1612 122.949 29.0294 122.888C28.8976 122.827 28.7825 122.735 28.6941 122.62V122.62L28.4224 119.833C28.3719 119.179 28.5527 118.529 28.9331 117.995L29.5838 117.044L31.0373 117.553Z" fill="#D46D4E"/>
<path fill-rule="evenodd" clip-rule="evenodd" d="M33.7467 89.6543L28.2764 102.571L28.165 115.746L32.4155 116.729L33.4981 103.289L36.9552 95.7888L33.7467 89.6543Z" fill="#D6CEC4"/>
<path fill-rule="evenodd" clip-rule="evenodd" d="M54.5599 101.713C52.5223 102.392 51.221 104.132 51.7358 106.577L56.6328 117.773L58.411 115.952L56.1288 107.058L54.5599 101.713Z" fill="#D46D4E"/>
<path d="M58.1473 115.272L59.2734 117.192C59.4979 117.576 59.5774 118.027 59.4975 118.465L59.1756 120.231C59.1495 120.373 59.0891 120.508 58.9997 120.622C58.9103 120.737 58.7945 120.828 58.6622 120.888C58.5298 120.948 58.385 120.975 58.24 120.967C58.095 120.958 57.9541 120.915 57.8294 120.841V120.841L56.5512 118.348C56.2645 117.757 56.1948 117.084 56.3542 116.446L56.6123 115.328L58.1473 115.272Z" fill="#D46D4E"/>
<path fill-rule="evenodd" clip-rule="evenodd" d="M46.333 91.1641L50.0808 102.35L54.8121 114.647L59.1264 114.001L55.1993 101.101L54.0528 95.894L46.333 91.1641Z" fill="#D6CEC4"/>
<path d="M34.6963 101.053C34.6963 100.798 36.2571 95.2119 36.2571 95.2119L36.071 94.5762" stroke="#AD9B8F" stroke-width="0.415669" stroke-linecap="round" stroke-linejoin="round"/>
<path d="M51.4831 99.6486C51.4831 99.5209 50.6572 93.9434 50.6572 93.9434" stroke="#AD9B8F" stroke-width="0.415669" stroke-linecap="round" stroke-linejoin="round"/>
<path d="M127.024 68.1091C130.684 64.0017 130.322 57.7042 126.215 54.0433C122.108 50.3824 115.81 50.7444 112.149 54.8518C108.488 58.9593 108.85 65.2568 112.958 68.9177C117.065 72.5786 123.363 72.2166 127.024 68.1091Z" fill="#36AE7C"/>
<path d="M115.854 59.2582L119.385 64.8371L123.311 57.4434" stroke="white" stroke-width="0.99163" stroke-linecap="round" stroke-linejoin="round"/>
</g>
<defs>
<clipPath id="clip0_10140_20536">
<rect width="216" height="169.653" fill="white"/>
</clipPath>
</defs>
</svg>
