<svg width="46" height="46" viewBox="0 0 46 46" fill="none" xmlns="http://www.w3.org/2000/svg">
<path d="M42.2306 29.3847C41.6842 29.0915 41.0684 28.9525 40.449 28.9824C39.8297 29.0124 39.2302 29.2102 38.7146 29.5547L32.0638 33.9885C32.0709 33.898 32.0756 33.8068 32.0756 33.7145C32.0756 31.791 30.5107 30.2261 28.5872 30.2261H22.0588L21.1274 29.5276C19.5237 28.3248 17.5366 27.6624 15.532 27.6624C13.8418 27.6624 12.1833 28.1218 10.7339 28.9914L8.45642 30.3578C8.31949 30.4399 8.20617 30.5562 8.1275 30.6951C8.04882 30.8341 8.00746 30.991 8.00745 31.1507V41.4055C8.00745 41.9162 8.42145 42.3302 8.93212 42.3302H30.4038C31.6406 42.3302 32.8319 41.958 33.8486 41.254L42.5639 35.2204C43.0191 34.9052 43.3911 34.4843 43.6481 33.9939C43.9051 33.5035 44.0393 32.9581 44.0394 32.4044C44.04 31.7844 43.8721 31.1758 43.5534 30.6439C43.2348 30.112 42.7775 29.6767 42.2306 29.3847V29.3847ZM41.5113 33.6999L32.796 39.7335C32.0937 40.2212 31.2588 40.4821 30.4038 40.4808H9.85696V31.6743L11.6855 30.5772C12.8475 29.88 14.1771 29.5118 15.5322 29.5117C17.1393 29.5117 18.7324 30.0427 20.018 31.0071L21.196 31.8905C21.356 32.0106 21.5507 32.0755 21.7508 32.0755H28.5873C29.491 32.0755 30.2263 32.8108 30.2263 33.7145C30.2263 34.6182 29.491 35.3535 28.5873 35.3535H19.187C18.6763 35.3535 18.2623 35.7675 18.2623 36.2782C18.2623 36.7889 18.6763 37.2029 19.187 37.2029H29.2614C30.1216 37.2029 30.9547 36.9507 31.6704 36.4735L39.7404 31.0935C40.2322 30.7657 40.8368 30.7364 41.3579 31.0153C41.8789 31.2942 42.19 31.8135 42.19 32.4045C42.19 32.6592 42.1283 32.9101 42.0101 33.1357C41.8919 33.3613 41.7207 33.5549 41.5113 33.6999Z" fill="#EAECED"/>
<path d="M8.93227 44.0393H1.92485C1.41418 44.0393 1.00018 43.6252 1.00018 43.1146V27.7324C1.00018 27.2217 1.41418 26.8077 1.92485 26.8077H8.93227C9.44294 26.8077 9.85694 27.2217 9.85694 27.7324V43.1146C9.85694 43.6252 9.44294 44.0393 8.93227 44.0393ZM2.84953 42.1899H8.0076V28.6571H2.84953V42.1899Z" fill="#EAECED"/>
<path d="M36.1819 9.99378C36.2952 9.74302 36.2881 9.44377 36.1633 9.19848L32.3198 1.51118C32.243 1.35757 32.125 1.22839 31.9789 1.1381C31.8328 1.04782 31.6645 0.999998 31.4927 1H13.5469C13.3752 0.999998 13.2068 1.04782 13.0607 1.1381C12.9147 1.22839 12.7966 1.35757 12.7198 1.51118L8.87426 9.20226C8.69681 9.54893 8.76936 9.99689 9.04751 10.2697L21.866 23.0881C22.2106 23.4454 22.8292 23.4454 23.1737 23.0881L35.9921 10.2697C36.0713 10.1897 36.1355 10.0963 36.1819 9.99378V9.99378ZM33.8421 8.69117H27.5759L26.6023 2.84943H30.9212L33.8421 8.69117ZM19.5299 10.5405H25.5098L22.5198 19.5102L19.5299 10.5405ZM24.7275 2.84943L25.7011 8.69117H19.3385L20.3122 2.84943H24.7275ZM14.1184 2.84943H18.4373L17.4637 8.69117H11.1975L14.1184 2.84943ZM17.5805 10.5405L20.4039 19.0108L11.9337 10.5405H17.5805ZM24.6357 19.0107L27.4592 10.5404H33.1059L24.6357 19.0107Z" fill="#EAECED"/>
<path d="M40.1555 7.97693C39.993 7.97711 39.8333 7.93445 39.6926 7.85325C39.5518 7.77205 39.4349 7.65518 39.3538 7.51442C39.0985 7.07217 39.25 6.5066 39.6922 6.25131L42.6525 4.54217C43.0951 4.2867 43.6603 4.43843 43.9156 4.8806C44.1709 5.32285 44.0194 5.88841 43.5772 6.14371L40.6169 7.85285C40.4767 7.9341 40.3175 7.9769 40.1555 7.97693V7.97693Z" fill="#EAECED"/>
<path d="M43.1139 14.8135C42.9571 14.8135 42.7981 14.7735 42.6525 14.6894L39.6922 12.9803C39.25 12.7249 39.0985 12.1594 39.3538 11.7172C39.6091 11.2749 40.1747 11.1235 40.6169 11.3787L43.5772 13.0879C44.0195 13.3433 44.1709 13.9087 43.9156 14.351C43.8344 14.4917 43.7176 14.6086 43.5768 14.6898C43.4361 14.771 43.2764 14.8137 43.1139 14.8135V14.8135Z" fill="#EAECED"/>
<path d="M4.88437 7.97699C4.72751 7.97699 4.56855 7.93698 4.42287 7.85292L1.46255 6.14378C1.0203 5.8884 0.868738 5.32291 1.12412 4.88066C1.37958 4.43842 1.94506 4.28694 2.38723 4.54223L5.34755 6.25137C5.78979 6.50675 5.94136 7.07224 5.68598 7.51449C5.60481 7.65524 5.48796 7.7721 5.34723 7.8533C5.2065 7.9345 5.04684 7.97716 4.88437 7.97699V7.97699Z" fill="#EAECED"/>
<path d="M1.92566 14.8135C1.76317 14.8137 1.60351 14.771 1.46276 14.6898C1.32202 14.6086 1.20516 14.4918 1.12396 14.351C0.868585 13.9088 1.02015 13.3432 1.4624 13.0879L4.42271 11.3788C4.86488 11.1235 5.43045 11.275 5.68583 11.7172C5.94121 12.1595 5.78964 12.725 5.34739 12.9803L2.38708 14.6895C2.24688 14.7707 2.08771 14.8135 1.92566 14.8135V14.8135Z" fill="#EAECED"/>
</svg>
