<svg width="20" height="20" viewBox="0 0 20 20" fill="none" xmlns="http://www.w3.org/2000/svg">
<path fill-rule="evenodd" clip-rule="evenodd" d="M14.375 9.17969C13.5768 9.17969 12.9297 9.82678 12.9297 10.625C12.9297 11.4232 13.5768 12.0703 14.375 12.0703C15.1732 12.0703 15.8203 11.4232 15.8203 10.625C15.8203 9.82678 15.1732 9.17969 14.375 9.17969ZM12.0703 10.625C12.0703 9.35216 13.1022 8.32031 14.375 8.32031C15.6478 8.32031 16.6797 9.35216 16.6797 10.625C16.6797 11.8978 15.6478 12.9297 14.375 12.9297C13.1022 12.9297 12.0703 11.8978 12.0703 10.625Z" fill="#217B56"/>
<path fill-rule="evenodd" clip-rule="evenodd" d="M14.375 6.36719C13.1629 6.36719 12.0004 6.8487 11.1433 7.7058C10.2862 8.5629 9.80469 9.72538 9.80469 10.9375C9.80469 11.5149 10.0722 12.2494 10.5307 13.0636C10.9826 13.8663 11.5908 14.6962 12.2077 15.4512C12.8233 16.2046 13.44 16.8743 13.9034 17.3561C14.0889 17.5489 14.2494 17.7112 14.375 17.8364C14.5006 17.7112 14.6611 17.5489 14.8466 17.3561C15.31 16.8743 15.9267 16.2046 16.5423 15.4512C17.1592 14.6962 17.7674 13.8663 18.2193 13.0636C18.6778 12.2494 18.9453 11.5149 18.9453 10.9375C18.9453 9.72538 18.4638 8.5629 17.6067 7.7058C16.7496 6.8487 15.5871 6.36719 14.375 6.36719ZM14.375 18.4375C14.0794 18.7494 14.0794 18.7493 14.0793 18.7492L14.0751 18.7453L14.0636 18.7343C14.0537 18.7248 14.0391 18.7108 14.0203 18.6926C13.9826 18.6562 13.9278 18.6029 13.8583 18.5343C13.7193 18.3971 13.5213 18.1985 13.2841 17.9518C12.81 17.4589 12.1767 16.7714 11.5423 15.995C10.9092 15.2201 10.2674 14.3476 9.78183 13.4852C9.30275 12.6343 8.94531 11.7409 8.94531 10.9375C8.94531 9.49746 9.51737 8.11639 10.5356 7.09813C11.5539 6.07987 12.935 5.50781 14.375 5.50781C15.815 5.50781 17.1961 6.07987 18.2144 7.09813C19.2326 8.11639 19.8047 9.49746 19.8047 10.9375C19.8047 11.7409 19.4472 12.6343 18.9682 13.4852C18.4826 14.3476 17.8408 15.2201 17.2077 15.995C16.5733 16.7714 15.94 17.4589 15.4659 17.9518C15.2287 18.1985 15.0307 18.3971 14.8917 18.5343C14.8222 18.6029 14.7674 18.6562 14.7297 18.6926C14.7109 18.7108 14.6963 18.7248 14.6864 18.7343L14.6749 18.7453L14.671 18.749L14.6707 18.7492C14.6706 18.7493 14.6706 18.7494 14.375 18.4375ZM14.375 18.4375L14.6707 18.7492C14.505 18.9063 14.245 18.9063 14.0793 18.7492L14.375 18.4375Z" fill="#217B56"/>
<path fill-rule="evenodd" clip-rule="evenodd" d="M4.0625 1.05469C3.26478 1.05469 2.49973 1.37158 1.93566 1.93566C1.37158 2.49973 1.05469 3.26478 1.05469 4.0625C1.05469 4.42251 1.2235 4.89204 1.53416 5.42968C1.83857 5.95652 2.25038 6.5003 2.67137 6.99639C3.09097 7.49085 3.5118 7.92876 3.82836 8.24352C3.91516 8.32983 3.99395 8.4067 4.0625 8.47275C4.13105 8.4067 4.20984 8.32983 4.29664 8.24352C4.6132 7.92876 5.03403 7.49085 5.45363 6.99639C5.87462 6.5003 6.28643 5.95652 6.59084 5.42968C6.9015 4.89204 7.07031 4.42251 7.07031 4.0625C7.07031 3.26478 6.75342 2.49973 6.18935 1.93566C5.62527 1.37158 4.86022 1.05469 4.0625 1.05469ZM4.0625 9.0625C3.77465 9.38152 3.77459 9.38147 3.77452 9.3814L3.77431 9.38121L3.77365 9.38061L3.77139 9.37857L3.76324 9.37116C3.7562 9.36475 3.746 9.35542 3.73286 9.34332C3.70656 9.31911 3.66845 9.28376 3.62021 9.23834C3.52376 9.1475 3.38665 9.01622 3.22242 8.85292C2.89445 8.52681 2.45591 8.07067 2.01613 7.55243C1.57774 7.03583 1.13018 6.44827 0.790063 5.85962C0.456186 5.28179 0.195312 4.65171 0.195312 4.0625C0.195312 3.03686 0.602747 2.05322 1.32799 1.32799C2.05322 0.602747 3.03686 0.195312 4.0625 0.195312C5.08814 0.195312 6.07178 0.602747 6.79701 1.32799C7.52225 2.05322 7.92969 3.03686 7.92969 4.0625C7.92969 4.65171 7.66881 5.28179 7.33494 5.85962C6.99482 6.44827 6.54726 7.03583 6.10887 7.55243C5.66909 8.07067 5.23055 8.52681 4.90258 8.85292C4.73835 9.01622 4.60124 9.1475 4.50479 9.23834C4.45655 9.28376 4.41844 9.31911 4.39214 9.34332C4.379 9.35542 4.3688 9.36475 4.36176 9.37116L4.35361 9.37857L4.35135 9.38061L4.35069 9.38121L4.35048 9.3814C4.35041 9.38147 4.35035 9.38152 4.0625 9.0625ZM4.0625 9.0625L4.35035 9.38152C4.18681 9.52908 3.93819 9.52908 3.77465 9.38152L4.0625 9.0625Z" fill="#217B56"/>
<path fill-rule="evenodd" clip-rule="evenodd" d="M4.0625 3.55469C3.78204 3.55469 3.55469 3.78204 3.55469 4.0625C3.55469 4.34296 3.78204 4.57031 4.0625 4.57031C4.34296 4.57031 4.57031 4.34296 4.57031 4.0625C4.57031 3.78204 4.34296 3.55469 4.0625 3.55469ZM2.69531 4.0625C2.69531 3.30742 3.30742 2.69531 4.0625 2.69531C4.81758 2.69531 5.42969 3.30742 5.42969 4.0625C5.42969 4.81758 4.81758 5.42969 4.0625 5.42969C3.30742 5.42969 2.69531 4.81758 2.69531 4.0625Z" fill="#217B56"/>
<path fill-rule="evenodd" clip-rule="evenodd" d="M4.0625 11.1328C4.29981 11.1328 4.49219 11.3252 4.49219 11.5625C4.49219 12.7746 4.9737 13.9371 5.8308 14.7942C6.6879 15.6513 7.85038 16.1328 9.0625 16.1328C9.29981 16.1328 9.49219 16.3252 9.49219 16.5625C9.49219 16.7998 9.29981 16.9922 9.0625 16.9922C7.62246 16.9922 6.24139 16.4201 5.22313 15.4019C4.20487 14.3836 3.63281 13.0025 3.63281 11.5625C3.63281 11.3252 3.82519 11.1328 4.0625 11.1328Z" fill="#217B56"/>
</svg>
