<svg width="40" height="40" viewBox="0 0 40 40" fill="none" xmlns="http://www.w3.org/2000/svg">
<path d="M32.6662 17.9952C29.1749 14.504 24.0906 13.5818 19.7539 15.2217V29.8804C19.7539 32.453 18.5208 34.7505 16.6176 36.2148C21.3897 39.9188 28.2831 39.5829 32.6661 35.1998C37.417 30.4489 37.417 22.7461 32.6662 17.9952Z" fill="#C2E0CF"/>
<path d="M24.0694 40C24.069 40 24.069 40 24.0684 40C21.1053 39.9998 18.1894 39.0031 15.858 37.1934C15.5549 36.9582 15.3779 36.5959 15.3788 36.2122C15.3798 35.8285 15.5582 35.4669 15.8622 35.233C17.5481 33.936 18.5151 31.9851 18.5151 29.8805V15.2217C18.5151 14.7066 18.8339 14.2452 19.3158 14.0629C20.8373 13.4874 22.4364 13.1957 24.0687 13.1957C27.6476 13.1957 31.012 14.589 33.5423 17.1191C36.0741 19.6509 37.4682 23.017 37.4682 26.5974C37.4682 30.1778 36.0739 33.544 33.5423 36.0757C31.0118 38.6063 27.6473 40 24.0694 40ZM18.607 36.061C20.2564 37.0101 22.1501 37.5221 24.0685 37.5222C24.0687 37.5222 24.0691 37.5222 24.0692 37.5222C26.9857 37.5222 29.7276 36.3864 31.7901 34.3238C33.8538 32.26 34.9905 29.516 34.9905 26.5974C34.9905 23.6788 33.8538 20.9348 31.7901 18.8711C29.7279 16.8089 26.9858 15.6733 24.0686 15.6733C23.0203 15.6733 21.9892 15.8205 20.9927 16.1121V29.8802C20.9928 32.1973 20.1387 34.3763 18.607 36.061Z" fill="#00572E"/>
<path d="M20.1168 31.7834C19.7997 31.7834 19.4827 31.6624 19.2409 31.4205C18.7571 30.9367 18.7571 30.1523 19.2409 29.6684L27.1348 21.7745C27.6187 21.2907 28.4028 21.2907 28.8869 21.7745C29.3706 22.2582 29.3706 23.0427 28.8869 23.5266L20.9929 31.4205C20.7509 31.6623 20.434 31.7834 20.1168 31.7834Z" fill="#00572E"/>
<path d="M11.7623 39.1109C6.67258 39.1109 2.5318 34.9702 2.5318 29.8805V9.23047C2.5318 4.14078 6.67258 0 11.7623 0C16.852 0 20.9927 4.14078 20.9927 9.23047C20.9927 9.91469 20.438 10.4693 19.7539 10.4693C19.0698 10.4693 18.5151 9.91469 18.5151 9.23047C18.5151 5.50695 15.4858 2.47766 11.7623 2.47766C8.03875 2.47766 5.00946 5.50695 5.00946 9.23047V29.8804C5.00946 33.6039 8.03875 36.6332 11.7623 36.6332C15.4858 36.6332 18.5151 33.6039 18.5151 29.8804C18.5151 29.1962 19.0698 28.6416 19.7539 28.6416C20.438 28.6416 20.9927 29.1962 20.9927 29.8804C20.9928 34.9701 16.852 39.1109 11.7623 39.1109Z" fill="#00572E"/>
<path d="M14.4152 20.7942H9.10952C8.42546 20.7942 7.8707 20.2396 7.8707 19.5554C7.8707 18.8712 8.42546 18.3166 9.10952 18.3166H14.4152C15.0992 18.3166 15.654 18.8712 15.654 19.5554C15.654 20.2396 15.0992 20.7942 14.4152 20.7942Z" fill="#00572E"/>
</svg>
