<svg width="40" height="40" viewBox="0 0 40 40" fill="none" xmlns="http://www.w3.org/2000/svg">
<g clip-path="url(#clip0_1253_1681)">
<path d="M17.9408 9.71237L16.2101 14.323L18.5494 16.9844L19.172 17.5636C20.1682 18.4901 20.8139 19.732 21.0003 21.0796C21.1634 22.2585 20.9666 23.4592 20.4357 24.5242L20.1373 25.1228L21.261 27.1233L22.1803 30.953C22.3354 31.5992 21.6142 32.0977 21.0645 31.7243L16.0376 28.3091L10.0725 27.5907C9.8133 27.5595 10.2495 26.4074 10.6112 25.478C10.881 24.7844 10.9467 24.0286 10.8007 23.2989L10.2892 20.7418C10.3138 20.5678 10.4006 20.4085 10.5335 20.2934L14.2483 17.079L12.9127 14.1062C12.9127 14.1062 10.4397 13.4847 10.0611 13.537C9.86588 13.5641 8.82589 12.997 7.86714 12.4431C6.78598 11.8184 6.05301 10.7306 5.88192 9.49362L5.31903 8.1723C8.22683 4.56162 12.463 2.01023 17.4172 1.32492C17.5396 1.30796 17.6622 1.29218 17.784 1.27882L19.2801 3.36631C19.8618 4.17771 20.1227 5.17575 20.0129 6.16801L19.7779 8.2916C19.7199 8.81597 18.1937 9.24948 17.9408 9.71237Z" fill="#C2E0CF"/>
<path d="M39.8071 17.2598C38.9326 10.9382 35.1064 5.44215 29.5154 2.41162C29.4757 2.3867 29.4351 2.36365 29.3931 2.34412C29.2108 2.24694 29.0266 2.15233 28.8406 2.06037C25.2479 0.286399 21.2433 -0.360081 17.2593 0.191088C17.1133 0.211322 16.9679 0.233978 16.8228 0.257337C16.8103 0.259369 16.7975 0.261009 16.7849 0.26304C16.6535 0.28429 16.523 0.307806 16.3924 0.331556C16.3621 0.337024 16.3315 0.342181 16.3011 0.347806C16.1643 0.373352 16.0281 0.40093 15.8923 0.429211C15.8721 0.43343 15.852 0.437336 15.8319 0.441711C15.6854 0.472727 15.5396 0.505461 15.3942 0.539601C15.3893 0.540773 15.3844 0.541867 15.3795 0.543039C14.0118 0.865224 12.6925 1.32757 11.4304 1.92686C11.4042 1.93936 11.3779 1.95178 11.3518 1.96428C11.244 2.01616 11.1362 2.06873 11.0291 2.12256C10.9726 2.15092 10.9165 2.1799 10.8603 2.20873C10.7789 2.25061 10.6976 2.2924 10.6168 2.33545C10.5163 2.38881 10.4166 2.44357 10.317 2.49865C10.2776 2.52053 10.2377 2.54178 10.1983 2.56396C8.00366 3.79747 6.04414 5.4477 4.4279 7.4548C4.16283 7.78393 4.1008 8.23237 4.26642 8.62112L4.77306 9.81056C5.0322 11.3398 5.94446 12.6541 7.29492 13.4344C9.31037 14.5987 9.67912 14.6827 10.0465 14.6827C10.0744 14.6827 10.1022 14.6818 10.13 14.68C10.3936 14.7006 11.2599 14.8851 12.0978 15.0852L12.8553 16.7712L9.78443 19.4282C9.44225 19.7243 9.21905 20.1342 9.15592 20.5822C9.13787 20.71 9.14162 20.8399 9.16694 20.9664L9.67842 23.5235C9.78178 24.0402 9.73545 24.5726 9.54451 25.0632C8.87202 26.7918 8.65389 27.5051 9.03592 28.1426C9.23139 28.4688 9.55928 28.6819 9.9356 28.7272L15.6246 29.4123L20.4215 32.6712C20.7354 32.8844 21.0984 32.9971 21.4713 32.9971C22.0406 32.9971 22.5923 32.7282 22.9475 32.2779C23.3022 31.8281 23.428 31.2479 23.2933 30.686L22.3739 26.8562C22.3493 26.7537 22.3105 26.6549 22.2589 26.5629L21.4321 25.0909L21.4601 25.0345C22.0965 23.7577 22.3295 22.3357 22.134 20.9228C21.9123 19.319 21.1371 17.8284 19.9516 16.7255L19.3711 16.1857L17.5229 14.0828L18.9267 10.3431C19.0404 10.2706 19.2199 10.1725 19.3498 10.1017C20.0039 9.74447 20.818 9.29986 20.9156 8.41791L21.1507 6.29433C21.2918 5.01918 20.958 3.74271 20.2106 2.69998L19.9187 2.29264C22.3846 2.27795 24.817 2.77685 27.0846 3.76958C26.9629 3.92513 26.8386 4.08888 26.717 4.25692C26.1966 4.97543 24.9782 6.658 26.0346 7.77651C26.1496 7.89831 26.2701 8.01471 26.3866 8.12729C26.5037 8.24034 26.6742 8.40502 26.7886 8.53737C25.8679 9.35158 24.9374 10.7774 25.2664 12.2019C25.448 12.9879 26.0778 14.0325 28.0469 14.5448C29.1817 14.8401 30.3941 15.0083 31.1197 14.2387C32.8381 14.9783 33.7014 15.4158 33.7097 15.42C33.8762 15.5048 34.0536 15.545 34.2285 15.545C34.6452 15.545 35.0469 15.3166 35.249 14.92C35.5361 14.3569 35.3123 13.6677 34.7491 13.3807C34.7103 13.361 33.778 12.8876 31.8954 12.0807C31.3548 11.8489 30.7761 11.6659 30.2062 11.8945C29.8424 12.0405 29.6336 12.2963 29.513 12.5016C29.3469 12.4876 29.0672 12.4452 28.6235 12.3298C27.8553 12.1298 27.5364 11.8584 27.4967 11.6867C27.4204 11.3566 27.8128 10.6735 28.3363 10.2249C29.0054 9.65135 29.1603 9.04674 29.1724 8.64057C29.201 7.67753 28.5137 6.99949 27.9992 6.50238C28.1885 6.11785 28.6355 5.4784 29.1557 4.84278C33.7089 7.59675 36.8044 12.2553 37.5401 17.5737C37.7254 18.9133 37.758 20.2482 37.6418 21.5685C36.9258 20.8865 36.144 20.1371 35.9284 19.9222C35.1021 19.099 33.5988 18.9514 32.9198 18.9878C31.2157 19.0801 28.2021 19.4978 27.1659 21.2568C25.8896 23.4201 26.154 25.7712 27.8731 27.5456C27.9299 27.6044 27.9824 27.6598 28.0306 27.7119C27.3435 27.8671 26.5168 28.2842 26.1249 29.4846C25.9286 30.0854 26.2568 30.7316 26.8576 30.9278C26.9755 30.9664 27.0952 30.9847 27.213 30.9847C27.6948 30.9847 28.1432 30.6779 28.3007 30.1951C28.3789 29.956 28.3871 29.9309 28.96 29.8987C30.1125 29.8351 30.563 29.2893 30.7377 28.8427C31.138 27.8208 30.3456 26.8089 29.5175 25.9533C28.2515 24.6464 28.612 23.3105 29.1378 22.4194C29.4203 21.9399 30.8527 21.3922 33.0437 21.2735C33.5036 21.2482 34.1606 21.4085 34.3131 21.5438C34.5233 21.7533 36.4084 23.5633 37.1846 24.2865C37.1236 24.5302 37.0588 24.7731 36.9872 25.0151C35.0162 31.6729 29.301 36.5894 22.4265 37.5405C17.7411 38.1888 13.0843 36.9735 9.31295 34.1189C5.54165 31.2642 3.10799 27.1117 2.45987 22.4266C2.16987 20.3307 2.25206 18.2303 2.70401 16.1838C2.84033 15.5666 2.45049 14.9558 1.83331 14.8194C1.21589 14.683 0.605269 15.073 0.468942 15.6901C-0.0417585 18.0027 -0.134805 20.3746 0.192459 22.7403C0.92433 28.0312 3.67283 32.7203 7.93155 35.9439C11.4419 38.601 15.6311 40.0003 19.9584 40.0002C20.8809 40.0002 21.8105 39.9364 22.7401 39.8079C30.5027 38.734 36.9567 33.1825 39.182 25.6647C39.9901 22.9316 40.2006 20.1039 39.8071 17.2598ZM18.8756 6.04223L18.6752 7.85198C18.5484 7.93096 18.3732 8.02659 18.2527 8.09245C17.717 8.38495 17.211 8.66135 16.9365 9.1633C16.9106 9.21057 16.8883 9.25955 16.8693 9.30994L15.1386 13.9205C14.9902 14.3159 15.0717 14.761 15.3505 15.0783L17.6897 17.7397C17.715 17.7686 17.7418 17.7961 17.7699 17.8222L18.3924 18.4012C19.1932 19.1461 19.7168 20.1529 19.8666 21.236C19.9987 22.1904 19.8412 23.1507 19.4115 24.0132L19.1131 24.6119C18.944 24.9513 18.9538 25.3523 19.1395 25.6829L20.1852 27.5448L20.8159 30.1715L16.6807 27.3623C16.5295 27.2595 16.356 27.1944 16.1744 27.1726L11.4096 26.5988C11.514 26.3132 11.6215 26.0373 11.6776 25.8929C12.0272 24.9945 12.1119 24.0199 11.9229 23.0743L11.5017 20.9689L14.9971 17.9446C15.3795 17.6138 15.4995 17.0714 15.2923 16.6101L13.9567 13.6373C13.8132 13.3178 13.5314 13.0817 13.1917 12.9963C12.3266 12.7789 10.82 12.4201 10.1918 12.3913C10.0266 12.3213 9.56623 12.1031 8.43968 11.4522C7.65812 11.0008 7.13906 10.2298 7.01562 9.33689C7.00164 9.2365 6.97453 9.13846 6.93484 9.04518L6.6468 8.36901C7.79343 7.05081 9.11475 5.92316 10.5663 5.00918C10.6683 4.94489 10.7709 4.88184 10.874 4.81981C10.9131 4.79622 10.9523 4.77278 10.9917 4.74958C11.0716 4.70231 11.1519 4.65606 11.2324 4.61005C11.287 4.57895 11.3415 4.54755 11.3964 4.517C11.4478 4.48841 11.4996 4.46083 11.5512 4.43263C13.0759 3.60552 14.724 3.00287 16.4517 2.65092C16.4678 2.64771 16.4837 2.64428 16.4995 2.64107C16.6007 2.62084 16.7024 2.6017 16.8041 2.58303C16.8489 2.57482 16.8938 2.56678 16.9388 2.55896C17.0279 2.54342 17.1172 2.52826 17.2067 2.51396C17.2229 2.51131 17.2393 2.50904 17.2556 2.50654L18.3498 4.03325C18.7679 4.61606 18.9545 5.32957 18.8756 6.04223Z" fill="#00572E"/>
</g>
<defs>
<clipPath id="clip0_1253_1681">
<rect width="40" height="40" fill="white"/>
</clipPath>
</defs>
</svg>
