<svg width="32" height="32" viewBox="0 0 32 32" fill="none" xmlns="http://www.w3.org/2000/svg">
<path d="M0.6875 5.37787C0.307813 5.37787 0 5.07006 0 4.69037V0.6875C0 0.307813 0.307813 0 0.6875 0H4.69012C5.06981 0 5.37762 0.307813 5.37762 0.6875C5.37762 1.06719 5.06981 1.375 4.69012 1.375H1.375V4.69037C1.375 5.07012 1.06719 5.37787 0.6875 5.37787Z" fill="#EB5353"/>
<path d="M31.3122 5.37787C30.9325 5.37787 30.6247 5.07006 30.6247 4.69037V1.375H27.3096C26.9299 1.375 26.6221 1.06719 26.6221 0.6875C26.6221 0.307813 26.9299 0 27.3096 0H31.3122C31.6919 0 31.9997 0.307813 31.9997 0.6875V4.69037C31.9997 5.07012 31.6919 5.37787 31.3122 5.37787Z" fill="#EB5353"/>
<path d="M4.69012 31.9999H0.6875C0.307813 31.9999 0 31.6921 0 31.3124V27.3096C0 26.9299 0.307813 26.6221 0.6875 26.6221C1.06719 26.6221 1.375 26.9299 1.375 27.3096V30.6249H4.69012C5.06981 30.6249 5.37762 30.9328 5.37762 31.3124C5.37762 31.6921 5.06981 31.9999 4.69012 31.9999Z" fill="#EB5353"/>
<path d="M31.3122 31.9999H27.3096C26.9299 31.9999 26.6221 31.6921 26.6221 31.3124C26.6221 30.9328 26.9299 30.6249 27.3096 30.6249H30.6247V27.3096C30.6247 26.9299 30.9325 26.6221 31.3122 26.6221C31.6919 26.6221 31.9997 26.9299 31.9997 27.3096V31.3124C31.9997 31.6921 31.6919 31.9999 31.3122 31.9999Z" fill="#EB5353"/>
<path d="M22.1643 21.2098C22.6996 20.6279 23.1551 20.0052 23.5212 19.3548C24.7206 18.9345 25.6747 17.5887 25.8956 15.9477C26.1033 14.405 25.627 12.9495 24.6951 12.1762V11.8377C24.6952 9.52153 23.7893 7.34009 22.1444 5.69522C20.4995 4.05034 18.318 3.14453 16.0018 3.14453C11.2084 3.14453 7.30865 7.04428 7.30865 11.8377V12.1733C6.37446 12.9459 5.89671 14.4025 6.10484 15.9478C6.31103 17.4789 7.12734 18.737 8.22115 19.2499C8.78034 20.4152 9.59103 21.4602 10.6341 22.3595C10.7109 22.4255 10.7885 22.4908 10.8667 22.5553V24.5452C10.8667 26.1631 9.55046 27.4793 7.93259 27.4793C7.5529 27.4793 7.24509 27.7872 7.24509 28.1668C7.24509 28.5465 7.5529 28.8543 7.93259 28.8543C10.3087 28.8543 12.2417 26.9213 12.2417 24.5452V23.5622C13.5883 24.4292 14.9326 24.9595 15.8845 24.9595C16.88 24.9595 18.3368 24.3109 19.762 23.3084V24.5452C19.762 26.9213 21.695 28.8543 24.071 28.8543C24.4507 28.8543 24.7585 28.5465 24.7585 28.1668C24.7585 27.7872 24.4507 27.4793 24.071 27.4793C22.4532 27.4793 21.137 26.1632 21.137 24.5452V22.2173C21.4961 21.8977 21.8418 21.5603 22.1643 21.2098ZM21.1722 6.66753C21.9253 7.42072 22.4941 8.30747 22.8567 9.27303C21.0404 9.40103 18.8202 9.05047 17.322 7.95922C17.9577 7.10509 18.4535 6.13028 18.77 5.06266C19.6567 5.42666 20.4721 5.96747 21.1722 6.66753ZM16.0019 4.51953C16.495 4.51953 16.9807 4.56853 17.4538 4.66391C16.3592 8.36666 12.7311 10.7571 8.8544 10.265C9.57596 6.98309 12.5065 4.51953 16.0019 4.51953ZM11.532 21.3181C10.5685 20.4873 9.83784 19.5181 9.36053 18.4371C9.32178 18.3494 9.2651 18.2707 9.19413 18.2062C9.12317 18.1416 9.03948 18.0927 8.94846 18.0624C8.22646 17.8224 7.61746 16.8773 7.46759 15.7643C7.29315 14.4687 7.77634 13.454 8.3439 13.1212C8.44734 13.0606 8.53312 12.9739 8.59273 12.8699C8.65234 12.7659 8.68371 12.6481 8.68371 12.5282V11.8378C8.68371 11.7683 8.6849 11.699 8.68684 11.6299C9.07817 11.6796 9.47224 11.7047 9.86671 11.7048C12.372 11.7048 14.7127 10.6957 16.419 9.00066C17.9868 10.1866 20.157 10.6751 22.1235 10.6751C22.4981 10.6751 22.8652 10.6573 23.2193 10.6233C23.2865 11.0246 23.3202 11.4308 23.3202 11.8377V12.5301C23.3202 12.7735 23.449 12.9989 23.6587 13.1225C24.225 13.4561 24.7071 14.4707 24.533 15.7643C24.3743 16.9425 23.6812 17.9455 22.9206 18.0973C22.8197 18.1175 22.7245 18.1601 22.6423 18.2219C22.56 18.2837 22.4926 18.3633 22.4452 18.4546C22.1132 19.0936 21.6782 19.7074 21.1525 20.2789C20.7976 20.664 20.4206 21.0279 20.0232 21.3689C20.0132 21.3768 20.0036 21.3852 19.994 21.3936C18.3307 22.8141 16.6205 23.5845 15.8847 23.5845C15.049 23.5845 13.2395 22.7902 11.532 21.3181Z" fill="#2E3A5B"/>
<path d="M30.3272 16.6875H1.67187C1.29219 16.6875 0.984375 16.3797 0.984375 16C0.984375 15.6203 1.29219 15.3125 1.67187 15.3125H30.3272C30.7069 15.3125 31.0147 15.6203 31.0147 16C31.0147 16.3797 30.7069 16.6875 30.3272 16.6875Z" fill="#EB5353"/>
</svg>
