<svg width="24" height="24" viewBox="0 0 24 24" fill="none" xmlns="http://www.w3.org/2000/svg">
<path d="M0.515625 4.03341C0.230859 4.03341 0 3.80255 0 3.51778V0.515625C0 0.230859 0.230859 0 0.515625 0H3.51759C3.80236 0 4.03322 0.230859 4.03322 0.515625C4.03322 0.800391 3.80236 1.03125 3.51759 1.03125H1.03125V3.51778C1.03125 3.80259 0.800391 4.03341 0.515625 4.03341V4.03341Z" fill="#217B56"/>
<path d="M23.4844 4.03341C23.1996 4.03341 22.9688 3.80255 22.9688 3.51778V1.03125H20.4824C20.1977 1.03125 19.9668 0.800391 19.9668 0.515625C19.9668 0.230859 20.1977 0 20.4824 0H23.4844C23.7692 0 24 0.230859 24 0.515625V3.51778C24 3.80259 23.7692 4.03341 23.4844 4.03341Z" fill="#217B56"/>
<path d="M3.51759 24H0.515625C0.230859 24 0 23.7691 0 23.4844V20.4822C0 20.1975 0.230859 19.9666 0.515625 19.9666C0.800391 19.9666 1.03125 20.1975 1.03125 20.4822V22.9688H3.51759C3.80236 22.9688 4.03322 23.1996 4.03322 23.4844C4.03322 23.7691 3.80236 24 3.51759 24Z" fill="#217B56"/>
<path d="M23.4844 24H20.4824C20.1977 24 19.9668 23.7691 19.9668 23.4844C19.9668 23.1996 20.1977 22.9688 20.4824 22.9688H22.9688V20.4822C22.9688 20.1975 23.1996 19.9666 23.4844 19.9666C23.7692 19.9666 24 20.1975 24 20.4822V23.4844C24 23.7691 23.7692 24 23.4844 24Z" fill="#217B56"/>
<path d="M16.6231 15.9078C17.0245 15.4713 17.3662 15.0043 17.6407 14.5165C18.5403 14.2012 19.2558 13.1919 19.4215 11.9612C19.5773 10.8042 19.2201 9.7125 18.5212 9.13251V8.87869C18.5212 7.14155 17.8418 5.50547 16.6082 4.27181C15.3745 3.03815 13.7384 2.3588 12.0012 2.3588C8.40615 2.3588 5.48134 5.28361 5.48134 8.87869V9.13041C4.7807 9.70983 4.42238 10.8023 4.57848 11.9612C4.73312 13.1096 5.34535 14.0531 6.16571 14.4378C6.5851 15.3118 7.19312 16.0956 7.97541 16.77C8.03306 16.8196 8.09122 16.8685 8.14988 16.9169V18.4093C8.14988 19.6227 7.1627 20.6099 5.94929 20.6099C5.66452 20.6099 5.43366 20.8408 5.43366 21.1255C5.43366 21.4103 5.66452 21.6412 5.94929 21.6412C7.73138 21.6412 9.18113 20.1914 9.18113 18.4093V17.6721C10.1911 18.3223 11.1993 18.72 11.9132 18.72C12.6599 18.72 13.7524 18.2336 14.8213 17.4817V18.4093C14.8213 20.1914 16.2711 21.6412 18.0531 21.6412C18.3379 21.6412 18.5687 21.4103 18.5687 21.1255C18.5687 20.8408 18.3379 20.6099 18.0531 20.6099C16.8397 20.6099 15.8526 19.6228 15.8526 18.4093V16.6634C16.1219 16.4237 16.3812 16.1707 16.6231 15.9078V15.9078ZM15.879 5.00105C16.4439 5.56594 16.8704 6.231 17.1423 6.95517C15.7801 7.05117 14.115 6.78825 12.9913 5.96981C13.4681 5.32922 13.8399 4.59811 14.0773 3.79739C14.7424 4.07039 15.3539 4.476 15.879 5.00105V5.00105ZM12.0013 3.39005C12.3711 3.39005 12.7354 3.4268 13.0902 3.49833C12.2692 6.27539 9.54816 8.06822 6.64065 7.69912C7.18182 5.23772 9.3797 3.39005 12.0013 3.39005V3.39005ZM8.64887 15.989C7.9262 15.3659 7.37823 14.639 7.02024 13.8282C6.99118 13.7624 6.94867 13.7034 6.89545 13.655C6.84222 13.6066 6.77946 13.5699 6.7112 13.5472C6.1697 13.3672 5.71295 12.6584 5.60054 11.8236C5.46971 10.8519 5.8321 10.0909 6.25777 9.84131C6.33535 9.79583 6.39969 9.73086 6.4444 9.65283C6.4891 9.5748 6.51263 9.48644 6.51263 9.39651V8.87873C6.51263 8.82661 6.51352 8.77467 6.51498 8.72283C6.80847 8.76012 7.10403 8.77889 7.39988 8.77903C9.27882 8.77903 11.0343 8.02214 12.3141 6.75089C13.4899 7.64034 15.1176 8.00672 16.5925 8.00672C16.8734 8.00672 17.1487 7.99336 17.4144 7.96786C17.4647 8.26886 17.49 8.57351 17.49 8.87869V9.39797C17.49 9.58055 17.5866 9.74958 17.7438 9.84225C18.1686 10.0925 18.5302 10.8534 18.3996 11.8236C18.2806 12.7072 17.7607 13.4595 17.1903 13.5734C17.1146 13.5885 17.0433 13.6205 16.9815 13.6668C16.9198 13.7132 16.8693 13.7728 16.8337 13.8413C16.5847 14.3206 16.2585 14.781 15.8642 15.2096C15.5981 15.4984 15.3153 15.7714 15.0172 16.0271C15.0097 16.033 15.0025 16.0393 14.9954 16.0456C13.7479 17.111 12.4652 17.6888 11.9133 17.6888C11.2866 17.6888 9.92949 17.093 8.64887 15.989V15.989Z" fill="#217B56"/>
<path d="M22.7458 12.5156H1.25424C0.969476 12.5156 0.738617 12.2848 0.738617 12C0.738617 11.7152 0.969476 11.4844 1.25424 11.4844H22.7458C23.0305 11.4844 23.2614 11.7152 23.2614 12C23.2614 12.2848 23.0305 12.5156 22.7458 12.5156Z" fill="#217B56"/>
</svg>
