<svg width="30" height="30" viewBox="0 0 30 30" fill="none" xmlns="http://www.w3.org/2000/svg">
<path fill-rule="evenodd" clip-rule="evenodd" d="M3.10547 1.40625C3.10547 1.05029 3.39404 0.761719 3.75 0.761719H26.25C26.606 0.761719 26.8945 1.05029 26.8945 1.40625V28.5938C26.8945 28.9497 26.606 29.2383 26.25 29.2383H3.75C3.39404 29.2383 3.10547 28.9497 3.10547 28.5938V1.40625ZM4.39453 2.05078V27.9492H25.6055V2.05078H4.39453Z" fill="#217B56"/>
<path fill-rule="evenodd" clip-rule="evenodd" d="M15 5.91797C15.356 5.91797 15.6445 6.20654 15.6445 6.5625V23.4375C15.6445 23.7935 15.356 24.082 15 24.082C14.644 24.082 14.3555 23.7935 14.3555 23.4375V6.5625C14.3555 6.20654 14.644 5.91797 15 5.91797Z" fill="#EB2227"/>
<path fill-rule="evenodd" clip-rule="evenodd" d="M14.4008 8.28292C16.3412 8.15666 18.5557 8.62369 19.6717 9.20272C19.9876 9.36666 20.1109 9.7557 19.9469 10.0717C19.783 10.3876 19.394 10.5109 19.078 10.3469C18.2064 9.89471 16.2341 9.45541 14.4845 9.56926C13.6139 9.62592 12.8797 9.81545 12.3819 10.1399C11.9209 10.4404 11.6456 10.8619 11.6456 11.5167C11.6456 12.3278 12.0018 12.8496 12.6105 13.2711C13.2621 13.7225 14.1595 14.0257 15.1703 14.3439C15.2387 14.3655 15.3078 14.3871 15.3773 14.4089C16.285 14.6933 17.2758 15.0037 18.0452 15.472C18.9152 16.0015 19.597 16.7924 19.597 18.0253C19.597 19.129 19.209 19.9971 18.5183 20.6139C17.8486 21.2118 16.9522 21.5223 16.0113 21.6555C14.1351 21.9212 11.8403 21.5162 9.99754 20.8877C9.66063 20.7727 9.48068 20.4065 9.5956 20.0696C9.71052 19.7326 10.0768 19.5527 10.4137 19.6676C12.1494 20.2597 14.228 20.6061 15.8306 20.3792C16.6291 20.2662 17.2485 20.0195 17.6597 19.6523C18.0499 19.3039 18.308 18.7992 18.308 18.0253C18.308 17.3806 17.9959 16.9511 17.375 16.5732C16.7461 16.1904 15.9006 15.9247 14.9387 15.6224C14.8872 15.6062 14.8354 15.5899 14.7833 15.5735C13.8062 15.2659 12.7158 14.9121 11.8765 14.3309C10.9943 13.7198 10.3566 12.8335 10.3566 11.5167C10.3566 10.3943 10.8795 9.58047 11.678 9.05998C12.4398 8.56347 13.4264 8.34632 14.4008 8.28292Z" fill="#EB2227"/>
</svg>
