<svg width="30" height="30" viewBox="0 0 30 30" fill="none" xmlns="http://www.w3.org/2000/svg">
<path fill-rule="evenodd" clip-rule="evenodd" d="M3.10547 16.875C3.10547 16.519 3.39404 16.2305 3.75 16.2305H12.1875C12.5435 16.2305 12.832 16.519 12.832 16.875C12.832 17.231 12.5435 17.5195 12.1875 17.5195H3.75C3.39404 17.5195 3.10547 17.231 3.10547 16.875Z" fill="#EB2227"/>
<path fill-rule="evenodd" clip-rule="evenodd" d="M3.10547 7.5C3.10547 7.14404 3.39404 6.85547 3.75 6.85547H12.1875C12.5435 6.85547 12.832 7.14404 12.832 7.5C12.832 7.85596 12.5435 8.14453 12.1875 8.14453H3.75C3.39404 8.14453 3.10547 7.85596 3.10547 7.5Z" fill="#EB2227"/>
<path fill-rule="evenodd" clip-rule="evenodd" d="M3.75 0.292969C4.10596 0.292969 4.39453 0.581535 4.39453 0.9375V25.6055H12.1875C12.5435 25.6055 12.832 25.894 12.832 26.25C12.832 26.606 12.5435 26.8945 12.1875 26.8945H3.75C3.39404 26.8945 3.10547 26.606 3.10547 26.25V0.9375C3.10547 0.581535 3.39404 0.292969 3.75 0.292969Z" fill="#EB2227"/>
<path fill-rule="evenodd" clip-rule="evenodd" d="M11.543 5.15625C11.543 4.80029 11.8315 4.51172 12.1875 4.51172H26.25C26.606 4.51172 26.8945 4.80029 26.8945 5.15625V9.84375C26.8945 10.1997 26.606 10.4883 26.25 10.4883H12.1875C11.8315 10.4883 11.543 10.1997 11.543 9.84375V5.15625ZM12.832 5.80078V9.19922H25.6055V5.80078H12.832Z" fill="#217B56"/>
<path fill-rule="evenodd" clip-rule="evenodd" d="M11.543 23.9062C11.543 23.5503 11.8315 23.2617 12.1875 23.2617H26.25C26.606 23.2617 26.8945 23.5503 26.8945 23.9062V28.5938C26.8945 28.9497 26.606 29.2383 26.25 29.2383H12.1875C11.8315 29.2383 11.543 28.9497 11.543 28.5938V23.9062ZM12.832 24.5508V27.9492H25.6055V24.5508H12.832Z" fill="#217B56"/>
<path fill-rule="evenodd" clip-rule="evenodd" d="M11.543 14.5312C11.543 14.1753 11.8315 13.8867 12.1875 13.8867H26.25C26.606 13.8867 26.8945 14.1753 26.8945 14.5312V19.2188C26.8945 19.5747 26.606 19.8633 26.25 19.8633H12.1875C11.8315 19.8633 11.543 19.5747 11.543 19.2188V14.5312ZM12.832 15.1758V18.5742H25.6055V15.1758H12.832Z" fill="#217B56"/>
</svg>
