<svg width="16" height="16" viewBox="0 0 16 16" fill="none" xmlns="http://www.w3.org/2000/svg">
<path fill-rule="evenodd" clip-rule="evenodd" d="M8.15625 3C8.15625 2.81015 8.31015 2.65625 8.5 2.65625H15.25C15.4398 2.65625 15.5938 2.81015 15.5938 3C15.5938 3.18985 15.4398 3.34375 15.25 3.34375H8.5C8.31015 3.34375 8.15625 3.18985 8.15625 3Z" fill="#596481"/>
<path fill-rule="evenodd" clip-rule="evenodd" d="M0.40625 3C0.40625 2.81015 0.560152 2.65625 0.75 2.65625H3C3.18985 2.65625 3.34375 2.81015 3.34375 3C3.34375 3.18985 3.18985 3.34375 3 3.34375H0.75C0.560152 3.34375 0.40625 3.18985 0.40625 3Z" fill="#596481"/>
<path fill-rule="evenodd" clip-rule="evenodd" d="M5 1.34375C4.08528 1.34375 3.34375 2.08528 3.34375 3C3.34375 3.91472 4.08528 4.65625 5 4.65625C5.91472 4.65625 6.65625 3.91472 6.65625 3C6.65625 2.08528 5.91472 1.34375 5 1.34375ZM2.65625 3C2.65625 1.70558 3.70558 0.65625 5 0.65625C6.29442 0.65625 7.34375 1.70558 7.34375 3C7.34375 4.29442 6.29442 5.34375 5 5.34375C3.70558 5.34375 2.65625 4.29442 2.65625 3Z" fill="#596481"/>
<path fill-rule="evenodd" clip-rule="evenodd" d="M8.15625 13C8.15625 12.8102 8.31015 12.6562 8.5 12.6562H15.25C15.4398 12.6562 15.5938 12.8102 15.5938 13C15.5938 13.1898 15.4398 13.3438 15.25 13.3438H8.5C8.31015 13.3438 8.15625 13.1898 8.15625 13Z" fill="#596481"/>
<path fill-rule="evenodd" clip-rule="evenodd" d="M0.40625 13C0.40625 12.8102 0.560152 12.6562 0.75 12.6562H3C3.18985 12.6562 3.34375 12.8102 3.34375 13C3.34375 13.1898 3.18985 13.3438 3 13.3438H0.75C0.560152 13.3438 0.40625 13.1898 0.40625 13Z" fill="#596481"/>
<path fill-rule="evenodd" clip-rule="evenodd" d="M5 11.3438C4.08528 11.3438 3.34375 12.0853 3.34375 13C3.34375 13.9147 4.08528 14.6562 5 14.6562C5.91472 14.6562 6.65625 13.9147 6.65625 13C6.65625 12.0853 5.91472 11.3438 5 11.3438ZM2.65625 13C2.65625 11.7056 3.70558 10.6562 5 10.6562C6.29442 10.6562 7.34375 11.7056 7.34375 13C7.34375 14.2944 6.29442 15.3438 5 15.3438C3.70558 15.3438 2.65625 14.2944 2.65625 13Z" fill="#596481"/>
<path fill-rule="evenodd" clip-rule="evenodd" d="M0.40625 8C0.40625 7.81015 0.560152 7.65625 0.75 7.65625H7.5C7.68985 7.65625 7.84375 7.81015 7.84375 8C7.84375 8.18985 7.68985 8.34375 7.5 8.34375H0.75C0.560152 8.34375 0.40625 8.18985 0.40625 8Z" fill="#596481"/>
<path fill-rule="evenodd" clip-rule="evenodd" d="M12.6562 8C12.6562 7.81015 12.8102 7.65625 13 7.65625H15.25C15.4398 7.65625 15.5938 7.81015 15.5938 8C15.5938 8.18985 15.4398 8.34375 15.25 8.34375H13C12.8102 8.34375 12.6562 8.18985 12.6562 8Z" fill="#596481"/>
<path fill-rule="evenodd" clip-rule="evenodd" d="M11 6.34375C10.0853 6.34375 9.34375 7.08528 9.34375 8C9.34375 8.91472 10.0853 9.65625 11 9.65625C11.9147 9.65625 12.6562 8.91472 12.6562 8C12.6562 7.08528 11.9147 6.34375 11 6.34375ZM8.65625 8C8.65625 6.70558 9.70558 5.65625 11 5.65625C12.2944 5.65625 13.3438 6.70558 13.3438 8C13.3438 9.29442 12.2944 10.3438 11 10.3438C9.70558 10.3438 8.65625 9.29442 8.65625 8Z" fill="#596481"/>
</svg>
