<svg width="64" height="64" viewBox="0 0 64 64" fill="none" xmlns="http://www.w3.org/2000/svg">
<g clip-path="url(#clip0_2443_13386)">
<path d="M57.0304 53.8243H7.30518C5.89556 53.8243 4.75281 52.6815 4.75281 51.2719V9.58201C4.75281 8.17238 5.89556 7.02963 7.30518 7.02963H57.0304C58.4401 7.02963 59.5828 8.17238 59.5828 9.58201V51.2718C59.5829 52.6815 58.4402 53.8243 57.0304 53.8243Z" fill="#FEB137"/>
<path d="M57.0307 7.02948H52.0701C53.4797 7.02948 54.6224 8.17223 54.6224 9.58186V51.2716C54.6224 52.6812 53.4797 53.824 52.0701 53.824H57.0307C58.4403 53.824 59.5831 52.6812 59.5831 51.2716V9.58198C59.5832 8.17223 58.4404 7.02948 57.0307 7.02948Z" fill="#F6AB31"/>
<path d="M61.4475 13.789H29.9974L23.7313 4.53748C23.2564 3.83635 22.4647 3.41635 21.6179 3.41635H2.5525C1.14275 3.41635 0 4.5591 0 5.96873V58.0312C0 59.4409 1.14275 60.5836 2.5525 60.5836H61.4475C62.8571 60.5836 64 59.4409 64 58.0312V16.3414C64 14.9317 62.8572 13.789 61.4475 13.789Z" fill="#FFD15B"/>
<path d="M61.4478 13.789H56.4872C57.8968 13.789 59.0396 14.9318 59.0396 16.3414V58.0313C59.0396 59.4409 57.8968 60.5836 56.4872 60.5836H61.4478C62.8574 60.5836 64.0002 59.4409 64.0002 58.0313V16.3414C64.0002 14.9318 62.8574 13.789 61.4478 13.789Z" fill="#FFC344"/>
<circle cx="32" cy="37.3333" r="14.6667" fill="white"/>
<g clip-path="url(#clip1_2443_13386)">
<path d="M36.0599 40.9324C34.9423 40.5695 34.3975 39.6298 34.1317 38.8163C33.4879 39.1352 32.7658 39.3194 32 39.3194C31.234 39.3194 30.5119 39.1352 29.8681 38.816C29.6019 39.6298 29.0572 40.5698 27.9401 40.9324C25.6595 41.6729 23.7719 42.5536 23.7719 45.8452C23.7719 46.0018 23.899 46.1289 24.0556 46.1289H39.9445C40.1011 46.1289 40.2282 46.0018 40.2282 45.8452C40.2282 42.5536 38.3405 41.6729 36.0599 40.9324Z" fill="#FFD15B"/>
<path d="M31.9998 28.5377C29.6531 28.5377 27.7439 30.4469 27.7439 32.7936V34.496C27.7439 36.8427 29.6531 38.7519 31.9998 38.7519C34.3466 38.7519 36.2558 36.8427 36.2558 34.496V32.7936C36.2558 30.4469 34.3466 28.5377 31.9998 28.5377Z" fill="#FFD15B"/>
</g>
</g>
<defs>
<clipPath id="clip0_2443_13386">
<rect width="64" height="64" fill="white"/>
</clipPath>
<clipPath id="clip1_2443_13386">
<rect width="18.1587" height="18.1587" fill="white" transform="translate(22.9207 28.254)"/>
</clipPath>
</defs>
</svg>
