<svg width="32" height="32" viewBox="0 0 32 32" fill="none" xmlns="http://www.w3.org/2000/svg">
<path fill-rule="evenodd" clip-rule="evenodd" d="M0.8125 3C0.8125 2.6203 1.1203 2.3125 1.5 2.3125H12C12.2415 2.3125 12.4653 2.43921 12.5895 2.64628L15.3893 7.3125H30.5C30.8797 7.3125 31.1875 7.6203 31.1875 8V26.5C31.1875 27.3454 30.8517 28.1561 30.2539 28.7539C29.6561 29.3517 28.8454 29.6875 28 29.6875H4C3.15462 29.6875 2.34387 29.3517 1.7461 28.7539C1.14832 28.1561 0.8125 27.3454 0.8125 26.5V3ZM28 28.3125C28.4807 28.3125 28.9417 28.1215 29.2816 27.7816C29.6215 27.4417 29.8125 26.9807 29.8125 26.5V8.6875H15C14.7585 8.6875 14.5347 8.56079 14.4105 8.35372L11.6107 3.6875H2.1875V26.5C2.1875 26.9807 2.37846 27.4417 2.71837 27.7816C3.05828 28.1215 3.5193 28.3125 4 28.3125H28Z" fill="#36AE7C"/>
<path fill-rule="evenodd" clip-rule="evenodd" d="M18.0639 20.5639C18.3324 20.2954 18.7677 20.2954 19.0362 20.5639L22.9862 24.5139C23.2547 24.7824 23.2547 25.2177 22.9862 25.4862C22.7177 25.7547 22.2824 25.7547 22.0139 25.4862L18.0639 21.5362C17.7954 21.2677 17.7954 20.8324 18.0639 20.5639Z" fill="#EB5353"/>
<path fill-rule="evenodd" clip-rule="evenodd" d="M15 13.1875C12.6183 13.1875 10.6875 15.1183 10.6875 17.5C10.6875 19.8817 12.6183 21.8125 15 21.8125C17.3817 21.8125 19.3125 19.8817 19.3125 17.5C19.3125 15.1183 17.3817 13.1875 15 13.1875ZM9.3125 17.5C9.3125 14.3589 11.8589 11.8125 15 11.8125C18.1411 11.8125 20.6875 14.3589 20.6875 17.5C20.6875 20.6411 18.1411 23.1875 15 23.1875C11.8589 23.1875 9.3125 20.6411 9.3125 17.5Z" fill="#EB5353"/>
</svg>
