<svg width="16" height="16" viewBox="0 0 16 16" fill="none" xmlns="http://www.w3.org/2000/svg">
<g clip-path="url(#clip0_262_2147)">
<path d="M3.78125 13.1875H12.2188V14.125H3.78125V13.1875Z" fill="#566573"/>
<path d="M3.78125 15.0625H12.2188V16H3.78125V15.0625Z" fill="#566573"/>
<path d="M3.78125 9.4375H12.2188V10.375H3.78125V9.4375Z" fill="#566573"/>
<path d="M8.24856 0.0711699C8.09659 -0.0240488 7.90341 -0.0240488 7.75144 0.0711699L0.220188 4.78992C0.0833125 4.87551 0 5.02567 0 5.18726V6.12476C0 6.38386 0.209656 6.59351 0.46875 6.59351H0.9375V15.0623H0.46875C0.209656 15.0623 0 15.2719 0 15.531C0 15.7901 0.209656 15.9998 0.46875 15.9998H2.84375V8.96851C2.84375 8.70942 3.05341 8.49976 3.3125 8.49976H12.6875C12.9466 8.49976 13.1562 8.70942 13.1562 8.96851V15.9998H15.5312C15.7903 15.9998 16 15.7901 16 15.531C16 15.2719 15.7903 15.0623 15.5312 15.0623H15.0625V6.59351H15.5312C15.7903 6.59351 16 6.38386 16 6.12476V5.18726C16 5.02567 15.9167 4.87551 15.7798 4.78992L8.24856 0.0711699ZM4.25 6.59351H3.3125C3.05341 6.59351 2.84375 6.38386 2.84375 6.12476C2.84375 5.86567 3.05341 5.65601 3.3125 5.65601H4.25C4.50909 5.65601 4.71875 5.86567 4.71875 6.12476C4.71875 6.38386 4.50909 6.59351 4.25 6.59351ZM7.0625 6.59351H6.125C5.86591 6.59351 5.65625 6.38386 5.65625 6.12476C5.65625 5.86567 5.86591 5.65601 6.125 5.65601H7.0625C7.32159 5.65601 7.53125 5.86567 7.53125 6.12476C7.53125 6.38386 7.32159 6.59351 7.0625 6.59351ZM9.875 6.59351H8.9375C8.67841 6.59351 8.46875 6.38386 8.46875 6.12476C8.46875 5.86567 8.67841 5.65601 8.9375 5.65601H9.875C10.1341 5.65601 10.3438 5.86567 10.3438 6.12476C10.3438 6.38386 10.1341 6.59351 9.875 6.59351ZM12.6875 6.59351H11.75C11.4909 6.59351 11.2812 6.38386 11.2812 6.12476C11.2812 5.86567 11.4909 5.65601 11.75 5.65601H12.6875C12.9466 5.65601 13.1562 5.86567 13.1562 6.12476C13.1562 6.38386 12.9466 6.59351 12.6875 6.59351Z" fill="#566573"/>
<path d="M3.78125 11.3125H12.2188V12.25H3.78125V11.3125Z" fill="#566573"/>
</g>
<defs>
<clipPath id="clip0_262_2147">
<rect width="16" height="16" fill="white"/>
</clipPath>
</defs>
</svg>
