<svg width="16" height="16" viewBox="0 0 16 16" fill="none" xmlns="http://www.w3.org/2000/svg">
<g clip-path="url(#clip0_3542_8074)">
<path d="M14.569 2.09766L13.2357 0.764313C13.1054 0.634094 12.8945 0.634094 12.7643 0.764313C12.6341 0.894531 12.6341 1.10547 12.7643 1.23566L13.862 2.33331L12.7643 3.43097C12.7018 3.49347 12.6667 3.57809 12.6667 3.66666V4.66666C12.6667 5.40203 13.2647 6 14 6V11.6667C14 11.8506 13.8506 12 13.6667 12C13.4828 12 13.3333 11.8506 13.3333 11.6667V11C13.3333 10.4486 12.8848 10 12.3333 10H12V1.33334C12 0.597969 11.402 0 10.6667 0H4C3.26466 0 2.66666 0.597969 2.66666 1.33334V13.3333C1.93131 13.3333 1.33331 13.9313 1.33331 14.6667V15.6667C1.33331 15.8509 1.48241 16 1.66666 16H13C13.1843 16 13.3333 15.8509 13.3333 15.6667V14.6667C13.3333 13.9313 12.7354 13.3333 12 13.3333V10.6667H12.3333C12.5173 10.6667 12.6667 10.8161 12.6667 11V11.6667C12.6667 12.2181 13.1153 12.6667 13.6667 12.6667C14.2181 12.6667 14.6667 12.2181 14.6667 11.6667V2.33334C14.6667 2.24478 14.6315 2.16016 14.569 2.09766ZM10.6667 5.67284C10.6667 5.85709 10.5176 6.00619 10.3333 6.00619H4.33331C4.14906 6.00619 3.99997 5.85709 3.99997 5.67284V1.66666C3.99997 1.48241 4.14906 1.33331 4.33331 1.33331H10.3333C10.5176 1.33331 10.6667 1.48241 10.6667 1.66666V5.67284Z" fill="#217B56"/>
</g>
<defs>
<clipPath id="clip0_3542_8074">
<rect width="16" height="16" fill="white"/>
</clipPath>
</defs>
</svg>
