<svg width="24" height="24" viewBox="0 0 24 24" fill="none" xmlns="http://www.w3.org/2000/svg">
    <g clip-path="url(#clip0_3694_8811)">
        <path fill-rule="evenodd" clip-rule="evenodd" d="M10.8854 1.8854C10.9821 1.7887 11.1132 1.73438 11.25 1.73438H21C21.7335 1.73438 22.4369 2.02575 22.9556 2.54441C23.4742 3.06306 23.7656 3.76651 23.7656 4.5V22.875C23.7656 23.1598 23.5348 23.3906 23.25 23.3906H4.5C4.21523 23.3906 3.98438 23.1598 3.98438 22.875V9C3.98438 8.86325 4.0387 8.7321 4.1354 8.6354L10.8854 1.8854ZM11.4636 2.76562L5.01562 9.21358V22.3594H22.7344V4.5C22.7344 4.04001 22.5516 3.59887 22.2264 3.27361C21.9011 2.94835 21.46 2.76562 21 2.76562H11.4636Z" fill="#217B56"/>
        <path fill-rule="evenodd" clip-rule="evenodd" d="M0.234375 1.125C0.234375 0.840228 0.465228 0.609375 0.75 0.609375C2.33398 0.609375 3.54815 0.972838 4.52599 1.57491C5.49733 2.17299 6.20121 2.98576 6.79607 3.82739C6.96043 4.05994 6.90516 4.38171 6.67261 4.54607C6.44006 4.71043 6.11829 4.65516 5.95393 4.42261C5.39716 3.63486 4.78854 2.94763 3.9853 2.45305C3.18854 1.96247 2.16602 1.64062 0.75 1.64062C0.465228 1.64062 0.234375 1.40977 0.234375 1.125Z" fill="#EB2227"/>
        <path fill-rule="evenodd" clip-rule="evenodd" d="M13.875 5.39062C13.5385 5.39062 13.2656 5.66345 13.2656 6C13.2656 6.33655 13.5385 6.60938 13.875 6.60938H19.5C19.8365 6.60938 20.1094 6.33655 20.1094 6C20.1094 5.66345 19.8365 5.39062 19.5 5.39062H13.875ZM12.2344 6C12.2344 5.09391 12.9689 4.35938 13.875 4.35938H19.5C20.4061 4.35938 21.1406 5.09391 21.1406 6C21.1406 6.90609 20.4061 7.64062 19.5 7.64062H13.875C12.9689 7.64062 12.2344 6.90609 12.2344 6Z" fill="#217B56"/>
        <path fill-rule="evenodd" clip-rule="evenodd" d="M8.9896 1.5104C9.19097 1.71176 9.19097 2.03824 8.9896 2.2396L4.4896 6.7396C4.28824 6.94097 3.96176 6.94097 3.7604 6.7396C3.55903 6.53824 3.55903 6.21176 3.7604 6.0104L8.2604 1.5104C8.46176 1.30903 8.78824 1.30903 8.9896 1.5104Z" fill="#EB2227"/>
    </g>
    <defs>
        <clipPath id="clip0_3694_8811">
            <rect width="24" height="24" fill="white"/>
        </clipPath>
    </defs>
</svg>
