<svg width="65" height="93" viewBox="0 0 65 93" fill="none" xmlns="http://www.w3.org/2000/svg">
<rect x="0.5" y="0.5" width="64" height="91.6852" fill="white" stroke="#E8E8E8"/>
<path d="M41.0938 14.4444H23.9077C23.6327 14.4444 23.3691 14.3176 23.1747 14.0919C22.9803 13.8661 22.8711 13.56 22.8711 13.2407C22.8711 12.9215 22.9803 12.6153 23.1747 12.3896C23.3691 12.1638 23.6327 12.037 23.9077 12.037H41.0938C41.3687 12.037 41.6324 12.1638 41.8268 12.3896C42.0211 12.6153 42.1304 12.9215 42.1304 13.2407C42.1304 13.56 42.0211 13.8661 41.8268 14.0919C41.6324 14.3176 41.3687 14.4444 41.0938 14.4444Z" fill="black"/>
<rect x="9.62891" y="16.8518" width="45.7407" height="2.40741" rx="1.2037" fill="black"/>
<rect x="9.62891" y="36.1112" width="45.7407" height="2.40741" rx="1.2037" fill="#E8E8E8"/>
<rect x="9.62891" y="50.5555" width="45.7407" height="2.40741" rx="1.2037" fill="#E8E8E8"/>
<rect x="9.62891" y="65" width="45.7407" height="2.40741" rx="1.2037" fill="#E8E8E8"/>
<rect x="9.62891" y="28.8888" width="45.7407" height="2.40741" rx="1.2037" fill="#E8E8E8"/>
<rect x="9.62891" y="43.3333" width="45.7407" height="2.40741" rx="1.2037" fill="#E8E8E8"/>
<rect x="9.62891" y="57.7778" width="45.7407" height="2.40741" rx="1.2037" fill="#E8E8E8"/>
<circle cx="46.9099" cy="79.4089" r="7.55891" fill="white" stroke="#EB2227" stroke-width="1.66298"/>
<circle cx="46.9098" cy="79.4087" r="5.14611" fill="#EB2227"/>
</svg>
