<svg width="164" height="115" viewBox="0 0 164 115" fill="none" xmlns="http://www.w3.org/2000/svg">
<path d="M128.308 26H37.6917C34.5483 26 32 28.5801 32 31.7629V84.2371C32 87.4199 34.5483 90 37.6917 90H128.308C131.452 90 134 87.4199 134 84.2371V31.7629C134 28.5801 131.452 26 128.308 26Z" fill="#217B56"/>
<path d="M126.308 26H35.6917C32.5483 26 30 28.5801 30 31.7629V84.2371C30 87.4199 32.5483 90 35.6917 90H126.308C129.452 90 132 87.4199 132 84.2371V31.7629C132 28.5801 129.452 26 126.308 26Z" fill="#4D9578"/>
<line x1="82.5" y1="26" x2="82.5" y2="90" stroke="#217B56"/>
<rect x="88" y="61.5556" width="40" height="23.3651" rx="4" fill="white"/>
<path d="M51.9308 41.0475H36.9062C36.6659 41.0475 36.4354 40.9505 36.2654 40.7779C36.0955 40.6052 36 40.3711 36 40.1269C36 39.8828 36.0955 39.6486 36.2654 39.476C36.4354 39.3033 36.6659 39.2063 36.9062 39.2063H51.9308C52.1711 39.2063 52.4016 39.3033 52.5716 39.476C52.7415 39.6486 52.837 39.8828 52.837 40.1269C52.837 40.3711 52.7415 40.6052 52.5716 40.7779C52.4016 40.9505 52.1711 41.0475 51.9308 41.0475Z" fill="#BDD7CC"/>
<path d="M103.931 41.0475H88.9062C88.6659 41.0475 88.4354 40.9505 88.2654 40.7779C88.0955 40.6052 88 40.3711 88 40.1269C88 39.8828 88.0955 39.6486 88.2654 39.476C88.4354 39.3033 88.6659 39.2063 88.9062 39.2063H103.931C104.171 39.2063 104.402 39.3033 104.572 39.476C104.741 39.6486 104.837 39.8828 104.837 40.1269C104.837 40.3711 104.741 40.6052 104.572 40.7779C104.402 40.9505 104.171 41.0475 103.931 41.0475Z" fill="#BDD7CC"/>
<path d="M51.9308 55.2697H36.9062C36.6659 55.2697 36.4354 55.1727 36.2654 55.0001C36.0955 54.8274 36 54.5933 36 54.3491C36 54.105 36.0955 53.8708 36.2654 53.6982C36.4354 53.5255 36.6659 53.4286 36.9062 53.4286H51.9308C52.1711 53.4286 52.4016 53.5255 52.5716 53.6982C52.7415 53.8708 52.837 54.105 52.837 54.3491C52.837 54.5933 52.7415 54.8274 52.5716 55.0001C52.4016 55.1727 52.1711 55.2697 51.9308 55.2697Z" fill="#BDD7CC"/>
<path d="M51.9308 69.4919H36.9062C36.6659 69.4919 36.4354 69.3949 36.2654 69.2223C36.0955 69.0497 36 68.8155 36 68.5714C36 68.3272 36.0955 68.093 36.2654 67.9204C36.4354 67.7478 36.6659 67.6508 36.9062 67.6508H51.9308C52.1711 67.6508 52.4016 67.7478 52.5716 67.9204C52.7415 68.093 52.837 68.3272 52.837 68.5714C52.837 68.8155 52.7415 69.0497 52.5716 69.2223C52.4016 69.3949 52.1711 69.4919 51.9308 69.4919Z" fill="#BDD7CC"/>
<rect x="36" y="44.2857" width="40" height="3.04762" rx="1.52381" fill="white"/>
<rect x="88" y="44.2857" width="40" height="3.04762" rx="1.52381" fill="white"/>
<rect x="36" y="58.5079" width="40" height="3.04762" rx="1.52381" fill="white"/>
<rect x="36" y="72.7301" width="40" height="3.04762" rx="1.52381" fill="white"/>
<path d="M108.442 79.7311C98.8091 79.7311 91.0004 79.187 91.0004 78.5158C91.0004 77.8446 98.8091 77.3005 108.442 77.3005C118.074 77.3005 125.883 77.8446 125.883 78.5158C125.883 79.187 118.074 79.7311 108.442 79.7311Z" fill="#EBF7F2"/>
<path d="M114.259 69.7255H116.094C116.319 69.7255 116.502 69.9079 116.502 70.1329V70.4703C116.502 70.6953 116.319 70.8777 116.094 70.8777H114.259C114.033 70.8777 113.851 70.6953 113.851 70.4703V70.1329C113.851 69.9079 114.033 69.7255 114.259 69.7255Z" fill="#2E3A5B"/>
<path d="M115.094 76.4267L104.304 76.4337C104.304 76.4337 104.333 73.7878 102.129 73.7295C99.9253 73.6713 100.046 76.3131 100.046 76.3131L100.053 76.7384C100.053 76.7384 98.5004 76.5906 98.0508 76.3605C97.9497 76.1422 97.8737 75.9131 97.8243 75.6777C97.7602 75.335 97.806 74.6244 97.806 74.6244L98.1729 74.3412C98.1729 74.3412 98.029 72.7034 98.2658 72.1087C98.2658 72.1087 98.0415 71.4769 98.0998 71.0899L102.771 67.0001L109.476 67.0756C110.374 67.0945 110.833 67.2962 111.638 67.6963C114.647 69.1913 116.472 70.5055 116.472 70.5055C116.472 70.5055 119.857 71.1085 121.036 72.0171C121.509 72.4678 121.757 72.7712 121.934 73.96L121.961 74.4292L119.178 75.3254L115.094 76.4267Z" fill="#4D9578"/>
<path d="M121.535 76.025L121.33 76.9001C121.33 77.1702 120.93 77.3482 120.659 77.3482L95.6998 77.3744L94.2278 77.3488C94.0965 77.3469 93.9681 77.3104 93.8556 77.243C93.743 77.1755 93.6503 77.0795 93.5869 76.9648L93.1258 76.1287C93.8122 74.4922 94.8667 73.5647 96.4782 73.3679L107.802 72.5933L115.157 73.7846L121.535 76.025Z" fill="#2E3A5B"/>
<path d="M118.795 74.1107C118.681 74.114 118.567 74.1285 118.456 74.1539C118.315 74.1215 118.17 74.107 118.025 74.1107C116.949 74.1392 116.096 75.1512 116.119 76.371C116.142 77.5908 117.033 78.5567 118.109 78.5283C118.225 78.5254 118.731 78.5321 118.878 78.5283C119.954 78.4998 120.808 77.4877 120.785 76.268C120.762 75.0482 119.871 74.0822 118.795 74.1107Z" fill="#2E3A5B"/>
<path d="M103.375 74.1107C103.261 74.114 103.147 74.1285 103.036 74.1539C102.895 74.1216 102.75 74.107 102.606 74.1107C101.53 74.1392 100.676 75.1512 100.699 76.371C100.723 77.5908 101.613 78.5567 102.689 78.5283C102.805 78.5254 103.311 78.5321 103.458 78.5283C104.534 78.4998 105.388 77.4877 105.365 76.268C105.342 75.0482 104.451 74.0822 103.375 74.1107Z" fill="#2E3A5B"/>
<path d="M112.599 74.2957C112.582 74.2957 112.564 74.2976 112.547 74.2986H111.66V74.5972C111.069 74.9899 110.677 75.7245 110.693 76.556C110.709 77.3875 111.124 78.0923 111.724 78.4556V78.7136H112.616C112.638 78.7136 112.661 78.7136 112.683 78.7136C113.759 78.6851 114.612 77.673 114.589 76.4533C114.566 75.2335 113.675 74.2672 112.599 74.2957Z" fill="#2E3A5B"/>
<path d="M109.922 76.51C109.92 75.2898 110.744 74.2992 111.761 74.2974C112.779 74.2956 113.605 75.2834 113.607 76.5036C113.61 77.7238 112.786 78.7145 111.769 78.7162C110.751 78.718 109.925 77.7303 109.922 76.51Z" fill="#8592AB"/>
<path d="M111.695 78.0252C110.954 78.0196 110.358 77.3338 110.365 76.4933C110.371 75.6527 110.977 74.9759 111.718 74.9814C112.46 74.987 113.055 75.6729 113.049 76.5134C113.043 77.3539 112.437 78.0307 111.695 78.0252Z" fill="#E0D7CD"/>
<path d="M111.709 77.0163C111.461 77.0145 111.262 76.7856 111.264 76.5051C111.266 76.2246 111.469 75.9986 111.716 76.0004C111.964 76.0022 112.162 76.2311 112.16 76.5116C112.158 76.7922 111.956 77.0181 111.709 77.0163Z" fill="#F7FEFB"/>
<path d="M97.3983 74.2957C97.3807 74.2957 97.3631 74.2976 97.3458 74.2986H96.4591V74.5972C95.8676 74.9899 95.476 75.7245 95.4917 76.556C95.5074 77.3875 95.9224 78.0923 96.5232 78.4556V78.7136H97.415C97.4371 78.7136 97.4595 78.7136 97.482 78.7136C98.558 78.6851 99.4113 77.673 99.3882 76.4533C99.3651 75.2335 98.474 74.2672 97.3983 74.2957Z" fill="#2E3A5B"/>
<path d="M94.7213 76.5101C94.7192 75.2899 95.5424 74.2993 96.5599 74.2975C97.5775 74.2957 98.4042 75.2835 98.4063 76.5037C98.4084 77.7239 97.5852 78.7146 96.5677 78.7163C95.5501 78.7181 94.7234 77.7304 94.7213 76.5101Z" fill="#8592AB"/>
<path d="M109.316 76.1255L98.6112 76.153C98.6112 76.153 98.2059 74.0086 96.5768 74.0316C94.6811 74.0601 94.567 76.1316 94.567 76.1316H93.1251C93.1251 76.1316 92.3881 74.2976 93.0386 73.7839C93.0386 73.7839 93.5561 72.7024 93.7849 72.1077C93.7849 72.1077 93.5673 71.4759 93.6246 71.089L95.2233 69.8359C95.9026 68.9192 98.5558 67.5759 99.6571 67.3947C101.972 67.0135 103.859 66.7636 106.178 67.9251C109.759 69.7194 110.924 71.6699 110.924 71.6699C110.924 71.6699 112.337 71.5687 114.565 72.0175C115.022 72.4681 115.089 72.9988 115.193 73.4786L115.184 76.1386L114.323 76.1361C114.219 76.1357 114.119 76.1009 114.038 76.0371C113.957 75.9733 113.899 75.8842 113.874 75.784C113.712 75.1211 113.172 74.0112 111.97 73.9759C110.825 73.9439 109.905 74.2826 109.675 75.8167C109.662 75.9025 109.619 75.9808 109.553 76.0374C109.487 76.094 109.403 76.1252 109.316 76.1255V76.1255Z" fill="#217B56"/>
<path d="M93.7122 72.463C93.7122 72.463 114.701 72.151 114.566 72.0172C112.328 71.362 110.224 70.6675 110.224 70.6675C110.224 70.6675 108.268 68.7022 105.747 67.5391C104.006 66.7358 100.947 66.9473 98.8962 67.4162C97.5504 67.7241 96.1511 68.6005 95.6919 69.2176L93.6347 71.0967C93.5773 71.4833 93.7949 72.1154 93.7949 72.1154C93.755 72.228 93.7273 72.3445 93.7122 72.463V72.463Z" fill="#217B56"/>
<path d="M95.7212 71.7166C95.7212 71.7166 94.0127 70.5932 93.65 71.1319C93.6076 71.3093 93.6021 71.4935 93.6338 71.673C93.6655 71.8526 93.7339 72.0238 93.8345 72.1759L95.7754 72.1663L95.7212 71.7166Z" fill="#F7FEFB"/>
<path d="M100.936 67.5663L101.344 70.7564L97.5021 70.7721C96.7116 70.7756 96.2889 69.8503 96.8032 69.2508C98.0631 67.7798 100.107 67.6076 100.936 67.5663Z" fill="#2E3A5B"/>
<path d="M101.27 67.5298C101.27 67.5298 104.24 67.0651 106.307 68.2743C107.5 68.9717 108.571 69.7172 109.617 70.7068L101.649 70.782L101.27 67.5298Z" fill="#2E3A5B"/>
<path d="M95.5654 69.4352L95.6801 72.3414L96.1703 73.613H96.2988L95.8326 72.3433L95.6916 69.2176L95.5654 69.4352Z" fill="#066132"/>
<path d="M109.125 71.1722L109.494 72.463L109.443 76.1175L109.618 76.1211L109.689 72.4461L109.329 71.1821L109.125 71.1722Z" fill="#066132"/>
<path d="M105.247 67.3317H109.32C109.973 67.3309 110.618 67.4755 111.208 67.7552C113.099 68.6549 116.367 70.6678 116.367 70.6678H110.687C110.394 70.6675 110.113 70.5559 109.9 70.3557C108.66 69.1935 106.99 68.0468 105.247 67.3317Z" fill="#2E3A5B"/>
<path d="M121.371 76.1233L115.023 76.1383V73.1451L121.934 73.96L121.961 74.7803C121.961 75.1733 121.86 76.1233 121.371 76.1233Z" fill="#4D9578"/>
<path d="M106.501 70.7718L108.632 70.7603C108.949 70.7603 108.896 69.608 107.695 69.6131L106.713 69.6186C106.561 69.6194 106.414 69.6809 106.307 69.7895C106.199 69.8981 106.139 70.0448 106.14 70.1976V70.4165C106.141 70.5114 106.179 70.602 106.247 70.6686C106.314 70.7352 106.406 70.7723 106.501 70.7718Z" fill="#066132"/>
<path d="M93.8027 72.2086C93.8027 72.2086 93.491 71.8546 93.6025 71.1306" stroke="#3B260D" stroke-width="0.304488" stroke-linecap="round" stroke-linejoin="round"/>
<path d="M116.033 72.8913C115.654 72.4806 115.172 72.1793 114.637 72.0191C114.428 71.957 114.22 71.8978 114.064 71.859C113.6 71.7486 112.915 71.787 112.915 71.787C112.915 71.787 113.006 73.1566 113.835 73.1447C114.665 73.1329 116.264 73.1419 116.264 73.1419L116.033 72.8913Z" fill="#F7FEFB"/>
<path d="M120.413 72.7661C120.883 72.198 120.768 72.1561 120.997 71.9874C120.997 71.9874 121.674 72.4614 121.757 73.0494C121.769 73.1326 121.645 73.1454 121.519 73.1374C120.955 73.1086 120.814 73.1131 120.814 73.1131L120.413 72.7661Z" fill="#F7FEFB"/>
<path d="M115.732 72.2505H120.916V72.5088C120.916 72.6743 120.85 72.8331 120.733 72.9502C120.616 73.0673 120.457 73.1331 120.291 73.1332H116.357C116.191 73.1331 116.032 73.0673 115.915 72.9502C115.798 72.8331 115.732 72.6743 115.732 72.5088V72.2505Z" fill="#2E3A5B"/>
<path d="M119.431 73.5932H117.655C117.423 73.5932 117.234 73.4052 117.234 73.1733V72.825C117.234 72.5931 117.423 72.4051 117.655 72.4051H119.431C119.663 72.4051 119.851 72.5931 119.851 72.825V73.1733C119.851 73.4052 119.663 73.5932 119.431 73.5932Z" fill="#2E3A5B"/>
<path d="M96.5509 78.0243C95.8096 78.0188 95.2137 77.3329 95.2201 76.4924C95.2264 75.6519 95.8324 74.975 96.5738 74.9806C97.3151 74.9862 97.9109 75.672 97.9046 76.5125C97.8983 77.353 97.2922 78.0299 96.5509 78.0243Z" fill="#E0D7CD"/>
<path d="M96.5622 77.0174C96.3148 77.0156 96.1159 76.7867 96.1179 76.5062C96.12 76.2257 96.3222 75.9998 96.5696 76.0016C96.817 76.0034 97.0159 76.2323 97.0139 76.5128C97.0118 76.7933 96.8096 77.0192 96.5622 77.0174Z" fill="#F7FEFB"/>
<path d="M102.414 76.1431L101.549 72.5347V71.1306" stroke="#066132" stroke-width="0.683763" stroke-miterlimit="10"/>
<path d="M104.695 70.7535L101.836 70.7804L102.728 67.4424C103.5 67.4492 104.477 67.5385 105.395 67.8585L104.695 70.7535Z" fill="#596481"/>
<path d="M109.179 67.3317H109.319C109.972 67.3309 110.617 67.4755 111.207 67.7552C111.743 68.0112 112.389 68.3534 113.039 68.7154L112.568 70.6678H110.686C110.394 70.6675 110.112 70.5559 109.899 70.3557C109.502 69.9846 109.086 69.6343 108.653 69.3062L109.179 67.3317Z" fill="#596481"/>
<path d="M121.344 76.1232L119.987 75.0747H117.164L115.023 76.1383L121.344 76.1232Z" fill="#4D9578"/>
<path d="M120.006 74.4643H117.234" stroke="#066132" stroke-width="0.683763" stroke-miterlimit="10"/>
<path d="M121.758 73.139C121.758 73.139 121.814 72.8215 121.62 72.463C121.425 72.1046 121.014 71.9314 121.014 71.9314" stroke="#3B260D" stroke-width="0.304488" stroke-linecap="round" stroke-linejoin="round"/>
<path d="M102.562 72.1647H103.947V71.6148H102.446C102.409 71.6148 102.375 71.6292 102.349 71.6547C102.323 71.6803 102.309 71.715 102.309 71.7512V71.9112C102.309 71.9444 102.315 71.9774 102.328 72.0081C102.341 72.0388 102.359 72.0668 102.383 72.0903C102.406 72.1138 102.434 72.1325 102.465 72.1453C102.496 72.1581 102.528 72.1647 102.562 72.1647V72.1647Z" fill="#066132"/>
<path d="M97.3423 72.1647H98.7266V71.6148H97.2247C97.1885 71.6148 97.1538 71.6292 97.1282 71.6548C97.1026 71.6803 97.0882 71.715 97.0882 71.7512V71.9112C97.0881 71.9446 97.0945 71.9776 97.1073 72.0084C97.12 72.0393 97.1387 72.0673 97.1623 72.0909C97.186 72.1144 97.214 72.1331 97.2449 72.1458C97.2758 72.1584 97.3089 72.1649 97.3423 72.1647V72.1647Z" fill="#066132"/>
</svg>
