<svg width="40" height="40" viewBox="0 0 40 40" fill="none" xmlns="http://www.w3.org/2000/svg">
    <g clip-path="url(#clip0_1917_5389)">
        <path d="M0.203278 36.0976V3.90242C0.203278 1.74719 1.95047 0 4.1057 0H26.8781C27.3227 0 27.683 0.360312 27.683 0.804844V34.7968L26.6729 36.0976H0.203278Z" fill="#217B56"/>
        <path d="M25.813 0V11.7741C22.7931 13.6173 20.7724 16.9424 20.7724 20.7317C20.7724 22.4017 21.167 24.0342 21.9207 25.5065L20.8724 28.6513C20.6388 29.3525 20.8213 30.1255 21.3438 30.648C21.7157 31.0199 22.2144 31.2196 22.7238 31.2196C22.9302 31.2196 23.1384 31.1868 23.3406 31.1194L25.813 30.2952V32.1951H27.6829V0.804844C27.6829 0.360312 27.3226 0 26.8781 0L25.813 0Z" fill="#066132"/>
        <path d="M27.6829 34.7968L26.6728 36.0976L27.6829 37.398V39.1952C27.6829 39.6397 27.3226 40 26.878 40H4.17031C2.03024 40 0.239923 38.304 0.204142 36.1642C0.16758 33.9783 1.92781 32.1948 4.10539 32.1948H27.6829V34.7968Z" fill="#066132"/>
        <path d="M27.6829 34.7967H4.10571C3.38845 34.7967 2.80493 35.3803 2.80493 36.0975C2.80493 36.8147 3.38853 37.3983 4.10571 37.3983H27.683V34.7967H27.6829Z" fill="#F9F6F9"/>
        <path d="M31.3834 12.196C26.6756 12.1293 22.7694 15.9394 22.724 20.6475C22.7082 22.2823 23.1523 23.8122 23.9344 25.1161C24.006 25.2354 24.0194 25.3808 23.9755 25.5127L22.9781 28.5047C22.8733 28.8193 23.1726 29.1186 23.4871 29.0137L26.4791 28.0164C26.6111 27.9724 26.7565 27.9858 26.8758 28.0574C28.1797 28.8395 29.7095 29.2836 31.3444 29.2679C36.0524 29.2224 39.8625 25.3162 39.7959 20.6084C39.7305 15.9916 36.0002 12.2613 31.3834 12.196Z" fill="#EF4E52"/>
        <path d="M37.9113 15.381C37.9814 15.8622 38.0183 16.354 38.0183 16.8547C38.0183 22.4532 33.4797 26.9918 27.8812 26.9918C26.4182 26.9918 25.028 26.6814 23.7719 26.1237L22.9782 28.5047C22.8733 28.8193 23.1726 29.1186 23.4872 29.0137L26.4793 28.0164C26.6112 27.9724 26.7566 27.9858 26.8758 28.0574C28.1795 28.8393 29.709 29.2835 31.3436 29.2679C36.0162 29.2232 39.8134 25.3736 39.7968 20.7007C39.7895 18.6867 39.0844 16.8373 37.9113 15.381Z" fill="#EB2227"/>
        <path d="M31.2602 17.3983C31.9786 17.3983 32.5609 16.8159 32.5609 16.0975C32.5609 15.3791 31.9786 14.7968 31.2602 14.7968C30.5418 14.7968 29.9594 15.3791 29.9594 16.0975C29.9594 16.8159 30.5418 17.3983 31.2602 17.3983Z" fill="#F9F6F9"/>
        <path d="M31.2602 26.6666C30.5417 26.6666 29.9594 26.0842 29.9594 25.3658V21.3007C29.9594 20.5823 30.5418 19.9999 31.2602 19.9999C31.9786 19.9999 32.5609 20.5824 32.5609 21.3007V25.3658C32.5609 26.0842 31.9786 26.6666 31.2602 26.6666Z" fill="#F9F6F9"/>
        <path d="M23.2114 3.62396H6.95125C6.61789 3.62396 6.34766 3.8942 6.34766 4.22756V12.3576C6.34766 12.6911 6.61789 12.9612 6.95125 12.9612H23.2114C23.5448 12.9612 23.815 12.691 23.815 12.3576V4.22763C23.815 3.8942 23.5448 3.62396 23.2114 3.62396Z" fill="#F9F6F9"/>
        <path d="M11.8292 27.2702H6.95125C6.61789 27.2702 6.34766 27 6.34766 26.6666C6.34766 26.3333 6.61789 26.063 6.95125 26.063H11.8293C12.1627 26.063 12.4329 26.3333 12.4329 26.6666C12.4329 27 12.1627 27.2702 11.8292 27.2702Z" fill="#EF4E52"/>
        <path d="M11.8292 29.8719H6.95125C6.61789 29.8719 6.34766 29.6016 6.34766 29.2683C6.34766 28.9348 6.61789 28.6647 6.95125 28.6647H11.8293C12.1627 28.6647 12.4329 28.9349 12.4329 29.2683C12.4329 29.6016 12.1627 29.8719 11.8292 29.8719Z" fill="#EB2227"/>
    </g>
    <defs>
        <clipPath id="clip0_1917_5389">
            <rect width="40" height="40" fill="white"/>
        </clipPath>
    </defs>
</svg>
