<svg width="40" height="40" viewBox="0 0 40 40" fill="none" xmlns="http://www.w3.org/2000/svg">
    <g clip-path="url(#clip0_1917_5257)">
        <path d="M15.5733 1.60862L4.11922 4.12713C2.95695 4.38268 2.12906 5.41245 2.12906 6.60245V26.0858C2.12906 27.1738 2.40148 28.2444 2.92453 29.1984C4.30359 31.7141 7.75398 36.2547 15.3542 38.3085C16.1605 38.5264 16.9889 38.6353 17.8172 38.6353H17.8173C18.6456 38.6353 19.4739 38.5264 20.2802 38.3085C27.8906 36.252 31.3401 31.702 32.7155 29.1884C33.2359 28.2373 33.5054 27.1699 33.5054 26.0858V6.60245C33.5054 5.41245 32.6775 4.38268 31.5152 4.12713L20.0611 1.60862C18.5828 1.28362 17.0516 1.28362 15.5733 1.60862V1.60862Z" fill="#4D9578"/>
        <path d="M33.5056 6.60212V26.0855C33.5056 27.1702 33.2355 28.2373 32.7151 29.1885C31.3401 31.7021 27.8905 36.2517 20.2797 38.3086C19.8769 38.4171 19.4684 38.4991 19.0567 38.5538C18.6458 38.6077 18.2309 38.6351 17.8168 38.6351C17.5466 38.6351 17.2772 38.6238 17.0079 38.5997C17.1551 38.5877 17.3022 38.5716 17.4485 38.5523C17.8602 38.496 18.2687 38.4131 18.6715 38.3022C26.2823 36.2083 29.7319 31.5743 31.1069 29.0141C31.6272 28.0459 31.8974 26.9588 31.8974 25.8548V6.01196C31.8974 5.2111 31.5364 4.48173 30.9558 4.00415L31.5155 4.1272C32.6774 4.38282 33.5056 5.41212 33.5056 6.60212V6.60212Z" fill="#217B56"/>
        <path d="M15.9809 4.85008L6.01522 7.04133C5.41007 7.17437 4.97897 7.71055 4.97897 8.33016V25.0798C4.97897 25.9701 5.20194 26.8462 5.62991 27.627C6.75843 29.6856 9.58202 33.4014 15.8016 35.082C16.4614 35.2603 17.1392 35.3495 17.8171 35.3495C18.4949 35.3495 19.1728 35.2604 19.8326 35.082C26.0419 33.4041 28.8664 29.698 29.9987 27.6372C30.4294 26.8534 30.6552 25.9741 30.6552 25.0798V8.33023C30.6552 7.71062 30.2241 7.17445 29.619 7.04141L19.6533 4.85016C18.4437 4.58414 17.1906 4.58414 15.9809 4.85008V4.85008Z" fill="#F5F8F9"/>
        <path d="M30.6552 8.33017V25.0795C30.6552 25.9745 30.4292 26.8534 29.999 27.6374C28.8668 29.6983 26.042 33.4044 19.8327 35.0817C19.5031 35.171 19.1685 35.2378 18.8316 35.2828C18.5422 35.3206 18.2511 35.3431 17.9608 35.3479C18.0492 35.327 18.1369 35.3037 18.2245 35.2788C24.4338 33.5202 27.2586 29.634 28.3908 27.4734C28.8209 26.6516 29.047 25.7301 29.047 24.7925V7.23173C29.047 7.11994 29.0341 7.01142 29.01 6.90689L29.6195 7.04119C30.2241 7.1747 30.6552 7.71017 30.6552 8.33017V8.33017Z" fill="#E8EDF2"/>
        <path d="M36.697 0.156417C36.4091 0.824464 35.813 1.80759 34.6726 2.34493C34.4762 2.43743 34.4762 2.71735 34.6726 2.80985C35.813 3.3472 36.409 4.33032 36.697 4.99837C36.787 5.20689 37.0806 5.20689 37.1705 4.99837C37.4585 4.33032 38.0546 3.3472 39.195 2.80985C39.3913 2.71735 39.3913 2.43743 39.195 2.34493C38.0546 1.80759 37.4586 0.824464 37.1705 0.156417C37.0806 -0.0520984 36.7869 -0.0520984 36.697 0.156417V0.156417Z" fill="#FEF0AE"/>
        <path d="M39.1947 2.8097C38.0545 3.34681 37.4587 4.33025 37.1708 4.99845C37.0807 5.20673 36.7873 5.20673 36.6972 4.99845C36.5524 4.6615 36.3289 4.24501 35.9968 3.84619C36.3145 3.14259 36.9424 2.15595 38.1059 1.60759C38.114 1.60361 38.122 1.59955 38.1301 1.59314C38.4163 1.87939 38.7677 2.14392 39.1947 2.34501C39.3916 2.43736 39.3916 2.7172 39.1947 2.8097V2.8097Z" fill="#FEE45A"/>
        <path d="M2.82921 35.0017C2.54125 35.6697 1.94515 36.6528 0.804839 37.1902C0.608511 37.2827 0.608511 37.5626 0.804839 37.6551C1.94523 38.1924 2.54125 39.1756 2.82921 39.8436C2.91914 40.0521 3.21281 40.0521 3.30273 39.8436C3.5907 39.1756 4.18679 38.1924 5.32718 37.6551C5.52351 37.5626 5.52351 37.2827 5.32718 37.1902C4.18679 36.6528 3.59078 35.6697 3.30273 35.0017C3.21289 34.7931 2.91914 34.7931 2.82921 35.0017V35.0017Z" fill="#FEF0AE"/>
        <path d="M5.32695 37.6549C4.18671 38.1921 3.59086 39.1755 3.30304 39.8437C3.21296 40.052 2.91953 40.052 2.82945 39.8437C2.68468 39.5067 2.46117 39.0903 2.12906 38.6914C2.44672 37.9878 3.07468 37.0012 4.2382 36.4528C4.24625 36.4489 4.25429 36.4448 4.26234 36.4384C4.54859 36.7246 4.9 36.9892 5.32695 37.1903C5.5239 37.2826 5.5239 37.5624 5.32695 37.6549Z" fill="#FEE45A"/>
        <path d="M24.5821 14.6261L24.5819 14.6259C23.7047 13.7487 22.2825 13.7487 21.4053 14.6259L15.6894 20.3417L14.2287 18.881C13.3516 18.0038 11.9294 18.0038 11.0522 18.881C10.1748 19.7585 10.1751 21.1812 11.0529 22.0583L14.5643 25.5667C15.1859 26.1877 16.193 26.1876 16.8144 25.5665L24.5816 17.8032C25.4592 16.926 25.4594 15.5035 24.5821 14.6261V14.6261Z" fill="#EB2227"/>
        <path d="M24.5814 17.8029L16.8146 25.5665C16.193 26.1873 15.1855 26.1873 14.5648 25.5665L13.9046 24.9071C14.404 24.9907 14.9347 24.8395 15.3198 24.4552L23.2393 16.5461C23.9011 15.8852 24.0731 14.9202 23.7563 14.1017C24.0579 14.2094 24.3409 14.3847 24.5821 14.626C25.4594 15.5032 25.4594 16.9256 24.5814 17.8029V17.8029Z" fill="#CF1A1E"/>
    </g>
    <defs>
        <clipPath id="clip0_1917_5257">
            <rect width="40" height="40" fill="white"/>
        </clipPath>
    </defs>
</svg>
