<svg width="40" height="40" viewBox="0 0 40 40" fill="none" xmlns="http://www.w3.org/2000/svg">
    <path d="M31.0329 37.3484V10.4134L26.4348 5.81538H7.29211L5.99977 3.79077C5.03281 3.83468 4.26227 4.63233 4.26227 5.61015V38.1785C4.26227 39.1845 5.07782 40 6.08375 40H30.1275C31.1053 40 31.903 39.2294 31.9469 38.2625L31.0329 37.3484Z" fill="#217B56"/>
    <path d="M24.4081 3.78859C24.2754 3.78859 6.07236 3.78742 5.99978 3.7907C5.9965 3.86352 5.99767 36.1989 5.99767 36.443C5.99767 37.4491 6.81322 38.2645 7.81915 38.2645C7.99353 38.2645 31.875 38.2657 31.947 38.2624C31.9502 38.1895 31.9491 11.5285 31.9491 11.3295C31.6308 11.0113 24.7287 4.10922 24.4081 3.78859Z" fill="#4D9578"/>
    <path d="M34.5354 6.85641C34.0367 6.57242 34.7034 6.95203 30.9983 4.84242L28.1967 0H9.87242C8.8664 0 8.05093 0.815547 8.05093 1.82148V34.3898C8.05093 35.3959 8.86648 36.2113 9.87242 36.2113H31.6348C32.539 36.2113 33.289 35.5523 33.4315 34.6884H34.5354V6.85641Z" fill="#EAF6FF"/>
    <path d="M31.9672 12.6095H13.4077C13.0742 12.6095 12.8041 12.3393 12.8041 12.0059C12.8041 11.6726 13.0743 11.4023 13.4077 11.4023H31.9672C32.3006 11.4023 32.5708 11.6726 32.5708 12.0059C32.5708 12.3393 32.3006 12.6095 31.9672 12.6095Z" fill="#82AEE3"/>
    <path d="M17.1684 26.2407H13.4076C13.0741 26.2407 12.804 25.9705 12.804 25.6371C12.804 25.3037 13.0742 25.0335 13.4076 25.0335H17.1684C17.5018 25.0335 17.772 25.3037 17.772 25.6371C17.772 25.9705 17.5018 26.2407 17.1684 26.2407Z" fill="#82AEE3"/>
    <path d="M17.1684 21.6969H13.4076C13.0741 21.6969 12.804 21.4267 12.804 21.0933C12.804 20.76 13.0742 20.4897 13.4076 20.4897H17.1684C17.5018 20.4897 17.772 20.76 17.772 21.0933C17.772 21.4267 17.5018 21.6969 17.1684 21.6969Z" fill="#82AEE3"/>
    <path d="M17.1684 17.1533H13.4076C13.0741 17.1533 12.804 16.8831 12.804 16.5497C12.804 16.2163 13.0742 15.9461 13.4076 15.9461H17.1684C17.5018 15.9461 17.772 16.2163 17.772 16.5497C17.772 16.8831 17.5018 17.1533 17.1684 17.1533Z" fill="#82AEE3"/>
    <path d="M31.9672 30.7844H13.4077C13.0742 30.7844 12.8041 30.5142 12.8041 30.1808C12.8041 29.8474 13.0743 29.5772 13.4077 29.5772H31.9672C32.3006 29.5772 32.5708 29.8474 32.5708 30.1808C32.5708 30.5142 32.3006 30.7844 31.9672 30.7844Z" fill="#82AEE3"/>
    <path d="M25.7214 27.3392C29.1708 27.3392 31.9672 24.5428 31.9672 21.0934C31.9672 17.6439 29.1708 14.8476 25.7214 14.8476C22.2719 14.8476 19.4756 17.6439 19.4756 21.0934C19.4756 24.5428 22.2719 27.3392 25.7214 27.3392Z" fill="#EB2227"/>
    <path d="M25.7213 22.9378C25.3879 22.9378 25.1177 22.6676 25.1177 22.3342V17.0759C25.1177 16.7425 25.388 16.4724 25.7213 16.4724C26.0547 16.4724 26.3249 16.7426 26.3249 17.0759V22.3342C26.325 22.6676 26.0548 22.9378 25.7213 22.9378Z" fill="white"/>
    <path d="M25.6727 25.1108C26.0061 25.1108 26.2763 24.8405 26.2763 24.5072C26.2763 24.1738 26.0061 23.9036 25.6727 23.9036C25.3394 23.9036 25.0692 24.1738 25.0692 24.5072C25.0692 24.8405 25.3394 25.1108 25.6727 25.1108Z" fill="white"/>
    <path d="M35.7377 7.54101L33.4563 6.24194V34.3898C33.4563 35.3958 32.6407 36.2113 31.6348 36.2113H33.9162C34.9222 36.2113 35.7377 35.3958 35.7377 34.3898C35.7377 34.2621 35.7377 7.64476 35.7377 7.54101Z" fill="#D8ECFE"/>
    <path d="M30.0182 7.54102H35.7377L28.1967 0V5.71953C28.1967 6.72547 29.0122 7.54102 30.0182 7.54102Z" fill="#B3DAFE"/>
</svg>
