<svg width="24" height="24" viewBox="0 0 24 24" fill="none" xmlns="http://www.w3.org/2000/svg">
<path fill-rule="evenodd" clip-rule="evenodd" d="M0.234375 7.125C0.234375 6.84023 0.465228 6.60938 0.75 6.60938H9.40125C9.68602 6.60938 9.91687 6.84023 9.91687 7.125C9.91687 7.40977 9.68602 7.64062 9.40125 7.64062H0.75C0.465228 7.64062 0.234375 7.40977 0.234375 7.125Z" fill="#217B56"/>
<path fill-rule="evenodd" clip-rule="evenodd" d="M0.234375 10.125C0.234375 9.84023 0.465228 9.60938 0.75 9.60938H14.5691C14.8539 9.60938 15.0848 9.84023 15.0848 10.125C15.0848 10.4098 14.8539 10.6406 14.5691 10.6406H0.75C0.465228 10.6406 0.234375 10.4098 0.234375 10.125Z" fill="#217B56"/>
<path fill-rule="evenodd" clip-rule="evenodd" d="M3.23438 12.75C3.23438 12.4652 3.46523 12.2344 3.75 12.2344H7.5C7.78477 12.2344 8.01562 12.4652 8.01562 12.75C8.01562 13.0348 7.78477 13.2656 7.5 13.2656H3.75C3.46523 13.2656 3.23438 13.0348 3.23438 12.75Z" fill="#217B56"/>
<path fill-rule="evenodd" clip-rule="evenodd" d="M0.234375 3.375C0.234375 3.09023 0.465228 2.85938 0.75 2.85938H15.75C16.0348 2.85938 16.2656 3.09023 16.2656 3.375V5.625C16.2656 5.90977 16.0348 6.14062 15.75 6.14062C15.4652 6.14062 15.2344 5.90977 15.2344 5.625V3.89062H1.26562V14.8594H15.2344V11.8102C15.2344 11.5255 15.4652 11.2946 15.75 11.2946C16.0348 11.2946 16.2656 11.5255 16.2656 11.8102V15.375C16.2656 15.6598 16.0348 15.8906 15.75 15.8906H0.75C0.465228 15.8906 0.234375 15.6598 0.234375 15.375V3.375Z" fill="#217B56"/>
<path fill-rule="evenodd" clip-rule="evenodd" d="M8.48438 5.625C8.48438 5.34023 8.71523 5.10938 9 5.10938H15.75C20.177 5.10938 23.7656 8.69798 23.7656 13.125C23.7656 17.552 20.177 21.1406 15.75 21.1406H7.5C5.97248 21.1406 4.73438 19.9025 4.73438 18.375V17.625C4.73438 17.3402 4.96523 17.1094 5.25 17.1094H12C12.2848 17.1094 12.5156 17.3402 12.5156 17.625C12.5156 17.9098 12.2848 18.1406 12 18.1406H5.76562V18.375C5.76562 19.333 6.54202 20.1094 7.5 20.1094H15.75C19.6075 20.1094 22.7344 16.9825 22.7344 13.125C22.7344 9.26752 19.6075 6.14062 15.75 6.14062H9.56921C9.80662 7.26519 10.8048 8.10938 12 8.10938H14.25C14.5348 8.10938 14.7656 8.34023 14.7656 8.625C14.7656 9.5823 15.2495 10.5828 16.0209 11.3541C16.7922 12.1255 17.7927 12.6094 18.75 12.6094C19.0348 12.6094 19.2656 12.8402 19.2656 13.125C19.2656 13.4098 19.0348 13.6406 18.75 13.6406C17.4573 13.6406 16.2078 12.9995 15.2916 12.0834C14.498 11.2898 13.9108 10.2459 13.7679 9.14062H12C10.0585 9.14062 8.48438 7.56652 8.48438 5.625Z" fill="#217B56"/>
<path fill-rule="evenodd" clip-rule="evenodd" d="M3 14.8594C3.28477 14.8594 3.51562 15.0902 3.51562 15.375C3.51562 16.333 4.29202 17.1094 5.25 17.1094C5.53477 17.1094 5.76562 17.3402 5.76562 17.625C5.76562 17.9098 5.53477 18.1406 5.25 18.1406C3.72248 18.1406 2.48438 16.9025 2.48438 15.375C2.48438 15.0902 2.71523 14.8594 3 14.8594Z" fill="#217B56"/>
</svg>
