<svg width="24" height="24" viewBox="0 0 24 24" fill="none" xmlns="http://www.w3.org/2000/svg">
<path fill-rule="evenodd" clip-rule="evenodd" d="M3.60938 11.625C3.60938 11.3402 3.84023 11.1094 4.125 11.1094H7.875C8.15977 11.1094 8.39062 11.3402 8.39062 11.625V19.5C8.39062 19.7848 8.15977 20.0156 7.875 20.0156H6.375C4.84748 20.0156 3.60938 18.7775 3.60938 17.25V11.625ZM4.64062 12.1406V17.25C4.64062 18.208 5.41702 18.9844 6.375 18.9844H7.35938V12.1406H4.64062Z" fill="#596481"/>
<path fill-rule="evenodd" clip-rule="evenodd" d="M15.6094 11.625C15.6094 11.3402 15.8402 11.1094 16.125 11.1094H19.875C20.1598 11.1094 20.3906 11.3402 20.3906 11.625V17.25C20.3906 18.7775 19.1525 20.0156 17.625 20.0156H16.125C15.8402 20.0156 15.6094 19.7848 15.6094 19.5V11.625ZM16.6406 12.1406V18.9844H17.625C18.583 18.9844 19.3594 18.208 19.3594 17.25V12.1406H16.6406Z" fill="#596481"/>
<path fill-rule="evenodd" clip-rule="evenodd" d="M1.73438 10.5C1.73438 4.8306 6.3306 0.234375 12 0.234375C17.6694 0.234375 22.2656 4.8306 22.2656 10.5V18C22.2656 21.1843 19.6843 23.7656 16.5 23.7656H16.125C15.8402 23.7656 15.6094 23.5348 15.6094 23.25C15.6094 22.9652 15.8402 22.7344 16.125 22.7344H16.5C19.1147 22.7344 21.2344 20.6147 21.2344 18V10.5C21.2344 5.40015 17.0999 1.26562 12 1.26562C6.90015 1.26562 2.76562 5.40015 2.76562 10.5V14.25C2.76562 14.5348 2.53477 14.7656 2.25 14.7656C1.96523 14.7656 1.73438 14.5348 1.73438 14.25V10.5Z" fill="#596481"/>
<path fill-rule="evenodd" clip-rule="evenodd" d="M11.1094 23.25C11.1094 22.9652 11.3402 22.7344 11.625 22.7344H13.875C14.1598 22.7344 14.3906 22.9652 14.3906 23.25C14.3906 23.5348 14.1598 23.7656 13.875 23.7656H11.625C11.3402 23.7656 11.1094 23.5348 11.1094 23.25Z" fill="#596481"/>
</svg>
