<svg width="24" height="24" viewBox="0 0 24 24" fill="none" xmlns="http://www.w3.org/2000/svg">
<path d="M5.25 23.25V21.75L1.2915 17.1319C0.942001 16.724 0.749929 16.2046 0.75 15.6675V8.8125C0.75 8.4644 0.888281 8.13056 1.13442 7.88442C1.38056 7.63828 1.7144 7.5 2.0625 7.5V7.5C2.4106 7.5 2.74444 7.63828 2.99058 7.88442C3.23672 8.13056 3.375 8.4644 3.375 8.8125V13.1738" stroke="#217B56" stroke-width="1.03125" stroke-linecap="round" stroke-linejoin="round"/>
<path d="M9.74998 23.25V18.1819C9.74995 17.5852 9.51295 17.013 9.09111 16.5911L5.43748 12.9375C5.31438 12.8143 5.16823 12.7167 5.00737 12.65C4.84651 12.5834 4.6741 12.5491 4.49998 12.5491C4.32586 12.5491 4.15345 12.5834 3.99259 12.65C3.83174 12.7167 3.68558 12.8143 3.56248 12.9375V12.9375C3.43934 13.0606 3.34166 13.2067 3.27502 13.3676C3.20837 13.5285 3.17407 13.7009 3.17407 13.875C3.17407 14.0491 3.20837 14.2215 3.27502 14.3824C3.34166 14.5432 3.43934 14.6894 3.56248 14.8125V14.8125L6.37498 17.625" stroke="#217B56" stroke-width="1.03125" stroke-linecap="round" stroke-linejoin="round"/>
<path d="M18.75 23.25V21.75L22.7085 17.1319C23.058 16.724 23.2501 16.2046 23.25 15.6675V8.8125C23.25 8.4644 23.1117 8.13056 22.8656 7.88442C22.6194 7.63828 22.2856 7.5 21.9375 7.5C21.5894 7.5 21.2556 7.63828 21.0094 7.88442C20.7633 8.13056 20.625 8.4644 20.625 8.8125V8.8125V13.1738" stroke="#217B56" stroke-width="1.03125" stroke-linecap="round" stroke-linejoin="round"/>
<path d="M14.25 23.25V18.1819C14.25 17.5852 14.487 17.013 14.9089 16.5911L18.5625 12.9375C18.6856 12.8143 18.8318 12.7167 18.9926 12.65C19.1535 12.5834 19.3259 12.5491 19.5 12.5491C19.6741 12.5491 19.8465 12.5834 20.0074 12.65C20.1682 12.7167 20.3144 12.8143 20.4375 12.9375V12.9375C20.5606 13.0606 20.6583 13.2067 20.725 13.3676C20.7916 13.5285 20.8259 13.7009 20.8259 13.875C20.8259 14.0491 20.7916 14.2215 20.725 14.3824C20.6583 14.5432 20.5606 14.6894 20.4375 14.8125V14.8125L17.625 17.625" stroke="#217B56" stroke-width="1.03125" stroke-linecap="round" stroke-linejoin="round"/>
<path d="M17.25 3.93751C17.2492 3.31841 17.044 2.71691 16.6665 2.22627C16.2889 1.73563 15.76 1.38328 15.1618 1.22385C14.5636 1.06443 13.9295 1.10684 13.3578 1.34451C12.7862 1.58218 12.3089 2.00183 12 2.53838C11.7977 2.18459 11.5209 1.87902 11.1888 1.64287C10.8566 1.40671 10.4771 1.24562 10.0764 1.17075C9.67583 1.09589 9.26372 1.10904 8.8687 1.2093C8.47367 1.30956 8.10518 1.49453 7.78876 1.75139C7.47234 2.00824 7.21556 2.33084 7.03623 2.69682C6.8569 3.06279 6.75931 3.46339 6.75021 3.87084C6.74112 4.27828 6.82074 4.68284 6.98357 5.05645C7.14639 5.43006 7.38852 5.76379 7.69316 6.03451L12 10.3526L16.3069 6.03451C16.6035 5.77159 16.841 5.44872 17.0035 5.08723C17.1661 4.72575 17.2501 4.33387 17.25 3.93751V3.93751Z" stroke="#EB2227" stroke-width="1.03125" stroke-linecap="round" stroke-linejoin="round"/>
</svg>
