<svg width="30" height="30" viewBox="0 0 30 30" fill="none" xmlns="http://www.w3.org/2000/svg">
<path fill-rule="evenodd" clip-rule="evenodd" d="M9.04847 2.16803C10.3397 2.16301 11.6114 2.48328 12.7462 3.09929C13.6115 3.56897 14.3759 4.19903 15.0002 4.95301C15.6245 4.19903 16.389 3.56897 17.2542 3.09929C18.389 2.48328 19.6607 2.16302 20.9519 2.16803C21.9843 2.1701 23.006 2.37619 23.9584 2.77446C24.911 3.17281 25.7755 3.75555 26.5021 4.48918C27.2287 5.2228 27.8031 6.09283 28.1923 7.04923C28.5814 8.00563 28.7777 9.02953 28.7697 10.062L28.7697 10.065C28.7601 10.8475 28.6404 11.6248 28.4141 12.3739C28.3112 12.7147 27.9515 12.9075 27.6107 12.8046C27.27 12.7016 27.0772 12.3419 27.1801 12.0012C27.3713 11.3683 27.4725 10.7116 27.4807 10.0505C27.4871 9.18842 27.3232 8.33359 26.9983 7.53508C26.6731 6.73606 26.1932 6.00919 25.5862 5.39629C24.9792 4.78338 24.257 4.29653 23.4611 3.96373C22.6652 3.63093 21.8115 3.45875 20.9488 3.45709L20.9475 3.45708C19.8726 3.45282 18.8139 3.71939 17.8692 4.2322C16.9245 4.74502 16.1241 5.48754 15.5421 6.39125C15.4234 6.57546 15.2193 6.68677 15.0002 6.68677C14.7811 6.68677 14.577 6.57546 14.4583 6.39125C13.8763 5.48754 13.076 4.74502 12.1312 4.2322C11.1865 3.71939 10.1278 3.45282 9.05293 3.45708L9.05161 3.45709C8.18897 3.45875 7.33518 3.63093 6.53932 3.96373C5.74346 4.29653 5.02125 4.78338 4.41421 5.39629C3.80718 6.00919 3.3273 6.73606 3.00217 7.53508C2.67727 8.33354 2.51332 9.18832 2.51971 10.0503C2.5287 10.7114 2.63061 11.3679 2.82247 12.0005C2.92578 12.3412 2.73338 12.701 2.39273 12.8043C2.05209 12.9077 1.69219 12.7153 1.58889 12.3746C1.36174 11.6256 1.24117 10.8483 1.23074 10.0657L1.23069 10.062H1.2307C1.22275 9.02953 1.41901 8.00563 1.80817 7.04923C2.19734 6.09283 2.77174 5.2228 3.49834 4.48918C4.22493 3.75555 5.0894 3.17281 6.04201 2.77446C6.99442 2.37619 8.01615 2.1701 9.04847 2.16803Z" fill="#36AE7C"/>
<path fill-rule="evenodd" clip-rule="evenodd" d="M4.78066 17.25C5.06992 17.0425 5.47259 17.1088 5.68005 17.3981C7.59145 20.0632 10.0215 22.6204 11.984 24.5187C12.9633 25.466 13.8221 26.2451 14.4354 26.7869C14.6581 26.9837 14.8483 27.149 15 27.2797C15.1518 27.149 15.342 26.9837 15.5647 26.7869C16.178 26.2451 17.0368 25.466 18.0161 24.5187C19.9786 22.6204 22.4086 20.0632 24.32 17.3981C24.5275 17.1088 24.9302 17.0425 25.2194 17.25C25.5087 17.4574 25.575 17.8601 25.3675 18.1494C23.3916 20.9044 20.8997 23.5229 18.9123 25.4453C17.9166 26.4084 17.0432 27.2008 16.4182 27.753C16.1056 28.0291 15.855 28.2454 15.6819 28.393C15.5954 28.4668 15.5282 28.5235 15.4824 28.562C15.4595 28.5812 15.442 28.5959 15.43 28.6059L15.4163 28.6173L15.4116 28.6212C15.4115 28.6213 15.4111 28.6216 15 28.1251C14.589 28.6216 14.589 28.6215 14.5889 28.6215L14.5838 28.6173L14.5701 28.6059C14.5581 28.5959 14.5406 28.5812 14.5177 28.562C14.4719 28.5235 14.4047 28.4668 14.3182 28.393C14.1451 28.2454 13.8945 28.0291 13.5819 27.753C12.9569 27.2008 12.0835 26.4084 11.0878 25.4453C9.10036 23.5229 6.60849 20.9044 4.63255 18.1494C4.42509 17.8601 4.4914 17.4574 4.78066 17.25ZM15 28.1251L14.5889 28.6215C14.8273 28.8189 15.1726 28.819 15.4111 28.6216L15 28.1251Z" fill="#36AE7C"/>
<path fill-rule="evenodd" clip-rule="evenodd" d="M12.1722 9.66815C12.393 9.6629 12.6012 9.77114 12.7238 9.95498L17.8435 17.6345L20.1094 14.6133C20.2311 14.451 20.4221 14.3555 20.625 14.3555H29.0625C29.4185 14.3555 29.707 14.644 29.707 15C29.707 15.356 29.4185 15.6445 29.0625 15.6445H20.9473L18.3281 19.1367C18.2026 19.3041 18.0037 19.4001 17.7946 19.3943C17.5855 19.3885 17.3922 19.2816 17.2762 19.1075L12.2162 11.5175L9.92768 15.3316C9.8112 15.5257 9.6014 15.6445 9.375 15.6445H0.9375C0.581535 15.6445 0.292969 15.356 0.292969 15C0.292969 14.644 0.581535 14.3555 0.9375 14.3555H9.01007L11.6348 9.98089C11.7485 9.79144 11.9513 9.67341 12.1722 9.66815Z" fill="#EB5353"/>
</svg>
