<svg width="24" height="24" viewBox="0 0 24 24" fill="none" xmlns="http://www.w3.org/2000/svg">
<path fill-rule="evenodd" clip-rule="evenodd" d="M11.6779 1.09736C11.8662 0.946712 12.1338 0.946712 12.3221 1.09736L23.5721 10.0974C23.7945 10.2753 23.8306 10.5997 23.6527 10.8221C23.4748 11.0445 23.1503 11.0805 22.9279 10.9026L12 2.16032L1.07213 10.9026C0.849758 11.0805 0.525279 11.0445 0.347384 10.8221C0.169488 10.5997 0.205541 10.2753 0.427911 10.0974L11.6779 1.09736Z" fill="#596481"/>
<path fill-rule="evenodd" clip-rule="evenodd" d="M9.23438 16.125C9.23438 15.8402 9.46523 15.6094 9.75 15.6094H14.25C14.5348 15.6094 14.7656 15.8402 14.7656 16.125V22.5C14.7656 22.7848 14.5348 23.0156 14.25 23.0156C13.9652 23.0156 13.7344 22.7848 13.7344 22.5V16.6406H10.2656V22.5C10.2656 22.7848 10.0348 23.0156 9.75 23.0156C9.46523 23.0156 9.23438 22.7848 9.23438 22.5V16.125Z" fill="#596481"/>
<path fill-rule="evenodd" clip-rule="evenodd" d="M3.75 10.7344C4.03477 10.7344 4.26562 10.9652 4.26562 11.25V21.9844H19.7344V11.25C19.7344 10.9652 19.9652 10.7344 20.25 10.7344C20.5348 10.7344 20.7656 10.9652 20.7656 11.25V22.5C20.7656 22.7848 20.5348 23.0156 20.25 23.0156H3.75C3.46523 23.0156 3.23438 22.7848 3.23438 22.5V11.25C3.23438 10.9652 3.46523 10.7344 3.75 10.7344Z" fill="#596481"/>
</svg>
