<svg width="40" height="40" viewBox="0 0 40 40" fill="none" xmlns="http://www.w3.org/2000/svg">
<g clip-path="url(#clip0_1253_1709)">
<path d="M25.4462 40H8.6357C6.41023 40 4.59976 38.1895 4.59976 35.9641V17.6004C4.59976 16.2388 5.28273 14.9852 6.42695 14.2471L16.8173 7.54351C18.7507 6.29609 21.2491 6.29609 23.1824 7.54351L33.5728 14.2471C34.7169 14.9852 35.4 16.2387 35.4 17.6004V37.6312C35.4 38.2685 34.8834 38.7852 34.2459 38.7852C33.6085 38.7852 33.0919 38.2686 33.0919 37.6312V17.6004C33.0919 17.0264 32.8038 16.4978 32.3216 16.1866L21.9312 9.48296C20.7579 8.72601 19.2417 8.72601 18.0686 9.48296L7.67836 16.1866C7.19593 16.4978 6.90804 17.0263 6.90804 17.6004V35.9641C6.90804 36.9169 7.68312 37.6919 8.63586 37.6919H25.4462C26.0836 37.6919 26.6003 38.2086 26.6003 38.846C26.6003 39.4834 26.0835 40 25.4462 40Z" fill="#00572E"/>
<path d="M38.0404 13.5144C37.8184 13.5144 37.5939 13.4505 37.3959 13.3168L21.9926 2.92273C20.7822 2.10594 19.2179 2.10594 18.0073 2.92273L2.60406 13.3168C2.07562 13.6735 1.35851 13.534 1.00187 13.0058C0.645387 12.4775 0.784684 11.7601 1.31296 11.4036L16.7163 1.00945C18.7111 -0.336484 21.2888 -0.336484 23.2836 1.00945L38.687 11.4035C39.2153 11.76 39.3546 12.4773 38.9981 13.0057C38.7751 13.3361 38.4111 13.5144 38.0404 13.5144Z" fill="#00572E"/>
<path d="M25.615 16.6916C24.4848 16.6916 23.5684 17.6079 23.5684 18.7381V22.8501H16.4316V18.7381C16.4316 17.6079 15.5153 16.6916 14.3851 16.6916C13.2548 16.6916 12.3385 17.6079 12.3385 18.7381V31.0552C12.3385 32.1854 13.2548 33.1017 14.3851 33.1017C15.5153 33.1017 16.4316 32.1854 16.4316 31.0552V26.9432H23.5684V31.0552C23.5684 32.1854 24.4848 33.1017 25.615 33.1017C26.7452 33.1017 27.6615 32.1854 27.6615 31.0552V18.7381C27.6615 17.6079 26.7452 16.6916 25.615 16.6916Z" fill="#C2E0CF"/>
<path d="M25.615 34.2558C23.8502 34.2558 22.4144 32.8201 22.4144 31.0552V28.0973H17.5856V31.0552C17.5856 32.8199 16.1499 34.2558 14.385 34.2558C12.6202 34.2558 11.1844 32.8201 11.1844 31.0552V18.7381C11.1844 16.9733 12.6201 15.5375 14.385 15.5375C16.1499 15.5375 17.5856 16.9732 17.5856 18.7381V21.696H22.4144V18.7381C22.4144 16.9733 23.8501 15.5375 25.615 15.5375C27.3798 15.5375 28.8156 16.9732 28.8156 18.7381V31.0552C28.8156 32.8201 27.3798 34.2558 25.615 34.2558ZM16.4317 25.7892H23.5684C24.2058 25.7892 24.7225 26.3059 24.7225 26.9433V31.0552C24.7225 31.5474 25.123 31.9477 25.615 31.9477C26.107 31.9477 26.5075 31.5474 26.5075 31.0552V18.7381C26.5075 18.2459 26.1072 17.8456 25.615 17.8456C25.1228 17.8456 24.7225 18.2461 24.7225 18.7381V22.8501C24.7225 23.4874 24.2059 24.0041 23.5684 24.0041H16.4317C15.7943 24.0041 15.2776 23.4875 15.2776 22.8501V18.7381C15.2776 18.2459 14.8771 17.8456 14.3851 17.8456C13.893 17.8456 13.4926 18.2461 13.4926 18.7381V31.0552C13.4926 31.5474 13.8929 31.9477 14.3851 31.9477C14.8773 31.9477 15.2776 31.5474 15.2776 31.0552V26.9432C15.2776 26.3059 15.7942 25.7892 16.4317 25.7892Z" fill="#00572E"/>
</g>
<defs>
<clipPath id="clip0_1253_1709">
<rect width="40" height="40" fill="white"/>
</clipPath>
</defs>
</svg>
