<svg width="24" height="24" viewBox="0 0 24 24" fill="none" xmlns="http://www.w3.org/2000/svg">
    <path d="M13.453 4.29979H12.528V3.37476C12.528 3.08999 12.2972 2.85913 12.0124 2.85913C11.7276 2.85913 11.4968 3.08999 11.4968 3.37476V4.29974H10.5718C10.287 4.29974 10.0562 4.5306 10.0562 4.81537C10.0562 5.10013 10.287 5.33099 10.5718 5.33099H11.4967V6.25593C11.4967 6.54069 11.7276 6.77155 12.0123 6.77155C12.2971 6.77155 12.528 6.54069 12.528 6.25593V5.33099H13.4529C13.7377 5.33099 13.9686 5.10013 13.9686 4.81537C13.9686 4.5306 13.7378 4.29979 13.453 4.29979Z" fill="#EB2227"/>
    <path d="M23.4844 8.3617H20.0949V3.27947C20.0949 2.9947 19.8641 2.76384 19.5793 2.76384H16.8549V0.515625C16.8549 0.230859 16.624 0 16.3393 0H7.75598C7.47122 0 7.24036 0.230859 7.24036 0.515625V2.76384H4.42069C4.13592 2.76384 3.90506 2.9947 3.90506 3.27947V8.3617H0.515625C0.230859 8.3617 0 8.59256 0 8.87733V23.4844C0 23.7691 0.230859 24 0.515625 24H23.4844C23.7691 24 24 23.7691 24 23.4844V8.87733C24 8.59256 23.7691 8.3617 23.4844 8.3617ZM3.90506 22.9688H1.03125V9.39295H3.90506V22.9688ZM13.9103 22.9688H9.90961V18.1579H13.9103V22.9688ZM19.0637 22.9688H14.9415V17.6423C14.9415 17.3575 14.7107 17.1266 14.4259 17.1266H9.39398C9.10922 17.1266 8.87836 17.3575 8.87836 17.6423V22.9688H4.93627V3.79509H7.75598C8.04075 3.79509 8.27161 3.56423 8.27161 3.27947V1.03125H15.8236V3.27947C15.8236 3.56423 16.0545 3.79509 16.3393 3.79509H19.0637V22.9688ZM22.9688 22.9688H20.0949V9.39295H22.9688V22.9688Z" fill="#217B56"/>
    <path d="M16.0065 15.324H15.2367C14.9519 15.324 14.7211 15.0931 14.7211 14.8083C14.7211 14.5236 14.9519 14.2927 15.2367 14.2927H16.0065C16.2912 14.2927 16.5221 14.5236 16.5221 14.8083C16.5221 15.0931 16.2913 15.324 16.0065 15.324Z" fill="#217B56"/>
    <path d="M12.3849 15.324H11.6151C11.3303 15.324 11.0995 15.0931 11.0995 14.8083C11.0995 14.5236 11.3303 14.2927 11.6151 14.2927H12.3849C12.6697 14.2927 12.9005 14.5236 12.9005 14.8083C12.9005 15.0931 12.6697 15.324 12.3849 15.324Z" fill="#217B56"/>
    <path d="M8.76331 15.324H7.99353C7.70876 15.324 7.47791 15.0931 7.47791 14.8083C7.47791 14.5236 7.70876 14.2927 7.99353 14.2927H8.76331C9.04808 14.2927 9.27894 14.5236 9.27894 14.8083C9.27894 15.0931 9.04808 15.324 8.76331 15.324Z" fill="#217B56"/>
    <path d="M16.0065 9.60565H15.2367C14.9519 9.60565 14.7211 9.37479 14.7211 9.09003C14.7211 8.80526 14.9519 8.5744 15.2367 8.5744H16.0065C16.2912 8.5744 16.5221 8.80526 16.5221 9.09003C16.5221 9.37479 16.2913 9.60565 16.0065 9.60565Z" fill="#217B56"/>
    <path d="M12.3849 9.60565H11.6151C11.3303 9.60565 11.0995 9.37479 11.0995 9.09003C11.0995 8.80526 11.3303 8.5744 11.6151 8.5744H12.3849C12.6697 8.5744 12.9005 8.80526 12.9005 9.09003C12.9005 9.37479 12.6697 9.60565 12.3849 9.60565Z" fill="#217B56"/>
    <path d="M8.76331 9.60565H7.99353C7.70876 9.60565 7.47791 9.37479 7.47791 9.09003C7.47791 8.80526 7.70876 8.5744 7.99353 8.5744H8.76331C9.04808 8.5744 9.27894 8.80526 9.27894 9.09003C9.27894 9.37479 9.04808 9.60565 8.76331 9.60565Z" fill="#217B56"/>
    <path d="M16.0065 12.4648H15.2367C14.9519 12.4648 14.7211 12.2339 14.7211 11.9492C14.7211 11.6644 14.9519 11.4335 15.2367 11.4335H16.0065C16.2912 11.4335 16.5221 11.6644 16.5221 11.9492C16.5221 12.2339 16.2913 12.4648 16.0065 12.4648Z" fill="#217B56"/>
    <path d="M12.3849 12.4648H11.6151C11.3303 12.4648 11.0995 12.2339 11.0995 11.9492C11.0995 11.6644 11.3303 11.4335 11.6151 11.4335H12.3849C12.6697 11.4335 12.9005 11.6644 12.9005 11.9492C12.9005 12.2339 12.6697 12.4648 12.3849 12.4648Z" fill="#217B56"/>
    <path d="M8.76331 12.4648H7.99353C7.70876 12.4648 7.47791 12.2339 7.47791 11.9492C7.47791 11.6644 7.70876 11.4335 7.99353 11.4335H8.76331C9.04808 11.4335 9.27894 11.6644 9.27894 11.9492C9.27894 12.2339 9.04808 12.4648 8.76331 12.4648Z" fill="#217B56"/>
</svg>
