<svg width="16" height="16" viewBox="0 0 16 16" fill="none" xmlns="http://www.w3.org/2000/svg">
<path d="M2.09525 5.82477H0.46875C0.209875 5.82477 0 6.03464 0 6.29352V16H2.09525V5.82477Z" fill="#217B56"/>
<path d="M15.5313 5.82477H13.9048V16H16V6.29352C16 6.03464 15.7901 5.82477 15.5313 5.82477Z" fill="#217B56"/>
<path d="M8.81512 12.8679V16H7.18487V12.8679H8.81512Z" fill="#217B56"/>
<path d="M12.4985 1.92531H11.0227V0.46875C11.0227 0.209875 10.8129 0 10.554 0H5.51237C5.2535 0 5.04362 0.209875 5.04362 0.46875V1.92531H3.5015C3.24262 1.92531 3.03275 2.13519 3.03275 2.39406V16H6.24737V12.3991C6.24737 12.1403 6.45725 11.9304 6.71612 11.9304H9.28387C9.54275 11.9304 9.75262 12.1403 9.75262 12.3991V16H12.9672V2.39406C12.9672 2.13519 12.7574 1.92531 12.4985 1.92531ZM5.87741 10.3105H5.37259C5.11372 10.3105 4.90384 10.1006 4.90384 9.84172C4.90384 9.58284 5.11372 9.37297 5.37259 9.37297H5.87741C6.13628 9.37297 6.34616 9.58284 6.34616 9.84172C6.34616 10.1006 6.13628 10.3105 5.87741 10.3105ZM5.87741 8.43547H5.37259C5.11372 8.43547 4.90384 8.22559 4.90384 7.96672C4.90384 7.70784 5.11372 7.49797 5.37259 7.49797H5.87741C6.13628 7.49797 6.34616 7.70784 6.34616 7.96672C6.34616 8.22559 6.13628 8.43547 5.87741 8.43547ZM5.87741 6.56047H5.37259C5.11372 6.56047 4.90384 6.35059 4.90384 6.09172C4.90384 5.83284 5.11372 5.62297 5.37259 5.62297H5.87741C6.13628 5.62297 6.34616 5.83284 6.34616 6.09172C6.34616 6.35059 6.13628 6.56047 5.87741 6.56047ZM8.25241 10.3105H7.74759C7.48872 10.3105 7.27884 10.1006 7.27884 9.84172C7.27884 9.58284 7.48872 9.37297 7.74759 9.37297H8.25241C8.51128 9.37297 8.72116 9.58284 8.72116 9.84172C8.72116 10.1006 8.51128 10.3105 8.25241 10.3105ZM8.25241 8.43547H7.74759C7.48872 8.43547 7.27884 8.22559 7.27884 7.96672C7.27884 7.70784 7.48872 7.49797 7.74759 7.49797H8.25241C8.51128 7.49797 8.72116 7.70784 8.72116 7.96672C8.72116 8.22559 8.51128 8.43547 8.25241 8.43547ZM8.25241 6.56047H7.74759C7.48872 6.56047 7.27884 6.35059 7.27884 6.09172C7.27884 5.83284 7.48872 5.62297 7.74759 5.62297H8.25241C8.51128 5.62297 8.72116 5.83284 8.72116 6.09172C8.72116 6.35059 8.51128 6.56047 8.25241 6.56047ZM8.94472 3.75722H8.46875V4.23319C8.46875 4.49206 8.25887 4.70194 8 4.70194C7.74112 4.70194 7.53125 4.49206 7.53125 4.23319V3.75722H7.05528C6.79641 3.75722 6.58653 3.54734 6.58653 3.28847C6.58653 3.02959 6.79641 2.81972 7.05528 2.81972H7.53125V2.34375C7.53125 2.08488 7.74112 1.875 8 1.875C8.25887 1.875 8.46875 2.08488 8.46875 2.34375V2.81972H8.94472C9.20359 2.81972 9.41347 3.02959 9.41347 3.28847C9.41347 3.54734 9.20359 3.75722 8.94472 3.75722ZM10.6274 10.3105H10.1226C9.86372 10.3105 9.65384 10.1006 9.65384 9.84172C9.65384 9.58284 9.86372 9.37297 10.1226 9.37297H10.6274C10.8863 9.37297 11.0962 9.58284 11.0962 9.84172C11.0962 10.1006 10.8863 10.3105 10.6274 10.3105ZM10.6274 8.43547H10.1226C9.86372 8.43547 9.65384 8.22559 9.65384 7.96672C9.65384 7.70784 9.86372 7.49797 10.1226 7.49797H10.6274C10.8863 7.49797 11.0962 7.70784 11.0962 7.96672C11.0962 8.22559 10.8863 8.43547 10.6274 8.43547ZM10.6274 6.56047H10.1226C9.86372 6.56047 9.65384 6.35059 9.65384 6.09172C9.65384 5.83284 9.86372 5.62297 10.1226 5.62297H10.6274C10.8863 5.62297 11.0962 5.83284 11.0962 6.09172C11.0962 6.35059 10.8863 6.56047 10.6274 6.56047Z" fill="#217B56"/>
</svg>
