<svg width="120" height="76" viewBox="0 0 120 76" fill="none" xmlns="http://www.w3.org/2000/svg">
<rect width="120" height="75.974" rx="2.33766" fill="url(#paint0_radial_528_917)"/>
<rect width="120" height="75.974" fill="#F4E8AC"/>
<rect x="23.3262" y="6.49298" width="73.3467" height="3.00601" rx="1.50301" fill="white"/>
<rect x="38.2363" y="13.8276" width="43.5271" height="3.00601" rx="1.50301" fill="white"/>
<rect x="38.2363" y="65.5311" width="43.5271" height="1.80361" rx="0.901804" fill="white"/>
<circle cx="59.7436" cy="37.7436" r="16.7436" fill="#F6EBAD"/>
<circle cx="59.9448" cy="37.9441" r="14.2163" fill="#EADA95"/>
<g clip-path="url(#clip0_528_917)">
<path d="M67.9397 46.6286L65.6189 46.3545L66.5795 45.5629L68.9004 45.837L67.9397 46.6286Z" fill="#F6EBAD"/>
<path d="M65.4856 43.6545L65.314 45.9856L66.2746 45.1941L66.4462 42.863L65.4856 43.6545Z" fill="#F6EBAD"/>
<path d="M69.6564 44.7611L67.3279 44.9763L68.1041 44.0029L70.43 43.7877L69.6564 44.7611Z" fill="#F6EBAD"/>
<path d="M66.6345 42.3634L66.9522 44.6766L67.7258 43.7032L67.4107 41.3875L66.6345 42.3634Z" fill="#F6EBAD"/>
<path d="M70.9438 42.5786L68.7126 43.2728L69.2685 42.1585L71.4997 41.4643L70.9438 42.5786Z" fill="#F6EBAD"/>
<path d="M67.4939 40.8597L68.2829 43.0576L68.8388 41.9433L68.0472 39.7454L67.4939 40.8597Z" fill="#F6EBAD"/>
<path d="M71.7517 40.1758L69.7126 41.3183L70.0252 40.1118L72.0642 38.9693L71.7517 40.1758Z" fill="#F6EBAD"/>
<path d="M68.0193 39.2101L69.2489 41.1979L69.5614 39.9914L68.3292 38.0061L68.0193 39.2101Z" fill="#F6EBAD"/>
<path d="M72.0422 37.6552L70.2849 39.1973L70.3387 37.9549L72.096 36.4128L72.0422 37.6552Z" fill="#F6EBAD"/>
<path d="M68.191 37.4886L69.8074 39.1767L69.8612 37.9318L68.2448 36.2462L68.191 37.4886Z" fill="#F6EBAD"/>
<path d="M71.8026 35.1319L70.4039 37.0045L70.199 35.7775L71.5976 33.9049L71.8026 35.1319Z" fill="#F6EBAD"/>
<path d="M67.9977 35.7698L69.9317 37.0839L69.7242 35.8568L67.7927 34.5427L67.9977 35.7698Z" fill="#F6EBAD"/>
<path d="M71.0418 32.7111L70.0658 34.8347L69.6073 33.6769L70.5858 31.5533L71.0418 32.7111Z" fill="#F6EBAD"/>
<path d="M67.4557 34.1252L69.6178 35.009L69.1618 33.8511L66.9998 32.9673L67.4557 34.1252Z" fill="#F6EBAD"/>
<path d="M69.7969 30.503L69.282 32.7829L68.5955 31.7454L69.1103 29.4656L69.7969 30.503Z" fill="#F6EBAD"/>
<path d="M66.5828 32.6318L68.8831 33.0468L68.1966 32.0093L65.8962 31.5943L66.5828 32.6318Z" fill="#F6EBAD"/>
<path d="M68.1187 28.6023L68.088 30.9385L67.1991 30.0675L67.2298 27.7313L68.1187 28.6023Z" fill="#F6EBAD"/>
<path d="M65.4171 31.3535L67.7533 31.2818L66.8644 30.4083L64.5308 30.48L65.4171 31.3535Z" fill="#F6EBAD"/>
<path d="M65.311 46.4416C63.8741 47.3482 62.2359 47.8867 60.5412 48.0093L60.5233 47.497C62.1704 47.4982 63.7926 47.0944 65.247 46.3212L65.311 46.4416Z" fill="#F6EBAD"/>
<path d="M66.7997 28.0285L66.7766 29.7166L66.1362 29.0864L66.1567 27.3983L66.7997 28.0285Z" fill="#F6EBAD"/>
<path d="M64.8452 30.0163L66.5359 29.9651L65.893 29.3349L64.2048 29.3861L64.8452 30.0163Z" fill="#F6EBAD"/>
<path d="M51.7045 46.5978L54.0254 46.3237L53.0647 45.5322L50.7439 45.8063L51.7045 46.5978Z" fill="#F6EBAD"/>
<path d="M54.1551 43.6238L54.3293 45.9523L53.3687 45.1607L53.197 42.8322L54.1551 43.6238Z" fill="#F6EBAD"/>
<path d="M49.9882 44.7304L52.3142 44.9456L51.5406 43.9696L49.2146 43.757L49.9882 44.7304Z" fill="#F6EBAD"/>
<path d="M53.0064 42.3301L52.6913 44.6458L51.9177 43.6724L52.2328 41.3567L53.0064 42.3301Z" fill="#F6EBAD"/>
<path d="M48.6982 42.5479L50.9294 43.2396L50.3735 42.1252L48.1423 41.4336L48.6982 42.5479Z" fill="#F6EBAD"/>
<path d="M52.1493 40.8265L51.3578 43.0269L50.8044 41.9126L51.5934 39.7122L52.1493 40.8265Z" fill="#F6EBAD"/>
<path d="M47.8898 40.1425L49.9289 41.285L49.6189 40.081L47.5798 38.9385L47.8898 40.1425Z" fill="#F6EBAD"/>
<path d="M51.6239 39.1793L50.3917 41.1646L50.0818 39.9606L51.3114 37.9728L51.6239 39.1793Z" fill="#F6EBAD"/>
<path d="M47.6002 37.6244L49.3575 39.164L49.3037 37.9216L47.5464 36.3795L47.6002 37.6244Z" fill="#F6EBAD"/>
<path d="M51.4532 37.4579L49.8368 39.1435L49.783 37.9011L51.3994 36.213L51.4532 37.4579Z" fill="#F6EBAD"/>
<path d="M47.8416 35.0986L49.2376 36.9712L49.4451 35.7441L48.0465 33.8716L47.8416 35.0986Z" fill="#F6EBAD"/>
<path d="M51.6422 35.7365L49.7107 37.0506L49.9156 35.8236L51.8497 34.5095L51.6422 35.7365Z" fill="#F6EBAD"/>
<path d="M48.5994 32.6804L49.5779 34.8015L50.0339 33.6436L49.0553 31.5226L48.5994 32.6804Z" fill="#F6EBAD"/>
<path d="M52.1878 34.0944L50.0232 34.9782L50.4792 33.8204L52.6438 32.9366L52.1878 34.0944Z" fill="#F6EBAD"/>
<path d="M49.8472 30.4723L50.3621 32.7496L51.0486 31.7121L50.5337 29.4348L49.8472 30.4723Z" fill="#F6EBAD"/>
<path d="M53.0618 32.601L50.7615 33.016L51.448 31.9785L53.7483 31.5635L53.0618 32.601Z" fill="#F6EBAD"/>
<path d="M51.5251 28.569L51.5533 30.9052L52.4422 30.0343L52.4115 27.6981L51.5251 28.569Z" fill="#F6EBAD"/>
<path d="M54.224 31.3202L51.8904 31.2485L52.7767 30.3775L55.1129 30.4492L54.224 31.3202Z" fill="#F6EBAD"/>
<path d="M54.556 46.3212C56.0105 47.0941 57.6326 47.4979 59.2797 47.497L59.2617 48.0093C57.5673 47.8859 55.9292 47.3475 54.4919 46.4416L54.556 46.3212Z" fill="#F6EBAD"/>
<path d="M52.8435 27.9952L52.864 29.6859L53.507 29.0557L53.4839 27.3651L52.8435 27.9952Z" fill="#F6EBAD"/>
<path d="M54.7953 29.9856L53.1072 29.9318L53.7502 29.3016L55.4383 29.3529L54.7953 29.9856Z" fill="#F6EBAD"/>
<path d="M59.9705 31.7198L61.2645 35.7025L65.4521 35.7025L62.0643 38.1639L63.3583 42.1465L59.9705 39.6851L56.5827 42.1465L57.8767 38.1639L54.4889 35.7025L58.6765 35.7025L59.9705 31.7198Z" fill="#F6EBAD"/>
</g>
<rect x="30.1797" y="41.9639" width="60.481" height="3.00601" rx="1.50301" fill="#EB2227"/>
<rect x="23.3262" y="34.2685" width="73.3467" height="3.00601" rx="1.50301" fill="#EB2227"/>
<defs>
<radialGradient id="paint0_radial_528_917" cx="0" cy="0" r="1" gradientUnits="userSpaceOnUse" gradientTransform="translate(60 37.987) rotate(90) scale(47.2566 74.6411)">
<stop stop-color="#EFCEAC"/>
<stop offset="1" stop-color="#7FDCD4"/>
</radialGradient>
<clipPath id="clip0_528_917">
<rect width="24.5508" height="20.6443" fill="white" transform="translate(47.5466 27.3651)"/>
</clipPath>
</defs>
</svg>
