<svg width="120" height="76" viewBox="0 0 120 76" fill="none" xmlns="http://www.w3.org/2000/svg">
<rect width="120" height="75.974" fill="#F4E8AC"/>
<circle cx="59.7436" cy="37.7436" r="16.7436" fill="#F6EBAD"/>
<circle cx="59.9448" cy="37.9441" r="14.2163" fill="#EADA95"/>
<g clip-path="url(#clip0_528_684)">
<path d="M67.9397 46.6286L65.6189 46.3545L66.5795 45.5629L68.9004 45.837L67.9397 46.6286Z" fill="#F6EBAD"/>
<path d="M65.4856 43.6545L65.314 45.9856L66.2746 45.1941L66.4462 42.863L65.4856 43.6545Z" fill="#F6EBAD"/>
<path d="M69.6564 44.7611L67.3279 44.9763L68.1041 44.0029L70.43 43.7877L69.6564 44.7611Z" fill="#F6EBAD"/>
<path d="M66.6345 42.3634L66.9522 44.6766L67.7258 43.7032L67.4107 41.3875L66.6345 42.3634Z" fill="#F6EBAD"/>
<path d="M70.9438 42.5786L68.7126 43.2728L69.2685 42.1585L71.4997 41.4643L70.9438 42.5786Z" fill="#F6EBAD"/>
<path d="M67.4939 40.8597L68.2829 43.0576L68.8388 41.9433L68.0472 39.7454L67.4939 40.8597Z" fill="#F6EBAD"/>
<path d="M71.7517 40.1758L69.7126 41.3183L70.0252 40.1118L72.0642 38.9693L71.7517 40.1758Z" fill="#F6EBAD"/>
<path d="M68.0193 39.2101L69.2489 41.1979L69.5614 39.9914L68.3292 38.0061L68.0193 39.2101Z" fill="#F6EBAD"/>
<path d="M72.0422 37.6552L70.2849 39.1973L70.3387 37.9549L72.096 36.4128L72.0422 37.6552Z" fill="#F6EBAD"/>
<path d="M68.191 37.4886L69.8074 39.1767L69.8612 37.9318L68.2448 36.2462L68.191 37.4886Z" fill="#F6EBAD"/>
<path d="M71.8026 35.1319L70.4039 37.0045L70.199 35.7775L71.5976 33.9049L71.8026 35.1319Z" fill="#F6EBAD"/>
<path d="M67.9977 35.7698L69.9317 37.0839L69.7242 35.8568L67.7927 34.5427L67.9977 35.7698Z" fill="#F6EBAD"/>
<path d="M71.0418 32.7111L70.0658 34.8347L69.6073 33.6769L70.5858 31.5533L71.0418 32.7111Z" fill="#F6EBAD"/>
<path d="M67.4557 34.1252L69.6178 35.009L69.1618 33.8511L66.9998 32.9673L67.4557 34.1252Z" fill="#F6EBAD"/>
<path d="M69.7969 30.503L69.282 32.7829L68.5955 31.7454L69.1103 29.4656L69.7969 30.503Z" fill="#F6EBAD"/>
<path d="M66.5828 32.6318L68.8831 33.0468L68.1966 32.0093L65.8962 31.5943L66.5828 32.6318Z" fill="#F6EBAD"/>
<path d="M68.1187 28.6023L68.088 30.9385L67.1991 30.0675L67.2298 27.7313L68.1187 28.6023Z" fill="#F6EBAD"/>
<path d="M65.4171 31.3535L67.7533 31.2818L66.8644 30.4083L64.5308 30.48L65.4171 31.3535Z" fill="#F6EBAD"/>
<path d="M65.311 46.4416C63.8741 47.3482 62.2359 47.8867 60.5412 48.0093L60.5233 47.497C62.1704 47.4982 63.7926 47.0944 65.247 46.3212L65.311 46.4416Z" fill="#F6EBAD"/>
<path d="M66.7997 28.0285L66.7766 29.7166L66.1362 29.0864L66.1567 27.3983L66.7997 28.0285Z" fill="#F6EBAD"/>
<path d="M64.8452 30.0163L66.5359 29.9651L65.893 29.3349L64.2048 29.3861L64.8452 30.0163Z" fill="#F6EBAD"/>
<path d="M51.7045 46.5978L54.0254 46.3237L53.0647 45.5322L50.7439 45.8063L51.7045 46.5978Z" fill="#F6EBAD"/>
<path d="M54.1551 43.6238L54.3293 45.9523L53.3687 45.1607L53.197 42.8322L54.1551 43.6238Z" fill="#F6EBAD"/>
<path d="M49.9882 44.7304L52.3142 44.9456L51.5406 43.9696L49.2146 43.757L49.9882 44.7304Z" fill="#F6EBAD"/>
<path d="M53.0064 42.3301L52.6913 44.6458L51.9177 43.6724L52.2328 41.3567L53.0064 42.3301Z" fill="#F6EBAD"/>
<path d="M48.6982 42.5479L50.9294 43.2396L50.3735 42.1252L48.1423 41.4336L48.6982 42.5479Z" fill="#F6EBAD"/>
<path d="M52.1493 40.8265L51.3578 43.0269L50.8044 41.9126L51.5934 39.7122L52.1493 40.8265Z" fill="#F6EBAD"/>
<path d="M47.8898 40.1425L49.9289 41.285L49.6189 40.081L47.5798 38.9385L47.8898 40.1425Z" fill="#F6EBAD"/>
<path d="M51.6239 39.1793L50.3917 41.1646L50.0818 39.9606L51.3114 37.9728L51.6239 39.1793Z" fill="#F6EBAD"/>
<path d="M47.6002 37.6244L49.3575 39.164L49.3037 37.9216L47.5464 36.3795L47.6002 37.6244Z" fill="#F6EBAD"/>
<path d="M51.4532 37.4579L49.8368 39.1435L49.783 37.9011L51.3994 36.213L51.4532 37.4579Z" fill="#F6EBAD"/>
<path d="M47.8416 35.0986L49.2376 36.9712L49.4451 35.7441L48.0465 33.8716L47.8416 35.0986Z" fill="#F6EBAD"/>
<path d="M51.6422 35.7365L49.7107 37.0506L49.9156 35.8236L51.8497 34.5095L51.6422 35.7365Z" fill="#F6EBAD"/>
<path d="M48.5994 32.6804L49.5779 34.8015L50.0339 33.6436L49.0553 31.5226L48.5994 32.6804Z" fill="#F6EBAD"/>
<path d="M52.1878 34.0944L50.0232 34.9782L50.4792 33.8204L52.6438 32.9366L52.1878 34.0944Z" fill="#F6EBAD"/>
<path d="M49.8472 30.4723L50.3621 32.7496L51.0486 31.7121L50.5337 29.4348L49.8472 30.4723Z" fill="#F6EBAD"/>
<path d="M53.0618 32.601L50.7615 33.016L51.448 31.9785L53.7483 31.5635L53.0618 32.601Z" fill="#F6EBAD"/>
<path d="M51.5251 28.569L51.5533 30.9052L52.4422 30.0343L52.4115 27.6981L51.5251 28.569Z" fill="#F6EBAD"/>
<path d="M54.224 31.3202L51.8904 31.2485L52.7767 30.3775L55.1129 30.4492L54.224 31.3202Z" fill="#F6EBAD"/>
<path d="M54.556 46.3212C56.0105 47.0941 57.6326 47.4979 59.2797 47.497L59.2617 48.0093C57.5673 47.8859 55.9292 47.3475 54.4919 46.4416L54.556 46.3212Z" fill="#F6EBAD"/>
<path d="M52.8435 27.9952L52.864 29.6859L53.507 29.0557L53.4839 27.3651L52.8435 27.9952Z" fill="#F6EBAD"/>
<path d="M54.7953 29.9856L53.1072 29.9318L53.7502 29.3016L55.4383 29.3529L54.7953 29.9856Z" fill="#F6EBAD"/>
<path d="M59.9705 31.7198L61.2645 35.7025L65.4521 35.7025L62.0643 38.1639L63.3583 42.1465L59.9705 39.6851L56.5827 42.1465L57.8767 38.1639L54.4889 35.7025L58.6765 35.7025L59.9705 31.7198Z" fill="#F6EBAD"/>
</g>
<circle cx="102.265" cy="60.9018" r="9.62442" fill="white" stroke="#EB2227" stroke-width="1.79325"/>
<circle cx="102.265" cy="60.9018" r="6.45291" fill="#EB2227"/>
<rect x="95.3516" y="8.65729" width="17.4349" height="17.4349" fill="white"/>
<path d="M22.6462 10.552H7.1845C6.93717 10.552 6.69997 10.4522 6.52509 10.2745C6.3502 10.0969 6.25195 9.85589 6.25195 9.60464C6.25195 9.35339 6.3502 9.11242 6.52509 8.93476C6.69997 8.7571 6.93717 8.65729 7.1845 8.65729H22.6462C22.8935 8.65729 23.1307 8.7571 23.3056 8.93476C23.4804 9.11242 23.5787 9.35339 23.5787 9.60464C23.5787 9.85589 23.4804 10.0969 23.3056 10.2745C23.1307 10.4522 22.8935 10.552 22.6462 10.552Z" fill="#E2D390"/>
<path d="M22.6462 25.188H7.1845C6.93717 25.188 6.69997 25.0882 6.52509 24.9105C6.3502 24.7328 6.25195 24.4919 6.25195 24.2406C6.25195 23.9894 6.3502 23.7484 6.52509 23.5707C6.69997 23.3931 6.93717 23.2933 7.1845 23.2933H22.6462C22.8935 23.2933 23.1307 23.3931 23.3056 23.5707C23.4804 23.7484 23.5787 23.9894 23.5787 24.2406C23.5787 24.4919 23.4804 24.7328 23.3056 24.9105C23.1307 25.0882 22.8935 25.188 22.6462 25.188Z" fill="#E2D390"/>
<path d="M22.6462 39.8239H7.1845C6.93717 39.8239 6.69997 39.7241 6.52509 39.5464C6.3502 39.3688 6.25195 39.1278 6.25195 38.8766C6.25195 38.6253 6.3502 38.3843 6.52509 38.2067C6.69997 38.029 6.93717 37.9292 7.1845 37.9292H22.6462C22.8935 37.9292 23.1307 38.029 23.3056 38.2067C23.4804 38.3843 23.5787 38.6253 23.5787 38.8766C23.5787 39.1278 23.4804 39.3688 23.3056 39.5464C23.1307 39.7241 22.8935 39.8239 22.6462 39.8239Z" fill="#E2D390"/>
<path d="M22.6462 54.4397H7.1845C6.93717 54.4397 6.69997 54.3399 6.52509 54.1623C6.3502 53.9846 6.25195 53.7436 6.25195 53.4924C6.25195 53.2411 6.3502 53.0002 6.52509 52.8225C6.69997 52.6449 6.93717 52.545 7.1845 52.545H22.6462C22.8935 52.545 23.1307 52.6449 23.3056 52.8225C23.4804 53.0002 23.5787 53.2411 23.5787 53.4924C23.5787 53.7436 23.4804 53.9846 23.3056 54.1623C23.1307 54.3399 22.8935 54.4397 22.6462 54.4397Z" fill="#E2D390"/>
<rect x="6.25195" y="13.8844" width="41.1636" height="3.00601" rx="1.50301" fill="white"/>
<rect x="6.25195" y="28.5204" width="41.1636" height="3.00601" rx="1.50301" fill="white"/>
<rect x="6.25195" y="43.1563" width="41.1636" height="3.00601" rx="1.50301" fill="white"/>
<rect x="6.25195" y="57.7722" width="41.1636" height="3.00601" rx="1.50301" fill="white"/>
<g clip-path="url(#clip1_528_684)">
<path d="M101.521 14.8272H97.6993V11.0058H101.521V14.8272Z" stroke="black" stroke-width="0.574093" stroke-linecap="round" stroke-linejoin="round"/>
<path d="M100.247 12.2796H98.9728V13.5534H100.247V12.2796Z" stroke="black" stroke-width="0.574093" stroke-linecap="round" stroke-linejoin="round"/>
<path d="M101.521 23.7438H97.6993V19.9224H101.521V23.7438Z" stroke="black" stroke-width="0.574093" stroke-linecap="round" stroke-linejoin="round"/>
<path d="M100.247 21.1962H98.9728V22.47H100.247V21.1962Z" stroke="black" stroke-width="0.574093" stroke-linecap="round" stroke-linejoin="round"/>
<path d="M110.437 14.8272H106.615V11.0058H110.437V14.8272Z" stroke="black" stroke-width="0.574093" stroke-linecap="round" stroke-linejoin="round"/>
<path d="M109.163 12.2796H107.889V13.5534H109.163V12.2796Z" stroke="black" stroke-width="0.574093" stroke-linecap="round" stroke-linejoin="round"/>
<path d="M110.438 23.5315H105.768V22.8946" stroke="black" stroke-width="0.574093" stroke-linecap="round" stroke-linejoin="round"/>
<path d="M104.493 23.5315H103.644V21.6208H102.795V20.1347" stroke="black" stroke-width="0.574093" stroke-linecap="round" stroke-linejoin="round"/>
<path d="M102.795 23.1069H103.644" stroke="black" stroke-width="0.574093" stroke-linecap="round" stroke-linejoin="round"/>
<path d="M105.342 11.0058V12.2796H104.068V11.0058H102.794V13.5534H104.068V15.8887H101.733" stroke="black" stroke-width="0.574093" stroke-linecap="round" stroke-linejoin="round"/>
<path d="M102.795 14.6149H104.069" stroke="black" stroke-width="0.574093" stroke-linecap="round" stroke-linejoin="round"/>
<path d="M97.6993 16.101H98.7608V16.9502H100.884V18.8609H102.582" stroke="black" stroke-width="0.574093" stroke-linecap="round" stroke-linejoin="round"/>
<path d="M99.8225 18.224H100.884" stroke="black" stroke-width="0.574093" stroke-linecap="round" stroke-linejoin="round"/>
<path d="M100.035 16.101V16.9502" stroke="black" stroke-width="0.574093" stroke-linecap="round" stroke-linejoin="round"/>
<path d="M102.158 17.7994V17.1625H103.857V19.4978H104.918V21.8331H107.466" stroke="black" stroke-width="0.574093" stroke-linecap="round" stroke-linejoin="round"/>
<path d="M106.192 20.9839V21.8331" stroke="black" stroke-width="0.574093" stroke-linecap="round" stroke-linejoin="round"/>
<path d="M106.192 18.4363V19.7101H107.465V18.4363H110.438" stroke="black" stroke-width="0.574093" stroke-linecap="round" stroke-linejoin="round"/>
<path d="M110.437 17.7994V20.9839H109.375V22.2577H110.437" stroke="black" stroke-width="0.574093" stroke-linecap="round" stroke-linejoin="round"/>
<path d="M105.342 15.4641V17.1625H108.527" stroke="black" stroke-width="0.574093" stroke-linecap="round" stroke-linejoin="round"/>
<path d="M106.615 16.101H108.526" stroke="black" stroke-width="0.574093" stroke-linecap="round" stroke-linejoin="round"/>
<path d="M107.252 16.101V17.1625" stroke="black" stroke-width="0.574093" stroke-linecap="round" stroke-linejoin="round"/>
<path d="M107.678 16.101V17.1625" stroke="black" stroke-width="0.574093" stroke-linecap="round" stroke-linejoin="round"/>
<path d="M108.951 19.4978V18.4363" stroke="black" stroke-width="0.574093" stroke-linecap="round" stroke-linejoin="round"/>
<path d="M97.6993 18.6486V18.224H98.5485" stroke="black" stroke-width="0.574093" stroke-linecap="round" stroke-linejoin="round"/>
<path d="M110.438 16.5256V15.8887H109.801" stroke="black" stroke-width="0.574093" stroke-linecap="round" stroke-linejoin="round"/>
<path d="M107.465 22.47V20.9839" stroke="black" stroke-width="0.574093" stroke-linecap="round" stroke-linejoin="round"/>
<path d="M102.795 11.4304H104.069" stroke="black" stroke-width="0.574093" stroke-linecap="round" stroke-linejoin="round"/>
<path d="M106.192 19.2855H107.465" stroke="black" stroke-width="0.574093" stroke-linecap="round" stroke-linejoin="round"/>
</g>
<defs>
<clipPath id="clip0_528_684">
<rect width="24.5508" height="20.6443" fill="white" transform="translate(47.5466 27.3651)"/>
</clipPath>
<clipPath id="clip1_528_684">
<rect width="13.5872" height="13.5872" fill="white" transform="translate(97.2736 10.5812)"/>
</clipPath>
</defs>
</svg>
