<svg width="16" height="16" viewBox="0 0 16 16" fill="none" xmlns="http://www.w3.org/2000/svg">
<path fill-rule="evenodd" clip-rule="evenodd" d="M0.65625 3C0.65625 2.81015 0.810152 2.65625 1 2.65625H15C15.1898 2.65625 15.3438 2.81015 15.3438 3V14.5C15.3438 14.6898 15.1898 14.8438 15 14.8438H1C0.810152 14.8438 0.65625 14.6898 0.65625 14.5V3ZM1.34375 3.34375V14.1562H14.6562V3.34375H1.34375Z" fill="#596481"/>
<path fill-rule="evenodd" clip-rule="evenodd" d="M3.15625 1.5C3.15625 1.31015 3.31015 1.15625 3.5 1.15625H12.5C12.6898 1.15625 12.8438 1.31015 12.8438 1.5C12.8438 1.68985 12.6898 1.84375 12.5 1.84375H3.5C3.31015 1.84375 3.15625 1.68985 3.15625 1.5Z" fill="#596481"/>
<path fill-rule="evenodd" clip-rule="evenodd" d="M9.77291 6.65702C9.89026 6.66486 9.99546 6.73215 10.0518 6.8354L13.0518 12.3354C13.1099 12.4419 13.1075 12.5711 13.0456 12.6755C12.9837 12.7798 12.8713 12.8438 12.75 12.8438H3C2.87425 12.8438 2.75854 12.7751 2.69829 12.6647C2.63803 12.5544 2.64285 12.4199 2.71085 12.3141L4.96085 8.81412C5.01708 8.72664 5.10989 8.66933 5.21328 8.65822C5.31667 8.64711 5.41954 8.6834 5.49307 8.75693L6.95975 10.2236L9.4728 6.79672C9.54235 6.70188 9.65556 6.64918 9.77291 6.65702ZM9.70728 7.63954L7.2772 10.9533C7.21789 11.0342 7.12621 11.0851 7.02621 11.0928C6.92621 11.1004 6.82785 11.064 6.75693 10.9931L5.30852 9.54466L3.62964 12.1563H12.1709L9.70728 7.63954Z" fill="#596481"/>
<path fill-rule="evenodd" clip-rule="evenodd" d="M5.25 5.34375C4.88756 5.34375 4.59375 5.63756 4.59375 6C4.59375 6.36244 4.88756 6.65625 5.25 6.65625C5.61244 6.65625 5.90625 6.36244 5.90625 6C5.90625 5.63756 5.61244 5.34375 5.25 5.34375ZM3.90625 6C3.90625 5.25787 4.50787 4.65625 5.25 4.65625C5.99213 4.65625 6.59375 5.25787 6.59375 6C6.59375 6.74213 5.99213 7.34375 5.25 7.34375C4.50787 7.34375 3.90625 6.74213 3.90625 6Z" fill="#596481"/>
</svg>
