<svg width="244" height="170" viewBox="0 0 244 170" fill="none" xmlns="http://www.w3.org/2000/svg">
<g clip-path="url(#clip0_501_2775)">
<path d="M5.21751 129.565C5.21751 129.565 -9.12315 100.427 9.74568 83.8016C28.6145 67.1764 33.4149 50.7943 51.9517 37.9652C70.4884 25.1361 88.0237 26.9294 136.432 22.9049C184.841 18.8803 181.393 77.5903 201.107 78.2983C201.107 78.2983 241.95 79.0026 243.962 119.256C245.975 159.51 167.04 171.334 130.406 120.643C93.7723 69.9521 47.2724 197.197 5.21751 129.565Z" fill="#F4F8F7"/>
<path d="M61.8915 62.2126L116.963 57.7623L124.086 145.907L69.0144 150.357L61.8915 62.2126Z" stroke="#066132" stroke-width="0.830207"/>
<path d="M151.455 150.763L170.067 64.3123L224.081 75.941L205.468 162.392L151.455 150.763Z" stroke="#066132" stroke-width="0.830207"/>
<path fill-rule="evenodd" clip-rule="evenodd" d="M116.244 79.1653C116.244 79.1653 118.979 75.8174 120.419 77.7866C121.859 79.7558 119.233 81.9666 118.031 81.787C116.829 81.6075 116.244 79.1653 116.244 79.1653Z" fill="#F9D1BD"/>
<path fill-rule="evenodd" clip-rule="evenodd" d="M95.5254 81.4258C95.5254 81.4258 94.4941 80.5135 92.0286 80.5617C89.7375 80.6069 88.7229 80.7952 88.2616 81.1842L85.999 84.9796L91.9322 87.6568C91.9322 87.6568 98.0501 85.381 95.5254 81.4258Z" fill="#228EEB"/>
<path fill-rule="evenodd" clip-rule="evenodd" d="M72.1455 167.592C72.1455 168.316 80.6741 168.905 91.1953 168.905C101.717 168.905 110.245 168.321 110.245 167.592C110.245 166.862 101.717 166.278 91.1953 166.278C80.6741 166.278 72.1455 166.869 72.1455 167.592Z" fill="#BDD7CC"/>
<path fill-rule="evenodd" clip-rule="evenodd" d="M96.2764 165.525H98.7813L99.0594 161.964L96.2764 161.188V165.525Z" fill="#F9D1BD"/>
<path fill-rule="evenodd" clip-rule="evenodd" d="M85.0952 160.457L84.3004 165.042L81.6612 164.91C81.599 163.295 81.4121 161.687 81.1021 160.101C79.8934 153.671 85.0952 160.457 85.0952 160.457Z" fill="#F9D1BD"/>
<path fill-rule="evenodd" clip-rule="evenodd" d="M93.2277 109.701L88.7469 139.448L85.8544 161.139C85.7884 161.634 85.5448 162.089 85.169 162.419C84.7932 162.748 84.3106 162.93 83.8108 162.931H81.8985C81.4218 162.932 80.9622 162.754 80.6102 162.432C80.2582 162.111 80.0393 161.669 79.9964 161.194C79.4943 155.665 77.0659 149.271 80.8898 139.157L81.2321 119.151L88.0017 111.228L93.2277 109.701Z" fill="#217B56"/>
<path fill-rule="evenodd" clip-rule="evenodd" d="M84.501 164.287C84.501 164.287 84.5915 166.243 84.4761 167.577C84.4399 167.823 84.3085 168.045 84.1101 168.195C83.9118 168.346 83.6624 168.412 83.4156 168.38L82.0405 168.114C81.8389 168.079 81.659 167.967 81.5398 167.8C81.472 167.703 81.3939 167.581 81.3048 167.462C80.9136 166.896 81.1457 166.367 81.4508 165.62C81.6403 165.13 81.6977 164.599 81.6172 164.079C82.8959 163.314 84.501 164.287 84.501 164.287Z" fill="#3A3B52"/>
<path fill-rule="evenodd" clip-rule="evenodd" d="M83.9938 104.119L97.8936 104.697C102.041 111.739 101.835 120.266 101.835 120.266C101.835 120.266 102.836 137.345 102.674 138.059L100.607 161.52C100.56 162.054 100.317 162.552 99.9255 162.919C99.534 163.285 99.021 163.494 98.4848 163.506L96.3798 163.552C95.6302 156.278 91.7721 149.476 95.0996 139.217L91.5451 120.993C86.8148 120.896 81.3874 124.557 80.456 116.778C79.3941 107.888 83.9938 104.119 83.9938 104.119Z" fill="#217B56"/>
<path fill-rule="evenodd" clip-rule="evenodd" d="M98.7957 164.574L101.157 166.163C101.61 166.54 102.174 166.758 102.763 166.787L103.363 166.815C103.494 166.821 103.619 166.868 103.722 166.95C103.824 167.031 103.898 167.143 103.933 167.269V167.269C103.957 167.353 103.962 167.441 103.95 167.527C103.937 167.613 103.907 167.695 103.86 167.769C103.814 167.842 103.753 167.905 103.68 167.953C103.608 168.002 103.526 168.034 103.441 168.049L96.8134 167.928C96.8134 167.928 95.25 167.613 96.2594 164.648L98.7957 164.574Z" fill="#3A3B52"/>
<path fill-rule="evenodd" clip-rule="evenodd" d="M97.4231 140.334C96.9122 142.458 97.8078 159.259 98.0428 163.426L96.9582 163.508C96.5182 163.542 96.0817 163.408 95.7373 163.132C95.3929 162.856 95.1666 162.459 95.1043 162.022C94.1737 155.321 92.0213 148.716 95.1043 139.217L91.5498 120.993H94.173C94.173 120.993 98.0056 137.926 97.4231 140.334Z" fill="#066132"/>
<path fill-rule="evenodd" clip-rule="evenodd" d="M97.3507 82.5775L91.5014 81.4353L90.4322 81.3929L83.5319 83.0717C82.4873 83.4941 81.6332 84.2836 81.13 85.2917C80.6269 86.2999 80.5095 87.4571 80.7999 88.5458L83.1677 97.3955C81.105 102.619 80.6131 108.125 80.4189 113.646C85.539 114.79 95.7522 115.94 100.304 113.652C101.295 113.154 101.898 112.124 101.931 111.016C102.241 100.427 100.834 89.6632 97.3507 82.5775Z" fill="#BDD7CC"/>
<path fill-rule="evenodd" clip-rule="evenodd" d="M95.817 82.2776C95.817 82.2776 96.6929 87.3655 93.5595 87.9567C90.4262 88.5479 87.9395 81.9995 87.9395 81.9995L90.3057 81.4258L93.5946 81.8155L95.817 82.2776Z" fill="white"/>
<path fill-rule="evenodd" clip-rule="evenodd" d="M91.134 80.4667C91.134 80.4667 88.0991 80.5236 87.7868 77.6581C87.4744 74.7926 90.7282 74.405 90.7282 74.405L91.134 80.4667Z" fill="#541D1D"/>
<path fill-rule="evenodd" clip-rule="evenodd" d="M93.8828 77.8895C93.8828 77.8895 93.8704 80.3755 93.8609 82.4345C93.8597 82.7039 93.7867 82.9681 93.6496 83.2001C93.5125 83.432 93.3162 83.6233 93.0808 83.7544C92.8454 83.8854 92.5794 83.9515 92.31 83.9458C92.0406 83.9401 91.7776 83.8629 91.548 83.722L91.1049 83.4498C90.7908 83.2573 90.5379 82.9795 90.3756 82.6489C90.2133 82.3182 90.1483 81.9482 90.1882 81.582C90.3984 79.6653 90.7801 76.1758 90.7801 76.1758L93.8828 77.8895V77.8895Z" fill="#F9D1BD"/>
<path fill-rule="evenodd" clip-rule="evenodd" d="M93.873 79.993L93.8672 81.1841L92.3242 79.9397L93.873 79.993Z" fill="#F9D1BD"/>
<path fill-rule="evenodd" clip-rule="evenodd" d="M93.6963 72.8723C93.6963 72.8723 95.448 73.1643 95.2342 75.062C95.0203 76.9596 93.5605 76.6348 93.5605 76.6348L93.6963 72.8723Z" fill="#541D1D"/>
<path fill-rule="evenodd" clip-rule="evenodd" d="M89.2984 75.6576C89.194 75.3238 89.2265 74.9621 89.3887 74.6523C89.5509 74.3424 89.8295 74.1096 90.1633 74.0051L92.5829 73.2483C93.2777 73.0293 93.9127 73.4599 94.2353 74.1132C94.6156 74.8839 95.0163 76.605 95.1557 77.8896C95.2338 78.6136 94.8908 79.4106 94.1959 79.6281C93.4536 79.8602 91.0093 79.8471 90.3794 78.5895C89.9006 77.6312 89.6181 76.6809 89.2984 75.6576V75.6576Z" fill="#F9D1BD"/>
<path fill-rule="evenodd" clip-rule="evenodd" d="M88.0501 77.9515C88.0501 77.9515 87.264 75.251 88.196 74.054C89.4492 72.4482 91.298 71.3979 93.6949 72.8723C93.7365 72.9557 93.7582 73.0477 93.7582 73.1409C93.7582 73.2341 93.7365 73.326 93.6949 73.4095C93.1636 74.5561 91.3389 77.3282 88.0493 77.9515H88.0501Z" fill="#541D1D"/>
<path fill-rule="evenodd" clip-rule="evenodd" d="M89.39 78.6604C89.7549 79.1363 90.3666 79.2786 90.76 78.9779C91.1534 78.6772 91.1789 78.048 90.8162 77.5722C90.4534 77.0963 89.8396 76.9547 89.4455 77.2554C89.0513 77.5561 89.0265 78.1816 89.39 78.6604Z" fill="#F9D1BD"/>
<path fill-rule="evenodd" clip-rule="evenodd" d="M94.3102 77.7998L93.0957 78.1531C93.0957 78.1531 93.3599 78.9756 93.9241 78.737C94.4883 78.4983 94.3102 77.7998 94.3102 77.7998Z" fill="white"/>
<path fill-rule="evenodd" clip-rule="evenodd" d="M92.4609 84.757C92.4609 84.84 92.4855 84.9211 92.5317 84.9901C92.5778 85.0591 92.6433 85.1129 92.72 85.1447C92.7967 85.1765 92.8811 85.1848 92.9625 85.1686C93.0439 85.1524 93.1187 85.1124 93.1774 85.0537C93.2361 84.995 93.276 84.9203 93.2922 84.8388C93.3084 84.7574 93.3001 84.673 93.2683 84.5964C93.2366 84.5197 93.1828 84.4541 93.1138 84.408C93.0448 84.3619 92.9636 84.3373 92.8806 84.3373C92.7693 84.3373 92.6626 84.3815 92.5839 84.4602C92.5051 84.5389 92.4609 84.6457 92.4609 84.757Z" fill="#541D1D"/>
<path d="M93.3015 86.9072C93.5333 86.9072 93.7212 86.7193 93.7212 86.4876C93.7212 86.2558 93.5333 86.0679 93.3015 86.0679C93.0697 86.0679 92.8818 86.2558 92.8818 86.4876C92.8818 86.7193 93.0697 86.9072 93.3015 86.9072Z" fill="#541D1D"/>
<path fill-rule="evenodd" clip-rule="evenodd" d="M88.2606 81.1842C88.2606 81.1842 87.7395 89.5705 87.7395 95.573C87.7395 107.095 93.8807 125.334 92.8801 140.733C92.8801 140.733 81.675 136.552 78.7744 138.661L79.6123 123.749C79.6123 123.749 79.2284 115.137 79.6123 109.922C79.9962 104.708 79.8517 95.9555 79.8517 95.9555L80.2969 85.1759C80.2969 85.1759 81.6487 83.3738 84.3332 82.6316C86.7534 81.9615 88.2606 81.1842 88.2606 81.1842Z" fill="#228EEB"/>
<path fill-rule="evenodd" clip-rule="evenodd" d="M95.5254 81.4258C95.5254 81.4258 99.6127 91.4806 99.6791 96.7532C99.7455 102.026 101.411 137.411 101.411 137.411L105.431 135.174C105.431 135.174 104.472 115.413 104.92 110.755C105.062 109.28 104.719 101.909 104.285 98.3809C103.348 90.7668 101.457 85.1029 99.3609 82.9074L95.5254 81.4258Z" fill="#228EEB"/>
<path fill-rule="evenodd" clip-rule="evenodd" d="M99.2852 83.0892L109.576 89.0683L116.604 78.6581L119.163 82.9198C119.163 82.9198 117.016 94.5716 113.154 96.3438C109.293 98.1159 99.6428 98.148 99.6428 98.148L99.2852 83.0892Z" fill="#228EEB"/>
<path fill-rule="evenodd" clip-rule="evenodd" d="M81.915 83.7388C78.8882 86.1022 75.1227 90.9573 73.1615 97.9328C72.801 99.2159 71.7215 103.611 75.0081 104.343L75.9278 103.87C77.4408 104.381 79.0517 104.297 79.8691 102.775C81.4697 99.7728 83.2149 94.1316 83.8178 91.3887C86.0833 81.0624 81.915 83.7388 81.915 83.7388Z" fill="#228EEB"/>
<path d="M104.537 100.976C104.537 100.976 103.915 93.5418 102.177 89.6056" stroke="white" stroke-opacity="0.6" stroke-width="0.476611" stroke-linecap="round" stroke-linejoin="round"/>
<path d="M84.9092 83.4271L83.8545 89.6231L86.0536 91.7667L84.9544 95.141L87.7411 98.3845" stroke="white" stroke-opacity="0.6" stroke-width="0.476611" stroke-linecap="round" stroke-linejoin="round"/>
<path d="M98.4023 82.9148L100.479 87.659L99.3607 90.5442L100.955 91.9478C100.955 91.9478 100.226 97.2555 100.135 98.1861" stroke="white" stroke-opacity="0.6" stroke-width="0.476611" stroke-linecap="round" stroke-linejoin="round"/>
<path d="M86.8167 86.6203C86.8167 86.6203 85.6489 81.6571 89.4493 80.5623" stroke="#20212E" stroke-width="0.476611" stroke-linecap="round" stroke-linejoin="round"/>
<path d="M94.002 80.5616C94.002 80.5616 96.35 81.2222 96.8061 83.9446C97.2623 86.6671 97.3076 90.9887 97.3076 90.9887" stroke="#20212E" stroke-width="0.476611" stroke-linecap="round" stroke-linejoin="round"/>
<path d="M98.6401 93.5775C99.1629 92.8418 98.9904 91.8216 98.2547 91.2987C97.519 90.7759 96.4988 90.9485 95.976 91.6842C95.4531 92.4198 95.6257 93.4401 96.3614 93.9629C97.0971 94.4857 98.1173 94.3132 98.6401 93.5775Z" stroke="#20212E" stroke-width="0.476611" stroke-linecap="round" stroke-linejoin="round"/>
<path d="M98.1663 92.6942C98.2622 92.2898 98.0122 91.8842 97.6078 91.7883C97.2034 91.6924 96.7978 91.9425 96.7019 92.3469C96.6061 92.7513 96.8561 93.1568 97.2605 93.2527C97.6649 93.3486 98.0705 93.0985 98.1663 92.6942Z" fill="#CC93CC"/>
<path d="M89.0077 89.4479C88.3924 88.1341 87.6757 87.1459 86.8181 86.6204C86.8181 86.6204 86.0678 89.0472 86.2962 89.9997" stroke="#20212E" stroke-width="0.476611" stroke-linecap="round" stroke-linejoin="round"/>
<path d="M86.5205 90.8814C86.3762 90.9227 86.2215 90.9053 86.0901 90.833C85.9587 90.7606 85.8612 90.6392 85.819 90.4953C85.7775 90.351 85.7948 90.1962 85.8672 90.0648C85.9395 89.9333 86.0611 89.8359 86.2051 89.7938V89.7938C86.3493 89.7525 86.5041 89.7699 86.6355 89.8422C86.7669 89.9146 86.8644 90.036 86.9066 90.18V90.18C86.9479 90.3242 86.9305 90.4789 86.8582 90.6103C86.7858 90.7417 86.6644 90.8392 86.5205 90.8814V90.8814Z" fill="#20212E"/>
<path d="M89.2831 89.8778C89.1389 89.9189 88.9843 89.9014 88.853 89.8291C88.7216 89.7568 88.6241 89.6355 88.5817 89.4917V89.4917C88.5402 89.3474 88.5575 89.1926 88.6299 89.0612C88.7022 88.9297 88.8238 88.8323 88.9678 88.7902V88.7902C89.1119 88.7489 89.2666 88.7662 89.398 88.8384C89.5294 88.9106 89.6269 89.0318 89.6692 89.1756V89.1756C89.7106 89.3199 89.6932 89.4747 89.6209 89.6063C89.5486 89.7378 89.4272 89.8354 89.2831 89.8778V89.8778Z" fill="#20212E"/>
<path d="M86.4512 90.5435C86.4512 90.5435 88.9204 96.1781 90.0831 96.1555C91.2457 96.1329 91.8632 95.9183 91.8632 95.9183" stroke="#20212E" stroke-width="0.476611" stroke-linecap="round" stroke-linejoin="round"/>
<path d="M92.2084 96.3453L91.8748 96.395C91.7312 96.4157 91.5853 96.3787 91.4689 96.2921C91.3525 96.2055 91.2751 96.0764 91.2537 95.933V95.933C91.233 95.7895 91.2699 95.6437 91.3563 95.5273C91.4427 95.4109 91.5716 95.3335 91.715 95.3118L92.0485 95.2629C92.192 95.242 92.3379 95.2788 92.4544 95.3653C92.5708 95.4517 92.6482 95.5808 92.6696 95.7242C92.6904 95.8677 92.6535 96.0135 92.5671 96.1299C92.4806 96.2462 92.3517 96.3237 92.2084 96.3453V96.3453Z" fill="#20212E"/>
<path d="M89.3145 89.6056C89.3145 89.6056 91.1881 95.4651 90.3006 96.2168C89.413 96.9686 89.2627 96.9715 89.2627 96.9715" stroke="#20212E" stroke-width="0.476611" stroke-linecap="round" stroke-linejoin="round"/>
<path d="M89.2304 97.6853L89.5144 97.5035C89.6363 97.425 89.7222 97.3013 89.7532 97.1596C89.7842 97.018 89.7579 96.8697 89.68 96.7474V96.7474C89.6013 96.6256 89.4777 96.5399 89.3361 96.5088C89.1944 96.4778 89.0463 96.504 88.9239 96.5817L88.64 96.7642C88.5182 96.8429 88.4324 96.9665 88.4014 97.1081C88.3704 97.2498 88.3966 97.3979 88.4743 97.5203V97.5203C88.553 97.6421 88.6767 97.7278 88.8183 97.7588C88.96 97.7897 89.1082 97.7632 89.2304 97.6853V97.6853Z" fill="#20212E"/>
<path d="M83.8545 123.084C83.8545 123.084 87.4623 134.88 91.0701 139.102" stroke="white" stroke-opacity="0.6" stroke-width="0.476611" stroke-linecap="round" stroke-linejoin="round"/>
<path fill-rule="evenodd" clip-rule="evenodd" d="M90.2442 107.689C90.2442 107.689 94.4556 108.679 93.3177 110.836C92.1799 112.994 89.0385 111.604 88.6721 110.445C88.3057 109.286 90.2442 107.689 90.2442 107.689Z" fill="#F9D1BD"/>
<path fill-rule="evenodd" clip-rule="evenodd" d="M77.3359 100.976L90.2022 107.423C90.2022 107.423 88.5118 112.062 88.0505 111.741C87.7476 111.53 82.8166 110.258 77.911 109.268C76.6094 109.005 75.4254 108.334 74.5309 107.352C73.6364 106.371 73.0778 105.13 72.9362 103.809L72.7012 101.623L77.3359 100.976Z" fill="#228EEB"/>
<path d="M81.7234 95.4884L79.1367 102.004L84.8728 104.753" stroke="white" stroke-opacity="0.6" stroke-width="0.476611" stroke-linecap="round" stroke-linejoin="round"/>
<path d="M214.047 44.1903C214.223 43.4422 213.76 42.6925 213.012 42.5159C212.264 42.3394 211.514 42.8027 211.337 43.5509C211.161 44.299 211.624 45.0487 212.372 45.2252C213.12 45.4018 213.87 44.9385 214.047 44.1903Z" stroke="#5B5D82" stroke-width="0.437927" stroke-linecap="round" stroke-linejoin="round"/>
<path d="M51.273 155.935H48.4775V158.73H51.273V155.935Z" stroke="#5B5D82" stroke-width="0.437927" stroke-linecap="round" stroke-linejoin="round"/>
<path d="M226.012 143.433L231.141 142.158L229.214 146.635L226.012 143.433Z" stroke="#5B5D82" stroke-width="0.437927" stroke-linecap="round" stroke-linejoin="round"/>
<path fill-rule="evenodd" clip-rule="evenodd" d="M142.832 80.0697C142.832 80.0697 143.402 83.6694 144.752 84.4409C147.068 85.7635 148.025 86.9064 147.988 89.1632C147.929 92.7739 150.902 91.9273 148.96 96.5854C147.769 99.4407 141.264 95.5993 137.195 95.1869C130.418 94.5001 125.982 95.2519 129.896 85.5219C130.572 83.8431 133.139 82.4848 133.782 80.9433C134.488 79.2529 137.257 78.1005 137.257 78.1005L142.832 80.0697Z" fill="#3D2213"/>
<path fill-rule="evenodd" clip-rule="evenodd" d="M124 108.691C124.236 109.447 123.731 110.236 122.67 110.715C121.61 111.194 120.303 111.518 120.008 110.418C119.498 108.504 122.18 107.327 123.147 107.625C123.463 107.718 123.88 108.303 124 108.691Z" fill="#F9D1BD"/>
<path fill-rule="evenodd" clip-rule="evenodd" d="M135.559 86.1715C135.559 86.1715 135.365 104.885 123.83 109.609L122.62 107.585C122.62 107.585 126.739 105.464 130.271 89.699C130.976 86.5416 135.559 86.1715 135.559 86.1715Z" fill="#F9BDBE"/>
<path d="M159.155 168.812C167.48 168.812 174.229 168.228 174.229 167.508C174.229 166.787 167.48 166.203 159.155 166.203C150.831 166.203 144.082 166.787 144.082 167.508C144.082 168.228 150.831 168.812 159.155 168.812Z" fill="#BDD7CC"/>
<path d="M138.868 168.612C148.644 168.612 156.569 168.043 156.569 167.341C156.569 166.639 148.644 166.071 138.868 166.071C129.093 166.071 121.168 166.639 121.168 167.341C121.168 168.043 129.093 168.612 138.868 168.612Z" fill="#BDD7CC"/>
<path fill-rule="evenodd" clip-rule="evenodd" d="M158.018 82.3783C148.649 82.8118 145.744 96.1066 144.629 104.532C144.534 105.248 143.228 107.581 143.826 108.126C148.925 112.772 157.926 89.9267 157.926 89.9267L158.018 82.3783Z" fill="#217B56"/>
<path fill-rule="evenodd" clip-rule="evenodd" d="M134.726 110.51L139.403 139.461L144.001 164.376L146.566 164.269C146.747 155.682 151.268 150.152 147.034 139.242L146.488 119.793L139.822 112.037L134.726 110.51Z" fill="#F9D1BD"/>
<path fill-rule="evenodd" clip-rule="evenodd" d="M144.09 106.926L130.964 107.474C127.461 114.148 128.168 122.23 128.168 122.23C128.168 122.23 128.25 138.421 128.446 139.095L133.555 164.167L135.954 164.24C136.225 157.345 139.458 149.919 135.689 140.195L137.955 122.923C142.428 122.83 147.787 126.301 148.2 118.928C148.675 110.496 144.09 106.926 144.09 106.926Z" fill="#F9D1BD"/>
<path fill-rule="evenodd" clip-rule="evenodd" d="M137.385 77.9077C137.385 77.9077 133.722 79.7747 135.376 83.3168C137.031 86.8589 137.751 84.2015 137.751 84.2015C137.751 84.2015 139.184 79.2485 137.385 77.9077Z" fill="#3D2213"/>
<path fill-rule="evenodd" clip-rule="evenodd" d="M135.558 86.1714L138.418 85.6605L139.958 85.6539L145.911 87.448C146.887 87.8796 147.672 88.6533 148.118 89.6234C148.563 90.5935 148.639 91.6929 148.33 92.7148L145.821 101.018C147.615 106.023 154.989 133.086 155.008 138.315C150.512 140.228 146.183 140.65 139.899 141.045C139.174 141.09 136.245 119.593 135.559 119.605C134.241 119.629 135.229 141.117 134.125 141.006C131.797 140.773 127.478 138.913 126.747 137.952C126.638 128.919 127.101 108.701 129.784 101.845C130.149 100.916 130.199 89.5522 131.979 88.464C132.575 88.1078 134.871 86.2831 135.558 86.1714Z" fill="#F9BDBE"/>
<path fill-rule="evenodd" clip-rule="evenodd" d="M137.06 82.4645C137.06 82.4645 137.279 84.7322 137.457 86.6102C137.48 86.8558 137.569 87.0907 137.713 87.2908C137.858 87.4909 138.053 87.6491 138.278 87.7491C138.504 87.8491 138.752 87.8874 138.997 87.86C139.242 87.8327 139.476 87.7406 139.674 87.5933L140.056 87.308C140.327 87.1062 140.535 86.8317 140.655 86.5164C140.776 86.201 140.804 85.8579 140.737 85.5271L139.749 80.6427L137.06 82.4674V82.4645Z" fill="#F9D1BD"/>
<path fill-rule="evenodd" clip-rule="evenodd" d="M138.316 83.4366C138.316 83.4366 139.572 83.8906 140.297 83.5885C140.297 83.5885 139.202 84.8679 138.07 84.6877L138.316 83.4366Z" fill="#F9D1BD"/>
<path fill-rule="evenodd" clip-rule="evenodd" d="M141.497 80.3236C141.582 80.0147 141.541 79.6845 141.383 79.4057C141.225 79.1268 140.963 78.9222 140.654 78.8368L138.415 78.2179C137.771 78.0398 137.203 78.4522 136.928 79.0602C136.603 79.7784 136.289 81.3666 136.198 82.5468C136.148 83.2125 136.49 83.9336 137.13 84.1102C137.817 84.3 140.056 84.2146 140.593 83.0417C141.003 82.149 141.232 81.2703 141.494 80.3236H141.497Z" fill="#F9D1BD"/>
<path fill-rule="evenodd" clip-rule="evenodd" d="M142.712 82.3863C142.712 82.3863 143.349 79.8872 142.458 78.8209C141.261 77.3881 139.539 76.4853 137.385 77.9078C137.385 77.9078 136.64 81.8046 142.714 82.3863H142.712Z" fill="#3D2213"/>
<path fill-rule="evenodd" clip-rule="evenodd" d="M141.506 83.0761C141.189 83.5235 140.631 83.6724 140.261 83.4089C139.892 83.1454 139.85 82.5703 140.167 82.1236C140.485 81.6769 141.043 81.528 141.412 81.7908C141.782 82.0535 141.825 82.6294 141.506 83.0761Z" fill="#F9D1BD"/>
<path fill-rule="evenodd" clip-rule="evenodd" d="M133.556 164.167L131.349 165.671C130.924 166.029 130.392 166.237 129.837 166.262L129.268 166.288C129.145 166.293 129.027 166.338 128.932 166.415C128.836 166.493 128.768 166.599 128.737 166.718V166.718C128.717 166.798 128.713 166.882 128.727 166.964C128.741 167.045 128.771 167.123 128.816 167.193C128.861 167.262 128.92 167.321 128.989 167.367C129.058 167.412 129.136 167.443 129.218 167.457L135.49 167.342C135.49 167.342 136.966 167.044 135.955 164.237L133.556 164.167Z" fill="#663A1F"/>
<path fill-rule="evenodd" clip-rule="evenodd" d="M137.242 84.1549L137.347 85.241L138.652 84.2556L137.242 84.1549Z" fill="#A12A2A"/>
<path fill-rule="evenodd" clip-rule="evenodd" d="M144.024 163.395C144.024 163.395 143.732 165.54 143.858 166.838C143.898 167.077 144.028 167.292 144.221 167.438C144.414 167.584 144.656 167.651 144.897 167.625L146.231 167.377C146.328 167.362 146.42 167.327 146.503 167.275C146.586 167.224 146.658 167.156 146.715 167.076L146.939 166.749C147.314 166.203 147.085 165.687 146.776 164.958C146.561 164.425 146.372 163.883 146.211 163.331C144.96 162.58 144.024 163.395 144.024 163.395Z" fill="#663A1F"/>
<path fill-rule="evenodd" clip-rule="evenodd" d="M136.975 82.4812L138.098 82.7673C138.098 82.7673 137.879 83.5286 137.357 83.3271C136.836 83.1257 136.975 82.4812 136.975 82.4812Z" fill="white"/>
<path d="M133.742 90.234C133.742 90.234 131.492 93.2827 131.375 94.5505C131.259 95.8183 130.784 99.0758 130.784 99.0758" stroke="#EF4E52" stroke-width="0.270785" stroke-linecap="round" stroke-linejoin="round"/>
<path d="M144.691 97.0386C144.661 96.9445 143.969 94.3541 143.969 94.3541L144.343 93.4454" stroke="#EF4E52" stroke-width="0.270785" stroke-linecap="round" stroke-linejoin="round"/>
<path fill-rule="evenodd" clip-rule="evenodd" d="M134.565 93.8856L135.561 92.2258C135.702 91.9889 135.744 91.7057 135.677 91.438C135.61 91.1703 135.44 90.94 135.204 90.7975C134.967 90.6561 134.684 90.6143 134.416 90.6812C134.148 90.748 133.918 90.9182 133.776 91.1544L132.779 92.8141C132.638 93.051 132.596 93.3343 132.663 93.602C132.73 93.8696 132.9 94.0999 133.136 94.2425V94.2425C133.373 94.3839 133.656 94.4257 133.924 94.3588C134.192 94.2919 134.422 94.1218 134.565 93.8856V93.8856Z" fill="#FDE9E9"/>
<path fill-rule="evenodd" clip-rule="evenodd" d="M157.406 165.002H154.919L154.644 161.468L157.406 160.697V165.002Z" fill="#F9D1BD"/>
<path fill-rule="evenodd" clip-rule="evenodd" d="M168.503 159.972L169.294 164.523L171.914 164.392C171.976 162.789 172.161 161.193 172.469 159.618C173.666 153.238 168.503 159.972 168.503 159.972Z" fill="#F9D1BD"/>
<path fill-rule="evenodd" clip-rule="evenodd" d="M160.428 109.596L164.875 139.12L167.746 160.651C167.811 161.144 168.054 161.596 168.427 161.923C168.801 162.25 169.281 162.431 169.778 162.431H171.672C172.145 162.43 172.601 162.253 172.95 161.934C173.299 161.615 173.516 161.178 173.56 160.707C174.058 155.219 176.468 148.873 172.674 138.835L172.334 118.982L165.619 111.118L160.428 109.596Z" fill="#217B56"/>
<path fill-rule="evenodd" clip-rule="evenodd" d="M169.092 163.773C169.092 163.773 169.002 165.714 169.116 167.038C169.153 167.282 169.284 167.502 169.481 167.65C169.677 167.799 169.924 167.864 170.169 167.833L171.534 167.569C171.734 167.535 171.913 167.423 172.031 167.257L172.264 166.921C172.652 166.36 172.422 165.836 172.118 165.096C171.929 164.609 171.872 164.08 171.953 163.563C170.685 162.807 169.092 163.773 169.092 163.773Z" fill="#3D2213"/>
<path fill-rule="evenodd" clip-rule="evenodd" d="M169.597 104.057L155.802 104.63C151.685 111.62 151.887 120.082 151.887 120.082C151.887 120.082 150.894 137.035 151.055 137.745L153.106 161.028C153.153 161.558 153.394 162.052 153.782 162.416C154.171 162.78 154.68 162.987 155.212 162.999L157.302 163.045C158.045 155.825 161.874 149.074 158.572 138.891L162.098 120.807C166.793 120.709 172.18 124.344 173.104 116.623C174.162 107.796 169.597 104.057 169.597 104.057Z" fill="#217B56"/>
<path fill-rule="evenodd" clip-rule="evenodd" d="M154.905 164.059L152.562 165.636C152.111 166.01 151.55 166.227 150.965 166.255L150.368 166.282C150.238 166.288 150.113 166.335 150.012 166.416C149.91 166.497 149.837 166.608 149.802 166.733V166.733C149.779 166.816 149.773 166.904 149.786 166.989C149.798 167.074 149.829 167.156 149.875 167.229C149.921 167.302 149.982 167.365 150.053 167.413C150.125 167.461 150.206 167.493 150.291 167.508L156.869 167.387C156.869 167.387 158.42 167.074 157.418 164.132L154.905 164.059Z" fill="#3D2213"/>
<path fill-rule="evenodd" clip-rule="evenodd" d="M156.267 140.002C156.778 142.111 155.885 158.786 155.652 162.92L156.728 163.002C157.165 163.036 157.598 162.903 157.94 162.629C158.282 162.355 158.506 161.961 158.568 161.528C159.492 154.877 161.629 148.321 158.568 138.893L162.099 120.806H159.494C159.494 120.806 155.689 137.61 156.267 140.002Z" fill="#066132"/>
<path fill-rule="evenodd" clip-rule="evenodd" d="M152.605 112.03L152.309 114.915C152.309 114.915 166.308 118.818 173.475 114.605V111.041L152.605 112.03Z" fill="#BDD7CC"/>
<path fill-rule="evenodd" clip-rule="evenodd" d="M170.598 79.425L164.567 82.2453L165.126 85.332L171.107 83.4116L170.598 79.425Z" fill="#F9D1BD"/>
<path fill-rule="evenodd" clip-rule="evenodd" d="M169.368 82.9921C172.961 84.7745 176.275 87.8349 179.329 94.3148C179.891 95.5066 181.646 99.6166 178.184 100.908L177.125 100.606C175.555 101.373 174.829 100.704 173.745 99.3553C171.61 96.6993 167.938 92.3528 166.918 89.7742C163.085 80.0748 169.368 82.9921 169.368 82.9921Z" fill="#217B56"/>
<path fill-rule="evenodd" clip-rule="evenodd" d="M171.49 78.6924C169.977 78.534 168.219 80.0944 166.818 80.917L167.207 84.5431L171.109 82.9979L171.49 78.6924Z" fill="#FCA19A"/>
<path fill-rule="evenodd" clip-rule="evenodd" d="M156.341 82.6754L162.146 81.5419L163.209 81.5032L170.056 83.1636C171.094 83.5831 171.942 84.3674 172.441 85.3688C172.941 86.3702 173.056 87.5196 172.767 88.6005L170.418 97.3839C172.461 102.566 172.95 108.033 173.145 113.514C168.065 114.649 157.927 115.791 153.409 113.52C152.426 113.027 151.828 112.003 151.796 110.903C151.487 100.391 152.884 89.7085 156.341 82.6754Z" fill="#217B56"/>
<path fill-rule="evenodd" clip-rule="evenodd" d="M161.448 114.756C161.448 114.756 172.19 102.323 170.808 90.8472L173.263 98.7642C173.263 98.7642 173.715 106.197 174.471 110.28C174.614 111.065 174.449 111.874 174.013 112.542C173.576 113.209 172.901 113.684 172.125 113.868C170.01 114.372 166.08 114.759 161.448 114.756Z" fill="#066132"/>
<path fill-rule="evenodd" clip-rule="evenodd" d="M170.316 97.7255L171.291 92.0244L171.675 92.12L171.96 95.9825C171.96 95.9825 171.836 97.1314 170.316 97.7255Z" fill="#9E8781"/>
<path d="M166.543 85.2744H164.369C164.093 85.2744 163.869 85.4983 163.869 85.7744V86.5072C163.869 86.7833 164.093 87.0071 164.369 87.0071H166.543C166.819 87.0071 167.043 86.7833 167.043 86.5072V85.7744C167.043 85.4983 166.819 85.2744 166.543 85.2744Z" fill="#F9D1BD"/>
<path fill-rule="evenodd" clip-rule="evenodd" d="M167.615 92.3163L164.89 97.3291L164.425 105.464H165.52C165.52 105.464 167.887 101.882 167.601 98.2378L173.477 92.9491L167.615 92.3163Z" fill="#F9D1BD"/>
<path fill-rule="evenodd" clip-rule="evenodd" d="M171.989 93.5161L167.837 97.9837C167.496 98.351 167.286 98.8214 167.241 99.3208L166.537 107.118H167.632C167.632 107.118 170.373 103.761 170.467 100.349L176.896 95.3948L171.989 93.5161Z" fill="#F9D1BD"/>
<path fill-rule="evenodd" clip-rule="evenodd" d="M168.564 90.8915C168.564 90.8915 166.375 94.4964 165.649 95.4693C165.386 95.8233 164.787 96.6671 165.742 96.4868C167.869 96.0868 169.784 97.1437 170.731 98.7969C171.471 100.088 173.225 100.33 174.234 99.2348L176.47 96.8036C176.47 96.8036 179.061 94.7738 178.012 90.685C176.956 86.575 168.564 90.8915 168.564 90.8915Z" fill="#A12A2A"/>
<path fill-rule="evenodd" clip-rule="evenodd" d="M175.004 73.0585C174.993 73.0374 175.741 71.5827 178.025 72.6936C180.309 73.8045 178.617 77.467 179.291 78.8859C179.291 78.8859 177.175 79.6158 177.148 76.0496C177.121 72.4834 175.004 73.0585 175.004 73.0585Z" fill="#3B2114"/>
<path fill-rule="evenodd" clip-rule="evenodd" d="M174.373 77.4954C174.373 77.4954 176.463 77.6888 176.823 75.7284C177.184 73.7679 174.96 73.3358 174.96 73.3358L174.373 77.4954Z" fill="#3D2213"/>
<path fill-rule="evenodd" clip-rule="evenodd" d="M170.807 78.7282L173.199 78.1597H174.456L177.148 79.1465C178.233 79.5165 178.562 81.9258 178.26 82.8805L177.716 85.2891C178.751 87.5014 178.766 89.6071 178.865 91.9456C175.929 92.4996 170.121 92.5091 168.565 90.8917C168.32 86.2139 168.981 81.8653 170.807 78.7282Z" fill="#FCA19A"/>
<path fill-rule="evenodd" clip-rule="evenodd" d="M172.891 76.4676C172.891 76.4676 172.885 77.7734 172.879 78.8551C172.878 78.9965 172.915 79.1357 172.986 79.2582C173.057 79.3807 173.159 79.4822 173.282 79.5523C173.405 79.6223 173.544 79.6584 173.685 79.6568C173.827 79.6553 173.965 79.6161 174.087 79.5433L174.321 79.4032C174.487 79.3036 174.621 79.159 174.708 78.9861C174.795 78.8132 174.831 78.6192 174.812 78.4266C174.712 77.4187 174.531 75.5837 174.531 75.5837L172.891 76.4676V76.4676Z" fill="#F9D1BD"/>
<path fill-rule="evenodd" clip-rule="evenodd" d="M172.689 92.1952C172.689 92.1952 177.069 87.4612 176.368 82.5608L178.428 82.5776C178.428 82.5776 178.743 89.7844 178.963 92.0215C178.966 92.0244 176.558 92.8382 172.689 92.1952Z" fill="#ED8B82"/>
<path fill-rule="evenodd" clip-rule="evenodd" d="M172.885 77.5735L172.882 78.199L173.699 77.5531L172.885 77.5735Z" fill="#A12A2A"/>
<path fill-rule="evenodd" clip-rule="evenodd" d="M165.833 86.7452C165.833 86.7452 169.023 88.4079 171.13 89.7917C173.319 91.2325 173.591 87.9889 172.832 87.8408C172.192 87.7159 166.705 85.5453 166.705 85.5453L165.833 86.7452Z" fill="#F9D1BD"/>
<path fill-rule="evenodd" clip-rule="evenodd" d="M175.953 74.7174C176.001 74.5958 176.025 74.466 176.023 74.3353C176.021 74.2045 175.993 74.0755 175.941 73.9555C175.889 73.8356 175.814 73.727 175.72 73.6361C175.626 73.5452 175.515 73.4736 175.393 73.4255L173.614 72.7219C173.103 72.5198 172.601 72.8073 172.322 73.281C171.993 73.8408 171.596 75.1137 171.42 76.0728C171.321 76.6137 171.535 77.2326 172.046 77.4355C172.592 77.6545 174.433 77.7778 174.977 76.8647C175.39 76.1699 175.655 75.4699 175.953 74.7174Z" fill="#F9D1BD"/>
<path fill-rule="evenodd" clip-rule="evenodd" d="M176.764 76.5137C176.764 76.5137 177.506 74.5233 176.87 73.5715C176.016 72.2928 174.681 71.4002 172.796 72.3775C172.76 72.438 172.739 72.506 172.734 72.5761C172.728 72.6463 172.74 72.7167 172.766 72.7818C172.908 73.1577 173.996 73.5321 174.477 74.1562C175.137 75.0131 174.253 76.5845 176.764 76.5137Z" fill="#3D2213"/>
<path fill-rule="evenodd" clip-rule="evenodd" d="M175.717 76.9727C175.417 77.3107 174.948 77.3837 174.668 77.1355C174.387 76.8874 174.404 76.4129 174.704 76.075C175.004 75.7371 175.473 75.6633 175.753 75.9115C176.032 76.1597 176.016 76.6348 175.717 76.9727Z" fill="#F9D1BD"/>
<path fill-rule="evenodd" clip-rule="evenodd" d="M172.06 76.0524L172.955 76.3852C172.955 76.3852 172.71 76.9903 172.298 76.7786C171.886 76.5669 172.06 76.0524 172.06 76.0524Z" fill="white"/>
<path fill-rule="evenodd" clip-rule="evenodd" d="M171.439 74.5322C171.436 74.5801 171.446 74.6278 171.468 74.6706C171.489 74.7135 171.522 74.7501 171.562 74.7768C171.601 74.8036 171.647 74.8195 171.695 74.8232C171.743 74.8269 171.791 74.8182 171.834 74.7978C172.451 74.5059 173.294 73.5709 174.316 73.6724C175.741 73.814 172.801 72.3776 172.801 72.3776C172.801 72.3776 171.523 72.5615 171.439 74.5322Z" fill="#3D2213"/>
<path fill-rule="evenodd" clip-rule="evenodd" d="M166.546 107.027L165.748 108.596C165.616 108.936 165.376 109.225 165.066 109.417L164.75 109.613C164.681 109.656 164.627 109.719 164.596 109.794C164.565 109.868 164.559 109.951 164.578 110.03C164.591 110.082 164.614 110.131 164.646 110.174C164.679 110.217 164.72 110.252 164.768 110.278C164.815 110.304 164.867 110.32 164.92 110.324C164.974 110.328 165.028 110.321 165.079 110.304L168.625 108.244C168.625 108.244 169.123 107.718 167.998 106.68L166.546 107.027Z" fill="#3D2213"/>
<path fill-rule="evenodd" clip-rule="evenodd" d="M164.405 105.486L163.607 107.055C163.476 107.396 163.236 107.684 162.925 107.877L162.609 108.072C162.54 108.115 162.486 108.178 162.456 108.253C162.425 108.328 162.418 108.41 162.437 108.489V108.489C162.45 108.541 162.473 108.59 162.506 108.633C162.538 108.676 162.58 108.711 162.627 108.737C162.674 108.763 162.726 108.779 162.78 108.783C162.833 108.787 162.887 108.78 162.938 108.763L166.484 106.704C166.484 106.704 166.982 106.177 165.857 105.139L164.405 105.486Z" fill="#3D2213"/>
<path fill-rule="evenodd" clip-rule="evenodd" d="M172.416 97.3773C172.416 97.3773 168.366 97.4503 168.789 95.1147C169.211 92.7791 172.535 93.144 173.215 94.1155C173.896 95.087 172.416 97.3773 172.416 97.3773Z" fill="#F9D1BD"/>
<path fill-rule="evenodd" clip-rule="evenodd" d="M170.646 95.5212C170.646 95.5212 173.845 98.7392 175.665 101.26C177.563 103.888 181.3 99.4742 180.284 99.0509C179.428 98.694 173.218 94.1125 173.218 94.1125L170.646 95.5212Z" fill="#F9D1BD"/>
<path fill-rule="evenodd" clip-rule="evenodd" d="M172.402 90.1595L177.703 84.4329L175.623 81.5608L170.807 88.1487L172.402 90.1595Z" fill="#F9D1BD"/>
<path fill-rule="evenodd" clip-rule="evenodd" d="M176.237 87.5422C176.237 87.5422 179.486 83.2257 178.03 80.1705C177.169 78.3647 174.631 81.5018 174.631 81.5018L172.689 85.1329C172.689 85.1329 173.95 87.67 176.237 87.5422Z" fill="#FCA19A"/>
<path fill-rule="evenodd" clip-rule="evenodd" d="M157.861 82.3783C157.861 82.3783 156.995 87.4276 160.101 88.0151C163.207 88.6027 165.678 82.1031 165.678 82.1031L163.33 81.5338L160.065 81.9206L157.861 82.3783Z" fill="#BDD7CC"/>
<path d="M152.392 97.3773C152.392 97.3773 152.533 90.269 154.158 88.4684" stroke="white" stroke-opacity="0.6" stroke-width="0.29998" stroke-linecap="round" stroke-linejoin="round"/>
<path fill-rule="evenodd" clip-rule="evenodd" d="M157.862 93.0652L156.446 95.0351L155.168 92.9236L156.631 90.8179L157.862 93.0652Z" fill="#BDD7CC"/>
<path fill-rule="evenodd" clip-rule="evenodd" d="M161.14 93.0652L159.724 95.0351L158.446 92.9236L159.908 90.8179L161.14 93.0652Z" fill="#BDD7CC"/>
<path fill-rule="evenodd" clip-rule="evenodd" d="M164.408 93.4001L162.993 95.3701L161.715 93.2585L163.177 91.1521L164.408 93.4001Z" fill="#BDD7CC"/>
<path fill-rule="evenodd" clip-rule="evenodd" d="M148.508 91.1521L152.031 100.93L151.755 107.576L145.167 99.4764L148.508 91.1521Z" fill="#F9BDBE"/>
<path fill-rule="evenodd" clip-rule="evenodd" d="M159.491 81.3091L158.615 82.1047C158.615 82.1047 158.04 84.4045 159.406 84.9359L160.327 83.768L159.491 81.3091Z" fill="#217B56"/>
<path fill-rule="evenodd" clip-rule="evenodd" d="M158.986 78.4464C158.986 78.4464 159.41 80.8484 159.761 82.8381C159.807 83.0983 159.921 83.3416 160.092 83.543C160.263 83.7445 160.485 83.8968 160.734 83.9845C160.983 84.0722 161.252 84.0921 161.511 84.0421C161.771 83.9921 162.012 83.8741 162.211 83.7001C162.343 83.5833 162.472 83.4709 162.594 83.3636C162.866 83.1253 163.065 82.8146 163.167 82.4678C163.269 82.1209 163.27 81.7522 163.171 81.4046C162.65 79.5865 161.703 76.2743 161.703 76.2743L158.986 78.4464V78.4464Z" fill="#F9D1BD"/>
<path fill-rule="evenodd" clip-rule="evenodd" d="M158.908 74.3934C158.908 74.3934 156.9 74.9773 158.126 76.948C159.351 78.9187 158.908 74.3934 158.908 74.3934Z" fill="#3D2213"/>
<path fill-rule="evenodd" clip-rule="evenodd" d="M158.344 75.8458C158.401 75.5363 158.521 75.2418 158.697 74.9803C158.872 74.7187 159.098 74.4957 159.363 74.3249C159.627 74.154 159.924 74.039 160.234 73.9868C160.544 73.9345 160.862 73.9462 161.168 74.0212V74.0212C161.744 74.1627 162.244 74.5189 162.566 75.017C162.888 75.5151 163.007 76.1174 162.899 76.7005C162.771 77.3968 162.63 78.1603 162.507 78.8172C162.467 79.0382 162.381 79.2487 162.256 79.4355C162.131 79.6223 161.969 79.7817 161.781 79.9038C161.592 80.0258 161.38 80.108 161.158 80.1453C160.937 80.1827 160.71 80.1743 160.491 80.1207L159.245 79.8149C158.821 79.7112 158.453 79.4491 158.217 79.0826C157.98 78.7161 157.893 78.273 157.973 77.8443C158.086 77.2312 158.219 76.5144 158.343 75.84L158.344 75.8458Z" fill="#F9D1BD"/>
<path fill-rule="evenodd" clip-rule="evenodd" d="M161.646 76.0437C161.646 76.0437 161.055 78.0932 162.689 78.3794C162.689 78.3794 163.793 76.6138 164.028 75.6598C164.466 73.887 160.912 73.0133 159.345 73.5702C157.777 74.1271 158.473 75.6372 161.646 76.0474V76.0437Z" fill="#3D2213"/>
<path fill-rule="evenodd" clip-rule="evenodd" d="M162.778 77.4968C162.491 77.3779 162.135 77.5793 161.984 77.9457C161.833 78.3121 161.942 78.7063 162.23 78.8216C162.517 78.9369 162.873 78.7391 163.024 78.3727C163.175 78.0063 163.065 77.6122 162.778 77.4968Z" fill="#E3633D"/>
<path fill-rule="evenodd" clip-rule="evenodd" d="M157.969 77.848C157.883 77.6539 156.995 80.6084 158.873 80.8894C160.751 81.1704 161.652 80.4924 162.259 77.0707C162.259 77.0707 161.207 79.1027 160.093 79.0589C157.765 78.9676 158.072 78.0801 157.969 77.848V77.848Z" fill="#3D2213"/>
<path fill-rule="evenodd" clip-rule="evenodd" d="M160.481 75.8101C160.481 75.8101 156.524 74.9233 157.707 73.2825C158.802 71.7644 161.108 75.6182 161.787 75.0744L160.481 75.8101Z" fill="#3D2213"/>
<path fill-rule="evenodd" clip-rule="evenodd" d="M158.448 78.5735L159.543 78.8698C159.543 78.8698 159.319 79.6128 158.809 79.4077C158.299 79.2026 158.448 78.5735 158.448 78.5735Z" fill="#FFEABD"/>
<path fill-rule="evenodd" clip-rule="evenodd" d="M163.005 80.8245L164.342 81.7784C164.342 81.7784 164.654 83.59 162.718 85.2745L161.463 84.0695C163.078 83.2864 163.407 82.1565 163.005 80.8245Z" fill="#217B56"/>
<path d="M192.693 143.389C195.992 140.089 195.992 134.74 192.693 131.44C189.393 128.14 184.044 128.14 180.744 131.44C177.444 134.74 177.444 140.089 180.744 143.389C184.044 146.688 189.393 146.688 192.693 143.389Z" stroke="#191919" stroke-width="0.656891" stroke-linecap="round" stroke-linejoin="round"/>
<path d="M191.338 137.415C191.338 139.966 189.27 142.035 186.718 142.035C184.167 142.035 182.098 139.966 182.098 137.415C182.098 134.863 184.167 132.795 186.718 132.795C189.27 132.795 191.338 134.863 191.338 137.415Z" fill="#191919" stroke="#191919" stroke-width="0.0729879"/>
<path fill-rule="evenodd" clip-rule="evenodd" d="M206.472 145.212L200.172 148.986L202.324 141.813L206.472 145.212Z" fill="#664C39"/>
<path fill-rule="evenodd" clip-rule="evenodd" d="M206.474 145.212L202.212 147.767C201.432 147.812 200.986 147.407 200.925 146.484L202.325 141.813L206.474 145.212Z" fill="#FFDE98"/>
<path d="M233.743 103.366C234.971 104.263 235.042 106.276 233.901 107.838L206.836 144.893C205.694 146.455 201.228 143.193 202.37 141.631L229.435 104.574C230.576 103.014 232.514 102.47 233.743 103.366Z" fill="#F5BE4C"/>
<path d="M234.227 107.491C234.715 106.963 234.211 105.704 233.101 104.678C231.992 103.651 230.697 103.247 230.209 103.774C229.722 104.302 230.225 105.561 231.335 106.587C232.444 107.613 233.739 108.018 234.227 107.491Z" fill="#FFDE98"/>
<path fill-rule="evenodd" clip-rule="evenodd" d="M234.22 107.474L236.509 104.326L232.291 100.897L230.131 103.853L234.22 107.474Z" fill="#FFDE98"/>
<path d="M236.481 104.37C236.968 103.843 236.465 102.584 235.355 101.558C234.246 100.531 232.951 100.127 232.463 100.654C231.975 101.182 232.479 102.441 233.589 103.467C234.698 104.493 235.993 104.898 236.481 104.37Z" fill="#F39DBD"/>
<path fill-rule="evenodd" clip-rule="evenodd" d="M236.474 104.354L238.762 101.206L234.545 97.778L232.385 100.733L236.474 104.354Z" fill="#F39DBD"/>
<path d="M238.685 101.252C239.136 100.735 238.59 99.5192 237.464 98.5378C236.338 97.5564 235.06 97.1806 234.608 97.6984C234.157 98.2161 234.704 99.4314 235.829 100.413C236.955 101.394 238.234 101.77 238.685 101.252Z" fill="#DE8FAD"/>
<path d="M204.487 144.78L231.848 107.147" stroke="#DBAA44" stroke-width="0.437927" stroke-linecap="round" stroke-linejoin="round"/>
<path d="M190.104 151.509L191.218 150.686L192.031 151.68C192.5 152.253 193.135 152.666 193.849 152.864C194.562 153.062 195.319 153.034 196.017 152.784L196.614 152.571C196.727 152.53 196.851 152.527 196.967 152.562C197.082 152.598 197.183 152.67 197.254 152.767C197.732 153.419 198.415 153.892 199.194 154.108C199.972 154.323 200.801 154.27 201.546 153.957V153.957" stroke="#5B5D82" stroke-width="0.437927" stroke-linecap="round" stroke-linejoin="round"/>
<path d="M22.688 54.9268H19.8926V57.7222H22.688V54.9268Z" stroke="#5B5D82" stroke-width="0.437927" stroke-linecap="round" stroke-linejoin="round"/>
<path fill-rule="evenodd" clip-rule="evenodd" d="M141.559 31.0417L150.612 6.10318C151.297 4.16582 148.376 3.17452 147.711 5.0565C147.711 5.0565 143.696 16.1579 138.312 31.0417H141.559Z" fill="#F39DBD"/>
<path d="M144.514 17.9357L109.582 113.818C107.467 119.622 110.459 126.042 116.263 128.157C122.068 130.272 128.488 127.28 130.603 121.476" stroke="#191919" stroke-width="3.21503" stroke-linecap="round" stroke-linejoin="round"/>
<path fill-rule="evenodd" clip-rule="evenodd" d="M188.096 78.8409C177.365 65.7664 160.799 63.1331 148.896 65.7069C141.692 53.7315 125.541 50.0128 112.532 53.3779C103.363 40.4778 87.3055 37.8385 76.9453 41.4608C86.1052 14.2842 120.643 1.35087 148.928 10.8852C177.212 20.4196 197.256 51.6644 188.096 78.8409Z" fill="#EF4E52"/>
<path fill-rule="evenodd" clip-rule="evenodd" d="M112.532 53.378C112.532 53.378 122.22 20.4537 147.656 10.4722C147.656 10.4722 159.865 34.7594 148.897 65.707C148.897 65.707 139.705 47.8457 112.532 53.378Z" fill="#CF1A1E"/>
<path d="M116.351 20.4604C119.568 18.9433 121.314 15.886 120.25 13.6317C119.187 11.3774 115.718 10.7798 112.501 12.2969C109.284 13.814 107.539 16.8713 108.602 19.1256C109.665 21.3799 113.135 21.9775 116.351 20.4604Z" fill="#F9BDBE"/>
<path d="M44.5653 135.781C44.7085 135.83 44.8339 135.92 44.9256 136.041C45.0174 136.161 45.0713 136.306 45.0806 136.458C45.0899 136.609 45.0542 136.759 44.978 136.89C44.9018 137.021 44.7885 137.126 44.6524 137.193C44.5163 137.259 44.3636 137.284 44.2136 137.263C44.0635 137.243 43.9228 137.179 43.8094 137.078C43.6959 136.978 43.6147 136.846 43.5761 136.7C43.5375 136.554 43.5431 136.399 43.5924 136.256C43.6586 136.064 43.7982 135.906 43.9806 135.817C44.163 135.728 44.3733 135.715 44.5653 135.781V135.781Z" fill="white"/>
<path d="M46.2772 137.656C46.4204 137.706 46.5458 137.796 46.6375 137.917C46.7293 138.037 46.7832 138.182 46.7925 138.333C46.8019 138.484 46.7662 138.635 46.6899 138.766C46.6137 138.897 46.5004 139.002 46.3643 139.068C46.2283 139.135 46.0755 139.159 45.9255 139.139C45.7754 139.119 45.6348 139.054 45.5213 138.954C45.4078 138.854 45.3267 138.722 45.288 138.576C45.2494 138.429 45.2551 138.275 45.3043 138.132C45.3705 137.94 45.5101 137.782 45.6925 137.693C45.8749 137.604 46.0852 137.591 46.2772 137.656V137.656Z" fill="white"/>
<path d="M47.5519 132.348C47.6951 132.397 47.8204 132.488 47.9121 132.609C48.0038 132.729 48.0577 132.874 48.067 133.025C48.0762 133.176 48.0404 133.327 47.9641 133.458C47.8878 133.589 47.7745 133.694 47.6383 133.76C47.5022 133.827 47.3494 133.851 47.1994 133.831C47.0493 133.81 46.9087 133.746 46.7953 133.645C46.6819 133.545 46.6008 133.413 46.5623 133.267C46.5238 133.12 46.5296 132.966 46.5789 132.822C46.6451 132.631 46.7847 132.473 46.9672 132.384C47.1496 132.295 47.3599 132.282 47.5519 132.348V132.348Z" fill="white"/>
<path d="M46.9159 135.002C47.0591 135.051 47.1845 135.142 47.2762 135.262C47.3679 135.383 47.4219 135.528 47.4312 135.679C47.4405 135.83 47.4048 135.98 47.3286 136.111C47.2524 136.242 47.1391 136.347 47.003 136.414C46.8669 136.48 46.7142 136.505 46.5641 136.485C46.4141 136.464 46.2734 136.4 46.16 136.3C46.0465 136.199 45.9653 136.068 45.9267 135.921C45.8881 135.775 45.8937 135.62 45.943 135.477C46.0091 135.285 46.1487 135.127 46.3312 135.038C46.5136 134.949 46.7239 134.936 46.9159 135.002V135.002Z" fill="white"/>
<path d="M49.2667 134.224C49.4099 134.273 49.5353 134.364 49.627 134.484C49.7187 134.605 49.7726 134.75 49.7818 134.901C49.7911 135.052 49.7553 135.203 49.679 135.333C49.6027 135.464 49.4893 135.57 49.3532 135.636C49.217 135.702 49.0643 135.727 48.9142 135.706C48.7642 135.686 48.6235 135.621 48.5101 135.521C48.3967 135.421 48.3156 135.289 48.2771 135.142C48.2386 134.996 48.2444 134.841 48.2938 134.698C48.3599 134.506 48.4996 134.349 48.682 134.26C48.8645 134.171 49.0748 134.158 49.2667 134.224V134.224Z" fill="white"/>
<path d="M57.645 85.4819L32.3664 73.6448L7.08789 85.4819L8.21998 111.977C8.11597 122.52 31.0473 138.347 31.8502 138.412C32.9965 138.507 56.6169 122.521 56.5129 111.977L57.645 85.4819Z" stroke="#191919" stroke-width="0.566418" stroke-linecap="round" stroke-linejoin="round"/>
<path d="M50.4405 90.2774L32.3667 81.6113L14.293 90.2774L15.1026 109.221C15.0277 116.76 31.4239 128.076 31.9978 128.121C32.8172 128.189 49.7049 116.76 49.6309 109.221L50.4405 90.2774Z" fill="#EB2227"/>
<path d="M31.9971 128.121C32.8164 128.189 49.7042 116.76 49.6301 109.221L50.4397 90.2774L32.366 81.6113L31.9971 128.121Z" fill="#CF1A1E"/>
<path d="M8.91699 74.6625L12.1367 76.123" stroke="#191919" stroke-width="0.566418" stroke-linecap="round" stroke-linejoin="round"/>
<path d="M18.291 66.8217L18.8836 70.9519" stroke="#191919" stroke-width="0.566418" stroke-linecap="round" stroke-linejoin="round"/>
<path d="M12.2568 68.7386L14.8832 72.2097" stroke="#191919" stroke-width="0.566418" stroke-linecap="round" stroke-linejoin="round"/>
<path d="M35.1232 108.069C34.7603 108.091 34.4029 107.971 34.127 107.735C33.8512 107.498 33.6787 107.163 33.6463 106.8C33.604 106.453 33.6899 106.103 33.8877 105.815C34.0855 105.527 34.3817 105.321 34.7207 105.236C35.2261 105.121 35.7285 105 36.234 104.888C37.3236 104.646 38.4131 104.412 39.4997 104.167C39.6963 104.107 39.9056 104.102 40.105 104.152C40.2742 104.196 40.4274 104.287 40.546 104.415C40.6647 104.544 40.7438 104.703 40.7738 104.876C40.8247 105.064 40.8149 105.264 40.7459 105.446C40.6769 105.629 40.5522 105.785 40.3895 105.892C40.2838 105.96 40.1724 106.019 40.0565 106.068L35.8193 107.905C35.6035 108.014 35.3649 108.07 35.1232 108.069Z" fill="white"/>
<path d="M29.9501 106.029C30.1464 106.043 30.3375 106.098 30.5108 106.192C30.684 106.285 30.8354 106.414 30.9549 106.57C31.0399 106.683 31.1177 106.802 31.188 106.924C31.9386 108.198 32.6851 109.468 33.4277 110.735C33.5039 110.855 33.5726 110.979 33.6335 111.107C33.7296 111.315 33.7495 111.551 33.6897 111.772C33.63 111.993 33.4944 112.186 33.3066 112.318C33.1167 112.449 32.8857 112.507 32.6564 112.481C32.4271 112.455 32.2151 112.346 32.0596 112.176C31.6813 111.776 31.3242 111.355 30.961 110.944L28.9604 108.683C28.8575 108.565 28.7486 108.447 28.6578 108.32C28.4947 108.096 28.3992 107.829 28.3825 107.553C28.3658 107.276 28.4286 107 28.5636 106.758C28.6985 106.516 28.8999 106.317 29.144 106.186C29.388 106.055 29.6646 105.996 29.941 106.017L29.9501 106.029Z" fill="white"/>
<path d="M27.3971 101.283C27.6618 101.28 27.9221 101.351 28.1491 101.487C28.3761 101.624 28.561 101.82 28.6833 102.055C28.8111 102.283 28.8727 102.542 28.8615 102.804C28.8503 103.065 28.7666 103.318 28.6198 103.535C28.5492 103.642 28.4702 103.743 28.3837 103.837C27.3628 104.994 26.3408 106.149 25.3178 107.303C25.1967 107.446 25.0524 107.568 24.8911 107.663C24.7237 107.754 24.532 107.79 24.3429 107.766C24.1539 107.743 23.9772 107.66 23.8378 107.53C23.6948 107.405 23.5922 107.239 23.5432 107.056C23.4941 106.872 23.5008 106.678 23.5624 106.498C23.5965 106.392 23.6433 106.29 23.7016 106.195C24.5087 104.813 25.3228 103.431 26.1441 102.049C26.2391 101.876 26.3687 101.724 26.5249 101.603C26.6811 101.482 26.8606 101.395 27.052 101.347C27.1701 101.313 27.2942 101.301 27.3971 101.283Z" fill="white"/>
<path d="M31.179 100.445C30.9078 100.423 30.6435 100.348 30.4012 100.224L27.1627 98.8134C26.7874 98.653 26.4091 98.5107 26.0399 98.3231C25.842 98.2359 25.679 98.085 25.5768 97.8944C25.4747 97.7038 25.4392 97.4846 25.4761 97.2715C25.513 97.0584 25.6202 96.8639 25.7805 96.7188C25.9408 96.5736 26.145 96.4864 26.3607 96.4708C26.4859 96.4687 26.6109 96.4819 26.733 96.5101L31.3303 97.524C31.4242 97.5452 31.515 97.5725 31.6027 97.5997C31.8898 97.6886 32.1421 97.8645 32.3249 98.1031C32.5076 98.3416 32.6117 98.6311 32.6227 98.9314C32.6317 99.2321 32.5459 99.528 32.3776 99.7773C32.2092 100.027 31.9667 100.217 31.6844 100.321C31.5188 100.373 31.35 100.414 31.179 100.445Z" fill="white"/>
<path d="M34.4717 101.301C34.511 100.856 34.5443 100.466 34.5837 100.091C34.6785 99.0817 34.7733 98.0799 34.8682 97.0852C34.8924 96.834 34.9196 96.5858 34.9499 96.3346C34.9695 96.0953 35.0775 95.872 35.2529 95.7081C35.4283 95.5442 35.6584 95.4515 35.8984 95.4481C36.1385 95.4447 36.3711 95.5308 36.5511 95.6897C36.731 95.8486 36.8454 96.0688 36.8718 96.3073C36.9262 96.7129 36.9504 97.1215 36.9898 97.518C37.0715 98.3624 37.1563 99.2068 37.238 100.051C37.2773 100.457 37.3288 100.862 37.35 101.262C37.3719 101.457 37.3539 101.654 37.2971 101.842C37.2403 102.029 37.1459 102.203 37.0196 102.353C36.8933 102.503 36.7377 102.626 36.5625 102.714C36.3872 102.802 36.1959 102.853 36.0002 102.864C35.8045 102.876 35.6085 102.848 35.4241 102.781C35.2397 102.714 35.0709 102.611 34.9279 102.476C34.7849 102.342 34.6706 102.181 34.5922 102.001C34.5138 101.821 34.4728 101.627 34.4717 101.431V101.301Z" fill="white"/>
<path d="M45.0214 103.029C45.0178 103.249 44.9643 103.464 44.8649 103.66C44.7655 103.855 44.6229 104.026 44.4478 104.158C44.2728 104.29 44.0699 104.38 43.8547 104.422C43.6394 104.464 43.4174 104.457 43.2055 104.4C43.0707 104.359 42.9383 104.311 42.809 104.255L39.2346 102.76C39.1499 102.724 39.0591 102.69 38.9743 102.651C38.7606 102.566 38.5814 102.412 38.4647 102.213C38.348 102.015 38.3005 101.784 38.3297 101.555C38.3353 101.414 38.3702 101.275 38.4323 101.147C38.4945 101.02 38.5824 100.907 38.6905 100.815C38.7986 100.724 38.9246 100.655 39.0605 100.615C39.1964 100.575 39.3391 100.563 39.4798 100.581C39.8339 100.629 40.185 100.729 40.536 100.811L43.7896 101.573C43.8925 101.598 43.9936 101.629 44.0923 101.667C44.3667 101.774 44.6023 101.961 44.7682 102.204C44.9341 102.447 45.0224 102.735 45.0214 103.029V103.029Z" fill="white"/>
<path d="M35.0074 90.7595C35.2736 90.7361 35.5408 90.7913 35.7759 90.9182C36.011 91.0452 36.2037 91.2384 36.3301 91.4738C36.4662 91.705 36.5333 91.9703 36.5237 92.2384C36.514 92.5065 36.428 92.7663 36.2756 92.9871C36.207 93.0947 36.129 93.196 36.0425 93.2898L33.4548 96.2982C33.3822 96.3799 33.3065 96.4586 33.2278 96.5373C33.045 96.6994 32.8143 96.7975 32.5707 96.8166C32.327 96.8357 32.0838 96.7748 31.878 96.6432C31.6734 96.4941 31.5261 96.2794 31.4606 96.0349C31.3951 95.7904 31.4153 95.5308 31.5178 95.2994C31.5711 95.185 31.6328 95.0747 31.7024 94.9695L33.7302 91.6161L33.8573 91.4163C33.9744 91.2154 34.1424 91.0489 34.3443 90.9336C34.5462 90.8183 34.7749 90.7583 35.0074 90.7595V90.7595Z" fill="white"/>
<path d="M34.472 114.367C34.5114 113.867 34.5446 113.413 34.581 112.959C34.6657 111.973 34.7595 110.989 34.8382 110.002C34.8414 109.805 34.8998 109.613 35.0068 109.447C35.1138 109.281 35.2651 109.148 35.4435 109.064C35.5956 108.994 35.7622 108.96 35.9298 108.965C36.0975 108.97 36.2615 109.015 36.4087 109.095C36.556 109.176 36.6823 109.29 36.7775 109.428C36.8726 109.566 36.9341 109.724 36.9568 109.891C36.9931 110.157 37.0143 110.423 37.0355 110.69L37.3382 114.209C37.3705 114.436 37.3499 114.667 37.2779 114.885C37.206 115.102 37.0847 115.3 36.9235 115.462C36.7265 115.661 36.4757 115.798 36.202 115.857C35.9282 115.915 35.6434 115.892 35.3824 115.791C35.1215 115.69 34.8958 115.514 34.733 115.287C34.5702 115.059 34.4774 114.789 34.466 114.509C34.4653 114.462 34.4673 114.414 34.472 114.367V114.367Z" fill="white"/>
<path d="M22.7109 112.118C22.3753 112.124 22.0483 112.012 21.786 111.803C21.5237 111.593 21.3426 111.299 21.2738 110.97C21.205 110.642 21.2529 110.3 21.4091 110.003C21.5653 109.706 21.8202 109.472 22.1298 109.343C22.3513 109.261 22.579 109.197 22.8108 109.152C23.973 108.876 25.1362 108.603 26.3005 108.335C26.4839 108.289 26.6714 108.26 26.8604 108.25C27.0908 108.235 27.3194 108.3 27.5075 108.434C27.6955 108.568 27.8315 108.763 27.8924 108.986C27.9686 109.213 27.9657 109.459 27.8844 109.684C27.8031 109.909 27.6481 110.1 27.4445 110.226C27.3218 110.298 27.1932 110.359 27.0601 110.408C25.8495 110.916 24.6389 111.419 23.4494 111.921C23.2215 112.042 22.9689 112.11 22.7109 112.118V112.118Z" fill="white"/>
<path d="M25.8278 100.475C25.8395 100.681 25.7877 100.886 25.6795 101.062C25.5713 101.238 25.4118 101.376 25.2225 101.459C25.0321 101.553 24.8177 101.587 24.6075 101.557C24.3974 101.526 24.2013 101.433 24.0452 101.289C23.9743 101.226 23.9085 101.157 23.8485 101.083L21.1548 97.9689C20.9553 97.7458 20.8148 97.4763 20.7462 97.185C20.6791 96.8103 20.763 96.4242 20.9796 96.1112C21.1963 95.7981 21.528 95.5836 21.9024 95.5143C22.2068 95.4562 22.5219 95.4968 22.8017 95.6302C23.0815 95.7635 23.3114 95.9827 23.458 96.2559C24.1693 97.4453 24.8926 98.6287 25.6099 99.8091C25.7478 100.004 25.8237 100.236 25.8278 100.475V100.475Z" fill="white"/>
</g>
<defs>
<clipPath id="clip0_501_2775">
<rect width="244" height="170" fill="white"/>
</clipPath>
</defs>
</svg>
