<svg width="245" height="170" viewBox="0 0 245 170" fill="none" xmlns="http://www.w3.org/2000/svg">
<path d="M20.4637 97.1987C20.4637 97.1987 12.8434 71.2014 29.7135 59.5357C46.5836 47.8699 65.8977 70.7137 82.0376 62.1741C98.1775 53.6344 98.1975 21.2268 136.672 23.5318C175.146 25.8369 165.132 74.4362 180.504 77.334C180.504 77.334 212.454 82.7009 209.02 116.533C205.587 150.366 146.678 171.785 124.252 125.188C101.827 78.5918 42.3282 161.036 20.4637 97.1987Z" fill="#F4F8F7"/>
<path d="M153.179 159.36C133.853 159.552 121.058 138.708 130.643 121.924C132.655 118.402 135.507 115.41 139.493 113.418C159.782 103.273 176.401 135.035 176.401 135.035C176.401 135.035 174.742 114.928 192.946 113.633C211.151 112.339 209.857 138.886 209.857 138.886C209.857 138.886 214.223 137.171 219.476 137.436C233.087 138.12 232.439 158.572 218.811 158.709L153.179 159.36Z" fill="#BDD7CC"/>
<path d="M182.765 54.7504C182.765 54.7504 167.231 59.583 163.788 70.5592C161.12 79.0656 162.428 89.7004 174.533 96.3044C186.639 102.908 199.7 97.5689 201.62 82.0202L203.615 83.1894C203.615 83.1894 212.586 95.3769 225.732 91.1252C238.879 86.8735 239.473 77.9489 236.337 72.4415C236.337 72.4415 246.572 64.3254 239.829 49.3458C231.523 30.8912 215.662 24.8687 200.792 24.9693C187.108 25.0616 169.459 38.9977 182.765 54.7504Z" fill="#BDD7CC"/>
<path d="M204.027 52.7845L205.236 156.082" stroke="#217B56" stroke-width="0.688786" stroke-linecap="round" stroke-linejoin="round"/>
<path d="M218.653 59.178L204.352 80.418" stroke="#217B56" stroke-width="0.688786" stroke-linecap="round" stroke-linejoin="round"/>
<path d="M220.747 66.6792L211.095 70.4032" stroke="#217B56" stroke-width="0.688786" stroke-linecap="round" stroke-linejoin="round"/>
<path d="M180.73 74.9854L204.706 110.726" stroke="#217B56" stroke-width="0.688786" stroke-linecap="round" stroke-linejoin="round"/>
<path d="M186.594 83.474L187.903 71.6013" stroke="#217B56" stroke-width="0.688786" stroke-linecap="round" stroke-linejoin="round"/>
<path d="M180.277 88.9924L190.37 89.356" stroke="#217B56" stroke-width="0.688786" stroke-linecap="round" stroke-linejoin="round"/>
<path d="M35.107 157.3C15.7811 157.491 2.98604 136.646 12.5707 119.864C14.5823 116.341 17.435 113.35 21.4207 111.356C41.7096 101.212 58.3291 132.976 58.3291 132.976C58.3291 132.976 56.6692 112.869 74.874 111.574C93.0788 110.278 91.7848 136.827 91.7848 136.827C91.7848 136.827 96.151 135.112 101.404 135.376C115.015 136.06 114.366 156.513 100.739 156.65L35.107 157.3Z" fill="#BDD7CC"/>
<path d="M32.9291 160.618C45.2846 160.618 55.3006 159.472 55.3006 158.057C55.3006 156.643 45.2846 155.496 32.9291 155.496C20.5737 155.496 10.5576 156.643 10.5576 158.057C10.5576 159.472 20.5737 160.618 32.9291 160.618Z" fill="#BDD7CC"/>
<path d="M226.805 159.187C226.805 159.2 226.8 159.216 226.783 159.236C226.766 159.256 226.738 159.277 226.698 159.3C226.619 159.346 226.498 159.392 226.334 159.439C226.007 159.533 225.519 159.626 224.877 159.718C223.592 159.901 221.697 160.077 219.256 160.245C214.373 160.582 207.307 160.885 198.575 161.139C181.111 161.648 156.984 161.963 130.335 161.963C103.685 161.963 79.5586 161.648 62.0947 161.139C53.3626 160.885 46.2966 160.582 41.4137 160.245C38.9722 160.077 37.0773 159.901 35.7931 159.718C35.1507 159.626 34.6626 159.533 34.3356 159.439C34.1718 159.392 34.0506 159.346 33.9711 159.3C33.9314 159.277 33.9038 159.256 33.8866 159.236C33.8695 159.216 33.8641 159.2 33.8641 159.187C33.8641 159.174 33.8695 159.159 33.8866 159.139C33.9038 159.119 33.9314 159.097 33.9711 159.075C34.0506 159.029 34.1718 158.982 34.3356 158.935C34.6626 158.841 35.1507 158.749 35.7931 158.657C37.0773 158.474 38.9722 158.298 41.4137 158.129C46.2966 157.793 53.3626 157.49 62.0947 157.235C79.5586 156.726 103.685 156.411 130.335 156.411C156.984 156.411 181.111 156.726 198.575 157.235C207.307 157.49 214.373 157.793 219.256 158.129C221.697 158.298 223.592 158.474 224.877 158.657C225.519 158.749 226.007 158.841 226.334 158.935C226.498 158.982 226.619 159.029 226.698 159.075C226.738 159.097 226.766 159.119 226.783 159.139C226.8 159.159 226.805 159.174 226.805 159.187Z" fill="#BDD7CC" stroke="#217B56" stroke-width="0.0739041"/>
<path d="M87.4677 35.7925L62.5 24.1008L37.5322 35.7925L38.6504 61.9619C38.5477 72.375 61.1971 88.0072 61.99 88.0722C63.1223 88.1653 86.4523 72.3764 86.3496 61.9619L87.4677 35.7925Z" fill="white"/>
<path d="M164.265 109.837H153.091C152.079 109.837 151.259 110.657 151.259 111.669V114.462C151.259 115.474 152.079 116.294 153.091 116.294H164.265C165.277 116.294 166.097 115.474 166.097 114.462V111.669C166.097 110.657 165.277 109.837 164.265 109.837Z" fill="#3D270C"/>
<path d="M158.22 147.388L97.8321 147.426C97.8321 147.426 97.9888 132.6 85.6564 132.276C73.3241 131.952 73.9973 146.753 73.9973 146.753L74.0372 149.136C74.0372 149.136 65.3447 148.309 62.829 147.018C62.829 147.018 61.9185 145.114 61.5622 143.193C61.206 141.272 61.4595 137.29 61.4595 137.29L63.5089 135.698C63.5089 135.698 62.7026 126.521 64.0299 123.189C64.0299 123.189 62.7676 119.648 63.0994 117.48L89.243 94.5699L126.769 94.9979C131.8 95.1058 134.368 96.2358 138.874 98.4758C155.714 106.849 165.929 114.212 165.929 114.212C165.929 114.212 184.872 117.583 191.475 122.682C194.12 125.208 195.511 126.907 196.5 133.568L196.651 136.199L181.075 141.21L158.22 147.388Z" fill="#4D9578"/>
<path d="M194.254 145.135L193.104 150.039C193.104 151.552 190.865 152.556 189.351 152.557L49.6563 152.705L41.416 152.557C40.6833 152.547 39.9663 152.343 39.3375 151.967C38.7087 151.59 38.1903 151.055 37.8346 150.414L35.2539 145.73C39.0969 136.559 44.9982 131.362 54.0167 130.26L117.399 125.899L158.564 132.576L194.254 145.135Z" fill="#191919"/>
<path d="M178.933 134.409C178.294 134.427 177.658 134.508 177.035 134.651C176.245 134.47 175.435 134.388 174.625 134.409C168.603 134.569 163.825 140.24 163.955 147.075C164.084 153.91 169.071 159.322 175.094 159.163C175.742 159.145 178.574 159.184 179.401 159.163C185.424 159.002 190.201 153.332 190.071 146.496C189.941 139.661 184.955 134.249 178.933 134.409Z" fill="#191919"/>
<path d="M92.6291 134.409C91.9901 134.427 91.3544 134.508 90.7313 134.651C89.9413 134.47 89.1316 134.388 88.3213 134.409C82.2988 134.569 77.5217 140.24 77.651 147.075C77.7803 153.91 82.7674 159.322 88.7898 159.163C89.4387 159.145 92.2707 159.184 93.0977 159.163C99.1194 159.002 103.897 153.332 103.767 146.496C103.638 139.661 98.6508 134.249 92.6291 134.409Z" fill="#191919"/>
<path d="M144.249 135.446C144.149 135.446 144.053 135.457 143.953 135.463H138.991V137.137C135.681 139.338 133.489 143.454 133.577 148.113C133.665 152.747 135.988 156.725 139.35 158.755V160.2H144.341V160.197C144.466 160.197 144.59 160.2 144.716 160.197C150.738 160.037 155.515 154.366 155.386 147.53C155.257 140.695 150.271 135.287 144.249 135.446Z" fill="#191919"/>
<path d="M139.602 160.217C145.297 160.207 149.905 154.656 149.893 147.819C149.881 140.982 145.254 135.448 139.559 135.458C133.863 135.468 129.256 141.018 129.268 147.855C129.28 154.692 133.906 160.227 139.602 160.217Z" fill="#474747"/>
<path d="M146.795 147.888C146.831 143.178 143.495 139.335 139.346 139.303C135.196 139.272 131.803 143.065 131.768 147.775C131.733 152.485 135.068 156.329 139.218 156.36C143.367 156.391 146.76 152.598 146.795 147.888Z" fill="#969FA7"/>
<path d="M141.794 147.868C141.805 146.296 140.692 145.013 139.307 145.002C137.922 144.992 136.789 146.258 136.777 147.83C136.765 149.402 137.879 150.685 139.264 150.696C140.649 150.706 141.782 149.44 141.794 147.868Z" fill="#F7FEFB"/>
<path d="M59.1731 135.446C59.0741 135.446 58.9765 135.457 58.8775 135.463H53.9148V137.137C50.6039 139.338 48.4127 143.454 48.5006 148.113C48.5885 152.747 50.9106 156.725 54.274 158.755V160.2H59.2647V160.196C59.3889 160.196 59.5138 160.2 59.6394 160.196C65.6611 160.036 70.4383 154.365 70.309 147.53C70.1796 140.694 65.1948 135.287 59.1731 135.446Z" fill="#191919"/>
<path d="M54.5257 160.216C60.2212 160.206 64.8286 154.656 64.8166 147.819C64.8047 140.981 60.1779 135.447 54.4825 135.457C48.787 135.467 44.1796 141.017 44.1915 147.854C44.2035 154.692 48.8302 160.226 54.5257 160.216Z" fill="#474747"/>
<path d="M125.869 145.698L65.9611 145.853C65.9611 145.853 63.693 133.83 54.5747 133.967C43.9643 134.126 43.3265 145.734 43.3265 145.734H35.254C35.254 145.734 31.1383 135.457 34.7699 132.579C34.7699 132.579 37.6662 126.519 38.947 123.188C38.947 123.188 37.729 119.646 38.049 117.479L46.9959 110.458C50.7982 105.321 65.6552 97.7936 71.8114 96.7789C84.7668 94.6431 95.3291 93.2426 108.308 99.7521C128.354 109.803 134.872 120.733 134.872 120.733C134.872 120.733 142.779 120.166 155.253 122.679C157.805 125.205 158.181 128.179 158.768 130.868L158.715 145.773L153.894 145.758C153.315 145.757 152.752 145.561 152.297 145.203C151.841 144.844 151.519 144.343 151.382 143.78C150.474 140.065 147.45 133.847 140.725 133.65C134.314 133.462 129.168 135.367 127.881 143.964C127.808 144.445 127.565 144.885 127.196 145.203C126.827 145.521 126.356 145.697 125.869 145.698Z" fill="#217B56"/>
<path d="M38.5355 125.176C38.5355 125.176 156.01 123.427 155.253 122.677C142.729 119.008 130.944 115.116 130.944 115.116C130.944 115.116 119.996 104.104 105.891 97.586C96.1467 93.0845 79.0268 94.2699 67.548 96.898C60.0098 98.6229 52.1826 103.526 49.6174 106.99L38.0995 117.52C37.7795 119.688 38.9974 123.229 38.9974 123.229C38.7964 123.752 38.6464 124.421 38.5355 125.176Z" fill="#217B56"/>
<path d="M49.7818 120.987C49.7818 120.987 40.2186 114.692 38.1877 117.711C38.1877 117.711 37.3009 120.589 39.2224 123.559L50.0863 123.506L49.7818 120.987Z" fill="#F7FEFB"/>
<path d="M78.9775 97.7389L81.2597 115.613L59.7588 115.701C55.3341 115.719 52.9685 110.535 55.8463 107.175C62.8982 98.9413 74.3334 97.9702 78.9775 97.7389Z" fill="#191919"/>
<path d="M80.8369 97.535C80.8369 97.535 97.4594 94.9306 109.032 101.705C115.709 105.613 121.701 109.79 127.556 115.337L82.9602 115.757L80.8369 97.535Z" fill="#191919"/>
<path d="M48.9082 108.21L49.5504 124.495L52.2945 131.621H53.0136L50.4033 124.505L49.614 106.99L48.9082 108.21Z" fill="#066132"/>
<path d="M124.805 117.943L126.872 125.176L126.587 145.654L127.564 145.674L127.963 125.081L125.945 117.999L124.805 117.943Z" fill="#066132"/>
<path d="M103.104 96.4293H125.898C129.553 96.4244 133.164 97.2351 136.466 98.8024C147.055 103.843 165.351 115.116 165.351 115.116H133.549C131.911 115.115 130.334 114.489 129.141 113.367C122.203 106.857 112.854 100.431 103.104 96.4293Z" fill="#191919"/>
<path d="M193.346 145.688L157.818 145.773V128.998L196.499 133.563L196.651 138.161C196.651 140.367 196.084 145.688 193.346 145.688Z" fill="#217B56"/>
<path d="M122.038 115.599L110.113 115.664C109.592 115.665 109.092 115.46 108.721 115.093C108.351 114.727 108.14 114.228 108.136 113.707L108.13 112.483C108.13 112.483 108.13 112.483 108.13 112.483C108.127 111.637 108.46 110.825 109.055 110.223C109.649 109.622 110.458 109.281 111.303 109.274L116.798 109.244C116.798 109.244 116.798 109.244 116.798 109.244C120.143 109.226 121.883 110.823 122.569 112.419C122.912 113.219 122.992 114.018 122.876 114.616C122.761 115.217 122.454 115.597 122.038 115.599Z" fill="#066132" stroke="#066132" stroke-width="0.0739041"/>
<path d="M39.0523 123.751C39.0523 123.751 37.3074 121.767 37.9319 117.711" stroke="#3B260D" stroke-width="0.40795" stroke-linecap="round" stroke-linejoin="round"/>
<path d="M163.467 127.576C161.349 125.275 158.65 123.586 155.654 122.689C154.486 122.34 153.32 122.009 152.451 121.802C149.853 121.18 146.021 121.389 146.021 121.389C146.021 121.389 146.529 129.063 151.173 129.001C155.817 128.939 164.764 128.984 164.764 128.984L163.467 127.576Z" fill="#F7FEFB"/>
<path d="M187.983 126.875C190.613 123.693 189.971 123.457 191.253 122.515C191.253 122.515 195.042 125.175 195.508 128.466C195.573 128.932 194.878 128.995 194.177 128.959C191.019 128.798 190.232 128.822 190.232 128.822L187.983 126.875Z" fill="#F7FEFB"/>
<path d="M187.992 128.931H164.59C163.845 128.931 163.131 128.635 162.604 128.108C162.078 127.582 161.782 126.867 161.782 126.123V123.983H190.799V126.123C190.799 126.867 190.503 127.581 189.977 128.108C189.45 128.634 188.737 128.931 187.992 128.931V128.931Z" fill="#191919"/>
<path d="M182.951 124.851H172.082C171.039 124.851 170.193 125.697 170.193 126.74V129.62C170.193 130.663 171.039 131.509 172.082 131.509H182.951C183.994 131.509 184.84 130.663 184.84 129.62V126.74C184.84 125.697 183.994 124.851 182.951 124.851Z" fill="#191919"/>
<path d="M62.0219 147.888C62.0573 143.178 58.722 139.334 54.5723 139.303C50.4226 139.272 47.03 143.065 46.9947 147.775C46.9593 152.485 50.2946 156.329 54.4443 156.36C58.5939 156.391 61.9866 152.598 62.0219 147.888Z" fill="#969FA7"/>
<path d="M57.0075 147.843C57.0191 146.271 55.9058 144.988 54.5209 144.978C53.1361 144.968 52.0041 146.234 51.9925 147.806C51.981 149.378 53.0943 150.661 54.4792 150.671C55.864 150.681 56.996 149.415 57.0075 147.843Z" fill="#F7FEFB"/>
<path d="M87.2455 145.798L82.4033 125.578V117.711" stroke="#D6923E" stroke-width="0.917889" stroke-miterlimit="10"/>
<path d="M100.013 115.597L84.0088 115.745L88.9988 97.042C93.3251 97.0789 98.794 97.583 103.927 99.3729L100.013 115.597Z" fill="#594225"/>
<path d="M125.11 96.4293H125.897C129.553 96.4244 133.163 97.2351 136.466 98.8024C139.462 100.229 143.076 102.155 146.718 104.183L144.078 115.116H133.549C131.91 115.115 130.334 114.489 129.14 113.367C126.916 111.288 124.586 109.326 122.159 107.488L125.11 96.4293Z" fill="#474747"/>
<path d="M193.196 145.686L185.599 139.81H169.802L157.818 145.771L193.196 145.686Z" fill="#066132"/>
<path d="M185.706 136.391H170.193" stroke="#066132" stroke-width="0.917889" stroke-miterlimit="10"/>
<path d="M195.511 128.964C195.511 128.964 195.828 127.186 194.739 125.176C193.65 123.166 191.35 122.198 191.35 122.198" stroke="#3B260D" stroke-width="0.40795" stroke-linecap="round" stroke-linejoin="round"/>
<path d="M95.8262 123.506H87.7921C87.4908 123.506 87.2019 123.387 86.9889 123.174C86.7758 122.961 86.6562 122.672 86.6562 122.37V121.04C86.6562 120.877 86.7209 120.721 86.836 120.606C86.9512 120.491 87.1074 120.426 87.2703 120.426H95.8262V123.509V123.506Z" fill="#D6923E"/>
<path d="M66.5675 120.463V123.469H58.5704C58.2789 123.469 57.9994 123.354 57.7933 123.148C57.5872 122.941 57.4714 122.662 57.4714 122.37V121.04C57.4714 120.887 57.5322 120.74 57.6405 120.632C57.7487 120.524 57.8955 120.463 58.0486 120.463H66.5675Z" fill="#D6923E" stroke="#066132" stroke-width="0.0739041"/>
<path fill-rule="evenodd" clip-rule="evenodd" d="M81.64 158.182C81.64 158.182 90.1345 143.485 89.6512 135.954L99.6903 115.353L89.7872 111.739L79.3926 157.325L81.64 158.182Z" fill="#F9D1BD"/>
<path fill-rule="evenodd" clip-rule="evenodd" d="M79.6395 156.753L77.2635 157.674C76.7786 157.931 74.4455 158.029 74.4455 158.029C74.1188 158.427 74.4802 158.792 74.8224 158.955L81.2232 160.655C81.2232 160.655 82.7693 160.766 82.1692 157.486C80.8833 157.676 79.7222 157.743 79.6395 156.753Z" fill="#694418"/>
<path fill-rule="evenodd" clip-rule="evenodd" d="M87.0848 157.928C87.0848 157.928 91.1052 141.406 88.489 134.87L92.3172 112.457L81.7031 113.177L84.6682 158.057L87.0848 157.928Z" fill="#F9D1BD"/>
<path fill-rule="evenodd" clip-rule="evenodd" d="M84.6591 157.278L82.4258 158.789C81.9823 159.158 79.6669 159.887 79.6669 159.887C79.4001 160.35 79.8147 160.594 80.1842 160.656L86.8245 160.518C86.8245 160.518 88.3839 160.203 87.2968 157.282C86.0382 157.808 84.8897 158.187 84.6591 157.278Z" fill="#8F5C21"/>
<path fill-rule="evenodd" clip-rule="evenodd" d="M81.0332 116.721L81.3288 135.66L82.7825 154.688H90.5018C90.5018 154.688 90.0864 151.379 90.2683 150.328C90.4501 149.276 91.6503 139.321 89.7206 134.74L91.6296 116.084L81.0332 116.721Z" fill="#066132"/>
<path fill-rule="evenodd" clip-rule="evenodd" d="M87.7987 114.772L82.8855 133.82L78.6582 153.227L85.7072 156.372C85.7072 156.372 86.294 152.932 86.767 151.968C87.2399 151.005 91.2418 141.648 90.8169 136.332L99.038 117.117L87.7987 114.772Z" fill="#066132"/>
<path fill-rule="evenodd" clip-rule="evenodd" d="M96.859 101.241L84.0485 101.78C81.7035 102.641 81.0332 116.721 81.0332 116.721L90.5136 117.161C94.9176 117.069 99.4021 120.974 99.9504 113.636C100.577 105.246 96.859 101.241 96.859 101.241Z" fill="#066132"/>
<path fill-rule="evenodd" clip-rule="evenodd" d="M101.274 85.1693C101.131 84.833 101.175 84.4524 101.33 84.1228C102.594 81.4445 98.6929 80.4704 97.4994 79.9036C96.2548 79.3124 97.1712 77.1692 94.691 76.8366C92.2108 76.504 91.6905 77.8712 91.5722 77.855C91.3986 77.8328 92.2899 80.0551 92.2899 80.0551C92.2899 80.0551 93.5233 80.2073 93.9483 82.5398C94.3732 84.8722 93.9889 86.2002 95.7767 87.7552C97.5644 89.3101 102.816 85.8544 102.816 85.8544C101.868 86.0258 101.454 85.5927 101.274 85.1693Z" fill="#382014"/>
<path fill-rule="evenodd" clip-rule="evenodd" d="M89.1271 102.502C88.2528 104.372 86.4622 105.415 84.1926 104.658L74.0869 98.7817L76.0084 97.2844L84.2162 100.423L89.1271 102.502Z" fill="#C95836"/>
<path d="M75.4588 102.334L73.5292 101.433C73.1432 101.254 72.8347 100.941 72.6601 100.553L71.952 98.9806C71.8949 98.8539 71.8693 98.7152 71.8775 98.5765C71.8856 98.4378 71.9273 98.3031 71.999 98.184C72.0706 98.0649 72.1701 97.9649 72.2888 97.8927C72.4076 97.8205 72.542 97.7781 72.6807 97.7693V97.7693L75.0457 99.0375C75.563 99.3176 75.9909 99.8135 76.2333 100.426L76.6368 101.447L75.4588 102.334Z" fill="#F9D1BD"/>
<path fill-rule="evenodd" clip-rule="evenodd" d="M80.7549 100.385L84.136 89.2363C84.9874 86.6984 87.4772 85.615 89.3684 86.9645C90.1134 87.4951 90.3498 88.6717 89.8998 89.6058L84.2993 101.243L80.7549 100.385Z" fill="#C95836"/>
<path fill-rule="evenodd" clip-rule="evenodd" d="M86.9433 86.456L89.7243 85.4353L92.727 85.0089L94.2051 85.0303L99.8654 86.8499C100.789 87.2781 101.522 88.0328 101.923 88.9687C102.323 89.9046 102.364 90.9556 102.037 91.9197L100.821 98.3774C100.255 103.862 100.354 104.375 100.223 109.368C92.9221 110.822 81.7966 109.811 81.1973 109.162C81.2653 105.333 83.9709 103.361 84.3094 100.282C84.8563 95.3252 85.4578 89.5984 86.9433 86.456Z" fill="#BDD7CC"/>
<path d="M89.7972 85.4398C89.7972 85.4398 88.1395 89.8511 91.1429 89.9693C94.1464 90.0876 95.6762 85.507 95.6762 85.507L93.4591 84.5876L89.7972 85.4398Z" fill="#F9D1BD"/>
<path fill-rule="evenodd" clip-rule="evenodd" d="M86.9435 86.4561C86.9435 86.4561 84.5786 86.6778 83.4294 90.8009C82.2802 94.924 81.1982 95.7842 81.1982 95.7842L85.7278 97.4899L88.9648 88.9237L86.9435 86.4561Z" fill="#BDD7CC"/>
<path d="M84.8301 97.0967C84.8301 97.0967 85.4996 93.2293 86.1219 91.7305L86.1759 90.6892" stroke="#918E8A" stroke-width="0.223929" stroke-linecap="round" stroke-linejoin="round"/>
<path fill-rule="evenodd" clip-rule="evenodd" d="M89.7305 83.0172C89.7305 83.0172 90.4459 84.8981 91.0393 86.456C91.1159 86.6594 91.2453 86.8388 91.4141 86.9757C91.583 87.1126 91.7852 87.202 92.0001 87.2349C92.2137 87.2676 92.4321 87.2421 92.6325 87.1612C92.8329 87.0803 93.0078 86.947 93.1389 86.7752L93.3939 86.4434C93.5748 86.2067 93.6853 85.9239 93.7127 85.6273C93.7402 85.3307 93.6835 85.0324 93.5491 84.7665L91.5685 80.8356L89.7305 83.0172Z" fill="#F9D1BD"/>
<path fill-rule="evenodd" clip-rule="evenodd" d="M90.0352 84.077L90.5503 85.1723L91.2435 83.7925L90.0352 84.077Z" fill="#692E1C"/>
<path fill-rule="evenodd" clip-rule="evenodd" d="M92.4545 80.1778C92.482 79.8972 92.3973 79.6171 92.2189 79.3987C92.0406 79.1803 91.783 79.0414 91.5026 79.0123L89.4813 78.8135C88.9004 78.7566 88.474 79.2022 88.3292 79.7743C88.1592 80.449 88.1304 81.8798 88.2346 82.9203C88.293 83.5116 88.6935 84.0829 89.2744 84.1398C89.8944 84.2004 91.8086 83.7858 92.0931 82.6824C92.3104 81.8428 92.3739 81.0432 92.4545 80.1785V80.1778Z" fill="#F9D1BD"/>
<path fill-rule="evenodd" clip-rule="evenodd" d="M94.6891 82.4607C94.6891 82.4607 93.9811 79.5171 93.0521 78.7241C91.8039 77.6584 90.1809 77.1337 88.5439 78.7005C88.5439 78.7005 89.7782 80.9309 93.9471 82.5398L94.6891 82.4607Z" fill="#382014"/>
<path fill-rule="evenodd" clip-rule="evenodd" d="M92.882 82.5739C92.6765 83.0114 92.2168 83.2257 91.8606 83.0528C91.5044 82.8798 91.3788 82.3876 91.5842 81.9442C91.7897 81.5008 92.2493 81.2924 92.6056 81.4653C92.9618 81.6382 93.0852 82.1364 92.882 82.5739Z" fill="#F9D1BD"/>
<path d="M91.6621 77.8853C91.6621 77.8853 92.8941 77.5157 93.5629 79.2192" stroke="#8B939C" stroke-width="0.233537" stroke-linecap="round" stroke-linejoin="round"/>
<path fill-rule="evenodd" clip-rule="evenodd" d="M97.6477 106.234L96.8348 94.1553C96.5333 91.6093 98.2198 89.9657 100.378 90.701C101.228 90.9907 101.907 92.0047 101.902 92.978L102.075 104.655L97.6477 106.234Z" fill="#F9D1BD"/>
<path fill-rule="evenodd" clip-rule="evenodd" d="M96.6458 90.4735L96.2822 98.4189L102.806 98.7559C102.215 97.1182 103.472 90.996 101.062 88.1137C98.4166 84.9388 96.6458 90.4735 96.6458 90.4735Z" fill="#BDD7CC"/>
<path d="M95.7637 97.9052L96.2396 92.706L96.7414 90.854" stroke="#918E8A" stroke-width="0.223929" stroke-linecap="round" stroke-linejoin="round"/>
<path d="M88.1749 105.812H76.1522L69.7344 90.1217H81.7563L88.1749 105.812Z" fill="#EB2227"/>
<path d="M89.7307 100.42L88.2209 98.9177C87.9191 98.6176 87.5198 98.4356 87.0953 98.4048L85.3763 98.2799C85.2376 98.2697 85.0986 98.2934 84.9711 98.3488C84.8436 98.4042 84.7314 98.4897 84.6442 98.598C84.557 98.7063 84.4974 98.8341 84.4704 98.9705C84.4435 99.1068 84.45 99.2477 84.4894 99.3811V99.3811L86.493 101.161C86.9364 101.555 87.5476 101.782 88.2061 101.799L89.3036 101.827L89.7307 100.42Z" fill="#F9D1BD"/>
<path fill-rule="evenodd" clip-rule="evenodd" d="M102.075 104.657C101.978 107.349 99.7104 107.299 97.4098 106.664L87.1475 101.43L89.069 99.9213L97.3846 102.606L102.075 104.657Z" fill="#F9D1BD"/>
<path d="M81.6309 139.585L86.8773 122.569L88.7087 114.349L89.3213 113.784" stroke="#217B56" stroke-width="0.239449" stroke-linecap="round" stroke-linejoin="round"/>
<path d="M90.5579 141.262C90.5579 141.262 88.0592 149.457 87.884 150.07C87.7089 150.684 86.5279 153.669 86.332 154.357" stroke="#217B56" stroke-width="0.239449" stroke-linecap="round" stroke-linejoin="round"/>
<path fill-rule="evenodd" clip-rule="evenodd" d="M88.7803 82.6411L89.7691 82.5073C89.7691 82.5073 89.7809 83.0986 89.3375 83.1274C88.8941 83.1562 88.7803 82.6411 88.7803 82.6411Z" fill="white"/>
<path d="M5.72686 111.214C5.84528 109.968 4.93136 108.862 3.68555 108.744C2.43975 108.625 1.33382 109.539 1.2154 110.785C1.09698 112.031 2.0109 113.137 3.25671 113.255C4.50252 113.373 5.60843 112.46 5.72686 111.214Z" stroke="#3B260D" stroke-width="0.40795" stroke-linecap="round" stroke-linejoin="round"/>
<path d="M167.111 22.9828C167.155 21.7322 166.177 20.6822 164.927 20.6377C163.676 20.5931 162.626 21.5709 162.582 22.8215C162.537 24.0721 163.515 25.1221 164.765 25.1666C166.016 25.2111 167.066 24.2334 167.111 22.9828Z" stroke="#3B260D" stroke-width="0.40795" stroke-linecap="round" stroke-linejoin="round"/>
<path d="M220.915 112.501C220.94 111.25 219.946 110.215 218.695 110.19C217.444 110.165 216.409 111.159 216.384 112.41C216.359 113.661 217.353 114.696 218.604 114.721C219.855 114.746 220.89 113.752 220.915 112.501Z" stroke="#3B260D" stroke-width="0.40795" stroke-linecap="round" stroke-linejoin="round"/>
<path d="M160.56 104.183V46.6565H91.7275" stroke="#217B56" stroke-width="0.688786" stroke-linecap="round" stroke-linejoin="round"/>
<path d="M32.929 46.6564H20.168" stroke="#217B56" stroke-width="0.688786" stroke-linecap="round" stroke-linejoin="round"/>
<path d="M19.6045 110.994V50.6835" stroke="#217B56" stroke-width="0.688786" stroke-linecap="round" stroke-linejoin="round"/>
<path d="M167.184 44.9663L100.021 15.0684" stroke="#217B56" stroke-width="0.688786" stroke-linecap="round" stroke-linejoin="round"/>
<path d="M151.715 60.8608H130.781V84.774" stroke="#217B56" stroke-width="0.688786" stroke-linecap="round" stroke-linejoin="round"/>
<path d="M153.461 64.1849V86.5904H139.482" stroke="#217B56" stroke-width="0.688786" stroke-linecap="round" stroke-linejoin="round"/>
<path d="M118.946 60.8608H98.0127V71.6013" stroke="#217B56" stroke-width="0.688786" stroke-linecap="round" stroke-linejoin="round"/>
<path d="M120.693 64.1851V86.5906H106.715" stroke="#217B56" stroke-width="0.688786" stroke-linecap="round" stroke-linejoin="round"/>
<path d="M33.2733 35.4385L20.748 41.4631" stroke="#217B56" stroke-width="0.688786" stroke-linecap="round" stroke-linejoin="round"/>
<path d="M85.4415 10.3444L65.8008 19.7915" stroke="#217B56" stroke-width="0.688786" stroke-linecap="round" stroke-linejoin="round"/>
<path d="M34.9423 65.1569H24.3002C24.1279 65.1569 23.9883 65.2965 23.9883 65.4687V70.56C23.9883 70.7322 24.1279 70.8719 24.3002 70.8719H34.9423C35.1146 70.8719 35.2542 70.7322 35.2542 70.56V65.4687C35.2542 65.2965 35.1146 65.1569 34.9423 65.1569Z" stroke="#217B56" stroke-width="0.688786" stroke-linecap="round" stroke-linejoin="round"/>
<path d="M52.3115 94.7488H41.6693C41.4971 94.7488 41.3574 94.8884 41.3574 95.0607V100.152C41.3574 100.324 41.4971 100.464 41.6693 100.464H52.3115C52.4837 100.464 52.6234 100.324 52.6234 100.152V95.0607C52.6234 94.8884 52.4837 94.7488 52.3115 94.7488Z" stroke="#217B56" stroke-width="0.688786" stroke-linecap="round" stroke-linejoin="round"/>
<path d="M104.447 50.3716H93.805C93.6328 50.3716 93.4932 50.5112 93.4932 50.6835V55.7747C93.4932 55.947 93.6328 56.0866 93.805 56.0866H104.447C104.619 56.0866 104.759 55.947 104.759 55.7747V50.6835C104.759 50.5112 104.619 50.3716 104.447 50.3716Z" stroke="#217B56" stroke-width="0.688786" stroke-linecap="round" stroke-linejoin="round"/>
<path d="M88 35.5062L62.5 23.7668L37 35.5062L38.142 61.7826C38.0371 72.2383 61.1693 87.9343 61.9792 87.9996C63.1355 88.0931 86.9629 72.2397 86.858 61.7826L88 35.5062Z" stroke="#191919" stroke-width="0.559454" stroke-linecap="round" stroke-linejoin="round"/>
<path d="M80.7317 40.2622L62.4997 31.6676L44.2676 40.2622L45.0843 59.0489C45.0088 66.5259 61.5486 77.7488 62.1275 77.7934C62.954 77.8609 79.9898 66.5259 79.915 59.0489L80.7317 40.2622Z" fill="#EB2227"/>
<path d="M62.1289 77.7934C62.9554 77.8609 79.9911 66.5259 79.9164 59.0489L80.7331 40.2622L62.501 31.6676L62.1289 77.7934Z" fill="#CF1A1E"/>
<path d="M38.8447 24.776L42.0926 26.2245" stroke="#191919" stroke-width="0.559454" stroke-linecap="round" stroke-linejoin="round"/>
<path d="M48.3018 17L48.8996 21.0962" stroke="#191919" stroke-width="0.559454" stroke-linecap="round" stroke-linejoin="round"/>
<path d="M42.2148 18.9012L44.8642 22.3437" stroke="#191919" stroke-width="0.559454" stroke-linecap="round" stroke-linejoin="round"/>
<path d="M65.2798 57.9063C64.9138 57.9289 64.5532 57.81 64.2749 57.5751C63.9966 57.3402 63.8226 57.0078 63.7899 56.6486C63.7473 56.3046 63.8339 55.957 64.0335 55.6713C64.233 55.3856 64.5318 55.1813 64.8738 55.0968C65.3836 54.9828 65.8904 54.8627 66.4003 54.7516C67.4994 54.5115 68.5985 54.2804 69.6946 54.0373C69.893 53.9778 70.104 53.9727 70.3052 54.0223C70.476 54.0653 70.6305 54.1559 70.7501 54.2832C70.8698 54.4104 70.9496 54.5689 70.9799 54.7396C71.0312 54.9265 71.0213 55.1244 70.9518 55.3055C70.8822 55.4865 70.7564 55.6414 70.5922 55.7482C70.4856 55.8156 70.3732 55.8739 70.2563 55.9223L65.982 57.7442C65.7642 57.852 65.5236 57.9075 65.2798 57.9063Z" fill="white"/>
<path d="M60.0606 55.8832C60.2586 55.8971 60.4514 55.9521 60.6261 56.0448C60.8008 56.1374 60.9536 56.2655 61.0742 56.4205C61.1599 56.5326 61.2384 56.6499 61.3093 56.7717C62.0664 58.0343 62.8195 59.294 63.5686 60.5507C63.6455 60.6694 63.7148 60.7927 63.7762 60.9199C63.8731 61.1262 63.8932 61.3595 63.8329 61.579C63.7726 61.7985 63.6358 61.9901 63.4464 62.1205C63.2549 62.2507 63.0219 62.3081 62.7906 62.2821C62.5592 62.2562 62.3453 62.1486 62.1886 61.9794C61.8069 61.5832 61.4467 61.166 61.0803 60.7578L59.0622 58.5156C58.9584 58.3985 58.8485 58.2815 58.7569 58.1554C58.5924 57.9331 58.4961 57.6691 58.4792 57.3947C58.4624 57.1203 58.5258 56.8469 58.6619 56.6067C58.798 56.3666 59.0011 56.1697 59.2473 56.0394C59.4935 55.909 59.7725 55.8507 60.0514 55.8712L60.0606 55.8832Z" fill="white"/>
<path d="M57.4877 51.1768C57.7548 51.1743 58.0174 51.2444 58.2464 51.3795C58.4754 51.5146 58.6619 51.7094 58.7853 51.9422C58.9141 52.1687 58.9764 52.4259 58.965 52.6851C58.9537 52.9443 58.8693 53.1953 58.7212 53.41C58.6499 53.516 58.5703 53.6164 58.483 53.7102C57.4531 54.8568 56.4222 56.0024 55.3903 57.147C55.2681 57.2888 55.1226 57.4096 54.9598 57.5042C54.791 57.5945 54.5976 57.6304 54.4069 57.6067C54.2162 57.583 54.0379 57.5009 53.8973 57.3721C53.753 57.2478 53.6496 57.0841 53.6001 56.9018C53.5506 56.7196 53.5574 56.527 53.6195 56.3485C53.6539 56.2433 53.7011 56.1426 53.7599 56.0484C54.5741 54.6777 55.3954 53.3069 56.2238 51.9362C56.3196 51.7645 56.4504 51.6141 56.608 51.4943C56.7656 51.3745 56.9466 51.2879 57.1397 51.2399C57.2588 51.2068 57.3839 51.1948 57.4877 51.1768Z" fill="white"/>
<path d="M61.3004 50.3453C61.0267 50.3236 60.7601 50.2491 60.5157 50.1262L57.2489 48.7275C56.8703 48.5684 56.4887 48.4273 56.1162 48.2412C55.9166 48.1548 55.7522 48.0051 55.6491 47.8161C55.5461 47.6271 55.5103 47.4096 55.5475 47.1984C55.5848 46.9871 55.6928 46.7941 55.8545 46.6502C56.0163 46.5063 56.2223 46.4197 56.4399 46.4043C56.5662 46.4022 56.6923 46.4153 56.8154 46.4433L61.453 47.4488C61.5477 47.4698 61.6393 47.4968 61.7278 47.5238C62.0174 47.612 62.2719 47.7864 62.4563 48.023C62.6406 48.2596 62.7456 48.5467 62.7567 48.8445C62.7658 49.1427 62.6793 49.4362 62.5095 49.6835C62.3396 49.9307 62.095 50.1192 61.8102 50.2223C61.6431 50.274 61.4728 50.3151 61.3004 50.3453Z" fill="white"/>
<path d="M64.623 51.1946C64.6627 50.7534 64.6963 50.3662 64.736 49.994C64.8317 48.9935 64.9273 47.9999 65.023 47.0134C65.0474 46.7643 65.0749 46.5182 65.1054 46.269C65.1252 46.0318 65.2342 45.8103 65.4111 45.6477C65.588 45.4852 65.8202 45.3932 66.0623 45.3899C66.3044 45.3865 66.5391 45.4719 66.7207 45.6295C66.9022 45.787 67.0175 46.0054 67.0441 46.242C67.0991 46.6442 67.1235 47.0494 67.1632 47.4427C67.2456 48.2801 67.3311 49.1175 67.4136 49.955C67.4533 50.3572 67.5052 50.7594 67.5265 51.1556C67.5487 51.3488 67.5305 51.5444 67.4732 51.7305C67.4159 51.9166 67.3207 52.0893 67.1932 52.238C67.0658 52.3868 66.909 52.5084 66.7322 52.5956C66.5554 52.6827 66.3624 52.7336 66.165 52.745C65.9675 52.7564 65.7698 52.7282 65.5838 52.6621C65.3978 52.5959 65.2275 52.4932 65.0832 52.3602C64.939 52.2272 64.8238 52.0667 64.7446 51.8885C64.6655 51.7103 64.6241 51.5181 64.623 51.3237V51.1946Z" fill="white"/>
<path d="M75.2666 52.9087C75.263 53.1261 75.209 53.34 75.1087 53.5339C75.0085 53.7278 74.8646 53.8967 74.688 54.0277C74.5114 54.1588 74.3068 54.2486 74.0897 54.2903C73.8725 54.332 73.6485 54.3245 73.4348 54.2684C73.2988 54.2279 73.1652 54.1798 73.0348 54.1243L69.4291 52.6415C69.3436 52.6055 69.2521 52.5725 69.1666 52.5335C68.951 52.4488 68.7702 52.2961 68.6525 52.0995C68.5348 51.9028 68.4868 51.6732 68.5163 51.4469C68.5219 51.3064 68.5572 51.1687 68.6198 51.0423C68.6825 50.916 68.7712 50.8038 68.8803 50.7129C68.9893 50.6221 69.1164 50.5545 69.2535 50.5144C69.3906 50.4744 69.5346 50.4628 69.6764 50.4804C70.0336 50.5284 70.3878 50.6275 70.742 50.7085L74.024 51.4649C74.1278 51.4891 74.2298 51.5202 74.3293 51.5579C74.6061 51.6635 74.8439 51.8491 75.0112 52.0903C75.1786 52.3314 75.2676 52.6167 75.2666 52.9087V52.9087Z" fill="white"/>
<path d="M65.1629 40.7402C65.4314 40.7169 65.7009 40.7717 65.9381 40.8976C66.1753 41.0235 66.3696 41.2151 66.4971 41.4486C66.6344 41.6779 66.7021 41.941 66.6924 42.2069C66.6827 42.4728 66.5958 42.7304 66.4421 42.9494C66.3729 43.0561 66.2943 43.1565 66.207 43.2495L63.5966 46.2331C63.5234 46.3141 63.447 46.3922 63.3677 46.4702C63.1832 46.631 62.9505 46.7283 62.7047 46.7472C62.459 46.7662 62.2137 46.7058 62.006 46.5753C61.7997 46.4274 61.6511 46.2145 61.585 45.972C61.5189 45.7295 61.5392 45.4721 61.6427 45.2426C61.6964 45.1291 61.7586 45.0198 61.8289 44.9154L63.8745 41.5897L64.0027 41.3916C64.1208 41.1923 64.2902 41.0272 64.4939 40.9128C64.6976 40.7985 64.9283 40.7389 65.1629 40.7402V40.7402Z" fill="white"/>
<path d="M64.6244 64.1526C64.6641 63.6574 64.6977 63.2071 64.7343 62.7569C64.8198 61.7784 64.9144 60.8029 64.9938 59.8244C64.997 59.6287 65.0559 59.4378 65.1639 59.2733C65.2718 59.1089 65.4244 58.9774 65.6044 58.8939C65.7579 58.8237 65.9259 58.79 66.095 58.7954C66.2641 58.8007 66.4296 58.845 66.5781 58.9248C66.7266 59.0045 66.854 59.1174 66.95 59.2543C67.0461 59.3913 67.1081 59.5485 67.131 59.7133C67.1676 59.9774 67.189 60.2416 67.2104 60.5057L67.5157 63.9966C67.5483 64.2214 67.5275 64.4506 67.4549 64.6662C67.3823 64.8817 67.26 65.0779 67.0974 65.2392C66.8987 65.4364 66.6457 65.5722 66.3695 65.6301C66.0934 65.6879 65.8061 65.6653 65.5428 65.5649C65.2796 65.4645 65.0519 65.2907 64.8876 65.0649C64.7234 64.8391 64.6298 64.5711 64.6183 64.2937C64.6176 64.2466 64.6196 64.1995 64.6244 64.1526V64.1526Z" fill="white"/>
<path d="M52.7589 61.9223C52.4204 61.9278 52.0905 61.8172 51.8259 61.6095C51.5613 61.4018 51.3786 61.1099 51.3092 60.7841C51.2398 60.4583 51.2881 60.1189 51.4457 59.8243C51.6033 59.5297 51.8604 59.2983 52.1728 59.1698C52.3962 59.0886 52.6259 59.0254 52.8597 58.9807C54.0321 58.7066 55.2055 58.4364 56.3799 58.1703C56.565 58.1245 56.7542 58.0964 56.9447 58.0862C57.1772 58.0712 57.4078 58.1356 57.5975 58.2685C57.7872 58.4014 57.9244 58.5947 57.9858 58.8156C58.0626 59.0408 58.0598 59.2849 57.9778 59.5083C57.8957 59.7317 57.7394 59.9212 57.534 60.0463C57.4102 60.1171 57.2805 60.1774 57.1462 60.2264C55.925 60.7306 54.7038 61.2289 53.5039 61.7272C53.274 61.8473 53.0192 61.914 52.7589 61.9223V61.9223Z" fill="white"/>
<path d="M55.9028 50.3754C55.9146 50.5798 55.8623 50.7829 55.7532 50.9573C55.644 51.1317 55.4831 51.2691 55.2922 51.3509C55.1002 51.4442 54.8839 51.4781 54.6718 51.4481C54.4598 51.4181 54.262 51.3256 54.1045 51.1828C54.0331 51.12 53.9667 51.0517 53.9061 50.9787L51.1889 47.8901C50.9876 47.6688 50.8459 47.4016 50.7767 47.1127C50.709 46.741 50.7936 46.3581 51.0122 46.0477C51.2307 45.7372 51.5653 45.5244 51.943 45.4558C52.2501 45.3981 52.5679 45.4384 52.8502 45.5707C53.1324 45.7029 53.3644 45.9203 53.5123 46.1912C54.2297 47.3708 54.9594 48.5444 55.683 49.715C55.822 49.9084 55.8986 50.1385 55.9028 50.3754V50.3754Z" fill="white"/>
</svg>
