<svg width="327" height="286" viewBox="0 0 327 286" fill="none" xmlns="http://www.w3.org/2000/svg">
<path d="M233.634 191.612C233.634 191.612 208.855 199.786 237.197 226.165C248.024 236.239 253.393 259.991 231.607 262.678C209.82 265.365 177.713 256.669 163.015 267.59C164.426 212.643 165.077 162.738 233.634 191.612Z" fill="#EFF1F7"/>
<path d="M265.312 147.707C274.867 88.1978 202.4 41.6548 138.531 69.7315C119.277 78.1954 108.71 98.9824 101.303 121.953C78.513 192.634 40.4371 180.037 44.269 214.839C48.1009 249.642 108.766 265.511 144.606 208.283C170.802 166.455 248.428 220.354 261.515 166.337C263.105 159.781 264.37 153.571 265.312 147.707Z" fill="#C3E7D8"/>
<path d="M163.914 188.494L193.069 105.16L232.378 119.007L203.222 202.341L163.914 188.494Z" fill="#EB5353"/>
<path d="M224.858 130.417L204.531 188.518" stroke="white" stroke-width="0.537694" stroke-linecap="round" stroke-linejoin="round"/>
<path d="M204.576 112.708L218.726 117.693" stroke="white" stroke-width="0.537694" stroke-linecap="round" stroke-linejoin="round"/>
<path d="M171.403 176.847L191.728 118.746" stroke="white" stroke-width="0.537694" stroke-linecap="round" stroke-linejoin="round"/>
<path d="M218.726 117.701C218.726 117.701 216.574 126.455 224.858 130.424" stroke="white" stroke-width="0.537694" stroke-linecap="round" stroke-linejoin="round"/>
<path d="M191.819 194.603C191.819 194.603 195.592 186.421 204.531 188.518" stroke="white" stroke-width="0.537694" stroke-linecap="round" stroke-linejoin="round"/>
<path d="M177.481 189.551C177.481 189.551 179.633 180.806 171.349 176.828" stroke="white" stroke-width="0.537694" stroke-linecap="round" stroke-linejoin="round"/>
<path d="M204.387 112.641C204.387 112.641 200.612 120.823 191.675 118.727" stroke="white" stroke-width="0.537694" stroke-linecap="round" stroke-linejoin="round"/>
<path d="M207.896 158.241C210.052 153.738 208.112 148.322 203.563 146.144C199.015 143.967 193.58 145.852 191.424 150.356C189.268 154.859 191.208 160.275 195.757 162.453C200.305 164.63 205.74 162.745 207.896 158.241Z" stroke="white" stroke-width="0.537694" stroke-linecap="round" stroke-linejoin="round"/>
<path d="M177.447 189.793L191.597 194.776" stroke="white" stroke-width="0.537694" stroke-linecap="round" stroke-linejoin="round"/>
<path d="M138.31 118.755C129.675 124.578 127.203 131.752 126.635 136.65C125.074 130.534 123.278 124.787 121.452 119.581C138.087 109.313 130.87 96.8022 130.87 96.8022C122.599 102.597 120.155 109.551 119.574 114.439L119.548 114.37C116.905 107.405 114.143 101.165 111.654 95.9617C127.04 82.4189 117.264 71.1597 117.264 71.1597C109.605 79.0956 109.032 87.0703 109.677 91.9273C106.951 86.4888 104.751 82.623 103.72 80.8625C98.9502 64.4029 85.3086 62.9097 85.3086 62.9097C87.8481 78.7166 96.8885 81.269 101.354 81.5346C102.163 82.9015 104.554 87.0103 107.607 93.1064C95.6819 85.7957 85.592 91.3022 85.592 91.3022C96.9419 103.046 105.95 99.6057 109.634 97.2638C112.064 102.367 114.759 108.466 117.335 115.257C117.603 115.962 117.871 116.684 118.145 117.414C107.574 106.827 95.9394 110.528 95.9394 110.528C105.564 125.342 115.894 122.189 119.285 120.589C121.198 126.056 123.072 132.126 124.669 138.584C114.433 128.476 103.137 131.841 103.137 131.841C111.936 145.943 121.648 144.158 125.616 142.613C128.732 156.603 130.381 172.133 128.272 187.196C128.247 187.353 128.254 187.513 128.292 187.667C128.329 187.82 128.398 187.965 128.492 188.093C128.586 188.22 128.705 188.327 128.842 188.408C128.978 188.488 129.129 188.541 129.286 188.563C129.443 188.584 129.603 188.574 129.756 188.533C129.909 188.492 130.052 188.421 130.177 188.324C130.302 188.227 130.407 188.106 130.485 187.968C130.563 187.83 130.612 187.678 130.63 187.52C132.804 172.005 131.079 156.041 127.856 141.713C145.466 131.705 138.31 118.755 138.31 118.755Z" fill="#5EBE96"/>
<path d="M114.415 135.871C107.613 143.768 107.127 151.336 107.866 156.207C104.748 150.719 101.501 145.648 98.3654 141.107C111.707 126.819 101.443 116.651 101.443 116.651C94.9919 124.425 94.4655 131.775 95.1943 136.642C95.1797 136.622 95.1635 136.601 95.1506 136.582C90.7664 130.565 86.4568 125.269 82.68 120.904C93.9683 103.784 81.5738 95.5015 81.5738 95.5015C76.2762 105.177 77.8245 113.019 79.7275 117.527C75.664 112.993 72.5237 109.851 71.0645 108.424C62.131 93.8058 48.5785 95.9533 48.5785 95.9533C55.1928 110.529 64.5862 110.614 68.9655 109.699C70.1089 110.801 73.5003 114.136 78.0464 119.213C64.6121 115.289 56.3329 123.262 56.3329 123.262C70.3762 131.601 78.1598 125.909 81.096 122.679C84.7886 126.961 88.9914 132.136 93.267 138.007C93.7108 138.616 94.1594 139.241 94.6113 139.876C81.6159 132.465 71.3706 139.1 71.3706 139.1C84.5603 150.855 93.6946 145.092 96.5418 142.653C99.8295 147.423 103.237 152.785 106.479 158.593C93.9424 151.541 83.9319 157.764 83.9319 157.764C96.132 169.049 105.032 164.767 108.459 162.239C115.152 174.912 120.835 189.459 122.769 204.545C122.809 204.858 122.972 205.143 123.222 205.336C123.472 205.529 123.789 205.615 124.102 205.575C124.229 205.56 124.353 205.523 124.468 205.466C124.693 205.358 124.878 205.181 124.998 204.961C125.117 204.742 125.164 204.49 125.132 204.242C123.132 188.696 117.261 173.751 110.376 160.781C124.729 146.479 114.415 135.871 114.415 135.871Z" fill="#5EBE96"/>
<path d="M138.714 273.134C185.283 273.134 223.034 270.95 223.034 268.256C223.034 265.561 185.283 263.377 138.714 263.377C92.1445 263.377 54.3928 265.561 54.3928 268.256C54.3928 270.95 92.1445 273.134 138.714 273.134Z" fill="#E3E5EB"/>
<path d="M198.501 118.341H124.329C121.305 118.341 118.854 120.792 118.854 123.815V263.463C118.854 266.486 121.305 268.937 124.329 268.937H198.501C201.525 268.937 203.975 266.486 203.975 263.463V123.815C203.975 120.792 201.525 118.341 198.501 118.341Z" fill="#217B56"/>
<path d="M195.617 268.938H121.441C119.991 268.933 118.601 268.355 117.575 267.329C116.55 266.304 115.972 264.914 115.968 263.463V123.815C115.974 122.366 116.553 120.978 117.579 119.954C118.604 118.93 119.993 118.353 121.443 118.349H195.618C197.069 118.353 198.459 118.931 199.484 119.957C200.51 120.983 201.088 122.373 201.092 123.823V263.462C201.089 264.913 200.511 266.303 199.484 267.329C198.458 268.355 197.068 268.934 195.617 268.938V268.938Z" fill="#36AE7C"/>
<path d="M197.342 125.002H119.659C119.215 125.002 118.854 125.363 118.854 125.807V260.626C118.854 261.071 119.215 261.431 119.659 261.431H197.342C197.786 261.431 198.147 261.071 198.147 260.626V125.807C198.147 125.363 197.786 125.002 197.342 125.002Z" fill="#C3E7D8"/>
<path d="M184.426 148.993H146.625C144.985 148.993 143.656 150.322 143.656 151.961V181.517C143.656 183.156 144.985 184.485 146.625 184.485H184.426C186.065 184.485 187.394 183.156 187.394 181.517V151.961C187.394 150.322 186.065 148.993 184.426 148.993Z" fill="#36AE7C"/>
<path d="M235.136 146.283C236.664 146.283 237.903 145.044 237.903 143.515C237.903 141.987 236.664 140.748 235.136 140.748C233.607 140.748 232.368 141.987 232.368 143.515C232.368 145.044 233.607 146.283 235.136 146.283Z" stroke="#36AE7C" stroke-width="0.631629" stroke-miterlimit="10" stroke-linecap="round"/>
<path d="M166.918 87.762C167.162 86.2529 166.136 84.8321 164.627 84.5885C163.118 84.3449 161.697 85.3708 161.453 86.8798C161.21 88.3889 162.236 89.8098 163.745 90.0534C165.254 90.297 166.675 89.2711 166.918 87.762Z" stroke="#36AE7C" stroke-width="0.631629" stroke-miterlimit="10" stroke-linecap="round"/>
<path d="M57.1241 153.34C57.3707 151.832 56.3475 150.409 54.8389 150.162C53.3303 149.916 51.9074 150.939 51.6609 152.448C51.4144 153.956 52.4376 155.379 53.9462 155.626C55.4548 155.872 56.8776 154.849 57.1241 153.34Z" stroke="#2D4973" stroke-width="0.631629" stroke-miterlimit="10" stroke-linecap="round"/>
<path d="M178.837 139.591H135.677C133.805 139.591 132.287 141.109 132.287 142.981V176.726C132.287 178.598 133.805 180.116 135.677 180.116H178.837C180.709 180.116 182.226 178.598 182.226 176.726V142.981C182.226 141.109 180.709 139.591 178.837 139.591Z" fill="white"/>
<path d="M158.175 174.123C166.573 173.527 172.898 166.235 172.302 157.837C171.706 149.439 164.415 143.114 156.016 143.71C147.618 144.306 141.293 151.597 141.889 159.996C142.485 168.394 149.777 174.719 158.175 174.123Z" fill="#FFCCAB"/>
<path d="M157.775 169.13C163.433 168.888 167.824 164.104 167.582 158.446C167.34 152.787 162.557 148.396 156.898 148.638C151.239 148.88 146.849 153.664 147.091 159.322C147.333 164.981 152.116 169.372 157.775 169.13Z" fill="#F9A56E"/>
<path d="M156.783 163.927C155.705 163.817 154.688 163.37 153.879 162.649L154.516 161.677C155.253 162.299 156.124 162.799 157.162 162.788C158.419 162.775 159.041 162.071 159.029 161.018C159 158.265 154.266 158.912 154.231 155.596C154.214 154.085 155.188 152.986 156.66 152.75L156.64 151.033L157.661 151.022L157.679 152.705C158.767 152.812 159.486 153.331 160.108 153.971L159.369 154.812C158.735 154.206 158.203 153.855 157.287 153.864C156.25 153.876 155.594 154.528 155.604 155.515C155.63 157.978 160.364 157.248 160.403 160.901C160.421 162.521 159.412 163.655 157.8 163.886L157.818 165.603L156.799 165.613L156.783 163.927Z" fill="white"/>
<path fill-rule="evenodd" clip-rule="evenodd" d="M148.287 150.633C148.027 151.422 147.61 152.322 146.968 152.826C146.907 152.877 146.859 152.942 146.828 153.016C146.797 153.089 146.784 153.169 146.791 153.249C146.798 153.328 146.824 153.405 146.866 153.472C146.909 153.54 146.967 153.596 147.036 153.636C147.775 154.06 148.424 154.623 148.947 155.294C149.001 155.368 149.075 155.426 149.159 155.461C149.244 155.496 149.337 155.507 149.427 155.492C149.518 155.478 149.602 155.438 149.672 155.378C149.741 155.319 149.792 155.241 149.82 155.153C150.067 154.386 150.481 153.683 151.033 153.095C151.085 153.04 151.123 152.974 151.144 152.902C151.166 152.83 151.172 152.754 151.16 152.68C151.148 152.606 151.119 152.536 151.076 152.474C151.033 152.413 150.976 152.362 150.91 152.326C150.18 151.913 149.585 151.297 149.198 150.552C149.152 150.467 149.082 150.397 148.996 150.351C148.91 150.305 148.813 150.285 148.716 150.293C148.619 150.302 148.527 150.339 148.45 150.399C148.374 150.46 148.317 150.541 148.287 150.633Z" fill="white"/>
<path d="M158.577 169.069C158.577 169.069 168.295 167.043 167.407 156.98" stroke="#A36136" stroke-width="0.396792" stroke-linecap="round" stroke-linejoin="round"/>
<path d="M148.155 146.562C148.155 146.562 153.573 141.912 160.735 144.1" stroke="#A36136" stroke-width="0.396792" stroke-linecap="round" stroke-linejoin="round"/>
<path d="M105.543 196.454C103.624 194.633 101.179 193.465 98.5571 193.114C95.935 192.763 93.269 193.247 90.9382 194.499V194.499C85.3394 197.111 84.5847 202.953 84.5847 202.953C84.1275 205.099 84.2396 207.326 84.9097 209.415C85.5798 211.504 86.7846 213.381 88.4046 214.861C90.0245 216.34 92.0032 217.37 94.1442 217.848C96.2852 218.326 98.514 218.235 100.609 217.585C102.705 216.936 104.593 215.749 106.088 214.144C107.583 212.538 108.632 210.57 109.131 208.433C109.63 206.297 109.561 204.068 108.932 201.966C108.302 199.865 107.134 197.964 105.543 196.454V196.454Z" fill="#F9A56E"/>
<path d="M122.225 167.333C120.305 165.512 117.86 164.343 115.238 163.993C112.615 163.642 109.949 164.126 107.618 165.378C102.019 167.99 101.266 173.832 101.266 173.832C100.808 175.978 100.92 178.206 101.59 180.296C102.26 182.385 103.465 184.263 105.085 185.743C106.705 187.223 108.684 188.253 110.825 188.731C112.967 189.209 115.196 189.119 117.292 188.469C119.388 187.819 121.277 186.632 122.772 185.026C124.267 183.42 125.316 181.451 125.815 179.314C126.314 177.177 126.245 174.947 125.615 172.845C124.985 170.744 123.816 168.843 122.225 167.333V167.333Z" fill="#F9A56E"/>
<path d="M129.741 145.334C103.213 148.324 79.7567 166.774 71.6945 193.982C69.8108 200.327 68.8556 206.911 68.8587 213.529" stroke="#4A476B" stroke-width="1.20657" stroke-linecap="round" stroke-linejoin="round"/>
<path d="M73.6672 207.506L69.1308 214.674L63.8785 207.644" stroke="#4A476B" stroke-width="1.20657" stroke-linecap="round" stroke-linejoin="round"/>
<path d="M115.06 222.799H78.7153C73.0614 222.799 68.478 227.383 68.478 233.037V259.283C68.478 264.937 73.0614 269.52 78.7153 269.52H115.06C120.714 269.52 125.297 264.937 125.297 259.283V233.037C125.297 227.383 120.714 222.799 115.06 222.799Z" fill="#217B56"/>
<path d="M106.505 222.799H73.1925C66.7014 222.799 61.4393 228.061 61.4393 234.552V257.767C61.4393 264.258 66.7014 269.52 73.1925 269.52H106.505C112.996 269.52 118.258 264.258 118.258 257.767V234.552C118.258 228.061 112.996 222.799 106.505 222.799Z" fill="#36AE7C"/>
<path d="M125.367 242.968H115.04C113.3 242.968 111.889 244.379 111.889 246.119V248.729C111.889 250.469 113.3 251.88 115.04 251.88H125.367C127.107 251.88 128.518 250.469 128.518 248.729V246.119C128.518 244.379 127.107 242.968 125.367 242.968Z" fill="#217B56"/>
<path d="M115.306 248.826C116.08 248.826 116.708 248.198 116.708 247.423C116.708 246.648 116.08 246.021 115.306 246.021C114.531 246.021 113.903 246.648 113.903 247.423C113.903 248.198 114.531 248.826 115.306 248.826Z" fill="#3A4266"/>
<path d="M204.664 190.434H141.559C139.225 190.434 137.332 192.326 137.332 194.661V230.272C137.332 232.606 139.225 234.499 141.559 234.499H204.664C206.998 234.499 208.891 232.606 208.891 230.272V194.661C208.891 192.326 206.998 190.434 204.664 190.434Z" fill="#217B56"/>
<path d="M201.943 190.434H138.838C136.504 190.434 134.611 192.326 134.611 194.661V230.272C134.611 232.606 136.504 234.499 138.838 234.499H201.943C204.277 234.499 206.17 232.606 206.17 230.272V194.661C206.17 192.326 204.277 190.434 201.943 190.434Z" fill="#36AE7C"/>
<path d="M146.398 208.512C149.651 208.512 152.289 205.874 152.289 202.621C152.289 199.368 149.651 196.731 146.398 196.731C143.145 196.731 140.508 199.368 140.508 202.621C140.508 205.874 143.145 208.512 146.398 208.512Z" fill="#C3E7D8"/>
<path d="M195.429 202.621H183.87C181.748 202.621 180.027 204.342 180.027 206.464V210.682C180.027 212.804 181.748 214.525 183.87 214.525H195.429C197.552 214.525 199.272 212.804 199.272 210.682V206.464C199.272 204.342 197.552 202.621 195.429 202.621Z" fill="#C3E7D8"/>
<path d="M159.465 227.746H141.196C140.817 227.746 140.51 228.053 140.51 228.432V229.001C140.51 229.38 140.817 229.687 141.196 229.687H159.465C159.844 229.687 160.152 229.38 160.152 229.001V228.432C160.152 228.053 159.844 227.746 159.465 227.746Z" fill="white"/>
<path d="M198.585 227.746H180.317C179.938 227.746 179.63 228.053 179.63 228.432V229.001C179.63 229.38 179.938 229.687 180.317 229.687H198.585C198.965 229.687 199.272 229.38 199.272 229.001V228.432C199.272 228.053 198.965 227.746 198.585 227.746Z" fill="white"/>
<path d="M198.585 196.604H180.317C179.938 196.604 179.63 196.912 179.63 197.291V197.86C179.63 198.239 179.938 198.546 180.317 198.546H198.585C198.965 198.546 199.272 198.239 199.272 197.86V197.291C199.272 196.912 198.965 196.604 198.585 196.604Z" fill="white"/>
<path d="M150.919 219.507H141.881C141.124 219.507 140.51 220.121 140.51 220.879V222.017C140.51 222.775 141.124 223.389 141.881 223.389H150.919C151.676 223.389 152.29 222.775 152.29 222.017V220.879C152.29 220.121 151.676 219.507 150.919 219.507Z" fill="white"/>
<path d="M166.644 219.507H157.607C156.85 219.507 156.235 220.121 156.235 220.879V222.017C156.235 222.775 156.85 223.389 157.607 223.389H166.644C167.402 223.389 168.016 222.775 168.016 222.017V220.879C168.016 220.121 167.402 219.507 166.644 219.507Z" fill="white"/>
<path d="M182.372 219.507H173.335C172.577 219.507 171.963 220.121 171.963 220.879V222.017C171.963 222.775 172.577 223.389 173.335 223.389H182.372C183.13 223.389 183.744 222.775 183.744 222.017V220.879C183.744 220.121 183.13 219.507 182.372 219.507Z" fill="white"/>
<path d="M198.1 219.507H189.063C188.305 219.507 187.691 220.121 187.691 220.879V222.017C187.691 222.775 188.305 223.389 189.063 223.389H198.1C198.857 223.389 199.471 222.775 199.471 222.017V220.879C199.471 220.121 198.857 219.507 198.1 219.507Z" fill="white"/>
<path fill-rule="evenodd" clip-rule="evenodd" d="M260.717 178.208C260.686 177.983 260.703 177.754 260.767 177.536C260.83 177.318 260.939 177.116 261.086 176.943C263.404 174.028 258.911 171.715 257.614 170.677C256.261 169.595 258.001 167.237 255.063 166.116C252.125 164.995 251.093 166.516 250.952 166.463C250.747 166.387 251.197 169.363 251.197 169.363C251.197 169.363 252.663 169.904 252.512 172.881C252.361 175.858 251.506 177.372 253.246 179.789C254.985 182.205 262.408 179.491 262.408 179.491C261.196 179.427 260.814 178.778 260.717 178.208Z" fill="#663A24"/>
<path fill-rule="evenodd" clip-rule="evenodd" d="M234.83 268.657C234.83 269.569 245.653 270.309 259.007 270.309C272.36 270.309 283.185 269.569 283.185 268.657C283.185 267.745 272.36 267.003 259.007 267.003C245.653 267.003 234.83 267.744 234.83 268.657Z" fill="#E3E5EB"/>
<path fill-rule="evenodd" clip-rule="evenodd" d="M251.433 265.637C251.433 265.637 252.909 246.364 249.03 238.378L247.21 212.254L238.205 215.574L248.536 265.795L251.433 265.637Z" fill="#E3633D"/>
<path fill-rule="evenodd" clip-rule="evenodd" d="M267.959 266.019L264.945 260.023L269.951 258.667L271.108 266.213L267.959 266.019Z" fill="#E3633D"/>
<path fill-rule="evenodd" clip-rule="evenodd" d="M249.776 215.781L255.565 235.721C255.565 235.721 259.839 255.453 263.564 261.163L272.068 261.34L265.651 234.779L260.697 212.677L249.776 215.781Z" fill="#36AE7C"/>
<path fill-rule="evenodd" clip-rule="evenodd" d="M248.444 264.952L245.924 266.787C245.428 267.24 242.725 268.121 242.725 268.121C242.456 268.685 242.982 268.981 243.429 269.056L251.404 268.894C251.404 268.894 253.247 268.511 251.613 264.961C250.17 265.596 248.823 266.053 248.444 264.952Z" fill="#4A2A1A"/>
<path fill-rule="evenodd" clip-rule="evenodd" d="M270.868 264.979L273.388 266.814C273.882 267.269 276.585 268.15 276.585 268.15C276.856 268.712 276.328 269.008 275.882 269.083L267.906 268.921C267.906 268.921 266.064 268.539 267.699 264.989C269.15 265.624 270.489 266.084 270.868 264.979Z" fill="#4A2A1A"/>
<path fill-rule="evenodd" clip-rule="evenodd" d="M237.287 215.644L242.176 239.545L245.935 261.832H253.375C253.375 261.832 252.509 257.811 252.611 256.536C252.713 255.262 253.051 243.16 250.22 237.587L250.444 214.914L237.287 215.644Z" fill="#36AE7C"/>
<path fill-rule="evenodd" clip-rule="evenodd" d="M250.285 237.594L250.51 214.92L246.1 215.162L246.46 228.555C246.429 231.65 246.707 235.967 247.47 239.023C248.976 245.062 250.643 256.763 250.899 257.787C251.759 261.232 249.035 261.836 249.035 261.836H253.442C253.442 261.836 252.573 257.814 252.677 256.54C252.781 255.265 253.116 243.161 250.285 237.594Z" fill="#217B56"/>
<path d="M231.759 188.978C227.085 187.258 225.383 186.386 220.728 184.545L217.929 186.558C226.716 191.639 227.423 193.81 231.744 193.911C234.799 190.479 232.747 189.609 231.759 188.978Z" fill="#C95836"/>
<path fill-rule="evenodd" clip-rule="evenodd" d="M243.841 176.554C243.841 176.554 228.306 189.025 229.36 191.09L229.799 192.015C229.933 192.295 230.129 192.541 230.372 192.734C230.616 192.927 230.9 193.063 231.203 193.13C231.506 193.197 231.821 193.194 232.123 193.122C232.425 193.049 232.706 192.909 232.946 192.711L240.587 186.395L242.102 185.201L243.841 176.554Z" fill="#C95836"/>
<path fill-rule="evenodd" clip-rule="evenodd" d="M256.324 197.014L238.976 198.337C236.153 199.372 237.28 215.644 237.28 215.644L248.688 216.172C253.989 216.062 260.257 220.221 260.917 211.388C261.677 201.291 256.324 197.014 256.324 197.014Z" fill="#36AE7C"/>
<path fill-rule="evenodd" clip-rule="evenodd" d="M260.718 212.575C260.718 212.575 249.569 213.675 245.818 208.62L261.253 207.295C261.253 207.295 261.418 210.813 260.718 212.575Z" fill="#217B56"/>
<path fill-rule="evenodd" clip-rule="evenodd" d="M243.974 176.346L250.347 175.601L252.094 175.669L258.734 177.985C259.814 178.518 260.658 179.432 261.105 180.55C261.552 181.669 261.569 182.913 261.154 184.043L259.534 191.642C258.984 198.315 260.232 203.449 261.854 207.295C252.437 210.792 239.504 210.62 236.524 206.301C237.018 194.491 239.389 183.941 243.974 176.346Z" fill="#EBF7F2"/>
<path fill-rule="evenodd" clip-rule="evenodd" d="M247.209 172.253C247.209 172.253 247.543 174.761 247.82 176.838C247.855 177.109 247.962 177.365 248.129 177.582C248.296 177.798 248.517 177.966 248.771 178.069C249.023 178.169 249.297 178.201 249.566 178.159C249.834 178.118 250.086 178.006 250.296 177.834L250.704 177.5C250.994 177.263 251.21 176.948 251.329 176.593C251.448 176.239 251.464 175.857 251.377 175.493C250.918 173.586 250.081 170.113 250.081 170.113L247.205 172.253H247.209Z" fill="#FFBE9D"/>
<path fill-rule="evenodd" clip-rule="evenodd" d="M247.276 173.633L247.592 175.123L248.837 173.634L247.276 173.633Z" fill="#873B24"/>
<path d="M246.869 176.023C246.869 176.023 244.782 181.191 248.327 181.419C251.872 181.648 253.817 176.274 253.817 176.274L251.226 175.123L246.869 176.023Z" fill="#FFBE9D"/>
<path fill-rule="evenodd" clip-rule="evenodd" d="M251.362 169.56C251.477 169.224 251.454 168.857 251.298 168.538C251.143 168.22 250.868 167.975 250.533 167.859L248.116 167.035C247.422 166.797 246.772 167.219 246.43 167.877C246.027 168.653 245.58 170.395 245.407 171.699C245.31 172.434 245.635 173.254 246.33 173.49C247.07 173.745 249.532 173.788 250.199 172.519C250.706 171.547 251.009 170.593 251.362 169.558V169.56Z" fill="#FFBE9D"/>
<path fill-rule="evenodd" clip-rule="evenodd" d="M253.44 172.996C253.44 172.996 253.421 169.192 252.512 167.953C251.292 166.29 249.458 165.18 247.005 166.627C247.005 166.627 247.872 169.704 252.512 172.881L253.44 172.996Z" fill="#663A24"/>
<path fill-rule="evenodd" clip-rule="evenodd" d="M251.194 172.614C250.816 173.09 250.194 173.221 249.806 172.907C249.417 172.593 249.407 171.95 249.786 171.475C250.165 171.001 250.784 170.868 251.174 171.182C251.564 171.496 251.571 172.138 251.194 172.614Z" fill="#FFBE9D"/>
<path fill-rule="evenodd" clip-rule="evenodd" d="M245.87 171.268L247.085 171.655C247.085 171.655 246.796 172.486 246.235 172.23C245.673 171.974 245.87 171.268 245.87 171.268Z" fill="white"/>
<path fill-rule="evenodd" clip-rule="evenodd" d="M265.7 196.042L256.914 185.885C256.464 185.436 256.117 184.895 255.897 184.3C255.676 183.704 255.588 183.067 255.638 182.434C255.688 181.801 255.876 181.186 256.187 180.632C256.498 180.078 256.926 179.599 257.44 179.227V179.227C257.854 178.925 258.371 178.8 258.877 178.877C259.383 178.955 259.838 179.229 260.143 179.64L268.766 190.581L265.7 196.042Z" fill="#C95836"/>
<path fill-rule="evenodd" clip-rule="evenodd" d="M267.75 189.746C269.785 191.096 270.69 193.373 269.407 195.9L260.759 206.689L259.345 204.181L264.458 195.131L267.75 189.746Z" fill="#FFBE9D"/>
<path d="M259.356 204.194L259.023 206.69C258.957 207.189 259.071 207.695 259.347 208.117L260.459 209.824C260.549 209.962 260.671 210.076 260.814 210.156C260.958 210.237 261.119 210.281 261.283 210.286C261.448 210.291 261.611 210.255 261.759 210.183C261.907 210.111 262.035 210.003 262.132 209.871V209.871L262.373 206.709C262.413 205.968 262.192 205.236 261.748 204.641L260.989 203.588L259.356 204.194Z" fill="#FFBE9D"/>
<path d="M251.053 166.526C251.053 166.526 252.672 166.427 252.996 168.706" stroke="#8B939C" stroke-width="0.29314" stroke-linecap="round" stroke-linejoin="round"/>
<path fill-rule="evenodd" clip-rule="evenodd" d="M254.57 183.984L262.641 193.396L263.713 194.929L260.728 201.165L263.941 203.959L270.026 196.42C270.026 196.42 271.704 193.332 269.299 190.374C266.894 187.417 260.373 179.271 260.373 179.271L256.193 177.813L254.57 183.984Z" fill="#EBF7F2"/>
<path fill-rule="evenodd" clip-rule="evenodd" d="M243.98 176.347C243.98 176.347 242.237 176.775 239.133 179.539C235.209 183.034 229.331 189.109 228.842 190.361C228.353 191.613 234.834 192.172 234.834 192.172L241.799 186.167L243.98 176.347Z" fill="#EBF7F2"/>
<path d="M259.928 189.984L257.172 186.27L257.372 185.015" stroke="#36AE7C" stroke-width="0.604096" stroke-linecap="round" stroke-linejoin="round"/>
<path d="M239.243 188.846L241.761 183.157L241.771 181.989" stroke="#36AE7C" stroke-width="0.604096" stroke-linecap="round" stroke-linejoin="round"/>
<path d="M222.037 188.068L218.858 187.226C218.223 187.058 217.669 186.668 217.298 186.126L215.793 183.932C215.672 183.754 215.596 183.55 215.571 183.337C215.546 183.124 215.573 182.908 215.65 182.708C215.727 182.507 215.851 182.328 216.012 182.186C216.173 182.044 216.366 181.944 216.574 181.893V181.893L220.508 183.175C221.422 183.495 222.194 184.126 222.691 184.957L223.582 186.398L222.037 188.068Z" fill="#FFBE9D"/>
<path d="M234.83 192.172C234.83 192.172 232.191 195.929 229.07 194.747C225.95 193.565 220.762 188.847 220.762 188.847L224.419 184.866L231.153 188.366L234.83 192.172Z" fill="#EBF7F2"/>
<path fill-rule="evenodd" clip-rule="evenodd" d="M221.449 187.785L223.664 186.999C224.563 186.675 225.041 185.745 224.723 184.921L222.283 178.563C221.959 177.738 220.971 177.324 220.071 177.643L217.855 178.435C216.956 178.759 216.478 179.69 216.796 180.514L219.236 186.866C219.56 187.691 220.548 188.104 221.449 187.785Z" fill="#3A4266"/>
<path fill-rule="evenodd" clip-rule="evenodd" d="M221.323 186.567L223.125 185.929C223.857 185.668 224.244 184.908 223.987 184.238L222.001 179.065C221.744 178.393 220.934 178.057 220.202 178.317L218.399 178.964C217.667 179.224 217.28 179.985 217.538 180.655L219.523 185.828C219.781 186.491 220.591 186.826 221.323 186.567Z" fill="#EFF1F7"/>
<path d="M197.439 274C213.832 274 227.122 272.806 227.122 271.332C227.122 269.859 213.832 268.665 197.439 268.665C181.045 268.665 167.755 269.859 167.755 271.332C167.755 272.806 181.045 274 197.439 274Z" fill="#E3E5EB"/>
<path d="M208.959 265.164H180.937V271.54H208.959V265.164Z" fill="#FFAB66"/>
<path d="M207.926 265.164H197.528V271.54H207.926V265.164Z" fill="#EB9149"/>
<path d="M196.556 265.164H192.2V271.54H196.556V265.164Z" fill="#F79F59"/>
<path d="M185.757 265.164H183.366V271.54H185.757V265.164Z" fill="#FFC18F"/>
<path d="M208.959 270.593H180.937V271.54H208.959V270.593Z" fill="#D67B2F"/>
<path d="M208.959 258.961H180.937V265.337H208.959V258.961Z" fill="#FFAB66"/>
<path d="M207.926 258.961H197.528V265.337H207.926V258.961Z" fill="#EB9149"/>
<path d="M196.556 258.961H192.2V265.337H196.556V258.961Z" fill="#F79F59"/>
<path d="M185.757 258.961H183.366V265.337H185.757V258.961Z" fill="#FFC18F"/>
<path d="M208.959 264.388H180.937V265.336H208.959V264.388Z" fill="#D67B2F"/>
<path d="M207.09 252.756H179.068V259.133H207.09V252.756Z" fill="#FFAB66"/>
<path d="M206.055 252.756H195.657V259.133H206.055V252.756Z" fill="#EB9149"/>
<path d="M194.687 252.756H190.331V259.133H194.687V252.756Z" fill="#F79F59"/>
<path d="M183.888 252.756H181.497V259.133H183.888V252.756Z" fill="#FFC18F"/>
<path d="M207.09 258.185H179.068V259.132H207.09V258.185Z" fill="#D67B2F"/>
<path d="M105.242 212.544C108.918 206.652 107.122 198.894 101.229 195.218C95.3363 191.542 87.579 193.338 83.9026 199.231C80.2262 205.123 82.0228 212.881 87.9155 216.557C93.8081 220.234 101.565 218.437 105.242 212.544Z" fill="#FFCCAB"/>
<path d="M100.257 212.124C103.785 209.06 104.16 203.716 101.096 200.189C98.0319 196.661 92.6881 196.286 89.1605 199.35C85.633 202.414 85.2574 207.758 88.3217 211.286C91.386 214.813 96.7298 215.189 100.257 212.124Z" fill="#F9A56E"/>
<path d="M97.1491 209.137C96.4266 209.661 95.5573 209.944 94.6647 209.947L94.5157 208.999C95.3109 208.972 96.1207 208.798 96.7507 208.218C97.5135 207.517 97.507 206.741 96.9126 206.102C95.3757 204.43 92.8297 207.439 90.9786 205.428C90.1348 204.51 90.1251 203.298 90.8992 202.339L89.9404 201.296L90.5591 200.728L91.5001 201.748C92.2256 201.214 92.9577 201.135 93.6865 201.185L93.6962 202.108C92.9739 202.088 92.454 202.166 91.8969 202.678C91.2685 203.256 91.2264 204.019 91.777 204.621C93.152 206.118 95.6526 203.057 97.6933 205.269C98.5937 206.251 98.6018 207.501 97.7435 208.536L98.7023 209.579L98.0933 210.159L97.1491 209.137Z" fill="white"/>
<path fill-rule="evenodd" clip-rule="evenodd" d="M84.6024 205.675C84.8777 206.302 85.1191 207.084 85.0041 207.747C84.9945 207.812 85.0007 207.878 85.0221 207.94C85.0435 208.002 85.0796 208.058 85.1272 208.104C85.1749 208.149 85.2327 208.182 85.2958 208.2C85.3589 208.218 85.4255 208.221 85.4899 208.208C86.1761 208.06 86.8845 208.046 87.5759 208.168C87.6499 208.183 87.7267 208.178 87.7979 208.153C87.8691 208.127 87.9319 208.083 87.9793 208.024C88.0267 207.965 88.057 207.894 88.0667 207.819C88.0764 207.745 88.0652 207.668 88.0343 207.599C87.7612 206.993 87.6267 206.333 87.6407 205.667C87.6416 205.605 87.6284 205.544 87.602 205.488C87.5757 205.432 87.5369 205.383 87.4887 205.344C87.4405 205.305 87.3841 205.278 87.3237 205.264C87.2633 205.25 87.2006 205.25 87.1403 205.264C86.465 205.415 85.7605 205.366 85.1126 205.123C85.0372 205.097 84.9557 205.093 84.8782 205.112C84.8007 205.132 84.7305 205.173 84.6763 205.232C84.6221 205.29 84.5862 205.364 84.5731 205.443C84.5599 205.521 84.5702 205.602 84.6024 205.675V205.675Z" fill="white"/>
<path d="M101.088 211.297C101.088 211.297 105.931 204.688 99.828 199.011" stroke="#A36136" stroke-width="0.327151" stroke-linecap="round" stroke-linejoin="round"/>
<path d="M82.2734 203.253C82.2734 203.253 83.0314 197.411 88.627 194.792" stroke="#A36136" stroke-width="0.327151" stroke-linecap="round" stroke-linejoin="round"/>
<path d="M128.146 182.077C131.187 175.555 128.365 167.802 121.843 164.76C115.32 161.719 107.567 164.54 104.525 171.063C101.484 177.585 104.306 185.339 110.828 188.38C117.351 191.422 125.104 188.6 128.146 182.077Z" fill="#FFCCAB"/>
<path d="M123.785 181.557C126.483 177.536 125.41 172.09 121.39 169.392C117.369 166.695 111.923 167.767 109.226 171.788C106.528 175.808 107.6 181.254 111.621 183.952C115.641 186.65 121.088 185.577 123.785 181.557Z" fill="#F9A56E"/>
<path d="M113.641 179.919C112.941 179.312 112.45 178.5 112.239 177.598L113.162 177.228C113.372 178.025 113.737 178.803 114.467 179.305C115.353 179.914 116.134 179.726 116.644 178.981C117.975 177.037 114.347 175.167 115.949 172.826C116.681 171.761 117.902 171.471 119.05 172.03L119.881 170.82L120.6 171.314L119.791 172.499C120.5 173.11 120.748 173.826 120.866 174.577L119.936 174.802C119.789 174.067 119.591 173.56 118.944 173.116C118.213 172.616 117.434 172.749 116.958 173.44C115.764 175.176 119.436 176.992 117.667 179.567C116.887 180.701 115.625 181.002 114.381 180.377L113.55 181.585L112.831 181.099L113.641 179.919Z" fill="white"/>
<path fill-rule="evenodd" clip-rule="evenodd" d="M114.234 166.45C113.664 166.874 112.93 167.298 112.234 167.336C112.165 167.341 112.099 167.362 112.041 167.399C111.982 167.435 111.934 167.485 111.899 167.544C111.865 167.604 111.845 167.67 111.842 167.739C111.839 167.808 111.853 167.876 111.882 167.938C112.193 168.599 112.371 169.314 112.407 170.044C112.41 170.121 112.434 170.197 112.476 170.262C112.519 170.327 112.579 170.379 112.649 170.412C112.719 170.446 112.797 170.459 112.874 170.451C112.952 170.443 113.025 170.414 113.087 170.367C113.637 169.952 114.272 169.663 114.947 169.522C115.009 169.509 115.068 169.482 115.119 169.442C115.169 169.403 115.21 169.352 115.238 169.295C115.267 169.237 115.281 169.174 115.281 169.109C115.281 169.045 115.266 168.982 115.238 168.924C114.931 168.277 114.818 167.554 114.914 166.843C114.926 166.76 114.912 166.675 114.875 166.599C114.838 166.523 114.779 166.46 114.706 166.418C114.633 166.376 114.549 166.356 114.465 166.362C114.381 166.367 114.301 166.398 114.234 166.45V166.45Z" fill="white"/>
<path d="M112.376 184.396C112.376 184.396 120.173 187.755 124.492 180.278" stroke="#A36136" stroke-width="0.338488" stroke-linecap="round" stroke-linejoin="round"/>
<path d="M116.142 163.535C116.142 163.535 122.215 162.942 126.151 167.99" stroke="#A36136" stroke-width="0.338488" stroke-linecap="round" stroke-linejoin="round"/>
<path d="M202.518 201.884C206.761 201.884 210.201 198.445 210.201 194.201C210.201 189.958 206.761 186.518 202.518 186.518C198.274 186.518 194.835 189.958 194.835 194.201C194.835 198.445 198.274 201.884 202.518 201.884Z" fill="#F9A56E"/>
<path d="M199.201 193.163L202.526 196.875L206.648 191.044" stroke="white" stroke-width="0.77415" stroke-linecap="round" stroke-linejoin="round"/>
</svg>
