<svg width="326" height="286" viewBox="0 0 326 286" fill="none" xmlns="http://www.w3.org/2000/svg">
<path fill-rule="evenodd" clip-rule="evenodd" d="M61.9335 108.336C48.4099 88.1981 58.1996 60.4208 81.521 53.779C82.113 53.611 82.713 53.4477 83.321 53.289C122.69 43.1573 133.372 81.6643 178.307 50.0891C223.242 18.5139 283.6 61.0888 251.883 115.009C231.369 149.883 313.827 186.234 269.908 232.579C230.029 274.673 167.517 233.994 150.797 194.855C138.382 165.77 78.1751 132.527 61.9335 108.336Z" fill="#C3E7D8"/>
<path d="M187.886 76.2987C195.9 82.8986 197.658 90.2384 197.756 95.1403C199.884 89.2284 202.212 83.7046 204.52 78.7187C189.01 66.959 197.354 55.2473 197.354 55.2473C204.998 61.7771 206.754 68.9029 206.87 73.8008C206.882 73.7788 206.892 73.7568 206.902 73.7348C210.184 67.089 213.516 61.1631 216.478 56.2432C202.512 41.3576 213.278 31.1299 213.278 31.1299C220.114 39.7297 219.922 47.6815 218.822 52.4333C222.042 47.3035 224.587 43.6816 225.777 42.0336C232.067 26.182 245.729 26 245.729 26C241.709 41.4236 232.505 43.0916 228.055 42.9356C227.119 44.2115 224.361 48.0575 220.756 53.8093C233.273 47.6855 242.755 54.1093 242.755 54.1093C230.389 64.667 221.79 60.4011 218.356 57.7292C215.458 62.5551 212.212 68.3449 209.012 74.8268C208.68 75.5008 208.344 76.1907 208.012 76.8887C219.496 67.403 230.675 72.1768 230.675 72.1768C219.726 85.9425 209.788 81.8386 206.58 79.9267C204.164 85.1625 201.728 91.0004 199.532 97.2482C210.638 88.2064 221.512 92.6163 221.512 92.6163C211.442 105.754 201.996 103.058 198.196 101.152C193.776 114.718 190.662 129.951 191.32 145.081C191.334 145.394 191.223 145.699 191.013 145.931C190.802 146.162 190.509 146.301 190.196 146.317C190.069 146.323 189.942 146.308 189.82 146.273C189.581 146.205 189.369 146.063 189.215 145.868C189.061 145.672 188.972 145.434 188.96 145.185C188.284 129.601 191.512 113.944 196.072 100.052C179.565 88.4524 187.886 76.2987 187.886 76.2987Z" fill="#5EBE96"/>
<path d="M211.532 105.554C217.382 114.126 217.018 121.668 215.742 126.404C219.438 121.322 223.217 116.668 226.825 112.526C215.226 96.9024 226.505 87.9886 226.505 87.9886C232.019 96.3884 231.719 103.728 230.457 108.462C230.473 108.444 230.489 108.424 230.507 108.406C235.507 102.942 240.369 98.1843 244.589 94.2884C235.339 76.0889 248.535 69.2891 248.535 69.2891C252.695 79.4528 250.289 87.0386 247.903 91.2885C252.427 87.2646 255.887 84.4987 257.489 83.2487C267.958 69.7851 281.126 73.429 281.126 73.429C272.954 87.1146 263.652 86.1446 259.423 84.7507C258.169 85.7147 254.445 88.6366 249.377 93.1505C263.104 90.7685 270.406 99.5843 270.406 99.5843C255.583 106.266 248.517 99.7663 245.973 96.2424C241.841 100.066 237.107 104.718 232.221 110.042C231.716 110.595 231.203 111.162 230.683 111.742C244.361 105.844 253.759 113.542 253.759 113.542C239.395 123.71 231.005 116.998 228.459 114.26C224.675 118.612 220.706 123.538 216.85 128.922C230.049 123.342 239.249 130.616 239.249 130.616C225.917 140.415 217.592 135.189 214.49 132.299C206.454 144.099 199.21 157.847 195.612 172.558C195.537 172.864 195.344 173.127 195.075 173.29C194.806 173.453 194.484 173.503 194.178 173.428C194.054 173.398 193.936 173.348 193.828 173.28C193.618 173.148 193.454 172.952 193.361 172.721C193.268 172.491 193.249 172.236 193.308 171.994C197.014 156.843 204.488 142.711 212.748 130.648C200.144 114.898 211.532 105.554 211.532 105.554Z" fill="#5EBE96"/>
<path d="M166.813 274.466C209.669 274.466 244.411 271.267 244.411 267.322C244.411 263.377 209.669 260.178 166.813 260.178C123.957 260.178 89.2148 263.377 89.2148 267.322C89.2148 271.267 123.957 274.466 166.813 274.466Z" fill="#EDE0D5"/>
<path d="M204.813 61.7544L130.058 62.472C122.073 62.5487 115.662 69.0843 115.738 77.0698L117.434 253.703C117.51 261.689 124.046 268.1 132.032 268.023L206.786 267.306C214.772 267.229 221.183 260.694 221.106 252.708L219.411 76.0746C219.334 68.0891 212.798 61.6778 204.813 61.7544Z" fill="#36AE7C"/>
<path d="M199.112 61.7554L124.357 62.473C116.371 62.5497 109.96 69.0853 110.037 77.0708L111.732 253.704C111.809 261.69 118.345 268.101 126.33 268.024L201.085 267.307C209.07 267.23 215.482 260.694 215.405 252.709L213.709 76.0756C213.633 68.0901 207.097 61.6787 199.112 61.7554Z" fill="#5EBE96"/>
<path d="M124.696 250.194L202.042 249.448C203.098 249.438 204.141 249.22 205.112 248.807C206.084 248.393 206.964 247.792 207.703 247.038C208.441 246.284 209.024 245.391 209.418 244.412C209.811 243.432 210.008 242.384 209.996 241.329L208.396 74.8888C208.375 72.7586 207.509 70.7239 205.988 69.232C204.467 67.7402 202.416 66.9132 200.286 66.933L122.938 67.6789C121.882 67.6891 120.839 67.9073 119.868 68.321C118.897 68.7347 118.016 69.3358 117.278 70.09C116.539 70.8441 115.956 71.7365 115.563 72.716C115.169 73.6956 114.973 74.7431 114.984 75.7987L116.584 242.239C116.594 243.294 116.812 244.336 117.225 245.307C117.638 246.278 118.238 247.158 118.992 247.897C119.745 248.636 120.636 249.219 121.615 249.613C122.594 250.007 123.641 250.205 124.696 250.194V250.194Z" fill="#F0E3D7"/>
<path opacity="0.27" fill-rule="evenodd" clip-rule="evenodd" d="M115.418 109.442L135.738 67.4673L148.971 67.3413L115.654 133.796L115.418 109.442Z" fill="white"/>
<path d="M158.317 95.1822C158.317 95.1822 162.241 90.1503 176.767 90.7163C206.268 91.8642 199.094 166.208 199.094 166.208C199.094 166.208 177.809 167.294 172.649 162.876C167.489 158.459 181.415 110.924 170.537 108.958C159.659 106.992 158.317 95.1822 158.317 95.1822Z" fill="#4A2A1A"/>
<path d="M131.946 115.756C131.946 115.756 136.028 97.8521 154.359 93.9302C172.691 90.0083 177.981 101.48 179.893 105.236C181.805 108.992 189.792 137.235 168.639 145.617C152.455 152.027 131.946 115.756 131.946 115.756Z" fill="#4A2A1A"/>
<path d="M141.06 129.101C141.544 123.916 138.733 119.413 134.781 119.045C130.83 118.676 127.234 122.581 126.75 127.766C126.267 132.952 129.078 137.454 133.029 137.823C136.981 138.191 140.576 134.287 141.06 129.101Z" fill="#EB5353"/>
<path d="M167.373 162.032L153.077 164.716L143.498 137.627L166.735 131.125C166.947 139.615 165.535 152.49 172.425 156.978C173.497 160.008 170.531 161.44 167.373 162.032Z" fill="#FFBE9D"/>
<path d="M177.089 156.495H149.039C142.416 156.495 133.494 157.959 128.412 163.132C127.42 164.15 126.493 165.229 125.638 166.364L115.966 177.642L116.598 242.229C116.607 243.283 116.823 244.326 117.235 245.297C117.646 246.268 118.245 247.149 118.997 247.889C119.749 248.628 120.64 249.213 121.617 249.608C122.595 250.004 123.641 250.203 124.696 250.194L202.042 249.448C203.098 249.438 204.141 249.22 205.113 248.807C206.084 248.393 206.964 247.792 207.703 247.038C208.442 246.284 209.024 245.391 209.418 244.412C209.811 243.432 210.008 242.384 209.996 241.329L209.434 182.948C204.032 168.326 192.478 156.495 177.089 156.495Z" fill="white"/>
<path d="M146.948 156.495C146.948 156.495 129.37 181.722 146.548 180.494C163.725 179.266 177.099 156.495 177.099 156.495H146.948Z" fill="#FFBE9D"/>
<path d="M169.865 129.031C169.349 141.597 156.905 151.493 146.537 151.175C133.27 150.775 129.972 142.499 133.27 127.491C133.59 126.029 133.598 120.892 133.816 119.092C135.745 103.102 142.715 105.136 152.031 105.518C162.397 105.948 170.379 116.474 169.865 129.031Z" fill="#FFBE9D"/>
<path d="M140.139 136.797C139.858 136.763 139.599 136.626 139.413 136.411C139.213 136.139 139.099 135.814 139.084 135.477C139.069 135.14 139.154 134.806 139.329 134.517L140.351 132.717L141.951 129.917C141.951 129.917 143.519 127.067 141.969 125.438" stroke="#BF6649" stroke-width="0.79998" stroke-linecap="round" stroke-linejoin="round"/>
<path d="M142.478 137.191L143.644 137.019" stroke="#BF6649" stroke-width="0.79998" stroke-linecap="round" stroke-linejoin="round"/>
<path d="M151.773 128.977C151.773 129.777 151.173 130.445 150.447 130.451C149.721 130.457 149.107 129.809 149.103 129.001C149.099 128.193 149.691 127.533 150.429 127.527C151.167 127.521 151.767 128.169 151.773 128.977Z" fill="#472E34"/>
<path d="M138.578 127.463C138.578 128.263 138.13 128.907 137.578 128.909C137.026 128.911 136.554 128.271 136.55 127.475C136.546 126.679 136.998 126.031 137.56 126.027C138.122 126.023 138.574 126.667 138.578 127.463Z" fill="#472E34"/>
<path d="M148.597 138.677C148.869 138.457 149.307 138.845 149.325 139.327C149.379 140.773 148.653 143.327 146.863 144.003C144.371 144.949 142.847 143.003 141.763 141.705C141.421 141.305 141.523 140.669 141.923 140.721C144.855 141.109 146.899 140.051 148.597 138.677Z" fill="white"/>
<path d="M129.124 123.566C130.026 122.68 134.802 105.602 137.06 102.95C140.473 98.9382 146.677 94.3763 151.075 95.3242C155.473 96.2722 170.543 98.9961 175.675 104.238C178.579 107.202 175.431 104.42 174.775 113.926C174.119 123.432 179.457 135.173 169.879 136.925C160.301 138.677 168.997 128.945 164.153 125.597C159.309 122.25 156.979 121.934 156.535 111.888C156.441 109.77 153.379 102.66 151.569 105.236C138.398 123.982 131.494 123.922 129.124 123.566Z" fill="#4A2A1A"/>
<path d="M174.693 131.525C173.745 136.585 175.357 141.301 167.133 139.593C163.921 138.925 162.063 134.393 163.011 129.335C163.959 124.278 167.345 120.664 170.571 121.268C173.797 121.872 175.643 126.465 174.693 131.525Z" fill="#CF1A1E"/>
<path d="M179.602 131.009C179.953 125.813 177.027 121.384 173.068 121.117C169.108 120.85 165.614 124.845 165.263 130.041C164.913 135.237 167.838 139.666 171.798 139.933C175.758 140.201 179.252 136.205 179.602 131.009Z" fill="#EB5353"/>
<path d="M173.609 126.337C173.279 126.339 172.96 126.224 172.707 126.014C172.454 125.803 172.283 125.51 172.225 125.186C170.359 115.146 166.047 108.128 159.403 104.33C149.483 98.6562 137.514 102.508 137.404 102.546C136.676 102.812 136.93 99.8702 140.965 99.0522C145.579 98.1162 153.501 97.7402 160.727 101.838C168.165 106.058 172.967 113.74 174.997 124.67C175.03 124.852 175.028 125.039 174.99 125.22C174.951 125.401 174.877 125.573 174.772 125.726C174.667 125.878 174.533 126.009 174.378 126.11C174.223 126.211 174.049 126.28 173.867 126.313C173.782 126.33 173.695 126.338 173.609 126.337V126.337Z" fill="#EB5353"/>
<path d="M173.611 135.593C175.306 135.593 176.681 133.355 176.681 130.595C176.681 127.835 175.306 125.597 173.611 125.597C171.915 125.597 170.541 127.835 170.541 130.595C170.541 133.355 171.915 135.593 173.611 135.593Z" fill="white"/>
<path d="M155.011 149.597C154.648 149.597 154.299 149.458 154.036 149.208C153.774 148.957 153.618 148.615 153.601 148.253C153.584 147.89 153.707 147.535 153.945 147.261C154.183 146.988 154.518 146.816 154.879 146.783C166.503 145.671 170.479 137.681 171.973 134.673C172.137 134.311 172.327 133.961 172.539 133.625C172.761 133.343 173.082 133.157 173.437 133.103C173.792 133.05 174.154 133.133 174.449 133.337C174.745 133.541 174.951 133.849 175.027 134.2C175.103 134.551 175.043 134.917 174.859 135.225C174.799 135.315 174.633 135.651 174.499 135.921C172.973 138.987 168.333 148.321 155.147 149.583C155.101 149.585 155.057 149.597 155.011 149.597Z" fill="white"/>
<path d="M155.309 148.845C155.207 150.325 153.647 151.423 151.825 151.297C150.003 151.171 148.611 149.869 148.713 148.389C148.815 146.909 150.375 145.811 152.195 145.937C154.015 146.063 155.411 147.365 155.309 148.845Z" fill="white"/>
<path d="M120.102 222.751C120.102 222.751 124.858 198.596 125.644 194.368C126.43 190.14 124.66 184.252 124.66 184.252" stroke="#36AE7C" stroke-width="1.33597" stroke-linecap="round" stroke-linejoin="round"/>
<path d="M180.621 106.73C180.621 106.73 176.179 94.564 162.079 93.3301" stroke="#EB5353" stroke-width="1.33597" stroke-linecap="round" stroke-linejoin="round"/>
<path d="M173.567 187.466H161.879C161.096 187.466 160.461 188.101 160.461 188.884V190.062C160.461 190.845 161.096 191.48 161.879 191.48H173.567C174.35 191.48 174.985 190.845 174.985 190.062V188.884C174.985 188.101 174.35 187.466 173.567 187.466Z" fill="white"/>
<path d="M153.743 122.843C152.607 121.935 150.713 122.295 150.695 122.299C150.613 122.317 150.528 122.317 150.445 122.299C150.301 122.279 150.169 122.207 150.074 122.097C149.978 121.986 149.927 121.845 149.928 121.699C149.93 121.553 149.984 121.413 150.082 121.305C150.179 121.196 150.312 121.127 150.457 121.109C150.557 121.089 152.921 120.633 154.501 121.897C154.563 121.947 154.615 122.009 154.654 122.079C154.692 122.148 154.716 122.225 154.725 122.304C154.734 122.383 154.727 122.464 154.705 122.54C154.683 122.617 154.646 122.688 154.596 122.75C154.546 122.813 154.485 122.864 154.415 122.903C154.345 122.941 154.268 122.966 154.189 122.975C154.11 122.983 154.03 122.977 153.953 122.954C153.877 122.932 153.805 122.895 153.743 122.845V122.843Z" fill="#4F261F"/>
<path d="M141.574 121.489C141.524 121.553 141.463 121.606 141.393 121.645C141.323 121.684 141.245 121.709 141.166 121.717C141.086 121.726 141.005 121.719 140.928 121.696C140.851 121.673 140.78 121.635 140.718 121.583C139.584 120.675 137.69 121.035 137.672 121.039C137.589 121.056 137.504 121.056 137.422 121.039C137.279 121.018 137.149 120.945 137.055 120.836C136.961 120.726 136.91 120.586 136.911 120.441C136.913 120.297 136.966 120.157 137.062 120.049C137.157 119.941 137.289 119.871 137.432 119.851C137.534 119.831 139.898 119.373 141.478 120.637C141.541 120.687 141.593 120.748 141.632 120.817C141.671 120.887 141.696 120.964 141.705 121.043C141.714 121.123 141.707 121.203 141.684 121.28C141.662 121.356 141.624 121.427 141.574 121.489V121.489Z" fill="#4F261F"/>
<path d="M183.758 221.915C183.758 221.915 182.83 211.6 183.026 205.716C183.222 199.832 183.014 189.81 184.79 188.236C186.566 186.662 187.156 185.68 187.156 185.68" stroke="#36AE7C" stroke-width="1.33597" stroke-linecap="round" stroke-linejoin="round"/>
<path d="M171.683 152.716C171.683 152.716 169.589 166.316 173.611 174.682C173.611 174.682 182.877 157.956 188.992 159.048C195.108 160.14 199.238 158.372 198.858 147.943C198.478 137.513 188.672 136.797 188.672 136.797L171.683 152.716Z" fill="#4A2A1A"/>
<path d="M175.172 232.685C180.437 224.433 178.016 213.475 169.764 208.21C161.512 202.945 150.555 205.367 145.29 213.618C140.025 221.87 142.446 232.828 150.698 238.093C158.949 243.358 169.907 240.937 175.172 232.685Z" fill="#36AE7C"/>
<path d="M171.379 225.089C171.352 223.43 170.702 221.841 169.559 220.639C167.759 218.759 164.559 216.425 159.759 216.473C154.959 216.521 152.085 218.917 150.559 220.831C149.61 222.023 149.103 223.507 149.123 225.031L149.137 226.365C149.145 227.141 149.461 227.882 150.015 228.426C150.569 228.969 151.317 229.27 152.093 229.263V229.263C152.477 229.259 152.857 229.179 153.211 229.028C153.565 228.877 153.885 228.658 154.154 228.384C154.423 228.109 154.635 227.784 154.778 227.427C154.922 227.071 154.993 226.689 154.989 226.305L154.953 223.995C154.951 223.844 154.983 223.695 155.047 223.559C155.111 223.422 155.204 223.302 155.321 223.207C158.533 220.661 161.707 220.515 164.833 223.109C164.943 223.202 165.031 223.318 165.092 223.449C165.153 223.58 165.184 223.722 165.185 223.867L165.203 226.211C165.209 226.986 165.522 227.727 166.074 228.272C166.626 228.816 167.371 229.119 168.147 229.115H168.489C168.876 229.112 169.259 229.033 169.615 228.882C169.972 228.73 170.295 228.509 170.565 228.232C170.836 227.955 171.049 227.627 171.191 227.267C171.334 226.907 171.404 226.522 171.397 226.135L171.379 225.089Z" fill="#F6FAF3"/>
<path d="M100.355 95.5361H62.4515C51.7087 95.5361 43 104.244 43 114.987C43 125.729 51.7087 134.437 62.4515 134.437H100.355C111.097 134.437 119.806 125.729 119.806 114.987C119.806 104.244 111.097 95.5361 100.355 95.5361Z" fill="#EB5353"/>
<path d="M72.8254 116.869C74.0854 111.531 70.7792 106.182 65.4407 104.922C60.1022 103.662 54.7531 106.968 53.4931 112.306C52.2331 117.645 55.5394 122.994 60.8778 124.254C66.2163 125.514 71.5654 122.208 72.8254 116.869Z" fill="white"/>
<path d="M80.7029 109.981H103.606" stroke="white" stroke-width="0.973976" stroke-linecap="round" stroke-linejoin="round"/>
<path d="M80.7029 119.981H94.1745" stroke="white" stroke-width="0.973976" stroke-linecap="round" stroke-linejoin="round"/>
<path d="M86.6108 132.557L105.834 144.625V125.182L86.6108 132.557Z" fill="#EB5353"/>
<path d="M82.4091 103.426C91.938 103.426 99.6627 95.7014 99.6627 86.1725C99.6627 76.6436 91.938 68.9189 82.4091 68.9189C72.8802 68.9189 65.1555 76.6436 65.1555 86.1725C65.1555 95.7014 72.8802 103.426 82.4091 103.426Z" fill="#29BA8C"/>
<path d="M87.6169 86.1064C87.6169 86.4858 87.7294 86.8566 87.9402 87.172C88.1509 87.4874 88.4505 87.7332 88.8009 87.8784C89.1514 88.0235 89.537 88.0615 89.9091 87.9875C90.2811 87.9135 90.6229 87.7309 90.8911 87.4626C91.1593 87.1944 91.342 86.8526 91.416 86.4806C91.49 86.1086 91.452 85.7229 91.3069 85.3725C91.1617 85.022 90.9159 84.7225 90.6005 84.5117C90.285 84.301 89.9142 84.1885 89.5349 84.1885C89.0262 84.1885 88.5384 84.3905 88.1787 84.7502C87.819 85.1099 87.6169 85.5978 87.6169 86.1064Z" fill="white"/>
<path d="M83.1212 87.8773C84.0999 87.472 84.5646 86.35 84.1592 85.3714C83.7539 84.3928 82.6319 83.9281 81.6533 84.3334C80.6747 84.7388 80.21 85.8607 80.6153 86.8393C81.0207 87.818 82.1426 88.2827 83.1212 87.8773Z" fill="white"/>
<path d="M73.3193 86.1064C73.3189 86.4863 73.4313 86.8578 73.6421 87.1738C73.8529 87.4899 74.1527 87.7363 74.5036 87.8818C74.8545 88.0274 75.2407 88.0656 75.6134 87.9916C75.986 87.9176 76.3283 87.7347 76.5969 87.466C76.8655 87.1974 77.0484 86.8551 77.1224 86.4825C77.1965 86.1099 77.1583 85.7237 77.0127 85.3728C76.8671 85.0219 76.6207 84.722 76.3047 84.5112C75.9887 84.3004 75.6172 84.1881 75.2373 84.1885C74.7288 84.189 74.2412 84.3912 73.8817 84.7508C73.5221 85.1104 73.3199 85.5979 73.3193 86.1064V86.1064Z" fill="white"/>
<path d="M70.0952 98.7561C73.2215 101.875 77.4249 103.677 81.8398 103.791C86.2546 103.904 90.545 102.321 93.8274 99.3661C97.1098 96.4115 99.1345 92.3107 99.4844 87.9083C99.8344 83.5058 98.483 79.1368 95.7086 75.7007" stroke="#1F1406" stroke-width="0.79998" stroke-linecap="round" stroke-linejoin="round"/>
<path d="M126.531 36.311C126.729 34.0553 125.06 32.0667 122.804 31.8694C120.549 31.6721 118.56 33.3407 118.363 35.5964C118.165 37.8521 119.834 39.8406 122.09 40.038C124.345 40.2353 126.334 38.5667 126.531 36.311Z" stroke="#36AE7C" stroke-width="0.755981" stroke-linecap="round" stroke-linejoin="round"/>
<path d="M274.663 186.586C276.755 185.72 277.749 183.321 276.882 181.229C276.016 179.138 273.617 178.144 271.525 179.011C269.433 179.877 268.44 182.275 269.307 184.367C270.173 186.459 272.571 187.453 274.663 186.586Z" stroke="#36AE7C" stroke-width="0.755981" stroke-linecap="round" stroke-linejoin="round"/>
<path fill-rule="evenodd" clip-rule="evenodd" d="M77.5691 153.679C77.5691 153.679 79.2471 151.413 76.6071 149.465C73.9672 147.517 74.1492 152.755 74.2332 152.813C74.3172 152.871 77.5691 153.679 77.5691 153.679Z" fill="#572A22"/>
<path fill-rule="evenodd" clip-rule="evenodd" d="M70.3374 154.773C70.3374 154.773 70.9534 157.411 72.9713 157.249C74.9893 157.087 74.3713 151.291 74.3713 151.291L70.3374 154.773Z" fill="#572A22"/>
<path fill-rule="evenodd" clip-rule="evenodd" d="M76.7991 155.42C76.7991 155.42 76.9251 158.338 77.0311 160.756C77.0373 161.083 76.9508 161.406 76.7817 161.686C76.6125 161.966 76.3676 162.193 76.0751 162.34C75.7635 162.505 75.4174 162.593 75.065 162.599C74.7125 162.605 74.3638 162.527 74.0471 162.372L73.4472 162.074C73.0372 161.889 72.6924 161.584 72.4574 161.201C72.2224 160.817 72.108 160.372 72.1292 159.922C72.2952 157.664 72.5992 153.55 72.5992 153.55L76.7991 155.42V155.42Z" fill="#FFBE9D"/>
<path fill-rule="evenodd" clip-rule="evenodd" d="M77.0732 157.271L76.9532 158.926L75.0532 157.577L77.0732 157.271Z" fill="#633C1D"/>
<path fill-rule="evenodd" clip-rule="evenodd" d="M71.4592 152.663C71.3406 152.271 71.3821 151.849 71.5744 151.488C71.7666 151.127 72.0941 150.857 72.4851 150.737L75.3091 149.887C76.1091 149.643 76.851 150.159 77.217 150.931C77.649 151.843 78.091 153.871 78.235 155.383C78.315 156.235 77.907 157.165 77.095 157.409C76.2311 157.671 73.3891 157.609 72.6751 156.127C72.1312 154.993 71.8172 153.871 71.4592 152.663Z" fill="#FFBE9D"/>
<path fill-rule="evenodd" clip-rule="evenodd" d="M69.9774 155.339C69.9774 155.339 69.0994 152.151 70.1994 150.763C71.6774 148.895 73.8413 147.693 76.5992 149.465C76.5992 149.465 78.0872 150.121 73.7253 151.291C73.1713 151.439 74.3353 154.033 73.6513 154.363C72.4862 154.889 71.2421 155.219 69.9694 155.339H69.9774Z" fill="#572A22"/>
<path fill-rule="evenodd" clip-rule="evenodd" d="M71.5235 156.197C71.9394 156.763 72.6494 156.939 73.1114 156.597C73.5734 156.255 73.6114 155.511 73.1954 154.947C72.7794 154.383 72.0694 154.205 71.6074 154.547C71.1455 154.889 71.1075 155.629 71.5235 156.197Z" fill="#FFBE9D"/>
<path fill-rule="evenodd" clip-rule="evenodd" d="M94.8367 180.756C92.2387 174.738 87.5388 165.797 87.5388 165.797C86.3049 162.689 83.5389 160.767 81.705 161.757C80.987 162.157 80.891 163.411 81.491 164.593L83.3229 185.378C86.8768 186.884 90.1848 190.934 93.5567 187.654C95.3986 185.87 95.8506 183.102 94.8367 180.756Z" fill="#EBF7F2"/>
<path d="M73.0413 270.259C87.376 270.259 98.9966 269.394 98.9966 268.326C98.9966 267.257 87.376 266.392 73.0413 266.392C58.7065 266.392 47.0859 267.257 47.0859 268.326C47.0859 269.394 58.7065 270.259 73.0413 270.259Z" fill="#E3CBBB"/>
<path fill-rule="evenodd" clip-rule="evenodd" d="M81.0291 264.948C81.0291 264.948 75.4912 241.462 79.2291 232.171L73.9993 200.312L88.9349 201.333L85.199 265.174L81.0291 264.948Z" fill="#E3633D"/>
<path fill-rule="evenodd" clip-rule="evenodd" d="M85.263 264.024L87.581 266.172C88.207 266.702 91.4569 267.732 91.4569 267.732C91.8289 268.392 91.2429 268.732 90.7289 268.826L81.3811 268.626C81.3811 268.626 79.1812 268.178 80.7412 264.026C82.5031 264.78 84.9311 265.316 85.263 264.024Z" fill="#4A2A1A"/>
<path fill-rule="evenodd" clip-rule="evenodd" d="M89.8829 206.313L89.2929 233.295L87.107 260.342H76.2413C76.2413 260.342 76.8413 255.64 76.6013 254.142C76.3613 252.644 74.7353 238.495 77.4872 231.983L74.9353 205.463L89.8829 206.313Z" fill="#36AE7C"/>
<path fill-rule="evenodd" clip-rule="evenodd" d="M77.4093 231.995L74.8594 205.47L80.0412 205.754L81.9092 225.173C82.2366 228.785 82.0961 232.425 81.4912 236.001C80.3392 243.067 81.4752 252.917 81.6792 254.149C81.9292 255.64 81.3192 260.348 81.3192 260.348H76.1633C76.1633 260.348 76.7733 255.646 76.5253 254.149C76.2773 252.651 74.6594 238.501 77.4093 231.995Z" fill="#217B56"/>
<path fill-rule="evenodd" clip-rule="evenodd" d="M60.8694 264.902C60.8694 264.902 58.3795 241.135 63.3214 231.731L62.2334 199.488L77.033 200.524L64.8594 265.122L60.8694 264.902Z" fill="#E3633D"/>
<path fill-rule="evenodd" clip-rule="evenodd" d="M65.0694 264.024L67.2694 266.14C67.8254 266.676 70.9433 267.72 70.9433 267.72C71.2293 268.386 70.5993 268.738 70.0713 268.826L60.7515 268.626C60.7515 268.626 58.6156 268.172 60.7075 263.97C62.3655 264.73 64.5714 265.332 65.0694 264.024Z" fill="#4A2A1A"/>
<path fill-rule="evenodd" clip-rule="evenodd" d="M77.8532 205.563L73.2433 232.867L67.5455 260.24H56.6777C56.6777 260.24 57.8977 255.482 57.8437 253.97C57.7897 252.458 58.0097 238.137 61.6056 231.547L62.0616 202.127L77.8532 205.563Z" fill="#36AE7C"/>
<path fill-rule="evenodd" clip-rule="evenodd" d="M67.5995 184.522L87.8969 186.068C91.1969 187.28 89.8789 206.313 89.8789 206.313L76.5332 206.931C70.3334 206.803 62.9996 211.665 62.2296 201.332C61.3516 189.526 67.5995 184.522 67.5995 184.522Z" fill="#36AE7C"/>
<path fill-rule="evenodd" clip-rule="evenodd" d="M62.0475 202.561C62.0475 202.561 75.5152 204.011 79.8971 198.097L61.8415 196.547C61.8415 196.547 61.7755 201.051 62.0475 202.561Z" fill="#217B56"/>
<path fill-rule="evenodd" clip-rule="evenodd" d="M83.1991 161.509L78.6832 159.967L72.5713 159.551L62.7716 162.849C60.1556 164.143 60.9716 166.595 61.9716 169.349L61.1996 178.196C59.1797 184.902 59.1997 189.86 59.5516 196.762C70.5654 200.852 88.7389 200.074 92.2148 195.022C91.6328 181.196 88.5529 170.397 83.1991 161.509Z" fill="#EBF7F2"/>
<path d="M78.673 159.967C78.673 159.967 81.1149 166.012 76.9651 166.278C72.8152 166.544 70.5432 160.261 70.5432 160.261L73.5751 158.915L78.673 159.967Z" fill="#FFBE9D"/>
<path fill-rule="evenodd" clip-rule="evenodd" d="M52.2396 186.894C51.7257 189.694 52.1437 190.452 55.3096 191.42L72.1771 194.768L71.2152 191.538L58.2855 185.706L52.2396 186.894Z" fill="#C95836"/>
<path d="M71.2154 191.538L73.8773 192.796C74.4108 193.047 74.8365 193.481 75.0773 194.02L76.0452 196.199C76.1207 196.375 76.153 196.567 76.1394 196.758C76.1258 196.949 76.0667 197.134 75.967 197.297C75.8674 197.46 75.7301 197.598 75.5666 197.697C75.4031 197.797 75.2182 197.856 75.0273 197.869V197.869L71.7693 196.095C71.016 195.663 70.4384 194.98 70.1374 194.166L69.5874 192.75L71.2154 191.538Z" fill="#C95836"/>
<path fill-rule="evenodd" clip-rule="evenodd" d="M63.3835 162.764C63.3835 162.764 60.3715 162.724 58.6656 166.764C56.9596 170.804 51.6998 182.328 51.5418 183.076C51.3838 183.824 47.9999 189.949 53.8997 191.537C60.9455 193.437 67.9674 195.503 67.9674 195.503L69.6453 188.724L59.7196 185.376C59.7196 185.376 66.5334 165.914 66.2194 164.634C65.9054 163.354 63.3835 162.764 63.3835 162.764Z" fill="#EBF7F2"/>
<path d="M64.2833 171.808L60.2434 183.87L68.6412 188.112" stroke="#5EBE96" stroke-width="0.599985" stroke-linecap="round" stroke-linejoin="round"/>
<path d="M89.4288 176.662L87.0789 169.27V168.714" stroke="#5EBE96" stroke-width="0.599985" stroke-linecap="round" stroke-linejoin="round"/>
<path fill-rule="evenodd" clip-rule="evenodd" d="M84.0832 186.376L86.1631 186.392C87.0091 186.392 87.9031 185.776 88.1631 185.006L90.087 179.066C90.337 178.296 89.849 177.666 89.005 177.654L86.9251 177.638C86.0791 177.638 85.1831 178.254 84.9251 179.024L82.9992 184.964C82.7512 185.734 83.2392 186.37 84.0832 186.376Z" fill="#3D2213"/>
<path fill-rule="evenodd" clip-rule="evenodd" d="M88.1328 184.356C88.3719 184.427 88.6281 184.412 88.8577 184.315C89.0872 184.218 89.2757 184.043 89.3908 183.822C89.9447 182.752 90.7247 180.77 89.4647 179.906C87.6968 178.694 86.1288 181.788 86.3948 183.022C86.5548 183.758 87.4428 184.154 88.1328 184.356Z" fill="#E3633D"/>
</svg>
