<svg width="326" height="286" viewBox="0 0 326 286" fill="none" xmlns="http://www.w3.org/2000/svg">
<g clip-path="url(#clip0_10122_20804)">
<path d="M152.529 276.741C203.137 276.741 244.163 273.882 244.163 270.356C244.163 266.829 203.137 263.971 152.529 263.971C101.921 263.971 60.8958 266.829 60.8958 270.356C60.8958 273.882 101.921 276.741 152.529 276.741Z" fill="#EBF7F2"/>
<path fill-rule="evenodd" clip-rule="evenodd" d="M86.2138 237.492C62.4156 236.702 43.2825 217.428 42.9997 193.647C42.9239 187.366 46.2472 180.531 49.1327 175.671C64.6665 149.546 91.9899 167.044 109.889 143.268C127.788 119.493 132.859 81.7646 193.605 88.8777C254.351 95.9908 268.664 207.325 235.947 226.453C213.509 239.573 133.97 239.093 86.2138 237.492Z" fill="#C3E7D8"/>
<path d="M259.168 271.533C272.257 271.533 282.867 270.743 282.867 269.769C282.867 268.795 272.257 268.005 259.168 268.005C246.08 268.005 235.469 268.795 235.469 269.769C235.469 270.743 246.08 271.533 259.168 271.533Z" fill="#EBF7F2"/>
<path fill-rule="evenodd" clip-rule="evenodd" d="M251.116 204.57L261.183 237.884L270.47 266.247L273.163 264.788C271.831 254.096 275.623 244.928 269.217 233.653L263.661 210.447L256.759 203.809L251.116 204.57Z" fill="#C95836"/>
<path fill-rule="evenodd" clip-rule="evenodd" d="M251.116 204.571L261.183 237.884L267.759 262.604C267.806 262.779 267.889 262.943 268.002 263.085C268.115 263.228 268.256 263.345 268.416 263.431C268.576 263.516 268.753 263.568 268.934 263.583C269.115 263.598 269.297 263.575 269.469 263.517L274.56 261.904C274.83 261.818 275.06 261.638 275.208 261.397C275.355 261.156 275.411 260.87 275.365 260.591C274.956 258.363 274.079 255.006 273.991 253.666C273.565 247.116 274.375 242.763 269.205 233.655L264.562 209.476L256.761 203.811L251.116 204.571Z" fill="#36AE7C"/>
<path fill-rule="evenodd" clip-rule="evenodd" d="M270.713 265.494C270.713 265.494 270.062 268.255 270.013 269.854C270.005 269.985 270.031 270.115 270.088 270.233C270.145 270.35 270.231 270.451 270.339 270.526C270.446 270.601 270.571 270.647 270.701 270.66C270.831 270.672 270.962 270.652 271.082 270.599L272.638 269.979C272.882 269.88 273.09 269.71 273.234 269.49L273.537 269.025C274.042 268.254 273.858 267.66 273.617 266.816C273.449 266.187 273.314 265.55 273.215 264.907C271.902 264.253 270.713 265.494 270.713 265.494Z" fill="#4A2A1A"/>
<path fill-rule="evenodd" clip-rule="evenodd" d="M250.668 266.688C250.668 266.688 254.692 245.268 250.873 236.793L254.24 207.735L240.644 208.67L247.564 266.853L250.668 266.688Z" fill="#E3633D"/>
<path fill-rule="evenodd" clip-rule="evenodd" d="M247.506 265.846L244.74 267.805C244.192 268.287 241.269 269.227 241.269 269.227C240.959 269.829 241.51 270.146 241.983 270.225L250.508 270.046C250.508 270.046 252.491 269.638 250.89 265.851C249.314 266.533 247.865 267.024 247.506 265.846Z" fill="#4A2A1A"/>
<path fill-rule="evenodd" clip-rule="evenodd" d="M239.74 213.211L241.73 237.819L244.915 262.488H254.838C254.838 262.488 254.075 258.198 254.237 256.837C254.399 255.477 255.247 242.568 252.452 236.628L253.607 212.437L239.74 213.211Z" fill="#36AE7C"/>
<path fill-rule="evenodd" clip-rule="evenodd" d="M252.523 236.629L253.685 212.442L248.971 212.7L248.119 230.412C247.981 233.727 248.27 237.046 248.978 240.288C250.341 246.733 249.737 255.715 249.604 256.838C249.436 258.198 250.207 262.488 250.207 262.488H254.921C254.921 262.488 254.156 258.198 254.318 256.838C254.479 255.477 255.321 242.568 252.523 236.629Z" fill="#217B56"/>
<path fill-rule="evenodd" clip-rule="evenodd" d="M256.264 189.211L241.55 194.747C238.536 195.851 239.74 213.21 239.74 213.21L251.924 213.782C257.585 213.663 264.281 218.099 264.984 208.677C265.793 197.9 256.264 189.211 256.264 189.211Z" fill="#36AE7C"/>
<path fill-rule="evenodd" clip-rule="evenodd" d="M260.993 172.698C260.956 172.449 260.971 172.196 261.039 171.954C261.107 171.712 261.225 171.487 261.385 171.294C263.911 168.042 258.909 165.536 257.459 164.399C255.944 163.222 257.843 160.587 254.575 159.385C251.308 158.183 250.183 159.879 250.03 159.822C249.801 159.74 250.338 163.027 250.338 163.027C250.338 163.027 251.969 163.607 251.838 166.903C251.707 170.199 250.782 171.884 252.742 174.536C254.702 177.188 262.885 174.089 262.885 174.089C261.54 174.042 261.107 173.329 260.993 172.698Z" fill="#663A24"/>
<path d="M231.441 184.341C228.506 179.675 227.456 177.186 224.614 172.434L220.796 172.306C225.067 182.695 224.638 186.566 228.361 189.574C233.362 188.631 232.564 185.732 231.441 184.341Z" fill="#FFBE9D"/>
<path fill-rule="evenodd" clip-rule="evenodd" d="M241.434 172.248C241.434 172.248 226.299 187.045 227.723 189.179L228.326 190.138C228.509 190.429 228.756 190.675 229.048 190.856C229.34 191.038 229.67 191.151 230.013 191.186C230.355 191.221 230.701 191.177 231.024 191.059C231.347 190.94 231.638 190.749 231.877 190.501L239.476 182.586L240.991 181.072L241.434 172.248Z" fill="#FFBE9D"/>
<path fill-rule="evenodd" clip-rule="evenodd" d="M241.508 172.155L245.587 170.329L247.439 169.784L252.734 169.769L252.855 169.797C255.195 170.386 257.26 171.764 258.702 173.697C260.143 175.63 260.873 178.001 260.767 180.41L260.692 182.224C260.533 191.197 264.496 199.011 265.676 203.003C257.027 209.994 243.37 208.584 238.723 205.104C237.577 179.734 238.624 182.01 241.508 172.155Z" fill="#EBF7F2"/>
<path fill-rule="evenodd" clip-rule="evenodd" d="M245.986 166.362L246.584 171.445C246.619 171.745 246.732 172.03 246.913 172.272C247.094 172.513 247.336 172.703 247.614 172.821C247.892 172.937 248.195 172.976 248.494 172.935C248.792 172.894 249.073 172.774 249.309 172.587L249.766 172.227C250.09 171.969 250.335 171.625 250.474 171.234C250.612 170.844 250.637 170.422 250.547 170.018C250.072 167.901 249.2 164.043 249.2 164.043L245.986 166.362Z" fill="#FFBE9D"/>
<path fill-rule="evenodd" clip-rule="evenodd" d="M246.24 167.283L246.35 168.965L247.952 167.53L246.24 167.283Z" fill="#873B24"/>
<path d="M245.436 170.337C245.436 170.337 243.425 176.328 247.358 176.125C251.291 175.921 252.745 169.768 252.745 169.768L249.735 168.833L245.436 170.337Z" fill="#FFBE9D"/>
<path fill-rule="evenodd" clip-rule="evenodd" d="M250.52 163.251C250.642 162.878 250.612 162.472 250.436 162.122C250.26 161.771 249.953 161.504 249.58 161.379L246.887 160.497C246.114 160.244 245.4 160.719 245.035 161.452C244.599 162.314 244.126 164.248 243.951 165.694C243.853 166.508 244.223 167.411 244.996 167.663C245.819 167.934 248.547 167.951 249.269 166.54C249.818 165.466 250.148 164.4 250.52 163.251V163.251Z" fill="#FFBE9D"/>
<path fill-rule="evenodd" clip-rule="evenodd" d="M252.865 167.035C252.865 167.035 252.796 162.831 251.774 161.465C250.4 159.641 248.353 158.438 245.656 160.068C245.656 160.068 246.656 163.47 251.835 166.918L252.865 167.035Z" fill="#663A24"/>
<path fill-rule="evenodd" clip-rule="evenodd" d="M250.373 166.631C249.961 167.162 249.274 167.315 248.84 166.967C248.405 166.619 248.385 165.914 248.798 165.383C249.21 164.852 249.897 164.699 250.331 165.047C250.766 165.395 250.784 166.099 250.373 166.631Z" fill="#FFBE9D"/>
<path fill-rule="evenodd" clip-rule="evenodd" d="M244.457 165.209L245.804 165.623C245.804 165.623 245.498 166.546 244.872 166.271C244.245 165.995 244.457 165.209 244.457 165.209Z" fill="white"/>
<path fill-rule="evenodd" clip-rule="evenodd" d="M232.099 181.237L237.722 187.997L243.483 181.062L241.601 172.198C241.601 172.198 241.232 172.163 239.372 173.544C237.511 174.924 232.099 181.237 232.099 181.237Z" fill="#EBF7F2"/>
<path d="M224.619 172.434L222.777 170.23C222.417 169.805 221.917 169.523 221.366 169.436L219.136 169.081C218.956 169.052 218.772 169.068 218.599 169.126C218.426 169.184 218.27 169.283 218.144 169.414C218.018 169.545 217.926 169.705 217.876 169.88C217.825 170.055 217.818 170.24 217.855 170.418V170.418L220.274 172.965C220.852 173.549 221.618 173.91 222.437 173.986L223.866 174.146L224.619 172.434Z" fill="#FFBE9D"/>
<path d="M250.138 159.898C250.138 159.898 251.924 159.766 252.316 162.284" stroke="#8B939C" stroke-width="0.5" stroke-linecap="round" stroke-linejoin="round"/>
<path d="M239.271 186.383C239.511 185.913 240.316 179.914 240.316 179.914L239.427 178.861" stroke="#36AE7C" stroke-width="0.701638" stroke-linecap="round" stroke-linejoin="round"/>
<path fill-rule="evenodd" clip-rule="evenodd" d="M249.122 193.807L253.653 178.541C254.252 175.612 254.528 178.588 257.326 179.65C257.326 179.65 259.515 182.845 259.119 183.956L255.203 193.877L249.122 193.807Z" fill="#FFBE9D"/>
<path fill-rule="evenodd" clip-rule="evenodd" d="M253.271 174.055L249.532 187.943C249.532 187.943 254.713 190.129 257.759 188.683C258.491 186.865 259.124 185.009 259.656 183.123C259.946 182.101 260.004 181.028 259.826 179.98C259.648 178.933 259.238 177.939 258.626 177.07C258.014 176.201 257.216 175.479 256.29 174.958C255.363 174.436 254.332 174.128 253.271 174.055V174.055Z" fill="#EBF7F2"/>
<path d="M249.804 187.313L252.136 180.411L253.484 179.717" stroke="#36AE7C" stroke-width="0.701638" stroke-linecap="round" stroke-linejoin="round"/>
<path d="M185.857 127.468L91.052 128.146L91.7229 221.787L186.527 221.109L185.857 127.468Z" fill="#5EBE96"/>
<path d="M169.69 159.355L132.184 159.624L132.222 164.919L169.728 164.651L169.69 159.355Z" fill="white"/>
<path d="M168.401 141.573L132.162 141.833L132.2 147.128L168.439 146.869L168.401 141.573Z" fill="white"/>
<path d="M169.824 178.066L107.807 178.51L107.845 183.805L169.862 183.362L169.824 178.066Z" fill="white"/>
<path d="M156.27 197.548L107.946 197.894L107.984 203.189L156.308 202.843L156.27 197.548Z" fill="white"/>
<path d="M220.779 91.3633L220.254 187.18C220.213 192.214 216.24 195.722 211.38 195.014C206.519 194.308 202.612 189.653 202.652 184.62" stroke="#1F1406" stroke-width="6.2937" stroke-linecap="round" stroke-linejoin="round"/>
<path fill-rule="evenodd" clip-rule="evenodd" d="M170.274 144.685C182.477 136.544 196.089 139.561 204.54 145.694C213.686 137.39 227.297 139.304 236.37 146.499C247.313 138.01 260.53 140.854 267.475 147.42C268.471 120.329 245.577 97.6827 220.841 97.005C196.105 96.3273 171.272 117.596 170.274 144.685Z" fill="#EB2227"/>
<path fill-rule="evenodd" clip-rule="evenodd" d="M236.37 146.499C236.37 146.499 237.56 114.088 220.834 97.0049C220.834 97.0049 205.26 114.661 204.54 145.693C204.54 145.693 216.974 132.804 236.37 146.499Z" fill="#EB5353"/>
<path d="M121.967 224.173H112.324C111.14 224.173 110.181 225.131 110.181 226.314V228.086C110.181 229.268 111.14 230.227 112.324 230.227H121.967C123.15 230.227 124.11 229.268 124.11 228.086V226.314C124.11 225.131 123.15 224.173 121.967 224.173Z" fill="#2E3A5B"/>
<path d="M117.58 259.38L174.265 259.417C174.265 259.417 174.117 245.515 185.694 245.209C197.272 244.903 196.637 258.783 196.637 258.783L196.6 261.018C196.6 261.018 204.759 260.241 207.121 259.032C207.652 257.885 208.051 256.682 208.311 255.445C208.648 253.644 208.407 249.911 208.407 249.911L206.479 248.423C206.479 248.423 207.235 239.818 205.991 236.694C205.991 236.694 207.169 233.374 206.863 231.341L182.322 209.854L147.097 210.251C142.374 210.35 139.964 211.409 135.733 213.511C119.926 221.366 110.34 228.271 110.34 228.271C110.34 228.271 92.5559 231.439 86.3572 236.213C83.874 238.58 82.5693 240.175 81.6433 246.42L81.5002 248.885L96.1215 253.594L117.58 259.38Z" fill="#36AE7C"/>
<path d="M83.741 257.27L84.8201 261.867C84.8201 263.286 86.9228 264.221 88.3437 264.221L219.476 264.359L227.21 264.225C227.899 264.215 228.574 264.023 229.165 263.668C229.757 263.314 230.244 262.81 230.577 262.207L232.999 257.814C229.393 249.217 223.853 244.343 215.387 243.309L155.891 239.24L117.253 245.499L83.741 257.27Z" fill="#2E3A5B"/>
<path d="M98.1317 247.212C98.7314 247.229 99.328 247.305 99.9129 247.439C100.655 247.269 101.415 247.193 102.176 247.212C107.829 247.362 112.312 252.679 112.191 259.088C112.07 265.496 107.388 270.571 101.734 270.421C101.127 270.406 98.4667 270.442 97.694 270.421C92.0408 270.272 87.5576 264.955 87.6788 258.546C87.8 252.138 92.4785 247.063 98.1317 247.212Z" fill="#2E3A5B"/>
<path d="M179.144 247.212C179.744 247.229 180.34 247.305 180.925 247.439C181.667 247.269 182.427 247.193 183.188 247.212C188.841 247.362 193.326 252.679 193.203 259.088C193.08 265.496 188.402 270.571 182.748 270.421C182.139 270.406 179.481 270.442 178.708 270.421C173.055 270.272 168.57 264.955 168.691 258.546C168.812 252.138 173.491 247.063 179.144 247.212Z" fill="#2E3A5B"/>
<path d="M130.687 248.184C130.78 248.184 130.873 248.194 130.963 248.199H135.622V249.768C138.729 251.831 140.787 255.69 140.704 260.059C140.622 264.428 138.442 268.131 135.285 270.039V271.395H130.6C130.484 271.395 130.366 271.395 130.248 271.395C124.595 271.245 120.112 265.928 120.233 259.519C120.354 253.111 125.036 248.034 130.687 248.184Z" fill="#2E3A5B"/>
<path d="M144.75 259.818C144.761 253.407 140.437 248.202 135.09 248.193C129.744 248.184 125.401 253.373 125.39 259.784C125.379 266.195 129.704 271.4 135.05 271.409C140.396 271.418 144.739 266.229 144.75 259.818Z" fill="#8592AB"/>
<path d="M135.431 267.778C139.326 267.749 142.456 264.146 142.423 259.73C142.39 255.314 139.206 251.758 135.311 251.787C131.416 251.816 128.286 255.42 128.319 259.836C128.352 264.251 131.536 267.808 135.431 267.778Z" fill="#E0D7CD"/>
<path d="M135.366 262.478C136.666 262.468 137.711 261.266 137.7 259.792C137.689 258.318 136.627 257.131 135.327 257.14C134.027 257.15 132.982 258.352 132.993 259.826C133.004 261.3 134.066 262.487 135.366 262.478Z" fill="#F7FEFB"/>
<path d="M210.548 248.184C210.641 248.184 210.733 248.194 210.824 248.199H215.483V249.768C218.59 251.831 220.648 255.69 220.565 260.059C220.483 264.428 218.302 268.131 215.146 270.039V271.395H210.461C210.344 271.395 210.227 271.395 210.109 271.395C204.456 271.245 199.972 265.928 200.094 259.519C200.215 253.111 204.897 248.034 210.548 248.184Z" fill="#2E3A5B"/>
<path d="M224.611 259.818C224.622 253.408 220.297 248.203 214.951 248.194C209.605 248.184 205.261 253.374 205.25 259.785C205.239 266.196 209.564 271.4 214.91 271.409C220.256 271.419 224.599 266.229 224.611 259.818Z" fill="#8592AB"/>
<path d="M147.94 257.798L204.18 257.942C204.18 257.942 206.309 246.676 214.868 246.797C224.828 246.946 225.427 257.83 225.427 257.83H233.003C233.003 257.83 236.875 248.194 233.457 245.495C233.457 245.495 230.739 239.813 229.537 236.689C229.537 236.689 230.68 233.369 230.378 231.336L221.979 224.753C218.41 219.937 204.471 212.879 198.685 211.927C186.525 209.925 176.609 208.611 164.425 214.714C145.608 224.141 139.491 234.388 139.491 234.388C139.491 234.388 132.066 233.857 120.359 236.214C117.962 238.582 117.61 241.37 117.059 243.891L117.108 257.867L121.634 257.853C122.177 257.851 122.704 257.668 123.131 257.333C123.558 256.998 123.86 256.53 123.99 256.003C124.842 252.521 127.681 246.689 133.994 246.504C140.012 246.336 144.842 248.115 146.05 256.175C146.12 256.626 146.349 257.037 146.695 257.335C147.042 257.632 147.483 257.796 147.94 257.798V257.798Z" fill="#217B56"/>
<path d="M229.92 238.555C229.92 238.555 119.65 236.916 120.359 236.213C132.115 232.771 143.169 229.122 143.169 229.122C143.169 229.122 153.447 218.797 166.691 212.686C175.839 208.465 191.908 209.577 202.685 212.04C209.755 213.658 217.107 218.262 219.52 221.504L230.328 231.377C230.629 233.408 229.486 236.729 229.486 236.729C229.696 237.321 229.841 237.933 229.92 238.555V238.555Z" fill="#217B56"/>
<path d="M219.366 234.634C219.366 234.634 228.343 228.732 230.249 231.562C230.471 232.494 230.5 233.462 230.334 234.405C230.167 235.349 229.808 236.248 229.279 237.047L219.082 236.997L219.366 234.634Z" fill="#F7FEFB"/>
<path d="M191.959 212.829L189.817 229.589L210.001 229.672C214.154 229.69 216.375 224.829 213.673 221.679C207.053 213.951 196.317 213.046 191.959 212.829Z" fill="#2E3A5B"/>
<path d="M190.213 212.637C190.213 212.637 174.61 210.195 163.747 216.548C157.481 220.212 151.854 224.129 146.358 229.328L188.22 229.723L190.213 212.637Z" fill="#2E3A5B"/>
<path d="M220.185 222.648L219.582 237.917L217.006 244.598H216.331L218.781 237.927L219.521 221.504L220.185 222.648Z" fill="#066132"/>
<path d="M148.94 231.773L146.999 238.555L147.267 257.756L146.349 257.774L145.974 238.466L147.869 231.826L148.94 231.773Z" fill="#066132"/>
<path d="M169.312 211.596H147.915C144.484 211.592 141.095 212.352 137.996 213.821C128.063 218.548 110.891 229.123 110.891 229.123H140.733C142.271 229.122 143.75 228.536 144.871 227.484C151.385 221.378 160.159 215.353 169.312 211.596Z" fill="#2E3A5B"/>
<path d="M84.5996 257.786L117.95 257.865V242.139L81.6416 246.42L81.4985 250.73C81.4985 252.795 82.0305 257.786 84.5996 257.786Z" fill="#36AE7C"/>
<path d="M162.731 229.67L151.536 229.609C149.869 229.609 150.149 223.556 156.455 223.583L161.614 223.611C162.417 223.616 163.186 223.939 163.751 224.509C164.316 225.079 164.631 225.851 164.627 226.653V227.803C164.623 228.302 164.421 228.778 164.065 229.128C163.71 229.478 163.23 229.673 162.731 229.67Z" fill="#066132"/>
<path d="M229.437 237.219C229.437 237.219 231.075 235.359 230.489 231.555" stroke="#3B260D" stroke-width="1.59974" stroke-linecap="round" stroke-linejoin="round"/>
<path d="M112.647 240.805C114.636 238.647 117.169 237.064 119.982 236.223C121.078 235.897 122.171 235.586 122.989 235.382C125.428 234.802 129.027 235.004 129.027 235.004C129.027 235.004 128.549 242.199 124.191 242.137C119.832 242.075 111.433 242.122 111.433 242.122L112.647 240.805Z" fill="#F7FEFB"/>
<path d="M89.6334 240.148C87.1653 237.163 87.768 236.943 86.5643 236.057C86.5643 236.057 83.0087 238.547 82.571 241.636C82.5087 242.073 83.1619 242.141 83.8219 242.099C86.7849 241.947 87.5256 241.971 87.5256 241.971L89.6334 240.148Z" fill="#F7FEFB"/>
<path d="M114.229 237.438H86.9918V238.796C86.9918 239.665 87.3376 240.5 87.9532 241.115C88.5688 241.73 89.4038 242.076 90.2747 242.076H110.947C111.817 242.076 112.652 241.73 113.268 241.115C113.884 240.5 114.229 239.665 114.229 238.796V237.438Z" fill="#2E3A5B"/>
<path d="M94.7933 244.493H104.125C105.345 244.493 106.334 243.505 106.334 242.287V240.457C106.334 239.239 105.345 238.251 104.125 238.251H94.7933C93.5734 238.251 92.5845 239.239 92.5845 240.457V242.287C92.5845 243.505 93.5734 244.493 94.7933 244.493Z" fill="#2E3A5B"/>
<path d="M215.002 267.774C218.897 267.745 222.027 264.141 221.994 259.725C221.961 255.31 218.776 251.753 214.882 251.783C210.987 251.812 207.857 255.415 207.89 259.831C207.923 264.247 211.107 267.803 215.002 267.774Z" fill="#E0D7CD"/>
<path d="M214.937 262.484C216.237 262.474 217.282 261.272 217.271 259.798C217.26 258.324 216.197 257.137 214.898 257.146C213.598 257.156 212.553 258.358 212.564 259.832C212.575 261.306 213.637 262.493 214.937 262.484Z" fill="#F7FEFB"/>
<path d="M184.198 257.89L188.742 238.932V231.555" stroke="#066132" stroke-width="3.59239" stroke-miterlimit="10"/>
<path d="M172.213 229.574L187.237 229.715L182.551 212.178C178.491 212.214 173.358 212.683 168.54 214.364L172.213 229.574Z" fill="#596481"/>
<path d="M148.654 211.596H147.915C144.484 211.592 141.095 212.352 137.996 213.821C135.182 215.166 131.79 216.964 128.373 218.866L130.849 229.123H140.733C142.271 229.122 143.75 228.536 144.871 227.484C146.957 225.534 149.142 223.694 151.418 221.97L148.654 211.596Z" fill="#596481"/>
<path d="M84.7427 257.786L91.8723 252.277H106.701L117.95 257.865L84.7427 257.786Z" fill="#36AE7C"/>
<path d="M91.7731 249.07H106.334" stroke="#066132" stroke-width="3.59239" stroke-miterlimit="10"/>
<path d="M82.5626 242.107C82.5626 242.107 82.2663 240.439 83.2882 238.555C84.3101 236.672 86.4701 235.762 86.4701 235.762" stroke="#3B260D" stroke-width="1.59974" stroke-linecap="round" stroke-linejoin="round"/>
<path d="M183.423 236.988H176.144V234.099H184.033C184.223 234.099 184.406 234.175 184.541 234.309C184.675 234.443 184.751 234.625 184.752 234.815V235.656C184.752 235.831 184.718 236.004 184.652 236.165C184.585 236.327 184.487 236.474 184.364 236.597C184.241 236.721 184.094 236.819 183.933 236.886C183.771 236.953 183.598 236.988 183.423 236.988V236.988Z" fill="#066132"/>
<path d="M210.846 236.988H203.573V234.099H211.464C211.654 234.099 211.837 234.175 211.971 234.309C212.106 234.443 212.181 234.625 212.181 234.815V235.656C212.182 235.831 212.148 236.005 212.081 236.167C212.014 236.329 211.916 236.476 211.792 236.6C211.667 236.724 211.52 236.822 211.358 236.889C211.195 236.955 211.022 236.989 210.846 236.988V236.988Z" fill="#066132"/>
<path d="M68.2341 191.505C68.0349 192.057 67.6763 192.538 67.2036 192.886C66.7308 193.235 66.1652 193.436 65.5782 193.463C64.9912 193.491 64.4092 193.344 63.9058 193.041C63.4024 192.739 63.0002 192.294 62.75 191.762C62.4998 191.231 62.4128 190.638 62.5002 190.058C62.5875 189.477 62.8452 188.936 63.2406 188.501C63.6361 188.067 64.1515 187.76 64.7218 187.618C65.2921 187.477 65.8916 187.507 66.4445 187.706C66.8118 187.838 67.1494 188.041 67.4381 188.303C67.7268 188.566 67.961 188.882 68.1272 189.235C68.2934 189.588 68.3883 189.97 68.4067 190.359C68.425 190.749 68.3664 191.138 68.2341 191.505V191.505Z" stroke="#217B56" stroke-width="0.701638" stroke-linecap="round" stroke-linejoin="round"/>
<path d="M150.401 97.3247C150.587 95.6961 149.416 94.2252 147.786 94.0394C146.155 93.8535 144.683 95.0231 144.497 96.6517C144.31 98.2803 145.481 99.7512 147.112 99.9371C148.742 100.123 150.215 98.9533 150.401 97.3247Z" stroke="#217B56" stroke-width="0.701638" stroke-linecap="round" stroke-linejoin="round"/>
<path d="M281.325 175.286C281.548 173.662 280.412 172.165 278.786 171.941C277.16 171.718 275.661 172.853 275.438 174.477C275.214 176.101 276.351 177.599 277.976 177.822C279.602 178.045 281.101 176.91 281.325 175.286Z" stroke="#217B56" stroke-width="0.701638" stroke-linecap="round" stroke-linejoin="round"/>
<path d="M120.088 168.415C128.275 163.958 131.295 153.716 126.833 145.538C122.371 137.361 112.118 134.344 103.931 138.801C95.7438 143.258 92.7239 153.5 97.1857 161.677C101.648 169.855 111.901 172.871 120.088 168.415Z" fill="white"/>
<path d="M117.93 137.807C121.211 139.033 124.03 141.249 125.994 144.147C127.958 147.046 128.971 150.482 128.892 153.981C128.813 157.48 127.646 160.868 125.553 163.675C123.461 166.482 120.545 168.569 117.212 169.647C113.878 170.724 110.291 170.739 106.949 169.69C103.606 168.64 100.673 166.578 98.5569 163.789C96.4403 161 95.245 157.622 95.1365 154.124C95.028 150.625 96.0118 147.18 97.9515 144.266" stroke="#36AE7C" stroke-width="1.40328" stroke-linecap="round" stroke-linejoin="round"/>
<path d="M105.507 138.037C107.287 137.296 109.181 136.866 111.106 136.766" stroke="#36AE7C" stroke-width="1.40328" stroke-linecap="round" stroke-linejoin="round"/>
<path d="M113.169 164.905C119.422 164.408 124.088 158.942 123.591 152.695C123.093 146.449 117.62 141.788 111.367 142.286C105.113 142.783 100.447 148.249 100.945 154.495C101.443 160.742 106.916 165.402 113.169 164.905Z" fill="#F9A56E"/>
<path d="M111.379 159.131C110.193 158.948 109.095 158.397 108.239 157.557L108.997 156.514C109.778 157.243 110.714 157.845 111.859 157.89C113.25 157.944 113.975 157.202 114.022 156.04C114.143 152.998 108.871 153.447 109.017 149.785C109.083 148.113 110.221 146.953 111.867 146.775L111.943 144.878L113.071 144.922L112.997 146.781C114.196 146.961 114.962 147.575 115.61 148.315L114.75 149.21C114.076 148.505 113.514 148.088 112.499 148.048C111.351 148.002 110.59 148.687 110.546 149.776C110.438 152.501 115.714 151.962 115.554 155.998C115.484 157.782 114.305 158.978 112.509 159.151L112.433 161.048L111.305 161.004L111.379 159.131Z" fill="white"/>
<path fill-rule="evenodd" clip-rule="evenodd" d="M102.723 143.972C102.386 144.829 101.881 145.8 101.144 146.326C101.072 146.379 101.014 146.448 100.975 146.528C100.936 146.608 100.917 146.696 100.92 146.785C100.923 146.874 100.947 146.961 100.991 147.038C101.035 147.115 101.097 147.181 101.172 147.229C101.965 147.736 102.651 148.393 103.192 149.163C103.248 149.248 103.326 149.316 103.417 149.36C103.509 149.403 103.611 149.421 103.712 149.41C103.814 149.399 103.91 149.36 103.99 149.298C104.07 149.235 104.132 149.152 104.167 149.057C104.484 148.22 104.982 147.464 105.627 146.844C105.686 146.786 105.732 146.715 105.76 146.637C105.788 146.559 105.798 146.476 105.789 146.393C105.78 146.311 105.753 146.231 105.709 146.161C105.664 146.091 105.605 146.032 105.534 145.988C104.748 145.492 104.124 144.779 103.738 143.935C103.692 143.836 103.619 143.753 103.526 143.697C103.434 143.64 103.326 143.612 103.218 143.616C103.109 143.62 103.005 143.655 102.916 143.719C102.828 143.782 102.761 143.87 102.723 143.972V143.972Z" fill="white"/>
<path d="M252.308 191.513C246.803 191.158 244.166 190.551 238.646 190.067L236.308 193.085C245.08 195.192 248.481 196.982 251.87 196.953C253.732 196.941 255.314 195.44 255.284 193.59C255.254 191.74 253.591 191.447 252.308 191.513Z" fill="#FFBE9D"/>
<path d="M239.496 192.019L237.368 193.965C236.942 194.353 236.392 194.576 235.816 194.594L233.481 194.664C233.293 194.67 233.106 194.63 232.937 194.547C232.767 194.465 232.621 194.343 232.509 194.192C232.397 194.04 232.324 193.864 232.295 193.678C232.267 193.492 232.284 193.302 232.345 193.124L235.158 190.832C235.829 190.309 236.664 190.039 237.515 190.069L239.001 190.094L239.496 192.019Z" fill="#FFBE9D"/>
<path fill-rule="evenodd" clip-rule="evenodd" d="M232.751 194.249L234.967 193.464C235.866 193.14 236.343 192.21 236.026 191.386L233.585 185.028C233.261 184.203 232.273 183.789 231.373 184.108L229.157 184.9C228.259 185.224 227.781 186.155 228.098 186.979L230.539 193.331C230.863 194.155 231.851 194.568 232.751 194.249Z" fill="#3A4266"/>
<path fill-rule="evenodd" clip-rule="evenodd" d="M232.625 193.031L234.428 192.393C235.16 192.133 235.547 191.373 235.289 190.703L233.304 185.53C233.046 184.858 232.236 184.522 231.504 184.781L229.702 185.429C228.97 185.688 228.583 186.45 228.84 187.12L230.826 192.293C231.083 192.955 231.893 193.291 232.625 193.031Z" fill="#EFF1F7"/>
</g>
<defs>
<clipPath id="clip0_10122_20804">
<rect width="239.867" height="188.741" fill="white" transform="translate(43 88)"/>
</clipPath>
</defs>
</svg>
