<svg width="24" height="24" viewBox="0 0 24 24" fill="none" xmlns="http://www.w3.org/2000/svg">
<path fill-rule="evenodd" clip-rule="evenodd" d="M0.609375 1.125C0.609375 0.840229 0.840228 0.609375 1.125 0.609375H15C15.2848 0.609375 15.5156 0.840229 15.5156 1.125V7.875C15.5156 8.15977 15.2848 8.39063 15 8.39063C14.7152 8.39063 14.4844 8.15977 14.4844 7.875V1.64063H1.62122C1.56 1.85705 1.36102 2.01563 1.125 2.01563C0.840228 2.01563 0.609375 1.78477 0.609375 1.5V1.125Z" fill="#EB2227"/>
<path fill-rule="evenodd" clip-rule="evenodd" d="M0.876877 0.673C1.04185 0.58244 1.24305 0.58895 1.40183 0.689987L9.65183 5.93999C9.80056 6.03463 9.89062 6.19871 9.89062 6.375V22.5C9.89062 22.682 9.7947 22.8505 9.63821 22.9434C9.48172 23.0363 9.28785 23.0398 9.12809 22.9527L0.878092 18.4527C0.712442 18.3623 0.609375 18.1887 0.609375 18V1.125C0.609375 0.936806 0.711905 0.76356 0.876877 0.673ZM1.64062 2.0643V17.6939L8.85938 21.6314V6.65805L1.64062 2.0643Z" fill="#EB2227"/>
<path fill-rule="evenodd" clip-rule="evenodd" d="M15 11.8594C15.2848 11.8594 15.5156 12.0902 15.5156 12.375V18C15.5156 18.2848 15.2848 18.5156 15 18.5156H9.375C9.09023 18.5156 8.85938 18.2848 8.85938 18C8.85938 17.7152 9.09023 17.4844 9.375 17.4844H14.4844V12.375C14.4844 12.0902 14.7152 11.8594 15 11.8594Z" fill="#EB2227"/>
<path fill-rule="evenodd" clip-rule="evenodd" d="M11.4844 10.125C11.4844 9.84023 11.7152 9.60938 12 9.60938H22.875C23.1598 9.60938 23.3906 9.84023 23.3906 10.125C23.3906 10.4098 23.1598 10.6406 22.875 10.6406H12C11.7152 10.6406 11.4844 10.4098 11.4844 10.125Z" fill="#EB2227"/>
<path fill-rule="evenodd" clip-rule="evenodd" d="M18.3854 5.6354C18.5868 5.43403 18.9132 5.43403 19.1146 5.6354L23.2396 9.7604C23.441 9.96176 23.441 10.2882 23.2396 10.4896L19.1146 14.6146C18.9132 14.816 18.5868 14.816 18.3854 14.6146C18.184 14.4132 18.184 14.0868 18.3854 13.8854L22.1458 10.125L18.3854 6.3646C18.184 6.16324 18.184 5.83676 18.3854 5.6354Z" fill="#EB2227"/>
</svg>
