<svg width="517" height="256" viewBox="0 0 517 256" fill="none" xmlns="http://www.w3.org/2000/svg">
<path d="M1.40002 162.4C1.90002 157.1 2.20001 153.8 3.20001 150.8C3.20001 150.7 3.20001 150.7 3.20001 150.6C3.20001 150.5 3.29999 150.5 3.29999 150.4C3.59999 149.7 3.90001 148.9 4.20001 148.2C4.70001 147.2 5.30002 146.2 5.90002 145.3C6.60002 144.3 7.59999 142.7 9.29999 139.9C10.6 137.8 11.9 135.6 13.1 133.4C14.3 126.4 19.3 103.4 33.6 95.5001C38.6 92.9001 43.9 90.8001 49.3 89.2001C53.7 87.9001 58.1 86.9001 62.6 86.2001C69.9 81.9001 77.6 78.3001 85.6 75.6001C96.2 72.1001 103.4 70.2001 103.5 70.2001C104.4 70.0001 105.3 69.8001 106.1 69.5001C110.1 68.5001 112.9 67.8001 116.7 66.0001C120.5 64.2001 123.1 62.3001 126.7 59.7001C133 55.0001 139.4 49.9001 145.7 44.7001C145.8 44.6001 155.7 36.7001 165.1 30.1001L166.7 29.0001C177.9 21.2001 189.4 13.1001 205 8.3001C210.9 6.5001 216.2 5.5001 226.7 4.2001C246 1.9001 265.3 0.700098 284.7 0.600098C285.7 0.600098 286.4 0.600098 286.7 0.600098C292.1 0.700098 297.2 0.700097 302.1 0.800097C343.9 1.2001 369.1 1.4001 399.5 4.8001C415.1 6.5001 430.4 8.8001 445.9 18.1001C453.4 22.6001 460.4 27.8001 466.8 33.8001C469.2 36.1001 475.6 42.6001 482.8 50.5001L484.8 52.7001C488.5 56.8001 489.7 58.1001 492.2 59.3001C494 60.2001 495.9 61.0001 497.9 61.5001C500.8 62.4001 503.3 63.2001 505.4 65.7001C506.9 67.6001 507.8 69.8001 508.1 72.2001C509.4 73.2001 510.4 74.4001 511.3 75.8001C514.2 80.3001 513.6 84.6001 512.7 90.1001C512.2 93.6001 511.6 97.5001 511.7 102.3C511.7 105 512.2 107.7 513 110.3C513.7 112.5 514.5 115.1 514.8 120.8C515.1 126.4 514.7 130.6 513.9 139C512.8 150.4 511.4 154.6 510.2 157.7C509.3 159.9 508.3 162.1 507.1 164.1C505.9 167.5 504.1 170.7 501.9 173.5C501.4 178.2 500.6 182.9 499.5 187.5C497.2 196.1 494.1 204.4 486.6 207.6C484.4 208.5 481.9 208.7 478 208.7C476.8 208.7 475.5 208.7 473.9 208.7C464.7 208.6 460.9 206.5 459.7 205.9C458.1 205.1 456.7 204.1 455.4 202.9C451.1 199 449.5 193.9 448.8 190.3C430.3 194.1 396.7 203.3 348.3 217.9V218H347.9L346.9 218.3L347 218H345C344.2 221.5 343.2 224.9 342 228.2C339.7 234.4 332.8 249.1 319.3 253.1C316 254.1 312.8 254.3 309 254.3C307.6 254.3 306 254.3 304.4 254.2C296.6 254 290.9 253.9 285.4 251.1C276.9 246.7 273 238 271.4 233C268 233.1 264.8 233.1 261.7 233.1C247.8 233.1 236.3 232.1 227.4 230.3L226.8 230.2C218.5 228.4 210 227.1 201.5 226.2C192.5 225.3 185.7 225.2 182.8 225.1H182.6C161.3 224.7 134.6 222.7 114.5 221C112.8 220.9 111.1 220.7 109.4 220.6C104.1 220.1 99.4 219.7 95.5 219.3C93 222.8 89.8 225.7 86.2 228C78.4 232.9 70.6 233 63.6 233H62.8C54.7 233 48.4 233 41.3 229.1C33.8 224.9 29.5 218.6 27.2 213.8C25.7 213.8 24.2 213.9 22.7 214H22.6C19.9 213.9 17.3 213.4 14.7 212.7C11 211.6 6.79998 210.3 4.09998 206.7C-2.43187e-05 201.2 2.19999 193.6 2.79999 192C3.79999 186.6 3.20001 181 1.20001 175.9V175.8V175.7C0.900012 171.3 1.00002 166.8 1.40002 162.4ZM2.29999 175.6C2.49999 176.1 2.69999 176.6 2.79999 177.1L6.70001 178.6C7.50001 178.9 8.20001 179.4 8.70001 180C9.20001 180.6 9.70002 181.3 9.90002 182.1L13.3 194C13.4 194.2 13.4 194.5 13.3 194.8C13.3 195.1 13.2 195.3 13 195.5C12.8 195.7 12.6 195.9 12.4 196C12.2 196.1 11.9 196.2 11.7 196.2C11.6 196.2 11.5 196.2 11.3 196.2C9.69999 195.9 8.09998 195.4 6.59998 194.9C5.49998 194.6 4.40002 194.2 3.40002 193.7C2.70002 196.1 2.60002 198.6 2.90002 201.1C8.80002 202.7 14.9 204.2 20.9 205.7C46.9 211.9 77 216.5 109.3 219.4C110.9 219.5 112.6 219.7 114.4 219.8C123.9 220.6 133.5 221.2 143.3 221.7C191.3 224.1 241 222.6 291.1 217.2C291.1 200.7 292.4 178.3 298.7 159C284.6 162.3 270.3 164.9 255.9 166.7C231.1 169.9 209.8 170.3 192.8 170.3C189.1 170.3 185.6 170.3 182.4 170.3C173 170.2 166.3 170 156.1 169.7C145 169.3 124.4 168.7 97.9 166.6C66.9 164.2 48.3 162.7 23.5 156.8C17.1 155.3 10.6 153.5 4.29999 151.7C3.49999 154.4 3.20001 157.6 2.70001 162.6C2.40001 166.9 2.19999 171.2 2.29999 175.6ZM4 192.4C5.1 192.9 6.10001 193.3 7.20001 193.6C8.70001 194.1 10.2 194.5 11.8 194.8C11.9 194.8 11.9 194.8 12 194.8C12.1 194.8 12.1 194.8 12.1 194.7L12.2 194.6C12.2 194.5 12.2 194.5 12.2 194.4L8.79999 182.5C8.59999 181.9 8.30002 181.4 7.90002 180.9C7.50002 180.4 7.00002 180.1 6.40002 179.9L3.5 178.8C4.6 183.2 4.8 187.9 4 192.4ZM493.8 109.5C494 109.5 494.2 109.5 494.5 109.5C496.2 109.5 497.8 110 499.2 110.9C500.9 111.9 502.7 113.7 504.2 118.4C504.3 118.2 504.5 118.1 504.6 118C503.3 113.3 500.9 107.5 496.5 106.3C495.8 106.1 495.1 106.1 494.3 106.1C488.5 106.7 484.7 115.6 483.1 119.4C482.7 120.2 482.4 121.1 482.1 122C484.9 115.6 488.7 109.9 493.8 109.5ZM505 119.4C504.9 119.6 504.7 119.7 504.6 119.9C505.6 123.6 506.4 128.9 506.9 136.3C506.9 129.6 506.5 125.7 505.5 121.5C505.3 120.8 505.2 120.1 505 119.4ZM350 68.4001C348.8 69.8001 347.4 70.9001 345.8 71.6001L342.9 72.3001V72.4001H342.6C340.8 72.5001 338.9 72.6001 337.1 72.7001C336.4 73.3001 335.8 73.9001 335 74.4001C332.8 76.0001 330.5 77.2001 328 78.2001C326 79.0001 320.2 80.1001 312.3 81.7001C288.5 86.6001 244.1 95.6001 215.2 110.8C208.8 114.2 202.7 118.1 197 122.6L236.2 119.6L274.2 115.4C274.6 114.8 277 111.5 278.1 110C278.5 109.5 278.7 109.1 278.7 109.1C280 107.3 290.4 103.4 362.5 90.2001C362.2 89.9001 361.9 89.5001 361.5 89.0001C360.4 87.8001 359.3 86.7001 358.1 85.6001C358 85.5001 357.8 85.4001 357.7 85.2001C357.4 84.9001 357.2 84.5001 357.1 84.0001C357 83.6001 357.1 83.1001 357.2 82.7001C357.8 81.1001 358.4 79.5001 358.9 77.9001C358.1 75.9001 357.1 74.0001 355.9 72.3001C354.2 70.0001 353 69.1001 352.3 68.8001C351.7 68.5001 351.1 68.3001 350.5 68.1001C350.3 68.2001 350.1 68.3001 350 68.4001ZM132.5 67.0001H130.9L131.1 66.8001L125.9 66.2001C108.2 70.7001 51.1 87.2001 50.3 111.8C50.3 113 50.4 114.1 50.6 115.2C50.8 115.2 51.1 115.2 51.3 115.2C71.9 117.2 92.8 118.8 113.4 119.9C139.7 121.3 166.4 122.1 192.8 122.1C193.4 122.1 194 122.3 194.5 122.7C200.7 117.7 207.4 113.3 214.5 109.6C243.6 94.2001 288 85.2001 312 80.3001C319.8 78.7001 325.5 77.6001 327.5 76.8001C329.9 75.9001 332.1 74.6001 334.2 73.2001C334.4 73.0001 334.6 72.8001 334.9 72.7001C329.6 72.9001 324.3 73.0001 318.9 73.0001H317.1C298.5 73.0001 284.9 71.9001 271.9 70.9001C269.3 70.7001 266.7 70.5001 264 70.3001C239.9 68.5001 222.9 68.1001 191.8 67.4001C178.4 67.1001 164.7 67.0001 151.1 67.0001C145 66.9001 138.7 66.9001 132.5 67.0001ZM50.5 116.6C50.2 116.7 49.9 116.9 49.7 117.2C49.5 117.5 49.4 117.8 49.4 118.1C49.8 130.4 53 142.4 58.7 153.3C59.3 154.5 60.2 155.5 61.3 156.2C62.4 156.9 63.7 157.4 65 157.5C79.4 159 94 160.3 108.5 161.2C120.9 162 133.5 162.6 145.9 163C150.9 163.2 155.8 161.7 159.8 158.7C172.7 149.3 184.1 138 193.8 125.3C193.9 125.1 194 124.9 194.1 124.7C194.1 124.5 194.1 124.2 194 124C193.9 123.8 193.7 123.6 193.5 123.5C193.3 123.4 193.1 123.3 192.8 123.3C166.4 123.3 139.7 122.5 113.4 121.1C92.7 120 71.8 118.4 51.2 116.4H51C50.9 116.4 50.9 116.4 50.8 116.4V116.6H50.5ZM151.2 65.6001C164.8 65.6001 178.5 65.8001 191.9 66.0001C222.9 66.7001 240 67.1001 264.1 68.9001C266.8 69.1001 269.4 69.3001 272 69.5001C285.1 70.6001 298.5 71.6001 317.1 71.6001H318.9C326.7 71.6001 334.5 71.4001 342.2 71.0001C343.3 69.6001 344.4 68.2001 345.4 66.7001C352.3 56.6001 354.4 45.9001 355.6 40.2001C356 38.0001 356.3 36.5001 356.5 35.0001C356.9 32.2001 357.5 29.4001 358.2 26.7001C359 23.6001 359.9 20.5001 360.9 17.6001C336.8 15.5001 312.3 14.2001 288.1 13.6001C277.9 13.3001 267.5 13.2001 257.3 13.2001C238 13.2001 218.5 13.7001 199.3 14.6001C175.2 28.4001 153.3 45.6001 134.1 65.7001C139.8 65.6001 145.5 65.6001 151.2 65.6001ZM307.3 140.2C311.4 133.8 319.8 120.4 330.8 120.8C334.7 121 337.6 122.8 339.5 124C350.6 131.2 352.9 146.3 354.4 156.4C356.2 168.3 355.3 177.7 354.6 185.1C354.2 189.7 353.5 194.3 352.8 198.8L362.4 196.5C366.6 158.7 368.2 134.3 367.2 123.9C367.1 122.7 366.8 120.5 366.5 117.8C365.5 110 364.1 98.2001 364.3 95.0001C364.4 94.2001 364.3 93.3001 364 92.5001C363.8 92.0001 363.6 91.5001 363.3 91.1001C336.1 96.1001 315.3 100.2 301.4 103.3C283 107.4 280.1 109.1 279.8 109.6L279.2 110.5L276.8 113.9L276.1 114.9L290 113.3H290.1C292.2 113.3 293.9 114 294.7 115.3C295.5 116.4 295.8 118 294.4 122C292.9 126.3 290.6 130.4 287.7 133.9C286.4 135.6 284.9 137.2 283.4 138.8C285.5 140.7 288 142.2 290.8 143C294.6 144.1 298.1 143.7 299.8 143.4C300.8 143.3 301.4 143.1 302.3 143C303.2 142.8 304.3 142.6 306.2 142.3C306.4 141.7 306.8 140.9 307.3 140.2ZM434 95.4001C433.3 96.4001 431.5 97.1001 429.3 97.7001C429.6 101.2 428.5 102.5 427.8 103C427.2 103.4 426.5 103.6 425.7 103.6C424.8 103.6 423.8 103.4 423 103C420.8 102.1 418 99.9001 417.3 96.8001C416.6 93.5001 418.5 90.4001 420.5 88.6001C422.2 87.0001 424 86.3001 425.4 86.7001C426.7 87.1001 427.6 88.3001 428.2 90.5001C428.3 90.4001 428.5 90.4001 428.6 90.4001C429.4 90.4001 432.1 91.5001 433.4 92.9001L433.5 93.0001C432.9 88.9001 432.1 84.9001 431.1 80.9001C431 80.4001 430.8 80.0001 430.6 79.6001C414.5 82.4001 399.7 85.0001 386.3 87.4001C386.3 87.7001 386.2 88.0001 386.2 88.3001C385.8 90.7001 385.5 92.3001 384.1 93.2001C383.5 93.6001 382.7 93.8001 381.9 93.8001C381.4 93.8001 380.9 93.7001 380.4 93.5001C378.9 92.9001 378.4 91.7001 377.7 90.4001C377.5 89.9001 377.3 89.4001 377 88.9001C372.7 89.7001 368.5 90.4001 364.5 91.2001C364.7 91.6001 364.9 92.0001 365 92.5001C365.3 93.5001 365.4 94.5001 365.3 95.5001C365.1 98.5001 366.5 110.2 367.5 118C367.8 120.8 368.1 123 368.2 124.1C369.2 134.5 367.6 158.9 363.5 196.7C371 196.3 392.9 190.7 416.1 184.7C420.9 183.5 425.7 182.2 430.5 181H430.3C431.6 170.5 432.7 159.9 433.6 149.5C435.2 130.8 436.1 120.6 435.2 108.2C435 103.8 434.6 99.6001 434 95.4001ZM428 97.9001C426.8 98.1001 425.6 98.3001 424.3 98.5001C423.4 98.7001 422.4 98.7001 421.5 98.8001C420.8 98.8001 420.2 98.7001 419.5 98.5001C420.5 99.9001 421.9 101 423.5 101.6C425 102.2 426.3 102.3 427 101.8C427.4 101.6 428.2 100.8 428 97.9001ZM424.5 92.9001C425.3 92.8001 426.5 92.6001 427.3 92.4001C426.9 89.7001 426.1 88.0001 425 87.7001C424.1 87.5001 422.6 88.1001 421.3 89.3001C420.1 90.5001 418.8 92.4001 418.5 94.4001C419.8 93.6001 422.2 93.3001 424.5 92.9001ZM424.7 94.3001C422.5 94.6001 419.3 95.1001 419.1 96.1001C419.1 96.3001 419.1 96.4001 419.2 96.5001C419.3 96.6001 419.3 96.8001 419.4 96.9001C419.6 97.2001 420.1 97.6001 421.6 97.6001C422.5 97.6001 423.3 97.5001 424.2 97.4001C426.4 97.1001 433 96.0001 433.1 94.5001C433.1 94.2001 432.9 93.9001 432.7 93.7001C431.9 93.0001 431 92.4001 430 92.0001C430 92.1001 430 92.2001 430 92.2001C429.7 93.5001 427.6 93.8001 424.7 94.3001ZM411.2 77.2001C409.5 78.8001 407.7 79.4001 406 80.1001C402.7 81.3001 400.1 81.4001 397.1 81.5001C393.6 81.5001 390.1 81.9001 386.7 82.7001L386.1 82.9001L386.4 83.0001V83.5001C386.4 84.3001 386.4 85.0001 386.4 85.8001C399.6 83.4001 414.1 80.9001 429.8 78.2001L429.7 78.1001L426.6 74.5001C422 75.3001 416.8 76.2001 411.2 77.2001ZM459.5 64.7001C461.1 64.4001 463.2 63.6001 464.5 61.5001C465.9 59.2001 466 56.0001 464.7 51.9001C464 49.5001 462.9 47.8001 461.5 45.8001C457.4 39.8001 452.3 35.0001 449 32.3001C450.8 36.6001 452.5 41.0001 454 45.4001C456.2 51.8001 458 58.2001 459.5 64.7001ZM452.8 45.9001C451 40.7001 449 35.6001 446.8 30.6001L446.6 30.4001C448.8 35.7001 450.8 41.0001 452.6 46.5001C454.6 52.6001 456.3 58.8001 457.7 65.0001H458.2C456.7 58.5001 455 52.2001 452.8 45.9001ZM451.4 46.9001C449.4 40.9001 447.2 34.9001 444.6 29.0001C432.7 21.1001 424.8 18.1001 411.7 16.2001C410.5 16.0001 409.4 15.9001 408.4 15.8001C417.6 32.8001 424.4 51.1001 428.6 70.0001C437.8 68.5001 447.1 66.9001 456.4 65.2001C455 59.1001 453.3 52.9001 451.4 46.9001ZM418 39.8001C414.8 31.5001 411 23.5001 406.8 15.7001C405.3 15.6001 403.9 15.5001 402.5 15.5001C411.5 33.0001 417.3 52.0001 419.8 71.5001L427.2 70.2001C425 59.9001 421.9 49.7001 418 39.8001ZM412.4 43.4001C409.5 33.8001 405.7 24.5001 401.1 15.5001C397.4 15.6001 393.4 16.2001 387.5 17.5001C384.9 18.1001 381.8 19.0001 378.9 21.3001C376.5 23.3001 374.6 25.8001 373.5 28.8001C373.1 30.0001 372.5 32.2001 372.1 33.4001C371.7 35.0001 371.3 36.6001 370.9 38.2001C370 42.1001 369.4 45.5001 368.8 48.8001C368.4 51.2001 367.9 53.7001 367.3 56.3001C366.5 60.1001 365.8 63.6001 365.2 67.1001C364.6 70.6001 363.9 73.8001 363.2 77.3001C363.1 77.9001 362.7 79.6001 363.5 80.3001C364.1 80.9001 365.1 80.8001 365.8 80.7001C366.3 80.6001 367 80.5001 367.6 80.4001C369.3 80.2001 370.9 79.9001 372.5 79.5001C373.1 75.1001 375.7 62.2001 385.2 58.6001C387.4 57.8001 389.1 57.7001 392.6 57.6001C394 57.5001 395.7 57.5001 397.4 57.5001C403.8 57.5001 412.5 58.1001 415 63.8001C416.2 66.4001 415.7 69.6001 414.5 72.4001L418.4 71.8001C417.3 62.1001 415.2 52.6001 412.4 43.4001ZM371.3 84.1001L360.4 86.0001C361.1 86.7001 361.8 87.4001 362.4 88.1001C363 88.8001 363.5 89.4001 363.8 89.9001C367.8 89.2001 371.9 88.4001 376.3 87.6001C375 86.0001 373.3 84.8001 371.3 84.1001ZM377.7 87.2001C377.8 87.3001 377.9 87.5001 378 87.6001L378.1 87.7001C378.5 88.3001 378.8 89.0001 379.1 89.6001C379.7 90.8001 380.1 91.7001 381 92.0001C381.4 92.1001 381.8 92.2001 382.2 92.2001C382.6 92.2001 383 92.0001 383.4 91.8001C384.3 91.2001 384.5 90.1001 384.9 87.8001C385.1 86.5001 385.2 85.3001 385.2 84.0001L373.5 81.5001L372.5 83.1001C374.6 84.0001 376.4 85.4001 377.7 87.2001ZM413.9 64.3001C412.3 60.6001 406.9 58.8001 397.5 58.8001C395.8 58.8001 394.1 58.9001 392.7 58.9001C389.4 59.0001 387.7 59.1001 385.8 59.8001C377 63.2001 374.5 75.2001 373.9 79.5001C377.4 80.9001 381.1 81.6001 384.8 81.6001H385.5C385.7 81.5001 386.1 81.4001 386.5 81.3001C390 80.5001 393.6 80.1001 397.2 80.0001C400.1 79.9001 402.6 79.8001 405.7 78.7001C407.4 78.1001 409 77.5001 410.6 76.0001C413.4 73.3001 415.6 68.0001 413.9 64.3001ZM286.5 133.3C289.3 129.9 291.5 126 293 121.8C294.2 118.1 293.9 117 293.5 116.3C292.7 115.1 290.9 114.9 290 114.9L235 121C228.8 121.7 222.9 124.3 218.3 128.5L191 153C190.9 153.1 190.9 153.2 190.9 153.2C190.9 153.3 190.9 153.4 190.9 153.5C190.9 153.6 191 153.7 191.1 153.7C191.2 153.8 191.3 153.8 191.4 153.8C206 152.8 242.6 150 266 145.5L266.6 145.4C269.3 144.9 274.8 143.9 280 140C282.7 138 284.5 135.8 286.5 133.3ZM358.4 83.1001C358.3 83.3001 358.3 83.5001 358.3 83.7001C358.3 83.9001 358.4 84.1001 358.6 84.3001C358.7 84.5001 358.9 84.6001 359.1 84.7001C359.3 84.8001 359.5 84.8001 359.7 84.7001L371.2 82.7001L372.3 80.9001C370.8 81.2001 369.3 81.5001 367.8 81.7001C367.1 81.8001 366.6 81.9001 366.1 82.0001C365.7 82.1001 365.4 82.1001 365 82.1001C364.6 82.1001 364.1 82.1001 363.7 81.9001C363.3 81.8001 362.9 81.5001 362.6 81.3001C361.3 80.1001 361.8 77.9001 361.9 77.0001C362.6 73.6001 363.2 70.3001 363.9 66.9001C364.6 63.5001 365.2 59.9001 366 56.1001C366.5 53.5001 367 51.0001 367.5 48.6001C368.1 45.3001 368.8 41.9001 369.6 38.0001C370 36.4001 370.4 34.8001 370.8 33.1001C371.1 31.7001 371.7 29.6001 372.2 28.4001C373.4 25.3001 375.4 22.5001 378 20.4001C381.1 17.8001 384.3 16.9001 387.1 16.3001C398.5 13.8001 402.8 13.8001 411.7 15.1001C425.6 17.0001 433.7 20.3001 446.6 29.0001C449 30.6001 456.9 37.0001 462.4 45.2001C463.8 47.3001 465 49.1001 465.7 51.7001C467 56.2001 466.9 59.8001 465.3 62.4001C464.1 64.4001 462 65.7001 459.4 66.2001C444 69.0001 428.6 71.6001 413.6 74.0001C413.3 74.6001 412.9 75.1001 412.5 75.7001C445.3 70.0001 463.7 66.7001 465.7 66.2001C466.5 66.0001 467.3 65.6001 467.9 65.0001C469.3 63.6001 469.2 61.5001 469.2 59.7001C469.2 57.6001 469.1 55.5001 469 53.4001C468.9 50.3001 467.8 47.3001 465.8 44.9001C460.8 38.8001 455.1 33.5001 448.7 28.9001C442.6 24.6001 437.7 21.3001 430.1 18.4001C424.6 16.4001 418.9 15.0001 413.1 14.3001C407.6 13.6001 402.1 13.4001 396.5 13.8001C396.3 13.8001 378.4 14.8001 373.9 22.3001C373.1 23.7001 372.3 25.2001 371.7 26.8001C371 28.5001 370.5 30.2001 370.1 31.9001C369.4 35.0001 368.2 40.9001 367 47.3001C365.6 54.7001 364 63.0001 362.8 67.9001C361.9 73.0001 360.3 78.1001 358.4 83.1001ZM469 65.7001C468.2 66.4001 467.3 67.0001 466.2 67.3001C464.5 67.8001 451.7 70.1001 428.3 74.2001L430.9 77.2001C431.1 77.4001 431.3 77.7001 431.4 77.9001C446.5 75.3001 462.6 72.6001 479.9 69.7001C478.7 68.3001 477.7 66.7001 476.8 65.1001C475.6 62.9001 474.5 60.7001 473.7 58.3001C473.1 56.6001 472.4 55.0001 471.7 53.4001C471.3 52.7001 470.9 51.8001 470.3 50.8001C470.5 51.6001 470.6 52.4001 470.6 53.2001C470.7 55.3001 470.7 57.4001 470.8 59.5001C470.7 61.4001 470.8 63.9001 469 65.7001ZM432.1 79.1001C432.3 79.5001 432.4 79.9001 432.5 80.4001C434.6 89.4001 436 98.6001 436.6 107.9C437.4 120.4 436.5 130.7 435 149.4C434.1 159.7 433 170.1 431.7 180.5C439.5 178.5 447.2 176.6 454.4 174.9C457.3 174.2 460 172.7 462.2 170.6C464.3 168.5 465.9 165.8 466.6 162.9C470.5 147.1 474.4 132.5 478.4 118.2C478.5 117.8 488.3 82.6001 480.8 70.9001C463.5 73.7001 447.2 76.5001 432.1 79.1001ZM454.7 176.2C442.8 179 429.4 182.5 416.5 185.8C392.6 192 370 197.8 362.9 197.8L352.4 200.3C351.4 205.7 350.2 211.1 348.7 216.4C412 197.3 450 187.4 461.6 187.1H461.7C462.8 187.1 463.9 186.9 464.9 186.5C468.9 184.8 470.3 180.1 471.3 173L454.7 176.2ZM351.3 199.2C352.1 194.5 352.8 189.8 353.2 185C353.9 177.6 354.8 168.4 353 156.6C351.5 146.2 349.4 132 338.7 125.2C336.9 124.1 334.3 122.3 330.7 122.2C320.4 121.8 312.3 134.7 308.4 140.9C308.1 141.3 307.8 141.8 307.6 142.3C308.7 142.2 309.8 142 310.9 141.9C316 132.9 321.4 128.2 327.5 127.2C328.4 127.1 329.2 127 330.1 127C333.2 127 336.2 127.8 338.9 129.2C342.6 131.2 347.8 135.5 350.8 150.3C354 165.7 353.1 184.2 351.3 199.2ZM306.8 143.7C304.3 148.3 302.2 153.1 300.5 158.1C300.5 158.3 300.5 158.4 300.3 158.6C294.9 174.8 293 193.3 292.6 208.7C294.7 187.2 299.2 168.3 305.9 152.4C307.3 149.1 308.7 146.1 310.2 143.4C309 143.4 307.9 143.6 306.8 143.7ZM10.5 140.7C8.8 143.6 7.69998 145.1 7.09998 146.2C6.49998 147.1 6 148 5.5 148.9C5.3 149.4 5.09999 149.9 4.79999 150.4C11.1 152.3 17.5 154 23.9 155.5C48.6 161.4 67.2 162.8 98.1 165.3C124.6 167.4 145.2 168.1 156.3 168.4C166.5 168.7 173.2 169 182.5 169C200.7 169.1 225.7 169.3 255.8 165.4C270.4 163.5 284.9 160.9 299.3 157.5C300.9 152.8 302.8 148.3 305.2 143.9C304 144.1 303.1 144.3 302.4 144.4C301.5 144.6 300.8 144.7 299.8 144.8C298.5 145 297.2 145.1 295.9 145.1C294 145.1 292.1 144.9 290.2 144.4C287.2 143.5 284.5 142 282.2 139.8C281.8 140.2 281.3 140.6 280.8 140.9C275.3 145 269.6 146.1 266.8 146.6L266.2 146.7C242.7 151.2 206 154 191.4 155H191.3C190.9 155 190.6 154.9 190.3 154.7C190 154.5 189.8 154.2 189.6 153.8C189.5 153.5 189.4 153.1 189.5 152.7C189.6 152.3 189.8 152 190.1 151.8L217.4 127.3C220.2 124.7 223.5 122.7 227.1 121.4L195.3 123.8C195.4 124.2 195.4 124.6 195.3 125C195.2 125.4 195.1 125.7 194.8 126.1C185.1 138.9 173.5 150.2 160.6 159.7C156.5 162.7 151.6 164.3 146.6 164.3C146.4 164.3 146.1 164.3 145.9 164.3C133.5 163.9 120.9 163.3 108.4 162.5C93.9 161.6 79.3 160.3 64.9 158.8C63.4 158.6 61.9 158.1 60.6 157.2C59.3 156.3 58.3 155.2 57.6 153.8C51.8 142.7 48.6 130.5 48.2 118C48.2 117.3 48.4 116.6 48.8 116.1C46.6 115.7 44.3 115.1 42.1 114.5C40.7 114.1 39.3 113.7 37.9 113.2C38 113.6 38.1 114 38.2 114.4C38.5 118.8 39 123.2 39.9 127.5C40.9 132.5 42.2 137.4 43.8 142.2C43.9 142.6 44 142.9 43.9 143.3C43.8 143.7 43.7 144 43.4 144.3C43.2 144.6 42.9 144.8 42.6 144.9C42.3 145 42 145.1 41.7 145.1C41.6 145.1 41.5 145.1 41.4 145.1C36.9 144.5 32.4 143.5 28 142.1C23.8 140.8 21.6 139.7 20 138.7C17.8 137.5 15.8 136 14 134.3C12.9 136.6 11.7 138.6 10.5 140.7ZM33.3 111.7C30.1 110.4 27.2 108.4 24.7 106C23.8 107.4 22.9 108.8 22.1 110.3C24.9 112.9 28.2 114.9 31.7 116.4L32.1 116.6V117C32.4 121 33 125 33.7 128.9C34.2 131.6 34.8 134.3 35.6 137L35.9 138.1L34.8 137.8C33.1 137.4 31.5 136.9 29.9 136.4C27.6 135.7 25.3 134.8 23.2 133.6C20.4 132 17.9 130 15.8 127.7C15.2 129.9 14.9 131.9 14.6 133.3C16.5 135.1 18.5 136.6 20.7 137.9C22.2 138.8 24.3 139.9 28.4 141.1C32.7 142.4 37.1 143.4 41.6 144C41.7 144 41.9 144 42 143.9C42.1 143.8 42.3 143.8 42.3 143.6C42.4 143.5 42.5 143.3 42.5 143.2C42.5 143.1 42.5 142.9 42.5 142.8C39.3 133.7 37.4 124.2 36.8 114.6C36.8 114.1 36.6 113.6 36.3 113.2C36 112.8 35.6 112.5 35.1 112.3C34.5 112.1 33.9 111.9 33.3 111.6V111.7ZM21.5 111.5C19.2 116.2 17.4 121 16.1 126.1C18.3 128.7 20.9 130.8 23.8 132.4C25.9 133.5 28 134.4 30.3 135.1C31.5 135.5 32.8 135.8 34 136.2C33.4 133.9 32.9 131.5 32.4 129.1C31.7 125.2 31.1 121.3 30.8 117.4C29 116.6 27.2 115.7 25.5 114.6C24.1 113.7 22.8 112.6 21.5 111.5ZM63.2 87.6001L63.1 87.7001H63C58.5 88.4001 54.1 89.4001 49.8 90.7001C44.5 92.3001 39.3 94.3001 34.4 96.8001C30.9 98.7001 28 101.6 25.5 104.9C26.8 106.2 28.2 107.3 29.7 108.3C31 109.2 32.5 109.9 33.9 110.5C36.7 111.6 39.6 112.6 42.5 113.4C44.7 114 47 114.6 49.3 115C49.1 113.9 49.1 112.8 49.1 111.7C49.5 100.3 61.1 89.3001 83.6 79.2001C89.1 76.7001 94.8 74.5001 100.3 72.6001C97.2 73.5001 92.2 75.0001 86.1 77.0001C78 79.7001 70.4 83.3001 63.2 87.6001ZM302.1 2.2001C297.2 2.2001 292.1 2.1001 286.7 2.0001C286.4 2.0001 285.7 2.0001 284.8 2.0001C265.5 2.1001 246.1 3.3001 226.9 5.6001C216.5 6.8001 211.3 7.8001 205.5 9.6001C190.1 14.4001 178.7 22.4001 167.6 30.2001L166 31.4001C156.6 38.0001 146.8 45.9001 146.7 45.9001C140.4 51.1001 134 56.2001 127.7 60.9001C124.4 63.4001 121.9 65.2001 118.4 67.0001C121.3 66.2001 123.9 65.5001 125.9 65.0001H126L132.4 65.8001C151.9 45.2001 174.3 27.6001 198.9 13.5001L199 13.4001V13.4001C218.3 12.5001 237.9 12.0001 257.3 12.0001C267.5 12.0001 277.9 12.1001 288.1 12.4001C312.6 13.0001 337.4 14.4001 361.8 16.5001L362.7 16.6001L362.4 17.4001C361.3 20.6001 360.3 23.9001 359.5 27.2001C358.8 29.9001 358.3 32.7001 357.9 35.4001C357.7 36.9001 357.4 38.5001 357 40.7001C355.8 46.5001 353.6 57.3001 346.6 67.6001C345.9 68.7001 345.1 69.7001 344.3 70.7001L345.4 70.5001C346.8 69.8001 348.1 68.9001 349.1 67.7001C355.1 60.5001 358.8 41.0001 358.9 40.8001C361 27.3001 362.7 19.5001 366.3 14.9001C370.7 9.2001 378.5 6.0001 389.5 5.2001C363.2 2.8001 339.2 2.5001 302.1 2.2001ZM497.5 62.8001C495.4 62.2001 493.5 61.5001 491.5 60.5001C488.8 59.1001 487.6 57.8001 483.8 53.6001L481.8 51.4001C474.6 43.6001 468.2 37.1001 465.9 34.7001C459.6 28.8001 452.7 23.6001 445.2 19.2001C431.3 10.9001 417.4 8.2001 403.3 6.6001V6.7001C385.1 5.1001 373 8.1001 367.1 15.7001C364.1 19.6001 362.3 25.8001 359.9 41.0001C359.8 41.8001 356.5 58.7001 351 66.9001C351.6 67.1001 352.1 67.3001 352.6 67.6001C353.5 68.0001 354.8 69.0001 356.7 71.5001C357.7 72.9001 358.6 74.4001 359.3 75.9001C360.2 73.1001 361 70.2001 361.6 67.4001C362.7 62.5001 364.4 54.2001 365.8 46.8001C367 40.5001 368.2 34.5001 368.9 31.4001C369.3 29.6001 369.9 27.8001 370.6 26.1001C371.3 24.5001 372 22.9001 372.9 21.4001C377.8 13.3001 396.4 12.3001 396.5 12.3001C402.1 11.9001 407.7 12.1001 413.3 12.9001C419.2 13.6001 425 15.0001 430.6 17.1001C438.4 20.0001 443.3 23.3001 449.5 27.7001C456 32.3001 461.8 37.8001 466.8 43.9001C467.1 44.3001 467.4 44.7001 467.7 45.1001C468.4 46.0001 469.1 46.9001 469.7 47.8001C470.8 49.4001 471.7 51.1001 472.6 52.8001C473.4 54.5001 474.1 56.1001 474.7 57.9001C475.5 60.2001 476.5 62.4001 477.7 64.5001C478.6 66.1001 479.7 67.7001 480.9 69.1001L481.1 69.4001L481.2 69.5001C488.4 68.3001 495.8 67.1001 503.3 65.8001C501.9 64.1001 499.9 63.5001 497.5 62.8001ZM510.2 76.6001C509.4 75.4001 508.5 74.3001 507.3 73.4001L506.4 73.8001C506.2 73.9001 506 74.1001 505.9 74.3001C505.8 74.5001 505.8 74.8001 505.8 75.0001C506.2 77.3001 506.9 79.5001 507.7 81.7001C508.1 82.8001 508.5 83.6001 508.9 84.4001C509.5 85.6001 510 86.9001 510.5 88.2001C510.8 89.1001 511 89.9001 511.3 90.8001C511.3 90.5001 511.4 90.3001 511.4 90.0001C512.2 84.6001 512.8 80.7001 510.2 76.6001ZM510.4 102.4C510.3 99.9001 510.4 97.4001 510.7 94.9001C510.4 92.7001 510 90.6001 509.2 88.5001C508.8 87.3001 508.3 86.0001 507.7 84.8001C507.3 84.0001 506.9 83.1001 506.5 82.0001C505.6 79.8001 504.9 77.4001 504.5 75.1001C504.4 74.6001 504.5 74.0001 504.7 73.5001C504.9 73.0001 505.3 72.6001 505.8 72.4001L506.6 72.0001C506.4 70.1001 505.6 68.2001 504.5 66.7001C496.9 68.0001 489.4 69.2001 482.1 70.4001C489.3 83.0001 480 116.8 479.5 118.3C475.5 132.6 471.6 147.2 467.7 163C466.6 167.3 464 171.1 460.3 173.5L471.4 171.3C472.4 160.2 475.3 134 481.8 118.6C483.5 114.6 487.5 105.1 494.1 104.5C495 104.4 495.9 104.5 496.7 104.7C501.7 106 504.2 111.8 505.6 116.7C505.7 116.6 505.8 116.6 505.9 116.5C506.7 116 507.6 115.5 508.6 115.2C509.6 114.9 510.5 114.4 511.3 113.7C511.7 113.3 512 112.9 512.3 112.4C512.1 111.8 512 111.2 511.8 110.6C510.9 108.1 510.4 105.3 510.4 102.4ZM512.6 139C513.4 130.6 513.8 126.4 513.5 121C513.4 118.8 513.1 116.5 512.7 114.3C512.6 114.5 512.4 114.7 512.3 114.8C511.4 115.7 510.3 116.3 509.1 116.7C508.2 117 507.4 117.4 506.7 117.9C506.5 118 506.3 118.2 506.1 118.4C506.4 119.4 506.6 120.4 506.8 121.3C508 126.1 508.3 130.4 508.3 138.7C508.3 146.1 507.9 153.7 507.3 161.3C507.9 160.1 508.5 158.8 509 157.5C510.2 154.4 511.5 150.3 512.6 139ZM503.4 169.1C504.4 167.4 505.2 165.6 505.9 163.8C506.1 157.9 506.2 151.9 506.1 146C505.4 115.8 500.3 112.9 498.6 111.9C497.2 111 495.6 110.6 494 110.7C492 110.9 490.2 112 488.6 113.8C489.1 113.9 489.6 114.1 490.1 114.4C502 120 502.7 151.9 502.7 155.6C502.8 161.1 502.6 166.3 502.2 171.1C502.6 170.5 503 169.8 503.4 169.1ZM456.2 202C457.4 203.1 458.8 204.1 460.3 204.8C461.5 205.4 465.1 207.3 473.9 207.5C480.2 207.6 483.4 207.6 486.1 206.5C493.1 203.6 496 195.6 498.2 187.3C500.4 178.8 501.5 168.2 501.3 155.6C501.2 142.7 498.5 119.9 489.4 115.6C488.8 115.3 488.1 115.1 487.5 115C482.7 121.3 479.6 132.7 478.2 138C475.4 148.7 474.3 158.2 473.5 165.8C473.3 168.1 473 170.2 472.8 172.1V172.6C471.8 180.4 470.2 185.6 465.5 187.6C464.3 188.1 463.1 188.3 461.8 188.3H461.7C459.1 188.4 455.3 188.9 450.1 190C450.6 193.5 452.2 198.3 456.2 202ZM347.2 216.7C350.1 201.3 354.1 172.7 349.6 150.4C346.7 136.2 341.8 132.1 338.4 130.2C335.9 128.9 333.1 128.2 330.2 128.2C329.4 128.2 328.6 128.3 327.8 128.4C323.8 129.1 320.1 131.5 316.5 135.9C319.5 135.5 322.5 135.8 325.3 136.7C346.2 143.7 347.5 183.5 347.6 188.1C347.8 198.7 347 208.3 345.2 216.7H347.2ZM285.9 250.1C291.1 252.8 296.4 252.9 304.3 253C310.2 253.1 314.5 253.2 318.8 251.9C331.8 248 338.4 233.8 340.6 227.8C344.6 217.2 346.5 203.9 346.2 188.2C346 180.1 344.9 172.1 343 164.3C339.3 149.7 333.2 140.9 324.8 138.1C321.7 137.1 318.4 136.9 315.3 137.5C312.5 141.3 309.8 146.4 307.1 152.8C298.8 172.4 294 196.6 292.8 224.6C292.7 226.7 291.9 228.6 290.4 230.1C289 231.6 287 232.4 285 232.6C280.7 232.9 276.6 233 272.7 233.2C274.3 238 278.1 246 285.9 250.1ZM201.6 225C210.1 225.8 218.6 227.2 227 229L227.6 229.1C236.4 231 247.8 231.9 261.6 231.9C268.7 231.9 276.6 231.6 284.9 231.2C286.4 231.1 287.8 230.5 289 229.6C290.1 228.6 290.9 227.3 291.3 225.8C291.2 223.6 291.2 221.1 291.2 218.6C257.5 222.2 223.7 224.1 189.9 224.2C193 224.3 197 224.5 201.6 225ZM41.8 228.1C48.6 231.9 54.8 231.9 62.6 231.9C69.6 231.9 77.5 231.9 85.3 227.1C88.6 225 91.4 222.4 93.8 219.4C88.4 218.9 85 218.5 84.5 218.5C80.5 218.1 76.5 217.7 72.5 217.4C67.1 216.9 61.6 216.4 56.1 215.8L54.9 215.7C49.8 215.1 44.1 214.4 36.4 214.2C33.7 214.1 31.1 214.1 28.4 214.2C30.8 218.4 34.9 224.2 41.8 228.1ZM5.09998 206C7.49998 209.3 11.5 210.5 15.1 211.5C17.5 212.2 20.1 212.7 22.6 212.8C27.2 212.6 32 212.5 36.6 212.6C44.4 212.8 50.2 213.5 55.3 214.1L56.5 214.2C58 214.4 59.5 214.5 60.9 214.7C46.7 212.5 33.3 209.9 20.8 206.9C15 205.5 9.2 204.1 3.5 202.5C3.8 203.8 4.29998 205 5.09998 206Z" fill="#EB2227" stroke="white" stroke-width="0.5" stroke-miterlimit="10"/>
</svg>
