<svg width="517" height="256" viewBox="0 0 517 256" fill="none" xmlns="http://www.w3.org/2000/svg">
<path d="M515.6 162.4C515.1 157.1 514.8 153.8 513.8 150.8C513.8 150.7 513.8 150.7 513.8 150.6C513.8 150.5 513.7 150.5 513.7 150.4C513.4 149.7 513.1 148.9 512.8 148.2C512.3 147.2 511.7 146.2 511.1 145.3C510.4 144.3 509.4 142.7 507.7 139.9C506.4 137.8 505.1 135.6 503.9 133.4C502.7 126.4 497.7 103.4 483.4 95.5001C478.4 92.9001 473.1 90.8001 467.7 89.2001C463.3 87.9001 458.9 86.9001 454.4 86.2001C447.1 81.9001 439.4 78.3001 431.4 75.6001C420.8 72.1001 413.6 70.2001 413.5 70.2001C412.6 70.0001 411.7 69.8001 410.9 69.5001C406.9 68.5001 404.1 67.8001 400.3 66.0001C396.5 64.2001 393.9 62.3001 390.3 59.7001C384 55.0001 377.6 49.9001 371.3 44.7001C371.2 44.6001 361.3 36.7001 351.9 30.1001L350.3 29.0001C339.1 21.2001 327.6 13.1001 312 8.3001C306.1 6.5001 300.8 5.5001 290.3 4.2001C271 1.9001 251.7 0.700098 232.3 0.600098C231.3 0.600098 230.6 0.600098 230.3 0.600098C224.9 0.700098 219.8 0.700097 214.9 0.800097C173.1 1.2001 147.9 1.4001 117.5 4.8001C101.9 6.5001 86.5999 8.8001 71.0999 18.1001C63.5999 22.6001 56.5999 27.8001 50.1999 33.8001C47.7999 36.1001 41.3999 42.6001 34.1999 50.5001L32.1999 52.7001C28.4999 56.8001 27.2999 58.1001 24.7999 59.3001C22.9999 60.2001 21.0999 61.0001 19.0999 61.5001C16.1999 62.4001 13.6999 63.2001 11.5999 65.7001C10.0999 67.6001 9.19995 69.8001 8.89995 72.2001C7.59995 73.2001 6.59995 74.4001 5.69995 75.8001C2.79995 80.3001 3.39995 84.6001 4.29995 90.1001C4.79995 93.6001 5.39995 97.5001 5.29995 102.3C5.29995 105 4.79995 107.7 3.99995 110.3C3.29995 112.5 2.49995 115.1 2.19995 120.8C1.89995 126.4 2.29995 130.6 3.09995 139C4.19995 150.4 5.59994 154.6 6.79994 157.7C7.69994 159.9 8.69995 162.1 9.89995 164.1C11.0999 167.5 12.8999 170.7 15.0999 173.5C15.5999 178.2 16.3999 182.9 17.4999 187.5C19.7999 196.1 22.8999 204.4 30.3999 207.6C32.5999 208.5 35.0999 208.7 38.9999 208.7C40.1999 208.7 41.4999 208.7 43.0999 208.7C52.2999 208.6 56.0999 206.5 57.2999 205.9C58.8999 205.1 60.2999 204.1 61.5999 202.9C65.8999 199 67.4999 193.9 68.1999 190.3C86.6999 194.1 120.3 203.3 168.7 217.9V218H169.1L170.1 218.3L170 218H172C172.8 221.5 173.8 224.9 175 228.2C177.3 234.4 184.2 249.1 197.7 253.1C201 254.1 204.2 254.3 208 254.3C209.4 254.3 211 254.3 212.6 254.2C220.4 254 226.1 253.9 231.6 251.1C240.1 246.7 244 238 245.6 233C249 233.1 252.2 233.1 255.3 233.1C269.2 233.1 280.7 232.1 289.6 230.3L290.2 230.2C298.5 228.4 307 227.1 315.5 226.2C324.5 225.3 331.3 225.2 334.2 225.1H334.4C355.7 224.7 382.4 222.7 402.5 221C404.2 220.9 405.9 220.7 407.6 220.6C412.9 220.1 417.6 219.7 421.5 219.3C424 222.8 427.2 225.7 430.8 228C438.6 232.9 446.4 233 453.4 233H454.2C462.3 233 468.6 233 475.7 229.1C483.2 224.9 487.5 218.6 489.8 213.8C491.3 213.8 492.8 213.9 494.3 214H494.4C497.1 213.9 499.7 213.4 502.3 212.7C506 211.6 510.2 210.3 512.9 206.7C517 201.2 514.8 193.6 514.2 192C513.2 186.6 513.8 181 515.8 175.9V175.8V175.7C516.1 171.3 516 166.8 515.6 162.4ZM514.7 175.6C514.5 176.1 514.3 176.6 514.2 177.1L510.3 178.6C509.5 178.9 508.8 179.4 508.3 180C507.8 180.6 507.3 181.3 507.1 182.1L503.7 194C503.6 194.2 503.6 194.5 503.7 194.8C503.7 195.1 503.8 195.3 504 195.5C504.2 195.7 504.4 195.9 504.6 196C504.8 196.1 505.1 196.2 505.3 196.2C505.4 196.2 505.5 196.2 505.7 196.2C507.3 195.9 508.9 195.4 510.4 194.9C511.5 194.6 512.6 194.2 513.6 193.7C514.3 196.1 514.4 198.6 514.1 201.1C508.2 202.7 502.1 204.2 496.1 205.7C470.1 211.9 440 216.5 407.7 219.4C406.1 219.5 404.4 219.7 402.6 219.8C393.1 220.6 383.5 221.2 373.7 221.7C325.7 224.1 276 222.6 225.9 217.2C225.9 200.7 224.6 178.3 218.3 159C232.4 162.3 246.7 164.9 261.1 166.7C285.9 169.9 307.2 170.3 324.2 170.3C327.9 170.3 331.4 170.3 334.6 170.3C344 170.2 350.7 170 360.9 169.7C372 169.3 392.6 168.7 419.1 166.6C450.1 164.2 468.7 162.7 493.5 156.8C499.9 155.3 506.4 153.5 512.7 151.7C513.5 154.4 513.8 157.6 514.3 162.6C514.6 166.9 514.8 171.2 514.7 175.6ZM513 192.4C511.9 192.9 510.9 193.3 509.8 193.6C508.3 194.1 506.8 194.5 505.2 194.8C505.1 194.8 505.1 194.8 505 194.8C504.9 194.8 504.9 194.8 504.9 194.7L504.8 194.6C504.8 194.5 504.8 194.5 504.8 194.4L508.2 182.5C508.4 181.9 508.7 181.4 509.1 180.9C509.5 180.4 510 180.1 510.6 179.9L513.5 178.8C512.4 183.2 512.2 187.9 513 192.4ZM23.1999 109.5C22.9999 109.5 22.7999 109.5 22.4999 109.5C20.7999 109.5 19.1999 110 17.7999 110.9C16.0999 111.9 14.2999 113.7 12.7999 118.4C12.6999 118.2 12.4999 118.1 12.3999 118C13.6999 113.3 16.0999 107.5 20.4999 106.3C21.1999 106.1 21.8999 106.1 22.6999 106.1C28.4999 106.7 32.2999 115.6 33.8999 119.4C34.2999 120.2 34.5999 121.1 34.8999 122C32.0999 115.6 28.2999 109.9 23.1999 109.5ZM11.9999 119.4C12.0999 119.6 12.2999 119.7 12.3999 119.9C11.3999 123.6 10.5999 128.9 10.0999 136.3C10.0999 129.6 10.4999 125.7 11.4999 121.5C11.6999 120.8 11.7999 120.1 11.9999 119.4ZM167 68.4001C168.2 69.8001 169.6 70.9001 171.2 71.6001L174.1 72.3001V72.4001H174.4C176.2 72.5001 178.1 72.6001 179.9 72.7001C180.6 73.3001 181.2 73.9001 182 74.4001C184.2 76.0001 186.5 77.2001 189 78.2001C191 79.0001 196.8 80.1001 204.7 81.7001C228.5 86.6001 272.9 95.6001 301.8 110.8C308.2 114.2 314.3 118.1 320 122.6L280.8 119.6L242.8 115.4C242.4 114.8 240 111.5 238.9 110C238.5 109.5 238.3 109.1 238.3 109.1C237 107.3 226.6 103.4 154.5 90.2001C154.8 89.9001 155.1 89.5001 155.5 89.0001C156.6 87.8001 157.7 86.7001 158.9 85.6001C159 85.5001 159.2 85.4001 159.3 85.2001C159.6 84.9001 159.8 84.5001 159.9 84.0001C160 83.6001 159.9 83.1001 159.8 82.7001C159.2 81.1001 158.6 79.5001 158.1 77.9001C158.9 75.9001 159.9 74.0001 161.1 72.3001C162.8 70.0001 164 69.1001 164.7 68.8001C165.3 68.5001 165.9 68.3001 166.5 68.1001C166.7 68.2001 166.9 68.3001 167 68.4001ZM384.5 67.0001H386.1L385.9 66.8001L391.1 66.2001C408.8 70.7001 465.9 87.2001 466.7 111.8C466.7 113 466.6 114.1 466.4 115.2C466.2 115.2 465.9 115.2 465.7 115.2C445.1 117.2 424.2 118.8 403.6 119.9C377.3 121.3 350.6 122.1 324.2 122.1C323.6 122.1 323 122.3 322.5 122.7C316.3 117.7 309.6 113.3 302.5 109.6C273.4 94.2001 229 85.2001 205 80.3001C197.2 78.7001 191.5 77.6001 189.5 76.8001C187.1 75.9001 184.9 74.6001 182.8 73.2001C182.6 73.0001 182.4 72.8001 182.1 72.7001C187.4 72.9001 192.7 73.0001 198.1 73.0001H199.9C218.5 73.0001 232.1 71.9001 245.1 70.9001C247.7 70.7001 250.3 70.5001 253 70.3001C277.1 68.5001 294.1 68.1001 325.2 67.4001C338.6 67.1001 352.3 67.0001 365.9 67.0001C372 66.9001 378.3 66.9001 384.5 67.0001ZM466.5 116.6C466.8 116.7 467.1 116.9 467.3 117.2C467.5 117.5 467.6 117.8 467.6 118.1C467.2 130.4 464 142.4 458.3 153.3C457.7 154.5 456.8 155.5 455.7 156.2C454.6 156.9 453.3 157.4 452 157.5C437.6 159 423 160.3 408.5 161.2C396.1 162 383.5 162.6 371.1 163C366.1 163.2 361.2 161.7 357.2 158.7C344.3 149.3 332.9 138 323.2 125.3C323.1 125.1 323 124.9 322.9 124.7C322.9 124.5 322.9 124.2 323 124C323.1 123.8 323.3 123.6 323.5 123.5C323.7 123.4 323.9 123.3 324.2 123.3C350.6 123.3 377.3 122.5 403.6 121.1C424.3 120 445.2 118.4 465.8 116.4H466C466.1 116.4 466.1 116.4 466.2 116.4V116.6H466.5ZM365.8 65.6001C352.2 65.6001 338.5 65.8001 325.1 66.0001C294.1 66.7001 277 67.1001 252.9 68.9001C250.2 69.1001 247.6 69.3001 245 69.5001C231.9 70.6001 218.5 71.6001 199.9 71.6001H198.1C190.3 71.6001 182.5 71.4001 174.8 71.0001C173.7 69.6001 172.6 68.2001 171.6 66.7001C164.7 56.6001 162.6 45.9001 161.4 40.2001C161 38.0001 160.7 36.5001 160.5 35.0001C160.1 32.2001 159.5 29.4001 158.8 26.7001C158 23.6001 157.1 20.5001 156.1 17.6001C180.2 15.5001 204.7 14.2001 228.9 13.6001C239.1 13.3001 249.5 13.2001 259.7 13.2001C279 13.2001 298.5 13.7001 317.7 14.6001C341.8 28.4001 363.7 45.6001 382.9 65.7001C377.2 65.6001 371.5 65.6001 365.8 65.6001ZM209.7 140.2C205.6 133.8 197.2 120.4 186.2 120.8C182.3 121 179.4 122.8 177.5 124C166.4 131.2 164.1 146.3 162.6 156.4C160.8 168.3 161.7 177.7 162.4 185.1C162.8 189.7 163.5 194.3 164.2 198.8L154.6 196.5C150.4 158.7 148.8 134.3 149.8 123.9C149.9 122.7 150.2 120.5 150.5 117.8C151.5 110 152.9 98.2001 152.7 95.0001C152.6 94.2001 152.7 93.3001 153 92.5001C153.2 92.0001 153.4 91.5001 153.7 91.1001C180.9 96.1001 201.7 100.2 215.6 103.3C234 107.4 236.9 109.1 237.2 109.6L237.8 110.5L240.2 113.9L240.9 114.9L227 113.3H226.9C224.8 113.3 223.1 114 222.3 115.3C221.5 116.4 221.2 118 222.6 122C224.1 126.3 226.4 130.4 229.3 133.9C230.6 135.6 232.1 137.2 233.6 138.8C231.5 140.7 229 142.2 226.2 143C222.4 144.1 218.9 143.7 217.2 143.4C216.2 143.3 215.6 143.1 214.7 143C213.8 142.8 212.7 142.6 210.8 142.3C210.6 141.7 210.2 140.9 209.7 140.2ZM82.9999 95.4001C83.6999 96.4001 85.4999 97.1001 87.6999 97.7001C87.3999 101.2 88.4999 102.5 89.1999 103C89.7999 103.4 90.4999 103.6 91.2999 103.6C92.1999 103.6 93.1999 103.4 93.9999 103C96.1999 102.1 98.9999 99.9001 99.6999 96.8001C100.4 93.5001 98.4999 90.4001 96.4999 88.6001C94.7999 87.0001 92.9999 86.3001 91.5999 86.7001C90.2999 87.1001 89.3999 88.3001 88.7999 90.5001C88.6999 90.4001 88.4999 90.4001 88.3999 90.4001C87.5999 90.4001 84.8999 91.5001 83.5999 92.9001L83.4999 93.0001C84.0999 88.9001 84.8999 84.9001 85.8999 80.9001C85.9999 80.4001 86.1999 80.0001 86.3999 79.6001C102.5 82.4001 117.3 85.0001 130.7 87.4001C130.7 87.7001 130.8 88.0001 130.8 88.3001C131.2 90.7001 131.5 92.3001 132.9 93.2001C133.5 93.6001 134.3 93.8001 135.1 93.8001C135.6 93.8001 136.1 93.7001 136.6 93.5001C138.1 92.9001 138.6 91.7001 139.3 90.4001C139.5 89.9001 139.7 89.4001 140 88.9001C144.3 89.7001 148.5 90.4001 152.5 91.2001C152.3 91.6001 152.1 92.0001 152 92.5001C151.7 93.5001 151.6 94.5001 151.7 95.5001C151.9 98.5001 150.5 110.2 149.5 118C149.2 120.8 148.9 123 148.8 124.1C147.8 134.5 149.4 158.9 153.5 196.7C146 196.3 124.1 190.7 100.9 184.7C96.0999 183.5 91.2999 182.2 86.4999 181H86.6999C85.3999 170.5 84.2999 159.9 83.3999 149.5C81.7999 130.8 80.8999 120.6 81.7999 108.2C81.9999 103.8 82.3999 99.6001 82.9999 95.4001ZM88.9999 97.9001C90.1999 98.1001 91.3999 98.3001 92.6999 98.5001C93.5999 98.7001 94.5999 98.7001 95.4999 98.8001C96.1999 98.8001 96.7999 98.7001 97.4999 98.5001C96.4999 99.9001 95.0999 101 93.4999 101.6C91.9999 102.2 90.6999 102.3 89.9999 101.8C89.5999 101.6 88.7999 100.8 88.9999 97.9001ZM92.4999 92.9001C91.6999 92.8001 90.4999 92.6001 89.6999 92.4001C90.0999 89.7001 90.8999 88.0001 91.9999 87.7001C92.8999 87.5001 94.3999 88.1001 95.6999 89.3001C96.8999 90.5001 98.1999 92.4001 98.4999 94.4001C97.1999 93.6001 94.7999 93.3001 92.4999 92.9001ZM92.2999 94.3001C94.4999 94.6001 97.6999 95.1001 97.8999 96.1001C97.8999 96.3001 97.8999 96.4001 97.7999 96.5001C97.6999 96.6001 97.6999 96.8001 97.5999 96.9001C97.3999 97.2001 96.8999 97.6001 95.3999 97.6001C94.4999 97.6001 93.6999 97.5001 92.7999 97.4001C90.5999 97.1001 83.9999 96.0001 83.8999 94.5001C83.8999 94.2001 84.0999 93.9001 84.2999 93.7001C85.0999 93.0001 85.9999 92.4001 86.9999 92.0001C86.9999 92.1001 86.9999 92.2001 86.9999 92.2001C87.2999 93.5001 89.3999 93.8001 92.2999 94.3001ZM105.8 77.2001C107.5 78.8001 109.3 79.4001 111 80.1001C114.3 81.3001 116.9 81.4001 119.9 81.5001C123.4 81.5001 126.9 81.9001 130.3 82.7001L130.9 82.9001L130.6 83.0001V83.5001C130.6 84.3001 130.6 85.0001 130.6 85.8001C117.4 83.4001 102.9 80.9001 87.1999 78.2001L87.2999 78.1001L90.3999 74.5001C94.9999 75.3001 100.2 76.2001 105.8 77.2001ZM57.4999 64.7001C55.8999 64.4001 53.7999 63.6001 52.4999 61.5001C51.0999 59.2001 50.9999 56.0001 52.2999 51.9001C52.9999 49.5001 54.0999 47.8001 55.4999 45.8001C59.5999 39.8001 64.6999 35.0001 67.9999 32.3001C66.1999 36.6001 64.4999 41.0001 62.9999 45.4001C60.7999 51.8001 58.9999 58.2001 57.4999 64.7001ZM64.1999 45.9001C65.9999 40.7001 67.9999 35.6001 70.1999 30.6001L70.3999 30.4001C68.1999 35.7001 66.1999 41.0001 64.3999 46.5001C62.3999 52.6001 60.6999 58.8001 59.2999 65.0001H58.7999C60.2999 58.5001 61.9999 52.2001 64.1999 45.9001ZM65.5999 46.9001C67.5999 40.9001 69.7999 34.9001 72.3999 29.0001C84.2999 21.1001 92.1999 18.1001 105.3 16.2001C106.5 16.0001 107.6 15.9001 108.6 15.8001C99.4 32.8001 92.5999 51.1001 88.3999 70.0001C79.1999 68.5001 69.8999 66.9001 60.5999 65.2001C61.9999 59.1001 63.6999 52.9001 65.5999 46.9001ZM98.9999 39.8001C102.2 31.5001 106 23.5001 110.2 15.7001C111.7 15.6001 113.1 15.5001 114.5 15.5001C105.5 33.0001 99.6999 52.0001 97.1999 71.5001L89.7999 70.2001C91.9999 59.9001 95.0999 49.7001 98.9999 39.8001ZM104.6 43.4001C107.5 33.8001 111.3 24.5001 115.9 15.5001C119.6 15.6001 123.6 16.2001 129.5 17.5001C132.1 18.1001 135.2 19.0001 138.1 21.3001C140.5 23.3001 142.4 25.8001 143.5 28.8001C143.9 30.0001 144.5 32.2001 144.9 33.4001C145.3 35.0001 145.7 36.6001 146.1 38.2001C147 42.1001 147.6 45.5001 148.2 48.8001C148.6 51.2001 149.1 53.7001 149.7 56.3001C150.5 60.1001 151.2 63.6001 151.8 67.1001C152.4 70.6001 153.1 73.8001 153.8 77.3001C153.9 77.9001 154.3 79.6001 153.5 80.3001C152.9 80.9001 151.9 80.8001 151.2 80.7001C150.7 80.6001 150 80.5001 149.4 80.4001C147.7 80.2001 146.1 79.9001 144.5 79.5001C143.9 75.1001 141.3 62.2001 131.8 58.6001C129.6 57.8001 127.9 57.7001 124.4 57.6001C123 57.5001 121.3 57.5001 119.6 57.5001C113.2 57.5001 104.5 58.1001 102 63.8001C100.8 66.4001 101.3 69.6001 102.5 72.4001L98.5999 71.8001C99.6999 62.1001 101.8 52.6001 104.6 43.4001ZM145.7 84.1001L156.6 86.0001C155.9 86.7001 155.2 87.4001 154.6 88.1001C154 88.8001 153.5 89.4001 153.2 89.9001C149.2 89.2001 145.1 88.4001 140.7 87.6001C142 86.0001 143.7 84.8001 145.7 84.1001ZM139.3 87.2001C139.2 87.3001 139.1 87.5001 139 87.6001L138.9 87.7001C138.5 88.3001 138.2 89.0001 137.9 89.6001C137.3 90.8001 136.9 91.7001 136 92.0001C135.6 92.1001 135.2 92.2001 134.8 92.2001C134.4 92.2001 134 92.0001 133.6 91.8001C132.7 91.2001 132.5 90.1001 132.1 87.8001C131.9 86.5001 131.8 85.3001 131.8 84.0001L143.5 81.5001L144.5 83.1001C142.4 84.0001 140.6 85.4001 139.3 87.2001ZM103.1 64.3001C104.7 60.6001 110.1 58.8001 119.5 58.8001C121.2 58.8001 122.9 58.9001 124.3 58.9001C127.6 59.0001 129.3 59.1001 131.2 59.8001C140 63.2001 142.5 75.2001 143.1 79.5001C139.6 80.9001 135.9 81.6001 132.2 81.6001H131.5C131.3 81.5001 130.9 81.4001 130.5 81.3001C127 80.5001 123.4 80.1001 119.8 80.0001C116.9 79.9001 114.4 79.8001 111.3 78.7001C109.6 78.1001 108 77.5001 106.4 76.0001C103.6 73.3001 101.4 68.0001 103.1 64.3001ZM230.5 133.3C227.7 129.9 225.5 126 224 121.8C222.8 118.1 223.1 117 223.5 116.3C224.3 115.1 226.1 114.9 227 114.9L282 121C288.2 121.7 294.1 124.3 298.7 128.5L326 153C326.1 153.1 326.1 153.2 326.1 153.2C326.1 153.3 326.1 153.4 326.1 153.5C326.1 153.6 326 153.7 325.9 153.7C325.8 153.8 325.7 153.8 325.6 153.8C311 152.8 274.4 150 251 145.5L250.4 145.4C247.7 144.9 242.2 143.9 237 140C234.3 138 232.5 135.8 230.5 133.3ZM158.6 83.1001C158.7 83.3001 158.7 83.5001 158.7 83.7001C158.7 83.9001 158.6 84.1001 158.4 84.3001C158.3 84.5001 158.1 84.6001 157.9 84.7001C157.7 84.8001 157.5 84.8001 157.3 84.7001L145.8 82.7001L144.7 80.9001C146.2 81.2001 147.7 81.5001 149.2 81.7001C149.9 81.8001 150.4 81.9001 150.9 82.0001C151.3 82.1001 151.6 82.1001 152 82.1001C152.4 82.1001 152.9 82.1001 153.3 81.9001C153.7 81.8001 154.1 81.5001 154.4 81.3001C155.7 80.1001 155.2 77.9001 155.1 77.0001C154.4 73.6001 153.8 70.3001 153.1 66.9001C152.4 63.5001 151.8 59.9001 151 56.1001C150.5 53.5001 150 51.0001 149.5 48.6001C148.9 45.3001 148.2 41.9001 147.4 38.0001C147 36.4001 146.6 34.8001 146.2 33.1001C145.9 31.7001 145.3 29.6001 144.8 28.4001C143.6 25.3001 141.6 22.5001 139 20.4001C135.9 17.8001 132.7 16.9001 129.9 16.3001C118.5 13.8001 114.2 13.8001 105.3 15.1001C91.4 17.0001 83.2999 20.3001 70.3999 29.0001C67.9999 30.6001 60.0999 37.0001 54.5999 45.2001C53.1999 47.3001 51.9999 49.1001 51.2999 51.7001C49.9999 56.2001 50.0999 59.8001 51.6999 62.4001C52.8999 64.4001 54.9999 65.7001 57.5999 66.2001C72.9999 69.0001 88.3999 71.6001 103.4 74.0001C103.7 74.6001 104.1 75.1001 104.5 75.7001C71.6999 70.0001 53.2999 66.7001 51.2999 66.2001C50.4999 66.0001 49.6999 65.6001 49.0999 65.0001C47.6999 63.6001 47.7999 61.5001 47.7999 59.7001C47.7999 57.6001 47.8999 55.5001 47.9999 53.4001C48.0999 50.3001 49.1999 47.3001 51.1999 44.9001C56.1999 38.8001 61.8999 33.5001 68.2999 28.9001C74.3999 24.6001 79.2999 21.3001 86.8999 18.4001C92.3999 16.4001 98.0999 15.0001 103.9 14.3001C109.4 13.6001 114.9 13.4001 120.5 13.8001C120.7 13.8001 138.6 14.8001 143.1 22.3001C143.9 23.7001 144.7 25.2001 145.3 26.8001C146 28.5001 146.5 30.2001 146.9 31.9001C147.6 35.0001 148.8 40.9001 150 47.3001C151.4 54.7001 153 63.0001 154.2 67.9001C155.1 73.0001 156.7 78.1001 158.6 83.1001ZM47.9999 65.7001C48.7999 66.4001 49.6999 67.0001 50.7999 67.3001C52.4999 67.8001 65.2999 70.1001 88.6999 74.2001L86.0999 77.2001C85.8999 77.4001 85.6999 77.7001 85.5999 77.9001C70.4999 75.3001 54.3999 72.6001 37.0999 69.7001C38.2999 68.3001 39.2999 66.7001 40.1999 65.1001C41.3999 62.9001 42.4999 60.7001 43.2999 58.3001C43.8999 56.6001 44.5999 55.0001 45.2999 53.4001C45.6999 52.7001 46.0999 51.8001 46.6999 50.8001C46.4999 51.6001 46.3999 52.4001 46.3999 53.2001C46.2999 55.3001 46.2999 57.4001 46.1999 59.5001C46.2999 61.4001 46.1999 63.9001 47.9999 65.7001ZM84.8999 79.1001C84.6999 79.5001 84.5999 79.9001 84.4999 80.4001C82.3999 89.4001 80.9999 98.6001 80.3999 107.9C79.5999 120.4 80.4999 130.7 81.9999 149.4C82.8999 159.7 83.9999 170.1 85.2999 180.5C77.4999 178.5 69.7999 176.6 62.5999 174.9C59.6999 174.2 56.9999 172.7 54.7999 170.6C52.6999 168.5 51.0999 165.8 50.3999 162.9C46.4999 147.1 42.5999 132.5 38.5999 118.2C38.4999 117.8 28.6999 82.6001 36.1999 70.9001C53.4999 73.7001 69.7999 76.5001 84.8999 79.1001ZM62.2999 176.2C74.1999 179 87.5999 182.5 100.5 185.8C124.4 192 147 197.8 154.1 197.8L164.6 200.3C165.6 205.7 166.8 211.1 168.3 216.4C105 197.3 66.9999 187.4 55.3999 187.1H55.2999C54.1999 187.1 53.0999 186.9 52.0999 186.5C48.0999 184.8 46.6999 180.1 45.6999 173L62.2999 176.2ZM165.7 199.2C164.9 194.5 164.2 189.8 163.8 185C163.1 177.6 162.2 168.4 164 156.6C165.5 146.2 167.6 132 178.3 125.2C180.1 124.1 182.7 122.3 186.3 122.2C196.6 121.8 204.7 134.7 208.6 140.9C208.9 141.3 209.2 141.8 209.4 142.3C208.3 142.2 207.2 142 206.1 141.9C201 132.9 195.6 128.2 189.5 127.2C188.6 127.1 187.8 127 186.9 127C183.8 127 180.8 127.8 178.1 129.2C174.4 131.2 169.2 135.5 166.2 150.3C163 165.7 163.9 184.2 165.7 199.2ZM210.2 143.7C212.7 148.3 214.8 153.1 216.5 158.1C216.5 158.3 216.5 158.4 216.7 158.6C222.1 174.8 224 193.3 224.4 208.7C222.3 187.2 217.8 168.3 211.1 152.4C209.7 149.1 208.3 146.1 206.8 143.4C208 143.4 209.1 143.6 210.2 143.7ZM506.5 140.7C508.2 143.6 509.3 145.1 509.9 146.2C510.5 147.1 511 148 511.5 148.9C511.7 149.4 511.9 149.9 512.2 150.4C505.9 152.3 499.5 154 493.1 155.5C468.4 161.4 449.8 162.8 418.9 165.3C392.4 167.4 371.8 168.1 360.7 168.4C350.5 168.7 343.8 169 334.5 169C316.3 169.1 291.3 169.3 261.2 165.4C246.6 163.5 232.1 160.9 217.7 157.5C216.1 152.8 214.2 148.3 211.8 143.9C213 144.1 213.9 144.3 214.6 144.4C215.5 144.6 216.2 144.7 217.2 144.8C218.5 145 219.8 145.1 221.1 145.1C223 145.1 224.9 144.9 226.8 144.4C229.8 143.5 232.5 142 234.8 139.8C235.2 140.2 235.7 140.6 236.2 140.9C241.7 145 247.4 146.1 250.2 146.6L250.8 146.7C274.3 151.2 311 154 325.6 155H325.7C326.1 155 326.4 154.9 326.7 154.7C327 154.5 327.2 154.2 327.4 153.8C327.5 153.5 327.6 153.1 327.5 152.7C327.4 152.3 327.2 152 326.9 151.8L299.6 127.3C296.8 124.7 293.5 122.7 289.9 121.4L321.7 123.8C321.6 124.2 321.6 124.6 321.7 125C321.8 125.4 321.9 125.7 322.2 126.1C331.9 138.9 343.5 150.2 356.4 159.7C360.5 162.7 365.4 164.3 370.4 164.3C370.6 164.3 370.9 164.3 371.1 164.3C383.5 163.9 396.1 163.3 408.6 162.5C423.1 161.6 437.7 160.3 452.1 158.8C453.6 158.6 455.1 158.1 456.4 157.2C457.7 156.3 458.7 155.2 459.4 153.8C465.2 142.7 468.4 130.5 468.8 118C468.8 117.3 468.6 116.6 468.2 116.1C470.4 115.7 472.7 115.1 474.9 114.5C476.3 114.1 477.7 113.7 479.1 113.2C479 113.6 478.9 114 478.8 114.4C478.5 118.8 478 123.2 477.1 127.5C476.1 132.5 474.8 137.4 473.2 142.2C473.1 142.6 473 142.9 473.1 143.3C473.2 143.7 473.3 144 473.6 144.3C473.8 144.6 474.1 144.8 474.4 144.9C474.7 145 475 145.1 475.3 145.1C475.4 145.1 475.5 145.1 475.6 145.1C480.1 144.5 484.6 143.5 489 142.1C493.2 140.8 495.4 139.7 497 138.7C499.2 137.5 501.2 136 503 134.3C504.1 136.6 505.3 138.6 506.5 140.7ZM483.7 111.7C486.9 110.4 489.8 108.4 492.3 106C493.2 107.4 494.1 108.8 494.9 110.3C492.1 112.9 488.8 114.9 485.3 116.4L484.9 116.6V117C484.6 121 484 125 483.3 128.9C482.8 131.6 482.2 134.3 481.4 137L481.1 138.1L482.2 137.8C483.9 137.4 485.5 136.9 487.1 136.4C489.4 135.7 491.7 134.8 493.8 133.6C496.6 132 499.1 130 501.2 127.7C501.8 129.9 502.1 131.9 502.4 133.3C500.5 135.1 498.5 136.6 496.3 137.9C494.8 138.8 492.7 139.9 488.6 141.1C484.3 142.4 479.9 143.4 475.4 144C475.3 144 475.1 144 475 143.9C474.9 143.8 474.7 143.8 474.7 143.6C474.6 143.5 474.5 143.3 474.5 143.2C474.5 143.1 474.5 142.9 474.5 142.8C477.7 133.7 479.6 124.2 480.2 114.6C480.2 114.1 480.4 113.6 480.7 113.2C481 112.8 481.4 112.5 481.9 112.3C482.5 112.1 483.1 111.9 483.7 111.6V111.7ZM495.5 111.5C497.8 116.2 499.6 121 500.9 126.1C498.7 128.7 496.1 130.8 493.2 132.4C491.1 133.5 489 134.4 486.7 135.1C485.5 135.5 484.2 135.8 483 136.2C483.6 133.9 484.1 131.5 484.6 129.1C485.3 125.2 485.9 121.3 486.2 117.4C488 116.6 489.8 115.7 491.5 114.6C492.9 113.7 494.2 112.6 495.5 111.5ZM453.8 87.6001L453.9 87.7001H454C458.5 88.4001 462.9 89.4001 467.2 90.7001C472.5 92.3001 477.7 94.3001 482.6 96.8001C486.1 98.7001 489 101.6 491.5 104.9C490.2 106.2 488.8 107.3 487.3 108.3C486 109.2 484.5 109.9 483.1 110.5C480.3 111.6 477.4 112.6 474.5 113.4C472.3 114 470 114.6 467.7 115C467.9 113.9 467.9 112.8 467.9 111.7C467.5 100.3 455.9 89.3001 433.4 79.2001C427.9 76.7001 422.2 74.5001 416.7 72.6001C419.8 73.5001 424.8 75.0001 430.9 77.0001C439 79.7001 446.6 83.3001 453.8 87.6001ZM214.9 2.2001C219.8 2.2001 224.9 2.1001 230.3 2.0001C230.6 2.0001 231.3 2.0001 232.2 2.0001C251.5 2.1001 270.9 3.3001 290.1 5.6001C300.5 6.8001 305.7 7.8001 311.5 9.6001C326.9 14.4001 338.3 22.4001 349.4 30.2001L351 31.4001C360.4 38.0001 370.2 45.9001 370.3 45.9001C376.6 51.1001 383 56.2001 389.3 60.9001C392.6 63.4001 395.1 65.2001 398.6 67.0001C395.7 66.2001 393.1 65.5001 391.1 65.0001H391L384.6 65.8001C365.1 45.2001 342.7 27.6001 318.1 13.5001L318 13.4001V13.4001C298.7 12.5001 279.1 12.0001 259.7 12.0001C249.5 12.0001 239.1 12.1001 228.9 12.4001C204.4 13.0001 179.6 14.4001 155.2 16.5001L154.3 16.6001L154.6 17.4001C155.7 20.6001 156.7 23.9001 157.5 27.2001C158.2 29.9001 158.7 32.7001 159.1 35.4001C159.3 36.9001 159.6 38.5001 160 40.7001C161.2 46.5001 163.4 57.3001 170.4 67.6001C171.1 68.7001 171.9 69.7001 172.7 70.7001L171.6 70.5001C170.2 69.8001 168.9 68.9001 167.9 67.7001C161.9 60.5001 158.2 41.0001 158.1 40.8001C156 27.3001 154.3 19.5001 150.7 14.9001C146.3 9.2001 138.5 6.0001 127.5 5.2001C153.8 2.8001 177.8 2.5001 214.9 2.2001ZM19.4999 62.8001C21.5999 62.2001 23.4999 61.5001 25.4999 60.5001C28.1999 59.1001 29.3999 57.8001 33.1999 53.6001L35.1999 51.4001C42.3999 43.6001 48.7999 37.1001 51.0999 34.7001C57.3999 28.8001 64.2999 23.6001 71.7999 19.2001C85.6999 10.9001 99.5999 8.2001 113.7 6.6001V6.7001C131.9 5.1001 144 8.1001 149.9 15.7001C152.9 19.6001 154.7 25.8001 157.1 41.0001C157.2 41.8001 160.5 58.7001 166 66.9001C165.4 67.1001 164.9 67.3001 164.4 67.6001C163.5 68.0001 162.2 69.0001 160.3 71.5001C159.3 72.9001 158.4 74.4001 157.7 75.9001C156.8 73.1001 156 70.2001 155.4 67.4001C154.3 62.5001 152.6 54.2001 151.2 46.8001C150 40.5001 148.8 34.5001 148.1 31.4001C147.7 29.6001 147.1 27.8001 146.4 26.1001C145.7 24.5001 145 22.9001 144.1 21.4001C139.2 13.3001 120.6 12.3001 120.5 12.3001C114.9 11.9001 109.3 12.1001 103.7 12.9001C97.7999 13.6001 91.9999 15.0001 86.3999 17.1001C78.5999 20.0001 73.6999 23.3001 67.4999 27.7001C60.9999 32.3001 55.1999 37.8001 50.1999 43.9001C49.8999 44.3001 49.5999 44.7001 49.2999 45.1001C48.5999 46.0001 47.8999 46.9001 47.2999 47.8001C46.1999 49.4001 45.2999 51.1001 44.3999 52.8001C43.5999 54.5001 42.8999 56.1001 42.2999 57.9001C41.4999 60.2001 40.4999 62.4001 39.2999 64.5001C38.3999 66.1001 37.2999 67.7001 36.0999 69.1001L35.8999 69.4001L35.7999 69.5001C28.5999 68.3001 21.1999 67.1001 13.6999 65.8001C15.0999 64.1001 17.0999 63.5001 19.4999 62.8001ZM6.79994 76.6001C7.59994 75.4001 8.49995 74.3001 9.69995 73.4001L10.5999 73.8001C10.7999 73.9001 10.9999 74.1001 11.0999 74.3001C11.1999 74.5001 11.1999 74.8001 11.1999 75.0001C10.7999 77.3001 10.0999 79.5001 9.29994 81.7001C8.89994 82.8001 8.49994 83.6001 8.09994 84.4001C7.49994 85.6001 6.99995 86.9001 6.49995 88.2001C6.19995 89.1001 5.99995 89.9001 5.69995 90.8001C5.69995 90.5001 5.59995 90.3001 5.59995 90.0001C4.79995 84.6001 4.19994 80.7001 6.79994 76.6001ZM6.59994 102.4C6.69994 99.9001 6.59994 97.4001 6.29994 94.9001C6.59994 92.7001 6.99994 90.6001 7.79994 88.5001C8.19994 87.3001 8.69994 86.0001 9.29994 84.8001C9.69994 84.0001 10.0999 83.1001 10.4999 82.0001C11.3999 79.8001 12.0999 77.4001 12.4999 75.1001C12.5999 74.6001 12.4999 74.0001 12.2999 73.5001C12.0999 73.0001 11.6999 72.6001 11.1999 72.4001L10.3999 72.0001C10.5999 70.1001 11.3999 68.2001 12.4999 66.7001C20.0999 68.0001 27.5999 69.2001 34.8999 70.4001C27.6999 83.0001 36.9999 116.8 37.4999 118.3C41.4999 132.6 45.3999 147.2 49.2999 163C50.3999 167.3 52.9999 171.1 56.6999 173.5L45.5999 171.3C44.5999 160.2 41.6999 134 35.1999 118.6C33.4999 114.6 29.4999 105.1 22.8999 104.5C21.9999 104.4 21.0999 104.5 20.2999 104.7C15.2999 106 12.7999 111.8 11.3999 116.7C11.2999 116.6 11.1999 116.6 11.0999 116.5C10.2999 116 9.39995 115.5 8.39995 115.2C7.39995 114.9 6.49995 114.4 5.69995 113.7C5.29995 113.3 4.99995 112.9 4.69995 112.4C4.89995 111.8 4.99995 111.2 5.19995 110.6C6.09995 108.1 6.59994 105.3 6.59994 102.4ZM4.39995 139C3.59995 130.6 3.19995 126.4 3.49995 121C3.59995 118.8 3.89995 116.5 4.29995 114.3C4.39995 114.5 4.59995 114.7 4.69995 114.8C5.59995 115.7 6.69995 116.3 7.89995 116.7C8.79995 117 9.59994 117.4 10.2999 117.9C10.4999 118 10.6999 118.2 10.8999 118.4C10.5999 119.4 10.3999 120.4 10.1999 121.3C8.99995 126.1 8.69995 130.4 8.69995 138.7C8.69995 146.1 9.09995 153.7 9.69995 161.3C9.09995 160.1 8.49995 158.8 7.99995 157.5C6.79995 154.4 5.49995 150.3 4.39995 139ZM13.5999 169.1C12.5999 167.4 11.7999 165.6 11.0999 163.8C10.8999 157.9 10.7999 151.9 10.8999 146C11.5999 115.8 16.6999 112.9 18.3999 111.9C19.7999 111 21.3999 110.6 22.9999 110.7C24.9999 110.9 26.7999 112 28.3999 113.8C27.8999 113.9 27.3999 114.1 26.8999 114.4C14.9999 120 14.2999 151.9 14.2999 155.6C14.1999 161.1 14.3999 166.3 14.7999 171.1C14.3999 170.5 13.9999 169.8 13.5999 169.1ZM60.7999 202C59.5999 203.1 58.1999 204.1 56.6999 204.8C55.4999 205.4 51.8999 207.3 43.0999 207.5C36.7999 207.6 33.5999 207.6 30.8999 206.5C23.8999 203.6 20.9999 195.6 18.7999 187.3C16.5999 178.8 15.4999 168.2 15.6999 155.6C15.7999 142.7 18.4999 119.9 27.5999 115.6C28.1999 115.3 28.8999 115.1 29.4999 115C34.2999 121.3 37.3999 132.7 38.7999 138C41.5999 148.7 42.6999 158.2 43.4999 165.8C43.6999 168.1 43.9999 170.2 44.1999 172.1V172.6C45.1999 180.4 46.7999 185.6 51.4999 187.6C52.6999 188.1 53.8999 188.3 55.1999 188.3H55.2999C57.8999 188.4 61.6999 188.9 66.8999 190C66.3999 193.5 64.7999 198.3 60.7999 202ZM169.8 216.7C166.9 201.3 162.9 172.7 167.4 150.4C170.3 136.2 175.2 132.1 178.6 130.2C181.1 128.9 183.9 128.2 186.8 128.2C187.6 128.2 188.4 128.3 189.2 128.4C193.2 129.1 196.9 131.5 200.5 135.9C197.5 135.5 194.5 135.8 191.7 136.7C170.8 143.7 169.5 183.5 169.4 188.1C169.2 198.7 170 208.3 171.8 216.7H169.8ZM231.1 250.1C225.9 252.8 220.6 252.9 212.7 253C206.8 253.1 202.5 253.2 198.2 251.9C185.2 248 178.6 233.8 176.4 227.8C172.4 217.2 170.5 203.9 170.8 188.2C171 180.1 172.1 172.1 174 164.3C177.7 149.7 183.8 140.9 192.2 138.1C195.3 137.1 198.6 136.9 201.7 137.5C204.5 141.3 207.2 146.4 209.9 152.8C218.2 172.4 223 196.6 224.2 224.6C224.3 226.7 225.1 228.6 226.6 230.1C228 231.6 230 232.4 232 232.6C236.3 232.9 240.4 233 244.3 233.2C242.7 238 238.9 246 231.1 250.1ZM315.4 225C306.9 225.8 298.4 227.2 290 229L289.4 229.1C280.6 231 269.2 231.9 255.4 231.9C248.3 231.9 240.4 231.6 232.1 231.2C230.6 231.1 229.2 230.5 228 229.6C226.9 228.6 226.1 227.3 225.7 225.8C225.8 223.6 225.8 221.1 225.8 218.6C259.5 222.2 293.3 224.1 327.1 224.2C324 224.3 320 224.5 315.4 225ZM475.2 228.1C468.4 231.9 462.2 231.9 454.4 231.9C447.4 231.9 439.5 231.9 431.7 227.1C428.4 225 425.6 222.4 423.2 219.4C428.6 218.9 432 218.5 432.5 218.5C436.5 218.1 440.5 217.7 444.5 217.4C449.9 216.9 455.4 216.4 460.9 215.8L462.1 215.7C467.2 215.1 472.9 214.4 480.6 214.2C483.3 214.1 485.9 214.1 488.6 214.2C486.2 218.4 482.1 224.2 475.2 228.1ZM511.9 206C509.5 209.3 505.5 210.5 501.9 211.5C499.5 212.2 496.9 212.7 494.4 212.8C489.8 212.6 485 212.5 480.4 212.6C472.6 212.8 466.8 213.5 461.7 214.1L460.5 214.2C459 214.4 457.5 214.5 456.1 214.7C470.3 212.5 483.7 209.9 496.2 206.9C502 205.5 507.8 204.1 513.5 202.5C513.2 203.8 512.7 205 511.9 206Z" fill="#EB2227" stroke="white" stroke-width="0.5" stroke-miterlimit="10"/>
</svg>
