<svg width="517" height="256" viewBox="0 0 517 256" fill="none" xmlns="http://www.w3.org/2000/svg">
<path d="M513.337 140.823C513.237 140.523 512.337 138.723 509.937 133.823L509.637 133.123C506.637 126.923 504.937 123.523 504.937 118.723C504.937 118.523 504.937 118.023 504.937 117.223C505.137 112.323 505.337 109.623 505.637 107.423C505.837 105.923 505.937 104.723 505.937 103.223C506.037 99.923 506.337 89.823 500.337 85.923C499.337 85.223 498.137 84.823 496.937 84.523C496.837 83.623 496.737 82.723 496.637 81.823C496.537 81.423 496.537 80.923 496.437 80.523C496.137 78.123 495.237 75.923 493.837 73.923C493.737 73.823 493.637 73.723 493.637 73.623C490.637 69.623 483.937 68.223 475.437 66.423C473.637 66.023 471.737 65.623 469.837 65.223C456.937 62.223 451.237 59.523 449.437 58.623C446.837 57.323 444.337 55.923 441.937 54.423H441.837C419.237 39.823 407.837 32.523 393.137 26.223C377.537 19.623 361.237 15.123 344.437 12.823C343.137 12.623 341.737 12.523 339.637 12.223C338.237 12.023 336.937 11.823 335.537 11.723V11.823C321.437 10.323 307.737 9.32302 293.637 8.52302C239.737 5.62302 186.737 6.92302 155.237 11.923C136.837 14.723 119.337 21.723 104.037 32.323C103.637 32.623 103.337 32.823 102.937 33.123C92.8374 40.723 82.0375 50.723 70.1375 63.523C69.5375 63.123 68.9374 62.723 68.3374 62.523C67.4374 62.123 65.7374 61.623 61.7374 61.623C59.7374 61.623 57.8374 61.823 55.8374 62.123C52.3374 62.823 50.2374 63.323 48.8374 64.823C47.5374 66.223 46.9375 68.323 47.1375 70.823C47.3375 73.623 48.4374 76.323 50.2374 78.423C49.8374 78.623 49.3374 78.723 48.8374 78.923H48.7374C44.3374 80.123 40.4375 82.623 37.6375 86.123C34.4375 86.723 31.2375 87.623 28.1375 88.623C21.6375 90.723 18.0374 91.823 15.5374 94.923C13.6374 97.223 12.6375 99.923 11.3375 103.323C10.6375 105.123 10.1375 106.923 9.63745 108.823C8.23745 111.023 7.03741 113.423 6.03741 115.723C5.13741 117.723 4.43746 119.723 3.83746 121.823L3.73743 122.023C1.43743 130.023 1.23741 137.723 1.03741 147.723C1.03741 147.823 0.837415 158.723 3.03741 167.823C3.63741 170.423 4.63744 172.823 5.93744 175.123C6.13744 175.523 6.43745 175.823 6.63745 176.223C6.73745 176.423 6.93743 176.523 7.23743 176.623C7.43743 176.723 7.73744 176.623 7.93744 176.523C8.53744 179.623 9.23746 182.623 10.3375 185.623C12.3375 191.523 17.1374 201.723 25.9374 204.123C27.6374 204.523 29.3375 204.723 31.1375 204.623C32.5375 204.623 34.2374 204.523 36.3374 204.523C42.8374 204.323 46.0375 204.223 49.1375 202.623C54.8375 199.823 57.5374 193.923 58.7374 189.223C73.1374 190.923 108.237 199.623 165.637 215.623L165.737 215.723L165.837 215.623L169.237 216.523C169.837 218.723 170.537 220.823 171.337 222.823C173.737 228.923 180.637 243.623 193.937 247.123C195.637 247.523 197.937 247.723 201.637 247.723C203.937 247.723 206.837 247.623 210.337 247.623C223.637 247.423 226.437 245.923 227.737 245.223C233.837 242.023 237.437 236.623 238.737 234.423C239.737 232.523 240.637 230.623 241.437 228.623C242.737 225.423 243.837 222.123 244.737 218.723C251.437 218.423 258.237 218.423 264.837 218.323C272.137 218.223 279.637 218.223 287.037 217.823C293.837 217.523 300.737 217.623 307.537 218.223C314.137 218.723 320.937 219.223 334.437 218.223C340.237 217.823 343.737 217.423 349.037 216.723C350.437 216.523 351.937 216.323 353.737 216.223C365.837 214.823 377.137 213.523 387.637 212.423C389.437 216.723 392.737 222.623 398.937 226.723C404.937 230.723 411.237 231.423 417.737 231.423C419.537 231.423 421.337 231.323 423.137 231.323C431.437 231.123 438.637 230.823 445.937 225.823C453.037 221.023 456.637 214.123 458.337 209.123C459.137 209.223 459.937 209.323 460.737 209.423C466.737 210.023 472.837 210.023 478.937 209.423C488.037 208.523 495.237 206.323 499.737 203.123C503.437 200.423 506.537 197.023 508.737 193.023C511.337 188.823 511.537 186.423 512.737 175.223C513.137 171.223 513.637 166.223 514.437 159.623L514.537 159.023C515.037 152.423 515.637 147.023 513.337 140.823ZM508.437 133.623L508.737 134.323C510.737 138.423 511.937 140.923 512.037 141.223C512.137 141.523 512.237 141.723 512.337 142.023C436.337 149.623 359.837 151.723 283.537 148.123C262.137 147.123 240.537 145.623 219.137 143.723C229.437 143.823 238.437 143.923 244.837 144.123L247.137 144.223C251.237 144.323 254.737 144.423 257.837 144.423C267.937 144.423 273.237 143.523 277.837 139.523C282.937 134.923 285.637 127.323 285.537 117.523C297.237 121.923 309.937 124.723 323.537 125.923C326.337 132.723 330.337 138.623 336.637 142.223C339.737 144.023 343.237 145.123 346.737 145.623C350.837 145.823 359.337 145.923 370.237 145.923C405.837 145.923 467.037 144.823 485.237 142.523C489.737 141.923 491.437 139.023 491.637 138.623C492.637 137.023 492.737 135.323 492.437 130.423C492.237 127.423 491.937 124.423 491.437 121.423C491.437 121.323 491.437 121.323 491.437 121.223C495.537 120.823 499.537 120.223 503.637 119.623C503.837 124.123 505.437 127.623 508.437 133.623ZM159.737 199.923C159.837 201.723 160.137 203.623 160.437 205.423C159.237 201.923 158.937 198.323 158.837 195.323C157.937 165.823 157.037 135.323 174.837 126.123C177.437 124.623 180.337 123.823 183.337 123.823H183.437C194.037 123.823 202.537 134.423 207.437 142.423H204.637C202.637 139.423 200.337 136.723 197.737 134.223C191.037 127.923 185.737 127.223 183.237 127.423C174.437 127.923 168.337 137.123 165.437 142.423C164.137 144.823 162.837 147.823 161.137 158.123C161.037 158.223 157.837 176.823 159.737 199.923ZM39.5374 173.323L151.937 192.423L152.137 192.023C152.737 190.923 153.337 189.923 153.737 188.723C154.437 187.023 155.037 185.223 155.337 183.423C155.837 181.123 156.437 176.323 157.137 171.023C157.037 178.823 157.237 187.123 157.437 195.223C157.637 200.523 158.437 207.423 163.237 213.223C163.337 213.423 163.537 213.523 163.637 213.723C102.637 196.623 67.2374 188.123 55.4374 187.523H55.0374C52.3374 187.423 44.2374 187.123 40.9374 181.923C39.3374 179.523 39.4374 176.923 39.4374 174.123V173.423C39.5374 173.623 39.5374 173.523 39.5374 173.323ZM51.8374 92.723C52.1374 91.523 52.5375 90.323 53.1375 89.223C71.9375 87.123 92.0374 85.323 112.537 83.823C112.137 84.723 111.737 85.523 111.537 86.523C105.337 108.623 104.937 115.123 104.937 115.423C104.937 125.023 105.937 131.123 107.237 138.723C108.337 145.023 109.637 152.923 110.837 165.023C111.437 171.423 111.837 177.923 111.937 184.323L53.5374 174.423C52.2374 168.123 50.9374 161.723 49.8374 155.323C47.3374 140.723 46.6374 133.323 46.5374 129.723C46.2374 120.423 46.5375 114.023 47.6375 108.923L47.8374 108.223C48.4374 105.423 48.4375 105.423 49.1375 102.823C49.6375 101.123 50.3374 98.323 51.8374 92.923V92.723ZM61.0374 83.923C81.6374 82.223 100.237 80.723 116.237 79.523C115.137 80.423 114.237 81.423 113.437 82.523L113.337 82.623C92.9374 84.023 73.0374 85.823 54.2374 87.923C54.5374 87.623 54.8375 87.423 55.1375 87.223C55.3375 87.123 55.5374 87.023 55.8374 86.823C56.1374 86.623 56.6374 86.423 57.3374 86.023C58.6374 85.323 59.8374 84.623 61.0374 83.923ZM62.8374 81.623C66.6374 81.523 69.2374 81.423 70.9374 79.923L70.4374 81.223L71.4374 81.123C88.9374 79.723 104.837 78.323 118.737 77.223L118.137 78.023C102.037 79.323 83.1375 80.823 62.1375 82.523C62.3375 82.223 62.5374 81.923 62.8374 81.623ZM72.1375 69.823V69.523C75.8375 65.123 79.7374 60.723 83.7374 56.623C96.8374 43.023 104.037 35.623 116.437 28.923C116.737 28.823 143.237 14.823 174.237 19.523C176.837 19.823 179.337 20.623 181.637 21.723C188.437 25.023 192.037 30.923 196.037 37.823C198.837 42.523 201.237 47.523 203.137 52.623C200.737 56.223 198.037 59.623 195.037 62.923C191.537 66.723 189.237 69.323 185.537 71.123C182.237 72.723 178.637 73.623 175.037 73.723H174.537C168.037 74.123 148.337 75.523 119.637 77.823L120.237 77.023L136.937 75.623C154.437 74.123 167.037 73.023 174.137 72.523C176.337 72.323 183.037 71.923 189.137 67.223C190.137 66.523 198.537 59.723 197.937 50.623C197.837 48.823 197.237 47.223 196.137 44.223C194.537 39.723 192.237 35.523 189.237 31.723C186.837 28.723 183.837 24.923 178.537 22.423C176.737 21.523 174.737 20.923 172.737 20.523C169.037 19.723 165.237 19.323 161.337 19.423C156.337 19.423 151.437 19.923 146.537 20.823L145.037 21.123C138.337 22.223 128.337 24.023 119.037 28.623C105.237 35.523 94.6374 46.123 82.0374 60.823C79.3374 63.923 76.7374 67.223 74.3374 70.523L74.2374 70.623L71.9374 76.923C72.1374 75.423 72.1375 73.223 72.1375 69.823ZM203.737 54.123C204.037 55.123 204.337 56.223 204.437 57.323C205.237 64.223 201.737 69.523 200.637 71.323C199.337 73.223 197.837 75.023 196.137 76.523L196.037 76.623C195.237 77.423 194.437 78.123 193.637 78.923C181.237 79.123 170.337 79.423 153.837 80.123C140.837 80.723 127.837 81.423 115.037 82.323C116.037 81.023 117.337 80.023 118.737 79.123C148.037 76.823 168.137 75.323 174.737 74.923H175.137C178.937 74.823 182.737 73.923 186.237 72.223C190.037 70.223 192.437 67.623 196.037 63.723C198.937 60.723 201.437 57.523 203.737 54.123ZM466.537 91.123C451.337 91.523 435.937 92.023 420.937 92.423C401.837 93.023 382.537 93.623 363.437 94.223C363.137 92.523 362.837 90.823 362.537 89.123L467.237 87.323C467.037 88.623 466.737 89.923 466.537 91.123ZM466.337 92.423C465.337 97.523 464.137 102.623 462.837 107.623C460.037 118.423 458.337 122.123 454.837 124.623C451.837 126.823 448.637 127.223 446.537 127.423C428.037 129.723 417.337 129.623 404.937 129.523C400.237 129.523 395.337 129.423 389.637 129.523H389.137C384.437 129.623 381.037 129.623 377.437 127.423C373.937 125.323 370.537 119.123 367.237 109.023C365.837 104.523 364.637 100.023 363.637 95.323C382.637 94.723 401.937 94.123 420.937 93.523C435.937 93.323 451.137 92.923 466.337 92.423ZM361.237 89.223C362.237 96.123 363.837 103.023 365.937 109.623C371.037 125.223 375.237 127.823 376.637 128.723C379.837 130.723 383.037 131.023 386.737 131.023C387.537 131.023 388.337 131.023 389.137 131.023H389.637C395.337 130.923 400.237 130.923 404.937 131.023C417.337 131.123 428.137 131.223 446.737 128.923C448.837 128.623 452.237 128.223 455.637 125.823C459.837 122.823 461.637 118.123 464.137 108.023C465.837 101.223 467.337 94.323 468.637 87.323L480.337 87.123C478.537 98.923 475.037 110.323 469.937 121.123L469.537 122.023H470.537H472.137C478.137 122.023 484.137 121.723 490.137 121.123C489.037 125.323 487.837 129.523 486.737 133.723C486.337 135.023 485.637 136.223 484.537 137.123C483.437 138.023 482.137 138.523 480.737 138.623C459.237 140.123 437.437 141.323 415.937 142.223C393.037 143.223 369.837 143.823 346.937 144.123C343.537 143.723 340.337 142.623 337.337 140.923C331.537 137.623 327.737 132.223 325.037 125.923C329.137 126.223 333.337 126.323 337.637 126.423C344.037 126.423 350.537 126.123 356.937 125.423L357.937 125.323L357.437 124.423C351.237 113.623 347.137 101.823 345.037 89.523L361.237 89.223ZM495.037 96.923C494.837 102.723 493.737 107.123 492.437 112.323C489.337 112.623 486.237 112.723 483.137 112.723L487.837 94.723C490.237 94.623 492.637 94.323 495.037 94.023C495.037 94.923 495.037 95.923 495.037 96.923ZM495.037 92.623C492.437 92.923 489.837 93.223 487.237 93.323H486.737L481.437 113.823H482.237C483.037 113.823 483.737 113.823 484.537 113.823C487.037 113.823 489.537 113.723 492.037 113.523C492.037 113.623 492.037 113.723 491.937 113.823L491.737 114.523C491.237 116.223 490.837 118.023 490.337 119.723C484.037 120.323 477.737 120.623 471.437 120.623C476.337 109.923 479.737 98.623 481.537 87.023L494.537 86.823C494.837 88.823 494.937 90.723 495.037 92.623ZM503.637 117.123C503.637 117.523 503.637 117.823 503.637 118.023C499.737 118.723 495.737 119.223 491.837 119.623C492.237 118.023 492.637 116.423 493.037 114.923L493.237 114.223C493.337 114.023 493.337 113.723 493.437 113.523L494.337 113.423C497.537 113.023 500.737 112.423 503.937 111.723C503.837 113.123 503.737 114.923 503.637 117.123ZM491.037 130.323C491.337 135.323 491.137 136.623 490.437 137.823V137.923C490.337 138.023 489.037 140.623 485.037 141.123C470.937 142.923 430.737 144.023 396.937 144.423C403.337 144.223 409.637 143.923 415.937 143.723C437.437 142.823 459.237 141.623 480.737 140.123C482.437 140.023 483.937 139.423 485.237 138.323C486.537 137.223 487.437 135.823 487.937 134.223C488.837 131.123 489.637 127.923 490.537 124.723C490.737 126.423 490.937 128.323 491.037 130.323ZM346.237 101.523C348.537 109.423 351.637 117.023 355.637 124.123C349.437 124.723 343.337 125.023 337.437 125.023C332.937 125.023 328.637 124.823 324.337 124.523C323.237 121.623 322.237 118.623 321.537 115.623C326.837 116.123 332.137 116.423 337.537 116.423C338.837 116.423 340.237 116.423 341.537 116.423H342.437L342.037 115.523C340.437 111.723 339.137 107.823 338.037 103.823C337.537 102.023 337.037 100.223 336.637 98.423L336.537 97.923H336.037C329.937 97.823 323.737 97.723 317.537 97.623C316.837 94.623 316.137 91.723 315.337 89.023C324.837 89.223 334.237 89.323 343.537 89.423C344.237 93.623 345.137 97.623 346.237 101.523ZM317.437 103.623C318.137 107.123 318.937 110.723 319.837 114.223C304.037 112.423 289.637 108.023 276.837 101.323C276.537 101.123 273.837 99.723 270.437 97.723C273.637 97.823 277.237 97.923 281.337 98.123L290.337 98.423C299.037 98.723 307.837 98.923 316.537 99.123C316.837 100.523 317.137 102.023 317.437 103.623ZM318.737 103.323C318.437 101.923 318.137 100.423 317.837 99.023C323.737 99.123 329.637 99.223 335.537 99.323C335.937 101.023 336.337 102.623 336.837 104.223C337.837 107.923 339.137 111.523 340.537 115.123C339.537 115.123 338.537 115.123 337.537 115.123V115.723V115.123C332.137 115.123 326.637 114.823 321.237 114.323C320.337 110.723 319.537 107.023 318.737 103.323ZM316.237 97.723C307.637 97.523 298.937 97.323 290.337 97.023L281.437 96.723C276.337 96.523 271.937 96.423 268.137 96.323L265.837 96.223L267.837 97.423C272.037 100.023 275.637 102.023 276.337 102.423C289.437 109.323 304.137 113.723 320.337 115.623C321.137 118.623 322.037 121.623 323.137 124.523C304.437 122.923 287.337 118.023 272.337 110.023C262.137 104.623 247.437 94.923 248.837 90.423C249.437 88.423 253.437 87.623 262.537 87.623C267.537 87.623 273.837 87.823 281.737 88.123C284.537 88.223 287.537 88.323 290.637 88.423C298.437 88.723 306.237 88.923 314.037 89.023C314.837 91.723 315.537 94.623 316.237 97.723ZM262.437 86.323C252.237 86.323 248.337 87.323 247.437 90.023C245.237 96.723 267.137 108.823 271.537 111.123C275.637 113.323 279.837 115.223 284.137 116.923C284.337 126.623 281.737 134.023 276.837 138.423C271.237 143.423 264.137 143.223 247.037 142.823L244.737 142.723C236.137 142.523 223.237 142.423 208.737 142.323C203.837 134.023 194.837 122.423 183.237 122.423H183.137C179.937 122.523 176.837 123.323 174.037 124.923C169.637 127.223 166.337 130.723 163.837 135.223C164.337 133.723 164.937 132.223 165.537 130.523C169.137 120.923 173.637 111.623 178.837 102.823C184.737 92.923 188.837 85.823 194.037 80.323L198.337 80.223C230.937 79.623 249.137 80.223 271.237 85.323C273.237 85.823 275.237 86.223 277.137 86.823C271.437 86.423 266.537 86.323 262.437 86.323ZM177.937 102.123C172.637 111.023 168.137 120.323 164.537 130.023C161.437 138.423 159.837 143.023 158.637 150.123C158.037 153.623 157.337 159.323 156.637 165.323C155.737 172.623 154.837 180.223 154.137 183.323C153.737 185.023 153.237 186.723 152.537 188.423C152.137 189.323 151.737 190.223 151.237 191.123L113.237 184.623C113.037 178.123 112.737 171.523 112.037 165.023C110.937 152.823 109.537 144.923 108.437 138.623C107.137 130.723 106.137 125.023 106.137 115.523C106.137 115.423 106.637 108.823 112.737 86.923C113.037 85.823 113.437 84.823 114.037 83.823C127.237 82.923 140.537 82.123 153.837 81.523C169.837 80.823 180.537 80.523 192.437 80.323C187.637 85.723 183.537 92.623 177.937 102.123ZM72.3374 79.723L75.5374 71.123C77.9374 67.923 80.4375 64.723 83.1375 61.623C95.6375 47.023 106.137 36.623 119.737 29.723C127.837 25.623 136.637 23.823 143.137 22.723C131.437 38.923 122.637 56.923 116.937 76.023C103.637 77.123 88.7374 78.423 72.3374 79.723ZM130.037 46.523C134.337 38.123 139.337 30.023 144.937 22.423L145.337 22.323L146.837 22.023C147.937 21.823 149.137 21.623 150.237 21.523C146.937 27.123 143.437 33.923 139.837 41.623C134.837 52.423 130.737 63.623 127.437 75.123L118.337 75.923C121.337 65.823 125.237 55.923 130.037 46.523ZM188.837 33.423C191.437 36.823 193.437 40.623 194.837 44.723C195.937 47.623 196.437 49.123 196.537 50.723C197.137 59.123 189.137 65.523 188.237 66.223C183.137 70.123 177.537 70.923 174.837 71.223C176.537 64.823 178.537 58.523 180.737 52.323C183.237 45.923 185.937 39.523 188.837 33.423ZM179.637 51.823C177.337 58.223 175.237 64.723 173.537 71.223L172.537 71.323C174.637 63.223 177.337 55.323 180.437 47.623C182.637 42.323 184.937 36.923 187.537 31.823L187.837 32.223C184.837 38.623 182.037 45.223 179.637 51.823ZM179.237 47.123C176.037 55.023 173.337 63.223 171.237 71.423C163.837 72.023 152.237 73.023 136.837 74.323L128.837 75.023C132.037 63.823 136.037 52.823 141.037 42.223C144.337 35.123 147.937 28.123 151.937 21.323C155.137 20.923 158.337 20.723 161.537 20.723C165.237 20.723 168.937 21.023 172.637 21.823C174.537 22.223 176.337 22.823 178.137 23.623C182.137 25.523 184.837 28.223 186.837 30.723C184.037 36.123 181.537 41.623 179.237 47.123ZM208.337 144.023C209.637 146.223 210.837 148.523 211.837 150.923C212.937 153.523 213.837 156.123 214.637 158.923C216.737 166.023 217.737 172.423 218.537 179.223C216.137 167.623 212.137 154.323 205.437 143.823L208.337 144.023ZM504.637 103.123C504.637 104.523 504.437 105.723 504.337 107.223C504.237 108.223 504.137 109.423 504.037 110.823L503.937 110.323C500.737 111.123 497.537 111.723 494.237 112.123H493.837C495.137 107.023 496.137 102.623 496.337 96.923C496.337 95.923 496.437 94.823 496.337 93.823C498.737 93.523 501.137 93.123 503.537 92.623C504.837 96.523 504.737 101.123 504.637 103.123ZM499.537 86.923C501.137 88.023 502.337 89.523 503.037 91.323C500.837 91.823 498.537 92.223 496.337 92.523C496.237 90.523 496.137 88.423 495.837 86.423L496.537 85.723C497.637 85.923 498.637 86.323 499.537 86.923ZM492.537 74.223L492.737 74.523C493.937 76.323 494.837 78.423 495.137 80.523C495.237 80.923 495.237 81.423 495.337 81.823C495.437 82.823 495.537 83.723 495.637 84.723L494.937 85.423L344.137 88.123C334.537 88.023 324.737 87.923 314.937 87.723C312.837 81.423 310.037 76.423 305.437 73.823C342.237 68.423 379.437 65.923 416.637 66.223C439.237 66.423 462.037 67.623 484.537 69.923V69.723C488.137 70.923 490.937 72.223 492.537 74.223ZM441.137 55.323C443.637 56.923 446.137 58.423 448.737 59.723C450.637 60.623 456.237 63.423 469.437 66.423C471.337 66.823 473.237 67.223 475.137 67.623L476.837 68.023C456.837 66.223 436.637 65.223 416.637 65.023C378.737 64.723 340.937 67.323 303.437 72.923V73.023C301.737 72.423 297.937 72.023 290.237 71.223C287.237 70.923 284.537 70.723 282.237 70.523C274.737 69.923 270.937 69.623 268.337 66.623C267.237 65.323 265.337 62.223 266.437 60.223C267.137 58.923 268.837 58.523 269.937 58.323C275.837 60.823 282.237 62.123 288.737 62.023C291.337 62.023 293.837 61.823 296.437 61.523L296.937 61.423C305.837 60.423 320.837 60.023 342.737 60.023C366.537 60.023 398.437 60.623 440.237 61.723L442.137 61.823L440.637 60.623C421.237 45.123 399.937 32.323 377.037 22.523H376.937C373.037 20.823 369.037 19.323 364.937 18.023C374.437 20.423 383.637 23.523 392.637 27.323C407.337 33.423 418.637 40.723 441.137 55.323ZM376.637 23.723C398.737 33.223 419.437 45.523 438.337 60.423C397.437 59.323 366.137 58.823 342.737 58.823C320.737 58.823 305.637 59.323 296.737 60.223L296.237 60.323C293.737 60.623 291.237 60.823 288.737 60.823C282.437 60.923 276.137 59.623 270.337 57.123C265.237 54.923 261.837 52.123 250.937 42.523C243.437 35.823 235.837 28.923 228.337 21.923C249.637 20.123 271.237 19.223 292.537 19.223C294.537 19.223 296.537 19.223 298.537 19.223C324.737 19.323 350.737 20.923 376.637 23.723ZM293.537 9.62302C307.937 10.423 321.937 11.523 336.337 13.023L339.537 13.323C346.137 14.223 352.637 15.623 359.037 17.423C363.537 18.723 368.037 20.223 372.337 21.923C347.937 19.423 323.137 18.023 298.637 17.823C296.637 17.823 294.637 17.823 292.637 17.823C270.837 17.823 248.737 18.723 227.037 20.623C217.837 14.323 207.337 10.323 196.237 9.12302C224.637 7.62302 258.937 7.72302 293.537 9.62302ZM103.737 34.023C104.137 33.723 104.437 33.523 104.837 33.223C119.937 22.623 137.237 15.723 155.537 13.023C163.837 11.723 173.737 10.623 184.737 9.82302V10.123C199.637 9.12302 214.337 13.223 226.537 21.723C234.337 29.023 242.237 36.223 250.137 43.323C259.837 52.023 263.637 55.123 268.137 57.323C267.037 57.723 266.037 58.423 265.437 59.423C263.637 62.623 267.037 66.823 267.437 67.323C270.337 70.823 274.537 71.123 282.237 71.723C284.537 71.923 287.137 72.123 290.237 72.423C297.737 73.223 301.537 73.623 303.137 74.123C308.437 76.123 311.537 81.223 313.737 87.723C306.137 87.523 298.437 87.323 290.837 87.123C287.637 87.023 284.737 86.923 281.937 86.823H281.237L281.337 86.323C278.237 85.423 275.137 84.623 271.937 83.923C249.737 78.723 231.437 78.223 198.737 78.823L195.737 78.923C196.237 78.423 196.637 78.023 197.137 77.623L197.237 77.523C199.037 75.923 200.637 74.123 201.937 72.123C205.237 67.123 206.537 62.123 205.937 57.223C205.737 55.723 205.437 54.223 204.837 52.823L204.737 52.523C202.837 47.223 200.337 42.023 197.437 37.123C193.237 30.123 189.637 24.023 182.437 20.623C179.937 19.423 177.337 18.723 174.637 18.323C143.137 13.523 116.237 27.723 116.037 27.823C103.437 34.623 96.1374 42.123 82.9374 55.723C79.2374 59.523 75.6374 63.523 72.2374 67.623C72.2374 66.423 71.8375 65.223 71.1375 64.223C88.7375 45.323 99.9374 36.823 103.737 34.023ZM49.7374 65.623C50.8374 64.323 52.7374 64.023 56.0374 63.323C57.9374 62.923 59.8374 62.823 61.7374 62.823H62.5374C66.0374 62.823 67.3374 63.423 67.7374 63.623C68.5374 63.923 69.2374 64.323 69.7374 64.923C70.7374 66.123 70.8374 67.523 70.7374 70.023C70.7374 74.523 70.6374 78.123 70.2374 78.723C68.9374 80.323 66.5374 80.423 62.7374 80.523C61.6374 80.523 60.6374 80.623 59.7374 80.623C56.3374 80.623 53.9374 80.323 51.9374 78.623C49.9374 76.923 48.5374 73.923 48.3374 70.923C48.2374 68.523 48.7374 66.723 49.7374 65.623ZM28.5374 89.823C31.6374 88.823 34.8375 88.023 38.1375 87.323C38.2375 87.323 38.4374 87.223 38.5374 87.123C41.2374 83.723 44.9375 81.323 49.1375 80.123H49.2374C49.9374 79.923 50.6374 79.623 51.2374 79.423C53.5374 81.323 56.1374 81.723 59.7374 81.723H61.1375C60.8375 82.123 60.6374 82.423 60.3374 82.823C59.1374 83.523 57.9374 84.223 56.7374 84.923C56.0374 85.323 55.5374 85.523 55.2374 85.723C54.9374 85.923 54.6374 86.023 54.4374 86.123C53.6374 86.623 52.9374 87.323 52.4374 88.123C50.3374 88.323 48.1374 88.623 46.0374 88.823C38.4374 89.723 30.8374 90.723 23.2374 91.723C24.7374 91.123 26.4374 90.523 28.5374 89.823ZM10.8375 109.323C10.8375 109.223 10.9374 109.223 10.9374 109.123C11.3374 107.323 11.9375 105.423 12.6375 103.623C13.8375 100.323 14.8375 97.723 16.6375 95.623C17.3375 94.723 18.2374 94.023 19.2374 93.423C28.1374 92.223 37.2374 91.023 46.2374 89.923L51.7374 89.323C51.3374 90.323 50.9374 91.323 50.7374 92.323V92.523C49.3374 97.823 48.5374 100.723 48.0374 102.423C47.2374 105.123 47.2374 105.123 46.7374 107.923L46.5374 108.623C45.4374 113.923 45.1374 120.423 45.4374 129.723C45.5374 133.423 46.2374 140.823 48.8374 155.523C49.9374 161.723 51.1374 168.023 52.4374 174.123L39.7374 171.923C39.4374 166.823 38.9374 161.723 38.3374 156.623C36.4374 141.623 32.6374 110.323 20.2374 107.223C19.0374 106.923 17.8375 106.823 16.6375 107.023C14.2375 107.323 12.1374 108.623 10.4374 110.323C10.3374 110.023 10.5375 109.723 10.8375 109.323ZM4.13745 167.523C1.93745 158.623 2.13745 147.823 2.13745 147.723C2.33745 137.723 2.53744 130.023 4.93744 122.123C6.03744 118.723 9.73744 109.323 16.4374 108.423C17.4374 108.323 18.5374 108.323 19.5374 108.623C25.0374 110.023 28.8374 117.823 31.4374 127.223C29.0374 119.423 25.5374 113.023 19.9374 111.623C17.9374 111.123 15.8374 111.223 13.9374 111.923C2.83744 115.923 2.83746 139.023 2.83746 154.223C2.73746 160.123 3.63746 165.923 5.33746 171.523C4.93746 170.223 4.53745 168.823 4.13745 167.523ZM6.83746 171.623C5.03746 166.023 4.13743 160.123 4.23743 154.123C4.23743 140.123 4.23741 116.723 14.5374 113.023C16.2374 112.423 18.0374 112.323 19.7374 112.823C22.0374 113.423 24.0375 115.023 25.6375 117.323C24.2375 117.423 22.9375 117.623 21.6375 118.023C7.23745 123.223 6.43746 152.723 6.33746 156.123C6.23746 161.723 6.53743 167.223 7.23743 172.823C7.13743 172.323 6.93746 171.923 6.83746 171.623ZM48.4374 201.523C45.5374 202.923 42.4375 203.023 36.1375 203.223C30.9375 203.423 28.4375 203.523 26.1375 202.923C17.9375 200.723 13.3374 190.923 11.4374 185.223C8.73744 177.423 7.43745 167.623 7.63745 156.023C7.63745 154.723 8.23741 124.123 22.0374 119.123C23.1374 118.723 25.2374 118.523 26.4374 118.423C31.3374 126.223 33.3374 140.123 34.8374 150.323C37.0374 165.023 38.1374 173.123 38.2374 173.623V174.323C38.2374 177.123 38.1374 180.023 39.9374 182.823C43.6374 188.523 52.2374 188.823 55.0374 189.023H55.4374C56.0374 189.023 56.6374 189.123 57.3374 189.123C56.1374 193.523 53.6374 199.023 48.4374 201.523ZM165.637 212.823C162.037 209.223 161.337 204.423 161.037 199.823C159.237 176.923 162.337 158.423 162.337 158.223C164.037 148.123 165.337 145.123 166.537 142.923C169.237 137.823 175.037 129.123 183.237 128.623C184.837 128.523 188.837 128.823 194.237 132.923C193.737 132.923 193.337 132.923 192.837 132.923C191.137 133.123 189.337 133.423 187.737 133.923C166.937 140.723 165.637 179.523 165.537 183.923C165.337 195.723 166.437 206.123 168.737 215.023C167.537 214.423 166.537 213.623 165.637 212.823ZM240.037 228.223C239.237 230.123 238.437 232.023 237.437 233.823C236.237 235.923 232.737 241.123 226.937 244.123C225.937 244.623 223.137 246.123 210.137 246.323C201.137 246.523 196.637 246.623 194.137 245.923C181.437 242.623 174.737 228.423 172.437 222.423C168.437 212.123 166.637 199.123 166.837 183.823C167.037 175.923 168.137 168.123 169.937 160.523C173.537 146.323 179.637 137.723 188.037 135.023C189.637 134.523 191.237 134.223 192.837 134.023C193.837 133.923 194.837 134.023 195.837 134.123C196.137 134.423 196.437 134.623 196.737 134.923C216.737 153.723 220.137 196.023 220.637 204.323V204.523C220.737 206.823 221.037 209.123 221.637 211.323C221.637 211.623 221.737 212.023 221.737 212.323H221.937C222.737 214.823 224.137 217.223 226.537 218.523C227.837 219.223 229.237 219.523 230.637 219.523C231.137 219.523 231.537 219.523 231.737 219.423C235.537 219.123 239.237 218.823 243.037 218.723C242.237 222.123 241.237 225.223 240.037 228.223ZM444.937 225.023C437.937 229.823 430.937 230.023 422.837 230.223C414.537 230.423 406.737 230.723 399.437 225.823C393.637 222.023 390.437 216.623 388.737 212.423C417.337 209.323 439.737 207.723 456.837 209.223C455.037 214.123 451.637 220.423 444.937 225.023ZM512.937 159.123L512.837 159.623C512.037 166.223 511.537 171.223 511.137 175.323C511.037 176.723 510.837 178.023 510.737 179.123C479.037 181.823 446.837 184.023 415.137 185.823C378.937 187.823 342.237 189.323 306.037 190.223V191.523C342.237 190.623 379.037 189.123 415.237 187.123C446.937 185.323 478.937 183.123 510.637 180.423C509.837 187.123 509.337 189.223 507.337 192.523C505.237 196.323 502.237 199.623 498.737 202.223C494.437 205.323 487.437 207.323 478.537 208.223C472.537 208.823 466.537 208.823 460.637 208.223C436.937 205.323 401.837 209.423 353.337 215.023L348.637 215.523C343.337 216.123 339.737 216.623 334.037 217.023C320.637 217.923 313.937 217.423 307.337 217.023C300.437 216.423 293.537 216.323 286.637 216.623C279.237 216.923 271.737 217.023 264.537 217.023C253.737 217.123 242.637 217.223 231.637 218.223C230.037 218.423 228.537 218.123 227.137 217.423C224.837 216.223 223.637 213.723 222.937 211.123C222.437 206.423 222.037 201.523 221.537 196.723C221.137 192.223 220.937 190.423 220.837 189.223C220.737 188.123 220.737 187.623 220.537 186.123C219.537 176.423 218.737 168.023 215.837 158.423C215.037 155.623 214.137 153.023 213.037 150.323C212.937 150.023 211.837 147.523 209.937 144.123C234.337 146.423 259.037 148.223 283.437 149.423C307.737 150.623 332.037 151.123 356.537 151.123C408.737 151.123 460.837 148.523 512.737 143.223C514.237 148.423 513.637 153.023 512.937 159.123Z" fill="#EB2227" stroke="white" stroke-width="0.5" stroke-miterlimit="10"/>
</svg>
