<svg width="517" height="256" viewBox="0 0 517 256" fill="none" xmlns="http://www.w3.org/2000/svg">
<path d="M3.66256 140.823C3.76256 140.523 4.66256 138.723 7.06256 133.823L7.36256 133.123C10.3626 126.923 12.0626 123.523 12.0626 118.723C12.0626 118.523 12.0626 118.023 12.0626 117.223C11.8626 112.323 11.6626 109.623 11.3626 107.423C11.1626 105.923 11.0626 104.723 11.0626 103.223C10.9626 99.923 10.6626 89.823 16.6626 85.923C17.6626 85.223 18.8626 84.823 20.0626 84.523C20.1626 83.623 20.2626 82.723 20.3626 81.823C20.4626 81.423 20.4626 80.923 20.5626 80.523C20.8626 78.123 21.7626 75.923 23.1626 73.923C23.2626 73.823 23.3626 73.723 23.3626 73.623C26.3626 69.623 33.0626 68.223 41.5626 66.423C43.3626 66.023 45.2626 65.623 47.1626 65.223C60.0626 62.223 65.7626 59.523 67.5626 58.623C70.1626 57.323 72.6626 55.923 75.0626 54.423H75.1626C97.7626 39.823 109.163 32.523 123.863 26.223C139.463 19.623 155.763 15.123 172.563 12.823C173.863 12.623 175.263 12.523 177.363 12.223C178.763 12.023 180.063 11.823 181.463 11.723V11.823C195.563 10.323 209.263 9.32302 223.363 8.52302C277.263 5.62302 330.263 6.92302 361.763 11.923C380.163 14.723 397.663 21.723 412.963 32.323C413.363 32.623 413.663 32.823 414.063 33.123C424.163 40.723 434.963 50.723 446.863 63.523C447.463 63.123 448.063 62.723 448.663 62.523C449.563 62.123 451.263 61.623 455.263 61.623C457.263 61.623 459.163 61.823 461.163 62.123C464.663 62.823 466.763 63.323 468.163 64.823C469.463 66.223 470.063 68.323 469.863 70.823C469.663 73.623 468.563 76.323 466.763 78.423C467.163 78.623 467.663 78.723 468.163 78.923H468.263C472.663 80.123 476.563 82.623 479.363 86.123C482.563 86.723 485.763 87.623 488.863 88.623C495.363 90.723 498.963 91.823 501.463 94.923C503.363 97.223 504.363 99.923 505.663 103.323C506.363 105.123 506.863 106.923 507.363 108.823C508.763 111.023 509.963 113.423 510.963 115.723C511.863 117.723 512.563 119.723 513.163 121.823L513.263 122.023C515.563 130.023 515.763 137.723 515.963 147.723C515.963 147.823 516.163 158.723 513.963 167.823C513.363 170.423 512.363 172.823 511.063 175.123C510.863 175.523 510.563 175.823 510.363 176.223C510.263 176.423 510.063 176.523 509.763 176.623C509.563 176.723 509.263 176.623 509.063 176.523C508.463 179.623 507.763 182.623 506.663 185.623C504.663 191.523 499.863 201.723 491.063 204.123C489.363 204.523 487.663 204.723 485.863 204.623C484.463 204.623 482.763 204.523 480.663 204.523C474.163 204.323 470.963 204.223 467.863 202.623C462.163 199.823 459.463 193.923 458.263 189.223C443.863 190.923 408.763 199.623 351.363 215.623L351.263 215.723L351.163 215.623L347.763 216.523C347.163 218.723 346.463 220.823 345.663 222.823C343.263 228.923 336.363 243.623 323.063 247.123C321.363 247.523 319.063 247.723 315.363 247.723C313.063 247.723 310.163 247.623 306.663 247.623C293.363 247.423 290.563 245.923 289.263 245.223C283.163 242.023 279.563 236.623 278.263 234.423C277.263 232.523 276.363 230.623 275.563 228.623C274.263 225.423 273.163 222.123 272.263 218.723C265.563 218.423 258.763 218.423 252.163 218.323C244.863 218.223 237.363 218.223 229.963 217.823C223.163 217.523 216.263 217.623 209.463 218.223C202.863 218.723 196.063 219.223 182.563 218.223C176.763 217.823 173.263 217.423 167.963 216.723C166.563 216.523 165.063 216.323 163.263 216.223C151.163 214.823 139.863 213.523 129.363 212.423C127.563 216.723 124.263 222.623 118.063 226.723C112.063 230.723 105.763 231.423 99.2626 231.423C97.4626 231.423 95.6626 231.323 93.8626 231.323C85.5626 231.123 78.3626 230.823 71.0626 225.823C63.9626 221.023 60.3626 214.123 58.6626 209.123C57.8626 209.223 57.0626 209.323 56.2626 209.423C50.2626 210.023 44.1626 210.023 38.0626 209.423C28.9626 208.523 21.7626 206.323 17.2626 203.123C13.5626 200.423 10.4626 197.023 8.26256 193.023C5.66256 188.823 5.46256 186.423 4.26256 175.223C3.86256 171.223 3.36256 166.223 2.56256 159.623L2.46256 159.023C1.96256 152.423 1.36256 147.023 3.66256 140.823ZM8.56256 133.623L8.26256 134.323C6.26256 138.423 5.06256 140.923 4.96256 141.223C4.86256 141.523 4.76256 141.723 4.66256 142.023C80.6626 149.623 157.163 151.723 233.463 148.123C254.863 147.123 276.463 145.623 297.863 143.723C287.563 143.823 278.563 143.923 272.163 144.123L269.863 144.223C265.763 144.323 262.263 144.423 259.163 144.423C249.063 144.423 243.763 143.523 239.163 139.523C234.063 134.923 231.363 127.323 231.463 117.523C219.763 121.923 207.063 124.723 193.463 125.923C190.663 132.723 186.663 138.623 180.363 142.223C177.263 144.023 173.763 145.123 170.263 145.623C166.163 145.823 157.663 145.923 146.763 145.923C111.163 145.923 49.9626 144.823 31.7626 142.523C27.2626 141.923 25.5626 139.023 25.3626 138.623C24.3626 137.023 24.2626 135.323 24.5626 130.423C24.7626 127.423 25.0626 124.423 25.5626 121.423C25.5626 121.323 25.5626 121.323 25.5626 121.223C21.4626 120.823 17.4626 120.223 13.3626 119.623C13.1626 124.123 11.5626 127.623 8.56256 133.623ZM357.263 199.923C357.163 201.723 356.863 203.623 356.563 205.423C357.763 201.923 358.063 198.323 358.163 195.323C359.063 165.823 359.963 135.323 342.163 126.123C339.563 124.623 336.663 123.823 333.663 123.823H333.563C322.963 123.823 314.463 134.423 309.563 142.423H312.363C314.363 139.423 316.663 136.723 319.263 134.223C325.963 127.923 331.263 127.223 333.763 127.423C342.563 127.923 348.663 137.123 351.563 142.423C352.863 144.823 354.163 147.823 355.863 158.123C355.963 158.223 359.163 176.823 357.263 199.923ZM477.463 173.323L365.063 192.423L364.863 192.023C364.263 190.923 363.663 189.923 363.263 188.723C362.563 187.023 361.963 185.223 361.663 183.423C361.163 181.123 360.563 176.323 359.863 171.023C359.963 178.823 359.763 187.123 359.563 195.223C359.363 200.523 358.563 207.423 353.763 213.223C353.663 213.423 353.463 213.523 353.363 213.723C414.363 196.623 449.763 188.123 461.563 187.523H461.963C464.663 187.423 472.763 187.123 476.063 181.923C477.663 179.523 477.563 176.923 477.563 174.123V173.423C477.463 173.623 477.463 173.523 477.463 173.323ZM465.163 92.723C464.863 91.523 464.463 90.323 463.863 89.223C445.063 87.123 424.963 85.323 404.463 83.823C404.863 84.723 405.263 85.523 405.463 86.523C411.663 108.623 412.063 115.123 412.063 115.423C412.063 125.023 411.063 131.123 409.763 138.723C408.663 145.023 407.363 152.923 406.163 165.023C405.563 171.423 405.163 177.923 405.063 184.323L463.463 174.423C464.763 168.123 466.063 161.723 467.163 155.323C469.663 140.723 470.363 133.323 470.463 129.723C470.763 120.423 470.463 114.023 469.363 108.923L469.163 108.223C468.563 105.423 468.563 105.423 467.863 102.823C467.363 101.123 466.663 98.323 465.163 92.923V92.723ZM455.963 83.923C435.363 82.223 416.763 80.723 400.763 79.523C401.863 80.423 402.763 81.423 403.563 82.523L403.663 82.623C424.063 84.023 443.963 85.823 462.763 87.923C462.463 87.623 462.163 87.423 461.863 87.223C461.663 87.123 461.463 87.023 461.163 86.823C460.863 86.623 460.363 86.423 459.663 86.023C458.363 85.323 457.163 84.623 455.963 83.923ZM454.163 81.623C450.363 81.523 447.763 81.423 446.063 79.923L446.563 81.223L445.563 81.123C428.063 79.723 412.163 78.323 398.263 77.223L398.863 78.023C414.963 79.323 433.863 80.823 454.863 82.523C454.663 82.223 454.463 81.923 454.163 81.623ZM444.863 69.823V69.523C441.163 65.123 437.263 60.723 433.263 56.623C420.163 43.023 412.963 35.623 400.563 28.923C400.263 28.823 373.763 14.823 342.763 19.523C340.163 19.823 337.663 20.623 335.363 21.723C328.563 25.023 324.963 30.923 320.963 37.823C318.163 42.523 315.763 47.523 313.863 52.623C316.263 56.223 318.963 59.623 321.963 62.923C325.463 66.723 327.763 69.323 331.463 71.123C334.763 72.723 338.363 73.623 341.963 73.723H342.463C348.963 74.123 368.663 75.523 397.363 77.823L396.763 77.023L380.063 75.623C362.563 74.123 349.963 73.023 342.863 72.523C340.663 72.323 333.963 71.923 327.863 67.223C326.863 66.523 318.463 59.723 319.063 50.623C319.163 48.823 319.763 47.223 320.863 44.223C322.463 39.723 324.763 35.523 327.763 31.723C330.163 28.723 333.163 24.923 338.463 22.423C340.263 21.523 342.263 20.923 344.263 20.523C347.963 19.723 351.763 19.323 355.663 19.423C360.663 19.423 365.563 19.923 370.463 20.823L371.963 21.123C378.663 22.223 388.663 24.023 397.963 28.623C411.763 35.523 422.363 46.123 434.963 60.823C437.663 63.923 440.263 67.223 442.663 70.523L442.763 70.623L445.063 76.923C444.863 75.423 444.863 73.223 444.863 69.823ZM313.263 54.123C312.963 55.123 312.663 56.223 312.563 57.323C311.763 64.223 315.263 69.523 316.363 71.323C317.663 73.223 319.163 75.023 320.863 76.523L320.963 76.623C321.763 77.423 322.563 78.123 323.363 78.923C335.763 79.123 346.663 79.423 363.163 80.123C376.163 80.723 389.163 81.423 401.963 82.323C400.963 81.023 399.663 80.023 398.263 79.123C368.963 76.823 348.863 75.323 342.263 74.923H341.863C338.063 74.823 334.263 73.923 330.763 72.223C326.963 70.223 324.563 67.623 320.963 63.723C318.063 60.723 315.563 57.523 313.263 54.123ZM50.4626 91.123C65.6626 91.523 81.0626 92.023 96.0626 92.423C115.163 93.023 134.463 93.623 153.563 94.223C153.863 92.523 154.163 90.823 154.463 89.123L49.7626 87.323C49.9626 88.623 50.2626 89.923 50.4626 91.123ZM50.6626 92.423C51.6626 97.523 52.8626 102.623 54.1626 107.623C56.9626 118.423 58.6626 122.123 62.1626 124.623C65.1626 126.823 68.3626 127.223 70.4626 127.423C88.9626 129.723 99.6626 129.623 112.063 129.523C116.763 129.523 121.663 129.423 127.363 129.523H127.863C132.563 129.623 135.963 129.623 139.563 127.423C143.063 125.323 146.463 119.123 149.763 109.023C151.163 104.523 152.363 100.023 153.363 95.323C134.363 94.723 115.063 94.123 96.0626 93.523C81.0626 93.323 65.8626 92.923 50.6626 92.423ZM155.763 89.223C154.763 96.123 153.163 103.023 151.063 109.623C145.963 125.223 141.763 127.823 140.363 128.723C137.163 130.723 133.963 131.023 130.263 131.023C129.463 131.023 128.663 131.023 127.863 131.023H127.363C121.663 130.923 116.763 130.923 112.063 131.023C99.6626 131.123 88.8626 131.223 70.2626 128.923C68.1626 128.623 64.7626 128.223 61.3626 125.823C57.1626 122.823 55.3626 118.123 52.8626 108.023C51.1626 101.223 49.6626 94.323 48.3626 87.323L36.6626 87.123C38.4626 98.923 41.9626 110.323 47.0626 121.123L47.4626 122.023H46.4626H44.8626C38.8626 122.023 32.8626 121.723 26.8626 121.123C27.9626 125.323 29.1626 129.523 30.2626 133.723C30.6626 135.023 31.3626 136.223 32.4626 137.123C33.5626 138.023 34.8626 138.523 36.2626 138.623C57.7626 140.123 79.5626 141.323 101.063 142.223C123.963 143.223 147.163 143.823 170.063 144.123C173.463 143.723 176.663 142.623 179.663 140.923C185.463 137.623 189.263 132.223 191.963 125.923C187.863 126.223 183.663 126.323 179.363 126.423C172.963 126.423 166.463 126.123 160.063 125.423L159.063 125.323L159.563 124.423C165.763 113.623 169.863 101.823 171.963 89.523L155.763 89.223ZM21.9626 96.923C22.1626 102.723 23.2626 107.123 24.5626 112.323C27.6626 112.623 30.7626 112.723 33.8626 112.723L29.1626 94.723C26.7626 94.623 24.3626 94.323 21.9626 94.023C21.9626 94.923 21.9626 95.923 21.9626 96.923ZM21.9626 92.623C24.5626 92.923 27.1626 93.223 29.7626 93.323H30.2626L35.5626 113.823H34.7626C33.9626 113.823 33.2626 113.823 32.4626 113.823C29.9626 113.823 27.4626 113.723 24.9626 113.523C24.9626 113.623 24.9626 113.723 25.0626 113.823L25.2626 114.523C25.7626 116.223 26.1626 118.023 26.6626 119.723C32.9626 120.323 39.2626 120.623 45.5626 120.623C40.6626 109.923 37.2626 98.623 35.4626 87.023L22.4626 86.823C22.1626 88.823 22.0626 90.723 21.9626 92.623ZM13.3626 117.123C13.3626 117.523 13.3626 117.823 13.3626 118.023C17.2626 118.723 21.2626 119.223 25.1626 119.623C24.7626 118.023 24.3626 116.423 23.9626 114.923L23.7626 114.223C23.6626 114.023 23.6626 113.723 23.5626 113.523L22.6626 113.423C19.4626 113.023 16.2626 112.423 13.0626 111.723C13.1626 113.123 13.2626 114.923 13.3626 117.123ZM25.9626 130.323C25.6626 135.323 25.8626 136.623 26.5626 137.823V137.923C26.6626 138.023 27.9626 140.623 31.9626 141.123C46.0626 142.923 86.2626 144.023 120.063 144.423C113.663 144.223 107.363 143.923 101.063 143.723C79.5626 142.823 57.7626 141.623 36.2626 140.123C34.5626 140.023 33.0626 139.423 31.7626 138.323C30.4626 137.223 29.5626 135.823 29.0626 134.223C28.1626 131.123 27.3626 127.923 26.4626 124.723C26.2626 126.423 26.0626 128.323 25.9626 130.323ZM170.763 101.523C168.463 109.423 165.363 117.023 161.363 124.123C167.563 124.723 173.663 125.023 179.563 125.023C184.063 125.023 188.363 124.823 192.663 124.523C193.763 121.623 194.763 118.623 195.463 115.623C190.163 116.123 184.863 116.423 179.463 116.423C178.163 116.423 176.763 116.423 175.463 116.423H174.563L174.963 115.523C176.563 111.723 177.863 107.823 178.963 103.823C179.463 102.023 179.963 100.223 180.363 98.423L180.463 97.923H180.963C187.063 97.823 193.263 97.723 199.463 97.623C200.163 94.623 200.863 91.723 201.663 89.023C192.163 89.223 182.763 89.323 173.463 89.423C172.763 93.623 171.863 97.623 170.763 101.523ZM199.563 103.623C198.863 107.123 198.063 110.723 197.163 114.223C212.963 112.423 227.363 108.023 240.163 101.323C240.463 101.123 243.163 99.723 246.563 97.723C243.363 97.823 239.763 97.923 235.663 98.123L226.663 98.423C217.963 98.723 209.163 98.923 200.463 99.123C200.163 100.523 199.863 102.023 199.563 103.623ZM198.263 103.323C198.563 101.923 198.863 100.423 199.163 99.023C193.263 99.123 187.363 99.223 181.463 99.323C181.063 101.023 180.663 102.623 180.163 104.223C179.163 107.923 177.863 111.523 176.463 115.123C177.463 115.123 178.463 115.123 179.463 115.123V115.723V115.123C184.863 115.123 190.363 114.823 195.763 114.323C196.663 110.723 197.463 107.023 198.263 103.323ZM200.763 97.723C209.363 97.523 218.063 97.323 226.663 97.023L235.563 96.723C240.663 96.523 245.063 96.423 248.863 96.323L251.163 96.223L249.163 97.423C244.963 100.023 241.363 102.023 240.663 102.423C227.563 109.323 212.863 113.723 196.663 115.623C195.863 118.623 194.963 121.623 193.863 124.523C212.563 122.923 229.663 118.023 244.663 110.023C254.863 104.623 269.563 94.923 268.163 90.423C267.563 88.423 263.563 87.623 254.463 87.623C249.463 87.623 243.163 87.823 235.263 88.123C232.463 88.223 229.463 88.323 226.363 88.423C218.563 88.723 210.763 88.923 202.963 89.023C202.163 91.723 201.463 94.623 200.763 97.723ZM254.563 86.323C264.763 86.323 268.663 87.323 269.563 90.023C271.763 96.723 249.863 108.823 245.463 111.123C241.363 113.323 237.163 115.223 232.863 116.923C232.663 126.623 235.263 134.023 240.163 138.423C245.763 143.423 252.863 143.223 269.963 142.823L272.263 142.723C280.863 142.523 293.763 142.423 308.263 142.323C313.163 134.023 322.163 122.423 333.763 122.423H333.863C337.063 122.523 340.163 123.323 342.963 124.923C347.363 127.223 350.663 130.723 353.163 135.223C352.663 133.723 352.063 132.223 351.463 130.523C347.863 120.923 343.363 111.623 338.163 102.823C332.263 92.923 328.163 85.823 322.963 80.323L318.663 80.223C286.063 79.623 267.863 80.223 245.763 85.323C243.763 85.823 241.763 86.223 239.863 86.823C245.563 86.423 250.463 86.323 254.563 86.323ZM339.063 102.123C344.363 111.023 348.863 120.323 352.463 130.023C355.563 138.423 357.163 143.023 358.363 150.123C358.963 153.623 359.663 159.323 360.363 165.323C361.263 172.623 362.163 180.223 362.863 183.323C363.263 185.023 363.763 186.723 364.463 188.423C364.863 189.323 365.263 190.223 365.763 191.123L403.763 184.623C403.963 178.123 404.263 171.523 404.963 165.023C406.063 152.823 407.463 144.923 408.563 138.623C409.863 130.723 410.863 125.023 410.863 115.523C410.863 115.423 410.363 108.823 404.263 86.923C403.963 85.823 403.563 84.823 402.963 83.823C389.763 82.923 376.463 82.123 363.163 81.523C347.163 80.823 336.463 80.523 324.563 80.323C329.363 85.723 333.463 92.623 339.063 102.123ZM444.663 79.723L441.463 71.123C439.063 67.923 436.563 64.723 433.863 61.623C421.363 47.023 410.863 36.623 397.263 29.723C389.163 25.623 380.363 23.823 373.863 22.723C385.563 38.923 394.363 56.923 400.063 76.023C413.363 77.123 428.263 78.423 444.663 79.723ZM386.963 46.523C382.663 38.123 377.663 30.023 372.063 22.423L371.663 22.323L370.163 22.023C369.063 21.823 367.863 21.623 366.763 21.523C370.063 27.123 373.563 33.923 377.163 41.623C382.163 52.423 386.263 63.623 389.563 75.123L398.663 75.923C395.663 65.823 391.763 55.923 386.963 46.523ZM328.163 33.423C325.563 36.823 323.563 40.623 322.163 44.723C321.063 47.623 320.563 49.123 320.463 50.723C319.863 59.123 327.863 65.523 328.763 66.223C333.863 70.123 339.463 70.923 342.163 71.223C340.463 64.823 338.463 58.523 336.263 52.323C333.763 45.923 331.063 39.523 328.163 33.423ZM337.363 51.823C339.663 58.223 341.763 64.723 343.463 71.223L344.463 71.323C342.363 63.223 339.663 55.323 336.563 47.623C334.363 42.323 332.063 36.923 329.463 31.823L329.163 32.223C332.163 38.623 334.963 45.223 337.363 51.823ZM337.763 47.123C340.963 55.023 343.663 63.223 345.763 71.423C353.163 72.023 364.763 73.023 380.163 74.323L388.163 75.023C384.963 63.823 380.963 52.823 375.963 42.223C372.663 35.123 369.063 28.123 365.063 21.323C361.863 20.923 358.663 20.723 355.463 20.723C351.763 20.723 348.063 21.023 344.363 21.823C342.463 22.223 340.663 22.823 338.863 23.623C334.863 25.523 332.163 28.223 330.163 30.723C332.963 36.123 335.463 41.623 337.763 47.123ZM308.663 144.023C307.363 146.223 306.163 148.523 305.163 150.923C304.063 153.523 303.163 156.123 302.363 158.923C300.263 166.023 299.263 172.423 298.463 179.223C300.863 167.623 304.863 154.323 311.563 143.823L308.663 144.023ZM12.3626 103.123C12.3626 104.523 12.5626 105.723 12.6626 107.223C12.7626 108.223 12.8626 109.423 12.9626 110.823L13.0626 110.323C16.2626 111.123 19.4626 111.723 22.7626 112.123H23.1626C21.8626 107.023 20.8626 102.623 20.6626 96.923C20.6626 95.923 20.5626 94.823 20.6626 93.823C18.2626 93.523 15.8626 93.123 13.4626 92.623C12.1626 96.523 12.2626 101.123 12.3626 103.123ZM17.4626 86.923C15.8626 88.023 14.6626 89.523 13.9626 91.323C16.1626 91.823 18.4626 92.223 20.6626 92.523C20.7626 90.523 20.8626 88.423 21.1626 86.423L20.4626 85.723C19.3626 85.923 18.3626 86.323 17.4626 86.923ZM24.4626 74.223L24.2626 74.523C23.0626 76.323 22.1626 78.423 21.8626 80.523C21.7626 80.923 21.7626 81.423 21.6626 81.823C21.5626 82.823 21.4626 83.723 21.3626 84.723L22.0626 85.423L172.863 88.123C182.463 88.023 192.263 87.923 202.063 87.723C204.163 81.423 206.963 76.423 211.563 73.823C174.763 68.423 137.563 65.923 100.363 66.223C77.7626 66.423 54.9626 67.623 32.4626 69.923V69.723C28.8626 70.923 26.0626 72.223 24.4626 74.223ZM75.8626 55.323C73.3626 56.923 70.8626 58.423 68.2626 59.723C66.3626 60.623 60.7626 63.423 47.5626 66.423C45.6626 66.823 43.7626 67.223 41.8626 67.623L40.1626 68.023C60.1626 66.223 80.3626 65.223 100.363 65.023C138.263 64.723 176.063 67.323 213.563 72.923V73.023C215.263 72.423 219.063 72.023 226.763 71.223C229.763 70.923 232.463 70.723 234.763 70.523C242.263 69.923 246.063 69.623 248.663 66.623C249.763 65.323 251.663 62.223 250.563 60.223C249.863 58.923 248.163 58.523 247.063 58.323C241.163 60.823 234.763 62.123 228.263 62.023C225.663 62.023 223.163 61.823 220.563 61.523L220.063 61.423C211.163 60.423 196.163 60.023 174.263 60.023C150.463 60.023 118.563 60.623 76.7626 61.723L74.8626 61.823L76.3626 60.623C95.7626 45.123 117.063 32.323 139.963 22.523H140.063C143.963 20.823 147.963 19.323 152.063 18.023C142.563 20.423 133.363 23.523 124.363 27.323C109.663 33.423 98.3626 40.723 75.8626 55.323ZM140.363 23.723C118.263 33.223 97.5626 45.523 78.6626 60.423C119.563 59.323 150.863 58.823 174.263 58.823C196.263 58.823 211.363 59.323 220.263 60.223L220.763 60.323C223.263 60.623 225.763 60.823 228.263 60.823C234.563 60.923 240.863 59.623 246.663 57.123C251.763 54.923 255.163 52.123 266.063 42.523C273.563 35.823 281.163 28.923 288.663 21.923C267.363 20.123 245.763 19.223 224.463 19.223C222.463 19.223 220.463 19.223 218.463 19.223C192.263 19.323 166.263 20.923 140.363 23.723ZM223.463 9.62302C209.063 10.423 195.063 11.523 180.663 13.023L177.463 13.323C170.863 14.223 164.363 15.623 157.963 17.423C153.463 18.723 148.963 20.223 144.663 21.923C169.063 19.423 193.863 18.023 218.363 17.823C220.363 17.823 222.363 17.823 224.363 17.823C246.163 17.823 268.263 18.723 289.963 20.623C299.163 14.323 309.663 10.323 320.763 9.12302C292.363 7.62302 258.063 7.72302 223.463 9.62302ZM413.263 34.023C412.863 33.723 412.563 33.523 412.163 33.223C397.063 22.623 379.763 15.723 361.463 13.023C353.163 11.723 343.263 10.623 332.263 9.82302V10.123C317.363 9.12302 302.663 13.223 290.463 21.723C282.663 29.023 274.763 36.223 266.863 43.323C257.163 52.023 253.363 55.123 248.863 57.323C249.963 57.723 250.963 58.423 251.563 59.423C253.363 62.623 249.963 66.823 249.563 67.323C246.663 70.823 242.463 71.123 234.763 71.723C232.463 71.923 229.863 72.123 226.763 72.423C219.263 73.223 215.463 73.623 213.863 74.123C208.563 76.123 205.463 81.223 203.263 87.723C210.863 87.523 218.563 87.323 226.163 87.123C229.363 87.023 232.263 86.923 235.063 86.823H235.763L235.663 86.323C238.763 85.423 241.863 84.623 245.063 83.923C267.263 78.723 285.563 78.223 318.263 78.823L321.263 78.923C320.763 78.423 320.363 78.023 319.863 77.623L319.763 77.523C317.963 75.923 316.363 74.123 315.063 72.123C311.763 67.123 310.463 62.123 311.063 57.223C311.263 55.723 311.563 54.223 312.163 52.823L312.263 52.523C314.163 47.223 316.663 42.023 319.563 37.123C323.763 30.123 327.363 24.023 334.563 20.623C337.063 19.423 339.663 18.723 342.363 18.323C373.863 13.523 400.763 27.723 400.963 27.823C413.563 34.623 420.863 42.123 434.063 55.723C437.763 59.523 441.363 63.523 444.763 67.623C444.763 66.423 445.163 65.223 445.863 64.223C428.263 45.323 417.063 36.823 413.263 34.023ZM467.263 65.623C466.163 64.323 464.263 64.023 460.963 63.323C459.063 62.923 457.163 62.823 455.263 62.823H454.463C450.963 62.823 449.663 63.423 449.263 63.623C448.463 63.923 447.763 64.323 447.263 64.923C446.263 66.123 446.163 67.523 446.263 70.023C446.263 74.523 446.363 78.123 446.763 78.723C448.063 80.323 450.463 80.423 454.263 80.523C455.363 80.523 456.363 80.623 457.263 80.623C460.663 80.623 463.063 80.323 465.063 78.623C467.063 76.923 468.463 73.923 468.663 70.923C468.763 68.523 468.263 66.723 467.263 65.623ZM488.463 89.823C485.363 88.823 482.163 88.023 478.863 87.323C478.763 87.323 478.563 87.223 478.463 87.123C475.763 83.723 472.063 81.323 467.863 80.123H467.763C467.063 79.923 466.363 79.623 465.763 79.423C463.463 81.323 460.863 81.723 457.263 81.723H455.863C456.163 82.123 456.363 82.423 456.663 82.823C457.863 83.523 459.063 84.223 460.263 84.923C460.963 85.323 461.463 85.523 461.763 85.723C462.063 85.923 462.363 86.023 462.563 86.123C463.363 86.623 464.063 87.323 464.563 88.123C466.663 88.323 468.863 88.623 470.963 88.823C478.563 89.723 486.163 90.723 493.763 91.723C492.263 91.123 490.563 90.523 488.463 89.823ZM506.163 109.323C506.163 109.223 506.063 109.223 506.063 109.123C505.663 107.323 505.063 105.423 504.363 103.623C503.163 100.323 502.163 97.723 500.363 95.623C499.663 94.723 498.763 94.023 497.763 93.423C488.863 92.223 479.763 91.023 470.763 89.923L465.263 89.323C465.663 90.323 466.063 91.323 466.263 92.323V92.523C467.663 97.823 468.463 100.723 468.963 102.423C469.763 105.123 469.763 105.123 470.263 107.923L470.463 108.623C471.563 113.923 471.863 120.423 471.563 129.723C471.463 133.423 470.763 140.823 468.163 155.523C467.063 161.723 465.863 168.023 464.563 174.123L477.263 171.923C477.563 166.823 478.063 161.723 478.663 156.623C480.563 141.623 484.363 110.323 496.763 107.223C497.963 106.923 499.163 106.823 500.363 107.023C502.763 107.323 504.863 108.623 506.563 110.323C506.663 110.023 506.463 109.723 506.163 109.323ZM512.863 167.523C515.063 158.623 514.863 147.823 514.863 147.723C514.663 137.723 514.463 130.023 512.063 122.123C510.963 118.723 507.263 109.323 500.563 108.423C499.563 108.323 498.463 108.323 497.463 108.623C491.963 110.023 488.163 117.823 485.563 127.223C487.963 119.423 491.463 113.023 497.063 111.623C499.063 111.123 501.163 111.223 503.063 111.923C514.163 115.923 514.163 139.023 514.163 154.223C514.263 160.123 513.363 165.923 511.663 171.523C512.063 170.223 512.463 168.823 512.863 167.523ZM510.163 171.623C511.963 166.023 512.863 160.123 512.763 154.123C512.763 140.123 512.763 116.723 502.463 113.023C500.763 112.423 498.963 112.323 497.263 112.823C494.963 113.423 492.963 115.023 491.363 117.323C492.763 117.423 494.063 117.623 495.363 118.023C509.763 123.223 510.563 152.723 510.663 156.123C510.763 161.723 510.463 167.223 509.763 172.823C509.863 172.323 510.063 171.923 510.163 171.623ZM468.563 201.523C471.463 202.923 474.563 203.023 480.863 203.223C486.063 203.423 488.563 203.523 490.863 202.923C499.063 200.723 503.663 190.923 505.563 185.223C508.263 177.423 509.563 167.623 509.363 156.023C509.363 154.723 508.763 124.123 494.963 119.123C493.863 118.723 491.763 118.523 490.563 118.423C485.663 126.223 483.663 140.123 482.163 150.323C479.963 165.023 478.863 173.123 478.763 173.623V174.323C478.763 177.123 478.863 180.023 477.063 182.823C473.363 188.523 464.763 188.823 461.963 189.023H461.563C460.963 189.023 460.363 189.123 459.663 189.123C460.863 193.523 463.363 199.023 468.563 201.523ZM351.363 212.823C354.963 209.223 355.663 204.423 355.963 199.823C357.763 176.923 354.663 158.423 354.663 158.223C352.963 148.123 351.663 145.123 350.463 142.923C347.763 137.823 341.963 129.123 333.763 128.623C332.163 128.523 328.163 128.823 322.763 132.923C323.263 132.923 323.663 132.923 324.163 132.923C325.863 133.123 327.663 133.423 329.263 133.923C350.063 140.723 351.363 179.523 351.463 183.923C351.663 195.723 350.563 206.123 348.263 215.023C349.463 214.423 350.463 213.623 351.363 212.823ZM276.963 228.223C277.763 230.123 278.563 232.023 279.563 233.823C280.763 235.923 284.263 241.123 290.063 244.123C291.063 244.623 293.863 246.123 306.863 246.323C315.863 246.523 320.363 246.623 322.863 245.923C335.563 242.623 342.263 228.423 344.563 222.423C348.563 212.123 350.363 199.123 350.163 183.823C349.963 175.923 348.863 168.123 347.063 160.523C343.463 146.323 337.363 137.723 328.963 135.023C327.363 134.523 325.763 134.223 324.163 134.023C323.163 133.923 322.163 134.023 321.163 134.123C320.863 134.423 320.563 134.623 320.263 134.923C300.263 153.723 296.863 196.023 296.363 204.323V204.523C296.263 206.823 295.963 209.123 295.363 211.323C295.363 211.623 295.263 212.023 295.263 212.323H295.063C294.263 214.823 292.863 217.223 290.463 218.523C289.163 219.223 287.763 219.523 286.363 219.523C285.863 219.523 285.463 219.523 285.263 219.423C281.463 219.123 277.763 218.823 273.963 218.723C274.763 222.123 275.763 225.223 276.963 228.223ZM72.0626 225.023C79.0626 229.823 86.0626 230.023 94.1626 230.223C102.463 230.423 110.263 230.723 117.563 225.823C123.363 222.023 126.563 216.623 128.263 212.423C99.6626 209.323 77.2626 207.723 60.1626 209.223C61.9626 214.123 65.3626 220.423 72.0626 225.023ZM4.06256 159.123L4.16256 159.623C4.96256 166.223 5.46256 171.223 5.86256 175.323C5.96256 176.723 6.16256 178.023 6.26256 179.123C37.9626 181.823 70.1626 184.023 101.863 185.823C138.063 187.823 174.763 189.323 210.963 190.223V191.523C174.763 190.623 137.963 189.123 101.763 187.123C70.0626 185.323 38.0626 183.123 6.36256 180.423C7.16256 187.123 7.66256 189.223 9.66256 192.523C11.7626 196.323 14.7626 199.623 18.2626 202.223C22.5626 205.323 29.5626 207.323 38.4626 208.223C44.4626 208.823 50.4626 208.823 56.3626 208.223C80.0626 205.323 115.163 209.423 163.663 215.023L168.363 215.523C173.663 216.123 177.263 216.623 182.963 217.023C196.363 217.923 203.063 217.423 209.663 217.023C216.563 216.423 223.463 216.323 230.363 216.623C237.763 216.923 245.263 217.023 252.463 217.023C263.263 217.123 274.363 217.223 285.363 218.223C286.963 218.423 288.463 218.123 289.863 217.423C292.163 216.223 293.363 213.723 294.063 211.123C294.563 206.423 294.963 201.523 295.463 196.723C295.863 192.223 296.063 190.423 296.163 189.223C296.263 188.123 296.263 187.623 296.463 186.123C297.463 176.423 298.263 168.023 301.163 158.423C301.963 155.623 302.863 153.023 303.963 150.323C304.063 150.023 305.163 147.523 307.063 144.123C282.663 146.423 257.963 148.223 233.563 149.423C209.263 150.623 184.963 151.123 160.463 151.123C108.263 151.123 56.1626 148.523 4.26256 143.223C2.76256 148.423 3.36256 153.023 4.06256 159.123Z" fill="#EB2227" stroke="white" stroke-width="0.5" stroke-miterlimit="10"/>
</svg>
