<svg width="24" height="24" viewBox="0 0 24 24" fill="none" xmlns="http://www.w3.org/2000/svg">
<path d="M18.375 15.375L20.7491 13.95C21.118 13.729 21.5585 13.6602 21.9773 13.7582C22.396 13.8562 22.7602 14.1132 22.9927 14.475C23.2163 14.8233 23.3013 15.2427 23.2309 15.6505C23.1605 16.0583 22.9399 16.425 22.6125 16.6781L18.375 19.9609C18.1287 20.1515 17.8454 20.2889 17.5433 20.3644L9.94763 22.263C9.64857 22.3378 9.33735 22.3503 9.03326 22.2998C8.72917 22.2493 8.4387 22.1368 8.17987 21.9694L2.625 18.375H0.75V12.375L4.48425 11.7525C4.98035 11.6699 5.48984 11.7558 5.93138 11.9966L9.375 13.875L14.9666 14.1694C15.3805 14.1911 15.7703 14.3708 16.0556 14.6715C16.3409 14.9721 16.5 15.3708 16.5 15.7853C16.5005 16.187 16.3516 16.5745 16.0823 16.8725C15.813 17.1705 15.4424 17.3577 15.0427 17.3978L9 18" stroke="#217B56" stroke-width="1.03125" stroke-linecap="round" stroke-linejoin="round"/>
<path d="M14.625 10.5C17.1103 10.5 19.125 8.48528 19.125 6C19.125 3.51472 17.1103 1.5 14.625 1.5C12.1397 1.5 10.125 3.51472 10.125 6C10.125 8.48528 12.1397 10.5 14.625 10.5Z" stroke="#217B56" stroke-width="1.03125" stroke-linecap="round" stroke-linejoin="round"/>
<path d="M14.6247 4.12484L12.7497 5.99982L14.6247 7.8748L16.4997 5.99982L14.6247 4.12484Z" stroke="#217B56" stroke-width="1.03125" stroke-linecap="round" stroke-linejoin="round"/>
</svg>
