<svg width="16" height="16" viewBox="0 0 16 16" fill="none" xmlns="http://www.w3.org/2000/svg">
<g clip-path="url(#clip0_44_1216)">
<path d="M7.99999 5.52289C8.57209 5.52289 9.03749 5.05745 9.03749 4.48539C8.98534 3.11089 7.01443 3.11126 6.96249 4.48539C6.96249 5.05748 7.4279 5.52289 7.99999 5.52289Z" fill="#217B56"/>
<path d="M7.68465 11.3593C7.86346 11.5219 8.13649 11.5219 8.31534 11.3593C8.35753 11.321 9.35984 10.4055 10.3763 9.11756C11.7758 7.34425 12.4854 5.78578 12.4854 4.48541C12.4854 2.01216 10.4733 0 7.99999 0C5.52671 0 3.51459 2.01216 3.51459 4.48541C3.37206 6.65287 6.26353 10.1172 7.68465 11.3593ZM7.99999 2.51041C9.08903 2.51041 9.97499 3.39641 9.97499 4.48541C9.87571 7.10191 6.12387 7.10122 6.02499 4.48537C6.02499 3.39641 6.91096 2.51041 7.99999 2.51041Z" fill="#217B56"/>
<path d="M0.259125 7.30083C0.100313 7.38024 0 7.54252 0 7.72008V15.5312C0 15.6937 0.084125 15.8446 0.222312 15.93C0.360531 16.0154 0.533094 16.0231 0.678375 15.9505L4.23438 14.1725V8.81568C3.55253 7.82787 3.07947 6.89405 2.81828 6.02124L0.259125 7.30083Z" fill="#217B56"/>
<path d="M8.94613 12.0529C8.43144 12.5374 7.56862 12.5374 7.05406 12.0531C7.01316 12.0158 6.13091 11.2093 5.17188 10.0497V14.6413L7.79038 15.9505C7.85634 15.9835 7.92819 16 8 16C8.07184 16 8.14366 15.9835 8.20963 15.9505L10.8281 14.6413V10.0498C9.86831 11.2104 8.98672 12.016 8.94613 12.0529Z" fill="#217B56"/>
<path d="M15.7409 7.30086L13.1817 6.0213C12.9205 6.89408 12.4475 7.82793 11.7656 8.81574V14.1726L15.3216 15.9506C15.4669 16.0232 15.6395 16.0154 15.7777 15.9301C15.9159 15.8446 16 15.6937 16 15.5313V7.72011C16 7.54255 15.8997 7.38027 15.7409 7.30086Z" fill="#217B56"/>
</g>
<defs>
<clipPath id="clip0_44_1216">
<rect width="16" height="16" fill="white"/>
</clipPath>
</defs>
</svg>
