<svg width="20" height="20" viewBox="0 0 20 20" fill="none" xmlns="http://www.w3.org/2000/svg">
<path fill-rule="evenodd" clip-rule="evenodd" d="M7.04451 1.41951C7.82836 0.635671 8.89148 0.195312 10 0.195312C11.1085 0.195312 12.1716 0.635671 12.9555 1.41951C13.7393 2.20336 14.1797 3.26648 14.1797 4.375V7.1875C14.1797 7.42481 13.9873 7.61719 13.75 7.61719C13.5127 7.61719 13.3203 7.42481 13.3203 7.1875V4.375C13.3203 3.4944 12.9705 2.64986 12.3478 2.02718C11.7251 1.40451 10.8806 1.05469 10 1.05469C9.1194 1.05469 8.27486 1.40451 7.65218 2.02718C7.02951 2.64986 6.67969 3.4944 6.67969 4.375V7.1875C6.67969 7.42481 6.48731 7.61719 6.25 7.61719C6.01269 7.61719 5.82031 7.42481 5.82031 7.1875V4.375C5.82031 3.26648 6.26067 2.20336 7.04451 1.41951Z" fill="#596481"/>
<path fill-rule="evenodd" clip-rule="evenodd" d="M4.0625 9.17969C3.76206 9.17969 3.47392 9.29904 3.26148 9.51148C3.04904 9.72392 2.92969 10.0121 2.92969 10.3125V17.8125C2.92969 18.1129 3.04904 18.4011 3.26148 18.6135C3.47392 18.826 3.76206 18.9453 4.0625 18.9453H15.9375C16.2379 18.9453 16.5261 18.826 16.7385 18.6135C16.951 18.4011 17.0703 18.1129 17.0703 17.8125V10.3125C17.0703 10.0121 16.951 9.72392 16.7385 9.51148C16.5261 9.29904 16.2379 9.17969 15.9375 9.17969H4.0625ZM15.9375 19.8047H4.0625C3.53414 19.8047 3.02742 19.5948 2.65381 19.2212C2.2802 18.8476 2.07031 18.3409 2.07031 17.8125V10.3125C2.07031 9.78414 2.2802 9.27742 2.65381 8.90381C3.02742 8.5302 3.53414 8.32031 4.0625 8.32031H15.9375C16.4659 8.32031 16.9726 8.5302 17.3462 8.90381C17.7198 9.27742 17.9297 9.78414 17.9297 10.3125V17.8125C17.9297 18.3409 17.7198 18.8476 17.3462 19.2212C16.9726 19.5948 16.4659 19.8047 15.9375 19.8047Z" fill="#596481"/>
<path fill-rule="evenodd" clip-rule="evenodd" d="M10 14.5703C10.2373 14.5703 10.4297 14.7627 10.4297 15V16.875C10.4297 17.1123 10.2373 17.3047 10 17.3047C9.76269 17.3047 9.57031 17.1123 9.57031 16.875V15C9.57031 14.7627 9.76269 14.5703 10 14.5703Z" fill="#596481"/>
<path fill-rule="evenodd" clip-rule="evenodd" d="M10 11.6797C9.20178 11.6797 8.55469 12.3268 8.55469 13.125C8.55469 13.9232 9.20178 14.5703 10 14.5703C10.7982 14.5703 11.4453 13.9232 11.4453 13.125C11.4453 12.3268 10.7982 11.6797 10 11.6797ZM7.69531 13.125C7.69531 11.8522 8.72716 10.8203 10 10.8203C11.2728 10.8203 12.3047 11.8522 12.3047 13.125C12.3047 14.3978 11.2728 15.4297 10 15.4297C8.72716 15.4297 7.69531 14.3978 7.69531 13.125Z" fill="#596481"/>
</svg>
