<svg width="72" height="28" viewBox="0 0 72 28" fill="none" xmlns="http://www.w3.org/2000/svg">
<path d="M45.9352 22.7075C45.915 22.2169 45.9016 21.8002 45.8848 21.3802C45.8265 19.9488 45.7705 18.5173 45.7168 17.0859C45.6731 16.0779 45.6328 15.0698 45.5824 14.0617C45.5555 13.504 45.5085 12.9462 45.4648 12.3817C45.4482 12.3027 45.4223 12.226 45.3875 12.1532C45.1926 12.2103 45.1724 12.3615 45.122 12.4892C44.7054 13.4536 44.2853 14.4146 43.8788 15.3823C43.2336 16.9112 42.5985 18.4468 41.9567 19.979C41.8996 20.1235 41.8291 20.2646 41.7719 20.3957C40.7969 20.4749 39.817 20.4749 38.8419 20.3957C38.7814 20.2579 38.7075 20.1 38.6403 19.9421C37.612 17.5115 36.5849 15.081 35.559 12.6505C35.5007 12.5042 35.4333 12.3617 35.3574 12.2237C35.3372 12.1868 35.2734 12.18 35.2062 12.1464C35.1229 12.4762 35.0778 12.8144 35.0718 13.1545C34.9911 14.9354 34.9172 16.7196 34.8399 18.5005C34.7828 19.7942 34.7324 21.0845 34.6752 22.3782C34.6752 22.479 34.6517 22.5798 34.6416 22.6638C34.5845 22.694 34.5543 22.7243 34.524 22.7243H31.0093C30.9253 22.7243 30.8413 22.7243 30.7909 22.7041C30.7405 22.684 30.7304 22.6537 30.7237 22.6403C30.7187 22.6238 30.7187 22.6063 30.7237 22.5899C30.7237 22.311 30.7237 22.0321 30.7237 21.7532C31.0127 16.4105 31.3218 11.0712 31.9871 5.75876C31.9871 5.62099 32.0409 5.48658 32.0745 5.33538C32.1576 5.30885 32.2431 5.29083 32.3298 5.28161H35.8446C35.9203 5.28743 35.9956 5.29866 36.0697 5.31521C36.1268 5.41602 36.194 5.51683 36.2445 5.62435C37.5885 8.39313 38.8956 11.1754 40.0549 14.0248C40.1087 14.1626 40.1221 14.3373 40.3371 14.4011C40.567 14.0013 40.7583 13.5805 40.9084 13.1444C41.11 12.6975 41.2948 12.2439 41.4897 11.8003C41.6846 11.3568 41.8727 10.9368 42.0676 10.5067C42.2625 10.0766 42.4574 9.64984 42.6557 9.21974C42.8539 8.78963 43.0555 8.36289 43.2571 7.93615C43.4587 7.50941 43.6738 7.05242 43.8855 6.59208L44.4937 5.32193C44.9388 5.25947 45.3892 5.24258 45.8377 5.27153C46.2914 5.27153 46.745 5.27153 47.1818 5.27153C47.619 5.24466 48.0576 5.25816 48.4923 5.31185C48.6092 5.62602 48.6717 5.95784 48.6771 6.29303C49.2954 11.125 49.9607 21.6322 49.8397 22.6739C49.4131 22.7288 48.9822 22.7435 48.5528 22.7176C48.1327 22.7176 47.7127 22.7176 47.2927 22.7176L45.9352 22.7075Z" fill="white"/>
<path d="M71.1869 18.0167C71.5358 19.203 71.8074 20.4107 72 21.6322C71.8925 21.6927 71.7783 21.7667 71.664 21.8238C70.7089 22.2606 69.6861 22.531 68.6399 22.6235C67.6474 22.7251 66.6457 22.69 65.6628 22.5193C62.7865 22.0187 60.8846 20.352 59.8866 17.6336C59.5569 16.71 59.3722 15.7409 59.3389 14.7607C59.27 13.6429 59.3412 12.5208 59.5506 11.4207C59.7691 10.3032 60.2065 9.24005 60.8375 8.29235C61.8406 6.79069 63.3853 5.73484 65.1487 5.34548C67.3035 4.81537 69.5706 4.97882 71.6271 5.81254C71.6909 5.83606 71.7514 5.86631 71.8388 5.90663C71.8375 6.00812 71.8274 6.10931 71.8085 6.20904C71.5464 7.22382 71.2821 8.23747 71.0155 9.25C70.9954 9.3172 70.9651 9.37769 70.9248 9.47513C70.824 9.45497 70.7299 9.44153 70.6358 9.41465C70.031 9.24664 69.4295 9.05847 68.818 8.91734C68.0474 8.74125 67.2454 8.75741 66.4826 8.96439C66.0217 9.07585 65.592 9.28998 65.2254 9.59079C64.8589 9.89159 64.565 10.2713 64.3657 10.7016C64.0878 11.2686 63.9082 11.8788 63.8348 12.506C63.6846 13.5999 63.7129 14.7109 63.9188 15.7956C63.9991 16.1896 64.1184 16.5745 64.275 16.9448C64.4909 17.4685 64.8456 17.9234 65.301 18.2603C65.7563 18.5972 66.295 18.8034 66.859 18.8567C68.1493 19.0312 69.4625 18.8233 70.6358 18.2586L71.1869 18.0167Z" fill="white"/>
<path d="M52.7463 5.12709C52.8111 5.09273 52.88 5.06676 52.9513 5.0498C54.2416 5.0498 55.5342 5.0498 56.8289 5.0498C56.9209 5.05733 57.012 5.07308 57.1011 5.09685C57.125 5.19877 57.1429 5.30199 57.1549 5.40598C57.1549 5.54375 57.1549 5.68488 57.1549 5.82264V22.0153C57.1549 22.2405 57.1549 22.4656 57.1549 22.7142C57.0311 22.7442 56.9053 22.7655 56.7785 22.7781C55.5734 22.7781 54.3671 22.7781 53.1596 22.7781C53.0375 22.7693 52.9162 22.7513 52.7967 22.7243C52.7803 22.6332 52.7691 22.5412 52.7631 22.4488C52.7519 16.6939 52.7463 10.92 52.7463 5.12709Z" fill="white"/>
<path d="M15.9857 19.2226C15.5828 19.2479 15.186 19.1148 14.8797 18.8519C14.5734 18.5889 14.3819 18.2168 14.3459 17.8147C14.299 17.4295 14.3943 17.0405 14.614 16.7206C14.8336 16.4008 15.1625 16.1721 15.5388 16.0775C16.0999 15.9498 16.6577 15.8154 17.2189 15.6911C18.4285 15.4223 19.6382 15.1635 20.8445 14.8914C21.0628 14.8248 21.2951 14.819 21.5165 14.8746C21.7045 14.9228 21.8745 15.0242 22.0062 15.1666C22.1379 15.3091 22.2257 15.4865 22.2591 15.6776C22.3155 15.8868 22.3047 16.1084 22.2281 16.3111C22.1515 16.5137 22.0131 16.6871 21.8324 16.8067C21.715 16.8822 21.5914 16.9474 21.4628 17.0015L16.7585 19.0412C16.5188 19.1618 16.254 19.224 15.9857 19.2226Z" fill="#EB2227"/>
<path d="M10.2433 16.958C10.4613 16.9735 10.6734 17.0352 10.8657 17.1389C11.0581 17.2425 11.2262 17.3859 11.3589 17.5595C11.4532 17.685 11.5396 17.8163 11.6176 17.9526C12.451 19.3661 13.2798 20.7763 14.1042 22.1831C14.1888 22.316 14.2651 22.454 14.3327 22.5964C14.4393 22.8274 14.4614 23.0886 14.3951 23.3343C14.3288 23.5799 14.1782 23.7945 13.9698 23.9404C13.759 24.0862 13.5025 24.1504 13.2479 24.1214C12.9933 24.0924 12.7579 23.972 12.5854 23.7825C12.1653 23.339 11.7688 22.8719 11.3656 22.4149L9.14454 19.9049C9.0303 19.7738 8.90933 19.6428 8.80853 19.5017C8.6275 19.2528 8.52146 18.9573 8.50293 18.6501C8.48439 18.3429 8.55414 18.0368 8.70393 17.7679C8.85372 17.4991 9.07731 17.2787 9.34829 17.1328C9.61927 16.9869 9.92634 16.9216 10.2332 16.9446L10.2433 16.958Z" fill="#EB2227"/>
<path d="M7.41062 11.6892C7.70454 11.6863 7.99353 11.7648 8.24557 11.9161C8.49762 12.0673 8.7029 12.2853 8.8387 12.546C8.98048 12.7995 9.04897 13.0874 9.03651 13.3776C9.02405 13.6678 8.93113 13.9487 8.76813 14.1891C8.68971 14.3078 8.60207 14.4202 8.50604 14.5251C7.37254 15.8087 6.23792 17.0912 5.10218 18.3725C4.96772 18.5314 4.80757 18.6665 4.6284 18.7724C4.44262 18.8736 4.22973 18.9137 4.01987 18.8872C3.81001 18.8607 3.61381 18.7688 3.45906 18.6246C3.30026 18.4854 3.18641 18.3022 3.13196 18.0981C3.07752 17.8941 3.08494 17.6785 3.15328 17.4787C3.19117 17.361 3.24306 17.2481 3.30785 17.1427C4.2039 15.6082 5.10778 14.0738 6.01951 12.5393C6.12498 12.3471 6.26893 12.1787 6.44236 12.0445C6.6158 11.9104 6.815 11.8135 7.02756 11.7597C7.15861 11.7228 7.29638 11.7093 7.41062 11.6892Z" fill="#EB2227"/>
<path d="M11.6075 10.7583C11.3064 10.734 11.0129 10.6506 10.7439 10.513L7.14855 8.9472C6.73189 8.76911 6.31187 8.61118 5.90193 8.40285C5.68225 8.30605 5.50128 8.13852 5.38785 7.92694C5.27443 7.71537 5.23506 7.47192 5.27603 7.23538C5.317 6.99885 5.43595 6.78282 5.61392 6.62172C5.7919 6.46062 6.01867 6.36371 6.2581 6.34642C6.39713 6.34413 6.53593 6.3588 6.67141 6.39011L11.7755 7.51576C11.8797 7.53929 11.9805 7.56953 12.0779 7.59977C12.3966 7.69845 12.6768 7.89373 12.8797 8.1586C13.0825 8.42347 13.1981 8.74484 13.2103 9.07825C13.2203 9.41208 13.1251 9.74061 12.9382 10.0174C12.7513 10.2942 12.4821 10.5052 12.1687 10.6206C11.9847 10.6785 11.7973 10.7245 11.6075 10.7583Z" fill="#EB2227"/>
<path d="M15.2634 11.7093C15.3071 11.2153 15.3441 10.7819 15.3878 10.3652C15.493 9.24516 15.5983 8.13295 15.7036 7.02857C15.7305 6.74967 15.7607 6.47414 15.7943 6.19524C15.8161 5.92963 15.9361 5.68166 16.1308 5.4997C16.3255 5.31773 16.581 5.21482 16.8475 5.21105C17.1139 5.20727 17.3723 5.30289 17.572 5.47927C17.7718 5.65564 17.8988 5.90012 17.928 6.165C17.9885 6.61527 18.0154 7.06889 18.0591 7.50907C18.1498 8.44656 18.2439 9.38405 18.3346 10.3215C18.3783 10.7718 18.4354 11.2221 18.459 11.6656C18.4833 11.8819 18.4633 12.1009 18.4003 12.3092C18.3372 12.5176 18.2324 12.7109 18.0921 12.8774C17.9519 13.0438 17.7793 13.18 17.5847 13.2776C17.3901 13.3752 17.1777 13.4321 16.9604 13.4449C16.7431 13.4577 16.5255 13.4261 16.3208 13.352C16.1162 13.278 15.9287 13.163 15.7699 13.0141C15.6111 12.8652 15.4843 12.6856 15.3972 12.4861C15.3102 12.2866 15.2646 12.0714 15.2634 11.8538V11.7093Z" fill="#EB2227"/>
<path d="M26.977 13.6281C26.973 13.8715 26.9135 14.1109 26.8032 14.328C26.6928 14.545 26.5345 14.7341 26.3402 14.8808C26.1458 15.0276 25.9206 15.1281 25.6816 15.1748C25.4426 15.2214 25.1961 15.213 24.9609 15.1502C24.8112 15.1049 24.6642 15.051 24.5207 14.9889L20.5523 13.329C20.4582 13.2887 20.3574 13.2517 20.2633 13.208C20.0261 13.1133 19.8271 12.9424 19.6975 12.7222C19.568 12.502 19.5152 12.245 19.5476 11.9916C19.5538 11.8344 19.5927 11.6802 19.6616 11.5387C19.7306 11.3973 19.8282 11.2717 19.9482 11.17C20.0683 11.0683 20.2082 10.9926 20.359 10.9478C20.5099 10.903 20.6684 10.89 20.8245 10.9097C21.2176 10.9634 21.6074 11.0743 21.9972 11.165L25.6094 12.0118C25.7236 12.0389 25.8359 12.0737 25.9454 12.116C26.25 12.2342 26.5117 12.442 26.6959 12.7119C26.88 12.9818 26.978 13.3013 26.977 13.6281V13.6281Z" fill="#EB2227"/>
<path d="M15.8581 0.00585572C16.1536 -0.0201958 16.4503 0.041058 16.7113 0.182022C16.9723 0.322987 17.1862 0.537462 17.3265 0.798857C17.4776 1.05554 17.5522 1.35006 17.5415 1.64773C17.5308 1.94539 17.4352 2.23379 17.266 2.47894C17.1899 2.59838 17.1033 2.71082 17.0073 2.81496L14.1344 6.15497C14.0537 6.2457 13.9697 6.33306 13.8823 6.42043C13.6794 6.60043 13.4232 6.70931 13.1527 6.73053C12.8823 6.75175 12.6123 6.68417 12.3837 6.53803C12.1566 6.37247 11.9931 6.13413 11.9203 5.86268C11.8476 5.59123 11.87 5.30305 11.9838 5.04612C12.043 4.9191 12.1115 4.79667 12.1888 4.67986L14.4401 0.956785L14.5813 0.735013C14.7112 0.511962 14.8977 0.327112 15.1218 0.199098C15.346 0.0710841 15.6 0.00443028 15.8581 0.00585572V0.00585572Z" fill="#EB2227"/>
<path d="M15.2637 26.2152C15.3074 25.6608 15.3443 25.1568 15.3847 24.6527C15.4788 23.5573 15.5829 22.4653 15.6703 21.3699C15.6738 21.1508 15.7386 20.9371 15.8574 20.753C15.9762 20.5689 16.1442 20.4217 16.3423 20.3282C16.5112 20.2497 16.6961 20.2119 16.8822 20.2179C17.0684 20.2239 17.2505 20.2735 17.4139 20.3628C17.5774 20.452 17.7176 20.5784 17.8233 20.7317C17.9289 20.885 17.9972 21.061 18.0224 21.2455C18.0627 21.5412 18.0862 21.8369 18.1098 22.1326L18.4458 26.0405C18.4817 26.2922 18.4588 26.5487 18.3789 26.7901C18.299 27.0314 18.1644 27.251 17.9854 27.4316C17.7667 27.6523 17.4883 27.8044 17.1844 27.8692C16.8804 27.9339 16.5642 27.9086 16.2745 27.7962C15.9848 27.6838 15.7342 27.4893 15.5534 27.2365C15.3727 26.9837 15.2696 26.6837 15.257 26.3732C15.2562 26.3204 15.2585 26.2677 15.2637 26.2152V26.2152Z" fill="#EB2227"/>
<path d="M2.20573 23.7186C1.83313 23.7248 1.47002 23.601 1.17882 23.3685C0.88763 23.1359 0.686561 22.8092 0.610193 22.4445C0.533825 22.0797 0.586932 21.6998 0.760381 21.37C0.93383 21.0401 1.21678 20.7811 1.56057 20.6373C1.80645 20.5464 2.05929 20.4756 2.31661 20.4256C3.60692 20.1187 4.89835 19.8163 6.19089 19.5184C6.3946 19.4671 6.60278 19.4356 6.81253 19.4243C7.06836 19.4075 7.32216 19.4795 7.53095 19.6283C7.73975 19.7771 7.89073 19.9935 7.95834 20.2408C8.04286 20.4929 8.03973 20.7661 7.94946 21.0162C7.85919 21.2663 7.68708 21.4785 7.46104 21.6185C7.32482 21.6978 7.18205 21.7652 7.0343 21.8201C5.69023 22.3846 4.34616 22.9424 3.02561 23.5002C2.77259 23.6347 2.49212 23.7094 2.20573 23.7186V23.7186Z" fill="#EB2227"/>
<path d="M5.6668 10.792C5.67972 11.0208 5.62225 11.2482 5.5021 11.4434C5.38196 11.6387 5.20491 11.7924 4.99477 11.884C4.78341 11.9885 4.54536 12.0264 4.312 11.9928C4.07865 11.9592 3.86096 11.8557 3.68766 11.6959C3.60899 11.6255 3.53596 11.5491 3.46925 11.4674L0.478692 8.00975C0.257173 7.76209 0.101218 7.46289 0.0250682 7.13946C-0.0494587 6.72343 0.0437144 6.29481 0.284229 5.94726C0.524743 5.59971 0.893044 5.36149 1.30865 5.28465C1.64668 5.22012 1.99648 5.26518 2.30712 5.41325C2.61777 5.56132 2.87304 5.80467 3.03578 6.10789C3.82543 7.42844 4.62851 8.74227 5.42487 10.0527C5.5779 10.2693 5.6622 10.5269 5.6668 10.792V10.792Z" fill="#EB2227"/>
</svg>
