<svg width="99" height="40" viewBox="0 0 99 40" fill="none" xmlns="http://www.w3.org/2000/svg">
<path d="M63.5153 32.0413C63.4878 31.3737 63.4695 30.8067 63.4467 30.2351C63.3674 28.2872 63.2912 26.3393 63.218 24.3915C63.1586 23.0197 63.1037 21.648 63.0351 20.2762C62.9985 19.5172 62.9345 18.7581 62.875 17.99C62.8525 17.8825 62.8172 17.7781 62.7699 17.679C62.5046 17.7568 62.4772 17.9625 62.4086 18.1363C61.8415 19.4486 61.2699 20.7563 60.7166 22.0732C59.8385 24.1537 58.9742 26.2433 58.1008 28.3284C58.0231 28.525 57.927 28.717 57.8493 28.8954C56.5222 29.0032 55.1886 29.0032 53.8616 28.8954C53.7793 28.7079 53.6787 28.493 53.5872 28.2781C52.1879 24.9706 50.79 21.6632 49.3937 18.3558C49.3144 18.1567 49.2227 17.9628 49.1194 17.7751C49.0919 17.7248 49.005 17.7156 48.9136 17.6699C48.8003 18.1186 48.739 18.5789 48.7307 19.0416C48.6209 21.4651 48.5203 23.8931 48.4151 26.3165C48.3374 28.0769 48.2688 29.8327 48.191 31.5931C48.191 31.7303 48.159 31.8675 48.1453 31.9818C48.0676 32.023 48.0264 32.0641 47.9853 32.0641H43.2019C43.0875 32.0641 42.9732 32.0641 42.9046 32.0367C42.836 32.0092 42.8223 31.9681 42.8132 31.9498C42.8064 31.9274 42.8064 31.9036 42.8132 31.8812C42.8132 31.5017 42.8132 31.1222 42.8132 30.7427C43.2064 23.4724 43.6272 16.2067 44.5326 8.97758C44.5326 8.79011 44.6058 8.60721 44.6515 8.40145C44.7646 8.36535 44.881 8.34083 44.9991 8.32829H49.7825C49.8855 8.3362 49.9879 8.35148 50.0888 8.37401C50.1666 8.51119 50.258 8.64836 50.3266 8.79468C52.1559 12.5624 53.9348 16.3484 55.5125 20.2259C55.5856 20.4134 55.6039 20.6512 55.8966 20.738C56.2095 20.194 56.4698 19.6214 56.674 19.0279C56.9484 18.4198 57.1999 17.8025 57.4651 17.1989C57.7304 16.5954 57.9865 16.0238 58.2517 15.4385C58.5169 14.8532 58.7822 14.2725 59.052 13.6873C59.3218 13.102 59.5962 12.5213 59.8706 11.9406C60.1449 11.3599 60.4376 10.738 60.7257 10.1116L61.5534 8.38316C62.1592 8.29816 62.7722 8.27518 63.3826 8.31457C64 8.31457 64.6174 8.31457 65.2119 8.31457C65.8068 8.278 66.4038 8.29637 66.9953 8.36944C67.1545 8.79695 67.2396 9.24849 67.2468 9.70461C68.0883 16.2799 68.9937 30.5781 68.8291 31.9955C68.2485 32.0703 67.662 32.0902 67.0776 32.055C66.506 32.055 65.9344 32.055 65.3628 32.055L63.5153 32.0413Z" fill="white"/>
<path d="M97.8815 25.6582C98.3564 27.2725 98.7261 28.916 98.9882 30.5782C98.8419 30.6605 98.6864 30.7611 98.5309 30.8388C97.231 31.4332 95.839 31.8013 94.4152 31.9271C93.0645 32.0653 91.7012 32.0176 90.3635 31.7853C86.449 31.104 83.8606 28.8361 82.5024 25.1369C82.0538 23.88 81.8023 22.5612 81.757 21.2274C81.6633 19.7063 81.7601 18.1795 82.0451 16.6824C82.3425 15.1618 82.9377 13.715 83.7966 12.4254C85.1617 10.3819 87.2639 8.94515 89.6638 8.41531C92.5964 7.69394 95.6818 7.91636 98.4806 9.05088C98.5675 9.08289 98.6498 9.12404 98.7687 9.17891C98.767 9.31703 98.7532 9.45473 98.7275 9.59044C98.3708 10.9713 98.0111 12.3507 97.6483 13.7285C97.6209 13.82 97.5797 13.9023 97.5248 14.0349C97.3876 14.0075 97.2596 13.9892 97.1316 13.9526C96.3084 13.724 95.4898 13.4679 94.6575 13.2759C93.6089 13.0362 92.5174 13.0582 91.4793 13.3399C90.852 13.4916 90.2671 13.7829 89.7683 14.1923C89.2694 14.6016 88.8695 15.1183 88.5983 15.7039C88.22 16.4755 87.9757 17.3058 87.8757 18.1593C87.6712 19.6478 87.7099 21.1596 87.9901 22.6358C88.0993 23.1718 88.2616 23.6957 88.4748 24.1996C88.7686 24.9122 89.2514 25.5312 89.8711 25.9897C90.4908 26.4482 91.224 26.7288 91.9915 26.8013C93.7476 27.0388 95.5348 26.7558 97.1316 25.9874L97.8815 25.6582Z" fill="white"/>
<path d="M72.7849 8.11811C72.8731 8.07135 72.9668 8.03601 73.0639 8.01294C74.8199 8.01294 76.579 8.01294 78.3411 8.01294C78.4663 8.02318 78.5902 8.04461 78.7116 8.07695C78.744 8.21565 78.7685 8.35611 78.7847 8.49762C78.7847 8.6851 78.7847 8.87714 78.7847 9.06461V31.0995C78.7847 31.4058 78.7847 31.7122 78.7847 32.0506C78.6162 32.0913 78.4451 32.1204 78.2725 32.1374C76.6324 32.1374 74.9906 32.1374 73.3474 32.1374C73.1812 32.1255 73.0161 32.101 72.8535 32.0643C72.8312 31.9403 72.8159 31.8151 72.8078 31.6893C72.7925 23.8582 72.7849 16.0011 72.7849 8.11811Z" fill="white"/>
<path d="M22.7558 27.1581C22.2075 27.1925 21.6675 27.0115 21.2506 26.6536C20.8338 26.2958 20.5732 25.7894 20.5242 25.2423C20.4604 24.7181 20.5901 24.1887 20.889 23.7534C21.1879 23.3182 21.6355 23.007 22.1476 22.8783C22.9113 22.7045 23.6704 22.5216 24.4341 22.3524C26.0804 21.9866 27.7267 21.6346 29.3684 21.2642C29.6656 21.1737 29.9818 21.1658 30.283 21.2413C30.5388 21.3069 30.7702 21.4449 30.9495 21.6388C31.1288 21.8326 31.2483 22.0741 31.2937 22.3342C31.3705 22.6188 31.3557 22.9204 31.2515 23.1961C31.1472 23.4719 30.9588 23.7078 30.7129 23.8705C30.5532 23.9733 30.3849 24.062 30.2099 24.1357L23.8076 26.9112C23.4814 27.0754 23.121 27.16 22.7558 27.1581Z" fill="#EB2227"/>
<path d="M22.1143 22.732L22.1143 22.732L22.1111 22.7328C21.5635 22.8704 21.085 23.2031 20.7654 23.6685C20.4462 24.1333 20.3074 24.6984 20.375 25.258C20.428 25.8432 20.7071 26.3847 21.1529 26.7675C21.5981 27.1497 22.1746 27.3435 22.7601 27.3082C23.1458 27.3093 23.5264 27.2199 23.8712 27.0472L30.2681 24.274C30.2683 24.2739 30.2686 24.2738 30.2688 24.2737C30.4516 24.1966 30.6273 24.1039 30.7941 23.9967L30.7941 23.9967L30.7957 23.9956C31.0678 23.8156 31.2764 23.5544 31.3918 23.2492C31.5064 22.9461 31.5233 22.6148 31.4403 22.3016C31.389 22.0157 31.2569 21.7503 31.0596 21.5369C30.8607 21.3219 30.604 21.1688 30.3203 21.096V21.096L30.3195 21.0958C29.9936 21.0141 29.6518 21.0221 29.3301 21.1191C28.3726 21.3351 27.4145 21.5446 26.4553 21.7544C25.7714 21.904 25.0869 22.0537 24.4016 22.206C23.9496 22.3061 23.4976 22.4114 23.0463 22.5166C22.7353 22.5891 22.4245 22.6614 22.1143 22.732Z" stroke="#FFFAFA" stroke-opacity="0.8" stroke-width="0.3"/>
<path d="M14.9407 24.0764C15.2373 24.0975 15.526 24.1814 15.7878 24.3225C16.0495 24.4636 16.2783 24.6587 16.4589 24.8949C16.5873 25.0657 16.7049 25.2444 16.8111 25.4299C17.9452 27.3534 19.0732 29.2723 20.1951 31.1866C20.3103 31.3675 20.4142 31.5553 20.5061 31.7491C20.6512 32.0635 20.6813 32.4189 20.591 32.7532C20.5008 33.0875 20.2959 33.3795 20.0122 33.5781C19.7253 33.7763 19.3763 33.8638 19.0298 33.8243C18.6833 33.7848 18.3629 33.6209 18.1281 33.3632C17.5565 32.7596 17.0168 32.124 16.4681 31.5021L13.4453 28.0865C13.2898 27.9082 13.1252 27.7298 12.988 27.5378C12.7416 27.1991 12.5973 26.797 12.5721 26.379C12.5469 25.9609 12.6418 25.5444 12.8457 25.1786C13.0495 24.8127 13.3538 24.5128 13.7226 24.3143C14.0914 24.1158 14.5093 24.0269 14.927 24.0581L14.9407 24.0764Z" fill="#EB2227"/>
<path d="M16.5788 24.8048L16.5789 24.8048L16.5781 24.8038C16.3845 24.5507 16.1394 24.3417 15.859 24.1905C15.5989 24.0503 15.3139 23.9628 15.0205 23.9328L15.0061 23.9136L14.9382 23.9085C14.4919 23.8752 14.0455 23.9701 13.6515 24.1822C13.2575 24.3943 12.9324 24.7147 12.7146 25.1055C12.4968 25.4964 12.3954 25.9414 12.4224 26.388C12.4493 26.8344 12.6033 27.2638 12.8663 27.6255C12.9826 27.7882 13.1183 27.9421 13.2464 28.0874C13.2755 28.1204 13.3042 28.153 13.3322 28.1851L13.3322 28.1851L13.333 28.1859L16.3556 31.6014C16.3556 31.6014 16.3556 31.6014 16.3556 31.6014C16.4975 31.7622 16.6392 31.9243 16.7812 32.087C17.1858 32.5501 17.5936 33.0169 18.0182 33.4653C18.2774 33.7493 18.6307 33.9298 19.0128 33.9733C19.3953 34.017 19.7807 33.9204 20.0975 33.7015L20.0982 33.7009C20.4107 33.4822 20.6364 33.1605 20.7359 32.7923C20.8353 32.424 20.8022 32.0325 20.6422 31.6862L20.6423 31.6862L20.6416 31.6848C20.5474 31.4863 20.4411 31.2938 20.3231 31.1084C19.2017 29.195 18.0743 27.2771 16.9408 25.3545C16.8317 25.1639 16.7108 24.9803 16.5788 24.8048Z" stroke="#FFFAFA" stroke-opacity="0.8" stroke-width="0.3"/>
<path d="M11.0854 16.9066C11.4854 16.9027 11.8787 17.0096 12.2218 17.2154C12.5648 17.4211 12.8442 17.7178 13.029 18.0726C13.2219 18.4175 13.3151 18.8093 13.2982 19.2042C13.2812 19.599 13.1548 19.9814 12.9329 20.3085C12.8262 20.4701 12.7069 20.6229 12.5762 20.7658C11.0336 22.5125 9.48945 24.2576 7.94377 26.0013C7.76076 26.2174 7.54281 26.4014 7.29897 26.5454C7.04614 26.6831 6.7564 26.7377 6.47079 26.7016C6.18518 26.6655 5.91816 26.5405 5.70755 26.3442C5.49144 26.1548 5.33649 25.9055 5.26239 25.6279C5.1883 25.3503 5.1984 25.0569 5.29141 24.785C5.34297 24.6247 5.4136 24.4712 5.50177 24.3278C6.72124 22.2397 7.95139 20.1515 9.1922 18.0634C9.33575 17.8019 9.53165 17.5727 9.76768 17.3902C10.0037 17.2077 10.2748 17.0757 10.5641 17.0026C10.7425 16.9523 10.93 16.934 11.0854 16.9066Z" fill="#EB2227"/>
<path d="M11.084 16.7566L11.0716 16.7567L11.0594 16.7589C11.0207 16.7657 10.9766 16.7723 10.929 16.7795C10.8061 16.7979 10.6603 16.8198 10.5254 16.8577C10.2169 16.936 9.92773 17.0768 9.67593 17.2715C9.42428 17.4661 9.21531 17.7103 9.06196 17.989C7.82168 20.0762 6.59205 22.1634 5.37308 24.2507C5.27928 24.4035 5.20406 24.5671 5.14903 24.7378C5.04682 25.0374 5.03582 25.3607 5.11747 25.6666C5.19903 25.9722 5.36939 26.2467 5.60697 26.4555C5.84035 26.6723 6.1359 26.8105 6.45198 26.8504C6.76881 26.8905 7.09022 26.8299 7.3707 26.6772L7.37074 26.6772L7.37527 26.6746C7.63305 26.5223 7.86351 26.3279 8.05712 26.0995C9.6022 24.3566 11.1458 22.6121 12.6878 20.8661C12.8233 20.7179 12.9469 20.5594 13.0576 20.392C13.2947 20.042 13.4299 19.633 13.448 19.2106C13.4662 18.7887 13.3668 18.37 13.161 18.0013C12.9634 17.6229 12.6651 17.3064 12.2989 17.0867C11.9322 16.8667 11.5117 16.7524 11.084 16.7566Z" stroke="#FFFAFA" stroke-opacity="0.8" stroke-width="0.3"/>
<path d="M16.7972 15.64C16.3874 15.6068 15.988 15.4934 15.622 15.3062L10.7288 13.1754C10.1618 12.9331 9.59013 12.7182 9.03222 12.4347C8.73325 12.3029 8.48696 12.075 8.33259 11.7871C8.17822 11.4992 8.12465 11.1679 8.18041 10.846C8.23616 10.5241 8.39804 10.2301 8.64026 10.0109C8.88248 9.79169 9.1911 9.65982 9.51696 9.6363C9.70617 9.63318 9.89506 9.65314 10.0794 9.69575L17.0259 11.2275C17.1676 11.2595 17.3048 11.3007 17.4374 11.3418C17.8712 11.4761 18.2525 11.7419 18.5286 12.1023C18.8047 12.4627 18.9619 12.9 18.9786 13.3537C18.9922 13.808 18.8626 14.2551 18.6082 14.6317C18.3538 15.0083 17.9875 15.2955 17.5609 15.4525C17.3106 15.5313 17.0555 15.5939 16.7972 15.64Z" fill="#EB2227"/>
<path d="M17.4819 11.1986C17.3488 11.1573 17.2068 11.1146 17.0589 11.0812L17.0582 11.0811L10.1132 9.5496C10.113 9.54954 10.1127 9.54948 10.1125 9.54942C9.91644 9.50419 9.71564 9.483 9.51449 9.48632L9.51448 9.48609L9.50616 9.48669C9.1469 9.51262 8.80665 9.65801 8.5396 9.89971C8.27256 10.1414 8.09408 10.4655 8.03261 10.8204C7.97113 11.1753 8.0302 11.5405 8.2004 11.8579C8.36993 12.1741 8.64001 12.4247 8.96788 12.5702C9.37232 12.7755 9.78653 12.9465 10.1947 13.1149C10.3542 13.1807 10.5127 13.2462 10.6694 13.3132C10.6696 13.3132 10.6697 13.3133 10.6699 13.3133L15.5578 15.4419C15.9403 15.6368 16.3572 15.7549 16.7851 15.7895L16.8045 15.7911L16.8235 15.7877C17.0882 15.7405 17.3495 15.6763 17.606 15.5956L17.606 15.5958L17.6127 15.5933C18.0688 15.4254 18.4605 15.1184 18.7325 14.7157C19.0045 14.313 19.143 13.835 19.1285 13.3492L19.1285 13.3482C19.1107 12.8635 18.9426 12.3962 18.6476 12.0111C18.3527 11.626 17.9453 11.3421 17.4819 11.1986ZM17.4819 11.1986L17.4374 11.3418M17.4819 11.1986C17.4819 11.1986 17.4818 11.1986 17.4818 11.1986L17.4374 11.3418M17.4374 11.3418C17.8712 11.4761 18.2525 11.7419 18.5286 12.1023C18.8047 12.4627 18.9619 12.9 18.9786 13.3537M17.4374 11.3418C17.3048 11.3007 17.1676 11.2595 17.0259 11.2275L18.9786 13.3537M18.9786 13.3537C18.9922 13.808 18.8626 14.2551 18.6082 14.6317C18.3538 15.0083 17.9875 15.2955 17.5609 15.4525C17.3106 15.5313 17.0555 15.5939 16.7972 15.64L18.9786 13.3537Z" stroke="#FFFAFA" stroke-opacity="0.8" stroke-width="0.3"/>
<path d="M21.7727 16.934C21.8322 16.2618 21.8825 15.672 21.9419 15.105C22.0852 13.5808 22.2285 12.0673 22.3718 10.5645C22.4084 10.185 22.4495 9.81002 22.4952 9.4305C22.5249 9.06906 22.6881 8.73162 22.9531 8.484C23.2181 8.23639 23.5658 8.09635 23.9285 8.09121C24.2911 8.08607 24.6427 8.2162 24.9146 8.45621C25.1865 8.69622 25.3592 9.02889 25.3991 9.38935C25.4814 10.0021 25.518 10.6194 25.5775 11.2183C25.7009 12.4941 25.829 13.7698 25.9525 15.0455C26.0119 15.6582 26.0896 16.271 26.1217 16.8745C26.1548 17.1689 26.1276 17.4669 26.0418 17.7504C25.956 18.0339 25.8133 18.2969 25.6224 18.5235C25.4316 18.75 25.1966 18.9353 24.9318 19.0681C24.667 19.2009 24.378 19.2784 24.0822 19.2958C23.7865 19.3132 23.4903 19.2702 23.2118 19.1694C22.9332 19.0686 22.6781 18.9121 22.462 18.7096C22.2459 18.507 22.0733 18.2625 21.9548 17.991C21.8363 17.7195 21.7744 17.4268 21.7727 17.1306V16.934Z" fill="#EB2227"/>
<path d="M21.6227 16.9207L21.6233 16.9208C21.6319 16.8231 21.6404 16.7271 21.6487 16.6326C21.6975 16.078 21.7417 15.5757 21.7926 15.0901C21.9359 13.5662 22.0792 12.0529 22.2224 10.5502L22.2225 10.5501C22.2591 10.1702 22.3003 9.79495 22.346 9.41533C22.3793 9.01781 22.5592 8.64682 22.8507 8.37441C23.1429 8.10133 23.5264 7.94689 23.9264 7.94123C24.3263 7.93556 24.714 8.07906 25.0139 8.34375C25.3133 8.60804 25.5037 8.97423 25.548 9.37108C25.6021 9.77438 25.637 10.1832 25.671 10.5833C25.6889 10.7932 25.7066 11.0006 25.7267 11.2035L25.7268 11.2039C25.7885 11.8416 25.8514 12.4793 25.9142 13.1172L25.9143 13.1181C25.9772 13.7556 26.04 14.3933 26.1018 15.0311M21.6227 16.9207L25.9525 15.0455M21.6227 16.9207V16.934L21.6227 17.1306L21.6227 17.1314C21.6245 17.448 21.6907 17.7609 21.8174 18.051C21.944 18.3412 22.1285 18.6025 22.3594 18.819C22.5904 19.0355 22.863 19.2027 23.1607 19.3104C23.4585 19.4182 23.775 19.4641 24.091 19.4455C24.4071 19.4269 24.7161 19.3441 24.9991 19.2022C25.2821 19.0603 25.5332 18.8622 25.7372 18.6201C25.9411 18.378 26.0936 18.0968 26.1853 17.7938C26.2766 17.4923 26.3058 17.1753 26.2712 16.8622M21.6227 16.9207L26.1217 16.8745M26.1018 15.0311L25.9525 15.0455M26.1018 15.0311C26.1018 15.0311 26.1018 15.0311 26.1018 15.031L25.9525 15.0455M26.1018 15.0311C26.1187 15.206 26.1373 15.382 26.156 15.5586C26.2019 15.9932 26.2482 16.431 26.2712 16.8622M25.9525 15.0455C25.9697 15.2233 25.9885 15.401 26.0072 15.5785C26.0532 16.013 26.0989 16.446 26.1217 16.8745M26.2712 16.8622C26.271 16.8607 26.2709 16.8592 26.2707 16.8577L26.1217 16.8745M26.2712 16.8622C26.2713 16.8637 26.2714 16.8651 26.2714 16.8666L26.1217 16.8745" stroke="#FFFAFA" stroke-opacity="0.8" stroke-width="0.3"/>
<path d="M37.7142 19.545C37.7087 19.8763 37.6279 20.2021 37.4777 20.4974C37.3275 20.7928 37.112 21.0501 36.8475 21.2498C36.583 21.4495 36.2765 21.5862 35.9513 21.6498C35.626 21.7133 35.2906 21.7019 34.9704 21.6164C34.7667 21.5547 34.5667 21.4814 34.3713 21.3969L28.9706 19.1381C28.8425 19.0832 28.7053 19.0329 28.5773 18.9735C28.2544 18.8445 27.9835 18.612 27.8072 18.3123C27.6309 18.0127 27.5592 17.663 27.6032 17.3182C27.6117 17.1042 27.6645 16.8944 27.7584 16.7019C27.8522 16.5094 27.9851 16.3386 28.1484 16.2001C28.3118 16.0617 28.5022 15.9587 28.7075 15.8977C28.9128 15.8368 29.1285 15.8191 29.341 15.8459C29.876 15.919 30.4065 16.0699 30.937 16.1934L35.853 17.3456C36.0084 17.3825 36.1612 17.4299 36.3103 17.4874C36.7249 17.6483 37.081 17.931 37.3316 18.2983C37.5823 18.6657 37.7156 19.1003 37.7142 19.545Z" fill="#EB2227"/>
<path d="M37.8642 19.5475L37.8642 19.5455C37.8657 19.0705 37.7233 18.6062 37.4555 18.2138C37.1878 17.8214 36.8074 17.5194 36.3645 17.3476L36.3643 17.3475C36.2089 17.2875 36.0496 17.2381 35.8876 17.1997L35.8872 17.1996L30.9712 16.0473L30.971 16.0473C30.8382 16.0164 30.7039 15.9833 30.5684 15.95C30.1725 15.8525 29.7668 15.7527 29.3613 15.6973L29.3613 15.6972L29.3597 15.697C29.1266 15.6677 28.89 15.6871 28.6648 15.754C28.4396 15.8209 28.2307 15.9338 28.0515 16.0857C27.8722 16.2376 27.7265 16.425 27.6235 16.6362C27.5215 16.8453 27.4637 17.0733 27.4536 17.3057C27.4071 17.6814 27.4859 18.062 27.678 18.3884C27.8704 18.7155 28.1658 18.9696 28.5178 19.1112C28.5968 19.1477 28.6851 19.1834 28.768 19.2169C28.819 19.2375 28.8679 19.2573 28.9115 19.2759L28.9115 19.2759L28.9127 19.2765L34.3126 21.5349C34.5129 21.6215 34.718 21.6967 34.9269 21.7599L34.9269 21.76L34.9317 21.7613C35.2739 21.8527 35.6324 21.8649 35.98 21.797C36.3276 21.7291 36.6552 21.5829 36.9379 21.3695C37.2206 21.1561 37.4509 20.8811 37.6114 20.5654C37.7719 20.2497 37.8583 19.9016 37.8642 19.5475Z" stroke="#FFFAFA" stroke-opacity="0.8" stroke-width="0.3"/>
<path d="M22.5822 1.00797C22.9844 0.972518 23.3881 1.05587 23.7433 1.24769C24.0986 1.43952 24.3897 1.73137 24.5806 2.08708C24.7863 2.43637 24.8878 2.83716 24.8732 3.24221C24.8586 3.64727 24.7285 4.03972 24.4983 4.37333C24.3947 4.53585 24.2768 4.68887 24.1462 4.83057L20.2362 9.37564C20.1265 9.49909 20.0122 9.61798 19.8933 9.73686C19.617 9.98181 19.2684 10.13 18.9003 10.1588C18.5322 10.1877 18.1648 10.0958 17.8537 9.8969C17.5446 9.6716 17.3221 9.34727 17.2231 8.97788C17.1241 8.6085 17.1546 8.21635 17.3095 7.86671C17.3899 7.69387 17.4832 7.52727 17.5884 7.36831L20.6524 2.30198L20.8444 2.0002C21.0213 1.69667 21.2751 1.44513 21.5802 1.27093C21.8852 1.09673 22.2309 1.00603 22.5822 1.00797Z" fill="#EB2227"/>
<path d="M20.3483 9.4753L20.3483 9.47531L20.3499 9.47346L24.2582 4.93033C24.3936 4.78331 24.5157 4.62468 24.6233 4.45626C24.8688 4.09962 25.0075 3.68033 25.0231 3.24761C25.0387 2.81496 24.9305 2.38686 24.7114 2.01353C24.5066 1.63314 24.1948 1.32101 23.8146 1.11571C23.4356 0.911044 23.0051 0.821487 22.576 0.857943C22.2007 0.857097 21.8317 0.954554 21.5058 1.14067C21.1787 1.32745 20.9064 1.59694 20.7163 1.92209L20.5258 2.22145L20.5258 2.22143L20.524 2.22436L17.4617 7.28808C17.353 7.45249 17.2567 7.62474 17.1735 7.80341L17.1735 7.8034L17.1724 7.80594C17.0035 8.18692 16.9703 8.61422 17.0782 9.01672C17.1861 9.41921 17.4286 9.77262 17.7653 10.0181L17.7652 10.0183L17.7729 10.0233C18.1115 10.2397 18.5114 10.3398 18.912 10.3084C19.3127 10.277 19.6921 10.1157 19.9928 9.8491L19.9929 9.8493L19.9993 9.84294C20.1195 9.72274 20.236 9.60163 20.3483 9.4753Z" stroke="#FFFAFA" stroke-opacity="0.8" stroke-width="0.3"/>
<path d="M21.7728 36.6734C21.8322 35.919 21.8825 35.2331 21.9374 34.5472C22.0654 33.0566 22.2072 31.5705 22.3261 30.0799C22.3309 29.7818 22.4191 29.491 22.5808 29.2404C22.7424 28.9899 22.9711 28.7897 23.2407 28.6624C23.4705 28.5556 23.7222 28.5041 23.9755 28.5123C24.2288 28.5205 24.4767 28.588 24.6991 28.7094C24.9216 28.8309 25.1124 29.0028 25.2562 29.2115C25.4 29.4201 25.4929 29.6596 25.5272 29.9107C25.5821 30.3131 25.6141 30.7155 25.6461 31.1178L26.1034 36.4357C26.1523 36.7781 26.1211 37.1273 26.0124 37.4557C25.9037 37.7841 25.7204 38.0829 25.4769 38.3287C25.1792 38.629 24.8003 38.836 24.3867 38.9241C23.9731 39.0122 23.5427 38.9777 23.1484 38.8248C22.7541 38.6718 22.413 38.4071 22.1671 38.0631C21.9211 37.7192 21.7809 37.3109 21.7636 36.8883C21.7626 36.8166 21.7656 36.7448 21.7728 36.6734Z" fill="#EB2227"/>
<path d="M21.788 34.5344H21.788L21.7879 34.5352C21.7583 34.9049 21.73 35.2757 21.7008 35.657C21.676 35.9818 21.6506 36.3142 21.6234 36.6601C21.6158 36.7367 21.6125 36.8136 21.6136 36.8905H21.6136L21.6138 36.8944C21.6322 37.3461 21.7821 37.7826 22.045 38.1504C22.308 38.5181 22.6726 38.8011 23.0942 38.9646C23.5157 39.1281 23.9757 39.165 24.4179 39.0708C24.8601 38.9766 25.2652 38.7554 25.5835 38.4343L25.5835 38.4342C25.8433 38.172 26.0388 37.8532 26.1548 37.5028C26.2703 37.1537 26.3038 36.7828 26.2525 36.4187L25.7957 31.1059L25.7956 31.105L25.7955 31.1039C25.7636 30.7029 25.7313 30.297 25.6759 29.8904L25.6758 29.8904C25.6383 29.616 25.5369 29.3543 25.3797 29.1264C25.2225 28.8984 25.014 28.7105 24.771 28.5778C24.5279 28.4451 24.2571 28.3713 23.9803 28.3624C23.7036 28.3535 23.4286 28.4096 23.1775 28.5264L23.1775 28.5264L23.1767 28.5268C22.8817 28.666 22.6316 28.885 22.4547 29.1591C22.2788 29.4318 22.1823 29.7482 22.1762 30.0726C22.1024 30.9981 22.0198 31.9209 21.9371 32.8449C21.8868 33.4073 21.8364 33.9701 21.788 34.5344Z" stroke="#FFFAFA" stroke-opacity="0.8" stroke-width="0.3"/>
<path d="M4.00192 33.2761C3.49484 33.2846 3.00066 33.1161 2.60436 32.7997C2.20806 32.4833 1.93441 32.0386 1.83048 31.5423C1.72655 31.046 1.79882 30.529 2.03488 30.0801C2.27094 29.6313 2.65602 29.2788 3.1239 29.0831C3.45853 28.9595 3.80263 28.8631 4.15283 28.7951C5.90887 28.3774 7.66644 27.9659 9.42553 27.5605C9.70277 27.4908 9.98608 27.4479 10.2715 27.4325C10.6197 27.4096 10.9651 27.5077 11.2493 27.7101C11.5335 27.9126 11.7389 28.207 11.8309 28.5436C11.946 28.8866 11.9417 29.2584 11.8189 29.5987C11.696 29.939 11.4618 30.2278 11.1541 30.4183C10.9688 30.5262 10.7744 30.618 10.5734 30.6927C8.74415 31.4608 6.91494 32.2199 5.11774 32.9789C4.7734 33.1619 4.39169 33.2636 4.00192 33.2761Z" fill="#EB2227"/>
<path d="M4.00442 33.4261L4.00442 33.4261L4.00674 33.426C4.41716 33.4129 4.81914 33.3063 5.18216 33.1145C6.24757 32.6646 7.32372 32.2148 8.40473 31.763C9.14435 31.4539 9.88626 31.1439 10.6286 30.8322C10.8366 30.7547 11.0377 30.6596 11.2296 30.5479L11.2296 30.548L11.2331 30.5458C11.5695 30.3376 11.8256 30.0218 11.9599 29.6497C12.0938 29.2789 12.0989 28.8739 11.9745 28.4999C11.8728 28.1317 11.6475 27.8097 11.3363 27.588C11.0243 27.3656 10.645 27.2578 10.2626 27.2827C9.96831 27.2987 9.67624 27.3429 9.39041 27.4147C7.63246 27.8198 5.87604 28.2311 4.12114 28.6484C3.76404 28.718 3.41315 28.8163 3.0719 28.9424L3.07185 28.9423L3.06603 28.9447C2.56598 29.1538 2.15441 29.5306 1.90212 30.0103C1.64983 30.49 1.57258 31.0426 1.68366 31.5731C1.79475 32.1035 2.08721 32.5787 2.51076 32.9169C2.93432 33.2551 3.46248 33.4351 4.00442 33.4261Z" stroke="#FFFAFA" stroke-opacity="0.8" stroke-width="0.3"/>
<path d="M8.71223 15.6859C8.72982 15.9974 8.65159 16.3067 8.48808 16.5724C8.32457 16.8381 8.08362 17.0473 7.79762 17.172C7.50998 17.3141 7.186 17.3657 6.86842 17.32C6.55084 17.2743 6.25458 17.1334 6.01872 16.9159C5.91165 16.8202 5.81226 16.7163 5.72147 16.605L1.65148 11.8999C1.35 11.5629 1.13775 11.1557 1.03412 10.7156C0.932689 10.1495 1.05949 9.56622 1.38682 9.09328C1.71415 8.62033 2.21539 8.29616 2.78101 8.1916C3.24105 8.10379 3.71711 8.1651 4.13988 8.36659C4.56265 8.56809 4.91007 8.89924 5.13155 9.31186C6.20621 11.1088 7.29916 12.8967 8.38297 14.68C8.59124 14.9746 8.70597 15.3252 8.71223 15.6859Z" fill="#EB2227"/>
<path d="M0.886467 10.7421L0.886252 10.7421L0.88811 10.75C0.997393 11.2141 1.2211 11.6435 1.53884 11.999L5.60664 16.7015C5.70178 16.8179 5.80586 16.9268 5.91792 17.027C6.17593 17.2646 6.49985 17.4185 6.84705 17.4685C7.19347 17.5184 7.54684 17.4624 7.86087 17.308C8.17349 17.171 8.43689 16.9418 8.61583 16.651C8.79489 16.3601 8.88081 16.0214 8.86215 15.6804C8.85484 15.2923 8.73167 14.9153 8.50851 14.5977C8.28106 14.2235 8.05324 13.8491 7.8253 13.4745C6.96827 12.0661 6.1095 10.6548 5.26204 9.2378C5.02537 8.79849 4.65495 8.44591 4.20441 8.23119C3.75294 8.01602 3.24459 7.9505 2.75332 8.04417C2.14889 8.15603 1.61328 8.50249 1.26348 9.00791C0.913594 9.51345 0.778049 10.1369 0.886467 10.7421Z" stroke="#FFFAFA" stroke-opacity="0.8" stroke-width="0.3"/>
</svg>
