<svg width="40" height="40" viewBox="0 0 40 40" fill="none" xmlns="http://www.w3.org/2000/svg">
<path d="M34.3344 24.7491C33.0979 24.7491 31.9383 24.7214 31.0347 24.6674V14.9227C31.3499 14.9014 32.3235 14.8811 33.7004 14.8474C34.562 14.8257 35.3906 14.8588 36.0372 14.9607C37.5002 15.189 38.0445 15.8812 38.2746 16.2604C38.4962 16.6273 38.643 17.0346 38.6078 17.5641C38.5665 18.1859 38.3508 18.6952 37.7103 19.1977L37.5965 19.2861L37.7261 19.3501C38.1705 19.5724 38.4549 19.9243 38.6495 20.2691C38.8825 20.686 39.0009 21.1605 39.0009 21.6811C39.0009 22.7316 38.6186 23.5146 37.8431 24.0466C37.1563 24.5196 35.9762 24.7494 34.3355 24.7494M33.3615 22.7348C33.8569 22.7643 34.3919 22.7863 34.9297 22.7678C35.3472 22.7532 35.899 22.7206 36.2914 22.3239C36.4622 22.1515 36.5699 21.9276 36.5974 21.6878C36.6249 21.4479 36.5707 21.2059 36.4433 21C36.2013 20.5937 35.7174 20.3892 34.543 20.4034C34.1471 20.4059 33.7516 20.4296 33.3582 20.4744L33.3615 22.7348ZM34.4658 16.6877C34.2504 16.6877 33.691 16.6802 33.3579 16.7406V18.6519L33.4422 18.6597C33.4469 18.6597 33.9039 18.7041 34.4321 18.7041C35.288 18.7041 35.7848 18.6331 36.0836 18.3724C36.3823 18.1117 36.4638 17.6742 36.276 17.302C35.9798 16.7143 35.0553 16.6877 34.464 16.6877" fill="#0054A6"/>
<path d="M28.7842 14.9227H26.4969C26.2929 15.34 24.8676 18.2503 24.2142 19.9119L24.1704 20.0256H24.0925L24.048 19.9119C23.3949 18.2503 21.97 15.34 21.765 14.9227H19.478C18.9837 18.4428 18.7381 23.8865 18.7051 24.6671H20.9831C21.0039 24.0136 21.1414 19.9084 21.2344 18.985L21.2573 18.7517H21.3137L21.4045 18.9584C22.1646 20.6722 23.1436 23.0278 23.3045 23.4174H24.956C25.1168 23.0267 26.0958 20.6722 26.8559 18.9584L26.9464 18.7517H27.0024L27.0253 18.985C27.1212 19.9084 27.2569 24.0147 27.2767 24.6671H29.5543C29.5209 23.8858 29.2753 18.4428 28.7809 14.9227" fill="#0054A6"/>
<path d="M10.1194 22.9201C9.89052 22.9344 9.66506 22.8589 9.49105 22.7095C9.31705 22.5601 9.20824 22.3487 9.18779 22.1203C9.16114 21.9015 9.2153 21.6805 9.34008 21.4988C9.46487 21.317 9.65171 21.1871 9.86551 21.1334C10.1843 21.0609 10.5012 20.9845 10.82 20.9139C11.5073 20.7612 12.1946 20.6142 12.8799 20.4596C13.004 20.4218 13.136 20.4185 13.2617 20.45C13.3685 20.4774 13.4651 20.535 13.54 20.616C13.6148 20.6969 13.6647 20.7977 13.6837 20.9063C13.7157 21.0251 13.7095 21.151 13.666 21.2661C13.6225 21.3812 13.5439 21.4797 13.4412 21.5476C13.3745 21.5905 13.3043 21.6276 13.2312 21.6583L10.5585 22.817C10.4223 22.8855 10.2719 22.9209 10.1194 22.9201Z" fill="#EB2227"/>
<path d="M6.85667 21.6335C6.9805 21.6423 7.10103 21.6773 7.2103 21.7362C7.31957 21.7951 7.41507 21.8766 7.49049 21.9752C7.54408 22.0465 7.59317 22.1211 7.63748 22.1985C8.11093 23.0015 8.58184 23.8026 9.0502 24.6017C9.0983 24.6772 9.14165 24.7557 9.18001 24.8365C9.24062 24.9678 9.25318 25.1161 9.21549 25.2557C9.17781 25.3953 9.09227 25.5172 8.97383 25.6001C8.85408 25.6828 8.70836 25.7194 8.56372 25.7029C8.41907 25.6864 8.28533 25.618 8.1873 25.5104C7.94866 25.2584 7.72339 24.9931 7.4943 24.7335L6.23241 23.3075C6.1675 23.2331 6.09877 23.1587 6.0415 23.0785C5.93865 22.9371 5.8784 22.7692 5.86787 22.5947C5.85734 22.4202 5.89697 22.2463 5.98207 22.0936C6.06718 21.9409 6.19421 21.8157 6.34816 21.7328C6.50212 21.6499 6.67658 21.6128 6.85095 21.6258L6.85667 21.6335Z" fill="#EB2227"/>
<path d="M5.24727 18.6404C5.41426 18.6388 5.57844 18.6834 5.72164 18.7693C5.86484 18.8552 5.98147 18.9791 6.05862 19.1272C6.13918 19.2712 6.17809 19.4347 6.17101 19.5996C6.16393 19.7644 6.11114 19.924 6.01853 20.0606C5.97398 20.128 5.92419 20.1919 5.86962 20.2515C5.22563 20.9807 4.581 21.7092 3.93573 22.4371C3.85934 22.5274 3.76835 22.6041 3.66656 22.6643C3.56101 22.7217 3.44005 22.7446 3.32082 22.7295C3.20159 22.7144 3.09012 22.6622 3.0022 22.5803C2.91198 22.5012 2.84729 22.3971 2.81636 22.2812C2.78543 22.1653 2.78964 22.0429 2.82847 21.9294C2.85 21.8625 2.87948 21.7984 2.91629 21.7385C3.42538 20.8668 3.93892 19.9951 4.45691 19.1234C4.51684 19.0142 4.59862 18.9185 4.69715 18.8423C4.79569 18.7661 4.90887 18.711 5.02963 18.6805C5.10409 18.6595 5.18236 18.6519 5.24727 18.6404Z" fill="#EB2227"/>
<path d="M7.63205 18.1117C7.46095 18.0978 7.29425 18.0505 7.14142 17.9723L5.09871 17.0828C4.86198 16.9816 4.62335 16.8919 4.39044 16.7736C4.26563 16.7186 4.16282 16.6234 4.09837 16.5032C4.03393 16.383 4.01157 16.2447 4.03484 16.1104C4.05812 15.976 4.1257 15.8533 4.22681 15.7617C4.32793 15.6702 4.45677 15.6152 4.5928 15.6054C4.67179 15.6041 4.75065 15.6124 4.82762 15.6302L7.7275 16.2696C7.78668 16.283 7.84395 16.3002 7.89932 16.3174C8.08039 16.3734 8.23956 16.4844 8.35482 16.6348C8.47008 16.7853 8.53572 16.9678 8.54267 17.1573C8.54836 17.3469 8.49427 17.5335 8.38807 17.6908C8.28187 17.848 8.12892 17.9679 7.95086 18.0334C7.84638 18.0663 7.73989 18.0925 7.63205 18.1117Z" fill="#EB2227"/>
<path d="M9.70898 18.6519C9.7338 18.3713 9.7548 18.1251 9.77962 17.8884C9.83944 17.2521 9.89925 16.6203 9.95907 15.9929C9.97434 15.8345 9.99153 15.6779 10.0106 15.5195C10.023 15.3686 10.0911 15.2277 10.2018 15.1244C10.3124 15.021 10.4575 14.9625 10.6089 14.9604C10.7603 14.9582 10.9071 15.0126 11.0206 15.1128C11.1341 15.213 11.2062 15.3518 11.2229 15.5023C11.2572 15.7581 11.2725 16.0158 11.2973 16.2659C11.3489 16.7984 11.4023 17.331 11.4539 17.8636C11.4787 18.1193 11.5111 18.3751 11.5245 18.6271C11.5383 18.75 11.527 18.8744 11.4912 18.9927C11.4553 19.1111 11.3958 19.2209 11.3161 19.3155C11.2364 19.4101 11.1384 19.4874 11.0278 19.5428C10.9173 19.5983 10.7966 19.6306 10.6731 19.6379C10.5497 19.6451 10.426 19.6272 10.3097 19.5851C10.1935 19.543 10.087 19.4777 9.99674 19.3932C9.90653 19.3086 9.83449 19.2065 9.78501 19.0932C9.73554 18.9799 9.70967 18.8576 9.70898 18.734V18.6519Z" fill="#EB2227"/>
<path d="M16.3639 19.7418C16.3617 19.8801 16.3279 20.0161 16.2652 20.1394C16.2025 20.2627 16.1125 20.3702 16.0021 20.4535C15.8917 20.5369 15.7638 20.594 15.628 20.6205C15.4922 20.647 15.3522 20.6422 15.2185 20.6065C15.1335 20.5808 15.05 20.5502 14.9684 20.5149L12.7138 19.5719C12.6603 19.549 12.6031 19.528 12.5496 19.5032C12.4148 19.4494 12.3017 19.3523 12.2281 19.2272C12.1545 19.1022 12.1246 18.9562 12.143 18.8122C12.1465 18.7229 12.1686 18.6353 12.2077 18.5549C12.2469 18.4746 12.3024 18.4033 12.3706 18.3455C12.4388 18.2877 12.5183 18.2447 12.604 18.2192C12.6897 18.1938 12.7797 18.1864 12.8684 18.1976C13.0918 18.2281 13.3132 18.2911 13.5347 18.3426L15.5869 18.8237C15.6518 18.8391 15.7156 18.8588 15.7778 18.8828C15.9509 18.95 16.0996 19.068 16.2042 19.2214C16.3089 19.3747 16.3645 19.5562 16.3639 19.7418V19.7418Z" fill="#EB2227"/>
<path d="M10.0467 12.0033C10.2146 11.9885 10.3831 12.0233 10.5314 12.1034C10.6797 12.1835 10.8013 12.3053 10.881 12.4538C10.9668 12.5996 11.0092 12.7669 11.0031 12.936C10.997 13.1051 10.9427 13.269 10.8466 13.4082C10.8033 13.4761 10.7541 13.54 10.6996 13.5991L9.06735 15.4965C9.02153 15.5481 8.9738 15.5977 8.92417 15.6473C8.80884 15.7496 8.66331 15.8114 8.50965 15.8235C8.35598 15.8355 8.20258 15.7971 8.07272 15.7141C7.94371 15.6201 7.8508 15.4847 7.80946 15.3305C7.76813 15.1763 7.78086 15.0126 7.84554 14.8666C7.87913 14.7944 7.91805 14.7249 7.96199 14.6585L9.24107 12.5435L9.32125 12.4175C9.39509 12.2908 9.50103 12.1858 9.62839 12.1131C9.75575 12.0404 9.90004 12.0025 10.0467 12.0033Z" fill="#EB2227"/>
<path d="M9.70898 26.8923C9.7338 26.5773 9.7548 26.291 9.77771 26.0047C9.83116 25.3824 9.89034 24.762 9.93998 24.1397C9.94198 24.0153 9.97881 23.8939 10.0463 23.7893C10.1138 23.6847 10.2092 23.6011 10.3218 23.548C10.4177 23.5034 10.5228 23.4819 10.6285 23.4853C10.7343 23.4887 10.8378 23.5169 10.9306 23.5676C11.0235 23.6183 11.1031 23.6901 11.1632 23.7772C11.2232 23.8643 11.262 23.9643 11.2763 24.0691C11.2992 24.2371 11.3126 24.4051 11.326 24.573L11.5169 26.793C11.5373 26.936 11.5242 27.0818 11.4789 27.2189C11.4335 27.356 11.357 27.4807 11.2553 27.5833C11.1311 27.7087 10.9729 27.7951 10.8002 27.8319C10.6275 27.8687 10.4479 27.8543 10.2833 27.7904C10.1187 27.7266 9.97627 27.6161 9.87358 27.4725C9.77089 27.3289 9.71235 27.1584 9.70516 26.982C9.70472 26.9521 9.706 26.9221 9.70898 26.8923V26.8923Z" fill="#EB2227"/>
<path d="M2.29057 25.4741C2.07888 25.4776 1.87258 25.4073 1.70714 25.2752C1.5417 25.1431 1.42746 24.9575 1.38407 24.7503C1.34069 24.5431 1.37086 24.3272 1.4694 24.1399C1.56795 23.9525 1.72871 23.8053 1.92403 23.7237C2.06372 23.672 2.20738 23.6318 2.35357 23.6034C3.08666 23.4291 3.82038 23.2573 4.55473 23.088C4.67047 23.0589 4.78874 23.041 4.90791 23.0346C5.05326 23.025 5.19745 23.066 5.31608 23.1505C5.43471 23.235 5.52049 23.3579 5.5589 23.4984C5.60692 23.6416 5.60514 23.7968 5.55386 23.9389C5.50257 24.081 5.40478 24.2015 5.27636 24.281C5.19897 24.3261 5.11785 24.3644 5.03391 24.3956C4.27028 24.7163 3.50665 25.0331 2.75639 25.35C2.61264 25.4264 2.45329 25.4688 2.29057 25.4741V25.4741Z" fill="#EB2227"/>
<path d="M4.25668 18.1307C4.26402 18.2607 4.23137 18.3899 4.16311 18.5008C4.09485 18.6117 3.99426 18.6991 3.87487 18.7511C3.75479 18.8104 3.61954 18.832 3.48696 18.8129C3.35438 18.7938 3.2307 18.735 3.13224 18.6442C3.08754 18.6043 3.04605 18.5609 3.00815 18.5144L1.30908 16.5502C1.18322 16.4095 1.09462 16.2395 1.05135 16.0558C1.00901 15.8195 1.06195 15.576 1.19859 15.3785C1.33524 15.1811 1.54449 15.0458 1.78062 15.0021C1.97267 14.9655 2.1714 14.9911 2.34789 15.0752C2.52439 15.1593 2.66942 15.2975 2.76188 15.4698C3.21051 16.22 3.66678 16.9663 4.11923 17.7108C4.20617 17.8338 4.25407 17.9801 4.25668 18.1307V18.1307Z" fill="#EB2227"/>
</svg>
