<svg width="40" height="40" viewBox="0 0 40 40" fill="none" xmlns="http://www.w3.org/2000/svg">
<g clip-path="url(#clip0_1348_7189)">
<path d="M39.1668 11.6667H0.833496V27.5H39.1668V11.6667Z" fill="#E6E6E6"/>
<path d="M3.3335 34.1667H36.6668C38.0477 34.1667 39.1668 33.0475 39.1668 31.6667V27.5H0.833496V31.6667C0.833496 33.0475 1.95266 34.1667 3.3335 34.1667Z" fill="#E79800"/>
<path d="M36.6668 5.83333H3.3335C1.95266 5.83333 0.833496 6.95249 0.833496 8.33333V12.5H39.1668V8.33333C39.1668 6.95249 38.0477 5.83333 36.6668 5.83333Z" fill="#1A1876"/>
<path d="M16.0317 24H18.2059L19.5667 16.02H17.3917L16.0317 24Z" fill="#1A1876"/>
<path d="M23.9528 19.2242C23.1928 18.855 22.727 18.6083 22.732 18.235C22.732 17.9033 23.1261 17.5483 23.9778 17.5483C24.6745 17.5375 25.2361 17.6792 25.8011 17.9458L26.0961 16.2158C25.6653 16.0542 24.9903 15.8808 24.147 15.8808C21.9978 15.8808 20.4836 16.9633 20.4711 18.5142C20.4586 19.6608 21.552 20.3008 22.377 20.6825C23.2236 21.0733 23.5086 21.3233 23.5045 21.6725C23.4995 22.2075 22.8286 22.4517 22.2028 22.4517C21.2378 22.4517 20.7511 22.3025 19.8753 21.9058L19.5703 23.6925C20.0786 23.915 21.0178 24.1083 21.9936 24.1183C24.2803 24.1183 25.7645 23.0483 25.7811 21.3917C25.787 20.4842 25.2078 19.7933 23.9528 19.2242Z" fill="#1A1876"/>
<path d="M31.6726 16.0275H29.9917C29.4709 16.0275 29.0817 16.17 28.8526 16.6892L25.6226 24.0025H27.9067C27.9067 24.0025 28.2801 23.0192 28.3651 22.8033C28.6151 22.8033 30.8334 22.8067 31.1509 22.8067C31.2159 23.0858 31.4159 24.0025 31.4159 24.0025H33.4342L31.6726 16.0275ZM28.9909 21.1717C29.0809 20.9417 29.9684 18.6625 30.1459 18.1792C30.4401 19.555 30.1534 18.22 30.7967 21.1717H28.9909Z" fill="#1A1876"/>
<path d="M14.2077 16.0258L12.0777 21.4675L11.8511 20.3617L11.0886 16.6942C10.9569 16.1892 10.5752 16.0383 10.1027 16.0208H6.59439L6.56689 16.1867C7.42023 16.3933 8.18273 16.6917 8.85189 17.0617L10.7861 23.9925L13.0877 23.99L16.5119 16.025H14.2077V16.0258Z" fill="#1A1876"/>
</g>
<defs>
<clipPath id="clip0_1348_7189">
<rect width="40" height="40" fill="white"/>
</clipPath>
</defs>
</svg>
