<svg width="72" height="20" viewBox="0 0 72 20" fill="none" xmlns="http://www.w3.org/2000/svg">
<path fill-rule="evenodd" clip-rule="evenodd" d="M69.9992 4.88062L63.8016 4.90275L57.438 10.9454L63.6356 10.9233L69.9992 4.88062Z" fill="#049BD7"/>
<path fill-rule="evenodd" clip-rule="evenodd" d="M64.7199 0H58.478V7.11618L64.7199 10.5138V0Z" fill="#1E417E"/>
<path fill-rule="evenodd" clip-rule="evenodd" d="M53.1113 3.57468H59.4085L69.701 15.8039H63.5919L53.1113 3.57468Z" fill="#A5CE39"/>
<path fill-rule="evenodd" clip-rule="evenodd" d="M55.4458 17.9509H61.5881L64.7201 9.89404L60.7912 10.9233L57.4047 13.0925L55.4458 17.9509Z" fill="#049BD7"/>
<path fill-rule="evenodd" clip-rule="evenodd" d="M64.7204 9.89404L58.5339 9.90511L52.292 15.8371H58.4896L62.9829 11.5652L64.7204 9.89404Z" fill="#1E417E"/>
<path d="M69.9552 6.86164H70.2762H70.4422C70.4422 6.86164 70.5197 6.86164 70.5307 6.78417C70.5417 6.75187 70.5417 6.71686 70.5307 6.68457C70.5469 6.64177 70.5469 6.59456 70.5307 6.55176C70.4764 6.51185 70.4098 6.49227 70.3426 6.49642H69.9774L69.9552 6.86164ZM69.7671 7.50354V6.39682H70.2762H70.5086C70.5647 6.41998 70.612 6.46029 70.6438 6.51197C70.6756 6.56365 70.6903 6.62406 70.6857 6.68457C70.6881 6.72308 70.6825 6.76168 70.6692 6.7979C70.6558 6.83411 70.6351 6.86713 70.6082 6.89484C70.5417 6.95626 70.4552 6.99162 70.3647 6.99445L70.4533 7.06085C70.5055 7.10508 70.5503 7.15739 70.5861 7.21579L70.7853 7.52567H70.5971L70.4422 7.28219L70.3315 7.12725L70.254 7.04978H70.1766H69.922V7.55887L69.7671 7.50354Z" fill="#1E417E"/>
<path d="M70.1985 6.03159C70.019 6.03159 69.8436 6.08482 69.6943 6.18454C69.5451 6.28425 69.4288 6.42599 69.3601 6.59181C69.2914 6.75764 69.2734 6.94011 69.3085 7.11615C69.3435 7.29219 69.4299 7.45389 69.5568 7.58081C69.6837 7.70772 69.8454 7.79415 70.0215 7.82917C70.1975 7.86419 70.38 7.84622 70.5458 7.77753C70.7116 7.70884 70.8534 7.59252 70.9531 7.44329C71.0528 7.29405 71.106 7.11859 71.106 6.9391C71.1075 6.81951 71.0851 6.70084 71.04 6.59006C70.9949 6.47929 70.9281 6.37865 70.8435 6.29409C70.759 6.20952 70.6583 6.14273 70.5476 6.09765C70.4368 6.05257 70.3181 6.03011 70.1985 6.03159V6.03159Z" stroke="#1E417E" stroke-width="0.15598" stroke-linecap="round" stroke-linejoin="round"/>
<path fill-rule="evenodd" clip-rule="evenodd" d="M1.69847 5.61621C3.3422 5.02135 5.07394 4.70592 6.82186 4.68298C9.62153 4.68298 10.8347 5.68153 10.7507 7.78128C10.6761 9.55441 9.5562 15.2471 9.5562 15.2471H6.63521C6.63521 15.2471 7.72708 9.42376 7.72708 8.41587C7.72708 7.40799 6.26192 7.31467 6.00062 7.31467C5.4104 7.29775 4.82382 7.41252 4.28349 7.65063C4.12484 8.58385 2.92099 15.2191 2.92099 15.2191H0L1.69847 5.61621Z" fill="#1E417E"/>
<path fill-rule="evenodd" clip-rule="evenodd" d="M17.1992 10.609C16.5332 10.5518 15.8629 10.5737 15.2021 10.6743C14.8853 10.7681 14.608 10.963 14.4125 11.2293C14.217 11.4956 14.1141 11.8185 14.1196 12.1488C14.1196 13.0167 15.0528 13.5393 15.8553 13.5393C16.1451 13.5524 16.4343 13.5047 16.7046 13.3993C16.9006 12.3261 17.1992 10.609 17.1992 10.609ZM12.2904 7.68802L12.6544 5.34563C13.8288 4.94872 15.055 4.7255 16.294 4.68304C18.0578 4.68304 20.5775 5.06567 20.5775 7.48271C20.5775 8.05198 19.4856 14.2766 19.4203 14.8365C18.2399 15.2247 17.0046 15.4201 15.762 15.4151C14.9221 15.4151 11.2266 15.1538 11.2266 12.2142C11.2266 9.05053 14.8381 8.64924 17.4885 8.94787C17.6845 8.38794 18.0858 7.08143 15.6687 7.08143C14.5217 7.1414 13.3867 7.34519 12.2904 7.68802V7.68802Z" fill="#1E417E"/>
<path fill-rule="evenodd" clip-rule="evenodd" d="M38.0102 10.609C37.3442 10.5518 36.6738 10.5737 36.0131 10.6743C35.6963 10.7681 35.419 10.963 35.2235 11.2293C35.028 11.4956 34.9251 11.8185 34.9305 12.1488C34.9305 13.0167 35.8638 13.5393 36.6663 13.5393C36.9591 13.5523 37.2514 13.5046 37.5249 13.3993C37.7209 12.3261 38.0102 10.609 38.0102 10.609ZM33.1014 7.68802L33.4654 5.34563C34.6398 4.94872 35.866 4.7255 37.1049 4.68304C38.8687 4.68304 41.3884 5.06567 41.3884 7.48271C41.3884 8.05198 40.2966 14.2766 40.2312 14.8365C39.0508 15.2247 37.8156 15.4201 36.573 15.4151C35.7331 15.4151 32.0469 15.1538 32.0469 12.2142C32.0469 9.05053 35.6491 8.64924 38.3088 8.94787C38.4954 8.38794 38.8967 7.08143 36.489 7.08143C35.3388 7.14062 34.2007 7.34442 33.1014 7.68802Z" fill="#1E417E"/>
<path fill-rule="evenodd" clip-rule="evenodd" d="M25.0944 7.73468C25.5718 7.45748 26.1205 7.32761 26.6715 7.36139C26.9292 7.34962 27.1865 7.39138 27.4272 7.48405C27.668 7.57671 27.8869 7.71827 28.0701 7.89979C28.2534 8.0813 28.3971 8.29884 28.492 8.53866C28.587 8.77848 28.6312 9.03539 28.6219 9.29316C28.6219 10.5903 28.0433 13.0261 25.7476 13.0261C25.2211 13.0018 24.7044 12.875 24.2265 12.6528C24.4411 11.2156 25.0944 7.73468 25.0944 7.73468ZM22.5 5.61627C23.8557 5.05678 25.2994 4.74087 26.7648 4.68304C27.4461 4.68304 31.5243 4.68304 31.5243 9.25584C31.5243 10.6837 31.3656 15.3778 25.9903 15.3778C25.2612 15.3313 24.5405 15.1966 23.8438 14.9765L23.0319 19.512H20.0083L22.5 5.61627Z" fill="#1E417E"/>
<path fill-rule="evenodd" clip-rule="evenodd" d="M49.7783 8.21988C49.7783 8.21988 50.1329 6.09214 50.2262 5.70951C49.2713 5.03469 48.1292 4.67572 46.9599 4.68297C45.7001 4.68297 42.5738 4.94427 42.5738 8.08923C42.5511 8.71883 42.7414 9.33769 43.114 9.84573C43.4865 10.3538 44.0196 10.7213 44.6269 10.8889C46.6053 11.6541 46.9506 11.4955 46.9506 12.2794C46.9506 13.0633 46.0174 13.1473 45.5041 13.1473C44.2485 13.0615 43.0584 12.5552 42.1258 11.7101C42.0232 12.7647 41.7805 13.9685 41.7339 14.2205C42.8136 15.0934 44.1846 15.5236 45.5694 15.4244C47.5759 15.4244 49.9369 14.5378 49.9369 11.9248C49.9369 11.0755 49.8156 9.63838 46.3813 8.71449C46.1533 8.68215 45.9436 8.57122 45.7886 8.40086C45.6336 8.23049 45.5429 8.01136 45.5321 7.78127C45.5321 7.45464 45.7934 7.00669 46.9319 7.00669C47.9979 7.04587 49.0118 7.478 49.7783 8.21988V8.21988Z" fill="#1E417E"/>
</svg>
