<svg width="198" height="77" viewBox="0 0 198 77" fill="none" xmlns="http://www.w3.org/2000/svg">
<path d="M102.263 17.9853H92.4917C92.2454 17.5759 91.0138 27.8124 90.439 36.3292C89.8643 44.846 88.879 63.3536 88.879 63.3536H98.8961L100.374 33.2992L110.884 57.6212H117.945L128.455 33.2992L130.015 63.2717H139.95C139.95 63.2717 138.882 47.5485 138.39 39.7687C137.43 24.6186 136.173 17.9853 136.173 17.9853H126.895C126.895 17.9853 121.968 28.3038 120.819 30.7605C119.669 33.2173 114.579 45.0098 114.579 45.0098C114.579 45.0098 109.734 33.2992 108.913 31.5795C107.764 28.7132 102.263 17.9853 102.263 17.9853Z" fill="#24675E"/>
<path d="M155.386 17.9853H145.205V63.2717H155.386V17.9853Z" fill="#24675E"/>
<path d="M167.045 22.6532C181.004 11.352 197.425 20.3602 197.425 20.3602L194.387 28.5494C194.387 28.5494 184.124 22.9807 175.995 27.9761C170.248 32.3983 170.576 40.3419 170.576 40.3419C170.576 40.3419 170.001 50.609 177.473 54.0179C185.273 57.5767 195.208 52.7895 195.208 52.7895L198 60.7331C198 60.7331 185.848 68.7232 170.001 61.3882C159.081 55.0006 159.984 40.3419 159.984 40.3419C159.984 40.3419 159.82 29.5321 167.045 22.6532Z" fill="#24675E"/>
<path d="M68.4639 41.5583C69.7136 41.8405 72.8737 42.0124 73.8382 38.335C74.5577 34.5398 71.9155 33.2616 70.9221 32.9863C69.9288 32.7111 58.6332 30.3838 57.3165 30.365C55.9998 30.3461 53.9783 30.934 53.6542 33.233C53.2722 35.9426 55.8385 36.8767 55.8385 36.8767C55.8385 36.8767 67.2143 41.2761 68.4639 41.5583Z" fill="#EB2D4B"/>
<path d="M43.4838 44.7085C42.3069 45.2148 39.6493 46.9332 41.0305 50.4751C42.6792 53.9685 45.5681 53.4495 46.5335 53.0883C47.4989 52.7271 55.8569 48.8062 59.9286 46.6689C61.5048 45.8416 62.5375 44.3838 61.6593 42.5653C60.4664 40.0955 58.396 40.8736 57.3725 41.0691C56.5256 41.2309 44.6607 44.2023 43.4838 44.7085Z" fill="#EB2D4B"/>
<path d="M42.5904 33.5899C42.7081 34.8656 43.5212 37.9242 47.3166 37.705C51.1485 37.2165 51.5476 34.3086 51.5024 33.2789C51.4572 32.2491 50.311 23.0886 49.5365 18.5557C49.2368 16.801 48.1694 15.3684 46.1686 15.6417C43.451 16.0129 43.5512 18.2225 43.4209 19.2562C43.313 20.1117 42.4726 32.3141 42.5904 33.5899Z" fill="#EB2D4B"/>
<path d="M31.7889 30.8159C33.0386 31.0982 36.1987 31.27 37.1631 27.5927C37.8826 23.7974 35.2404 22.5192 34.2471 22.244C33.2537 21.9688 24.1874 20.2281 19.637 19.5639C17.8756 19.3068 16.1832 19.8792 15.8249 21.8666C15.3381 24.5658 17.4706 25.1533 18.4134 25.5967C19.1937 25.9637 30.5392 30.5337 31.7889 30.8159Z" fill="#EB2D4B"/>
<path d="M25.8198 40.467C26.4647 39.3824 27.5886 36.4753 24.4419 34.4561C21.1102 32.6304 19.1089 34.7168 18.5487 35.5635C17.9884 36.4101 13.5966 44.3719 11.5883 48.4315C10.8109 50.0029 10.8307 51.7614 12.5809 52.7002C14.9581 53.9752 16.1577 52.1567 16.86 51.4083C17.4411 50.789 25.1749 41.5516 25.8198 40.467Z" fill="#EB2D4B"/>
<path d="M33.2713 49.0635C32.4262 48.1007 29.9706 46.1042 27.0289 48.5123C24.216 51.1598 25.6023 53.747 26.2441 54.5535C26.886 55.36 33.1977 62.0973 36.4886 65.3093C37.7625 66.5527 39.4681 67.0843 40.9261 65.6872C42.9065 63.7895 41.5267 62.0608 41.0245 61.1479C40.6089 60.3924 34.1164 50.0264 33.2713 49.0635Z" fill="#EB2D4B"/>
<path d="M47.235 8.51587C47.8923 7.41601 49.0465 4.47319 45.9024 2.46295C42.5708 0.649613 40.5423 2.77186 39.9722 3.63094C39.402 4.49002 33.6708 14.4981 33.2393 15.74C32.8079 16.9818 32.7236 19.0724 34.7769 20.065C37.1968 21.2349 38.8789 19.0819 38.8789 19.0819C38.8789 19.0819 46.5778 9.61574 47.235 8.51587Z" fill="#EB2D4B"/>
<path d="M7.4369 57.9952C6.26002 58.5015 3.6024 60.2199 4.98363 63.7618C6.63234 67.2552 9.52125 66.7362 10.4867 66.375C11.4521 66.0138 21.9583 61.2572 23.0346 60.4985C24.1109 59.7399 25.4008 58.0761 24.3117 56.0256C23.0281 53.6089 20.4029 54.3617 20.4029 54.3617C20.4029 54.3617 8.61379 57.489 7.4369 57.9952Z" fill="#EB2D4B"/>
<path d="M9.63493 18.6709C8.80673 17.6934 6.38637 15.6544 3.40305 18.0108C0.544379 20.6088 1.8853 23.2198 2.51299 24.0374C3.14068 24.855 10.7611 33.5115 11.8013 34.3189C12.8416 35.1264 14.8098 35.8735 16.4522 34.2324C18.388 32.2984 16.9006 30.008 16.9006 30.008C16.9006 30.008 10.4631 19.6483 9.63493 18.6709Z" fill="#EB2D4B"/>
<path d="M43.8547 71.9821C43.9725 73.2578 44.7856 76.3164 48.581 76.0972C52.4128 75.6087 52.812 72.7008 52.7668 71.6711C52.7215 70.6413 51.4444 59.1794 51.0554 57.9213C50.6665 56.6633 49.4827 54.9224 47.196 55.3245C44.501 55.7985 44.4057 58.5278 44.4057 58.5278C44.4057 58.5278 43.7369 70.7063 43.8547 71.9821Z" fill="#EB2D4B"/>
</svg>
