<svg width="40" height="40" viewBox="0 0 40 40" fill="none" xmlns="http://www.w3.org/2000/svg">
<path fill-rule="evenodd" clip-rule="evenodd" d="M30.6881 8.25339L22.7473 8.28175L14.5938 16.024L22.5346 15.9957L30.6881 8.25339Z" fill="#049BD7"/>
<path fill-rule="evenodd" clip-rule="evenodd" d="M23.9238 2H15.9263V11.1178L23.9238 15.471V2Z" fill="#1E417E"/>
<path fill-rule="evenodd" clip-rule="evenodd" d="M9.0498 6.58014H17.1182L30.3057 22.2491H22.4783L9.0498 6.58014Z" fill="#A5CE39"/>
<path fill-rule="evenodd" clip-rule="evenodd" d="M12.041 25H19.9109L23.9239 14.6769L18.89 15.9957L14.5509 18.775L12.041 25Z" fill="#049BD7"/>
<path fill-rule="evenodd" clip-rule="evenodd" d="M23.9242 14.6769L15.9975 14.6911L8 22.2916H15.9408L21.6979 16.8181L23.9242 14.6769Z" fill="#1E417E"/>
<path d="M30.6317 10.7916H31.0429H31.2556C31.2556 10.7916 31.3549 10.7916 31.3691 10.6924C31.3831 10.651 31.3831 10.6061 31.3691 10.5648C31.3897 10.5099 31.3897 10.4494 31.3691 10.3946C31.2995 10.3435 31.2142 10.3184 31.128 10.3237H30.66L30.6317 10.7916ZM30.3906 11.6141V10.1961H31.0429H31.3407C31.4125 10.2258 31.4732 10.2774 31.5139 10.3436C31.5547 10.4098 31.5735 10.4872 31.5676 10.5648C31.5707 10.6141 31.5635 10.6636 31.5464 10.71C31.5293 10.7564 31.5027 10.7987 31.4683 10.8342C31.3831 10.9129 31.2723 10.9582 31.1563 10.9618L31.2698 11.0469C31.3367 11.1036 31.3942 11.1706 31.4399 11.2454L31.6952 11.6424H31.4541L31.2556 11.3305L31.1138 11.132L31.0145 11.0327H30.9153H30.5891V11.685L30.3906 11.6141Z" fill="#1E417E"/>
<path d="M30.943 9.72812C30.7131 9.72812 30.4883 9.79631 30.297 9.92408C30.1058 10.0518 29.9568 10.2334 29.8688 10.4459C29.7808 10.6584 29.7578 10.8922 29.8026 11.1177C29.8475 11.3433 29.9582 11.5505 30.1208 11.7131C30.2835 11.8757 30.4906 11.9864 30.7162 12.0313C30.9417 12.0762 31.1755 12.0531 31.388 11.9651C31.6005 11.8771 31.7821 11.7281 31.9098 11.5369C32.0376 11.3457 32.1058 11.1209 32.1058 10.8909C32.1077 10.7377 32.0789 10.5856 32.0212 10.4437C31.9634 10.3017 31.8778 10.1728 31.7695 10.0644C31.6611 9.95609 31.5322 9.87051 31.3903 9.81275C31.2483 9.75499 31.0963 9.72621 30.943 9.72812V9.72812Z" stroke="#1E417E" stroke-width="0.15598" stroke-linecap="round" stroke-linejoin="round"/>
<path fill-rule="evenodd" clip-rule="evenodd" d="M2.2599 28.6924C3.47921 28.2511 4.76379 28.0171 6.06038 28.0001C8.13714 28.0001 9.03707 28.7408 8.97477 30.2984C8.91939 31.6137 8.08868 35.8364 8.08868 35.8364H5.92193C5.92193 35.8364 6.73186 31.5168 6.73186 30.7691C6.73186 30.0215 5.64502 29.9523 5.45119 29.9523C5.01337 29.9397 4.57825 30.0249 4.17745 30.2015C4.05976 30.8937 3.16675 35.8157 3.16675 35.8157H1L2.2599 28.6924Z" fill="#1E417E"/>
<path fill-rule="evenodd" clip-rule="evenodd" d="M13.7581 32.3959C13.2641 32.3534 12.7668 32.3697 12.2766 32.4444C12.0417 32.5139 11.836 32.6585 11.6909 32.856C11.5459 33.0535 11.4696 33.2931 11.4736 33.5381C11.4736 34.1819 12.1659 34.5696 12.7612 34.5696C12.9761 34.5792 13.1907 34.5439 13.3912 34.4657C13.5365 33.6697 13.7581 32.3959 13.7581 32.3959ZM10.1168 30.2291L10.3868 28.4916C11.258 28.1972 12.1675 28.0316 13.0866 28.0001C14.3949 28.0001 16.264 28.2839 16.264 30.0769C16.264 30.4991 15.4541 35.1165 15.4056 35.5318C14.53 35.8198 13.6137 35.9647 12.692 35.961C12.069 35.961 9.32764 35.7672 9.32764 33.5866C9.32764 31.2398 12.0067 30.9422 13.9727 31.1637C14.118 30.7483 14.4157 29.7792 12.6228 29.7792C11.7719 29.8237 10.93 29.9748 10.1168 30.2291V30.2291Z" fill="#1E417E"/>
<path fill-rule="evenodd" clip-rule="evenodd" d="M29.1955 32.3959C28.7015 32.3534 28.2042 32.3697 27.7141 32.4444C27.4791 32.5139 27.2734 32.6585 27.1284 32.856C26.9833 33.0535 26.907 33.2931 26.911 33.5381C26.911 34.1819 27.6033 34.5696 28.1986 34.5696C28.4158 34.5792 28.6326 34.5438 28.8355 34.4657C28.9809 33.6697 29.1955 32.3959 29.1955 32.3959ZM25.5542 30.2291L25.8242 28.4916C26.6954 28.1972 27.6049 28.0316 28.524 28.0001C29.8323 28.0001 31.7014 28.2839 31.7014 30.0769C31.7014 30.4991 30.8915 35.1165 30.843 35.5318C29.9674 35.8198 29.0511 35.9647 28.1294 35.961C27.5064 35.961 24.772 35.7672 24.772 33.5866C24.772 31.2398 27.4441 30.9422 29.417 31.1637C29.5554 30.7483 29.8531 29.7792 28.0671 29.7792C27.2139 29.8231 26.3696 29.9743 25.5542 30.2291Z" fill="#1E417E"/>
<path fill-rule="evenodd" clip-rule="evenodd" d="M19.6146 30.2638C19.9687 30.0581 20.3757 29.9618 20.7845 29.9869C20.9756 29.9781 21.1665 30.0091 21.3451 30.0778C21.5236 30.1466 21.686 30.2516 21.822 30.3862C21.9579 30.5209 22.0645 30.6822 22.1349 30.8601C22.2054 31.038 22.2382 31.2286 22.2313 31.4198C22.2313 32.3821 21.8021 34.1888 20.0992 34.1888C19.7086 34.1708 19.3253 34.0768 18.9708 33.9119C19.13 32.8459 19.6146 30.2638 19.6146 30.2638ZM17.6901 28.6923C18.6957 28.2773 19.7667 28.043 20.8537 28.0001C21.3591 28.0001 24.3842 28.0001 24.3842 31.3921C24.3842 32.4513 24.2665 35.9333 20.2791 35.9333C19.7383 35.8988 19.2037 35.7989 18.687 35.6357L18.0847 39H15.8418L17.6901 28.6923Z" fill="#1E417E"/>
<path fill-rule="evenodd" clip-rule="evenodd" d="M37.9252 30.6237C37.9252 30.6237 38.1883 29.0454 38.2575 28.7616C37.5492 28.261 36.702 27.9947 35.8346 28.0001C34.9001 28.0001 32.581 28.1939 32.581 30.5268C32.5642 30.9938 32.7054 31.4529 32.9817 31.8298C33.2581 32.2066 33.6535 32.4792 34.104 32.6036C35.5716 33.1712 35.8277 33.0535 35.8277 33.635C35.8277 34.2165 35.1355 34.2788 34.7547 34.2788C33.8233 34.2152 32.9405 33.8396 32.2488 33.2128C32.1726 33.995 31.9926 34.888 31.958 35.0749C32.759 35.7224 33.7759 36.0416 34.8032 35.9679C36.2915 35.9679 38.0429 35.3103 38.0429 33.372C38.0429 32.742 37.9529 31.6759 35.4054 30.9906C35.2363 30.9666 35.0808 30.8843 34.9658 30.758C34.8508 30.6316 34.7835 30.469 34.7755 30.2984C34.7755 30.0561 34.9693 29.7238 35.8139 29.7238C36.6046 29.7529 37.3567 30.0734 37.9252 30.6237V30.6237Z" fill="#1E417E"/>
</svg>
