<svg width="656" height="656" viewBox="0 0 656 656" fill="none" xmlns="http://www.w3.org/2000/svg">
<g clip-path="url(#clip0_1255_1796)">
<path d="M598.454 350.302C609.469 352.789 637.323 354.304 645.824 321.892C652.166 288.439 628.877 277.173 620.121 274.747C611.366 272.321 511.804 251.808 500.199 251.642C488.593 251.476 470.775 256.657 467.918 276.922C464.551 300.805 487.171 309.037 487.171 309.037C487.171 309.037 587.439 347.815 598.454 350.302Z" fill="#EB2D4B"/>
<path d="M411.338 59.0605C417.132 49.3661 427.305 23.4276 399.593 5.70888C370.227 -10.2742 352.348 8.43169 347.322 16.0038C342.297 23.5759 291.78 111.789 287.978 122.735C284.175 133.681 283.432 152.108 301.53 160.857C322.86 171.168 337.686 152.192 337.686 152.192C337.686 152.192 405.545 68.7549 411.338 59.0605Z" fill="#EB2D4B"/>
<path d="M79.9241 148.569C72.6241 139.953 51.2907 121.98 24.9951 142.75C-0.201747 165.65 11.6174 188.663 17.15 195.87C22.6825 203.076 89.8506 279.376 99.0193 286.493C108.188 293.61 125.536 300.195 140.013 285.731C157.075 268.684 143.965 248.496 143.965 248.496C143.965 248.496 87.224 157.184 79.9241 148.569Z" fill="#EB2D4B"/>
<path d="M381.543 618.463C382.581 629.707 389.748 656.666 423.201 654.735C456.976 650.429 460.494 624.798 460.096 615.722C459.697 606.645 448.44 505.618 445.012 494.529C441.583 483.44 431.15 468.095 410.994 471.64C387.24 475.818 386.4 499.875 386.4 499.875C386.4 499.875 380.505 607.218 381.543 618.463Z" fill="#EB2D4B"/>
<path d="M378.274 378.07C367.9 382.532 344.476 397.679 356.65 428.898C371.182 459.689 396.646 455.114 405.155 451.931C413.664 448.747 487.333 414.188 523.222 395.349C537.114 388.057 546.216 375.208 538.476 359.179C527.962 337.41 509.712 344.268 500.692 345.991C493.226 347.417 388.647 373.608 378.274 378.07Z" fill="#EB2D4B"/>
<path d="M370.399 280.067C371.438 291.311 378.604 318.27 412.057 316.338C445.832 312.033 449.35 286.402 448.952 277.325C448.553 268.249 438.451 187.506 431.624 147.553C428.982 132.087 419.574 119.459 401.939 121.868C377.985 125.14 378.869 144.616 377.72 153.727C376.769 161.268 369.361 268.822 370.399 280.067Z" fill="#EB2D4B"/>
<path d="M275.193 255.617C286.208 258.105 314.062 259.62 322.563 227.207C328.904 193.755 305.615 182.488 296.86 180.062C288.104 177.637 208.192 162.294 168.084 156.44C152.559 154.174 137.642 159.219 134.483 176.736C130.193 200.527 148.988 205.706 157.299 209.614C164.177 212.848 264.178 253.13 275.193 255.617Z" fill="#EB2D4B"/>
<path d="M222.581 340.684C228.265 331.124 238.171 305.5 210.436 287.702C181.069 271.611 163.43 290 158.492 297.463C153.553 304.926 114.843 375.102 97.1417 410.884C90.2896 424.735 90.4637 440.235 105.891 448.509C126.844 459.748 137.417 443.718 143.607 437.122C148.729 431.663 216.896 350.244 222.581 340.684Z" fill="#EB2D4B"/>
<path d="M288.26 416.455C280.81 407.968 259.167 390.37 233.238 411.596C208.444 434.932 220.663 457.735 226.321 464.844C231.978 471.953 287.611 531.337 316.617 559.648C327.846 570.607 342.879 575.293 355.731 562.978C373.186 546.252 361.024 531.015 356.598 522.968C352.935 516.309 295.709 424.941 288.26 416.455Z" fill="#EB2D4B"/>
<path d="M60.5506 495.18C50.1773 499.642 26.7526 514.789 38.9269 546.008C53.459 576.799 78.9224 572.225 87.4316 569.041C95.9409 565.857 188.545 523.932 198.032 517.245C207.518 510.558 218.888 495.893 209.288 477.819C197.974 456.519 174.835 463.153 174.835 463.153C174.835 463.153 70.9239 490.718 60.5506 495.18Z" fill="#EB2D4B"/>
</g>
<defs>
<clipPath id="clip0_1255_1796">
<rect width="656" height="656" fill="white"/>
</clipPath>
</defs>
</svg>
