<svg width="20" height="20" viewBox="0 0 20 20" fill="none" xmlns="http://www.w3.org/2000/svg">
<path fill-rule="evenodd" clip-rule="evenodd" d="M13.7133 12.1508C13.8811 11.983 14.1531 11.983 14.3209 12.1508L18.7412 16.5711C18.909 16.7389 18.909 17.0109 18.7412 17.1787L17.1787 18.7412C17.0109 18.909 16.7389 18.909 16.5711 18.7412L12.1508 14.3209C11.983 14.1531 11.983 13.8811 12.1508 13.7133C12.3186 13.5455 12.5906 13.5455 12.7584 13.7133L16.8749 17.8297L17.8297 16.8749L13.7133 12.7584C13.5455 12.5906 13.5455 12.3186 13.7133 12.1508Z" fill="#2E3A5B"/>
<path fill-rule="evenodd" clip-rule="evenodd" d="M8.4375 1.99219C4.87785 1.99219 1.99219 4.87785 1.99219 8.4375C1.99219 11.9971 4.87785 14.8828 8.4375 14.8828C11.9971 14.8828 14.8828 11.9971 14.8828 8.4375C14.8828 4.87785 11.9971 1.99219 8.4375 1.99219ZM1.13281 8.4375C1.13281 4.40323 4.40323 1.13281 8.4375 1.13281C12.4718 1.13281 15.7422 4.40323 15.7422 8.4375C15.7422 12.4718 12.4718 15.7422 8.4375 15.7422C4.40323 15.7422 1.13281 12.4718 1.13281 8.4375Z" fill="#2E3A5B"/>
</svg>
