<svg width="24" height="24" viewBox="0 0 24 24" fill="none" xmlns="http://www.w3.org/2000/svg">
<path fill-rule="evenodd" clip-rule="evenodd" d="M23.6146 0.385398C23.816 0.586762 23.816 0.913238 23.6146 1.1146L16.4787 8.25048C16.2774 8.45184 15.9509 8.45184 15.7495 8.25048C15.5482 8.04911 15.5482 7.72264 15.7495 7.52127L22.8854 0.385398C23.0868 0.184034 23.4132 0.184034 23.6146 0.385398Z" fill="#EB2227"/>
<path fill-rule="evenodd" clip-rule="evenodd" d="M15.9844 0.75C15.9844 0.465228 16.2152 0.234375 16.5 0.234375H23.25C23.5348 0.234375 23.7656 0.465228 23.7656 0.75V7.5C23.7656 7.78477 23.5348 8.01562 23.25 8.01562C22.9652 8.01562 22.7344 7.78477 22.7344 7.5V1.26562H16.5C16.2152 1.26562 15.9844 1.03477 15.9844 0.75Z" fill="#EB2227"/>
<path fill-rule="evenodd" clip-rule="evenodd" d="M9.75 5.76562C5.06421 5.76562 1.26562 9.56421 1.26562 14.25C1.26562 18.9358 5.06421 22.7344 9.75 22.7344C14.4358 22.7344 18.2344 18.9358 18.2344 14.25C18.2344 9.56421 14.4358 5.76562 9.75 5.76562ZM0.234375 14.25C0.234375 8.99467 4.49467 4.73438 9.75 4.73438C15.0053 4.73438 19.2656 8.99467 19.2656 14.25C19.2656 19.5053 15.0053 23.7656 9.75 23.7656C4.49467 23.7656 0.234375 19.5053 0.234375 14.25Z" fill="#EB2227"/>
</svg>
