<svg width="24" height="24" viewBox="0 0 24 24" fill="none" xmlns="http://www.w3.org/2000/svg">
    <g clip-path="url(#clip0_842_5340)">
        <path fill-rule="evenodd" clip-rule="evenodd" d="M23.5578 4.08632C23.6886 4.18362 23.7656 4.33701 23.7656 4.5V19.5C23.7656 19.7108 23.6373 19.9004 23.4415 19.9788L15.9415 22.9788C15.8186 23.0279 15.6814 23.0279 15.5585 22.9788L8.25 20.0554L0.941498 22.9788C0.782639 23.0423 0.602605 23.0229 0.460926 22.927C0.319246 22.8311 0.234375 22.6711 0.234375 22.5V7.5C0.234375 7.28916 0.36274 7.09956 0.558502 7.02126L4.3085 5.52126C4.57291 5.4155 4.87298 5.5441 4.97875 5.80851C5.08451 6.07291 4.9559 6.37299 4.6915 6.47875L1.26562 7.8491V21.7384L8.0585 19.0213C8.18143 18.9721 8.31857 18.9721 8.4415 19.0213L15.75 21.9447L22.7344 19.1509V5.19302L19.6482 6.11888C19.3754 6.20071 19.0879 6.04593 19.0061 5.77317C18.9243 5.50041 19.0791 5.21295 19.3518 5.13113L23.1018 4.00613C23.258 3.95929 23.427 3.98903 23.5578 4.08632Z" fill="#217B56"/>
        <path fill-rule="evenodd" clip-rule="evenodd" d="M8.25 12.9844C8.53477 12.9844 8.76562 13.2152 8.76562 13.5V19.5C8.76562 19.7848 8.53477 20.0156 8.25 20.0156C7.96523 20.0156 7.73438 19.7848 7.73438 19.5V13.5C7.73438 13.2152 7.96523 12.9844 8.25 12.9844Z" fill="#217B56"/>
        <path fill-rule="evenodd" clip-rule="evenodd" d="M15.75 13.3594C16.0348 13.3594 16.2656 13.5902 16.2656 13.875V22.5C16.2656 22.7848 16.0348 23.0156 15.75 23.0156C15.4652 23.0156 15.2344 22.7848 15.2344 22.5V13.875C15.2344 13.5902 15.4652 13.3594 15.75 13.3594Z" fill="#217B56"/>
        <path fill-rule="evenodd" clip-rule="evenodd" d="M12 1.26562C9.68279 1.26562 7.26562 2.97341 7.26562 5.8635C7.26562 6.52655 7.54718 7.35539 8.0265 8.26514C8.49972 9.16334 9.13678 10.0871 9.78332 10.9255C10.4285 11.7622 11.0749 12.5034 11.5607 13.036C11.729 13.2206 11.8777 13.3797 12 13.5087C12.1223 13.3797 12.271 13.2206 12.4393 13.036C12.9251 12.5034 13.5715 11.7622 14.2167 10.9255C14.8632 10.0871 15.5003 9.16334 15.9735 8.26514C16.4528 7.35539 16.7344 6.52655 16.7344 5.8635C16.7344 2.97341 14.3172 1.26562 12 1.26562ZM12 14.25C11.6361 14.6153 11.636 14.6152 11.6359 14.6151L11.6356 14.6148L11.6314 14.6106L11.6193 14.5984C11.6087 14.5878 11.5934 14.5723 11.5735 14.5521C11.5338 14.5118 11.4761 14.4527 11.4029 14.3766C11.2565 14.2246 11.0483 14.0046 10.7987 13.7309C10.3001 13.1843 9.63403 12.4207 8.96668 11.5553C8.30072 10.6916 7.62528 9.71601 7.11413 8.74583C6.60907 7.78721 6.23438 6.77864 6.23438 5.8635C6.23438 2.28184 9.24346 0.234375 12 0.234375C14.7565 0.234375 17.7656 2.28184 17.7656 5.8635C17.7656 6.77864 17.3909 7.78721 16.8859 8.74583C16.3747 9.71601 15.6993 10.6916 15.0333 11.5553C14.366 12.4207 13.6999 13.1843 13.2013 13.7309C12.9517 14.0046 12.7435 14.2246 12.5971 14.3766C12.5239 14.4527 12.4662 14.5118 12.4265 14.5521C12.4153 14.5635 12.4055 14.5734 12.3972 14.5818C12.3908 14.5883 12.3853 14.5938 12.3807 14.5984L12.3686 14.6106L12.3644 14.6148L12.3641 14.6151C12.364 14.6152 12.3639 14.6153 12 14.25ZM12 14.25L12.3641 14.6151C12.1629 14.8156 11.8371 14.8156 11.6359 14.6151L12 14.25Z" fill="#EB5353"/>
        <path fill-rule="evenodd" clip-rule="evenodd" d="M12 5.01562C11.4563 5.01562 11.0156 5.45634 11.0156 6C11.0156 6.54366 11.4563 6.98438 12 6.98438C12.5437 6.98438 12.9844 6.54366 12.9844 6C12.9844 5.45634 12.5437 5.01562 12 5.01562ZM9.98438 6C9.98438 4.8868 10.8868 3.98438 12 3.98438C13.1132 3.98438 14.0156 4.8868 14.0156 6C14.0156 7.1132 13.1132 8.01562 12 8.01562C10.8868 8.01562 9.98438 7.1132 9.98438 6Z" fill="#EB5353"/>
    </g>
    <defs>
        <clipPath id="clip0_842_5340">
            <rect width="24" height="24" fill="white"/>
        </clipPath>
    </defs>
</svg>
