<svg width="118" height="75" viewBox="0 0 118 75" fill="none" xmlns="http://www.w3.org/2000/svg">
<g clip-path="url(#clip0_1516_4368)">
<rect width="118" height="75" rx="6" fill="white"/>
<path d="M2.3 0H116.1C117.4 0 118.4 1 118.4 2.3V72.7C118.4 74 117.4 75 116.1 75H2.3C1 75 0 74 0 72.7V2.3C0 1 1 0 2.3 0Z" fill="#7FDCD4"/>
<path d="M70.8999 63.7999L70.6999 63.6999L70.2999 63.5999L70.0999 63.4999H70.1999H70.2999H70.3999H70.7999H70.8999H70.9999L70.8999 63.7999ZM74.0999 26.9999L73.9999 27.1999H73.8999L73.9999 27.0999V26.9999H74.0999ZM73.2999 26.8999V27.0999V27.1999H73.1999H73.0999H72.9999L73.0999 27.0999L73.1999 26.9999L73.2999 26.8999ZM70.9999 27.4999L71.0999 27.6999V27.7999H70.9999V27.6999V27.4999V27.3999V27.2999L71.0999 27.3999L70.9999 27.4999ZM72.3999 63.0999L72.2999 63.1999V63.2999H72.1999L72.0999 63.3999V63.1999V63.0999H72.1999L72.2999 62.9999L72.3999 63.0999ZM70.1999 65.0999L69.9999 64.9999H69.8999L69.6999 64.8999H69.7999L69.8999 64.9999L70.1999 65.0999ZM61.5999 62.9999L61.8999 63.2999V63.3999V63.7999L61.7999 64.0999L61.6999 64.2999L61.7999 64.3999V64.4999V64.5999H61.6999H61.5999V64.3999V64.0999L61.4999 63.7999L61.3999 63.6999L61.2999 63.5999L61.1999 63.4999V63.3999H61.3999H61.4999V63.2999L61.5999 62.9999ZM78.3999 62.7999H78.2999V62.6999V62.5999L78.3999 62.7999ZM70.5999 68.7999L70.4999 68.8999H70.3999L70.2999 68.7999V68.6999L70.3999 68.5999L70.4999 68.4999L70.5999 68.7999ZM71.4999 62.5999L71.3999 62.6999V62.5999V62.4999L71.4999 62.5999ZM79.7999 55.6999L79.5999 55.5999H79.6999H79.7999V55.6999ZM72.7999 27.6999H72.6999V27.5999L72.7999 27.6999ZM74.1999 27.0999V26.9999H74.2999L74.1999 27.0999ZM71.2999 62.8999V62.9999V63.0999H71.1999H71.0999H70.9999V62.9999V62.8999V62.7999V62.6999V62.5999H71.0999V62.4999V62.3999L70.9999 62.2999H71.0999V62.3999V62.4999L71.2999 62.8999ZM71.5999 62.8999V62.9999L71.4999 63.1999H71.5999H71.3999H71.2999V63.0999V62.9999L71.3999 62.8999V62.7999V62.6999V62.5999H71.4999L71.5999 62.8999ZM71.4999 27.4999H71.5999L71.6999 27.5999V27.6999V27.7999V27.8999V27.9999L71.5999 27.8999L71.4999 27.7999V27.6999H71.5999L71.4999 27.4999ZM69.0999 65.8999L69.2999 65.9999V66.0999V66.1999H69.1999V66.0999V65.9999L69.0999 65.8999V65.9999L68.9999 65.7999L68.8999 65.6999V65.5999V65.4999V65.3999V65.2999L68.7999 65.1999L68.9999 65.3999L69.0999 65.8999ZM74.6999 25.6999L74.5999 25.7999L74.3999 25.8999H74.2999L74.6999 25.6999ZM73.3999 26.8999V26.7999L73.4999 26.6999L73.3999 26.8999ZM66.3999 19.2999H66.4999V19.3999L66.5999 19.4999L66.6999 19.5999V19.6999V19.7999V19.8999V19.9999H66.8999H66.9999H67.0999L67.1999 20.0999V20.1999L67.3999 20.3999H67.4999H67.5999H67.6999H67.7999V20.2999H67.9999H68.1999H68.2999L68.3999 20.3999L68.4999 20.4999V20.5999H68.5999H68.6999H68.7999H68.8999L69.2999 20.4999H69.3999V20.3999H69.5999V20.4999H69.6999L69.7999 20.5999L69.8999 20.6999H69.9999H70.0999L69.9999 20.7999V20.8999V20.9999V21.0999L69.8999 21.1999V21.2999L69.7999 21.4999H69.6999H69.5999V21.3999H69.4999V21.4999L70.0999 21.9999V22.0999V22.1999V22.2999V22.3999H70.1999H70.2999H70.3999L70.4999 22.6999V22.7999V22.8999V22.9999V23.0999V23.1999L70.3999 23.3999L70.4999 23.2999H70.5999H70.6999H70.7999H70.8999V23.3999H70.9999H71.0999H71.1999H71.2999H71.3999H71.4999V23.9999V24.0999V24.1999V24.2999V24.3999H71.5999H71.6999L71.7999 24.4999L71.9999 24.6999H72.0999H72.1999H72.2999L72.3999 24.7999L72.4999 24.9999L72.5999 24.8999L72.6999 24.7999H72.7999H72.8999V24.8999V24.9999H72.9999V24.8999H73.0999H73.1999H73.2999H73.4999H73.5999L73.6999 24.7999H73.7999H73.8999H73.9999V24.8999L74.0999 24.9999L74.1999 25.0999L74.3999 25.2999H74.2999L74.1999 25.3999H74.0999V25.2999V25.1999V25.0999H73.9999L73.8999 25.1999H73.7999H73.6999V25.2999H73.5999H73.4999H73.3999H73.2999H73.1999H73.0999V25.3999V25.5999V25.6999V25.7999V25.8999H72.9999H72.8999H72.7999H72.6999H72.5999H72.4999L72.3999 25.9999V26.0999H72.2999H72.0999H71.9999L72.0999 25.9999L72.2999 25.8999L71.5999 26.9999L71.6999 27.0999V27.1999H71.5999H71.4999H71.3999V27.0999L71.2999 27.1999V27.0999H71.1999H71.0999H70.9999V26.9999H70.8999H70.4999V27.0999L70.3999 26.9999L70.2999 27.0999H70.3999H70.4999V27.1999V27.2999H70.3999V27.3999V27.4999L70.4999 27.5999H70.5999V27.6999L70.6999 27.8999L70.5999 27.9999H70.4999H70.3999H70.2999V28.0999H70.1999L70.0999 28.1999L69.9999 28.5999H70.0999H70.1999V28.6999V28.7999V28.8999H70.2999V28.9999V29.0999L70.3999 29.1999V29.2999V29.3999V29.4999L70.2999 29.3999H70.1999L70.2999 29.4999V29.5999V29.6999H70.1999H70.0999H69.9999H69.7999H69.6999V29.7999L69.5999 29.8999H69.4999L69.3999 29.9999H69.2999L68.9999 30.3999H68.8999H68.7999V30.2999V30.1999H68.6999L68.5999 30.2999V30.3999V30.4999L68.0999 30.9999V31.0999V31.1999L67.9999 31.2999V31.3999V31.4999L67.8999 31.5999V31.6999V31.7999V31.8999V31.9999V32.2999V32.3999V32.4999V32.5999L67.9999 32.6999H67.8999V32.7999V32.8999V33.0999V33.1999V33.2999H67.7999H67.6999L67.5999 33.3999L67.4999 33.4999V33.5999V33.6999V33.7999L67.5999 33.8999H67.6999H67.7999V33.9999H67.8999L67.9999 34.0999V34.1999V34.2999V34.3999V34.4999H68.0999V34.3999V34.1999H68.1999V34.2999V34.3999L68.2999 34.5999L68.4999 34.8999L68.5999 34.9999H68.6999V35.0999V35.1999V35.2999L68.7999 35.3999L68.8999 35.5999L69.0999 35.6999V35.7999H69.1999H69.2999H69.3999L69.5999 35.8999H69.6999L69.7999 35.9999L69.8999 36.0999V36.1999V36.2999L69.9999 36.1999V36.2999V36.3999V36.4999L70.2999 36.7999H70.1999L70.0999 36.8999H69.9999V36.9999V37.0999V37.2999L70.0999 37.3999H69.9999V37.2999L69.8999 37.1999H69.6999H69.7999H69.8999H69.9999H70.1999H70.0999H69.9999V37.2999L70.0999 37.3999H70.1999H70.2999H70.3999H70.4999L70.5999 37.4999L70.6999 37.5999L70.8999 37.8999V37.9999V38.0999L70.9999 38.1999V38.2999L71.2999 38.5999L71.8999 38.9999L72.0999 39.0999L72.3999 39.3999L72.4999 39.4999V39.5999L72.6999 39.8999L72.5999 39.9999H72.6999H72.7999L73.1999 40.3999L73.2999 40.4999L73.5999 40.6999L73.9999 40.9999L73.5999 40.7999H73.4999L73.7999 40.8999H73.8999H73.9999H74.0999L74.1999 40.9999L74.2999 41.0999H74.3999L74.4999 41.1999H74.5999V41.3999H74.6999L74.7999 41.2999V41.1999L74.9999 41.2999H75.0999V41.3999V41.4999L75.1999 41.6999L75.0999 41.5999H75.1999H75.2999H75.3999H75.4999H75.5999H75.6999L75.5999 41.6999V41.7999V41.8999L75.6999 41.9999H75.7999L75.8999 42.0999L75.9999 41.9999V42.0999V42.1999H76.0999H76.1999H76.2999V41.9999V41.8999V41.7999H76.1999V41.8999V41.9999V42.0999V42.1999V42.2999L76.3999 42.3999H76.4999V42.4999V42.6999L76.5999 42.8999L77.0999 43.5999H77.1999H77.2999V43.6999V43.7999L77.3999 43.8999H77.4999L77.5999 43.7999V43.8999V43.9999L77.6999 44.0999H77.7999V43.9999V43.8999V43.7999H77.8999V43.8999V43.9999L77.9999 44.0999V44.1999L78.0999 44.2999H77.9999V44.3999V44.4999H77.8999V44.7999L77.9999 45.0999L78.1999 45.5999L78.2999 45.6999L78.3999 45.8999V46.0999V46.2999V46.1999L78.4999 46.4999L78.5999 46.5999V46.7999V46.8999V46.9999L78.6999 47.0999V47.1999V47.2999V47.3999L78.7999 47.5999H78.6999H78.5999V47.6999V47.7999L78.6999 47.8999V47.9999L78.7999 48.1999L78.8999 48.5999L78.9999 48.6999V48.9999V49.0999H78.8999V48.8999V48.6999V48.7999V48.8999V48.9999V49.0999V51.9999V52.0999V52.1999V52.2999L78.7999 52.1999V52.0999L78.6999 51.9999V52.0999L78.7999 52.1999V52.2999H78.6999L78.5999 52.1999V52.2999V52.3999H78.6999L78.7999 52.4999V52.5999V52.6999V52.7999V52.8999V52.9999V53.0999V53.1999L78.8999 53.2999L78.9999 53.3999L79.0999 53.4999L79.1999 53.6999V53.7999V53.8999V53.9999H79.0999H78.9999V54.0999L79.1999 54.3999L79.2999 54.4999H79.3999H79.4999V54.5999L79.5999 54.4999L79.4999 54.3999L79.5999 54.2999V54.1999L79.4999 54.0999V54.9999L79.3999 55.0999L79.2999 55.1999L79.1999 55.2999V55.3999V55.4999V55.5999H79.2999V55.6999V55.7999V55.8999L79.4999 55.9999V56.0999H79.5999L79.4999 55.8999L78.9999 56.0999H78.8999L78.9999 56.1999H79.0999V56.2999V56.3999V56.4999V56.5999V56.6999H78.9999V56.7999V56.8999L79.0999 57.0999L79.1999 57.1999V57.2999H79.0999V57.9999V58.0999H78.9999H78.8999V57.9999V57.7999V57.6999L78.7999 57.4999V57.5999V57.6999L78.8999 57.7999V57.8999V57.9999V58.0999L79.0999 57.9999L78.9999 58.0999H78.8999V58.1999V58.2999H78.9999V58.1999L79.0999 58.0999V58.1999V58.2999V58.3999L79.1999 58.5999V58.6999V58.7999L79.0999 58.8999V58.9999H78.9999V59.0999H78.8999H78.7999V58.9999H78.6999V59.0999H78.5999L78.6999 59.1999V59.2999V59.4999V59.5999L78.3999 59.9999H78.2999H78.0999H77.9999H77.8999H77.7999L77.6999 60.0999V60.1999V60.3999V60.4999H77.5999H77.4999H77.3999H77.2999H77.1999L77.0999 60.5999V60.6999V60.7999V60.8999H76.9999L76.8999 60.9999H76.7999V61.1999H76.6999L76.5999 61.2999V61.1999H76.4999L76.0999 61.2999H75.9999V61.3999L75.8999 61.4999V61.5999V61.6999L75.7999 61.9999H75.5999H75.4999H75.3999H75.2999L75.0999 62.0999L74.9999 62.1999H74.8999L73.9999 62.4999H73.8999H73.7999L73.6999 62.5999L73.5999 62.6999H73.4999L73.2999 62.9999H73.1999H72.9999H72.8999L72.7999 63.0999L72.6999 63.1999H72.5999L72.4999 63.0999H72.3999L72.2999 62.9999H72.1999H72.0999H71.9999H71.8999V62.8999V62.6999V62.5999V62.4999L71.7999 62.3999V62.4999V62.5999V62.6999V62.7999V62.8999V62.9999L71.8999 63.0999L71.5999 62.9999V62.8999V62.7999V62.6999L71.3999 62.5999H71.2999H71.1999H71.0999V62.6999V62.7999V62.8999H70.9999H70.8999V62.9999V63.0999H70.9999H71.0999L71.1999 62.9999H71.2999V63.0999V63.1999V63.2999V63.5999V63.6999H71.1999H71.0999H70.8999H70.4999H70.2999H69.9999H69.8999H69.7999H69.6999H69.5999L69.7999 63.7999L70.5999 64.0999H70.6999V64.1999V64.2999L70.4999 64.4999H70.3999H70.2999V64.5999H70.1999H70.0999H69.9999H69.8999L69.9999 64.4999L69.8999 64.3999L69.7999 64.2999L69.4999 63.8999L69.3999 63.7999H69.2999L69.3999 63.8999V63.9999V64.0999L69.6999 64.4999L69.7999 64.5999L70.0999 64.6999L70.2999 64.7999L70.4999 64.8999H70.5999V64.9999V65.0999V65.1999L70.4999 65.2999H70.3999H70.2999L70.1999 65.1999L69.9999 64.9999V64.7999L69.6999 64.5999L68.8999 63.6999L68.9999 63.7999V63.8999L69.0999 63.9999L69.1999 64.0999L69.2999 64.1999V64.2999L69.4999 64.4999L69.5999 64.5999L69.8999 64.7999L69.9999 64.8999L70.0999 64.9999V65.0999H70.1999V65.1999V65.2999V65.4999V65.5999V65.9999L70.0999 66.0999H69.9999H69.8999H69.7999L69.4999 65.9999L69.1999 65.7999L68.5999 65.1999L68.2999 64.7999L68.1999 64.6999H67.9999H67.8999L67.7999 64.5999H67.6999L67.7999 64.6999L67.9999 64.8999L68.5999 65.4999V65.5999V65.6999V65.7999L68.9999 66.2999V66.3999V66.4999L68.8999 66.5999V66.6999H68.7999L68.2999 66.7999L67.7999 66.9999L67.3999 67.0999L66.6999 67.3999L66.5999 67.4999L66.3999 67.6999L66.2999 67.7999V67.8999L65.9999 68.3999V68.5999V68.6999L65.8999 68.7999H65.7999H65.6999L65.4999 68.9999L65.3999 69.1999L65.2999 69.2999L65.0999 69.3999L64.4999 69.5999H64.3999H64.1999L64.3999 69.4999H64.5999V69.3999V69.2999V69.1999L64.3999 69.2999H64.2999H64.1999L64.0999 69.1999V69.0999V68.9999L64.1999 68.7999V68.6999V68.4999V68.1999V67.9999V67.4999V67.2999V66.8999V66.7999L64.2999 66.1999L64.3999 65.9999L64.4999 65.7999H64.6999H64.7999V65.6999L64.8999 65.5999L65.0999 65.3999H65.1999V65.4999L65.2999 65.6999V65.5999V65.4999V65.3999V65.2999L65.0999 65.0999L64.9999 64.2999H64.8999H64.7999H64.6999H64.5999L64.4999 64.1999L64.3999 64.0999V63.9999L64.2999 63.8999L64.1999 63.7999H64.0999H63.9999L63.8999 63.8999V63.9999H63.7999V63.8999V63.7999V63.6999L63.6999 63.5999V63.4999V63.3999L63.5999 63.2999V63.3999H63.4999H63.3999V63.2999H63.4999L63.5999 63.0999V62.9999V62.8999H63.6999H63.7999H64.0999H64.1999H64.3999H64.5999H64.6999L64.7999 62.7999L64.8999 62.5999L65.1999 62.3999L65.2999 62.2999V62.1999L65.1999 61.9999L64.9999 61.6999V61.5999V61.4999H65.0999V61.5999L65.3999 61.6999H65.4999H65.5999L65.6999 61.7999H65.7999L65.8999 61.5999L65.9999 61.3999H66.0999H66.1999H66.3999L66.6999 61.2999H66.7999H66.8999H66.9999H67.0999H67.1999H67.2999L67.3999 61.3999L67.4999 61.4999L67.5999 61.6999V61.7999V61.8999V61.9999H67.6999H67.9999V61.8999V61.7999V61.6999L68.0999 61.7999L68.1999 61.8999L68.2999 61.9999H68.3999H68.4999H68.6999H68.7999H68.9999L68.8999 61.6999L68.7999 61.4999V61.3999V61.2999H68.8999H68.9999V61.1999L68.8999 60.9999V60.8999H68.7999H68.6999H68.5999V60.7999L68.4999 60.6999L68.3999 60.5999L68.2999 60.4999H68.0999H67.9999V60.3999V60.2999H67.8999L67.9999 59.9999V59.8999V59.7999V59.6999L67.8999 59.4999V59.3999H67.7999V59.2999V59.1999V59.0999L67.8999 58.9999H67.9999H68.0999V58.8999L68.1999 58.7999L68.2999 58.6999H68.4999L68.6999 58.7999H68.7999L68.9999 58.8999H69.0999V58.9999L69.2999 58.8999L69.3999 58.9999V58.8999V58.7999L69.2999 58.5999V58.4999V58.3999V58.2999V58.1999L69.6999 57.9999V57.8999H69.7999L69.8999 57.7999H70.0999H70.3999V57.6999H70.5999H70.6999L70.7999 57.5999V57.4999L70.8999 57.3999H70.9999H71.0999H71.3999H71.4999H71.5999L71.6999 57.2999L71.8999 57.0999L71.9999 56.9999L72.0999 56.8999L72.1999 56.7999L72.3999 56.6999H72.4999L72.6999 56.5999H72.7999H72.8999L72.9999 56.7999L73.0999 56.8999H73.1999L73.2999 56.6999L73.3999 56.5999H73.4999V56.4999V56.3999V56.2999L73.5999 55.9999V55.8999V55.7999V55.6999L73.4999 55.2999V55.1999V55.0999V54.9999V54.8999L73.3999 54.7999V54.6999V54.5999V54.4999H73.2999L73.5999 53.6999V53.5999L73.6999 53.2999V53.1999V52.8999V52.7999L73.3999 51.9999L73.2999 51.8999L73.1999 51.7999V51.6999L73.0999 51.5999V51.4999V51.3999V51.2999V51.1999V51.0999H72.9999H72.8999H72.7999V50.9999V50.8999V50.7999V50.6999V50.5999V50.4999L72.8999 50.1999V50.0999V49.9999V49.8999V49.7999L72.9999 49.6999H73.0999V49.5999V49.4999V49.3999V49.2999V49.1999V49.0999L73.1999 48.8999V48.7999V48.6999V48.5999V48.4999L73.2999 48.3999V48.2999L73.0999 48.0999H72.9999V47.9999H73.0999H73.1999H73.2999H73.3999H73.4999H73.5999V47.8999V47.7999V47.6999V47.5999V47.3999V47.2999L73.4999 47.1999L73.3999 47.0999V46.9999V46.8999H73.2999H73.1999H73.0999V46.7999V45.9999V45.8999H72.9999L72.7999 45.5999L72.6999 45.4999H72.5999V45.3999V45.2999L72.3999 45.1999V45.0999L72.4999 44.8999L72.6999 44.7999H72.7999H72.8999V44.6999L72.9999 44.4999V44.3999H72.7999H72.6999H72.5999L72.4999 44.2999L72.3999 44.0999L72.2999 43.9999H72.1999H72.0999V43.7999H71.9999H71.8999H71.7999H71.6999V43.6999H71.5999H71.4999V43.5999V43.4999V43.3999L71.3999 43.2999H71.2999L70.9999 42.3999V42.4999L70.8999 42.5999H70.7999L70.6999 42.4999L70.5999 42.3999V42.2999V42.0999H70.4999H70.3999H70.2999L70.1999 41.9999V41.8999V41.7999V40.8999V40.7999V40.6999L69.9999 40.7999H69.8999H69.7999H69.6999H69.5999L69.4999 40.6999V40.5999L69.2999 40.4999L69.1999 40.2999V40.1999V40.0999V39.9999H69.0999L68.5999 39.4999L68.0999 38.9999L67.9999 38.8999L67.7999 38.5999L67.6999 38.4999L67.5999 38.3999L67.3999 38.2999V38.1999V38.0999V37.9999L67.2999 37.8999L67.1999 37.6999L67.0999 37.5999V37.4999V37.1999V37.0999H66.9999V36.9999H66.8999L66.7999 36.8999V36.7999H66.6999H66.5999H66.4999H66.3999V36.8999H66.2999H66.1999H66.0999V36.7999H65.9999V36.6999L65.7999 36.5999V36.4999L65.5999 35.9999L65.4999 35.8999L65.3999 35.7999V35.6999V35.5999L65.4999 35.3999V35.2999V35.1999V35.0999V34.9999H65.3999L65.2999 34.7999H65.1999L64.9999 34.6999H64.8999H64.7999H64.6999H64.5999V34.5999H64.4999H64.2999H64.1999H64.0999V34.4999H63.9999L63.8999 34.3999L63.7999 34.2999L63.4999 33.9999H63.3999H63.2999H63.1999H63.0999L62.9999 33.8999H62.8999H62.7999H62.6999H62.5999H62.4999H62.3999H62.2999V33.7999V33.6999L62.1999 33.5999L61.9999 33.0999H61.8999H61.7999H61.6999V32.9999H61.5999V32.8999H61.4999H61.3999V32.7999H61.4999L61.5999 32.6999H61.6999H61.7999H61.8999V32.5999V32.4999V31.9999V31.8999H61.9999V31.7999L61.8999 31.5999V31.4999L62.0999 31.5999H62.1999H62.2999V31.4999H62.3999H62.4999H62.5999H62.6999L62.7999 31.5999L62.9999 31.4999H63.0999H63.1999H63.2999L63.4999 31.5999H63.5999H63.6999H63.7999H63.8999L63.9999 31.2999H64.0999H64.1999L64.2999 31.1999H64.3999H64.4999V31.0999V30.9999H64.3999H64.2999V30.8999L64.3999 30.7999L64.5999 30.6999L64.6999 30.5999H64.7999H64.8999V30.4999V30.3999L64.7999 30.2999V30.1999V30.0999L64.4999 29.8999H64.3999H64.2999H64.1999L63.9999 29.6999V29.5999V29.4999H63.8999H63.7999L63.6999 29.3999H63.1999H63.0999L62.9999 29.2999V29.1999L63.1999 29.0999L63.2999 28.9999L63.3999 29.0999H63.4999H63.5999L63.6999 28.9999L63.8999 28.6999V28.5999L63.6999 28.4999L63.4999 28.3999L63.3999 27.9999V27.8999H63.2999H63.1999H63.0999V27.7999V27.6999L62.9999 27.5999V27.4999H62.8999V27.3999H62.7999H62.6999H62.5999L62.3999 27.5999H62.2999H62.1999L61.9999 27.6999H61.8999V27.7999V27.8999V27.9999V28.0999H61.7999V28.1999L61.6999 28.0999L61.5999 27.9999H61.4999H61.2999L61.1999 27.8999H61.0999H60.9999H60.8999L60.6999 27.7999H60.5999H60.4999L58.9999 27.2999L58.8999 27.1999L58.7999 26.9999L58.6999 26.7999V26.6999H58.5999V26.5999V26.4999V26.3999V26.2999H58.4999H58.3999V26.1999H58.4999H58.5999V26.0999V25.8999V25.7999L58.6999 25.5999H58.5999H58.4999L58.6999 25.3999L58.7999 25.2999L58.8999 25.1999L58.9999 25.0999V24.9999V24.8999V24.6999L58.7999 24.7999H58.6999V24.6999V24.5999V24.3999L58.5999 24.2999L58.4999 24.3999V24.6999V24.7999L57.9999 24.6999L57.8999 24.7999H57.6999V24.6999V24.5999V24.4999V24.2999V24.1999L57.5999 23.9999L57.4999 23.8999H57.3999L57.2999 23.7999V23.6999H57.1999L57.0999 23.5999V23.4999L56.9999 23.3999L56.7999 23.1999L56.5999 23.0999L56.4999 22.9999V22.8999H56.3999V22.7999V22.6999H56.4999H56.5999H56.6999H56.7999V22.5999V22.4999V22.3999V22.2999L57.1999 21.8999V21.7999V21.6999L57.2999 21.5999H57.3999H57.4999L57.5999 21.6999V21.7999V21.8999H57.6999V21.9999H57.7999H57.8999H57.9999L58.1999 22.1999H58.2999H58.3999H58.4999V22.2999V22.3999V22.4999L58.5999 22.6999H58.6999H58.7999L58.8999 22.7999H58.9999H59.0999V22.6999V22.5999H59.1999H59.2999L59.4999 22.4999V22.3999L59.5999 22.2999L59.7999 22.1999H59.8999L59.9999 21.9999L60.0999 21.7999H60.1999V21.8999V21.9999L60.2999 22.1999L60.3999 22.2999H60.4999L60.5999 22.1999V22.0999L60.6999 21.9999V21.8999V21.7999L60.7999 21.6999L60.9999 21.9999L61.1999 22.1999L61.2999 22.2999L61.3999 22.3999H61.4999V22.2999V22.1999V22.0999V21.8999V21.7999L61.5999 21.6999V21.5999H61.6999L61.9999 21.4999H62.0999V21.5999V21.6999V20.9999V21.0999L62.2999 21.1999H62.3999L62.6999 20.9999L62.7999 20.8999L62.9999 20.6999L63.0999 20.5999H63.1999H63.2999H63.3999H63.4999L63.5999 20.3999L63.7999 20.2999V20.1999L63.6999 19.7999H63.7999L63.8999 19.6999V19.5999L63.9999 19.6999L64.0999 19.5999L64.1999 19.4999L64.2999 19.3999L64.5999 19.2999H64.6999V19.1999V19.0999V18.9999L64.7999 18.8999H64.8999V18.9999V19.0999L66.3999 19.2999ZM79.4999 56.8999V56.9999H79.3999H79.2999L79.4999 56.8999Z" fill="#B2CEC2"/>
<path d="M35.2 29H5.5V68.6H35.2V29Z" fill="white"/>
<path d="M53 14H81C82.1 14 83 14.9 83 16C83 17.1 82.1 18 81 18H53C51.9 18 51 17.1 51 16C51 14.9 51.9 14 53 14Z" fill="#EB2227"/>
<path d="M43 7H91C92.1 7 93 7.9 93 9C93 10.1 92.1 11 91 11H43C41.9 11 41 10.1 41 9C41 7.9 41.9 7 43 7Z" fill="#EB2227"/>
<path d="M42.7001 29H111C112.1 29 113.1 29.9 113.1 31.1C113.1 32.2 112.2 33.2 111 33.2H42.7001C41.6001 33.2 40.6001 32.3 40.6001 31.1C40.6001 29.9 41.5001 29 42.7001 29Z" fill="#67B4A3"/>
<path d="M42.7001 37.8999H97.3001C98.4001 37.8999 99.4001 38.7999 99.4001 39.9999C99.4001 41.0999 98.5001 42.0999 97.3001 42.0999H42.7001C41.6001 42.0999 40.6001 41.1999 40.6001 39.9999C40.6001 38.7999 41.5001 37.8999 42.7001 37.8999Z" fill="#67B4A3"/>
<path d="M42.7001 46.8H77.8001C78.9001 46.8 79.9001 47.7001 79.9001 48.9001C79.9001 50.0001 79.0001 51 77.8001 51H42.7001C41.6001 51 40.6001 50.1001 40.6001 48.9001C40.6001 47.7001 41.5001 46.8 42.7001 46.8Z" fill="#67B4A3"/>
<path d="M42.7001 55.7H94.6001C95.7001 55.7 96.7001 56.5999 96.7001 57.7999C96.7001 58.8999 95.8001 59.9 94.6001 59.9H42.7001C41.6001 59.9 40.6001 58.9999 40.6001 57.7999C40.6001 56.5999 41.5001 55.7 42.7001 55.7Z" fill="#67B4A3"/>
<path d="M42.7001 64.6001H86.6001C87.7001 64.6001 88.7001 65.5001 88.7001 66.7001C88.7001 67.8001 87.8001 68.8001 86.6001 68.8001H42.7001C41.6001 68.8001 40.6001 67.9001 40.6001 66.7001C40.6001 65.5001 41.5001 64.6001 42.7001 64.6001Z" fill="#67B4A3"/>
<path d="M27.3001 59.3C25.4001 58.7 24.4001 57.1 24.0001 55.7C22.9001 56.2 21.7001 56.5999 20.3001 56.5999C19.0001 56.5999 17.7001 56.3 16.6001 55.7C16.1001 57.1 15.2001 58.7 13.3001 59.3C9.4001 60.6 6.1001 62.0999 6.1001 67.6999C6.1001 67.9999 6.3001 68.1999 6.6001 68.1999H34.0001C34.3001 68.1999 34.5001 67.9999 34.5001 67.6999C34.5001 62.0999 31.3001 60.6 27.3001 59.3Z" fill="#C0C5CB"/>
<path d="M20.4001 38C16.4001 38 13.1001 41.3 13.1001 45.3V48.2C13.1001 52.2 16.4001 55.5 20.4001 55.5C24.4001 55.5 27.7001 52.2 27.7001 48.2V45.3C27.7001 41.3 24.4001 38 20.4001 38Z" fill="#C0C5CB"/>
<path d="M98 7H111C112.1 7 113 7.9 113 9V22C113 23.1 112.1 24 111 24H98C96.9 24 96 23.1 96 22V9C96 7.9 96.9 7 98 7Z" fill="white"/>
<path d="M104 15H98V9H104V15ZM99.1 13.9H102.9V10.1H99.1V13.9Z" fill="#474747"/>
<path d="M111 15H105V9H111V15ZM106.1 13.9H109.9V10.1H106.1V13.9Z" fill="#474747"/>
<path d="M104 22H98V16H104V22ZM99.1 20.9H102.9V17.1H99.1V20.9Z" fill="#474747"/>
<path d="M111 19.8H109.9V17.1H108.8V18.7H105.6V16H106.7V17.6H107.8V16H111V19.8Z" fill="#474747"/>
<path d="M111 22H105.6V19.8H106.7V20.9H111V22V22Z" fill="#474747"/>
<path d="M101.8 11.2H100.2V12.7999H101.8V11.2Z" fill="#474747"/>
<path d="M108.8 11.2H107.2V12.7999H108.8V11.2Z" fill="#474747"/>
<path d="M101.8 18.2H100.2V19.7999H101.8V18.2Z" fill="#474747"/>
<path d="M19.6 23C24.7914 23 29 18.7914 29 13.6C29 8.40847 24.7914 4.19995 19.6 4.19995C14.4085 4.19995 10.2 8.40847 10.2 13.6C10.2 18.7914 14.4085 23 19.6 23Z" fill="#EB2227"/>
<path d="M19.5999 22.5999C24.5704 22.5999 28.5999 18.5704 28.5999 13.5999C28.5999 8.62929 24.5704 4.59985 19.5999 4.59985C14.6293 4.59985 10.5999 8.62929 10.5999 13.5999C10.5999 18.5704 14.6293 22.5999 19.5999 22.5999Z" fill="#FFE500"/>
<path d="M19.5999 21.0999C23.742 21.0999 27.0999 17.742 27.0999 13.5999C27.0999 9.45772 23.742 6.09985 19.5999 6.09985C15.4577 6.09985 12.0999 9.45772 12.0999 13.5999C12.0999 17.742 15.4577 21.0999 19.5999 21.0999Z" fill="#EB2227"/>
</g>
<defs>
<clipPath id="clip0_1516_4368">
<rect width="118" height="75" rx="6" fill="white"/>
</clipPath>
</defs>
</svg>
