<svg width="120" height="76" viewBox="0 0 120 76" fill="none" xmlns="http://www.w3.org/2000/svg">
<rect x="0.214844" width="119.786" height="75.8385" fill="#F4E8AC"/>
<line x1="0.214844" y1="17.0721" x2="119.786" y2="17.0721" stroke="#A89950" stroke-width="0.408829"/>
<line x1="0.214844" y1="67.5375" x2="119.786" y2="67.5375" stroke="#A89950" stroke-width="0.408829"/>
<line x1="81.8001" y1="9.17135e-09" x2="81.8001" y2="75.9256" stroke="#A89950" stroke-width="0.408829"/>
<rect x="4.30664" y="6.81964" width="73.2159" height="3.00065" rx="1.50033" fill="#EB2227"/>
<rect x="84.3223" y="6.81964" width="30.9158" height="3.18251" rx="1.59125" fill="#EB2227"/>
<circle cx="38.3257" cy="40.8398" r="16.7436" fill="#F6EBAD"/>
<circle cx="38.5268" cy="41.0403" r="14.2163" fill="#EADA95"/>
<g clip-path="url(#clip0_528_850)">
<path d="M46.5218 49.7247L44.2009 49.4506L45.1615 48.6591L47.4824 48.9332L46.5218 49.7247Z" fill="#F6EBAD"/>
<path d="M44.0676 46.7507L43.896 49.0817L44.8566 48.2902L45.0282 45.9591L44.0676 46.7507Z" fill="#F6EBAD"/>
<path d="M48.2384 47.8573L45.9099 48.0725L46.6861 47.099L49.0121 46.8839L48.2384 47.8573Z" fill="#F6EBAD"/>
<path d="M45.2166 45.4596L45.5342 47.7727L46.3078 46.7993L45.9927 44.4836L45.2166 45.4596Z" fill="#F6EBAD"/>
<path d="M49.5259 45.6747L47.2947 46.3689L47.8506 45.2546L50.0817 44.5604L49.5259 45.6747Z" fill="#F6EBAD"/>
<path d="M46.0759 43.9559L46.8649 46.1538L47.4208 45.0394L46.6292 42.8416L46.0759 43.9559Z" fill="#F6EBAD"/>
<path d="M50.3337 43.272L48.2947 44.4145L48.6072 43.2079L50.6463 42.0654L50.3337 43.272Z" fill="#F6EBAD"/>
<path d="M46.6013 42.3062L47.8309 44.294L48.1434 43.0875L46.9113 41.1022L46.6013 42.3062Z" fill="#F6EBAD"/>
<path d="M50.6242 40.7513L48.8669 42.2934L48.9207 41.051L50.678 39.5089L50.6242 40.7513Z" fill="#F6EBAD"/>
<path d="M46.7731 40.5847L48.3895 42.2729L48.4433 41.0279L46.8269 39.3423L46.7731 40.5847Z" fill="#F6EBAD"/>
<path d="M50.3846 38.2281L48.9859 40.1006L48.781 38.8736L50.1797 37.001L50.3846 38.2281Z" fill="#F6EBAD"/>
<path d="M46.5797 38.8659L48.5137 40.18L48.3062 38.953L46.3748 37.6389L46.5797 38.8659Z" fill="#F6EBAD"/>
<path d="M49.6239 35.8073L48.6479 37.9309L48.1893 36.773L49.1679 34.6494L49.6239 35.8073Z" fill="#F6EBAD"/>
<path d="M46.0378 37.2213L48.1998 38.1051L47.7438 36.9472L45.5818 36.0635L46.0378 37.2213Z" fill="#F6EBAD"/>
<path d="M48.3789 33.5992L47.864 35.879L47.1775 34.8416L47.6924 32.5617L48.3789 33.5992Z" fill="#F6EBAD"/>
<path d="M45.1648 35.7279L47.4651 36.1429L46.7786 35.1054L44.4783 34.6904L45.1648 35.7279Z" fill="#F6EBAD"/>
<path d="M46.7008 31.6984L46.67 34.0346L45.7811 33.1637L45.8119 30.8275L46.7008 31.6984Z" fill="#F6EBAD"/>
<path d="M43.9991 34.4496L46.3353 34.3779L45.4464 33.5044L43.1128 33.5761L43.9991 34.4496Z" fill="#F6EBAD"/>
<path d="M43.8931 49.5377C42.4561 50.4443 40.8179 50.9828 39.1233 51.1054L39.1053 50.5931C40.7525 50.5943 42.3746 50.1905 43.829 49.4173L43.8931 49.5377Z" fill="#F6EBAD"/>
<path d="M45.3817 31.1246L45.3587 32.8127L44.7183 32.1826L44.7388 30.4944L45.3817 31.1246Z" fill="#F6EBAD"/>
<path d="M43.4273 33.1124L45.118 33.0612L44.475 32.431L42.7869 32.4823L43.4273 33.1124Z" fill="#F6EBAD"/>
<path d="M30.2865 49.6939L32.6074 49.4198L31.6468 48.6283L29.3259 48.9024L30.2865 49.6939Z" fill="#F6EBAD"/>
<path d="M32.7371 46.7199L32.9113 49.0484L31.9507 48.2569L31.7791 45.9283L32.7371 46.7199Z" fill="#F6EBAD"/>
<path d="M28.5702 47.8265L30.8962 48.0417L30.1226 47.0657L27.7966 46.8531L28.5702 47.8265Z" fill="#F6EBAD"/>
<path d="M31.5885 45.4262L31.2734 47.742L30.4998 46.7685L30.8148 44.4528L31.5885 45.4262Z" fill="#F6EBAD"/>
<path d="M27.2802 45.644L29.5114 46.3357L28.9556 45.2214L26.7244 44.5297L27.2802 45.644Z" fill="#F6EBAD"/>
<path d="M30.7313 43.9226L29.9398 46.1231L29.3865 45.0087L30.1755 42.8083L30.7313 43.9226Z" fill="#F6EBAD"/>
<path d="M26.4718 43.2386L28.5109 44.3811L28.2009 43.1772L26.1619 42.0347L26.4718 43.2386Z" fill="#F6EBAD"/>
<path d="M30.2059 42.2754L28.9738 44.2607L28.6638 43.0567L29.8934 41.0689L30.2059 42.2754Z" fill="#F6EBAD"/>
<path d="M26.1822 40.7205L27.9395 42.2601L27.8857 41.0177L26.1284 39.4756L26.1822 40.7205Z" fill="#F6EBAD"/>
<path d="M30.0352 40.554L28.4188 42.2396L28.365 40.9972L29.9814 39.3091L30.0352 40.554Z" fill="#F6EBAD"/>
<path d="M26.4236 38.1947L27.8197 40.0673L28.0272 38.8403L26.6285 36.9677L26.4236 38.1947Z" fill="#F6EBAD"/>
<path d="M30.2242 38.8326L28.2927 40.1467L28.4977 38.9197L30.4317 37.6056L30.2242 38.8326Z" fill="#F6EBAD"/>
<path d="M27.1814 35.7766L28.1599 37.8976L28.6159 36.7398L27.6374 34.6187L27.1814 35.7766Z" fill="#F6EBAD"/>
<path d="M30.7698 37.1906L28.6052 38.0743L29.0612 36.9165L31.2258 36.0327L30.7698 37.1906Z" fill="#F6EBAD"/>
<path d="M28.4292 33.5684L28.9441 35.8457L29.6306 34.8082L29.1157 32.5309L28.4292 33.5684Z" fill="#F6EBAD"/>
<path d="M31.6439 35.6971L29.3435 36.1121L30.03 35.0747L32.3304 34.6597L31.6439 35.6971Z" fill="#F6EBAD"/>
<path d="M30.1072 31.6651L30.1354 34.0014L31.0242 33.1304L30.9935 30.7942L30.1072 31.6651Z" fill="#F6EBAD"/>
<path d="M32.8061 34.4163L30.4724 34.3446L31.3587 33.4736L33.695 33.5454L32.8061 34.4163Z" fill="#F6EBAD"/>
<path d="M33.138 49.4173C34.5925 50.1902 36.2146 50.594 37.8617 50.5931L37.8438 51.1054C36.1493 50.9821 34.5112 50.4437 33.074 49.5377L33.138 49.4173Z" fill="#F6EBAD"/>
<path d="M31.4255 31.0913L31.446 32.782L32.089 32.1519L32.0659 30.4612L31.4255 31.0913Z" fill="#F6EBAD"/>
<path d="M33.3773 33.0817L31.6892 33.0279L32.3322 32.3978L34.0203 32.449L33.3773 33.0817Z" fill="#F6EBAD"/>
<path d="M38.5525 34.816L39.8465 38.7986L44.0341 38.7986L40.6463 41.26L41.9403 45.2426L38.5525 42.7812L35.1647 45.2426L36.4587 41.26L33.0709 38.7986L37.2585 38.7986L38.5525 34.816Z" fill="#F6EBAD"/>
</g>
<path d="M20.6697 31.4432H5.23557C4.98869 31.4432 4.75191 31.3436 4.57733 31.1662C4.40276 30.9889 4.30469 30.7483 4.30469 30.4975C4.30469 30.2467 4.40276 30.0062 4.57733 29.8289C4.75191 29.6515 4.98869 29.5519 5.23557 29.5519H20.6697C20.9165 29.5519 21.1533 29.6515 21.3279 29.8289C21.5025 30.0062 21.6005 30.2467 21.6005 30.4975C21.6005 30.7483 21.5025 30.9889 21.3279 31.1662C21.1533 31.3436 20.9165 31.4432 20.6697 31.4432Z" fill="#E2D390"/>
<path d="M20.6697 46.053H5.23557C4.98869 46.053 4.75191 45.9534 4.57733 45.776C4.40276 45.5987 4.30469 45.3581 4.30469 45.1073C4.30469 44.8565 4.40276 44.616 4.57733 44.4387C4.75191 44.2613 4.98869 44.1617 5.23557 44.1617H20.6697C20.9165 44.1617 21.1533 44.2613 21.3279 44.4387C21.5025 44.616 21.6005 44.8565 21.6005 45.1073C21.6005 45.3581 21.5025 45.5987 21.3279 45.776C21.1533 45.9534 20.9165 46.053 20.6697 46.053Z" fill="#E2D390"/>
<rect x="4.30469" y="34.553" width="73.1977" height="3.18251" rx="1.59125" fill="white"/>
<rect x="4.30469" y="49.5562" width="73.1977" height="2.72786" rx="1.36393" fill="white"/>
<path d="M91.3377 31.4432H84.723C84.6172 31.4432 84.5158 31.3436 84.4409 31.1662C84.3661 30.9889 84.3241 30.7483 84.3241 30.4975C84.3241 30.2467 84.3661 30.0062 84.4409 29.8289C84.5158 29.6515 84.6172 29.5519 84.723 29.5519H91.3377C91.4435 29.5519 91.5449 29.6515 91.6198 29.8289C91.6946 30.0062 91.7366 30.2467 91.7366 30.4975C91.7366 30.7483 91.6946 30.9889 91.6198 31.1662C91.5449 31.3436 91.4435 31.4432 91.3377 31.4432Z" fill="#E2D390"/>
<path d="M91.3377 46.053H84.723C84.6172 46.053 84.5158 45.9534 84.4409 45.776C84.3661 45.5987 84.3241 45.3581 84.3241 45.1073C84.3241 44.8565 84.3661 44.616 84.4409 44.4387C84.5158 44.2613 84.6172 44.1617 84.723 44.1617H91.3377C91.4435 44.1617 91.5449 44.2613 91.6198 44.4387C91.6946 44.616 91.7366 44.8565 91.7366 45.1073C91.7366 45.3581 91.6946 45.5987 91.6198 45.776C91.5449 45.9534 91.4435 46.053 91.3377 46.053Z" fill="#E2D390"/>
<rect x="84.3241" y="34.553" width="31.3704" height="3.18251" rx="1.59125" fill="white"/>
<rect x="84.3241" y="49.5562" width="31.3704" height="2.72786" rx="1.36393" fill="white"/>
<defs>
<clipPath id="clip0_528_850">
<rect width="24.5508" height="20.6443" fill="white" transform="translate(26.1287 30.4612)"/>
</clipPath>
</defs>
</svg>
