<svg width="120" height="76" viewBox="0 0 120 76" fill="none" xmlns="http://www.w3.org/2000/svg">
<rect width="120" height="75.974" rx="2.33766" fill="url(#paint0_linear_528_780)"/>
<rect width="120" height="75.974" fill="#F4E8AC"/>
<circle cx="62.7738" cy="38.18" r="16.7735" fill="#F6EBAD"/>
<circle cx="62.9744" cy="38.3809" r="14.2417" fill="#EADA95"/>
<g clip-path="url(#clip0_528_780)">
<path d="M70.9872 47.0809L68.6622 46.8063L69.6246 46.0133L71.9496 46.2879L70.9872 47.0809Z" fill="#F6EBAD"/>
<path d="M68.5295 44.1015L68.3575 46.4368L69.3199 45.6438L69.4918 43.3085L68.5295 44.1015Z" fill="#F6EBAD"/>
<path d="M72.7078 45.2101L70.3751 45.4256L71.1527 44.4505L73.4828 44.2349L72.7078 45.2101Z" fill="#F6EBAD"/>
<path d="M69.6798 42.8081L69.998 45.1254L70.773 44.1502L70.4574 41.8304L69.6798 42.8081Z" fill="#F6EBAD"/>
<path d="M73.997 43.0237L71.7618 43.7192L72.3187 42.6029L74.5539 41.9074L73.997 43.0237Z" fill="#F6EBAD"/>
<path d="M70.5411 41.3017L71.3315 43.5035L71.8884 42.3872L71.0954 40.1854L70.5411 41.3017Z" fill="#F6EBAD"/>
<path d="M74.8065 40.6166L72.7638 41.7611L73.0769 40.5524L75.1196 39.4079L74.8065 40.6166Z" fill="#F6EBAD"/>
<path d="M71.0667 39.6491L72.2984 41.6405L72.6115 40.4318L71.3772 38.443L71.0667 39.6491Z" fill="#F6EBAD"/>
<path d="M75.0984 38.0914L73.338 39.6363L73.3919 38.3917L75.1523 36.8468L75.0984 38.0914Z" fill="#F6EBAD"/>
<path d="M71.2384 37.9246L72.8577 39.6157L72.9116 38.3686L71.2923 36.68L71.2384 37.9246Z" fill="#F6EBAD"/>
<path d="M74.8566 35.5637L73.4554 37.4396L73.2501 36.2104L74.6513 34.3345L74.8566 35.5637Z" fill="#F6EBAD"/>
<path d="M71.0453 36.2027L72.9828 37.5191L72.7749 36.2899L70.84 34.9734L71.0453 36.2027Z" fill="#F6EBAD"/>
<path d="M74.0954 33.1386L73.1177 35.266L72.6583 34.106L73.6386 31.9786L74.0954 33.1386Z" fill="#F6EBAD"/>
<path d="M70.5018 34.5551L72.6677 35.4405L72.2109 34.2805L70.045 33.3952L70.5018 34.5551Z" fill="#F6EBAD"/>
<path d="M72.8482 30.9265L72.3324 33.2105L71.6447 32.1711L72.1605 29.8872L72.8482 30.9265Z" fill="#F6EBAD"/>
<path d="M69.6274 33.059L71.9319 33.4748L71.2442 32.4354L68.9397 32.0197L69.6274 33.059Z" fill="#F6EBAD"/>
<path d="M71.1675 29.0224L71.1367 31.3627L70.2462 30.4902L70.277 28.1498L71.1675 29.0224Z" fill="#F6EBAD"/>
<path d="M68.4603 31.7785L70.8007 31.7066L69.9102 30.8315L67.5724 30.9034L68.4603 31.7785Z" fill="#F6EBAD"/>
<path d="M68.355 46.8936C66.9155 47.8018 65.2743 48.3413 63.5767 48.4641L63.5587 47.9508C65.2088 47.9521 66.8339 47.5476 68.2908 46.7729L68.355 46.8936Z" fill="#F6EBAD"/>
<path d="M69.8445 28.4476L69.8214 30.1387L69.1798 29.5074L69.2003 27.8163L69.8445 28.4476Z" fill="#F6EBAD"/>
<path d="M67.8878 30.4389L69.5815 30.3876L68.9374 29.7563L67.2462 29.8076L67.8878 30.4389Z" fill="#F6EBAD"/>
<path d="M54.7222 47.0501L57.0472 46.7755L56.0849 45.9825L53.7599 46.2571L54.7222 47.0501Z" fill="#F6EBAD"/>
<path d="M57.1786 44.0707L57.3531 46.4034L56.3908 45.6104L56.2189 43.2777L57.1786 44.0707Z" fill="#F6EBAD"/>
<path d="M53.0036 45.1793L55.3338 45.3948L54.5588 44.4171L52.2286 44.2041L53.0036 45.1793Z" fill="#F6EBAD"/>
<path d="M56.0263 42.7747L55.7107 45.0946L54.9357 44.1194L55.2513 41.7996L56.0263 42.7747Z" fill="#F6EBAD"/>
<path d="M51.7132 42.9929L53.9484 43.6858L53.3915 42.5695L51.1564 41.8766L51.7132 42.9929Z" fill="#F6EBAD"/>
<path d="M55.1697 41.2684L54.3767 43.4728L53.8224 42.3565L54.6128 40.1521L55.1697 41.2684Z" fill="#F6EBAD"/>
<path d="M50.9024 40.5832L52.9451 41.7277L52.6346 40.5216L50.5919 39.3771L50.9024 40.5832Z" fill="#F6EBAD"/>
<path d="M54.6426 39.6183L53.4083 41.6071L53.0978 40.401L54.3296 38.4096L54.6426 39.6183Z" fill="#F6EBAD"/>
<path d="M50.6107 38.0606L52.3711 39.6029L52.3172 38.3583L50.5568 36.8134L50.6107 38.0606Z" fill="#F6EBAD"/>
<path d="M54.4721 37.8938L52.8528 39.5824L52.799 38.3377L54.4182 36.6466L54.4721 37.8938Z" fill="#F6EBAD"/>
<path d="M50.8536 35.5303L52.2522 37.4062L52.4601 36.177L51.0589 34.3011L50.8536 35.5303Z" fill="#F6EBAD"/>
<path d="M54.6597 36.1693L52.7247 37.4858L52.93 36.2565L54.8675 34.9401L54.6597 36.1693Z" fill="#F6EBAD"/>
<path d="M51.6115 33.1078L52.5917 35.2326L53.0485 34.0727L52.0682 31.9479L51.6115 33.1078Z" fill="#F6EBAD"/>
<path d="M55.2076 34.5244L53.0392 35.4097L53.496 34.2498L55.6644 33.3644L55.2076 34.5244Z" fill="#F6EBAD"/>
<path d="M52.8634 30.8957L53.3792 33.1771L54.067 32.1378L53.5512 29.8564L52.8634 30.8957Z" fill="#F6EBAD"/>
<path d="M56.0839 33.0282L53.7794 33.4439L54.4672 32.4046L56.7716 31.9889L56.0839 33.0282Z" fill="#F6EBAD"/>
<path d="M54.543 28.989L54.5712 31.3294L55.4617 30.4569L55.4309 28.1165L54.543 28.989Z" fill="#F6EBAD"/>
<path d="M57.2482 31.7451L54.9104 31.6733L55.7983 30.8008L58.1387 30.8726L57.2482 31.7451Z" fill="#F6EBAD"/>
<path d="M57.5799 46.7729C59.037 47.5473 60.662 47.9517 62.312 47.9508L62.294 48.4641C60.5966 48.3405 58.9555 47.8012 57.5157 46.8936L57.5799 46.7729Z" fill="#F6EBAD"/>
<path d="M55.8654 28.4142L55.8859 30.1079L56.53 29.4766L56.5069 27.7829L55.8654 28.4142Z" fill="#F6EBAD"/>
<path d="M57.8202 30.4081L56.129 30.3543L56.7731 29.723L58.4643 29.7743L57.8202 30.4081Z" fill="#F6EBAD"/>
<path d="M63.0046 32.1455L64.3009 36.1352L68.496 36.1352L65.1021 38.601L66.3985 42.5908L63.0046 40.125L59.6107 42.5908L60.9071 38.601L57.5132 36.1352L61.7082 36.1352L63.0046 32.1455Z" fill="#F6EBAD"/>
</g>
<circle cx="96.7849" cy="63.0807" r="7.27971" fill="white" stroke="#EB2227" stroke-width="1.38155"/>
<circle cx="96.785" cy="63.0807" r="4.88856" fill="#EB2227"/>
<path d="M55.5641 31.4994H40.1025C39.8551 31.4994 39.6179 31.3996 39.4431 31.2219C39.2682 31.0442 39.1699 30.8033 39.1699 30.552C39.1699 30.3008 39.2682 30.0598 39.4431 29.8821C39.6179 29.7045 39.8551 29.6047 40.1025 29.6047H55.5641C55.8115 29.6047 56.0486 29.7045 56.2235 29.8821C56.3984 30.0598 56.4967 30.3008 56.4967 30.552C56.4967 30.8033 56.3984 31.0442 56.2235 31.2219C56.0486 31.3996 55.8115 31.4994 55.5641 31.4994Z" fill="#E2D390"/>
<path d="M55.5641 46.1353H40.1025C39.8551 46.1353 39.6179 46.0355 39.4431 45.8578C39.2682 45.6802 39.1699 45.4392 39.1699 45.188C39.1699 44.9367 39.2682 44.6957 39.4431 44.5181C39.6179 44.3404 39.8551 44.2406 40.1025 44.2406H55.5641C55.8115 44.2406 56.0486 44.3404 56.2235 44.5181C56.3984 44.6957 56.4967 44.9367 56.4967 45.188C56.4967 45.4392 56.3984 45.6802 56.2235 45.8578C56.0486 46.0355 55.8115 46.1353 55.5641 46.1353Z" fill="#E2D390"/>
<rect x="39.1699" y="34.6147" width="73.3285" height="3.18819" rx="1.5941" fill="white"/>
<rect x="39.1699" y="49.6447" width="73.3285" height="2.73274" rx="1.36637" fill="white"/>
<rect x="46.0215" y="17.7155" width="60.481" height="3.00601" rx="1.50301" fill="#EB2227"/>
<rect x="39.1699" y="10.02" width="73.3467" height="3.00601" rx="1.50301" fill="#EB2227"/>
<rect x="7.79724" y="26.4164" width="21.2566" height="28.3422" fill="white"/>
<g clip-path="url(#clip1_528_780)">
<path d="M23.4367 48.1082C22.0631 47.6622 21.3936 46.5073 21.0669 45.5076C20.2757 45.8995 19.3882 46.1258 18.447 46.1258C17.5055 46.1258 16.618 45.8995 15.8268 45.5072C15.4997 46.5073 14.8302 47.6626 13.4574 48.1082C10.6544 49.0184 8.33447 50.1007 8.33447 54.1461C8.33447 54.3386 8.49069 54.4948 8.68318 54.4948H28.2109C28.4034 54.4948 28.5596 54.3386 28.5596 54.1461C28.5596 50.1007 26.2396 49.0184 23.4367 48.1082Z" fill="#C0C5CB"/>
<path d="M18.4479 32.8749C15.5637 32.8749 13.2173 35.2213 13.2173 38.1055V40.1978C13.2173 43.0819 15.5637 45.4284 18.4479 45.4284C21.3321 45.4284 23.6785 43.0819 23.6785 40.1978V38.1055C23.6785 35.2213 21.3321 32.8749 18.4479 32.8749Z" fill="#C0C5CB"/>
</g>
<defs>
<linearGradient id="paint0_linear_528_780" x1="57.8429" y1="1.82183" x2="57.8429" y2="76.0612" gradientUnits="userSpaceOnUse">
<stop stop-color="#FFF4BC"/>
<stop offset="1" stop-color="#EDDD9F"/>
</linearGradient>
<clipPath id="clip0_528_780">
<rect width="24.5946" height="20.6812" fill="white" transform="translate(50.5568 27.7829)"/>
</clipPath>
<clipPath id="clip1_528_780">
<rect width="22.3174" height="22.3174" fill="white" transform="translate(7.2876 32.5262)"/>
</clipPath>
</defs>
</svg>
