<svg width="295" height="185" viewBox="0 0 295 185" fill="none" xmlns="http://www.w3.org/2000/svg">
    <rect width="295" height="184.438" rx="8.54344" fill="url(#paint0_linear_1974_5430)" />
    <path
        d="M55.2001 54.8H28.8001C26.4805 54.8 24.6001 56.6805 24.6001 59V77C24.6001 79.3196 26.4805 81.2001 28.8001 81.2001H55.2001C57.5197 81.2001 59.4001 79.3196 59.4001 77V59C59.4001 56.6805 57.5197 54.8 55.2001 54.8Z"
        fill="#F9C84E" />
    <path
        d="M36.0003 54.8V81.2H34.8003V77.6H24.6483C24.614 77.4019 24.5979 77.2011 24.6003 77V76.4H34.8003V71.6H24.6003V70.4H34.8003V65.6H24.6003V64.4H34.8003V59.6H24.6003V59C24.5979 58.799 24.614 58.5982 24.6483 58.4H34.8003V54.8H36.0003Z"
        fill="#EAAA42" />
    <path
        d="M59.4 59V59.6H49.2C48.882 59.5991 48.5774 59.4724 48.3525 59.2475C48.1277 59.0227 48.0009 58.718 48 58.4V54.8H49.2V58.4H59.352C59.3863 58.5982 59.4024 58.799 59.4 59V59Z"
        fill="#EAAA42" />
    <path
        d="M49.2 65.6V70.4H59.4V71.6H49.2V76.4H59.4V77C59.4024 77.201 59.3863 77.4019 59.352 77.6H49.2V81.2H48V65.6C48.0009 65.282 48.1277 64.9773 48.3525 64.7525C48.5774 64.5276 48.882 64.4009 49.2 64.4H59.4V65.6H49.2Z"
        fill="#EAAA42" />
    <path fill-rule="evenodd" clip-rule="evenodd"
        d="M272.999 155.369L266.802 155.391L260.438 161.433L266.636 161.411L272.999 155.369Z"
        fill="#049BD7" />
    <path fill-rule="evenodd" clip-rule="evenodd"
        d="M267.72 150.488H261.478V157.604L267.72 161.002V150.488Z" fill="#1E417E" />
    <path fill-rule="evenodd" clip-rule="evenodd"
        d="M256.111 154.063H262.409L272.701 166.292H266.592L256.111 154.063Z" fill="#A5CE39" />
    <path fill-rule="evenodd" clip-rule="evenodd"
        d="M258.446 168.439H264.588L267.72 160.382L263.791 161.411L260.405 163.58L258.446 168.439Z"
        fill="#049BD7" />
    <path fill-rule="evenodd" clip-rule="evenodd"
        d="M267.72 160.382L261.534 160.393L255.292 166.325H261.49L265.983 162.053L267.72 160.382Z"
        fill="#1E417E" />
    <path
        d="M272.955 157.35H273.276H273.442C273.442 157.35 273.52 157.35 273.531 157.272C273.542 157.24 273.542 157.205 273.531 157.173C273.547 157.13 273.547 157.083 273.531 157.04C273.476 157 273.41 156.98 273.343 156.984H272.977L272.955 157.35ZM272.767 157.992V156.885H273.276H273.509C273.565 156.908 273.612 156.948 273.644 157C273.676 157.052 273.69 157.112 273.686 157.173C273.688 157.211 273.683 157.25 273.669 157.286C273.656 157.322 273.635 157.355 273.608 157.383C273.542 157.444 273.455 157.48 273.365 157.482L273.453 157.549C273.506 157.593 273.55 157.645 273.586 157.704L273.785 158.014H273.597L273.442 157.77L273.332 157.615L273.254 157.538H273.177H272.922V158.047L272.767 157.992Z"
        fill="#1E417E" />
    <path
        d="M273.199 156.52C273.019 156.52 272.844 156.573 272.694 156.673C272.545 156.772 272.429 156.914 272.36 157.08C272.291 157.246 272.273 157.428 272.308 157.604C272.343 157.78 272.43 157.942 272.557 158.069C272.684 158.196 272.845 158.282 273.021 158.317C273.198 158.352 273.38 158.334 273.546 158.266C273.712 158.197 273.853 158.081 273.953 157.931C274.053 157.782 274.106 157.607 274.106 157.427C274.108 157.308 274.085 157.189 274.04 157.078C273.995 156.967 273.928 156.867 273.844 156.782C273.759 156.698 273.658 156.631 273.548 156.586C273.437 156.541 273.318 156.518 273.199 156.52V156.52Z"
        stroke="#1E417E" stroke-width="0.15598" stroke-linecap="round" stroke-linejoin="round" />
    <path fill-rule="evenodd" clip-rule="evenodd"
        d="M204.698 156.104C206.342 155.509 208.074 155.194 209.822 155.171C212.622 155.171 213.835 156.17 213.751 158.269C213.676 160.042 212.556 165.735 212.556 165.735H209.635C209.635 165.735 210.727 159.912 210.727 158.904C210.727 157.896 209.262 157.803 209.001 157.803C208.41 157.786 207.824 157.901 207.283 158.139C207.125 159.072 205.921 165.707 205.921 165.707H203L204.698 156.104Z"
        fill="#1E417E" />
    <path fill-rule="evenodd" clip-rule="evenodd"
        d="M220.199 161.097C219.533 161.04 218.863 161.062 218.202 161.162C217.885 161.256 217.608 161.451 217.413 161.717C217.217 161.984 217.114 162.307 217.12 162.637C217.12 163.505 218.053 164.027 218.855 164.027C219.145 164.04 219.434 163.993 219.705 163.887C219.901 162.814 220.199 161.097 220.199 161.097ZM215.29 158.176L215.654 155.834C216.829 155.437 218.055 155.214 219.294 155.171C221.058 155.171 223.577 155.554 223.577 157.971C223.577 158.54 222.486 164.765 222.42 165.325C221.24 165.713 220.005 165.908 218.762 165.903C217.922 165.903 214.227 165.642 214.227 162.702C214.227 159.539 217.838 159.137 220.488 159.436C220.684 158.876 221.086 157.569 218.669 157.569C217.522 157.629 216.387 157.833 215.29 158.176V158.176Z"
        fill="#1E417E" />
    <path fill-rule="evenodd" clip-rule="evenodd"
        d="M241.01 161.097C240.344 161.04 239.674 161.062 239.013 161.162C238.696 161.256 238.419 161.451 238.224 161.717C238.028 161.984 237.925 162.307 237.931 162.637C237.931 163.505 238.864 164.027 239.666 164.027C239.959 164.04 240.251 163.993 240.525 163.887C240.721 162.814 241.01 161.097 241.01 161.097ZM236.101 158.176L236.465 155.834C237.64 155.437 238.866 155.214 240.105 155.171C241.869 155.171 244.388 155.554 244.388 157.971C244.388 158.54 243.297 164.765 243.231 165.325C242.051 165.713 240.816 165.908 239.573 165.903C238.733 165.903 235.047 165.642 235.047 162.702C235.047 159.539 238.649 159.137 241.309 159.436C241.495 158.876 241.897 157.569 239.489 157.569C238.339 157.629 237.201 157.832 236.101 158.176Z"
        fill="#1E417E" />
    <path fill-rule="evenodd" clip-rule="evenodd"
        d="M228.094 158.223C228.572 157.946 229.12 157.816 229.672 157.849C229.929 157.838 230.187 157.879 230.427 157.972C230.668 158.065 230.887 158.206 231.07 158.388C231.253 158.569 231.397 158.787 231.492 159.027C231.587 159.267 231.631 159.523 231.622 159.781C231.622 161.078 231.043 163.514 228.748 163.514C228.221 163.49 227.704 163.363 227.226 163.141C227.441 161.704 228.094 158.223 228.094 158.223ZM225.5 156.104C226.856 155.545 228.299 155.229 229.765 155.171C230.446 155.171 234.524 155.171 234.524 159.744C234.524 161.172 234.366 165.866 228.99 165.866C228.261 165.819 227.54 165.685 226.844 165.465L226.032 170H223.008L225.5 156.104Z"
        fill="#1E417E" />
    <path fill-rule="evenodd" clip-rule="evenodd"
        d="M252.778 158.708C252.778 158.708 253.133 156.58 253.226 156.198C252.271 155.523 251.129 155.164 249.96 155.171C248.7 155.171 245.574 155.432 245.574 158.577C245.551 159.207 245.741 159.826 246.114 160.334C246.487 160.842 247.02 161.209 247.627 161.377C249.605 162.142 249.951 161.984 249.951 162.767C249.951 163.551 249.017 163.635 248.504 163.635C247.249 163.55 246.058 163.043 245.126 162.198C245.023 163.253 244.781 164.457 244.734 164.709C245.814 165.581 247.185 166.012 248.569 165.912C250.576 165.912 252.937 165.026 252.937 162.413C252.937 161.564 252.816 160.126 249.381 159.203C249.153 159.17 248.944 159.059 248.789 158.889C248.634 158.719 248.543 158.499 248.532 158.269C248.532 157.943 248.793 157.495 249.932 157.495C250.998 157.534 252.012 157.966 252.778 158.708V158.708Z"
        fill="#1E417E" />
    <path
        d="M28.9922 106.188C31.6797 106.188 33.2969 103.945 33.2969 100.367V100.352C33.2969 96.7734 31.6797 94.5391 28.9922 94.5391C26.2969 94.5391 24.6875 96.7734 24.6875 100.352V100.367C24.6875 103.945 26.2969 106.188 28.9922 106.188ZM28.9922 104.727C27.3828 104.727 26.4531 103.07 26.4531 100.367V100.352C26.4531 97.6484 27.3828 96.0078 28.9922 96.0078C30.5938 96.0078 31.5312 97.6484 31.5312 100.352V100.367C31.5312 103.07 30.5938 104.727 28.9922 104.727ZM38.9453 94.5391C36.5625 94.5391 34.8203 96.1562 34.8203 98.4062V98.4219C34.8203 100.555 36.3828 102.125 38.5391 102.125C40.0703 102.125 41.2109 101.328 41.6562 100.312H41.6953C41.6953 100.414 41.6953 100.516 41.6875 100.617C41.6172 102.852 40.8281 104.719 38.8906 104.719C37.8125 104.719 37.0781 104.188 36.7578 103.344L36.7266 103.266H34.9766L35 103.359C35.3594 105.039 36.8672 106.188 38.875 106.188C41.6953 106.188 43.375 103.969 43.375 100.211V100.195C43.375 96.1406 41.25 94.5391 38.9453 94.5391ZM38.9375 100.703C37.5703 100.703 36.5625 99.7344 36.5625 98.375V98.3594C36.5625 97.0469 37.6328 96.0078 38.9609 96.0078C40.3047 96.0078 41.3516 97.0625 41.3516 98.3984V98.4062C41.3516 99.7422 40.3125 100.703 38.9375 100.703ZM49.0547 106.188C51.7422 106.188 53.3594 103.945 53.3594 100.367V100.352C53.3594 96.7734 51.7422 94.5391 49.0547 94.5391C46.3594 94.5391 44.75 96.7734 44.75 100.352V100.367C44.75 103.945 46.3594 106.188 49.0547 106.188ZM49.0547 104.727C47.4453 104.727 46.5156 103.07 46.5156 100.367V100.352C46.5156 97.6484 47.4453 96.0078 49.0547 96.0078C50.6562 96.0078 51.5938 97.6484 51.5938 100.352V100.367C51.5938 103.07 50.6562 104.727 49.0547 104.727ZM60.2812 106H61.9609V103.758H63.5156V102.289H61.9609V94.7266H59.4297L54.6406 102.234V103.758H60.2812V106ZM56.2656 102.312V102.266L60.25 96.1094H60.2969V102.312H56.2656ZM68.0938 106H75.8047V104.523H70.4375V104.453L73 101.938C75.0234 99.9375 75.625 99.0234 75.625 97.7344V97.7188C75.625 95.8984 74.0781 94.5391 71.9141 94.5391C69.7109 94.5391 68 96 68 98.0156V98.0625H69.6562V98.0156C69.6719 96.875 70.6172 95.9844 71.9375 95.9844C73.0781 95.9844 73.8906 96.75 73.8984 97.8203V97.8359C73.8984 98.7109 73.5625 99.3047 72.0625 100.805L68.0938 104.797V106ZM77.3594 106H85.0703V104.523H79.7031V104.453L82.2656 101.938C84.2891 99.9375 84.8906 99.0234 84.8906 97.7344V97.7188C84.8906 95.8984 83.3438 94.5391 81.1797 94.5391C78.9766 94.5391 77.2656 96 77.2656 98.0156V98.0625H78.9219V98.0156C78.9375 96.875 79.8828 95.9844 81.2031 95.9844C82.3438 95.9844 83.1562 96.75 83.1641 97.8203V97.8359C83.1641 98.7109 82.8281 99.3047 81.3281 100.805L77.3594 104.797V106ZM86.625 106H94.3359V104.523H88.9688V104.453L91.5312 101.938C93.5547 99.9375 94.1562 99.0234 94.1562 97.7344V97.7188C94.1562 95.8984 92.6094 94.5391 90.4453 94.5391C88.2422 94.5391 86.5312 96 86.5312 98.0156V98.0625H88.1875V98.0156C88.2031 96.875 89.1484 95.9844 90.4688 95.9844C91.6094 95.9844 92.4219 96.75 92.4297 97.8203V97.8359C92.4297 98.7109 92.0938 99.3047 90.5938 100.805L86.625 104.797V106ZM95.8906 106H103.602V104.523H98.2344V104.453L100.797 101.938C102.82 99.9375 103.422 99.0234 103.422 97.7344V97.7188C103.422 95.8984 101.875 94.5391 99.7109 94.5391C97.5078 94.5391 95.7969 96 95.7969 98.0156V98.0625H97.4531V98.0156C97.4688 96.875 98.4141 95.9844 99.7344 95.9844C100.875 95.9844 101.688 96.75 101.695 97.8203V97.8359C101.695 98.7109 101.359 99.3047 99.8594 100.805L95.8906 104.797V106ZM112.469 106.188C114.969 106.188 116.727 104.852 116.727 102.945V102.93C116.727 101.508 115.711 100.383 114.242 100.062V100.023C115.5 99.6641 116.32 98.7266 116.32 97.5312V97.5156C116.32 95.7969 114.711 94.5391 112.469 94.5391C110.227 94.5391 108.625 95.7969 108.625 97.5156V97.5312C108.625 98.7266 109.445 99.6641 110.703 100.023V100.062C109.234 100.383 108.211 101.508 108.211 102.93V102.945C108.211 104.852 109.977 106.188 112.469 106.188ZM112.469 99.4375C111.219 99.4375 110.359 98.7109 110.359 97.6875V97.6719C110.359 96.6406 111.219 95.9219 112.469 95.9219C113.719 95.9219 114.586 96.6406 114.586 97.6719V97.6875C114.586 98.7109 113.727 99.4375 112.469 99.4375ZM112.469 104.789C111.031 104.789 110.008 103.969 110.008 102.828V102.812C110.008 101.664 111.023 100.836 112.469 100.836C113.914 100.836 114.93 101.664 114.93 102.812V102.828C114.93 103.969 113.906 104.789 112.469 104.789ZM122.344 106.188C124.844 106.188 126.602 104.852 126.602 102.945V102.93C126.602 101.508 125.586 100.383 124.117 100.062V100.023C125.375 99.6641 126.195 98.7266 126.195 97.5312V97.5156C126.195 95.7969 124.586 94.5391 122.344 94.5391C120.102 94.5391 118.5 95.7969 118.5 97.5156V97.5312C118.5 98.7266 119.32 99.6641 120.578 100.023V100.062C119.109 100.383 118.086 101.508 118.086 102.93V102.945C118.086 104.852 119.852 106.188 122.344 106.188ZM122.344 99.4375C121.094 99.4375 120.234 98.7109 120.234 97.6875V97.6719C120.234 96.6406 121.094 95.9219 122.344 95.9219C123.594 95.9219 124.461 96.6406 124.461 97.6719V97.6875C124.461 98.7109 123.602 99.4375 122.344 99.4375ZM122.344 104.789C120.906 104.789 119.883 103.969 119.883 102.828V102.812C119.883 101.664 120.898 100.836 122.344 100.836C123.789 100.836 124.805 101.664 124.805 102.812V102.828C124.805 103.969 123.781 104.789 122.344 104.789ZM132.219 106.188C134.719 106.188 136.477 104.852 136.477 102.945V102.93C136.477 101.508 135.461 100.383 133.992 100.062V100.023C135.25 99.6641 136.07 98.7266 136.07 97.5312V97.5156C136.07 95.7969 134.461 94.5391 132.219 94.5391C129.977 94.5391 128.375 95.7969 128.375 97.5156V97.5312C128.375 98.7266 129.195 99.6641 130.453 100.023V100.062C128.984 100.383 127.961 101.508 127.961 102.93V102.945C127.961 104.852 129.727 106.188 132.219 106.188ZM132.219 99.4375C130.969 99.4375 130.109 98.7109 130.109 97.6875V97.6719C130.109 96.6406 130.969 95.9219 132.219 95.9219C133.469 95.9219 134.336 96.6406 134.336 97.6719V97.6875C134.336 98.7109 133.477 99.4375 132.219 99.4375ZM132.219 104.789C130.781 104.789 129.758 103.969 129.758 102.828V102.812C129.758 101.664 130.773 100.836 132.219 100.836C133.664 100.836 134.68 101.664 134.68 102.812V102.828C134.68 103.969 133.656 104.789 132.219 104.789ZM142.094 106.188C144.594 106.188 146.352 104.852 146.352 102.945V102.93C146.352 101.508 145.336 100.383 143.867 100.062V100.023C145.125 99.6641 145.945 98.7266 145.945 97.5312V97.5156C145.945 95.7969 144.336 94.5391 142.094 94.5391C139.852 94.5391 138.25 95.7969 138.25 97.5156V97.5312C138.25 98.7266 139.07 99.6641 140.328 100.023V100.062C138.859 100.383 137.836 101.508 137.836 102.93V102.945C137.836 104.852 139.602 106.188 142.094 106.188ZM142.094 99.4375C140.844 99.4375 139.984 98.7109 139.984 97.6875V97.6719C139.984 96.6406 140.844 95.9219 142.094 95.9219C143.344 95.9219 144.211 96.6406 144.211 97.6719V97.6875C144.211 98.7109 143.352 99.4375 142.094 99.4375ZM142.094 104.789C140.656 104.789 139.633 103.969 139.633 102.828V102.812C139.633 101.664 140.648 100.836 142.094 100.836C143.539 100.836 144.555 101.664 144.555 102.812V102.828C144.555 103.969 143.531 104.789 142.094 104.789ZM155.398 106.188C157.773 106.188 159.516 104.57 159.516 102.32V102.305C159.516 100.172 157.961 98.6016 155.805 98.6016C154.273 98.6016 153.133 99.3984 152.688 100.414H152.648C152.648 100.312 152.648 100.211 152.656 100.109C152.727 97.875 153.516 96.0078 155.453 96.0078C156.531 96.0078 157.266 96.5391 157.586 97.3828L157.609 97.4609H159.367L159.344 97.3672C158.984 95.6875 157.477 94.5391 155.469 94.5391C152.648 94.5391 150.969 96.7578 150.969 100.516V100.531C150.969 104.586 153.094 106.188 155.398 106.188ZM152.992 102.328V102.32C152.992 100.984 154.031 100.023 155.398 100.023C156.773 100.023 157.773 100.992 157.773 102.352V102.367C157.773 103.68 156.711 104.719 155.375 104.719C154.039 104.719 152.992 103.664 152.992 102.328ZM165.477 106.188C167.852 106.188 169.594 104.57 169.594 102.32V102.305C169.594 100.172 168.039 98.6016 165.883 98.6016C164.352 98.6016 163.211 99.3984 162.766 100.414H162.727C162.727 100.312 162.727 100.211 162.734 100.109C162.805 97.875 163.594 96.0078 165.531 96.0078C166.609 96.0078 167.344 96.5391 167.664 97.3828L167.688 97.4609H169.445L169.422 97.3672C169.062 95.6875 167.555 94.5391 165.547 94.5391C162.727 94.5391 161.047 96.7578 161.047 100.516V100.531C161.047 104.586 163.172 106.188 165.477 106.188ZM163.07 102.328V102.32C163.07 100.984 164.109 100.023 165.477 100.023C166.852 100.023 167.852 100.992 167.852 102.352V102.367C167.852 103.68 166.789 104.719 165.453 104.719C164.117 104.719 163.07 103.664 163.07 102.328ZM175.375 106.188C177.875 106.188 179.633 104.852 179.633 102.945V102.93C179.633 101.508 178.617 100.383 177.148 100.062V100.023C178.406 99.6641 179.227 98.7266 179.227 97.5312V97.5156C179.227 95.7969 177.617 94.5391 175.375 94.5391C173.133 94.5391 171.531 95.7969 171.531 97.5156V97.5312C171.531 98.7266 172.352 99.6641 173.609 100.023V100.062C172.141 100.383 171.117 101.508 171.117 102.93V102.945C171.117 104.852 172.883 106.188 175.375 106.188ZM175.375 99.4375C174.125 99.4375 173.266 98.7109 173.266 97.6875V97.6719C173.266 96.6406 174.125 95.9219 175.375 95.9219C176.625 95.9219 177.492 96.6406 177.492 97.6719V97.6875C177.492 98.7109 176.633 99.4375 175.375 99.4375ZM175.375 104.789C173.938 104.789 172.914 103.969 172.914 102.828V102.812C172.914 101.664 173.93 100.836 175.375 100.836C176.82 100.836 177.836 101.664 177.836 102.812V102.828C177.836 103.969 176.812 104.789 175.375 104.789ZM185.125 106.188C187.516 106.188 189.211 104.812 189.211 102.883V102.867C189.211 101.289 188.102 100.289 186.445 100.141V100.102C187.82 99.8125 188.82 98.875 188.82 97.4766V97.4609C188.82 95.7266 187.352 94.5391 185.109 94.5391C182.906 94.5391 181.406 95.7812 181.234 97.6641L181.227 97.7422H182.867L182.875 97.6719C182.984 96.625 183.859 95.9688 185.109 95.9688C186.383 95.9688 187.117 96.6016 187.117 97.6875V97.7031C187.117 98.75 186.242 99.5078 184.953 99.5078H183.633V100.867H185C186.508 100.867 187.43 101.578 187.43 102.852V102.867C187.43 103.961 186.5 104.727 185.125 104.727C183.727 104.727 182.781 104.023 182.672 103.023L182.664 102.938H180.984L180.992 103.039C181.148 104.875 182.719 106.188 185.125 106.188Z"
        fill="#566573" />
    <path
        d="M24.9092 127H26.4404V123.705L27.4453 122.543L30.7061 127H32.5996L28.5391 121.497L32.2783 117.136H30.46L26.4814 121.859H26.4404V117.136H24.9092V127ZM33.5908 127H35.1221V117.136H33.5908V127ZM36.9404 127H43.2021V125.681H38.4717V122.618H42.9492V121.333H38.4717V118.455H43.2021V117.136H36.9404V127ZM48.7734 127.164C51.2549 127.164 52.7588 125.694 52.7588 123.534V117.136H51.2344V123.411C51.2344 124.847 50.3457 125.811 48.7734 125.811C47.2012 125.811 46.3057 124.847 46.3057 123.411V117.136H44.7744V123.534C44.7744 125.694 46.2988 127.164 48.7734 127.164ZM60.2031 127H61.8916L65.4053 117.136H63.7578L61.0645 125.298H61.0303L58.3369 117.136H56.6895L60.2031 127ZM64.6191 127H66.2256L67.1348 124.334H70.9355L71.8379 127H73.4443L69.8623 117.136H68.208L64.6191 127ZM69.0215 118.77H69.0488L70.5186 123.104H67.5449L69.0215 118.77ZM74.5381 127H76.0557V119.692H76.0967L81.1758 127H82.584V117.136H81.0664V124.43H81.0254L75.9531 117.136H74.5381V127ZM87.2529 127H88.7705V119.692H88.8115L93.8906 127H95.2988V117.136H93.7812V124.43H93.7402L88.668 117.136H87.2529V127ZM97.124 127H98.6553V122.632H103.721V127H105.252V117.136H103.721V121.306H98.6553V117.136H97.124V127ZM111.062 127.164C113.544 127.164 115.048 125.694 115.048 123.534V117.136H113.523V123.411C113.523 124.847 112.635 125.811 111.062 125.811C109.49 125.811 108.595 124.847 108.595 123.411V117.136H107.063V123.534C107.063 125.694 108.588 127.164 111.062 127.164ZM121.132 127.164C123.982 127.164 125.753 125.202 125.753 122.071V122.058C125.753 118.934 123.976 116.972 121.132 116.972C118.295 116.972 116.511 118.927 116.511 122.058V122.071C116.511 125.209 118.288 127.164 121.132 127.164ZM121.132 125.811C119.259 125.811 118.069 124.368 118.069 122.071V122.058C118.069 119.761 119.266 118.325 121.132 118.325C123.005 118.325 124.188 119.768 124.188 122.058V122.071C124.188 124.348 123.025 125.811 121.132 125.811ZM127.216 127H128.733V119.692H128.774L133.854 127H135.262V117.136H133.744V124.43H133.703L128.631 117.136H127.216V127ZM141.332 127.164C144.005 127.164 145.584 125.571 145.584 122.898V121.887H141.482V123.138H144.073V123.302C144.053 124.799 142.945 125.811 141.346 125.811C139.466 125.811 138.29 124.375 138.29 122.017V122.01C138.29 119.699 139.432 118.325 141.318 118.325C142.604 118.325 143.499 118.988 143.916 120.13L143.937 120.205H145.509L145.481 120.082C145.071 118.305 143.622 116.972 141.312 116.972C138.509 116.972 136.731 118.906 136.731 122.017V122.023C136.731 125.195 138.509 127.164 141.332 127.164Z"
        fill="#566573" />
    <path
        d="M24.6836 152H25.5039V146.556H25.5332L27.7842 152H28.5264L30.7773 146.556H30.8066V152H31.627V144.954H30.6113L28.1699 150.892H28.1406L25.6992 144.954H24.6836V152ZM34.9521 152.098C36.0605 152.098 36.8906 151.434 37.0566 150.594L37.0664 150.545H36.2314L36.2168 150.589C36.0703 151.023 35.6162 151.346 34.9717 151.346C34.0684 151.346 33.4922 150.735 33.4727 149.69H37.1299V149.378C37.1299 147.854 36.2852 146.824 34.8984 146.824C33.5117 146.824 32.6133 147.903 32.6133 149.476V149.48C32.6133 151.077 33.4922 152.098 34.9521 152.098ZM34.8936 147.576C35.6357 147.576 36.1826 148.04 36.2656 149.026H33.4873C33.5801 148.079 34.1562 147.576 34.8936 147.576ZM37.9893 152H38.8389V148.816C38.8389 148.108 39.3271 147.576 40.001 147.576C40.6309 147.576 41.041 147.981 41.041 148.597V152H41.8906V148.772C41.8906 148.079 42.3643 147.576 43.0381 147.576C43.707 147.576 44.0928 147.991 44.0928 148.689V152H44.9424V148.494C44.9424 147.483 44.293 146.824 43.2871 146.824C42.5742 146.824 41.9785 147.19 41.6953 147.801H41.6758C41.4561 147.181 40.9434 146.824 40.25 146.824C39.5957 146.824 39.0879 147.161 38.8584 147.664H38.8389V146.922H37.9893V152ZM48.5508 152.098C49.8496 152.098 50.709 151.062 50.709 149.461V149.456C50.709 147.854 49.8398 146.824 48.5654 146.824C47.8477 146.824 47.2568 147.186 46.9395 147.771H46.9199V144.954H46.0703V152H46.9199V151.141H46.9395C47.2568 151.731 47.8232 152.098 48.5508 152.098ZM48.3848 151.346C47.5254 151.346 46.915 150.599 46.915 149.461V149.456C46.915 148.323 47.5303 147.576 48.3848 147.576C49.2832 147.576 49.8398 148.299 49.8398 149.456V149.461C49.8398 150.628 49.2832 151.346 48.3848 151.346ZM53.6533 152.098C54.7617 152.098 55.5918 151.434 55.7578 150.594L55.7676 150.545H54.9326L54.918 150.589C54.7715 151.023 54.3174 151.346 53.6729 151.346C52.7695 151.346 52.1934 150.735 52.1738 149.69H55.8311V149.378C55.8311 147.854 54.9863 146.824 53.5996 146.824C52.2129 146.824 51.3145 147.903 51.3145 149.476V149.48C51.3145 151.077 52.1934 152.098 53.6533 152.098ZM53.5947 147.576C54.3369 147.576 54.8838 148.04 54.9668 149.026H52.1885C52.2812 148.079 52.8574 147.576 53.5947 147.576ZM56.6904 152H57.54V148.865C57.54 148.094 57.9697 147.635 58.6289 147.635C58.834 147.635 59.0146 147.659 59.083 147.684V146.858C59.0146 146.849 58.8877 146.824 58.7412 146.824C58.1699 146.824 57.7305 147.195 57.5596 147.781H57.54V146.922H56.6904V152ZM26.9883 167.117C28.5996 167.117 29.5908 166.326 29.5908 165.076V165.071C29.5908 163.997 28.9854 163.411 27.54 163.094L26.7588 162.923C25.8408 162.723 25.416 162.361 25.416 161.785V161.78C25.416 161.102 26.0312 160.652 26.9736 160.647C27.8672 160.647 28.4678 161.072 28.5752 161.79L28.585 161.858H29.4639L29.459 161.785C29.3809 160.633 28.375 159.837 26.998 159.837C25.5479 159.837 24.5225 160.647 24.5176 161.805V161.81C24.5176 162.84 25.1621 163.46 26.5391 163.763L27.3203 163.934C28.2871 164.148 28.6924 164.495 28.6924 165.115V165.12C28.6924 165.848 28.0527 166.307 27.0371 166.307C26.0166 166.307 25.333 165.872 25.2305 165.164L25.2207 165.096H24.3418L24.3467 165.164C24.4346 166.37 25.4648 167.117 26.9883 167.117ZM30.9678 161.062C31.2656 161.062 31.5 160.823 31.5 160.53C31.5 160.232 31.2656 159.998 30.9678 159.998C30.6748 159.998 30.4355 160.232 30.4355 160.53C30.4355 160.823 30.6748 161.062 30.9678 161.062ZM30.543 167H31.3926V161.922H30.543V167ZM32.5498 167H33.3994V164.012C33.3994 163.147 33.9219 162.576 34.7227 162.576C35.5039 162.576 35.8896 163.03 35.8896 163.855V167H36.7393V163.704C36.7393 162.547 36.0947 161.824 34.9814 161.824C34.21 161.824 33.6924 162.171 33.4189 162.645H33.3994V161.922H32.5498V167ZM39.9277 167.098C41.0752 167.098 41.9102 166.351 42.0469 165.384L42.0518 165.35H41.2168L41.207 165.389C41.0654 165.955 40.6211 166.346 39.9277 166.346C39.0488 166.346 38.4434 165.647 38.4434 164.466V164.461C38.4434 163.309 39.0342 162.576 39.918 162.576C40.665 162.576 41.0752 163.025 41.2021 163.533L41.2119 163.572H42.042L42.0371 163.533C41.9297 162.664 41.1826 161.824 39.918 161.824C38.5068 161.824 37.5742 162.85 37.5742 164.451V164.456C37.5742 166.072 38.4873 167.098 39.9277 167.098ZM44.9229 167.098C46.0312 167.098 46.8613 166.434 47.0273 165.594L47.0371 165.545H46.2021L46.1875 165.589C46.041 166.023 45.5869 166.346 44.9424 166.346C44.0391 166.346 43.4629 165.735 43.4434 164.69H47.1006V164.378C47.1006 162.854 46.2559 161.824 44.8691 161.824C43.4824 161.824 42.584 162.903 42.584 164.476V164.48C42.584 166.077 43.4629 167.098 44.9229 167.098ZM44.8643 162.576C45.6064 162.576 46.1533 163.04 46.2363 164.026H43.458C43.5508 163.079 44.127 162.576 44.8643 162.576Z"
        fill="#566573" />
    <path
        d="M74.9922 162.188C77.6797 162.188 79.2969 159.945 79.2969 156.367V156.352C79.2969 152.773 77.6797 150.539 74.9922 150.539C72.2969 150.539 70.6875 152.773 70.6875 156.352V156.367C70.6875 159.945 72.2969 162.188 74.9922 162.188ZM74.9922 160.727C73.3828 160.727 72.4531 159.07 72.4531 156.367V156.352C72.4531 153.648 73.3828 152.008 74.9922 152.008C76.5938 152.008 77.5312 153.648 77.5312 156.352V156.367C77.5312 159.07 76.5938 160.727 74.9922 160.727ZM84.9453 150.539C82.5625 150.539 80.8203 152.156 80.8203 154.406V154.422C80.8203 156.555 82.3828 158.125 84.5391 158.125C86.0703 158.125 87.2109 157.328 87.6562 156.312H87.6953C87.6953 156.414 87.6953 156.516 87.6875 156.617C87.6172 158.852 86.8281 160.719 84.8906 160.719C83.8125 160.719 83.0781 160.188 82.7578 159.344L82.7266 159.266H80.9766L81 159.359C81.3594 161.039 82.8672 162.188 84.875 162.188C87.6953 162.188 89.375 159.969 89.375 156.211V156.195C89.375 152.141 87.25 150.539 84.9453 150.539ZM84.9375 156.703C83.5703 156.703 82.5625 155.734 82.5625 154.375V154.359C82.5625 153.047 83.6328 152.008 84.9609 152.008C86.3047 152.008 87.3516 153.062 87.3516 154.398V154.406C87.3516 155.742 86.3125 156.703 84.9375 156.703ZM94.6719 150.727H93.1172L90.0625 164.734H91.625L94.6719 150.727ZM95.5469 162H103.258V160.523H97.8906V160.453L100.453 157.938C102.477 155.938 103.078 155.023 103.078 153.734V153.719C103.078 151.898 101.531 150.539 99.3672 150.539C97.1641 150.539 95.4531 152 95.4531 154.016V154.062H97.1094V154.016C97.125 152.875 98.0703 151.984 99.3906 151.984C100.531 151.984 101.344 152.75 101.352 153.82V153.836C101.352 154.711 101.016 155.305 99.5156 156.805L95.5469 160.797V162ZM104.812 162H112.523V160.523H107.156V160.453L109.719 157.938C111.742 155.938 112.344 155.023 112.344 153.734V153.719C112.344 151.898 110.797 150.539 108.633 150.539C106.43 150.539 104.719 152 104.719 154.016V154.062H106.375V154.016C106.391 152.875 107.336 151.984 108.656 151.984C109.797 151.984 110.609 152.75 110.617 153.82V153.836C110.617 154.711 110.281 155.305 108.781 156.805L104.812 160.797V162Z"
        fill="#566573" />
    <path
        d="M85.9063 38.0103C83.6746 38.0103 81.5817 37.9603 79.9507 37.8629V20.275C80.5196 20.2366 82.2769 20.2 84.7619 20.1391C86.3171 20.1 87.8126 20.1597 88.9796 20.3436C91.6202 20.7557 92.6025 22.005 93.0179 22.6895C93.4177 23.3516 93.6827 24.0868 93.6192 25.0425C93.5447 26.1648 93.1552 27.0839 91.9992 27.9909L91.7938 28.1505L92.0278 28.2658C92.83 28.6671 93.3432 29.3023 93.6944 29.9246C94.1149 30.6771 94.3287 31.5334 94.3287 32.4731C94.3287 34.369 93.6386 35.7823 92.239 36.7425C90.9994 37.5963 88.8695 38.011 85.9082 38.011M84.1502 34.3748C85.0445 34.428 86.01 34.4677 86.9806 34.4344C87.7342 34.4081 88.7302 34.3492 89.4384 33.6332C89.7467 33.322 89.941 32.918 89.9907 32.4851C90.0403 32.0522 89.9424 31.6153 89.7125 31.2437C89.2758 30.5105 88.4023 30.1413 86.2828 30.1669C85.5682 30.1715 84.8543 30.2143 84.1444 30.2951L84.1502 34.3748ZM86.1434 23.4606C85.7546 23.4606 84.7451 23.4471 84.1438 23.5561V27.0057L84.296 27.0198C84.3045 27.0198 85.1293 27.0999 86.0825 27.0999C87.6273 27.0999 88.5241 26.9717 89.0632 26.5013C89.6024 26.0308 89.7494 25.2412 89.4106 24.5694C88.876 23.5087 87.2074 23.4606 86.1402 23.4606"
        fill="#0054A6" />
    <path
        d="M74.6792 20.2751H70.5509C70.1829 21.0283 67.6104 26.2809 66.4311 29.28L66.352 29.4851H66.2114L66.131 29.28C64.9524 26.2809 62.3805 21.0283 62.0105 20.2751H57.8829C56.9906 26.6283 56.5474 36.4536 56.4878 37.8624H60.5992C60.6368 36.683 60.885 29.2735 61.0528 27.6071L61.0943 27.1859H61.196L61.36 27.559C62.7317 30.6522 64.4988 34.9037 64.7891 35.6068H67.7698C68.0601 34.9018 69.8271 30.6522 71.1989 27.559L71.3622 27.1859H71.4633L71.5048 27.6071C71.6778 29.2735 71.9227 36.6849 71.9583 37.8624H76.0691C76.0089 36.4523 75.5656 26.6283 74.6734 20.2751"
        fill="#0054A6" />
    <path
        d="M40.043 34.2887C39.6387 34.314 39.2405 34.1806 38.9331 33.9167C38.6258 33.6528 38.4336 33.2794 38.3975 32.876C38.3504 32.4895 38.4461 32.0991 38.6665 31.7781C38.8869 31.4571 39.2169 31.2277 39.5946 31.1328C40.1577 31.0047 40.7175 30.8698 41.2806 30.745C42.4946 30.4753 43.7085 30.2157 44.9191 29.9426C45.1382 29.8758 45.3714 29.87 45.5935 29.9257C45.7821 29.9741 45.9528 30.0758 46.085 30.2188C46.2171 30.3617 46.3053 30.5398 46.3388 30.7315C46.3954 30.9414 46.3845 31.1638 46.3076 31.3672C46.2308 31.5705 46.0918 31.7445 45.9105 31.8644C45.7927 31.9402 45.6686 32.0056 45.5396 32.06L40.8186 34.1066C40.5781 34.2277 40.3123 34.2901 40.043 34.2887Z"
        fill="white" />
    <path
        d="M34.2803 32.0162C34.499 32.0318 34.7119 32.0936 34.9049 32.1977C35.0979 32.3017 35.2666 32.4456 35.3998 32.6197C35.4945 32.7457 35.5812 32.8775 35.6595 33.0142C36.4957 34.4326 37.3275 35.8476 38.1548 37.2592C38.2398 37.3926 38.3164 37.5311 38.3841 37.6739C38.4912 37.9058 38.5134 38.1678 38.4468 38.4143C38.3802 38.6609 38.2291 38.8762 38.0199 39.0226C37.8084 39.1688 37.551 39.2333 37.2955 39.2042C37.04 39.1751 36.8038 39.0542 36.6306 38.8641C36.2091 38.4191 35.8112 37.9504 35.4066 37.4919L33.1776 34.9732C33.0629 34.8417 32.9415 34.7102 32.8404 34.5686C32.6587 34.3188 32.5523 34.0223 32.5337 33.7141C32.5151 33.4058 32.5851 33.0987 32.7354 32.8289C32.8857 32.5591 33.1101 32.338 33.3821 32.1916C33.654 32.0452 33.9622 31.9797 34.2702 32.0027L34.2803 32.0162Z"
        fill="white" />
    <path
        d="M31.4374 26.7294C31.7324 26.7265 32.0224 26.8053 32.2753 26.9571C32.5283 27.1088 32.7343 27.3276 32.8706 27.5892C33.0128 27.8435 33.0816 28.1324 33.0691 28.4236C33.0566 28.7148 32.9633 28.9967 32.7997 29.2379C32.721 29.357 32.6331 29.4698 32.5367 29.5751C31.3992 30.8631 30.2605 32.15 29.1208 33.4357C28.9858 33.5951 28.8251 33.7307 28.6453 33.8369C28.4589 33.9385 28.2452 33.9787 28.0346 33.9521C27.824 33.9255 27.6271 33.8333 27.4718 33.6886C27.3125 33.5489 27.1982 33.3651 27.1436 33.1604C27.0889 32.9556 27.0964 32.7393 27.165 32.5388C27.203 32.4206 27.2551 32.3074 27.3201 32.2017C28.2193 30.6619 29.1264 29.1222 30.0414 27.5824C30.1472 27.3896 30.2917 27.2206 30.4657 27.086C30.6398 26.9514 30.8397 26.8541 31.053 26.8002C31.1845 26.7631 31.3228 26.7496 31.4374 26.7294Z"
        fill="white" />
    <path
        d="M35.6486 25.7954C35.3464 25.771 35.0519 25.6873 34.782 25.5493L31.1738 23.9781C30.7557 23.7994 30.3342 23.6409 29.9228 23.4319C29.7023 23.3347 29.5207 23.1666 29.4069 22.9543C29.293 22.742 29.2535 22.4977 29.2946 22.2604C29.3358 22.023 29.4551 21.8063 29.6337 21.6446C29.8123 21.483 30.0399 21.3857 30.2802 21.3684C30.4197 21.3661 30.559 21.3808 30.695 21.4122L35.8172 22.5417C35.9217 22.5653 36.0229 22.5957 36.1207 22.626C36.4405 22.725 36.7217 22.921 36.9253 23.1868C37.1288 23.4525 37.2448 23.775 37.2571 24.1096C37.2671 24.4445 37.1716 24.7742 36.984 25.0519C36.7964 25.3296 36.5262 25.5414 36.2117 25.6572C36.0272 25.7153 35.8391 25.7615 35.6486 25.7954Z"
        fill="white" />
    <path
        d="M39.3179 26.7496C39.3617 26.254 39.3988 25.819 39.4426 25.4009C39.5483 24.277 39.654 23.161 39.7596 22.0528C39.7866 21.773 39.8169 21.4965 39.8507 21.2166C39.8725 20.9501 39.9929 20.7013 40.1883 20.5187C40.3837 20.3361 40.6401 20.2328 40.9075 20.2291C41.1749 20.2253 41.4342 20.3212 41.6347 20.4982C41.8352 20.6752 41.9625 20.9205 41.9919 21.1863C42.0526 21.6381 42.0796 22.0933 42.1235 22.535C42.2145 23.4757 42.3089 24.4164 42.4 25.3571C42.4438 25.8089 42.5011 26.2607 42.5247 26.7058C42.5492 26.9228 42.5291 27.1426 42.4658 27.3516C42.4026 27.5607 42.2973 27.7546 42.1566 27.9217C42.0159 28.0887 41.8426 28.2254 41.6474 28.3233C41.4521 28.4212 41.239 28.4783 41.0209 28.4912C40.8028 28.504 40.5844 28.4723 40.379 28.398C40.1736 28.3237 39.9855 28.2083 39.8262 28.0589C39.6668 27.9095 39.5396 27.7292 39.4522 27.5291C39.3648 27.3289 39.3191 27.113 39.3179 26.8946V26.7496Z"
        fill="white" />
    <path
        d="M51.073 28.6748C51.0689 28.9191 51.0093 29.1593 50.8986 29.3771C50.7878 29.595 50.6289 29.7847 50.4339 29.9319C50.2388 30.0791 50.0128 30.18 49.773 30.2268C49.5332 30.2737 49.2858 30.2653 49.0497 30.2022C48.8995 30.1567 48.752 30.1027 48.6079 30.0404L44.6255 28.3747C44.5311 28.3343 44.4299 28.2972 44.3355 28.2534C44.0974 28.1583 43.8977 27.9868 43.7677 27.7659C43.6377 27.5449 43.5847 27.2871 43.6172 27.0328C43.6235 26.875 43.6624 26.7203 43.7316 26.5783C43.8008 26.4364 43.8988 26.3104 44.0193 26.2083C44.1398 26.1063 44.2801 26.0303 44.4315 25.9854C44.5829 25.9404 44.742 25.9274 44.8986 25.9471C45.2932 26.0011 45.6843 26.1123 46.0755 26.2034L49.7005 27.053C49.8151 27.0802 49.9278 27.1151 50.0377 27.1576C50.3434 27.2762 50.606 27.4847 50.7909 27.7555C50.9757 28.0264 51.074 28.3469 51.073 28.6748V28.6748Z"
        fill="white" />
    <path
        d="M39.9147 15.0059C40.2113 14.9797 40.509 15.0412 40.7709 15.1826C41.0329 15.3241 41.2476 15.5393 41.3883 15.8016C41.54 16.0592 41.6148 16.3547 41.6041 16.6534C41.5933 16.9521 41.4974 17.2415 41.3276 17.4875C41.2512 17.6073 41.1643 17.7201 41.068 17.8246L38.1848 21.1761C38.1039 21.2671 38.0196 21.3548 37.9319 21.4425C37.7282 21.6231 37.4712 21.7323 37.1997 21.7536C36.9283 21.7749 36.6574 21.7071 36.428 21.5605C36.2001 21.3943 36.036 21.1552 35.963 20.8828C35.89 20.6104 35.9125 20.3213 36.0267 20.0634C36.086 19.936 36.1548 19.8131 36.2324 19.6959L38.4917 15.9601L38.6333 15.7375C38.7637 15.5137 38.9509 15.3282 39.1758 15.1998C39.4008 15.0713 39.6557 15.0044 39.9147 15.0059V15.0059Z"
        fill="white" />
    <path
        d="M39.3174 41.3052C39.3613 40.7488 39.3984 40.2431 39.4388 39.7373C39.5333 38.6382 39.6378 37.5424 39.7255 36.4432C39.729 36.2234 39.7941 36.0089 39.9133 35.8242C40.0325 35.6394 40.201 35.4918 40.3999 35.3979C40.5693 35.3192 40.7549 35.2812 40.9417 35.2873C41.1285 35.2933 41.3113 35.3431 41.4753 35.4326C41.6393 35.5222 41.78 35.649 41.8861 35.8028C41.9921 35.9567 42.0606 36.1333 42.0859 36.3184C42.1264 36.6151 42.15 36.9118 42.1736 37.2086L42.5108 41.1299C42.5468 41.3824 42.5238 41.6398 42.4437 41.882C42.3635 42.1242 42.2284 42.3445 42.0488 42.5257C41.8293 42.7472 41.5499 42.8998 41.2449 42.9648C40.9399 43.0298 40.6226 43.0043 40.3318 42.8916C40.0411 42.7788 39.7896 42.5836 39.6082 42.3299C39.4268 42.0763 39.3234 41.7752 39.3107 41.4637C39.3099 41.4107 39.3122 41.3578 39.3174 41.3052V41.3052Z"
        fill="white" />
    <path
        d="M26.213 38.8C25.8391 38.8062 25.4747 38.682 25.1824 38.4487C24.8902 38.2153 24.6884 37.8875 24.6118 37.5215C24.5351 37.1555 24.5884 36.7743 24.7625 36.4433C24.9366 36.1124 25.2205 35.8524 25.5655 35.7081C25.8123 35.6169 26.066 35.5459 26.3243 35.4957C27.6191 35.1878 28.9152 34.8843 30.2123 34.5853C30.4167 34.5339 30.6256 34.5023 30.8361 34.4909C31.0929 34.4741 31.3476 34.5464 31.5571 34.6957C31.7666 34.845 31.9182 35.0621 31.986 35.3103C32.0708 35.5632 32.0677 35.8374 31.9771 36.0883C31.8865 36.3392 31.7138 36.5522 31.4869 36.6927C31.3502 36.7722 31.207 36.8399 31.0587 36.895C29.7098 37.4614 28.361 38.0211 27.0358 38.5808C26.7819 38.7158 26.5004 38.7907 26.213 38.8V38.8Z"
        fill="white" />
    <path
        d="M29.6869 25.829C29.6999 26.0587 29.6422 26.2868 29.5216 26.4827C29.4011 26.6786 29.2234 26.8329 29.0125 26.9248C28.8004 27.0296 28.5615 27.0677 28.3273 27.034C28.0931 27.0003 27.8747 26.8964 27.7007 26.736C27.6218 26.6654 27.5485 26.5888 27.4816 26.5067L24.4804 23.0372C24.2581 22.7887 24.1016 22.4885 24.0252 22.164C23.9504 21.7465 24.0439 21.3164 24.2852 20.9677C24.5266 20.6189 24.8962 20.3799 25.3133 20.3028C25.6525 20.238 26.0036 20.2832 26.3153 20.4318C26.6271 20.5804 26.8832 20.8246 27.0466 21.1288C27.839 22.4539 28.6449 23.7723 29.4441 25.0872C29.5977 25.3045 29.6823 25.563 29.6869 25.829V25.829Z"
        fill="white" />
    <path
        d="M40.043 34.2887C39.6387 34.314 39.2405 34.1806 38.9331 33.9167C38.6258 33.6528 38.4336 33.2794 38.3975 32.876C38.3504 32.4895 38.4461 32.0991 38.6665 31.7781C38.8869 31.4571 39.2169 31.2277 39.5946 31.1328C40.1577 31.0047 40.7175 30.8698 41.2806 30.745C42.4946 30.4753 43.7085 30.2157 44.9191 29.9426C45.1382 29.8758 45.3714 29.87 45.5935 29.9257C45.7821 29.9741 45.9528 30.0758 46.085 30.2188C46.2171 30.3617 46.3053 30.5398 46.3388 30.7315C46.3954 30.9414 46.3845 31.1638 46.3076 31.3672C46.2308 31.5705 46.0918 31.7445 45.9105 31.8644C45.7927 31.9402 45.6686 32.0056 45.5396 32.06L40.8186 34.1066C40.5781 34.2277 40.3123 34.2901 40.043 34.2887Z"
        fill="#ED1A3B" />
    <path
        d="M34.2803 32.0162C34.499 32.0318 34.7119 32.0936 34.9049 32.1977C35.0979 32.3017 35.2666 32.4456 35.3998 32.6197C35.4945 32.7457 35.5812 32.8775 35.6595 33.0142C36.4957 34.4326 37.3275 35.8476 38.1548 37.2592C38.2398 37.3926 38.3164 37.5311 38.3841 37.6739C38.4912 37.9058 38.5134 38.1678 38.4468 38.4143C38.3802 38.6609 38.2291 38.8762 38.0199 39.0226C37.8084 39.1688 37.551 39.2333 37.2955 39.2042C37.04 39.1751 36.8038 39.0542 36.6306 38.8641C36.2091 38.4191 35.8112 37.9504 35.4066 37.4919L33.1776 34.9732C33.0629 34.8417 32.9415 34.7102 32.8404 34.5686C32.6587 34.3188 32.5523 34.0223 32.5337 33.7141C32.5151 33.4058 32.5851 33.0987 32.7354 32.8289C32.8857 32.5591 33.1101 32.338 33.3821 32.1916C33.654 32.0452 33.9622 31.9797 34.2702 32.0027L34.2803 32.0162Z"
        fill="#ED1A3B" />
    <path
        d="M31.4374 26.7294C31.7324 26.7265 32.0224 26.8053 32.2753 26.9571C32.5283 27.1088 32.7343 27.3276 32.8706 27.5892C33.0128 27.8435 33.0816 28.1324 33.0691 28.4236C33.0566 28.7148 32.9633 28.9967 32.7997 29.2379C32.721 29.357 32.6331 29.4698 32.5367 29.5751C31.3992 30.8631 30.2605 32.15 29.1208 33.4357C28.9858 33.5951 28.8251 33.7307 28.6453 33.8369C28.4589 33.9385 28.2452 33.9787 28.0346 33.9521C27.824 33.9255 27.6271 33.8333 27.4718 33.6886C27.3125 33.5489 27.1982 33.3651 27.1436 33.1604C27.0889 32.9556 27.0964 32.7393 27.165 32.5388C27.203 32.4206 27.2551 32.3074 27.3201 32.2017C28.2193 30.6619 29.1264 29.1222 30.0414 27.5824C30.1472 27.3896 30.2917 27.2206 30.4657 27.086C30.6398 26.9514 30.8397 26.8541 31.053 26.8002C31.1845 26.7631 31.3228 26.7496 31.4374 26.7294Z"
        fill="#ED1A3B" />
    <path
        d="M35.6486 25.7954C35.3464 25.771 35.0519 25.6873 34.782 25.5493L31.1738 23.9781C30.7557 23.7994 30.3342 23.6409 29.9228 23.4319C29.7023 23.3347 29.5207 23.1666 29.4069 22.9543C29.293 22.742 29.2535 22.4977 29.2946 22.2604C29.3358 22.023 29.4551 21.8063 29.6337 21.6446C29.8123 21.483 30.0399 21.3857 30.2802 21.3684C30.4197 21.3661 30.559 21.3808 30.695 21.4122L35.8172 22.5417C35.9217 22.5653 36.0229 22.5957 36.1207 22.626C36.4405 22.725 36.7217 22.921 36.9253 23.1868C37.1288 23.4525 37.2448 23.775 37.2571 24.1096C37.2671 24.4445 37.1716 24.7742 36.984 25.0519C36.7964 25.3296 36.5262 25.5414 36.2117 25.6572C36.0272 25.7153 35.8391 25.7615 35.6486 25.7954Z"
        fill="#ED1A3B" />
    <path
        d="M39.3179 26.7496C39.3617 26.254 39.3988 25.819 39.4426 25.4009C39.5483 24.277 39.654 23.161 39.7596 22.0528C39.7866 21.773 39.8169 21.4965 39.8507 21.2166C39.8725 20.9501 39.9929 20.7013 40.1883 20.5187C40.3837 20.3361 40.6401 20.2328 40.9075 20.2291C41.1749 20.2253 41.4342 20.3212 41.6347 20.4982C41.8352 20.6752 41.9625 20.9205 41.9919 21.1863C42.0526 21.6381 42.0796 22.0933 42.1235 22.535C42.2145 23.4757 42.3089 24.4164 42.4 25.3571C42.4438 25.8089 42.5011 26.2607 42.5247 26.7058C42.5492 26.9228 42.5291 27.1426 42.4658 27.3516C42.4026 27.5607 42.2973 27.7546 42.1566 27.9217C42.0159 28.0887 41.8426 28.2254 41.6474 28.3233C41.4521 28.4212 41.239 28.4783 41.0209 28.4912C40.8028 28.504 40.5844 28.4723 40.379 28.398C40.1736 28.3237 39.9855 28.2083 39.8262 28.0589C39.6668 27.9095 39.5396 27.7292 39.4522 27.5291C39.3648 27.3289 39.3191 27.113 39.3179 26.8946V26.7496Z"
        fill="#ED1A3B" />
    <path
        d="M51.073 28.6748C51.0689 28.9191 51.0093 29.1593 50.8986 29.3771C50.7878 29.595 50.6289 29.7847 50.4339 29.9319C50.2388 30.0791 50.0128 30.18 49.773 30.2268C49.5332 30.2737 49.2858 30.2653 49.0497 30.2022C48.8995 30.1567 48.752 30.1027 48.6079 30.0404L44.6255 28.3747C44.5311 28.3343 44.4299 28.2972 44.3355 28.2534C44.0974 28.1583 43.8977 27.9868 43.7677 27.7659C43.6377 27.5449 43.5847 27.2871 43.6172 27.0328C43.6235 26.875 43.6624 26.7203 43.7316 26.5783C43.8008 26.4364 43.8988 26.3104 44.0193 26.2083C44.1398 26.1063 44.2801 26.0303 44.4315 25.9854C44.5829 25.9404 44.742 25.9274 44.8986 25.9471C45.2932 26.0011 45.6843 26.1123 46.0755 26.2034L49.7005 27.053C49.8151 27.0802 49.9278 27.1151 50.0377 27.1576C50.3434 27.2762 50.606 27.4847 50.7909 27.7555C50.9757 28.0264 51.074 28.3469 51.073 28.6748V28.6748Z"
        fill="#ED1A3B" />
    <path
        d="M39.9147 15.0059C40.2113 14.9797 40.509 15.0412 40.7709 15.1826C41.0329 15.3241 41.2476 15.5393 41.3883 15.8016C41.54 16.0592 41.6148 16.3547 41.6041 16.6534C41.5933 16.9521 41.4974 17.2415 41.3276 17.4875C41.2512 17.6073 41.1643 17.7201 41.068 17.8246L38.1848 21.1761C38.1039 21.2671 38.0196 21.3548 37.9319 21.4425C37.7282 21.6231 37.4712 21.7323 37.1997 21.7536C36.9283 21.7749 36.6574 21.7071 36.428 21.5605C36.2001 21.3943 36.036 21.1552 35.963 20.8828C35.89 20.6104 35.9125 20.3213 36.0267 20.0634C36.086 19.936 36.1548 19.8131 36.2324 19.6959L38.4917 15.9601L38.6333 15.7375C38.7637 15.5137 38.9509 15.3282 39.1758 15.1998C39.4008 15.0713 39.6557 15.0044 39.9147 15.0059V15.0059Z"
        fill="#ED1A3B" />
    <path
        d="M39.3174 41.3052C39.3613 40.7488 39.3984 40.2431 39.4388 39.7373C39.5333 38.6382 39.6378 37.5424 39.7255 36.4432C39.729 36.2234 39.7941 36.0089 39.9133 35.8242C40.0325 35.6394 40.201 35.4918 40.3999 35.3979C40.5693 35.3192 40.7549 35.2812 40.9417 35.2873C41.1285 35.2933 41.3113 35.3431 41.4753 35.4326C41.6393 35.5222 41.78 35.649 41.8861 35.8028C41.9921 35.9567 42.0606 36.1333 42.0859 36.3184C42.1264 36.6151 42.15 36.9118 42.1736 37.2086L42.5108 41.1299C42.5468 41.3824 42.5238 41.6398 42.4437 41.882C42.3635 42.1242 42.2284 42.3445 42.0488 42.5257C41.8293 42.7472 41.5499 42.8998 41.2449 42.9648C40.9399 43.0298 40.6226 43.0043 40.3318 42.8916C40.0411 42.7788 39.7896 42.5836 39.6082 42.3299C39.4268 42.0763 39.3234 41.7752 39.3107 41.4637C39.3099 41.4107 39.3122 41.3578 39.3174 41.3052V41.3052Z"
        fill="#ED1A3B" />
    <path
        d="M26.213 38.8C25.8391 38.8062 25.4747 38.682 25.1824 38.4487C24.8902 38.2153 24.6884 37.8875 24.6118 37.5215C24.5351 37.1555 24.5884 36.7743 24.7625 36.4433C24.9366 36.1124 25.2205 35.8524 25.5655 35.7081C25.8123 35.6169 26.066 35.5459 26.3243 35.4957C27.6191 35.1878 28.9152 34.8843 30.2123 34.5853C30.4167 34.5339 30.6256 34.5023 30.8361 34.4909C31.0929 34.4741 31.3476 34.5464 31.5571 34.6957C31.7666 34.845 31.9182 35.0621 31.986 35.3103C32.0708 35.5632 32.0677 35.8374 31.9771 36.0883C31.8865 36.3392 31.7138 36.5522 31.4869 36.6927C31.3502 36.7722 31.207 36.8399 31.0587 36.895C29.7098 37.4614 28.361 38.0211 27.0358 38.5808C26.7819 38.7158 26.5004 38.7907 26.213 38.8V38.8Z"
        fill="#ED1A3B" />
    <path
        d="M29.6869 25.829C29.6999 26.0587 29.6422 26.2868 29.5216 26.4827C29.4011 26.6786 29.2234 26.8329 29.0125 26.9248C28.8004 27.0296 28.5615 27.0677 28.3273 27.034C28.0931 27.0003 27.8747 26.8964 27.7007 26.736C27.6218 26.6654 27.5485 26.5888 27.4816 26.5067L24.4804 23.0372C24.2581 22.7887 24.1016 22.4885 24.0252 22.164C23.9504 21.7465 24.0439 21.3164 24.2852 20.9677C24.5266 20.6189 24.8962 20.3799 25.3133 20.3028C25.6525 20.238 26.0036 20.2832 26.3153 20.4318C26.6271 20.5804 26.8832 20.8246 27.0466 21.1288C27.839 22.4539 28.6449 23.7723 29.4441 25.0872C29.5977 25.3045 29.6823 25.563 29.6869 25.829V25.829Z"
        fill="#ED1A3B" />
    <defs>
        <linearGradient id="paint0_linear_1974_5430" x1="295" y1="191.5" x2="-6.00001" y2="-12"
            gradientUnits="userSpaceOnUse">
            <stop stop-color="#DCDCDC" />
            <stop offset="0.25" stop-color="#F0F0F0" />
            <stop offset="0.5" stop-color="#EAEAEA" />
            <stop offset="0.713542" stop-color="#F7F7F7" />
            <stop offset="0.9375" stop-color="#E7E9EB" />
        </linearGradient>
    </defs>
</svg>
