<svg width="24" height="24" viewBox="0 0 24 24" fill="none" xmlns="http://www.w3.org/2000/svg">
    <path fill-rule="evenodd" clip-rule="evenodd" d="M18.2344 6.75C18.2344 6.46523 18.4652 6.23438 18.75 6.23438H21.375C22.009 6.23438 22.6171 6.48624 23.0654 6.93457C23.5138 7.3829 23.7656 7.99097 23.7656 8.625V16.125C23.7656 16.4389 23.7038 16.7498 23.5836 17.0399C23.4635 17.3299 23.2874 17.5934 23.0654 17.8154C22.8434 18.0374 22.5799 18.2135 22.2899 18.3336C21.9998 18.4538 21.6889 18.5156 21.375 18.5156H20.7656V21.75C20.7656 21.9431 20.6577 22.1201 20.4859 22.2085C20.3142 22.2969 20.1075 22.2818 19.9503 22.1696L14.8348 18.5156H10.5C10.2152 18.5156 9.98438 18.2848 9.98438 18C9.98438 17.7152 10.2152 17.4844 10.5 17.4844H15C15.1075 17.4844 15.2123 17.518 15.2997 17.5804L19.7344 20.748V18C19.7344 17.7152 19.9652 17.4844 20.25 17.4844H21.375C21.5535 17.4844 21.7303 17.4492 21.8952 17.3809C22.0601 17.3126 22.21 17.2125 22.3362 17.0862C22.4625 16.96 22.5626 16.8101 22.6309 16.6452C22.6992 16.4803 22.7344 16.3035 22.7344 16.125V8.625C22.7344 8.26447 22.5912 7.91871 22.3362 7.66378C22.0813 7.40884 21.7355 7.26562 21.375 7.26562H18.75C18.4652 7.26562 18.2344 7.03477 18.2344 6.75Z" fill="#566573"/>
    <path fill-rule="evenodd" clip-rule="evenodd" d="M0.934573 2.05957C1.3829 1.61124 1.99097 1.35938 2.625 1.35938H16.875C17.509 1.35938 18.1171 1.61124 18.5654 2.05957C19.0138 2.5079 19.2656 3.11597 19.2656 3.75V12.375C19.2656 13.009 19.0138 13.6171 18.5654 14.0654C18.1171 14.5138 17.509 14.7656 16.875 14.7656H10.6937L4.83954 19.888C4.68728 20.0213 4.47117 20.0531 4.28694 19.9695C4.1027 19.8859 3.98438 19.7023 3.98438 19.5V14.7656H2.625C1.99097 14.7656 1.3829 14.5138 0.934573 14.0654C0.486244 13.6171 0.234375 13.009 0.234375 12.375V3.75C0.234375 3.11597 0.486244 2.5079 0.934573 2.05957ZM2.625 2.39062C2.26447 2.39062 1.91871 2.53384 1.66378 2.78878C1.40884 3.04371 1.26562 3.38947 1.26562 3.75V12.375C1.26562 12.7355 1.40884 13.0813 1.66378 13.3362C1.91871 13.5912 2.26447 13.7344 2.625 13.7344H4.5C4.78477 13.7344 5.01562 13.9652 5.01562 14.25V18.3637L10.1605 13.862C10.2545 13.7797 10.3751 13.7344 10.5 13.7344H16.875C17.2355 13.7344 17.5813 13.5912 17.8362 13.3362C18.0912 13.0813 18.2344 12.7355 18.2344 12.375V3.75C18.2344 3.38947 18.0912 3.04371 17.8362 2.78878C17.5813 2.53384 17.2355 2.39062 16.875 2.39062H2.625Z" fill="#566573"/>
</svg>
