<svg width="16" height="16" viewBox="0 0 16 16" fill="none" xmlns="http://www.w3.org/2000/svg">
<path fill-rule="evenodd" clip-rule="evenodd" d="M0.65625 1C0.65625 0.810152 0.810152 0.65625 1 0.65625H7.25C7.43985 0.65625 7.59375 0.810152 7.59375 1V7.25C7.59375 7.43985 7.43985 7.59375 7.25 7.59375H1C0.810152 7.59375 0.65625 7.43985 0.65625 7.25V1ZM1.34375 1.34375V6.90625H6.90625V1.34375H1.34375Z" fill="#596481"/>
<path fill-rule="evenodd" clip-rule="evenodd" d="M8.40625 1C8.40625 0.810152 8.56015 0.65625 8.75 0.65625H15C15.1898 0.65625 15.3438 0.810152 15.3438 1V7.25C15.3438 7.43985 15.1898 7.59375 15 7.59375H8.75C8.56015 7.59375 8.40625 7.43985 8.40625 7.25V1ZM9.09375 1.34375V6.90625H14.6562V1.34375H9.09375Z" fill="#596481"/>
<path fill-rule="evenodd" clip-rule="evenodd" d="M0.65625 8.75C0.65625 8.56015 0.810152 8.40625 1 8.40625H7.25C7.43985 8.40625 7.59375 8.56015 7.59375 8.75V15C7.59375 15.1898 7.43985 15.3438 7.25 15.3438H1C0.810152 15.3438 0.65625 15.1898 0.65625 15V8.75ZM1.34375 9.09375V14.6562H6.90625V9.09375H1.34375Z" fill="#596481"/>
<path fill-rule="evenodd" clip-rule="evenodd" d="M8.40625 8.75C8.40625 8.56015 8.56015 8.40625 8.75 8.40625H15C15.1898 8.40625 15.3438 8.56015 15.3438 8.75V15C15.3438 15.1898 15.1898 15.3438 15 15.3438H8.75C8.56015 15.3438 8.40625 15.1898 8.40625 15V8.75ZM9.09375 9.09375V14.6562H14.6562V9.09375H9.09375Z" fill="#596481"/>
</svg>
