<svg width="46" height="46" viewBox="0 0 46 46" fill="none" xmlns="http://www.w3.org/2000/svg">
<path d="M44.2388 25.9688C42.5135 24.2436 40.0036 23.7712 37.8474 24.5494L36.64 20.3162H38.3426C38.888 20.3162 39.3302 19.874 39.3302 19.3286C39.3302 18.7832 38.888 18.341 38.3426 18.341H36.0767L34.1978 11.753C34.1141 11.4596 33.8996 11.2214 33.6166 11.1076L29.9686 9.64004C29.4624 9.43659 28.8872 9.68179 28.6837 10.1877C28.48 10.6937 28.7253 11.269 29.2313 11.4726L32.4308 12.7597L34.8401 21.2073L27.1093 26.3608C25.0299 26.1784 23.902 24.0175 23.8922 23.9984C23.725 23.6638 23.383 23.4524 23.0088 23.4524H15.0988C13.1764 20.9573 10.2284 19.2911 6.89147 19.0915L6.21316 17.3957H4.08585L5.29792 20.4257C5.44794 20.8007 5.81102 21.0465 6.21487 21.0465C8.99221 21.0465 11.4869 22.279 13.1813 24.2257L10.5263 26.0528C8.30439 23.6324 4.05909 23.5666 1.80339 25.9764C0.538075 27.3333 -0.0861855 28.941 0.00961284 30.6026C0.11843 33.5612 2.84325 36.2866 5.80205 36.3953C8.69647 36.6159 11.7395 34.2657 12.1419 31.2691H16.2278L21.907 33.7932C22.5062 34.0596 23.1421 34.1911 23.7753 34.1911C26.2411 34.2337 28.4275 32.0712 28.3777 29.5881V27.8893L35.409 23.2019L36.0785 25.5492C31.6975 29.2249 34.1229 35.9288 39.5812 36.4239C45.0824 36.6909 48.1507 29.9565 44.2388 25.9688V25.9688ZM15.3968 29.2937H9.3008C9.30582 29.2902 10.8856 28.203 10.8903 28.1999L14.3122 25.845C14.8864 26.8889 15.2645 28.0551 15.3968 29.2937ZM9.05317 33.1836C4.99158 36.9208 -0.518131 31.4074 3.22483 27.3476C4.65615 25.8293 7.33751 25.7853 8.86553 27.1955L5.56367 29.4678C5.20732 29.7129 5.05209 30.1615 5.18039 30.5744C5.30878 30.9875 5.69099 31.2689 6.12347 31.2689H10.1285C9.95307 31.9868 9.58622 32.6458 9.05317 33.1836V33.1836ZM25.2069 31.788C24.446 32.2826 23.5357 32.3553 22.7092 31.9881L17.4064 29.6312C17.3204 28.1328 16.9386 26.7124 16.3189 25.4276H22.4501C23.0147 26.2792 24.3171 27.859 26.4026 28.2555V29.588C26.4025 30.4925 25.9667 31.2943 25.2069 31.788V31.788ZM42.791 33.2483C38.948 36.8145 33.6241 31.7126 36.7007 27.7307C37.0478 29.2317 38.068 30.5377 39.4644 31.1987C39.602 31.2645 39.7472 31.2958 39.8901 31.2958C40.9297 31.2873 41.2641 29.8857 40.3172 29.4171C39.5687 29.0587 38.9883 28.4037 38.7226 27.6178L38.3907 26.4544C42.6475 24.8806 45.9108 29.9449 42.791 33.2483V33.2483Z" fill="#217B56"/>
<path d="M33.7532 17.3956L33.1899 15.4204C29.6119 15.319 25.9983 16.0302 22.7788 17.6108H18.2925C16.7326 16.195 14.7305 15.4204 12.6093 15.4204H1.10352C0.558087 15.4204 0.115906 15.8625 0.115906 16.408C0.115906 16.9534 0.558087 17.3956 1.10352 17.3956H12.6092C14.3431 17.3956 15.9732 18.0708 17.1993 19.2968C17.3846 19.482 17.6357 19.5861 17.8977 19.5861H22.9642C23.2763 19.6174 26.1429 19.9575 27.3704 21.9522C27.557 22.2554 27.8808 22.4223 28.2125 22.4223C28.9686 22.4334 29.462 21.5605 29.0526 20.917C28.2862 19.6716 27.1421 18.892 26.0593 18.4056C28.5168 17.5577 31.1664 17.3237 33.7532 17.3956Z" fill="#EB2227"/>
</svg>
