<svg width="46" height="46" viewBox="0 0 46 46" fill="none" xmlns="http://www.w3.org/2000/svg">
<g clip-path="url(#clip0_567_2612)">
<path d="M39.8989 27.1233C39.1729 27.1425 38.4828 27.265 37.8525 27.4777C37.2692 26.4113 36.659 25.291 36.085 24.2286L36.9587 23.6462C38.482 22.6307 39.0479 20.6795 38.3044 19.0065C38.2681 18.9247 38.2208 18.8482 38.1639 18.7792L33.5613 13.1956L34.3824 12.9903C34.8224 12.8802 35.1312 12.4848 35.1312 12.0311C35.1312 10.5296 34.3608 8.93586 33.1206 7.87189C32.0242 6.93133 30.7296 6.51933 29.4749 6.71284L26.6077 7.15413C26.6074 7.15422 26.607 7.15422 26.6067 7.15431L24.3073 7.5078C23.0193 7.75847 23.3036 9.60967 24.6078 9.46209L26.0477 9.24073C26.9241 12.2246 29.801 22.5555 30.6854 25.7218C28.2873 28.9785 27.1041 32.4697 22.3126 32.2678L19.5691 21.2936C19.4591 20.8536 19.0636 20.5448 18.61 20.5448H6.18366C2.68905 20.5448 0.984526 23.8734 0.913612 24.0151C0.774123 24.2941 0.774482 24.6224 0.914511 24.901C1.27591 25.6254 2.01065 27.0892 2.58093 28.2359C-2.24557 31.6836 0.136713 39.289 6.09234 39.3339C9.12202 39.3339 11.6423 37.1151 12.1163 34.2173H21.5116C27.9553 34.6094 29.2218 31.2026 32.4585 26.6463L34.4327 25.33C35.0062 26.3907 35.592 27.4656 36.1101 28.4127C33.414 30.4425 33.0578 34.8463 35.3067 37.3323C37.4697 39.8565 41.7604 40.0103 44.1616 37.554C48.0803 33.7791 45.302 27.1106 39.8989 27.1233V27.1233ZM6.09225 37.3567C2.22609 37.3498 0.505121 32.4727 3.47934 30.035C3.74969 30.5756 3.98769 31.0507 4.16295 31.3984C5.03251 33.1372 6.78044 34.2174 8.72458 34.2174H10.0998C9.65544 36.0175 8.02767 37.3567 6.09225 37.3567ZM8.72449 32.2401C7.53406 32.2401 6.4638 31.5786 5.92993 30.5112C5.25828 29.1783 3.71877 26.0844 2.92695 24.5033C3.39144 23.825 4.50277 22.5221 6.18357 22.5221H17.8378L18.6226 25.6615H15.6858C15.1398 25.6615 14.6972 26.1041 14.6972 26.6501C14.6972 27.1961 15.1398 27.6388 15.6858 27.6388H19.1169L20.2672 32.2401H8.72449ZM29.7756 8.66713C31.4203 8.47164 32.7036 10.0094 33.0507 11.285L31.5639 11.6566C31.5635 11.6567 31.5629 11.6568 31.5625 11.6569L28.982 12.302L28.0176 8.93766L29.7756 8.66713ZM32.3524 24.3406L29.5206 14.2055L31.4365 13.7266L36.5427 19.9212C36.8226 20.6849 36.5477 21.5438 35.8619 22.001L34.2343 23.086C34.233 23.0868 32.3542 24.3394 32.3524 24.3406V24.3406ZM39.8263 37.3566C35.6739 37.1917 34.6541 32.5671 37.0768 30.1758C37.7585 31.4145 38.3649 32.515 38.902 33.4761C39.087 33.8063 39.3173 34.2174 39.8987 34.2174C40.6674 34.2288 41.1523 33.3388 40.7346 32.7007C40.6219 32.5055 39.8389 31.0952 38.8251 29.2513C39.1592 29.1674 39.5214 29.1147 39.9147 29.1006C42.1836 29.1093 44.0267 30.9578 44.0267 33.2287C44.0268 35.4601 42.1053 37.3463 39.8263 37.3566Z" fill="#217B56"/>
<path d="M7.35898 20.5447C6.62478 19.5969 6.44673 18.2708 6.41698 17.4053H19.105C19.0735 18.2723 18.8941 19.6007 18.1649 20.5447H18.6098C19.0634 20.5447 19.4589 20.8535 19.5689 21.2936L19.6947 21.7971C21.3997 19.6353 21.0702 16.4512 21.0542 16.3075C20.9986 15.8069 20.5753 15.4281 20.0716 15.4281H5.45269C4.94892 15.4281 4.52569 15.8069 4.47006 16.3075C4.45676 16.4273 4.22568 18.659 5.13587 20.6506C5.72385 20.506 6.73568 20.5502 7.35898 20.5447V20.5447Z" fill="#EB2227"/>
</g>
<defs>
<clipPath id="clip0_567_2612">
<rect width="46" height="46" fill="white"/>
</clipPath>
</defs>
</svg>
