<svg width="32" height="32" viewBox="0 0 32 32" fill="none" xmlns="http://www.w3.org/2000/svg">
<g clip-path="url(#clip0_1256_3860)">
<path fill-rule="evenodd" clip-rule="evenodd" d="M10.844 21.8824C11.0487 21.5626 11.4739 21.4693 11.7936 21.674C13.2317 22.5945 14.1875 24.2084 14.1875 26.0455C14.1875 28.9107 11.8652 31.233 9 31.233C6.1348 31.233 3.8125 28.9107 3.8125 26.0455C3.8125 25.6658 4.1203 25.358 4.5 25.358C4.8797 25.358 5.1875 25.6658 5.1875 26.0455C5.1875 28.1513 6.8942 29.858 9 29.858C11.1058 29.858 12.8125 28.1513 12.8125 26.0455C12.8125 24.6966 12.1123 23.5105 11.0524 22.832C10.7326 22.6273 10.6393 22.2022 10.844 21.8824Z" fill="#217B56"/>
<path fill-rule="evenodd" clip-rule="evenodd" d="M8.93604 20.0034C8.97449 19.6256 9.31188 19.3506 9.68962 19.389C11.1679 19.5395 12.4868 20.1778 13.5163 21.1224C13.6918 21.2835 13.7715 21.5239 13.7268 21.7579C13.6822 21.9919 13.5196 22.1861 13.2971 22.2711L6.20756 24.9821C5.85291 25.1178 5.45547 24.9402 5.31986 24.5855C5.18424 24.2309 5.3618 23.8335 5.71645 23.6978L11.6349 21.4346C11.0082 21.0712 10.3041 20.8337 9.5504 20.757C9.17265 20.7185 8.8976 20.3811 8.93604 20.0034Z" fill="#217B56"/>
<path fill-rule="evenodd" clip-rule="evenodd" d="M-5.5 16.358C-5.1203 16.358 -4.8125 16.6658 -4.8125 17.0455C-4.8125 17.544 -4.51011 17.9779 -3.77395 18.3647C-3.03471 18.7532 -2.00222 19.0066 -0.903882 19.1617C0.182048 19.315 1.27562 19.3649 2.10276 19.3757C2.515 19.3811 2.85808 19.3768 3.09713 19.3712C3.2166 19.3684 3.30992 19.3652 3.37273 19.3628C3.40413 19.3616 3.42788 19.3606 3.44345 19.3599L3.46059 19.3591L3.46502 19.3589C3.74904 19.3445 4.01278 19.5065 4.12827 19.7664C4.24377 20.0263 4.18727 20.3305 3.98614 20.5317L-2.01386 26.5317C-2.28235 26.8002 -2.71765 26.8002 -2.98614 26.5317C-3.25462 26.2632 -3.25462 25.8279 -2.98614 25.5594L1.82716 20.7461C1.00069 20.7282 -0.0445929 20.6717 -1.09612 20.5232C-2.24778 20.3606 -3.46529 20.0802 -4.41355 19.5819C-5.36489 19.082 -6.1875 18.2763 -6.1875 17.0455C-6.1875 16.6658 -5.8797 16.358 -5.5 16.358Z" fill="#217B56"/>
<path fill-rule="evenodd" clip-rule="evenodd" d="M6.47465 14.3874C6.72765 14.6705 6.70323 15.1051 6.4201 15.3581L3.9581 17.5581C3.67497 17.8111 3.24036 17.7867 2.98736 17.5036C2.73436 17.2204 2.75879 16.7858 3.04191 16.5328L5.50391 14.3328C5.78704 14.0798 6.22166 14.1042 6.47465 14.3874Z" fill="#217B56"/>
<path fill-rule="evenodd" clip-rule="evenodd" d="M5.30201 8.71051C5.35497 8.57697 5.44591 8.4414 5.5915 8.3125C5.64956 8.3125 5.70642 8.3198 5.76103 8.3337L5.77752 8.33777C5.79275 8.34156 5.81439 8.34704 5.84202 8.35422C5.89725 8.36858 5.97644 8.38979 6.07615 8.41813C6.27545 8.47477 6.55748 8.56009 6.89483 8.6764C7.56721 8.90821 8.47061 9.26698 9.38004 9.77341C11.1497 10.7589 13.1875 12.4469 13.1875 15.0455C13.1875 15.7928 12.8098 16.692 12.4042 17.4452C11.9825 18.2281 11.4552 18.9881 11.022 19.4929M11.0217 19.4933L5.02199 26.4929C4.89138 26.6453 4.7007 26.733 4.5 26.733H-10.75C-11.8202 26.733 -12.6875 25.8657 -12.6875 24.7955C-12.6875 23.7253 -11.8202 22.858 -10.75 22.858H-5.5C-5.1203 22.858 -4.8125 23.1658 -4.8125 23.5455C-4.8125 23.9252 -5.1203 24.233 -5.5 24.233H-10.75C-11.0608 24.233 -11.3125 24.4847 -11.3125 24.7955C-11.3125 25.1063 -11.0608 25.358 -10.75 25.358H4.1838L9.97801 18.5981L9.97833 18.5977C10.342 18.174 10.8146 17.4967 11.1936 16.7932C11.5887 16.0597 11.8125 15.4232 11.8125 15.0455C11.8125 13.2476 10.3958 11.9129 8.71108 10.9747C7.89333 10.5193 7.06957 10.1911 6.44666 9.97631C6.18785 9.88708 5.96567 9.81811 5.79552 9.76825L5.43594 10.1278C5.82016 10.4294 6.19659 10.7877 6.51755 11.1648C6.78201 11.4755 7.02199 11.8144 7.19876 12.1618C7.37249 12.5032 7.506 12.8937 7.506 13.2955C7.506 14.4875 6.68065 15.4753 5.58001 15.7457C5.45395 15.7766 5.32169 15.7713 5.19855 15.7302L3.06724 15.0196C0.354863 14.3191 -1.64168 14.9446 -2.96152 15.7237C-3.62993 16.1182 -4.13091 16.5565 -4.46288 16.8939C-4.62851 17.0622 -4.7509 17.2043 -4.82988 17.3014C-4.86933 17.3499 -4.89784 17.3871 -4.91538 17.4105C-4.92415 17.4222 -4.93016 17.4305 -4.93342 17.435L-4.93564 17.4381L-4.93532 17.4377C-4.93561 17.4381 -4.93591 17.4385 -4.9362 17.4389C-5.06476 17.6232 -5.27526 17.733 -5.5 17.733H-9.5C-9.8797 17.733 -10.1875 17.4252 -10.1875 17.0455C-10.1875 16.6658 -9.8797 16.358 -9.5 16.358H-5.83391C-5.73532 16.2407 -5.60506 16.0942 -5.44303 15.9296C-5.04547 15.5255 -4.45194 15.0068 -3.66048 14.5396C-2.06413 13.5973 0.313375 12.8812 3.43582 13.6947C3.45068 13.6986 3.46539 13.7029 3.47995 13.7078L5.4208 14.3549C5.83969 14.1807 6.131 13.771 6.131 13.2955C6.131 13.189 6.09195 13.0186 5.97327 12.7853C5.85764 12.5581 5.68537 12.3085 5.47045 12.056C5.03699 11.5467 4.48358 11.0876 4.02299 10.8245C3.83692 10.7182 3.71105 10.5312 3.68259 10.3188C3.65413 10.1064 3.72634 9.89289 3.87786 9.74136L5.10536 8.51386L5.30201 8.71051M-5.5 17.0455C-4.93493 17.4371 -4.93513 17.4374 -4.93532 17.4377C-4.93519 17.4375 -4.93506 17.4373 -4.93493 17.4371L-5.5 17.0455Z" fill="#217B56"/>
<path fill-rule="evenodd" clip-rule="evenodd" d="M27.1364 12.4989C26.2844 12.6364 25.7053 13.4385 25.8428 14.2905C25.9804 15.1424 26.7825 15.7215 27.6344 15.584C28.4863 15.4465 29.0654 14.6444 28.9279 13.7924C28.7904 12.9405 27.9883 12.3614 27.1364 12.4989ZM24.4854 14.5096C24.2269 12.908 25.3156 11.4 26.9172 11.1415C28.5188 10.8829 30.0268 11.9717 30.2853 13.5733C30.5439 15.1749 29.4551 16.6829 27.8535 16.9414C26.2519 17.1999 24.7439 16.1112 24.4854 14.5096Z" fill="#217B56"/>
<path fill-rule="evenodd" clip-rule="evenodd" d="M22.8838 16.0484C23.1917 16.2707 23.261 16.7004 23.0388 17.0082L14.3463 29.0474C14.124 29.3552 13.6943 29.4246 13.3864 29.2023C13.0786 28.98 13.0092 28.5503 13.2315 28.2425L21.924 16.2033C22.1463 15.8955 22.576 15.8261 22.8838 16.0484Z" fill="#217B56"/>
<path fill-rule="evenodd" clip-rule="evenodd" d="M17.801 9.57428C18.1758 9.51377 18.5287 9.76858 18.5892 10.1434L19.1016 13.3176L31.4832 22.2573C31.791 22.4795 31.8604 22.9093 31.6381 23.2171C31.4159 23.525 30.9861 23.5943 30.6783 23.3721L18.2339 14.387C18.2339 14.387 18.2339 14.387 18.2339 14.387C17.9786 14.2027 17.8069 13.9245 17.7566 13.6136L17.2318 10.3626C17.1713 9.98771 17.4261 9.63478 17.801 9.57428Z" fill="#217B56"/>
<path fill-rule="evenodd" clip-rule="evenodd" d="M18.1986 21.3629C18.4209 21.0551 18.8506 20.9857 19.1585 21.208L24.3602 24.9637C24.3603 24.9638 24.3604 24.9639 24.3605 24.964C24.5086 25.0708 24.63 25.2103 24.7153 25.3717C24.8008 25.5332 24.8478 25.7123 24.8527 25.8949C24.8576 26.0775 24.8203 26.2588 24.7437 26.4247C24.6671 26.5906 24.5533 26.7366 24.4111 26.8513L21.7842 28.9718C21.4888 29.2103 21.056 29.1642 20.8175 28.8687C20.579 28.5733 20.6251 28.1404 20.9206 27.9019L23.3568 25.9352L18.3536 22.3228C18.0457 22.1005 17.9764 21.6708 18.1986 21.3629ZM23.5559 26.079C23.5558 26.0789 23.5557 26.0788 23.5556 26.0788L23.5559 26.079ZM23.5476 25.7812C23.5476 25.7812 23.5476 25.7812 23.5477 25.7812Z" fill="#217B56"/>
<path fill-rule="evenodd" clip-rule="evenodd" d="M26.3236 18.5319C26.6314 18.7542 26.7008 19.1839 26.4785 19.4918L22.7532 24.6514C22.5309 24.9592 22.1012 25.0286 21.7933 24.8063C21.4855 24.5841 21.4161 24.1543 21.6384 23.8465L25.3637 18.6869C25.586 18.379 26.0157 18.3097 26.3236 18.5319Z" fill="#217B56"/>
<path fill-rule="evenodd" clip-rule="evenodd" d="M15.8494 2.09509L20.0649 4.72976L25.1443 2.63821L24.177 8.11944L22.823 7.88048L23.3557 4.86171L19.9352 6.27016L16.1506 3.90483L12.8891 7.91898L6.36865 3.572L7.13137 2.42793L12.6109 6.08094L15.8494 2.09509Z" fill="#EB2227"/>
</g>
<defs>
<clipPath id="clip0_1256_3860">
<rect width="32" height="32" fill="white"/>
</clipPath>
</defs>
</svg>
