<svg width="46" height="46" viewBox="0 0 46 46" fill="none" xmlns="http://www.w3.org/2000/svg">
<g clip-path="url(#clip0_567_2616)">
<path d="M13.8662 15.4334H13.1534C11.274 13.8776 7.55433 13.1126 5.91184 15.5204C4.84695 17.0247 5.1596 18.3758 5.76477 19.9753C6.2731 21.5001 7.69448 22.5245 9.30175 22.5245H13.8662C18.568 22.3307 18.5703 15.6284 13.8662 15.4334ZM13.8662 20.5481H9.30166C8.54645 20.5481 7.87857 20.0668 7.63977 19.3503L7.27447 18.2544C6.87495 17.1652 7.77624 15.9139 8.93591 15.9487C10.1007 15.9492 11.3883 16.4293 12.0672 17.1163C12.2528 17.3043 12.506 17.41 12.7701 17.41H13.8661C15.946 17.4953 15.9488 20.4615 13.8662 20.5481V20.5481Z" fill="#EB2227"/>
<path d="M41.596 35.9575L39.5132 25.4473H38.8183L37.7603 26.7697L39.6573 36.3417C39.9678 37.621 41.7992 37.2505 41.596 35.9575V35.9575Z" fill="#EB2227"/>
<path d="M39.1215 23.4708L38.0388 18.007C40.2028 16.8527 41.5013 14.5304 41.4928 12.0384C41.5182 8.29842 38.6552 5.33274 34.8427 5.212L32.0071 4.50306C31.4781 4.3709 30.9411 4.69262 30.8086 5.22215C30.6762 5.75168 30.9982 6.28821 31.5277 6.42064L33.8424 6.99931L35.7755 16.7534C35.4423 16.8265 35.0868 16.8752 34.7061 16.8932C32.2715 16.6823 29.9911 18.709 30.0487 21.1711C30.0487 23.529 31.9669 25.4473 34.3248 25.4473H36.287L37.5716 23.8417C37.7592 23.6073 38.0431 23.4708 38.3433 23.4708H39.1215ZM34.3247 23.4708C32.2623 23.4782 31.229 20.8948 32.7548 19.4957C33.2791 19.0021 34.0079 18.8031 34.7291 18.8705C35.2256 18.8509 35.703 18.7904 36.1597 18.6924L37.1067 23.4708H34.3247ZM37.6289 15.9388L35.9286 7.3584C40.0307 8.39059 40.6743 13.6108 37.6289 15.9388Z" fill="#EB2227"/>
<path d="M38.8183 25.4473H40.5353C41.0811 25.4473 41.5236 25.0048 41.5236 24.459C41.5236 23.9133 41.0811 23.4708 40.5353 23.4708H38.3433C38.0431 23.4708 37.7592 23.6072 37.5716 23.8416L32.023 30.7773H12.2971V22.5247H10.3206V30.7773H0.988258C0.44247 30.7773 0 31.2198 0 31.7656C0 32.3114 0.44247 32.7538 0.988258 32.7538H2.73918C1.13506 34.6849 1.20846 37.9154 2.91662 39.7564C5.61609 42.7635 10.7399 41.7412 12.0134 37.8684H30.1235C30.6692 37.8684 31.1117 37.426 31.1117 36.8802V35.0392C32.5506 33.2942 37.3279 27.311 38.8183 25.4473V25.4473ZM6.94413 39.5452C2.40183 39.3534 2.40183 32.9457 6.94413 32.7539C11.4248 32.9623 11.4213 39.3386 6.94413 39.5452ZM29.3565 34.0651C29.2133 34.2413 29.1352 34.4613 29.1352 34.6883V35.892H12.2905C12.2342 34.705 11.7908 33.6179 11.0841 32.7538H30.4217L29.3565 34.0651Z" fill="#217B56"/>
<path d="M45.8612 34.9411C45.3504 32.5316 43.0182 30.7104 40.5695 30.7773L40.9644 32.77C42.3772 32.8941 43.6356 33.9916 43.9353 35.3858C44.3809 37.1488 43.1865 39.0717 41.4093 39.4539C37.3513 40.2482 35.6661 34.9815 39.0285 33.1684L38.6338 31.1769C34.6127 32.7072 34.1472 38.1369 37.5326 40.5657C41.5757 43.3134 46.9327 39.773 45.8612 34.9411Z" fill="#217B56"/>
</g>
<defs>
<clipPath id="clip0_567_2616">
<rect width="46" height="46" fill="white"/>
</clipPath>
</defs>
</svg>
