<svg width="144" height="57" viewBox="0 0 144 57" fill="none" xmlns="http://www.w3.org/2000/svg">
<g clip-path="url(#clip0_10028_20532)">
<path d="M6.90133 10.4743C9.32815 7.54762 12.3528 5.17226 15.775 3.50554C19.1972 1.83883 22.9389 0.918805 26.752 0.806425C29.4933 0.74891 32.2363 0.862147 34.9652 1.14546C63.5139 3.73636 91.9695 6.35647 120.332 9.0058C123.08 9.16008 125.817 9.48478 128.526 9.97801C132.893 10.8194 136.833 13.1645 139.658 16.6035C142.482 20.0425 144.011 24.3568 143.978 28.7925C143.918 33.2585 142.237 37.5429 139.247 40.8505C136.256 44.1582 132.16 46.2646 127.718 46.7788C117.155 48.2096 106.495 49.0681 95.9113 50.1243L37.7123 56.0152C34.6911 56.2985 31.6019 56.6769 28.5734 56.6674C23.1994 56.6966 17.9214 55.1903 13.3625 52.3262C8.80349 49.4622 5.15389 45.36 2.8445 40.504C0.535102 35.648 -0.337663 30.2408 0.329206 24.9208C0.996074 19.6008 3.17474 14.5901 6.60803 10.4802L6.90133 10.4743Z" fill="white"/>
</g>
<defs>
<clipPath id="clip0_10028_20532">
<rect width="144" height="57" fill="white"/>
</clipPath>
</defs>
</svg>
