<svg width="22" height="32" viewBox="0 0 22 32" fill="none" xmlns="http://www.w3.org/2000/svg">
    <path fill-rule="evenodd" clip-rule="evenodd" d="M5 8.3125C5.3797 8.3125 5.6875 8.6203 5.6875 9V10C5.6875 10.3797 5.3797 10.6875 5 10.6875C4.6203 10.6875 4.3125 10.3797 4.3125 10V9C4.3125 8.6203 4.6203 8.3125 5 8.3125Z" fill="#EB2227"/>
    <path fill-rule="evenodd" clip-rule="evenodd" d="M9 8.3125C9.3797 8.3125 9.6875 8.6203 9.6875 9V10C9.6875 10.3797 9.3797 10.6875 9 10.6875C8.6203 10.6875 8.3125 10.3797 8.3125 10V9C8.3125 8.6203 8.6203 8.3125 9 8.3125Z" fill="#EB2227"/>
    <path fill-rule="evenodd" clip-rule="evenodd" d="M13 8.3125C13.3797 8.3125 13.6875 8.6203 13.6875 9V10C13.6875 10.3797 13.3797 10.6875 13 10.6875C12.6203 10.6875 12.3125 10.3797 12.3125 10V9C12.3125 8.6203 12.6203 8.3125 13 8.3125Z" fill="#EB2227"/>
    <path fill-rule="evenodd" clip-rule="evenodd" d="M17 8.3125C17.3797 8.3125 17.6875 8.6203 17.6875 9V10C17.6875 10.3797 17.3797 10.6875 17 10.6875C16.6203 10.6875 16.3125 10.3797 16.3125 10V9C16.3125 8.6203 16.6203 8.3125 17 8.3125Z" fill="#EB2227"/>
    <path fill-rule="evenodd" clip-rule="evenodd" d="M5 12.8125C5.3797 12.8125 5.6875 13.1203 5.6875 13.5V14.5C5.6875 14.8797 5.3797 15.1875 5 15.1875C4.6203 15.1875 4.3125 14.8797 4.3125 14.5V13.5C4.3125 13.1203 4.6203 12.8125 5 12.8125Z" fill="#EB2227"/>
    <path fill-rule="evenodd" clip-rule="evenodd" d="M9 12.8125C9.3797 12.8125 9.6875 13.1203 9.6875 13.5V14.5C9.6875 14.8797 9.3797 15.1875 9 15.1875C8.6203 15.1875 8.3125 14.8797 8.3125 14.5V13.5C8.3125 13.1203 8.6203 12.8125 9 12.8125Z" fill="#EB2227"/>
    <path fill-rule="evenodd" clip-rule="evenodd" d="M13 12.8125C13.3797 12.8125 13.6875 13.1203 13.6875 13.5V14.5C13.6875 14.8797 13.3797 15.1875 13 15.1875C12.6203 15.1875 12.3125 14.8797 12.3125 14.5V13.5C12.3125 13.1203 12.6203 12.8125 13 12.8125Z" fill="#EB2227"/>
    <path fill-rule="evenodd" clip-rule="evenodd" d="M17 12.8125C17.3797 12.8125 17.6875 13.1203 17.6875 13.5V14.5C17.6875 14.8797 17.3797 15.1875 17 15.1875C16.6203 15.1875 16.3125 14.8797 16.3125 14.5V13.5C16.3125 13.1203 16.6203 12.8125 17 12.8125Z" fill="#EB2227"/>
    <path fill-rule="evenodd" clip-rule="evenodd" d="M5 17.3125C5.3797 17.3125 5.6875 17.6203 5.6875 18V19C5.6875 19.3797 5.3797 19.6875 5 19.6875C4.6203 19.6875 4.3125 19.3797 4.3125 19V18C4.3125 17.6203 4.6203 17.3125 5 17.3125Z" fill="#EB2227"/>
    <path fill-rule="evenodd" clip-rule="evenodd" d="M9 17.3125C9.3797 17.3125 9.6875 17.6203 9.6875 18V19C9.6875 19.3797 9.3797 19.6875 9 19.6875C8.6203 19.6875 8.3125 19.3797 8.3125 19V18C8.3125 17.6203 8.6203 17.3125 9 17.3125Z" fill="#EB2227"/>
    <path fill-rule="evenodd" clip-rule="evenodd" d="M13 17.3125C13.3797 17.3125 13.6875 17.6203 13.6875 18V19C13.6875 19.3797 13.3797 19.6875 13 19.6875C12.6203 19.6875 12.3125 19.3797 12.3125 19V18C12.3125 17.6203 12.6203 17.3125 13 17.3125Z" fill="#EB2227"/>
    <path fill-rule="evenodd" clip-rule="evenodd" d="M17 17.3125C17.3797 17.3125 17.6875 17.6203 17.6875 18V19C17.6875 19.3797 17.3797 19.6875 17 19.6875C16.6203 19.6875 16.3125 19.3797 16.3125 19V18C16.3125 17.6203 16.6203 17.3125 17 17.3125Z" fill="#EB2227"/>
    <path fill-rule="evenodd" clip-rule="evenodd" d="M0.3125 22.5C0.3125 22.1203 0.620304 21.8125 1 21.8125H21C21.3797 21.8125 21.6875 22.1203 21.6875 22.5C21.6875 22.8797 21.3797 23.1875 21 23.1875H1C0.620304 23.1875 0.3125 22.8797 0.3125 22.5Z" fill="#217B56"/>
    <path fill-rule="evenodd" clip-rule="evenodd" d="M10.8024 0.841494C10.9313 0.802835 11.0687 0.802835 11.1976 0.841494L21.1976 3.84149C21.4884 3.92873 21.6875 4.19639 21.6875 4.5V31C21.6875 31.3797 21.3797 31.6875 21 31.6875H13C12.6203 31.6875 12.3125 31.3797 12.3125 31V26.6875H9.6875V31C9.6875 31.3797 9.3797 31.6875 9 31.6875H1C0.620304 31.6875 0.3125 31.3797 0.3125 31V4.5C0.3125 4.19639 0.511647 3.92873 0.802448 3.84149L10.8024 0.841494ZM1.6875 5.01152V30.3125H8.3125V26C8.3125 25.6203 8.6203 25.3125 9 25.3125H13C13.3797 25.3125 13.6875 25.6203 13.6875 26V30.3125H20.3125V5.01152L11 2.21777L1.6875 5.01152Z" fill="#217B56"/>
</svg>
