<svg width="208" height="211" viewBox="0 0 208 211" fill="none" xmlns="http://www.w3.org/2000/svg">
<g clip-path="url(#clip0_107_1990)">
<path d="M98.1377 208.387C120.305 208.387 138.274 206.003 138.274 203.062C138.274 200.121 120.305 197.737 98.1377 197.737C75.9709 197.737 58.0012 200.121 58.0012 203.062C58.0012 206.003 75.9709 208.387 98.1377 208.387Z" fill="#EBF7F2"/>
<path fill-rule="evenodd" clip-rule="evenodd" d="M24.0092 48.0888C24.0092 48.0888 47.7193 22.2235 76.1826 36.653C104.646 51.0826 125.085 68.5499 156.086 68.0427C200.873 67.3096 229.263 124.389 187.916 164.556C146.568 204.723 106.659 189.141 95.5837 176.553C84.5087 163.965 -19.4803 98.4368 24.0092 48.0888Z" fill="#F4F8F7"/>
<path d="M38.361 100.199C36.9653 100.451 35.7176 100.21 34.618 99.4748C33.5185 98.7398 32.8421 97.6734 32.5889 96.2757C32.3368 94.879 32.5972 93.6436 33.3704 92.5694C34.1435 91.4952 35.228 90.8325 36.6237 90.5813C38.0175 90.3292 39.2544 90.5735 40.3344 91.3144C41.4145 92.0553 42.0801 93.1236 42.3313 94.5193C42.5835 95.917 42.3337 97.1505 41.5821 98.2198C40.8305 99.2891 39.7568 99.9489 38.361 100.199ZM28.4427 65.8288L26.9766 58.8354L34.5623 57.4646L35.5696 64.5416L38.3215 85.7563L33.2809 86.6639L28.4427 65.8288Z" fill="#EB2227"/>
<path d="M173.171 136.505C171.797 136.156 170.763 135.42 170.07 134.297C169.377 133.174 169.204 131.923 169.55 130.543C169.898 129.168 170.648 128.152 171.797 127.494C172.947 126.836 174.208 126.683 175.581 127.034C176.955 127.382 177.982 128.116 178.66 129.233C179.338 130.35 179.502 131.598 179.15 132.977C178.8 134.354 178.061 135.373 176.934 136.034C175.807 136.695 174.553 136.852 173.171 136.505ZM178.386 101.111L179.95 94.1382L187.42 96.0309L185.406 102.892L179.117 123.34L174.159 122.081L178.386 101.111Z" fill="#EB2227"/>
<path d="M143.985 209.276C156.416 209.276 166.494 208.024 166.494 206.48C166.494 204.936 156.416 203.684 143.985 203.684C131.553 203.684 121.475 204.936 121.475 206.48C121.475 208.024 131.553 209.276 143.985 209.276Z" fill="#EBF7F2"/>
<path d="M107.461 203.023L89.0727 202.792L88.8147 166.427H107.461V203.023Z" fill="#1E8564"/>
<path d="M111.232 76.0345C111.232 76.0345 123.906 13.7258 175.083 0L130.54 76.2764C130.54 76.2764 156.58 36.6017 207.072 60.6344C207.072 60.6344 156.022 72.6785 137.285 97.0865C137.285 97.0865 127.786 110.007 122.67 118.638C106.38 146.13 111.232 76.0345 111.232 76.0345Z" fill="#BDD7CC"/>
<path d="M108.377 40.0867H93.1793V49.2748H108.377V40.0867Z" fill="#1A3461"/>
<path d="M81.7685 74.3719H64.8758L65.9593 61.8029H81.7685V74.3719Z" fill="#1E8564"/>
<path d="M77.2338 149.484C76.4519 143.848 76.6473 138.682 77.8202 133.986C78.9249 129.459 80.6628 125.111 82.9825 121.069C85.2226 117.198 87.817 113.542 90.7324 110.15C93.6294 106.785 96.373 103.496 98.9632 100.283C101.386 97.3061 103.545 94.1238 105.414 90.7719C107.125 87.6821 108.014 84.2051 107.997 80.6733C107.997 75.0375 106.314 70.4974 102.948 67.053C99.5819 63.6086 94.9245 61.8869 88.976 61.8879C84.1202 61.8879 79.7365 62.9836 75.8249 65.1749C71.9088 67.3741 68.3183 70.6098 64.8773 74.3675L49.7587 60.2473C54.9243 54.2997 61.0688 49.4073 68.1922 45.57C75.3156 41.7326 83.3392 39.8149 92.263 39.8169C98.3679 39.8169 104.004 40.6389 109.17 42.2829C114.337 43.9269 118.76 46.3929 122.439 49.681C126.116 52.968 129.012 57.0384 131.128 61.8923C133.244 66.7461 134.301 72.3819 134.297 78.7996C134.297 83.8118 133.396 88.3128 131.596 92.3026C129.776 96.3258 127.532 100.144 124.903 103.691C122.241 107.293 119.38 110.743 116.332 114.025C113.329 117.251 110.581 120.706 108.113 124.358C105.697 127.94 103.728 131.804 102.249 135.864C100.759 139.937 100.329 144.477 100.957 149.484H77.2338ZM89.2105 202.792C84.1974 202.792 80.0483 201.07 76.7632 197.626C73.4781 194.181 71.837 189.798 71.8399 184.475C71.8399 179.155 73.4835 174.771 76.7705 171.325C80.0575 167.879 84.2067 166.156 89.2179 166.158C94.2261 166.158 98.4139 167.881 101.781 171.325C105.148 174.769 106.831 179.153 106.83 184.475C106.83 189.8 105.147 194.183 101.781 197.626C98.4148 201.068 94.2247 202.79 89.2105 202.792Z" fill="#066132"/>
<path d="M94.2158 149.754C93.4339 144.118 93.6294 138.952 94.8023 134.256C95.908 129.728 97.6474 125.38 99.9689 121.339C102.209 117.467 104.803 113.812 107.719 110.419C110.613 107.055 113.353 103.768 115.938 100.557C118.363 97.5803 120.524 94.398 122.396 91.0461C124.107 87.9563 124.996 84.4792 124.979 80.9474C124.979 75.3117 123.296 70.7716 119.93 67.3272C116.564 63.8828 111.906 62.1616 105.957 62.1635C101.099 62.1635 96.7151 63.2587 92.8054 65.4491C88.8958 67.6395 85.2163 70.6137 81.767 74.3719L66.7378 60.5171C71.9054 54.5695 78.0533 49.6771 85.1816 45.8397C92.3099 42.0024 100.333 40.0847 109.252 40.0867C115.357 40.0867 120.993 40.9087 126.16 42.5527C131.326 44.1967 135.749 46.6622 139.428 49.9493C143.105 53.2383 146.002 57.3087 148.118 62.1606C150.234 67.0125 151.29 72.6487 151.288 79.0693C151.288 84.0806 150.387 88.5815 148.587 92.5723C146.767 96.5956 144.523 100.413 141.894 103.961C139.232 107.563 136.37 111.012 133.323 114.294C130.319 117.52 127.571 120.974 125.104 124.628C122.688 128.21 120.719 132.074 119.24 136.134C117.75 140.207 117.319 144.747 117.948 149.754H94.2158ZM106.193 203.058C101.18 203.058 97.0313 201.335 93.7452 197.891C90.4591 194.447 88.8156 190.063 88.8146 184.74C88.8146 179.42 90.4582 175.036 93.7452 171.589C97.0322 168.142 101.181 166.419 106.193 166.422C111.201 166.422 115.389 168.144 118.756 171.589C122.123 175.033 123.806 179.417 123.805 184.74C123.805 190.064 122.122 194.448 118.756 197.891C115.39 201.335 111.202 203.057 106.193 203.058Z" fill="#4D9578"/>
<path d="M68.1658 137.541L70.1231 137.022C70.5147 136.919 70.8562 136.679 71.0849 136.345L72.01 134.995C72.0847 134.885 72.1318 134.76 72.1473 134.629C72.1629 134.497 72.1464 134.364 72.0993 134.241C72.0521 134.117 71.9758 134.007 71.8768 133.919C71.7777 133.832 71.6589 133.77 71.5306 133.738L69.1071 134.528C68.5439 134.726 68.068 135.115 67.7627 135.628L67.2143 136.508L68.1658 137.541Z" fill="#FFBE9D"/>
<path fill-rule="evenodd" clip-rule="evenodd" d="M29.3928 209.127C29.3928 209.803 37.263 210.321 46.9863 210.281C56.7096 210.242 64.5958 209.664 64.6032 208.987C64.6105 208.309 56.733 207.793 47.0097 207.831C38.2277 207.867 29.3987 208.454 29.3928 209.127Z" fill="#EBF7F2"/>
<path fill-rule="evenodd" clip-rule="evenodd" d="M54.0383 207.01L56.601 206.439L56.2008 203.001L53.2026 202.901L54.0383 207.01Z" fill="#C95836"/>
<path fill-rule="evenodd" clip-rule="evenodd" d="M47.8542 154.183C53.185 160.268 53.2026 158.382 53.2026 158.382C53.2026 158.382 56.5102 178.908 56.4486 179.629L57.8092 202.961C57.8737 204.061 58.2768 205.071 57.2799 205.145L55.2273 205.34C53.3697 198.375 46.8983 192.89 48.8057 182.22L42.4134 165.085C34.6342 152.219 47.8542 154.183 47.8542 154.183Z" fill="#066132"/>
<path fill-rule="evenodd" clip-rule="evenodd" d="M55.4443 205.318L52.7979 205.172C51.2218 205.318 52.144 204.355 51.8787 203.493C49.9185 197.121 47.0331 192.093 48.7998 182.212L42.4134 165.085C43.9836 164.792 45.5421 165.604 46.0992 167.007C47.9011 171.545 54.5807 201.298 55.4443 205.318Z" fill="#066132"/>
<path fill-rule="evenodd" clip-rule="evenodd" d="M43.3972 156.054L41.6642 183.256L39.6351 206.576L37.2101 206.078C36.2483 197.768 31.482 191.736 34.4611 181.866L33.4832 163.198L38.7437 156.739L43.3972 156.054Z" fill="#C95836"/>
<path fill-rule="evenodd" clip-rule="evenodd" d="M43.3972 156.054L41.7067 182.679L41.1525 204.659C41.1333 204.952 40.9994 205.225 40.7798 205.42C40.5603 205.615 40.2728 205.715 39.9796 205.7L35.7015 205.619C35.4835 205.622 35.2723 205.543 35.1104 205.397C34.9485 205.251 34.848 205.049 34.8292 204.832C34.7368 203.108 34.7984 198.033 34.618 197.03C33.9348 193.236 32.9159 190.569 33.5918 185.932C34.1861 181.978 34.2846 177.966 33.885 173.987L32.24 158.423L38.8434 156.728L43.3972 156.054Z" fill="#066132"/>
<path fill-rule="evenodd" clip-rule="evenodd" d="M39.292 206.063C39.292 206.063 40.3359 207.988 40.6775 209.176C40.7063 209.275 40.7093 209.38 40.6862 209.48C40.6631 209.581 40.6147 209.674 40.5456 209.751C40.4728 209.83 40.3825 209.891 40.282 209.929C40.1815 209.967 40.0734 209.981 39.9664 209.97L38.6044 209.85C38.3956 209.832 38.1974 209.751 38.037 209.616L37.7057 209.336C37.1544 208.869 37.1911 208.383 37.2233 207.697C37.2389 207.189 37.2252 206.682 37.1823 206.176C38.1191 205.404 39.292 206.063 39.292 206.063Z" fill="#4A2A1A"/>
<path fill-rule="evenodd" clip-rule="evenodd" d="M33.2164 159.043C33.2164 159.043 42.8092 158.423 45.3251 158.41L33.1636 155.248C33.1636 155.248 33.0478 157.92 33.2164 159.043Z" fill="#728F3B"/>
<path fill-rule="evenodd" clip-rule="evenodd" d="M69.6847 137.032C69.6847 137.032 65.3802 142.906 62.4934 146.394C59.4908 150.024 56.4002 144.299 58.8046 142.611C59.7943 141.916 67.5251 136.453 67.5251 136.453L69.6847 137.032Z" fill="#FFBE9D"/>
<path fill-rule="evenodd" clip-rule="evenodd" d="M47.3645 128.595L43.0512 127.422L41.3916 127.362L34.9612 129.09C33.9032 129.528 33.0451 130.342 32.5533 131.376C32.0614 132.41 31.9707 133.59 32.2987 134.687L33.086 141.799C32.4878 148.088 32.5362 153.566 32.4995 158.735C32.4974 159.188 32.6531 159.628 32.9399 159.979C33.2267 160.33 33.6267 160.57 34.0712 160.657C40.3755 161.877 50.6662 162.876 53.4915 159.295C53.7319 148.008 51.2424 136.162 47.3645 128.595Z" fill="#BDD7CC"/>
<path fill-rule="evenodd" clip-rule="evenodd" d="M44.5202 161.767C44.5202 161.767 32.7223 149.952 33.8806 138.141L32.7824 147.817C32.7824 147.817 31.8778 154.204 31.5509 159.599C31.5509 159.596 36.1193 162.153 44.5202 161.767Z" fill="#BDD7CC"/>
<path d="M52.6674 137.962C52.6674 137.962 50.7146 134.314 50.153 133.394" stroke="#E3BDA8" stroke-width="0.282961" stroke-linecap="round" stroke-linejoin="round"/>
<path fill-rule="evenodd" clip-rule="evenodd" d="M47.7398 131.309C53.4357 131.015 58.1053 136.293 62.2823 143.152C62.6224 143.712 58.9923 146.986 58.5158 146.405C55.1071 142.249 50.5563 138.635 50.5563 138.635L47.7398 131.309Z" fill="#FFBE9D"/>
<path fill-rule="evenodd" clip-rule="evenodd" d="M45.3574 128.048C51.4315 129.177 52.3874 129.602 54.4195 131.86C56.1231 133.751 57.9719 136.071 59.7341 137.859C60.2062 138.339 55.997 140.403 55.5836 141.011C52.0502 146.204 46.284 134.134 46.284 134.134L45.3574 128.048Z" fill="#BDD7CC"/>
<path fill-rule="evenodd" clip-rule="evenodd" d="M36.4272 131.804C37.7731 141.299 37.584 137.173 26.7626 145.055C26.1761 145.486 25.6205 143.208 24.8317 143.442C23.7863 143.756 23.0987 144.164 23.0606 143.85C22.7322 141.123 35.1136 131.534 35.1136 131.534L36.4272 131.804Z" fill="#FFBE9D"/>
<path fill-rule="evenodd" clip-rule="evenodd" d="M35.8877 129.177C34.7802 129.551 33.7405 130.103 32.8089 130.809C31.9146 131.483 30.2872 132.946 28.4926 133.898C27.8329 134.248 26.314 135.323 26.2832 136.082C26.0838 140.978 30.6625 143.283 30.6625 143.283L39.9372 137.003L35.8877 129.177Z" fill="#BDD7CC"/>
<path fill-rule="evenodd" clip-rule="evenodd" d="M35.2807 153.041C35.269 152.308 30.2607 145.666 27.1936 144.082C25.7157 143.318 24.7994 142.36 24.015 142.57C22.3598 143.01 22.068 145.878 23.7687 147.253C24.795 148.088 32.6916 153.538 32.6916 153.538L35.2807 153.041Z" fill="#FFBE9D"/>
<path d="M51.2174 137.958L49.9815 134.635" stroke="#217B56" stroke-width="0.302021" stroke-linecap="round" stroke-linejoin="round"/>
<path d="M36.8905 135.178L35.2807 138.886" stroke="#217B56" stroke-width="0.302021" stroke-linecap="round" stroke-linejoin="round"/>
<path d="M34.2017 152.227L32.4013 153.139C32.0401 153.321 31.7561 153.626 31.6008 154L30.9747 155.513C30.9241 155.635 30.904 155.768 30.9161 155.9C30.9282 156.032 30.9722 156.159 31.0444 156.271C31.1165 156.382 31.2145 156.474 31.3301 156.539C31.4457 156.604 31.5753 156.64 31.7078 156.643L33.9158 155.369C34.4255 155.059 34.8104 154.58 35.0036 154.016L35.357 153.034L34.2017 152.227Z" fill="#FFBE9D"/>
<path fill-rule="evenodd" clip-rule="evenodd" d="M56.5189 206.03L58.5451 207.504C58.9439 207.87 61.1167 208.578 61.1167 208.578C61.3337 209.031 60.91 209.27 60.9041 209.33L54.4913 209.195C54.4913 209.195 52.6572 208.887 53.9708 206.032C55.1379 206.549 56.2155 206.918 56.5189 206.03Z" fill="#4A2A1A"/>
<path fill-rule="evenodd" clip-rule="evenodd" d="M46.064 123.865C46.064 123.865 47.3439 122.022 45.1946 120.536C43.0453 119.049 43.3194 123.214 43.3883 123.258C43.4573 123.302 46.064 123.865 46.064 123.865Z" fill="#4A2A1A"/>
<path fill-rule="evenodd" clip-rule="evenodd" d="M40.3374 124.913C40.3374 124.913 40.8916 126.997 42.494 126.819C44.0965 126.642 43.4661 122.046 43.4661 122.046L40.3374 124.913Z" fill="#4A2A1A"/>
<path fill-rule="evenodd" clip-rule="evenodd" d="M45.3544 125.364C45.3544 125.364 45.0964 127.674 44.8823 129.587C44.8473 129.846 44.7399 130.089 44.5725 130.288C44.4052 130.488 44.1848 130.637 43.9367 130.716C43.6714 130.808 43.388 130.836 43.1099 130.797C42.8318 130.758 42.5669 130.653 42.3372 130.492L41.8973 130.184C41.2654 129.737 40.9649 129.011 41.1247 128.33C41.5337 126.57 42.277 123.377 42.277 123.377L45.3559 125.364H45.3544Z" fill="#FFBE9D"/>
<path fill-rule="evenodd" clip-rule="evenodd" d="M45.3427 126.852L45.0451 128.14L43.7153 126.844L45.3427 126.852Z" fill="#633C1D"/>
<path fill-rule="evenodd" clip-rule="evenodd" d="M41.1775 123.207C41.0736 122.898 41.0963 122.561 41.2406 122.269C41.3849 121.977 41.639 121.755 41.9472 121.65L44.1728 120.905C44.812 120.691 45.4072 121.083 45.7166 121.688C46.0817 122.403 46.4834 124.006 46.6358 125.207C46.7209 125.883 46.4189 126.633 45.7796 126.847C45.0964 127.076 42.8357 127.102 42.2302 125.934C41.7698 125.045 41.4971 124.161 41.1775 123.208V123.207Z" fill="#FFBE9D"/>
<path fill-rule="evenodd" clip-rule="evenodd" d="M40.0632 125.372C40.0632 125.372 39.2876 122.858 40.1292 121.725C41.2596 120.203 42.9515 119.194 45.1946 120.536C45.1946 120.536 46.3954 121.021 42.9529 122.059C42.5131 122.191 43.5071 124.226 42.9705 124.504C42.2477 124.88 41.3006 125.189 40.0632 125.372Z" fill="#4A2A1A"/>
<path fill-rule="evenodd" clip-rule="evenodd" d="M41.3153 126.015C41.6598 126.454 42.2302 126.578 42.5893 126.29C42.9485 126.003 42.9603 125.411 42.6157 124.971C42.2712 124.531 41.7009 124.408 41.3417 124.695C40.9825 124.982 40.9708 125.575 41.3153 126.015Z" fill="#FFBE9D"/>
<path fill-rule="evenodd" clip-rule="evenodd" d="M68.5279 137.367L67.1644 136.883C67.0364 136.843 66.9176 136.779 66.8151 136.692C66.7125 136.606 66.6283 136.5 66.5673 136.381C66.5064 136.262 66.4699 136.131 66.4602 135.998C66.4504 135.864 66.4676 135.73 66.5105 135.603L68.0148 131.687C68.2098 131.18 68.8226 130.925 69.3768 131.121L70.7403 131.605C70.8683 131.644 70.9871 131.709 71.0897 131.795C71.1922 131.882 71.2765 131.988 71.3374 132.107C71.3984 132.226 71.4348 132.356 71.4445 132.49C71.4543 132.624 71.4372 132.758 71.3942 132.885L69.8899 136.801C69.695 137.308 69.0821 137.563 68.5279 137.367Z" fill="#1A3461"/>
<path fill-rule="evenodd" clip-rule="evenodd" d="M68.6056 136.616L67.4958 136.223C67.3916 136.191 67.2949 136.138 67.2115 136.068C67.1281 135.998 67.0596 135.912 67.0101 135.815C66.9606 135.718 66.9311 135.612 66.9233 135.503C66.9156 135.394 66.9298 135.285 66.965 135.182L68.1878 131.996C68.2777 131.792 68.4431 131.629 68.6496 131.544C68.8561 131.458 69.0877 131.455 69.2962 131.536L70.406 131.929C70.5101 131.961 70.6067 132.014 70.69 132.084C70.7734 132.155 70.8418 132.241 70.8912 132.338C70.9407 132.435 70.9702 132.541 70.978 132.65C70.9859 132.759 70.9718 132.868 70.9368 132.971L69.714 136.156C69.6238 136.36 69.4584 136.522 69.252 136.608C69.0456 136.694 68.8141 136.696 68.6056 136.616Z" fill="white"/>
<path d="M157.089 206.301C157.573 206.301 157.909 205.861 157.832 205.345L142.067 96.3725C141.992 95.8535 141.535 95.4356 141.05 95.443C140.566 95.443 140.23 95.8828 140.306 96.4003L156.073 205.373C156.142 205.892 156.604 206.31 157.089 206.301Z" fill="#4A2A1A"/>
<path d="M140.249 206.566C140.733 206.566 141.069 206.126 140.992 205.609L125.226 96.6364C125.151 96.1174 124.694 95.6996 124.208 95.7069C123.724 95.7157 123.39 96.1467 123.465 96.6643L139.232 205.637C139.306 206.156 139.764 206.576 140.249 206.566Z" fill="#4A2A1A"/>
<path d="M127.296 114.01L142.81 113.771C143.055 113.757 143.283 113.648 143.448 113.467C143.612 113.286 143.699 113.048 143.69 112.803C143.696 112.561 143.606 112.326 143.439 112.15C143.272 111.975 143.042 111.872 142.8 111.865L127.286 112.108C127.042 112.122 126.813 112.232 126.648 112.413C126.484 112.594 126.397 112.832 126.406 113.076C126.402 113.317 126.493 113.551 126.66 113.725C126.826 113.9 127.055 114.002 127.296 114.01Z" fill="#4A2A1A"/>
<path d="M129.165 126.466L144.68 126.223C144.924 126.209 145.153 126.099 145.318 125.918C145.482 125.737 145.569 125.498 145.559 125.254C145.562 125.133 145.541 125.013 145.498 124.9C145.454 124.788 145.389 124.685 145.306 124.598C145.222 124.51 145.123 124.44 145.012 124.392C144.902 124.343 144.783 124.316 144.662 124.314L129.148 124.557C128.903 124.571 128.674 124.68 128.51 124.861C128.345 125.042 128.258 125.28 128.268 125.525C128.265 125.646 128.286 125.766 128.329 125.878C128.373 125.991 128.438 126.094 128.522 126.181C128.605 126.269 128.705 126.339 128.815 126.388C128.926 126.437 129.044 126.463 129.165 126.466Z" fill="#4A2A1A"/>
<path d="M131.103 137.509L146.612 137.266C146.856 137.252 147.085 137.142 147.25 136.961C147.414 136.78 147.501 136.542 147.492 136.298C147.495 136.177 147.474 136.057 147.43 135.944C147.387 135.832 147.321 135.729 147.238 135.641C147.155 135.554 147.055 135.484 146.945 135.435C146.834 135.386 146.715 135.36 146.594 135.357L131.086 135.6C130.842 135.615 130.613 135.724 130.449 135.906C130.284 136.087 130.197 136.325 130.206 136.569C130.201 136.813 130.292 137.049 130.46 137.225C130.629 137.401 130.86 137.503 131.103 137.509Z" fill="#4A2A1A"/>
<path d="M132.172 148.883L147.687 148.64C147.931 148.626 148.16 148.516 148.324 148.336C148.489 148.155 148.576 147.916 148.566 147.672C148.572 147.428 148.48 147.192 148.312 147.015C148.143 146.839 147.912 146.737 147.668 146.731L132.153 146.974C131.909 146.989 131.68 147.098 131.516 147.279C131.351 147.46 131.264 147.699 131.273 147.943C131.271 148.064 131.292 148.184 131.335 148.297C131.379 148.41 131.444 148.513 131.528 148.6C131.611 148.687 131.711 148.757 131.822 148.806C131.932 148.854 132.051 148.881 132.172 148.883Z" fill="#4A2A1A"/>
<path d="M134.037 160.375L149.552 160.131C149.796 160.116 150.024 160.007 150.189 159.826C150.353 159.645 150.44 159.406 150.431 159.162C150.434 159.041 150.413 158.921 150.369 158.809C150.326 158.696 150.26 158.593 150.177 158.506C150.093 158.419 149.993 158.349 149.883 158.3C149.772 158.251 149.653 158.225 149.533 158.222L134.018 158.466C133.774 158.48 133.545 158.589 133.381 158.77C133.216 158.951 133.129 159.189 133.138 159.433C133.136 159.554 133.156 159.674 133.2 159.787C133.244 159.9 133.309 160.003 133.393 160.09C133.476 160.178 133.576 160.248 133.687 160.297C133.797 160.345 133.916 160.372 134.037 160.375Z" fill="#4A2A1A"/>
<path d="M135.572 171.938L151.088 171.694C151.332 171.68 151.561 171.571 151.726 171.39C151.89 171.209 151.977 170.971 151.968 170.727C151.973 170.483 151.882 170.247 151.713 170.07C151.545 169.894 151.313 169.791 151.069 169.786L135.555 170.029C135.31 170.043 135.081 170.153 134.917 170.334C134.753 170.515 134.666 170.754 134.675 170.998C134.672 171.119 134.693 171.239 134.736 171.351C134.78 171.464 134.845 171.567 134.929 171.654C135.012 171.741 135.112 171.811 135.222 171.86C135.333 171.909 135.452 171.935 135.572 171.938Z" fill="#4A2A1A"/>
<path d="M146.631 118.756C143.775 116.211 142.805 115.104 139.994 112.481L138.62 113.591C141.794 119.653 142.739 121.905 145.804 123.194C148.958 121.602 147.159 119.489 146.631 118.756Z" fill="#C95836"/>
<path d="M140.425 112.907L139.186 111.425C138.939 111.129 138.593 110.931 138.213 110.868L136.672 110.613C136.547 110.592 136.42 110.602 136.3 110.642C136.18 110.681 136.072 110.749 135.984 110.839C135.896 110.93 135.832 111.04 135.796 111.161C135.76 111.282 135.754 111.41 135.779 111.534L137.44 113.308C137.838 113.715 138.367 113.969 138.934 114.025L139.922 114.142L140.425 112.907Z" fill="#FFBE9D"/>
<path fill-rule="evenodd" clip-rule="evenodd" d="M135.801 121.27L144.727 120.844C144.878 120.836 145.019 120.769 145.121 120.657C145.223 120.545 145.276 120.398 145.269 120.247C145.262 120.096 145.194 119.954 145.083 119.853C144.971 119.752 144.823 119.699 144.672 119.706L135.747 120.131C135.596 120.139 135.454 120.206 135.353 120.318C135.251 120.43 135.198 120.577 135.204 120.728C135.211 120.879 135.278 121.021 135.39 121.122C135.502 121.224 135.65 121.277 135.801 121.27Z" fill="#D1D1D1"/>
<path fill-rule="evenodd" clip-rule="evenodd" d="M139.831 128.286L148.757 127.86C148.908 127.852 149.049 127.785 149.151 127.674C149.252 127.562 149.306 127.415 149.299 127.264C149.292 127.113 149.225 126.971 149.113 126.869C149.001 126.768 148.854 126.714 148.703 126.721L139.777 127.148C139.626 127.155 139.484 127.222 139.383 127.334C139.281 127.446 139.228 127.594 139.235 127.745C139.242 127.895 139.309 128.037 139.421 128.138C139.533 128.24 139.68 128.293 139.831 128.286Z" fill="#D1D1D1"/>
<path fill-rule="evenodd" clip-rule="evenodd" d="M165.572 176.288C165.572 176.288 164.194 160.502 159.949 155.469L156.221 140.001L147.539 138.221L163.484 177.107L165.572 176.288Z" fill="#E3633D"/>
<path fill-rule="evenodd" clip-rule="evenodd" d="M163.445 176.55L162.729 178.937C162.628 179.466 161.391 181.333 161.391 181.333C161.473 181.822 161.915 181.758 162.216 181.589L166.916 177.631C166.916 177.631 167.853 176.498 165.343 175.017C164.751 176.134 164.147 177.072 163.445 176.55Z" fill="#4A2A1A"/>
<path fill-rule="evenodd" clip-rule="evenodd" d="M147.587 141.646L153.493 158.36L160.09 174.898L166.874 172.674C166.874 172.674 165.585 169.846 165.452 168.862C165.318 167.878 163.593 158.655 160.614 155.127L156.025 136.288L147.587 141.646Z" fill="#217B56"/>
<path fill-rule="evenodd" clip-rule="evenodd" d="M149.354 178.933C149.354 178.933 151.431 163.343 148.376 157.36L149.695 136.283L139.99 137.424L147.138 179.16L149.354 178.933Z" fill="#E3633D"/>
<path fill-rule="evenodd" clip-rule="evenodd" d="M143.369 106.989C143.369 106.989 143.854 108.873 144.249 110.433C144.301 110.636 144.406 110.822 144.553 110.971C144.7 111.12 144.885 111.228 145.087 111.283C145.289 111.336 145.501 111.335 145.702 111.279C145.902 111.223 146.084 111.115 146.229 110.965L146.509 110.672C146.709 110.464 146.845 110.204 146.904 109.922C146.962 109.64 146.94 109.348 146.839 109.078L145.361 105.092L143.363 106.987L143.369 106.989Z" fill="#FFBE9D"/>
<path fill-rule="evenodd" clip-rule="evenodd" d="M143.498 107.833L143.875 108.942L144.69 107.691L143.498 107.833Z" fill="#873B24"/>
<path fill-rule="evenodd" clip-rule="evenodd" d="M146.511 105.055C146.566 104.931 146.596 104.798 146.599 104.663C146.602 104.528 146.578 104.393 146.529 104.267C146.481 104.141 146.407 104.026 146.314 103.929C146.22 103.831 146.108 103.753 145.985 103.699L144.187 102.913C143.67 102.687 143.145 102.97 142.841 103.451C142.483 104.02 142.03 105.326 141.815 106.314C141.693 106.87 141.89 107.519 142.401 107.744C142.953 107.986 144.835 108.175 145.426 107.247C145.876 106.54 146.174 105.825 146.505 105.048L146.511 105.055Z" fill="#FFBE9D"/>
<path fill-rule="evenodd" clip-rule="evenodd" d="M145.203 107.789C145.584 107.795 145.962 107.716 146.309 107.559C146.656 107.401 146.964 107.169 147.211 106.879C147.457 106.588 147.637 106.246 147.736 105.878C147.835 105.51 147.851 105.125 147.784 104.75C147.736 104.451 147.636 104.162 147.49 103.897C146.662 102.545 145.326 101.579 143.357 102.53C143.357 102.53 142.992 105.064 145.199 107.789H145.203Z" fill="#4A2A1A"/>
<path fill-rule="evenodd" clip-rule="evenodd" d="M144.667 106.417C144.347 106.757 143.863 106.817 143.585 106.552C143.306 106.286 143.341 105.794 143.661 105.454C143.98 105.114 144.464 105.053 144.741 105.319C145.018 105.584 144.986 106.075 144.667 106.417Z" fill="#FFBE9D"/>
<path fill-rule="evenodd" clip-rule="evenodd" d="M153.399 125.723L140.13 127.374C138.002 128.272 139.532 139.518 139.532 139.518L148.239 140.708C152.412 140.443 156.426 141.168 156.413 136.928C156.387 129.149 153.399 125.723 153.399 125.723Z" fill="#217B56"/>
<path fill-rule="evenodd" clip-rule="evenodd" d="M141.275 110.408L146.07 109.255L147.408 109.148L151.028 109.941C152.836 110.582 154.547 120.654 154.547 120.654C156.39 124.871 157.004 129.184 157.316 133.713C150.452 137.244 140.995 136.971 138.333 133.946C137.631 124.89 138.472 116.627 141.275 110.408Z" fill="#BDD7CC"/>
<path fill-rule="evenodd" clip-rule="evenodd" d="M147.14 178.472L145.146 179.878C144.753 180.226 142.654 180.905 142.654 180.905C142.431 181.336 142.828 181.564 143.17 181.623L149.304 181.507C149.304 181.507 150.73 181.214 149.572 178.487C148.442 178.971 147.399 179.321 147.14 178.472Z" fill="#4A2A1A"/>
<path fill-rule="evenodd" clip-rule="evenodd" d="M139.532 139.518L141.863 158.414L145.074 176.1L152.185 175.76C152.185 175.76 151.477 172.693 151.541 171.705C151.606 170.717 151.499 160.948 149.27 156.761L149.417 139.699L139.532 139.518Z" fill="#217B56"/>
<path d="M137.246 119.116C134.389 116.57 133.42 115.463 130.609 112.84L129.236 113.95C132.41 120.012 133.354 122.264 136.42 123.553C139.566 121.959 137.774 119.849 137.246 119.116Z" fill="#FFBE9D"/>
<path d="M131.04 113.265L129.802 111.783C129.554 111.487 129.209 111.29 128.828 111.227L127.286 110.972C127.161 110.951 127.034 110.961 126.914 111.001C126.794 111.04 126.686 111.108 126.598 111.199C126.511 111.289 126.446 111.4 126.411 111.521C126.375 111.642 126.37 111.769 126.394 111.893L128.055 113.667C128.454 114.073 128.983 114.327 129.549 114.384L130.538 114.5L131.04 113.265Z" fill="#FFBE9D"/>
<path fill-rule="evenodd" clip-rule="evenodd" d="M142.346 112.041C142.289 111.754 142.146 111.492 141.935 111.289C141.725 111.086 141.457 110.953 141.168 110.907C140.879 110.862 140.584 110.906 140.321 111.033C140.058 111.161 139.84 111.366 139.698 111.622C137.541 115.489 134.434 121.455 135.32 122.251L135.89 122.793C136.064 122.958 136.272 123.08 136.5 123.152C136.727 123.224 136.968 123.243 137.204 123.207C137.44 123.172 137.665 123.083 137.862 122.947C138.058 122.812 138.222 122.633 138.339 122.425L142.08 115.791L142.838 114.517L142.346 112.041Z" fill="#FFBE9D"/>
<path fill-rule="evenodd" clip-rule="evenodd" d="M155.555 111.255C155.503 111.089 155.486 110.913 155.506 110.74C155.526 110.567 155.582 110.399 155.671 110.249C157.045 107.741 153.34 106.574 152.223 105.958C151.05 105.314 152.066 103.301 149.695 102.837C147.325 102.372 146.741 103.658 146.628 103.637C146.461 103.605 147.191 105.8 147.191 105.8C147.191 105.8 148.373 106.018 148.647 108.292C148.921 110.566 148.473 111.825 150.104 113.424C151.736 115.022 157.004 112.001 157.004 112.001C156.073 112.116 155.702 111.674 155.555 111.255Z" fill="#4A2A1A"/>
<path fill-rule="evenodd" clip-rule="evenodd" d="M144.51 113.038L140.278 121.38L136.211 116.599C136.211 116.599 138.988 110.582 141.275 110.408L144.51 113.038Z" fill="#BDD7CC"/>
<path d="M143.656 114.724L141.042 119.879" stroke="#217B56" stroke-width="0.523405" stroke-linecap="round" stroke-linejoin="round"/>
<path d="M136.839 183.362L152.353 183.118C152.598 183.104 152.826 182.995 152.991 182.814C153.155 182.633 153.242 182.395 153.233 182.151C153.239 181.907 153.147 181.671 152.978 181.494C152.81 181.318 152.578 181.215 152.334 181.21L136.82 181.453C136.575 181.467 136.346 181.576 136.182 181.758C136.017 181.939 135.931 182.177 135.94 182.422C135.937 182.543 135.958 182.663 136.002 182.776C136.045 182.888 136.111 182.991 136.194 183.079C136.278 183.166 136.378 183.236 136.488 183.284C136.599 183.333 136.718 183.359 136.839 183.362Z" fill="#4A2A1A"/>
<path d="M5.75304 115.436C7.29676 114.838 8.06377 113.102 7.4662 111.559C6.86863 110.015 5.13277 109.248 3.58904 109.845C2.04532 110.443 1.27831 112.179 1.87588 113.723C2.47345 115.266 4.20931 116.033 5.75304 115.436Z" stroke="#4D9578" stroke-width="0.552667" stroke-linecap="round" stroke-linejoin="round"/>
<path d="M100.931 22.7845C102.468 22.1573 103.206 20.403 102.578 18.8661C101.951 17.3293 100.197 16.5918 98.66 17.219C97.1231 17.8462 96.3857 19.6005 97.0129 21.1374C97.6401 22.6742 99.3944 23.4117 100.931 22.7845Z" stroke="#4D9578" stroke-width="0.554194" stroke-linecap="round" stroke-linejoin="round"/>
<path d="M194.642 161.996C194.908 160.357 193.795 158.813 192.157 158.547C190.518 158.281 188.974 159.394 188.708 161.033C188.442 162.671 189.555 164.215 191.194 164.481C192.832 164.747 194.376 163.634 194.642 161.996Z" stroke="#4D9578" stroke-width="0.554194" stroke-linecap="round" stroke-linejoin="round"/>
<path d="M152.383 140.497L149.711 140.712C149.431 140.736 149.167 140.859 148.97 141.06V141.06C148.86 141.171 148.773 141.303 148.715 141.447C148.657 141.592 148.628 141.747 148.631 141.903L148.7 146.204" stroke="#066132" stroke-width="0.586448" stroke-linecap="round" stroke-linejoin="round"/>
</g>
<defs>
<clipPath id="clip0_107_1990">
<rect width="208" height="210.284" fill="white"/>
</clipPath>
</defs>
</svg>
