<svg width="32" height="32" viewBox="0 0 32 32" fill="none" xmlns="http://www.w3.org/2000/svg">
<path d="M31.8127 8.1702L27.9368 4.05983C27.8726 3.99167 27.7951 3.93737 27.709 3.90025C27.623 3.86314 27.5303 3.84399 27.4367 3.84399C27.343 3.84399 27.2503 3.86314 27.1643 3.90025C27.0783 3.93737 27.0007 3.99167 26.9365 4.05983L23.0607 8.1702C22.9404 8.29777 22.8734 8.46649 22.8734 8.64183V26.8446C22.8734 28.5837 24.379 29.9985 26.2296 29.9985H28.6437C30.4943 29.9985 32 28.5837 32 26.8446V8.64183C32 8.46645 31.933 8.29777 31.8127 8.1702ZM24.2485 22.9051V9.9842H26.7492V22.9051H24.2485ZM28.1242 9.9842H30.625V22.9051H28.1242V9.9842ZM27.4367 5.53358L30.3368 8.6092H24.5367L27.4367 5.53358ZM28.6437 28.6236H26.2297C25.1372 28.6236 24.2485 27.8256 24.2485 26.8447V24.2802H30.625V26.8447C30.625 27.8255 29.7362 28.6236 28.6437 28.6236Z" fill="#2C3E50"/>
<path d="M19.7487 3.84391H16.624V2.68884C16.624 2.30916 16.3162 2.00134 15.9365 2.00134C15.5568 2.00134 15.249 2.30916 15.249 2.68884V3.84391H12.8118V2.68884C12.8118 2.30916 12.5039 2.00134 12.1243 2.00134C11.7446 2.00134 11.4368 2.30916 11.4368 2.68884V3.84391H8.9995V2.68884C8.9995 2.30916 8.69169 2.00134 8.312 2.00134C7.93231 2.00134 7.6245 2.30916 7.6245 2.68884V3.84391H5.18725V2.68884C5.18725 2.30916 4.87944 2.00134 4.49975 2.00134C4.12006 2.00134 3.81225 2.30916 3.81225 2.68884V3.84391H0.6875C0.307813 3.84391 0 4.15172 0 4.53141V29.311C0 29.6907 0.307813 29.9985 0.6875 29.9985H19.7487C20.1284 29.9985 20.4362 29.6907 20.4362 29.311V4.53141C20.4362 4.15172 20.1284 3.84391 19.7487 3.84391ZM19.0612 28.6235H1.375V5.21891H3.81225V6.43759C3.81225 6.81728 4.12006 7.12509 4.49975 7.12509C4.87944 7.12509 5.18725 6.81728 5.18725 6.43759V5.21891H7.6245V6.43759C7.6245 6.81728 7.93231 7.12509 8.312 7.12509C8.69169 7.12509 8.9995 6.81728 8.9995 6.43759V5.21891H11.4368V6.43759C11.4368 6.81728 11.7446 7.12509 12.1243 7.12509C12.5039 7.12509 12.8118 6.81728 12.8118 6.43759V5.21891H15.249V6.43759C15.249 6.81728 15.5568 7.12509 15.9365 7.12509C16.3162 7.12509 16.624 6.81728 16.624 6.43759V5.21891H19.0612V28.6235Z" fill="#2C3E50"/>
<path d="M15.9369 12.0811H4.49976C4.12007 12.0811 3.81226 11.7732 3.81226 11.3936C3.81226 11.0139 4.12007 10.7061 4.49976 10.7061H15.9369C16.3166 10.7061 16.6244 11.0139 16.6244 11.3936C16.6244 11.7732 16.3166 12.0811 15.9369 12.0811Z" fill="#EB2227"/>
<path d="M12.2513 15.8933H4.49976C4.12007 15.8933 3.81226 15.5855 3.81226 15.2058C3.81226 14.8261 4.12007 14.5183 4.49976 14.5183H12.2513C12.6309 14.5183 12.9388 14.8261 12.9388 15.2058C12.9388 15.5855 12.631 15.8933 12.2513 15.8933Z" fill="#2C3E50"/>
<path d="M14.5983 19.7056H4.49976C4.12007 19.7056 3.81226 19.3978 3.81226 19.0181C3.81226 18.6384 4.12007 18.3306 4.49976 18.3306H14.5983C14.9779 18.3306 15.2858 18.6384 15.2858 19.0181C15.2858 19.3978 14.9779 19.7056 14.5983 19.7056Z" fill="#EB2227"/>
<path d="M15.9369 23.5178H4.49976C4.12007 23.5178 3.81226 23.21 3.81226 22.8303C3.81226 22.4506 4.12007 22.1428 4.49976 22.1428H15.9369C16.3166 22.1428 16.6244 22.4506 16.6244 22.8303C16.6244 23.21 16.3166 23.5178 15.9369 23.5178Z" fill="#2C3E50"/>
</svg>
