<svg width="32" height="32" viewBox="0 0 32 32" fill="none" xmlns="http://www.w3.org/2000/svg">
<g clip-path="url(#clip0_836_4381)">
<path d="M30.5499 3.87575H23.3575C23.3294 1.73394 21.5793 0 19.431 0C17.2826 0 15.5325 1.73394 15.5043 3.87575H1.44995C1.07026 3.87575 0.762451 4.18356 0.762451 4.56325V31.3125C0.762451 31.6922 1.07026 32 1.44995 32H22.6101C22.7875 32.0003 22.9619 31.9284 23.0893 31.8054L30.8909 24.2209C31.0978 24.1024 31.2374 23.8799 31.2374 23.6245V4.56325C31.2375 4.18356 30.9296 3.87575 30.5499 3.87575ZM19.431 1.375C21.0182 1.35706 22.2597 2.87375 21.9349 4.42469C21.7031 5.59531 20.6686 6.48081 19.431 6.48081C18.0233 6.48081 16.878 5.33556 16.878 3.92794C16.878 2.52025 18.0233 1.375 19.431 1.375ZM21.9226 30.625H2.13745V5.25075H15.7329C15.8508 5.57866 16.0119 5.88938 16.212 6.17469L13.576 8.81069C12.9562 9.4805 13.8792 10.4024 14.5483 9.783L17.1843 7.147C19.2614 8.64962 22.3183 7.63281 23.1291 5.25075H29.8624V22.937H22.6101C22.2304 22.937 21.9226 23.2448 21.9226 23.6245V30.625ZM28.8248 24.312L23.2976 29.6853V24.312H28.8248Z" fill="#2C3E50"/>
<path d="M26.7377 14.8448H5.26208C4.8824 14.8448 4.57458 14.537 4.57458 14.1573C4.57458 13.7777 4.8824 13.4698 5.26208 13.4698H26.7376C27.1173 13.4698 27.4251 13.7777 27.4251 14.1573C27.4251 14.537 27.1174 14.8448 26.7377 14.8448Z" fill="#EB2227"/>
<path d="M23.0208 18.6571H5.26208C4.8824 18.6571 4.57458 18.3493 4.57458 17.9696C4.57458 17.5899 4.8824 17.2821 5.26208 17.2821H23.0208C23.4005 17.2821 23.7083 17.5899 23.7083 17.9696C23.7083 18.3493 23.4005 18.6571 23.0208 18.6571Z" fill="#2C3E50"/>
<path d="M14.6638 22.4694H5.26208C4.8824 22.4694 4.57458 22.1615 4.57458 21.7819C4.57458 21.4022 4.8824 21.0944 5.26208 21.0944H14.6637C15.0434 21.0944 15.3512 21.4022 15.3512 21.7819C15.3512 22.1615 15.0435 22.4694 14.6638 22.4694Z" fill="#EB2227"/>
</g>
<defs>
<clipPath id="clip0_836_4381">
<rect width="32" height="32" fill="white"/>
</clipPath>
</defs>
</svg>
