<svg width="24" height="24" viewBox="0 0 24 24" fill="none" xmlns="http://www.w3.org/2000/svg">
<path fill-rule="evenodd" clip-rule="evenodd" d="M0.234375 7.875C0.234375 7.59023 0.465228 7.35938 0.75 7.35938H14.25C14.5348 7.35938 14.7656 7.59023 14.7656 7.875V13.5C14.7656 13.7848 14.5348 14.0156 14.25 14.0156C13.9652 14.0156 13.7344 13.7848 13.7344 13.5V8.39062H1.26562V17.25C1.26562 17.5348 1.03477 17.7656 0.75 17.7656C0.465228 17.7656 0.234375 17.5348 0.234375 17.25V7.875Z" fill="#217B56"/>
<path fill-rule="evenodd" clip-rule="evenodd" d="M4.48692 1.48691C5.28589 0.687941 6.3686 0.237638 7.49851 0.234375L7.5 0.749998L7.50149 0.234375C8.6314 0.237638 9.71411 0.687941 10.5131 1.48691C11.3121 2.28589 11.7624 3.36859 11.7656 4.49851L11.7656 4.5L11.7656 7.875C11.7656 8.15977 11.5348 8.39062 11.25 8.39062C10.9652 8.39062 10.7344 8.15977 10.7344 7.875V4.50077C10.7317 3.64359 10.39 2.82226 9.78388 2.21612C9.17792 1.61016 8.35691 1.26849 7.5 1.26563C6.64309 1.26849 5.82208 1.61016 5.21612 2.21612C4.60998 2.82226 4.26829 3.64359 4.26562 4.50077V7.875C4.26562 8.15977 4.03477 8.39062 3.75 8.39062C3.46523 8.39062 3.23438 8.15977 3.23438 7.875V4.5L3.23438 4.49851C3.23764 3.36859 3.68794 2.28589 4.48692 1.48691Z" fill="#217B56"/>
<path fill-rule="evenodd" clip-rule="evenodd" d="M7.5 11.0156C6.95634 11.0156 6.51562 11.4563 6.51562 12C6.51562 12.5437 6.95634 12.9844 7.5 12.9844C8.04366 12.9844 8.48438 12.5437 8.48438 12C8.48438 11.4563 8.04366 11.0156 7.5 11.0156ZM5.48438 12C5.48438 10.8868 6.3868 9.98438 7.5 9.98438C8.6132 9.98438 9.51562 10.8868 9.51562 12C9.51562 13.1132 8.6132 14.0156 7.5 14.0156C6.3868 14.0156 5.48438 13.1132 5.48438 12Z" fill="#217B56"/>
<path fill-rule="evenodd" clip-rule="evenodd" d="M10.875 18.8906C10.5385 18.8906 10.2656 19.1635 10.2656 19.5C10.2656 19.8365 10.5385 20.1094 10.875 20.1094C11.2115 20.1094 11.4844 19.8365 11.4844 19.5C11.4844 19.1635 11.2115 18.8906 10.875 18.8906ZM9.23438 19.5C9.23438 18.5939 9.96891 17.8594 10.875 17.8594C11.7811 17.8594 12.5156 18.5939 12.5156 19.5C12.5156 20.4061 11.7811 21.1406 10.875 21.1406C9.96891 21.1406 9.23438 20.4061 9.23438 19.5Z" fill="#217B56"/>
<path fill-rule="evenodd" clip-rule="evenodd" d="M15.375 18.8906C15.0385 18.8906 14.7656 19.1635 14.7656 19.5C14.7656 19.8365 15.0385 20.1094 15.375 20.1094C15.7115 20.1094 15.9844 19.8365 15.9844 19.5C15.9844 19.1635 15.7115 18.8906 15.375 18.8906ZM13.7344 19.5C13.7344 18.5939 14.4689 17.8594 15.375 17.8594C16.2811 17.8594 17.0156 18.5939 17.0156 19.5C17.0156 20.4061 16.2811 21.1406 15.375 21.1406C14.4689 21.1406 13.7344 20.4061 13.7344 19.5Z" fill="#217B56"/>
<path fill-rule="evenodd" clip-rule="evenodd" d="M19.875 18.8906C19.5385 18.8906 19.2656 19.1635 19.2656 19.5C19.2656 19.8365 19.5385 20.1094 19.875 20.1094C20.2115 20.1094 20.4844 19.8365 20.4844 19.5C20.4844 19.1635 20.2115 18.8906 19.875 18.8906ZM18.2344 19.5C18.2344 18.5939 18.9689 17.8594 19.875 17.8594C20.7811 17.8594 21.5156 18.5939 21.5156 19.5C21.5156 20.4061 20.7811 21.1406 19.875 21.1406C18.9689 21.1406 18.2344 20.4061 18.2344 19.5Z" fill="#217B56"/>
<path fill-rule="evenodd" clip-rule="evenodd" d="M6.375 18.8906C6.03845 18.8906 5.76562 19.1635 5.76562 19.5C5.76562 19.8365 6.03845 20.1094 6.375 20.1094C6.71155 20.1094 6.98438 19.8365 6.98438 19.5C6.98438 19.1635 6.71155 18.8906 6.375 18.8906ZM4.73438 19.5C4.73438 18.5939 5.46891 17.8594 6.375 17.8594C7.28109 17.8594 8.01562 18.5939 8.01562 19.5C8.01562 20.4061 7.28109 21.1406 6.375 21.1406C5.46891 21.1406 4.73438 20.4061 4.73438 19.5Z" fill="#217B56"/>
<path fill-rule="evenodd" clip-rule="evenodd" d="M4.875 16.2656C4.12424 16.2656 3.51562 16.8742 3.51562 17.625V21.375C3.51562 22.1258 4.12424 22.7344 4.875 22.7344H21.375C22.1258 22.7344 22.7344 22.1258 22.7344 21.375V17.625C22.7344 16.8742 22.1258 16.2656 21.375 16.2656H4.875ZM2.48438 17.625C2.48438 16.3047 3.55469 15.2344 4.875 15.2344H21.375C22.6953 15.2344 23.7656 16.3047 23.7656 17.625V21.375C23.7656 22.6953 22.6953 23.7656 21.375 23.7656H4.875C3.55469 23.7656 2.48438 22.6953 2.48438 21.375V17.625Z" fill="#217B56"/>
</svg>
