<svg width="16" height="16" viewBox="0 0 16 16" fill="none" xmlns="http://www.w3.org/2000/svg">
<path d="M10.4305 9.7055L9.24875 11.1805C7.41892 10.1053 5.89372 8.58098 4.8175 6.75175L6.29475 5.57C6.46783 5.43138 6.59014 5.23935 6.64261 5.0239C6.69507 4.80844 6.67472 4.58168 6.58475 4.379L5.23825 1.34675C5.14169 1.12927 4.97104 0.953137 4.75671 0.849752C4.54239 0.746367 4.29832 0.722446 4.068 0.782252L1.5045 1.44725C1.26537 1.50978 1.05746 1.65783 0.920164 1.86337C0.782865 2.0689 0.725702 2.31765 0.7595 2.5625C1.20935 5.7658 2.68982 8.73558 4.97712 11.0229C7.26443 13.3102 10.2342 14.7907 13.4375 15.2405C13.6824 15.2744 13.9311 15.2172 14.1367 15.0799C14.3422 14.9426 14.4903 14.7347 14.5527 14.4955L15.2177 11.9323C15.2774 11.7019 15.2535 11.4579 15.1502 11.2436C15.0468 11.0293 14.8709 10.8585 14.6535 10.7618L11.6217 9.41525C11.419 9.32516 11.1922 9.30477 10.9766 9.35729C10.7611 9.4098 10.5691 9.53225 10.4305 9.7055V9.7055Z" fill="#2E3A5B"/>
</svg>
