<svg width="64" height="64" viewBox="0 0 64 64" fill="none" xmlns="http://www.w3.org/2000/svg">
<path d="M41.387 38.5869L36.823 44.2869C29.7554 40.1335 23.8649 34.245 19.709 27.1789L25.414 22.6149C26.0826 22.0796 26.555 21.3379 26.7577 20.5057C26.9603 19.6736 26.8816 18.7977 26.534 18.0149L21.334 6.30494C20.9611 5.46488 20.302 4.78455 19.4741 4.38528C18.6463 3.98601 17.7035 3.89375 16.814 4.12494L6.91399 6.69294C5.99043 6.93435 5.18749 7.5061 4.65726 8.29988C4.12703 9.09366 3.90634 10.0543 4.03699 10.9999C5.77427 23.3712 11.4919 34.8407 20.3256 43.6743C29.1593 52.508 40.6287 58.2257 53 59.9629C53.9456 60.0936 54.9063 59.8729 55.7 59.3427C56.4938 58.8124 57.0656 58.0095 57.307 57.0859L59.875 47.1859C60.1056 46.2965 60.0132 45.3541 59.6142 44.5264C59.2152 43.6987 58.5355 43.0395 57.696 42.6659L45.987 37.4659C45.2042 37.1179 44.3281 37.0391 43.4958 37.242C42.6635 37.4448 41.9219 37.9178 41.387 38.5869V38.5869Z" stroke="#2E3A5B" stroke-width="2.75" stroke-linecap="round" stroke-linejoin="round"/>
</svg>
