<svg width="16" height="16" viewBox="0 0 16 16" fill="none" xmlns="http://www.w3.org/2000/svg">
<path d="M15 7.25C14.9337 7.25 14.8701 7.22366 14.8232 7.17678C14.7763 7.12989 14.75 7.0663 14.75 7C14.7483 5.47553 14.1419 4.014 13.064 2.93604C11.986 1.85807 10.5245 1.25172 9 1.25C8.9337 1.25 8.87011 1.22366 8.82322 1.17678C8.77634 1.12989 8.75 1.0663 8.75 1C8.75 0.933696 8.77634 0.870107 8.82322 0.823223C8.87011 0.776339 8.9337 0.75 9 0.75C10.657 0.751853 12.2457 1.41093 13.4174 2.58263C14.5891 3.75433 15.2481 5.34297 15.25 7C15.25 7.0663 15.2237 7.12989 15.1768 7.17678C15.1299 7.22366 15.0663 7.25 15 7.25Z" fill="#228EEB"/>
<path d="M12 7.25C11.9337 7.25 11.8701 7.22366 11.8232 7.17678C11.7763 7.12989 11.75 7.0663 11.75 7C11.7491 6.27092 11.4591 5.57195 10.9436 5.05641C10.4281 4.54087 9.72908 4.25086 9 4.25C8.9337 4.25 8.87011 4.22366 8.82322 4.17678C8.77634 4.12989 8.75 4.0663 8.75 4C8.75 3.9337 8.77634 3.87011 8.82322 3.82322C8.87011 3.77634 8.9337 3.75 9 3.75C9.86165 3.75099 10.6877 4.09372 11.297 4.703C11.9063 5.31228 12.249 6.13835 12.25 7C12.25 7.0663 12.2237 7.12989 12.1768 7.17678C12.1299 7.22366 12.0663 7.25 12 7.25Z" fill="#228EEB"/>
<path d="M10.4305 9.70555L9.24874 11.1805C7.41891 10.1054 5.89371 8.58102 4.81749 6.7518L6.29474 5.57005C6.46782 5.43142 6.59013 5.2394 6.64259 5.02394C6.69506 4.80849 6.67471 4.58172 6.58474 4.37905L5.23824 1.3468C5.14168 1.12931 4.97103 0.953182 4.7567 0.849797C4.54238 0.746413 4.29831 0.722491 4.06799 0.782297L1.50449 1.4473C1.26536 1.50983 1.05745 1.65788 0.920154 1.86341C0.782854 2.06895 0.725691 2.31769 0.759489 2.56255C1.20934 5.76585 2.68981 8.73562 4.97711 11.0229C7.26441 13.3102 10.2342 14.7907 13.4375 15.2405C13.6824 15.2744 13.9311 15.2173 14.1367 15.08C14.3422 14.9426 14.4903 14.7347 14.5527 14.4955L15.2177 11.9323C15.2774 11.702 15.2535 11.458 15.1502 11.2436C15.0468 11.0293 14.8708 10.8586 14.6535 10.7618L11.6217 9.4153C11.419 9.3252 11.1922 9.30482 10.9766 9.35733C10.7611 9.40985 10.569 9.5323 10.4305 9.70555Z" fill="#228EEB"/>
</svg>
