<svg width="16" height="16" viewBox="0 0 16 16" fill="none" xmlns="http://www.w3.org/2000/svg">
<path d="M10.3467 9.64675L9.20574 11.0718C7.43885 10.0334 5.96621 8.56127 4.92724 6.79475L6.35349 5.65375C6.52063 5.51991 6.63875 5.3345 6.68941 5.12645C6.74006 4.91841 6.7204 4.69944 6.63349 4.50375L5.33349 1.57625C5.24027 1.36623 5.07549 1.19615 4.86852 1.09634C4.66156 0.996518 4.42588 0.973452 4.20349 1.03125L1.72849 1.67325C1.4976 1.7336 1.29686 1.87654 1.16431 2.07499C1.03175 2.27343 0.976576 2.5136 1.00924 2.75C1.44356 5.84283 2.87297 8.71018 5.08139 10.9186C7.28981 13.127 10.1572 14.5564 13.25 14.9908C13.4864 15.0234 13.7266 14.9682 13.925 14.8357C14.1234 14.7031 14.2664 14.5024 14.3267 14.2715L14.9687 11.7965C15.0264 11.5741 15.0033 11.3385 14.9035 11.1316C14.8038 10.9247 14.6339 10.7599 14.424 10.6665L11.4967 9.3665C11.301 9.27949 11.082 9.25979 10.8739 9.3105C10.6659 9.36121 10.4805 9.47946 10.3467 9.64675V9.64675Z" stroke="white" stroke-width="0.6875" stroke-linecap="round" stroke-linejoin="round"/>
<path d="M8.75 1.25C10.3413 1.25 11.8674 1.88214 12.9926 3.00736C14.1179 4.13258 14.75 5.6587 14.75 7.25" stroke="white" stroke-width="0.6875" stroke-linecap="round" stroke-linejoin="round"/>
<path d="M11.75 7.25C11.75 6.45435 11.4339 5.69129 10.8713 5.12868C10.3087 4.56607 9.54565 4.25 8.75 4.25" stroke="white" stroke-width="0.6875" stroke-linecap="round" stroke-linejoin="round"/>
</svg>
