<svg width="46" height="46" viewBox="0 0 46 46" fill="none" xmlns="http://www.w3.org/2000/svg">
<path d="M44.4762 20.8201L36.1984 19.1418C36.0653 19.0807 1.15332 19.1445 0.988012 19.1221C0.44248 19.1222 0 19.5646 0 20.1104V29.2617C0 29.8075 0.44248 30.2499 0.988281 30.2499H4.57592C5.23034 35.2185 12.2472 35.2148 12.8998 30.2499H31.5041C32.1586 35.2185 39.1754 35.2148 39.828 30.2499H44.0983C45.1468 30.2499 45.9999 29.3969 45.9999 28.3483V22.6838C46 21.783 45.3591 20.9992 44.4762 20.8201ZM8.73784 32.0199C7.5201 32.0199 6.52939 31.0292 6.52939 29.8115C6.65068 26.8817 10.8255 26.8826 10.9463 29.8115C10.9463 31.0292 9.95568 32.0199 8.73784 32.0199ZM8.73784 25.6265C6.97322 25.6265 5.46133 26.7248 4.84698 28.2733H1.97656V21.0986H17.4071V28.2733H12.6288C12.0144 26.7248 10.5025 25.6265 8.73784 25.6265ZM31.7752 28.2734H19.3837V25.6743H22.073C22.6188 25.6743 23.0613 25.2318 23.0613 24.686C23.0613 24.1402 22.6188 23.6977 22.073 23.6977H19.3837V21.0987H35.0138V25.6777C33.5353 25.91 32.3124 26.9195 31.7752 28.2734ZM35.6661 32.0199C34.4483 32.0199 33.4576 31.0292 33.4576 29.8115C33.5789 26.8817 37.7537 26.8825 37.8745 29.8115C37.8746 31.0292 36.8838 32.0199 35.6661 32.0199ZM39.557 28.2734C39.1038 27.131 38.162 26.2345 36.9904 25.8425V21.3192L43.3516 22.6089H42.6781C41.3671 22.6609 41.3676 24.5336 42.6781 24.5855H44.0234V28.2734H39.557Z" fill="#217B56"/>
<path d="M19.3837 14.0016H24.92V19.1221H26.8965V14.0553C29.0312 14.2999 30.9754 15.3719 32.3325 17.0801L33.9548 19.1221H36.0022C36.136 19.1165 36.4184 19.1899 36.5519 19.2134L33.8803 15.8507C31.9487 13.4194 29.0601 12.025 25.955 12.025H18.3955C17.8497 12.025 17.4072 12.4675 17.4072 13.0133V19.1221H19.3838V14.0016H19.3837Z" fill="#EB2227"/>
</svg>
