<svg width="46" height="61" viewBox="0 0 46 61" fill="none" xmlns="http://www.w3.org/2000/svg">
<path fill-rule="evenodd" clip-rule="evenodd" d="M0 23.095C0 8.639 11.694 0 23 0C34.306 0 46 8.639 46 23.095C46 38.24 24.617 59.797 23.707 60.707C23.52 60.895 23.265 61 23 61C22.735 61 22.48 60.895 22.293 60.707C21.383 59.797 0 38.24 0 23.095Z" fill="#EB2227"/>
<path d="M16.6719 29.7816H29.3281V31.1879H16.6719V29.7816Z" fill="white"/>
<path d="M16.6719 32.5941H29.3281V34.0004H16.6719V32.5941Z" fill="white"/>
<path d="M16.6719 24.1566H29.3281V25.5629H16.6719V24.1566Z" fill="white"/>
<path d="M23.3728 10.1071C23.1449 9.96429 22.8551 9.96429 22.6272 10.1071L11.3303 17.1852C11.125 17.3136 11 17.5389 11 17.7813V19.1875C11 19.5761 11.3145 19.8906 11.7031 19.8906H12.4062V32.5938H11.7031C11.3145 32.5938 11 32.9082 11 33.2969C11 33.6855 11.3145 34 11.7031 34H15.2656V23.4531C15.2656 23.0645 15.5801 22.75 15.9687 22.75H30.0312C30.4199 22.75 30.7344 23.0645 30.7344 23.4531V34H34.2969C34.6855 34 35 33.6855 35 33.2969C35 32.9082 34.6855 32.5938 34.2969 32.5938H33.5937V19.8906H34.2969C34.6855 19.8906 35 19.5761 35 19.1875V17.7813C35 17.5389 34.875 17.3136 34.6697 17.1852L23.3728 10.1071ZM17.375 19.8906H15.9687C15.5801 19.8906 15.2656 19.5761 15.2656 19.1875C15.2656 18.7989 15.5801 18.4844 15.9687 18.4844H17.375C17.7636 18.4844 18.0781 18.7989 18.0781 19.1875C18.0781 19.5761 17.7636 19.8906 17.375 19.8906ZM21.5937 19.8906H20.1875C19.7989 19.8906 19.4844 19.5761 19.4844 19.1875C19.4844 18.7989 19.7989 18.4844 20.1875 18.4844H21.5937C21.9824 18.4844 22.2969 18.7989 22.2969 19.1875C22.2969 19.5761 21.9824 19.8906 21.5937 19.8906ZM25.8125 19.8906H24.4062C24.0176 19.8906 23.7031 19.5761 23.7031 19.1875C23.7031 18.7989 24.0176 18.4844 24.4062 18.4844H25.8125C26.2011 18.4844 26.5156 18.7989 26.5156 19.1875C26.5156 19.5761 26.2011 19.8906 25.8125 19.8906ZM30.0312 19.8906H28.625C28.2364 19.8906 27.9219 19.5761 27.9219 19.1875C27.9219 18.7989 28.2364 18.4844 28.625 18.4844H30.0312C30.4199 18.4844 30.7344 18.7989 30.7344 19.1875C30.7344 19.5761 30.4199 19.8906 30.0312 19.8906Z" fill="white"/>
<path d="M16.6719 26.9691H29.3281V28.3754H16.6719V26.9691Z" fill="white"/>
</svg>
