<svg width="46" height="61" viewBox="0 0 46 61" fill="none" xmlns="http://www.w3.org/2000/svg">
<path fill-rule="evenodd" clip-rule="evenodd" d="M0 23.095C0 8.639 11.694 0 23 0C34.306 0 46 8.639 46 23.095C46 38.24 24.617 59.797 23.707 60.707C23.52 60.895 23.265 61 23 61C22.735 61 22.48 60.895 22.293 60.707C21.383 59.797 0 38.24 0 23.095Z" fill="#EB2227"/>
<path d="M14.1429 18.7371H11.7031C11.3148 18.7371 11 19.0519 11 19.4402V34H14.1429V18.7371Z" fill="white"/>
<path d="M34.2969 18.7371H31.8571V34H35V19.4402C35 19.0519 34.6852 18.7371 34.2969 18.7371Z" fill="white"/>
<path d="M24.2227 29.3018V34H21.7773V29.3018H24.2227Z" fill="white"/>
<path d="M29.7478 12.888H27.5341V10.7031C27.5341 10.3148 27.2193 10 26.831 10H19.2686C18.8803 10 18.5654 10.3148 18.5654 10.7031V12.888H16.2523C15.8639 12.888 15.5491 13.2028 15.5491 13.5911V34H20.3711V28.5987C20.3711 28.2104 20.6859 27.8956 21.0742 27.8956H24.9258C25.3141 27.8956 25.6289 28.2104 25.6289 28.5987V34H30.4509V13.5911C30.4509 13.2028 30.1361 12.888 29.7478 12.888ZM19.8161 25.4657H19.0589C18.6706 25.4657 18.3558 25.1509 18.3558 24.7626C18.3558 24.3743 18.6706 24.0595 19.0589 24.0595H19.8161C20.2044 24.0595 20.5192 24.3743 20.5192 24.7626C20.5192 25.1509 20.2044 25.4657 19.8161 25.4657ZM19.8161 22.6532H19.0589C18.6706 22.6532 18.3558 22.3384 18.3558 21.9501C18.3558 21.5618 18.6706 21.247 19.0589 21.247H19.8161C20.2044 21.247 20.5192 21.5618 20.5192 21.9501C20.5192 22.3384 20.2044 22.6532 19.8161 22.6532ZM19.8161 19.8407H19.0589C18.6706 19.8407 18.3558 19.5259 18.3558 19.1376C18.3558 18.7493 18.6706 18.4345 19.0589 18.4345H19.8161C20.2044 18.4345 20.5192 18.7493 20.5192 19.1376C20.5192 19.5259 20.2044 19.8407 19.8161 19.8407ZM23.3786 25.4657H22.6214C22.2331 25.4657 21.9183 25.1509 21.9183 24.7626C21.9183 24.3743 22.2331 24.0595 22.6214 24.0595H23.3786C23.7669 24.0595 24.0817 24.3743 24.0817 24.7626C24.0817 25.1509 23.7669 25.4657 23.3786 25.4657ZM23.3786 22.6532H22.6214C22.2331 22.6532 21.9183 22.3384 21.9183 21.9501C21.9183 21.5618 22.2331 21.247 22.6214 21.247H23.3786C23.7669 21.247 24.0817 21.5618 24.0817 21.9501C24.0817 22.3384 23.7669 22.6532 23.3786 22.6532ZM23.3786 19.8407H22.6214C22.2331 19.8407 21.9183 19.5259 21.9183 19.1376C21.9183 18.7493 22.2331 18.4345 22.6214 18.4345H23.3786C23.7669 18.4345 24.0817 18.7493 24.0817 19.1376C24.0817 19.5259 23.7669 19.8407 23.3786 19.8407ZM24.4171 15.6358H23.7031V16.3498C23.7031 16.7381 23.3883 17.0529 23 17.0529C22.6117 17.0529 22.2969 16.7381 22.2969 16.3498V15.6358H21.5829C21.1946 15.6358 20.8798 15.321 20.8798 14.9327C20.8798 14.5444 21.1946 14.2296 21.5829 14.2296H22.2969V13.5156C22.2969 13.1273 22.6117 12.8125 23 12.8125C23.3883 12.8125 23.7031 13.1273 23.7031 13.5156V14.2296H24.4171C24.8054 14.2296 25.1202 14.5444 25.1202 14.9327C25.1202 15.321 24.8054 15.6358 24.4171 15.6358ZM26.9411 25.4657H26.1839C25.7956 25.4657 25.4808 25.1509 25.4808 24.7626C25.4808 24.3743 25.7956 24.0595 26.1839 24.0595H26.9411C27.3294 24.0595 27.6442 24.3743 27.6442 24.7626C27.6442 25.1509 27.3294 25.4657 26.9411 25.4657ZM26.9411 22.6532H26.1839C25.7956 22.6532 25.4808 22.3384 25.4808 21.9501C25.4808 21.5618 25.7956 21.247 26.1839 21.247H26.9411C27.3294 21.247 27.6442 21.5618 27.6442 21.9501C27.6442 22.3384 27.3294 22.6532 26.9411 22.6532ZM26.9411 19.8407H26.1839C25.7956 19.8407 25.4808 19.5259 25.4808 19.1376C25.4808 18.7493 25.7956 18.4345 26.1839 18.4345H26.9411C27.3294 18.4345 27.6442 18.7493 27.6442 19.1376C27.6442 19.5259 27.3294 19.8407 26.9411 19.8407Z" fill="white"/>
</svg>
