<svg width="46" height="61" viewBox="0 0 46 61" fill="none" xmlns="http://www.w3.org/2000/svg">
<path fill-rule="evenodd" clip-rule="evenodd" d="M0 23.095C0 8.639 11.694 0 23 0C34.306 0 46 8.639 46 23.095C46 38.24 24.617 59.797 23.707 60.707C23.52 60.895 23.265 61 23 61C22.735 61 22.48 60.895 22.293 60.707C21.383 59.797 0 38.24 0 23.095Z" fill="#EB2227"/>
<path d="M25.2969 23.4423V19.7039L13.3225 11.9406L11.0275 15.4804L12.5 16.4351V18.3249C11.6289 18.619 11 19.4439 11 20.413C11 21.6278 11.9883 22.6161 13.2031 22.6161C13.829 22.6161 14.4275 22.3485 14.8451 21.8819L13.7972 20.9441C13.646 21.1131 13.4295 21.2099 13.2031 21.2099C12.7637 21.2099 12.4062 20.8524 12.4062 20.413C12.4062 19.9736 12.7637 19.6161 13.2031 19.6161H13.9062V17.3468L19.7969 21.1659V23.4423H25.2969Z" fill="white"/>
<path d="M35 23.7592L32.9573 22.3486H26.7031V24.8486H11V29.9951H12.9304C12.9303 29.9892 12.9299 29.9834 12.9299 29.9776C12.9299 28.0542 14.4947 26.4894 16.4181 26.4894C18.3415 26.4894 19.9062 28.0542 19.9062 29.9776C19.9062 29.9834 19.9058 29.9892 19.9058 29.9951H25.0942C25.0941 29.9892 25.0938 29.9834 25.0938 29.9776C25.0938 28.0542 26.6585 26.4894 28.5819 26.4894C30.5053 26.4894 32.0701 28.0542 32.0701 29.9776C32.0701 29.9834 32.0697 29.9892 32.0696 29.9951H35V23.7592Z" fill="white"/>
<path d="M26.7031 20.9423H32.2648L31.0269 16.7099H26.7031V20.9423Z" fill="white"/>
<path d="M17.2288 31.8837C18.2854 31.4318 18.7757 30.2089 18.3238 29.1523C17.872 28.0956 16.6491 27.6053 15.5924 28.0572C14.5357 28.5091 14.0454 29.732 14.4973 30.7886C14.9492 31.8453 16.1721 32.3356 17.2288 31.8837Z" fill="white"/>
<path d="M29.2576 31.9531C30.3465 31.5828 30.929 30.4 30.5588 29.3111C30.1885 28.2223 29.0057 27.6397 27.9168 28.0099C26.828 28.3802 26.2454 29.563 26.6157 30.6519C26.9859 31.7407 28.1687 32.3233 29.2576 31.9531Z" fill="white"/>
</svg>
