<svg width="46" height="61" viewBox="0 0 46 61" fill="none" xmlns="http://www.w3.org/2000/svg">
<path fill-rule="evenodd" clip-rule="evenodd" d="M0 23.095C0 8.639 11.694 0 23 0C34.306 0 46 8.639 46 23.095C46 38.24 24.617 59.797 23.707 60.707C23.52 60.895 23.265 61 23 61C22.735 61 22.48 60.895 22.293 60.707C21.383 59.797 0 38.24 0 23.095Z" fill="#EB2227"/>
<g clip-path="url(#clip0_49_2527)">
<path d="M23 18.2844C23.8581 18.2844 24.5563 17.5862 24.5563 16.7281C24.478 14.6664 21.5217 14.6669 21.4438 16.7281C21.4438 17.5862 22.1419 18.2844 23 18.2844Z" fill="white"/>
<path d="M22.527 27.039C22.7952 27.2829 23.2047 27.2829 23.473 27.039C23.5363 26.9815 25.0398 25.6083 26.5644 23.6763C28.6637 21.0164 29.7281 18.6787 29.7281 16.7281C29.7281 13.0182 26.7099 10 23 10C19.2901 10 16.2719 13.0182 16.2719 16.7281C16.0581 19.9793 20.3953 25.1758 22.527 27.039ZM23 13.7656C24.6335 13.7656 25.9625 15.0946 25.9625 16.7281C25.8136 20.6529 20.1858 20.6518 20.0375 16.7281C20.0375 15.0946 21.3665 13.7656 23 13.7656Z" fill="white"/>
<path d="M11.3887 20.9513C11.1505 21.0704 11 21.3138 11 21.5801V33.2969C11 33.5405 11.1262 33.7668 11.3335 33.895C11.5408 34.0231 11.7996 34.0347 12.0176 33.9257L17.3516 31.2588V23.2235C16.3288 21.7418 15.6192 20.3411 15.2274 19.0319L11.3887 20.9513Z" fill="white"/>
<path d="M24.4192 28.0793C23.6472 28.8061 22.3529 28.8061 21.5811 28.0796C21.5197 28.0237 20.1964 26.814 18.7578 25.0746V31.9619L22.6856 33.9258C22.7845 33.9753 22.8923 34 23 34C23.1078 34 23.2155 33.9753 23.3144 33.9258L27.2422 31.9619V25.0747C25.8025 26.8156 24.4801 28.024 24.4192 28.0793Z" fill="white"/>
<path d="M34.6113 20.9513L30.7726 19.0319C30.3808 20.3411 29.6712 21.7419 28.6484 23.2236V31.2588L33.9824 33.9258C34.2004 34.0348 34.4593 34.0231 34.6665 33.895C34.8739 33.7669 35 33.5406 35 33.2969V21.5801C35 21.3138 34.8495 21.0704 34.6113 20.9513Z" fill="white"/>
</g>
<defs>
<clipPath id="clip0_49_2527">
<rect width="24" height="24" fill="white" transform="translate(11 10)"/>
</clipPath>
</defs>
</svg>
