<svg width="46" height="61" viewBox="0 0 46 61" fill="none" xmlns="http://www.w3.org/2000/svg">
<path fill-rule="evenodd" clip-rule="evenodd" d="M0 23.095C0 8.639 11.694 0 23 0C34.306 0 46 8.639 46 23.095C46 38.24 24.617 59.797 23.707 60.707C23.52 60.895 23.265 61 23 61C22.735 61 22.48 60.895 22.293 60.707C21.383 59.797 0 38.24 0 23.095Z" fill="#EB2227"/>
<g clip-path="url(#clip0_3801_7788)">
<path d="M32.8535 13.1465L30.8535 11.1465C30.6581 10.9511 30.3417 10.9511 30.1464 11.1465C29.9511 11.3418 29.9511 11.6582 30.1464 11.8535L31.7929 13.5L30.1464 15.1465C30.0527 15.2402 30 15.3671 30 15.5V17C30 18.103 30.897 19 32 19V27.5C32 27.7758 31.7759 28 31.5 28C31.2241 28 30.9999 27.7759 30.9999 27.5V26.5C30.9999 25.6728 30.3271 25 29.4999 25H29V12C29 10.897 28.103 10 27 10H17C15.897 10 15 10.897 15 12V30C13.8969 30 12.9999 30.897 12.9999 32V33.5C12.9999 33.7764 13.2236 34 13.5 34H30.5C30.7763 34 31 33.7764 31 33.5V32C31 30.897 30.103 30 29 30V26H29.5C29.7758 26 30 26.2241 30 26.5V27.5C30 28.3272 30.6728 29 31.5 29C32.3272 29 33 28.3272 33 27.5V13.5C33 13.3672 32.9472 13.2402 32.8535 13.1465ZM27 18.5093C27 18.7856 26.7763 19.0093 26.4999 19.0093H17.4999C17.2236 19.0093 16.9999 18.7856 16.9999 18.5093V12.5C16.9999 12.2236 17.2236 12 17.4999 12H26.4999C26.7763 12 27 12.2236 27 12.5V18.5093Z" fill="white"/>
</g>
<defs>
<clipPath id="clip0_3801_7788">
<rect width="24" height="24" fill="white" transform="translate(11 10)"/>
</clipPath>
</defs>
</svg>
