<svg width="46" height="61" viewBox="0 0 46 61" fill="none" xmlns="http://www.w3.org/2000/svg">
<path fill-rule="evenodd" clip-rule="evenodd" d="M0 23.095C0 8.639 11.694 0 23 0C34.306 0 46 8.639 46 23.095C46 38.24 24.617 59.797 23.707 60.707C23.52 60.895 23.265 61 23 61C22.735 61 22.48 60.895 22.293 60.707C21.383 59.797 0 38.24 0 23.095Z" fill="#EB2227"/>
<path d="M20.4688 14.3125H17.2581C16.4563 14.3125 15.6714 14.5901 15.0479 15.0941C14.4244 15.5982 13.9885 16.3075 13.8205 17.0915L13.1604 20.1719H20.4688V14.3125Z" fill="white"/>
<path d="M31.0156 14.3125H25.8594C25.4711 14.3125 25.1562 13.9977 25.1562 13.6094V12.2031C25.1562 11.8148 25.4711 11.5 25.8594 11.5H31.0156C31.4039 11.5 31.7188 11.8148 31.7188 12.2031V13.6094C31.7188 13.9977 31.4039 14.3125 31.0156 14.3125Z" fill="white"/>
<path d="M33.125 12.9062V13.6094C33.125 14.7744 32.1806 15.7188 31.0156 15.7188H25.8594C24.6944 15.7188 23.75 14.7744 23.75 13.6094V12.9062H22.5781C22.1898 12.9062 21.875 13.2211 21.875 13.6094V31.8906C21.875 32.2789 22.1898 32.5938 22.5781 32.5938H34.2969C34.6852 32.5938 35 32.2789 35 31.8906V13.6094C35 13.2211 34.6852 12.9062 34.2969 12.9062H33.125ZM26.7969 28.3181H24.4531C24.0648 28.3181 23.75 28.0033 23.75 27.615C23.75 27.2267 24.0648 26.9119 24.4531 26.9119H26.7969C27.1852 26.9119 27.5 27.2267 27.5 27.615C27.5 28.0033 27.1852 28.3181 26.7969 28.3181ZM26.7969 24.0994H24.4531C24.0648 24.0994 23.75 23.7846 23.75 23.3963C23.75 23.008 24.0648 22.6931 24.4531 22.6931H26.7969C27.1852 22.6931 27.5 23.008 27.5 23.3963C27.5 23.7846 27.1852 24.0994 26.7969 24.0994ZM26.7969 19.8806H24.4531C24.0648 19.8806 23.75 19.5658 23.75 19.1775C23.75 18.7892 24.0648 18.4744 24.4531 18.4744H26.7969C27.1852 18.4744 27.5 18.7892 27.5 19.1775C27.5 19.5658 27.1852 19.8806 26.7969 19.8806ZM32.919 27.1178L30.9303 29.1066C30.7985 29.2384 30.6196 29.3125 30.4331 29.3125C30.2466 29.3125 30.0678 29.2385 29.936 29.1066L28.7759 27.9465C28.5013 27.6719 28.5013 27.2267 28.7759 26.9521C29.0505 26.6775 29.4957 26.6775 29.7703 26.9521L30.4332 27.615L31.9247 26.1235C32.1993 25.849 32.6445 25.849 32.9191 26.1235C33.1937 26.398 33.1937 26.8432 32.919 27.1178ZM32.919 22.8991L30.9303 24.8878C30.7985 25.0197 30.6196 25.0938 30.4331 25.0938C30.2466 25.0938 30.0678 25.0197 29.936 24.8878L28.7759 23.7277C28.5013 23.4531 28.5013 23.008 28.7759 22.7334C29.0505 22.4588 29.4957 22.4587 29.7703 22.7334L30.4332 23.3963L31.9247 21.9047C32.1993 21.6302 32.6445 21.6302 32.9191 21.9047C33.1937 22.1792 33.1937 22.6245 32.919 22.8991ZM32.919 18.6803L30.9303 20.6691C30.7985 20.8009 30.6196 20.875 30.4331 20.875C30.2466 20.875 30.0678 20.801 29.936 20.6691L28.7759 19.509C28.5013 19.2344 28.5013 18.7892 28.7759 18.5146C29.0505 18.24 29.4957 18.24 29.7703 18.5146L30.4332 19.1775L31.9247 17.686C32.1993 17.4115 32.6445 17.4115 32.9191 17.686C33.1937 17.9605 33.1937 18.4057 32.919 18.6803Z" fill="white"/>
<path d="M13.1094 25.2109H11V26.1484H14.2577C14.1488 25.6143 13.6753 25.2109 13.1094 25.2109Z" fill="white"/>
<path d="M13.9531 32.5938H15.5469C16.3235 32.5938 16.9531 31.9642 16.9531 31.1875H12.5469C12.5469 31.9642 13.1765 32.5938 13.9531 32.5938Z" fill="white"/>
<path d="M13.2266 21.5781C11.9968 21.5781 11 22.575 11 23.8047H13.1094C14.5332 23.8047 15.6875 24.9589 15.6875 26.3828V26.8516C15.6875 27.2399 15.3727 27.5547 14.9844 27.5547H11V29.0781C11 29.4664 11.3148 29.7812 11.7031 29.7812H17.5625V26.7344C17.5625 25.5694 18.5069 24.625 19.6719 24.625H20.4688V21.5781H13.2266Z" fill="white"/>
<path d="M19.6719 26.0312C19.2842 26.0312 18.9688 26.3467 18.9688 26.7344V29.7812H20.4688V26.0312H19.6719Z" fill="white"/>
</svg>
