<svg width="32" height="32" viewBox="0 0 32 32" fill="none" xmlns="http://www.w3.org/2000/svg">
<path fill-rule="evenodd" clip-rule="evenodd" d="M23.4331 13.0058C23.7946 12.8899 24.1817 13.089 24.2977 13.4506L28.2357 25.7331C28.4145 26.2909 28.4361 26.8872 28.2982 27.4564C28.1604 28.0257 27.8683 28.546 27.4541 28.9601C27.4541 28.9601 27.4541 28.9601 27.4541 28.9601L25.9281 30.4861C25.7787 30.6356 25.5688 30.708 25.359 30.6825C25.1492 30.6569 24.9627 30.5363 24.8535 30.3554L18.0235 19.0464C17.8272 18.7214 17.9315 18.2988 18.2566 18.1025C18.5816 17.9062 19.0042 18.0106 19.2005 18.3356L25.5766 28.8931L26.4818 27.9879C26.7174 27.7524 26.8835 27.4565 26.9619 27.1328C27.0403 26.8091 27.028 26.47 26.9263 26.1529L22.9883 13.8704C22.8724 13.5088 23.0715 13.1217 23.4331 13.0058Z" fill="#EB2227"/>
<path fill-rule="evenodd" clip-rule="evenodd" d="M4.54355 3.70175C5.11283 3.56387 5.70909 3.58552 6.26687 3.76432L6.26691 3.76433L18.5494 7.70233C18.911 7.81826 19.1101 8.20534 18.9942 8.56691C18.8783 8.92847 18.4912 9.12761 18.1296 9.01168L5.84714 5.07369C5.84713 5.07369 5.84712 5.07369 5.8471 5.07368C5.52995 4.97202 5.19091 4.95972 4.86722 5.03811C4.54351 5.11651 4.24767 5.28259 4.01217 5.51812L4.01214 5.51814L3.10692 6.42337L13.6644 12.7995C13.9894 12.9958 14.0938 13.4184 13.8975 13.7434C13.7012 14.0684 13.2786 14.1728 12.9536 13.9765L1.64458 7.14651C1.46366 7.03724 1.34306 6.85083 1.31754 6.64102C1.29201 6.43121 1.36442 6.22132 1.51387 6.07187L3.03984 4.5459C3.03985 4.54589 3.03986 4.54588 3.03987 4.54587C3.45402 4.13169 3.97429 3.83962 4.54355 3.70175Z" fill="#EB2227"/>
<path fill-rule="evenodd" clip-rule="evenodd" d="M2.00146 19.3125C2.05466 19.3126 2.10778 19.3162 2.16048 19.3232L7.50668 19.9192C7.88404 19.9613 8.15584 20.3013 8.11378 20.6787C8.07171 21.056 7.73169 21.3278 7.35433 21.2858L2.51839 20.7466L5.55522 23.735C5.82585 24.0013 5.82936 24.4366 5.56304 24.7072C5.29672 24.9778 4.86144 24.9813 4.5908 24.715L1.18345 21.3621C1.0133 21.2009 0.894587 20.9929 0.842396 20.7642C0.789298 20.5316 0.807517 20.2884 0.894677 20.0662C0.981836 19.8441 1.13389 19.6534 1.33103 19.5189C1.52817 19.3845 1.76123 19.3126 1.99985 19.3125L2.00146 19.3125ZM1.66001 20.8665L1.99891 20.5221L1.99895 20.5013L1.66001 20.8665ZM2.14166 20.377L2.00013 20.5209L2.00012 20.5L2.12767 20.3626C2.1326 20.3671 2.13727 20.372 2.14166 20.377Z" fill="#217B56"/>
<path fill-rule="evenodd" clip-rule="evenodd" d="M11.3238 23.8922C11.7012 23.8502 12.0412 24.122 12.0833 24.4993L12.6796 29.8478C12.6857 29.901 12.6883 29.9545 12.6875 30.0079C12.6859 30.2438 12.614 30.474 12.4811 30.669C12.3466 30.8661 12.1559 31.0182 11.9338 31.1053C11.7116 31.1925 11.4684 31.2107 11.2358 31.1576C11.0071 31.1054 10.7991 30.9867 10.6379 30.8166L7.28496 27.4092C7.01865 27.1386 7.02215 26.7033 7.29279 26.437C7.56342 26.1707 7.99871 26.1742 8.26503 26.4448L11.2555 29.4838L10.7167 24.6517C10.6747 24.2743 10.9465 23.9343 11.3238 23.8922ZM11.623 29.8583C11.628 29.8627 11.6328 29.8674 11.6374 29.8723L11.1335 30.34L11.623 29.8583Z" fill="#217B56"/>
<path fill-rule="evenodd" clip-rule="evenodd" d="M28.2827 1.33942C28.8975 1.38716 29.5565 1.55523 30.0031 2.00185C30.4497 2.4484 30.6176 3.1074 30.6653 3.72203C30.7148 4.361 30.6447 5.08314 30.4953 5.7928C30.202 7.1862 29.5624 8.71288 28.6961 9.57912L16.7032 21.5721C15.802 22.4735 14.8004 23.2685 13.7181 23.9418L5.64464 28.9642C5.6032 28.99 5.55913 29.0113 5.51317 29.0278C5.2886 29.1081 5.05502 29.1607 4.81766 29.1841C4.79636 29.1863 4.77497 29.1874 4.75356 29.1875C4.4265 29.1892 4.10438 29.1078 3.81739 28.9509C3.5304 28.794 3.28796 28.5669 3.1128 28.2907C2.93764 28.0145 2.83551 27.6983 2.81598 27.3718C2.79645 27.0453 2.86016 26.7192 3.00114 26.4241C3.01215 26.4011 3.02443 26.3787 3.03792 26.357L8.0662 18.2839C8.06628 18.2838 8.06635 18.2836 8.06642 18.2835C8.73833 17.2033 9.53155 16.2035 10.4306 15.3036L10.4308 15.3034L22.4253 3.30836L22.4254 3.30835C23.2916 2.4421 24.8183 1.80249 26.2118 1.50922C26.9215 1.35986 27.6437 1.28979 28.2827 1.33942ZM23.3976 4.28061C23.9959 3.68236 25.2252 3.12197 26.495 2.85475L23.3976 4.28061ZM23.3976 4.28062L11.4034 16.2754C11.4033 16.2755 11.4032 16.2755 11.4031 16.2756C10.5781 17.1014 9.8503 18.0189 9.23377 19.0101L9.23355 19.0105L4.22936 27.0449C4.19753 27.1223 4.18351 27.2059 4.18852 27.2897C4.19415 27.3837 4.22356 27.4747 4.27399 27.5543C4.32442 27.6338 4.39423 27.6992 4.47686 27.7444C4.5511 27.785 4.6335 27.808 4.71775 27.8119C4.80889 27.8008 4.89883 27.7815 4.98649 27.7543L12.9918 22.7742L12.9919 22.7742C13.9849 22.1565 14.9039 21.427 15.7308 20.5999L15.7309 20.5998L27.7239 8.60685C28.3221 8.00859 28.8825 6.77927 29.1498 5.50955C29.2807 4.88764 29.3311 4.30143 29.2944 3.82833C29.2558 3.33088 29.1308 3.07407 29.0309 2.97412C28.9307 2.87399 28.6737 2.74893 28.1763 2.71029C27.7031 2.67355 27.1169 2.72386 26.495 2.85475" fill="#217B56"/>
</svg>
