<svg width="24" height="24" viewBox="0 0 24 24" fill="none" xmlns="http://www.w3.org/2000/svg">
    <path fill-rule="evenodd" clip-rule="evenodd" d="M3.98438 13.5C3.98438 13.2152 4.21523 12.9844 4.5 12.9844H19.5C19.7848 12.9844 20.0156 13.2152 20.0156 13.5C20.0156 13.7848 19.7848 14.0156 19.5 14.0156H4.5C4.21523 14.0156 3.98438 13.7848 3.98438 13.5Z" fill="#217B56"/>
    <path fill-rule="evenodd" clip-rule="evenodd" d="M11.8149 1.01874C11.934 0.972919 12.066 0.972919 12.1851 1.01874L21.9351 4.76874C22.0708 4.82094 22.1782 4.92799 22.2307 5.06355C22.2833 5.1991 22.2762 5.35055 22.2112 5.48059L20.0156 9.87172V15.75C20.0156 20.177 16.427 23.7656 12 23.7656C7.57298 23.7656 3.98438 20.177 3.98438 15.75V9.87172L1.78881 5.48059C1.72379 5.35055 1.71669 5.1991 1.76927 5.06355C1.82184 4.92799 1.9292 4.82094 2.0649 4.76874L11.8149 1.01874ZM2.96518 5.52738L4.96119 9.51941C4.99699 9.591 5.01563 9.66995 5.01563 9.75V15.75C5.01563 19.6075 8.14252 22.7344 12 22.7344C15.8575 22.7344 18.9844 19.6075 18.9844 15.75V9.75C18.9844 9.66995 19.003 9.591 19.0388 9.51941L21.0348 5.52738L12 2.05245L2.96518 5.52738Z" fill="#217B56"/>
    <path fill-rule="evenodd" clip-rule="evenodd" d="M12 6.51562C11.0421 6.51562 10.2656 7.29213 10.2656 8.25C10.2656 9.20787 11.0421 9.98438 12 9.98438C12.9579 9.98438 13.7344 9.20787 13.7344 8.25C13.7344 7.29213 12.9579 6.51562 12 6.51562ZM9.23438 8.25C9.23438 6.72259 10.4726 5.48438 12 5.48438C13.5274 5.48438 14.7656 6.72259 14.7656 8.25C14.7656 9.77741 13.5274 11.0156 12 11.0156C10.4726 11.0156 9.23438 9.77741 9.23438 8.25Z" fill="#EB2227"/>
    <path fill-rule="evenodd" clip-rule="evenodd" d="M3.98438 9.75C3.98438 9.46523 4.21523 9.23438 4.5 9.23438H6.75C7.03477 9.23438 7.26562 9.46523 7.26562 9.75C7.26562 10.0348 7.03477 10.2656 6.75 10.2656H4.5C4.21523 10.2656 3.98438 10.0348 3.98438 9.75Z" fill="#217B56"/>
    <path fill-rule="evenodd" clip-rule="evenodd" d="M16.7344 9.75C16.7344 9.46523 16.9652 9.23438 17.25 9.23438H19.5C19.7848 9.23438 20.0156 9.46523 20.0156 9.75C20.0156 10.0348 19.7848 10.2656 19.5 10.2656H17.25C16.9652 10.2656 16.7344 10.0348 16.7344 9.75Z" fill="#217B56"/>
</svg>
