<svg width="32" height="32" viewBox="0 0 32 32" fill="none" xmlns="http://www.w3.org/2000/svg">
<path fill-rule="evenodd" clip-rule="evenodd" d="M16.3333 0.833027C16.4427 0.805658 16.5573 0.805658 16.6667 0.833027L28.6667 3.83303C28.9728 3.90954 29.1875 4.18453 29.1875 4.5V18.5C29.1875 21.8649 27.8508 25.092 25.4714 27.4714C23.092 29.8508 19.8649 31.1875 16.5 31.1875C13.1351 31.1875 9.90795 29.8508 7.52858 27.4714C5.14922 25.092 3.8125 21.8649 3.8125 18.5V4.5C3.8125 4.18453 4.0272 3.90954 4.33326 3.83303L16.3333 0.833027ZM5.1875 5.03678V18.5C5.1875 21.5003 6.37935 24.3776 8.50085 26.4991C10.6224 28.6207 13.4997 29.8125 16.5 29.8125C19.5003 29.8125 22.3776 28.6207 24.4991 26.4991C26.6207 24.3776 27.8125 21.5003 27.8125 18.5V5.03678L16.5 2.20866L5.1875 5.03678Z" fill="#217B56"/>
<path fill-rule="evenodd" clip-rule="evenodd" d="M22.9861 11.5139C23.2546 11.7823 23.2546 12.2177 22.9861 12.4861L14.9861 20.4861C14.7177 20.7546 14.2823 20.7546 14.0139 20.4861L10.0139 16.4861C9.74538 16.2177 9.74538 15.7823 10.0139 15.5139C10.2823 15.2454 10.7177 15.2454 10.9861 15.5139L14.5 19.0277L22.0139 11.5139C22.2823 11.2454 22.7177 11.2454 22.9861 11.5139Z" fill="#EB2227"/>
</svg>
