<svg width="32" height="32" viewBox="0 0 32 32" fill="none" xmlns="http://www.w3.org/2000/svg">
<g clip-path="url(#clip0_836_4366)">
<path d="M17.0283 20.4998H7.10474C6.72505 20.4998 6.41724 20.1919 6.41724 19.8123C6.41724 19.4326 6.72505 19.1248 7.10474 19.1248H17.0283C17.408 19.1248 17.7158 19.4326 17.7158 19.8123C17.7158 20.1919 17.408 20.4998 17.0283 20.4998Z" fill="#EB2227"/>
<path d="M17.0283 12.8752H7.10474C6.72505 12.8752 6.41724 12.5674 6.41724 12.1877C6.41724 11.8081 6.72505 11.5002 7.10474 11.5002H17.0283C17.408 11.5002 17.7158 11.8081 17.7158 12.1877C17.7158 12.5674 17.408 12.8752 17.0283 12.8752Z" fill="#EB2227"/>
<path d="M24.312 7.71669V4.49975C24.312 2.09613 22.4177 0.126625 20.0435 0.005875C19.9665 0.00196883 19.8894 9.86797e-06 19.8123 0L3.2926 0C2.91291 0 2.6051 0.307813 2.6051 0.6875V26.8127H0.751099C0.371411 26.8127 0.0635986 27.1206 0.0635986 27.5002V29.4064C0.0635986 30.8365 1.22704 32 2.65722 32H21.7184C23.1485 32 24.312 30.8365 24.312 29.4064V24.2833C28.5748 23.9326 31.9365 20.3517 31.9365 16C31.9365 11.6483 28.5748 8.06738 24.312 7.71669ZM20.4998 1.45212C21.6538 1.70056 22.6115 2.65825 22.8598 3.81225H20.4998V1.45212ZM2.65722 30.625C1.98529 30.625 1.4386 30.0783 1.4386 29.4064V28.1877H19.1248V29.4064C19.1243 29.8315 19.2289 30.2501 19.4293 30.625H2.65722ZM22.937 29.4064C22.937 30.0783 22.3903 30.625 21.7184 30.625C21.0465 30.625 20.4998 30.0783 20.4998 29.4064V27.5002C20.4998 27.1206 20.192 26.8127 19.8123 26.8127H3.9801V1.375H19.1248V4.49975C19.1248 4.68209 19.1972 4.85696 19.3262 4.98589C19.4551 5.11482 19.6299 5.18725 19.8123 5.18725H22.937V7.71669C18.901 8.04869 15.6733 11.2766 15.3413 15.3125H7.10479C6.7251 15.3125 6.41729 15.6203 6.41729 16C6.41729 16.3797 6.7251 16.6875 7.10479 16.6875H15.3413C15.6733 20.7234 18.901 23.9513 22.937 24.2833V29.4064ZM23.6245 22.937C19.7994 22.937 16.6875 19.8251 16.6875 16C16.6875 12.1749 19.7994 9.063 23.6245 9.063C27.4497 9.063 30.5615 12.1749 30.5615 16C30.5615 19.8251 27.4496 22.937 23.6245 22.937Z" fill="#2C3E50"/>
<path d="M23.6246 21.1351C23.5193 21.1351 23.4139 21.1109 23.3171 21.0625C22.0572 20.4329 20.9977 19.4646 20.2575 18.2663C19.5168 17.0684 19.1246 15.6877 19.1249 14.2793V12.8231C19.1249 12.7167 19.1496 12.6117 19.197 12.5165C19.2445 12.4212 19.3134 12.3383 19.3984 12.2742C19.4833 12.2101 19.582 12.1666 19.6866 12.1472C19.7912 12.1277 19.8989 12.1328 20.0013 12.162C21.0906 12.4731 22.2633 12.112 22.9886 11.2416L23.0965 11.1122C23.161 11.0348 23.2418 10.9725 23.333 10.9298C23.4243 10.887 23.5239 10.8649 23.6246 10.8649C23.7254 10.8649 23.825 10.887 23.9162 10.9298C24.0075 10.9725 24.0882 11.0348 24.1528 11.1122L24.2606 11.2416C24.9859 12.1121 26.1586 12.4733 27.248 12.1621C27.3503 12.1328 27.458 12.1277 27.5627 12.1472C27.6673 12.1667 27.766 12.2102 27.8509 12.2742C27.9359 12.3383 28.0048 12.4213 28.0522 12.5165C28.0997 12.6118 28.1244 12.7167 28.1244 12.8231V14.2793C28.1244 15.6887 27.7327 17.0675 26.9917 18.2664C26.2507 19.4653 25.1927 20.4322 23.9321 21.0625C23.8366 21.1102 23.7313 21.1351 23.6246 21.1351ZM20.4998 13.6375V14.2793C20.4998 16.5295 21.6883 18.5636 23.6246 19.6683C25.5608 18.5636 26.7493 16.5295 26.7493 14.2793V13.6375C25.6096 13.7146 24.4789 13.3278 23.6246 12.5586C23.2023 12.9383 22.7082 13.2293 22.1715 13.4147C21.6348 13.6 21.0663 13.6757 20.4998 13.6375Z" fill="#EB2227"/>
<path d="M16 5.25073H7.10474C6.72505 5.25073 6.41724 4.94292 6.41724 4.56323C6.41724 4.18354 6.72505 3.87573 7.10474 3.87573H16C16.3797 3.87573 16.6875 4.18354 16.6875 4.56323C16.6875 4.94292 16.3797 5.25073 16 5.25073Z" fill="#EB2227"/>
<path d="M14.7292 9.06299H7.10474C6.72505 9.06299 6.41724 8.75518 6.41724 8.37549C6.41724 7.9958 6.72505 7.68799 7.10474 7.68799H14.7292C15.1089 7.68799 15.4167 7.9958 15.4167 8.37549C15.4167 8.75518 15.1089 9.06299 14.7292 9.06299Z" fill="#2C3E50"/>
<path d="M14.7292 24.312H7.10474C6.72505 24.312 6.41724 24.0042 6.41724 23.6245C6.41724 23.2448 6.72505 22.937 7.10474 22.937H14.7292C15.1089 22.937 15.4167 23.2448 15.4167 23.6245C15.4167 24.0042 15.1089 24.312 14.7292 24.312Z" fill="#2C3E50"/>
</g>
<defs>
<clipPath id="clip0_836_4366">
<rect width="32" height="32" fill="white"/>
</clipPath>
</defs>
</svg>
