<svg width="40" height="40" viewBox="0 0 40 40" fill="none" xmlns="http://www.w3.org/2000/svg">
<path d="M13.3332 1.66666H1.6665V13.3333H13.3332V1.66666ZM11.6665 11.6667H3.33317V3.33333H11.6665V11.6667Z" fill="#444444"/>
<path d="M25.8332 35H24.1665V38.3333H38.3332V36.6667H25.8332V35Z" fill="#444444"/>
<path d="M10 5H5V10H10V5Z" fill="#444444"/>
<path d="M1.6665 38.3333H13.3332V26.6667H1.6665V38.3333ZM3.33317 28.3333H11.6665V36.6667H3.33317V28.3333Z" fill="#444444"/>
<path d="M10 30H5V35H10V30Z" fill="#444444"/>
<path d="M26.6665 1.66666V13.3333H38.3332V1.66666H26.6665ZM36.6665 11.6667H28.3332V3.33333H36.6665V11.6667Z" fill="#444444"/>
<path d="M35 5H30V10H35V5Z" fill="#444444"/>
<path d="M38.3333 15H35V18.3333H38.3333V15Z" fill="#444444"/>
<path d="M4.99984 21.6667H1.6665V25H4.99984V21.6667Z" fill="#444444"/>
<path d="M19.1667 15H12.5V16.6667H20.8333V13.3333V11.6667H22.5V8.33333H20.8333H19.1667H17.5V5H19.1667V6.66666H25V1.66666H23.3333V5H20.8333V1.66666H20H16.6667H15.8333V10H19.1667V11.6667H15.8333V13.3333H19.1667V15Z" fill="#444444"/>
<path d="M4.1665 20H7.49984H9.1665H9.99984V21.6667H6.6665V23.3333H9.99984V25H16.6665V23.3333H11.6665V21.6667V18.3333H9.1665V15.8333H7.49984V18.3333H5.83317V15H1.6665V16.6667H4.1665V20Z" fill="#444444"/>
<path d="M20 35V30.8333H16.6667V27.5H15V32.5H18.3333V35H15V36.6667H18.3333V38.3333H22.5V36.6667H20V35Z" fill="#444444"/>
<path d="M28.333 18.3333H24.9997V14.1667H23.333V20H31.6663V18.3333H29.9997V16.6667H32.4997V15H29.9997H28.333H26.6663V16.6667H28.333V18.3333Z" fill="#444444"/>
<path d="M26.6665 33.3333H29.1665V35H32.4998V33.3333V31.6667V29.1667H29.1665V31.6667H26.6665V29.1667H24.9998V31.6667H23.3332V25H21.6665V23.3333H19.9998V18.3333H14.1665V21.6667H15.8332V20H18.3332V23.3333V26.6667H21.6665V31.6667V33.3333H23.3332H24.9998H26.6665Z" fill="#444444"/>
<path d="M36.6667 22.5H34.1667H32.5H28.3333V25.8333H26.6667V22.5H25V27.5H30V24.1667H32.5V26.6667H34.1667V24.1667H36.6667V29.1667H34.1667V34.1667H38.3333V32.5H35.8333V30.8333H38.3333V24.1667V22.5V20H36.6667V22.5Z" fill="#444444"/>
</svg>
