<svg width="15" height="15" viewBox="0 0 15 15" fill="none" xmlns="http://www.w3.org/2000/svg">
    <path
        d="M13.5 14.5H1.5C0.948 14.5 0.5 14.052 0.5 13.5V1.5C0.5 0.948 0.948 0.5 1.5 0.5H13.5C14.052 0.5 14.5 0.948 14.5 1.5V13.5C14.5 14.052 14.052 14.5 13.5 14.5Z"
        stroke="#2C3E50" stroke-linecap="round" stroke-linejoin="round" />
    <path
        d="M7.5 13C8.05228 13 8.5 12.5523 8.5 12C8.5 11.4477 8.05228 11 7.5 11C6.94772 11 6.5 11.4477 6.5 12C6.5 12.5523 6.94772 13 7.5 13Z"
        fill="#2C3E50" />
    <path
        d="M6 3.57701C6.953 2.71701 9.018 2.73201 9.423 4.21201C9.95 6.13401 7.5 6.14201 7.5 9.00001"
        stroke="#2C3E50" stroke-linecap="round" stroke-linejoin="round" />
</svg>
