<svg width="32" height="32" viewBox="0 0 32 32" fill="none" xmlns="http://www.w3.org/2000/svg">
<path fill-rule="evenodd" clip-rule="evenodd" d="M30.59 11.772C31.6405 15.4067 31.2973 19.3026 29.6276 22.6977C27.9579 26.0928 25.0818 28.7429 21.5617 30.1299C21.2084 30.269 20.8092 30.0955 20.67 29.7422C20.5308 29.389 20.7044 28.9898 21.0576 28.8506C24.2592 27.5891 26.8751 25.1788 28.3937 22.0909C29.9124 19.0029 30.2245 15.4596 29.2691 12.1537C28.3137 8.84789 26.1594 6.01733 23.2276 4.21562C20.2959 2.41391 16.7974 1.77064 13.4165 2.4116C10.0356 3.05256 7.01538 4.93166 4.94649 7.68141C2.8776 10.4312 1.90885 13.8538 2.2297 17.2799C2.55054 20.7061 4.13791 23.8893 6.68137 26.2071C9.22483 28.5249 12.5414 29.8106 15.9826 29.8127C16.3623 29.8129 16.6699 30.1209 16.6696 30.5006C16.6694 30.8803 16.3614 31.1879 15.9817 31.1877C12.1983 31.1854 8.55171 29.7718 5.75522 27.2234C2.95874 24.675 1.21345 21.1751 0.860685 17.4081C0.507917 13.6411 1.57304 9.87803 3.84775 6.85473C6.12247 3.83143 9.44316 1.76539 13.1604 1.06066C16.8777 0.355937 20.7241 1.06321 23.9476 3.04416C27.171 5.02511 29.5395 8.13726 30.59 11.772Z" fill="#36AE7C"/>
<path fill-rule="evenodd" clip-rule="evenodd" d="M30.1888 28.9464C30.2125 29.3254 29.9244 29.6517 29.5454 29.6754L21.3494 30.1864C21.1198 30.2007 20.8982 30.0992 20.759 29.9159C20.6199 29.7326 20.5817 29.4918 20.6573 29.2745L23.3843 21.43C23.509 21.0713 23.9008 20.8816 24.2594 21.0063C24.6181 21.131 24.8077 21.5228 24.683 21.8815L22.2954 28.7497L29.4599 28.303C29.8388 28.2794 30.1652 28.5675 30.1888 28.9464Z" fill="#36AE7C"/>
<path d="M14.9393 17.7614C14.7633 17.7614 14.5874 17.6943 14.4532 17.56L13.0912 16.198C12.8228 15.9295 12.8228 15.4942 13.0912 15.2257C13.3597 14.9573 13.795 14.9573 14.0635 15.2257L14.9393 16.1015L17.299 13.7419C17.5675 13.4734 18.0028 13.4734 18.2713 13.7419C18.5398 14.0104 18.5398 14.4457 18.2713 14.7142L15.4255 17.56C15.3617 17.6239 15.2859 17.6746 15.2025 17.7092C15.119 17.7437 15.0296 17.7615 14.9393 17.7614Z" fill="#EB5353"/>
<path d="M15.3426 25.0271C15.1969 25.0271 15.0513 24.981 14.9288 24.8886L10.2618 21.3706C8.78212 20.2551 8 18.4201 8 16.0638V10.6868C8 10.4165 8.15844 10.1712 8.40494 10.0601L15.0569 7.06075C15.1458 7.02071 15.2421 7 15.3396 7C15.437 7 15.5333 7.02071 15.6222 7.06075L22.2741 10.0611C22.3948 10.1155 22.4971 10.2036 22.569 10.3148C22.6408 10.4259 22.679 10.5555 22.679 10.6878V16.0657C22.679 18.4206 21.8977 20.2547 20.4198 21.37L15.7569 24.8884C15.6375 24.9784 15.4921 25.0271 15.3426 25.0271ZM11.0896 20.2725L15.3425 23.4785L19.5914 20.2724C20.7278 19.4149 21.3039 17.9996 21.3039 16.0656V11.1318L15.3394 8.4415L9.375 11.1309V16.0637C9.37506 17.9988 9.952 19.4149 11.0896 20.2725Z" fill="#EB5353"/>
</svg>
