<svg width="24" height="24" viewBox="0 0 24 24" fill="none" xmlns="http://www.w3.org/2000/svg">
    <g clip-path="url(#clip0_2443_11905)">
        <path fill-rule="evenodd" clip-rule="evenodd" d="M1.875 20.1094C2.15977 20.1094 2.39062 20.3402 2.39062 20.625V22.3594H5.48438V20.625C5.48438 20.3402 5.71523 20.1094 6 20.1094C6.28477 20.1094 6.51562 20.3402 6.51562 20.625V22.875C6.51562 23.1598 6.28477 23.3906 6 23.3906H1.875C1.59023 23.3906 1.35938 23.1598 1.35938 22.875V20.625C1.35938 20.3402 1.59023 20.1094 1.875 20.1094Z" fill="#217B56"/>
        <path fill-rule="evenodd" clip-rule="evenodd" d="M18 20.1094C18.2848 20.1094 18.5156 20.3402 18.5156 20.625V22.3594H21.6094V20.625C21.6094 20.3402 21.8402 20.1094 22.125 20.1094C22.4098 20.1094 22.6406 20.3402 22.6406 20.625V22.875C22.6406 23.1598 22.4098 23.3906 22.125 23.3906H18C17.7152 23.3906 17.4844 23.1598 17.4844 22.875V20.625C17.4844 20.3402 17.7152 20.1094 18 20.1094Z" fill="#217B56"/>
        <path fill-rule="evenodd" clip-rule="evenodd" d="M18.5393 7.35938C18.8215 7.35932 19.0957 7.45362 19.3182 7.62731C19.5408 7.80102 19.6989 8.04418 19.7674 8.31809L21.1252 13.75C21.1943 14.0262 21.0263 14.3062 20.75 14.3752C20.4738 14.4443 20.1938 14.2763 20.1248 14L18.7669 8.56817C18.7542 8.51745 18.7249 8.47241 18.6837 8.44024C18.6425 8.40807 18.5917 8.39061 18.5394 8.39062H5.46083C5.4608 8.39062 5.46085 8.39062 5.46083 8.39062C5.40859 8.39065 5.35778 8.40813 5.31661 8.44028C5.27542 8.47245 5.24616 8.51746 5.23348 8.56816L3.87522 14.0001C3.80614 14.2763 3.52618 14.4443 3.24992 14.3752C2.97365 14.3061 2.8057 14.0262 2.87478 13.7499L4.23302 8.31809C4.23302 8.31807 4.23301 8.3181 4.23302 8.31809C4.30146 8.0443 4.45946 7.8012 4.68189 7.6275C4.90433 7.45379 5.17844 7.35942 5.46067 7.35938H18.5393C18.5392 7.35938 18.5393 7.35938 18.5393 7.35938Z" fill="#217B56"/>
        <path fill-rule="evenodd" clip-rule="evenodd" d="M3.0104 13.5104C3.1071 13.4137 3.23825 13.3594 3.375 13.3594H20.625C20.7618 13.3594 20.8929 13.4137 20.9896 13.5104L22.2698 14.7906C22.5072 15.0279 22.6406 15.3498 22.6406 15.6854V20.625C22.6406 20.9098 22.4098 21.1406 22.125 21.1406H1.875C1.59023 21.1406 1.35938 20.9098 1.35938 20.625V15.6855C1.35945 15.3499 1.49282 15.0279 1.73015 14.7906C1.73017 14.7906 1.73013 14.7907 1.73015 14.7906L3.0104 13.5104ZM3.58858 14.3906L2.45935 15.5199C2.41542 15.5638 2.39067 15.6234 2.39062 15.6855C2.39062 15.6855 2.39062 15.6855 2.39062 15.6855V20.1094H21.6094V15.6856C21.6094 15.6856 21.6094 15.6856 21.6094 15.6856C21.6093 15.6235 21.5846 15.5638 21.5407 15.5199L20.4114 14.3906H3.58858Z" fill="#217B56"/>
        <path fill-rule="evenodd" clip-rule="evenodd" d="M5.25 16.6406C4.91345 16.6406 4.64062 16.9135 4.64062 17.25C4.64062 17.5865 4.91345 17.8594 5.25 17.8594C5.58655 17.8594 5.85938 17.5865 5.85938 17.25C5.85938 16.9135 5.58655 16.6406 5.25 16.6406ZM3.60938 17.25C3.60938 16.3439 4.34391 15.6094 5.25 15.6094C6.15609 15.6094 6.89062 16.3439 6.89062 17.25C6.89062 18.1561 6.15609 18.8906 5.25 18.8906C4.34391 18.8906 3.60938 18.1561 3.60938 17.25Z" fill="#217B56"/>
        <path fill-rule="evenodd" clip-rule="evenodd" d="M18.75 16.6406C18.4135 16.6406 18.1406 16.9135 18.1406 17.25C18.1406 17.5865 18.4135 17.8594 18.75 17.8594C19.0865 17.8594 19.3594 17.5865 19.3594 17.25C19.3594 16.9135 19.0865 16.6406 18.75 16.6406ZM17.1094 17.25C17.1094 16.3439 17.8439 15.6094 18.75 15.6094C19.6561 15.6094 20.3906 16.3439 20.3906 17.25C20.3906 18.1561 19.6561 18.8906 18.75 18.8906C17.8439 18.8906 17.1094 18.1561 17.1094 17.25Z" fill="#217B56"/>
        <path fill-rule="evenodd" clip-rule="evenodd" d="M11.782 0.657749C11.9202 0.59325 12.0798 0.59325 12.2181 0.657749L23.4681 5.90775C23.7261 6.02818 23.8377 6.335 23.7173 6.59305C23.5968 6.85111 23.29 6.96268 23.032 6.84225L12 1.69401L0.968051 6.84225C0.709996 6.96268 0.403176 6.85111 0.28275 6.59305C0.162324 6.335 0.273895 6.02818 0.531951 5.90775L11.782 0.657749Z" fill="#EB2227"/>
        <path fill-rule="evenodd" clip-rule="evenodd" d="M9.60938 17.25C9.60938 16.9652 9.84023 16.7344 10.125 16.7344H13.875C14.1598 16.7344 14.3906 16.9652 14.3906 17.25C14.3906 17.5348 14.1598 17.7656 13.875 17.7656H10.125C9.84023 17.7656 9.60938 17.5348 9.60938 17.25Z" fill="#217B56"/>
    </g>
    <defs>
        <clipPath id="clip0_2443_11905">
            <rect width="24" height="24" fill="white"/>
        </clipPath>
    </defs>
</svg>
