<svg width="24" height="24" viewBox="0 0 24 24" fill="none" xmlns="http://www.w3.org/2000/svg">
<path fill-rule="evenodd" clip-rule="evenodd" d="M14.625 0.609375C14.9098 0.609375 15.1406 0.840228 15.1406 1.125V6.98438H21C21.2848 6.98438 21.5156 7.21523 21.5156 7.5C21.5156 7.78477 21.2848 8.01562 21 8.01562H14.625C14.3402 8.01562 14.1094 7.78477 14.1094 7.5V1.125C14.1094 0.840228 14.3402 0.609375 14.625 0.609375Z" fill="#217B56"/>
<path fill-rule="evenodd" clip-rule="evenodd" d="M2.48438 1.125C2.48438 0.840228 2.71523 0.609375 3 0.609375H14.625C14.7618 0.609375 14.8929 0.6637 14.9896 0.760398L21.3646 7.1354C21.4613 7.2321 21.5156 7.36325 21.5156 7.5V11.625C21.5156 11.9098 21.2848 12.1406 21 12.1406C20.7152 12.1406 20.4844 11.9098 20.4844 11.625V7.71358L14.4114 1.64062H3.51562V22.3594H14.25C14.5348 22.3594 14.7656 22.5902 14.7656 22.875C14.7656 23.1598 14.5348 23.3906 14.25 23.3906H3C2.71523 23.3906 2.48438 23.1598 2.48438 22.875V1.125Z" fill="#217B56"/>
<path fill-rule="evenodd" clip-rule="evenodd" d="M6.60938 10.2656C6.60938 9.98085 6.84023 9.75 7.125 9.75H10.875C11.1598 9.75 11.3906 9.98085 11.3906 10.2656C11.3906 10.5504 11.1598 10.7812 10.875 10.7812H7.125C6.84023 10.7812 6.60938 10.5504 6.60938 10.2656Z" fill="#217B56"/>
<path fill-rule="evenodd" clip-rule="evenodd" d="M6.60938 7.125C6.60938 6.84023 6.84023 6.60938 7.125 6.60938H11.25C11.5348 6.60938 11.7656 6.84023 11.7656 7.125C11.7656 7.40977 11.5348 7.64062 11.25 7.64062H7.125C6.84023 7.64062 6.60938 7.40977 6.60938 7.125Z" fill="#217B56"/>
<path d="M23.1018 19.2652L20.1091 14.0817C20.9718 11.6435 19.0526 8.96464 16.4604 9.00036C13.8687 8.96454 11.9486 11.644 12.8117 14.0817L9.819 19.2652C9.77237 19.3461 9.74855 19.438 9.75007 19.5313C9.75159 19.6246 9.7784 19.7158 9.82764 19.7951C9.87688 19.8743 9.9467 19.9387 10.0297 19.9815C10.1126 20.0242 10.2056 20.0436 10.2988 20.0376L11.6703 19.9491L12.2795 21.1812C12.2349 21.2583 12.2111 21.3457 12.2104 21.4348C12.2097 21.5239 12.232 21.6117 12.2753 21.6896C12.3186 21.7675 12.3814 21.8328 12.4574 21.8792C12.5335 21.9256 12.6203 21.9515 12.7094 21.9544C12.7984 21.9572 12.8867 21.937 12.9656 21.8956C13.0445 21.8542 13.1113 21.793 13.1596 21.7181C13.2078 21.6432 13.2358 21.557 13.2408 21.468C13.2458 21.3791 13.2277 21.2903 13.1882 21.2104L15.8217 16.649C16.2353 16.7204 16.6855 16.7204 17.0991 16.649L19.7326 21.2104C19.7793 21.2913 19.847 21.3579 19.9286 21.4032C20.0102 21.4486 20.1025 21.471 20.1958 21.4679C20.289 21.4649 20.3798 21.4367 20.4582 21.3862C20.5367 21.3357 20.6 21.2648 20.6414 21.1812L21.2505 19.9491L22.6221 20.0376C23.0272 20.0684 23.309 19.6147 23.1018 19.2652ZM12.7768 19.8605L12.4423 19.1839C12.3972 19.0927 12.3261 19.0168 12.2379 18.9659C12.1498 18.915 12.0485 18.8913 11.9469 18.8979L11.1938 18.9465L13.3798 15.1603C13.756 15.6611 14.2481 16.0633 14.8138 16.3324L12.7768 19.8605ZM15.7448 15.5795C15.7188 15.5697 15.6921 15.5621 15.6648 15.5567C14.4961 15.2124 13.6403 14.1304 13.6403 12.8517C13.7952 9.11037 19.1262 9.11159 19.2805 12.8517C19.2805 14.1303 18.4248 15.2122 17.2563 15.5566C17.2289 15.562 17.202 15.5697 17.1759 15.5795C16.7222 15.7018 16.1985 15.7018 15.7448 15.5795ZM20.9739 18.8979C20.8723 18.8912 20.771 18.9148 20.6828 18.9657C20.5946 19.0167 20.5235 19.0926 20.4785 19.1839L20.144 19.8605L18.1071 16.3324C18.6728 16.0633 19.1648 15.6611 19.5411 15.1603L21.727 18.9465L20.9739 18.8979Z" fill="#217B56"/>
</svg>
