<svg width="30" height="30" viewBox="0 0 30 30" fill="none" xmlns="http://www.w3.org/2000/svg">
<path fill-rule="evenodd" clip-rule="evenodd" d="M18.2812 0.761719C18.6372 0.761719 18.9258 1.05029 18.9258 1.40625V8.73047H26.25C26.606 8.73047 26.8945 9.01904 26.8945 9.375C26.8945 9.73096 26.606 10.0195 26.25 10.0195H18.2812C17.9253 10.0195 17.6367 9.73096 17.6367 9.375V1.40625C17.6367 1.05029 17.9253 0.761719 18.2812 0.761719Z" fill="#217B56"/>
<path fill-rule="evenodd" clip-rule="evenodd" d="M3.10547 1.40625C3.10547 1.05029 3.39404 0.761719 3.75 0.761719H18.2812C18.4522 0.761719 18.6161 0.829625 18.737 0.950498L26.7058 8.91925C26.8266 9.04012 26.8945 9.20406 26.8945 9.375V14.5312C26.8945 14.8872 26.606 15.1758 26.25 15.1758C25.894 15.1758 25.6055 14.8872 25.6055 14.5312V9.64197L18.0143 2.05078H4.39453V27.9492H17.8125C18.1685 27.9492 18.457 28.2378 18.457 28.5938C18.457 28.9497 18.1685 29.2383 17.8125 29.2383H3.75C3.39404 29.2383 3.10547 28.9497 3.10547 28.5938V1.40625Z" fill="#217B56"/>
<path fill-rule="evenodd" clip-rule="evenodd" d="M8.26172 22.9688C8.26172 22.6128 8.55029 22.3242 8.90625 22.3242H13.5938C13.9497 22.3242 14.2383 22.6128 14.2383 22.9688C14.2383 23.3247 13.9497 23.6133 13.5938 23.6133H8.90625C8.55029 23.6133 8.26172 23.3247 8.26172 22.9688Z" fill="#217B56"/>
<path fill-rule="evenodd" clip-rule="evenodd" d="M8.26172 18.2812C8.26172 17.9253 8.55029 17.6367 8.90625 17.6367H13.5938C13.9497 17.6367 14.2383 17.9253 14.2383 18.2812C14.2383 18.6372 13.9497 18.9258 13.5938 18.9258H8.90625C8.55029 18.9258 8.26172 18.6372 8.26172 18.2812Z" fill="#217B56"/>
<path fill-rule="evenodd" clip-rule="evenodd" d="M8.26172 13.5938C8.26172 13.2378 8.55029 12.9492 8.90625 12.9492H21.0938C21.4497 12.9492 21.7383 13.2378 21.7383 13.5938C21.7383 13.9497 21.4497 14.2383 21.0938 14.2383H8.90625C8.55029 14.2383 8.26172 13.9497 8.26172 13.5938Z" fill="#217B56"/>
<path fill-rule="evenodd" clip-rule="evenodd" d="M8.26172 8.90625C8.26172 8.55029 8.55029 8.26172 8.90625 8.26172H14.0625C14.4185 8.26172 14.707 8.55029 14.707 8.90625C14.707 9.26221 14.4185 9.55078 14.0625 9.55078H8.90625C8.55029 9.55078 8.26172 9.26221 8.26172 8.90625Z" fill="#217B56"/>
<path fill-rule="evenodd" clip-rule="evenodd" d="M24.021 24.021C24.2727 23.7693 24.6808 23.7693 24.9325 24.021L28.5807 27.6693C28.8325 27.921 28.8325 28.3291 28.5807 28.5808C28.329 28.8325 27.9209 28.8325 27.6692 28.5808L24.021 24.9325C23.7693 24.6808 23.7693 24.2727 24.021 24.021Z" fill="#EB2227"/>
<path fill-rule="evenodd" clip-rule="evenodd" d="M21.3281 17.5195C19.2247 17.5195 17.5195 19.2247 17.5195 21.3281C17.5195 23.4316 19.2247 25.1367 21.3281 25.1367C23.4316 25.1367 25.1367 23.4316 25.1367 21.3281C25.1367 19.2247 23.4316 17.5195 21.3281 17.5195ZM16.2305 21.3281C16.2305 18.5128 18.5128 16.2305 21.3281 16.2305C24.1435 16.2305 26.4258 18.5128 26.4258 21.3281C26.4258 24.1435 24.1435 26.4258 21.3281 26.4258C18.5128 26.4258 16.2305 24.1435 16.2305 21.3281Z" fill="#EB2227"/>
</svg>
