<svg width="32" height="32" viewBox="0 0 32 32" fill="none" xmlns="http://www.w3.org/2000/svg">
<path fill-rule="evenodd" clip-rule="evenodd" d="M19.5 0.8125C19.8797 0.8125 20.1875 1.1203 20.1875 1.5V9.3125H28C28.3797 9.3125 28.6875 9.6203 28.6875 10C28.6875 10.3797 28.3797 10.6875 28 10.6875H19.5C19.1203 10.6875 18.8125 10.3797 18.8125 10V1.5C18.8125 1.1203 19.1203 0.8125 19.5 0.8125Z" fill="#217B56"/>
<path fill-rule="evenodd" clip-rule="evenodd" d="M3.3125 1.5C3.3125 1.1203 3.6203 0.8125 4 0.8125H19.5C19.6823 0.8125 19.8572 0.884933 19.9861 1.01386L28.4861 9.51386C28.6151 9.6428 28.6875 9.81766 28.6875 10V15.5C28.6875 15.8797 28.3797 16.1875 28 16.1875C27.6203 16.1875 27.3125 15.8797 27.3125 15.5V10.2848L19.2152 2.1875H4.6875V29.8125H19C19.3797 29.8125 19.6875 30.1203 19.6875 30.5C19.6875 30.8797 19.3797 31.1875 19 31.1875H4C3.6203 31.1875 3.3125 30.8797 3.3125 30.5V1.5Z" fill="#217B56"/>
<path fill-rule="evenodd" clip-rule="evenodd" d="M8.8125 13.6875C8.8125 13.3078 9.1203 13 9.5 13H14.5C14.8797 13 15.1875 13.3078 15.1875 13.6875C15.1875 14.0672 14.8797 14.375 14.5 14.375H9.5C9.1203 14.375 8.8125 14.0672 8.8125 13.6875Z" fill="#217B56"/>
<path fill-rule="evenodd" clip-rule="evenodd" d="M8.8125 9.5C8.8125 9.1203 9.1203 8.8125 9.5 8.8125H15C15.3797 8.8125 15.6875 9.1203 15.6875 9.5C15.6875 9.8797 15.3797 10.1875 15 10.1875H9.5C9.1203 10.1875 8.8125 9.8797 8.8125 9.5Z" fill="#217B56"/>
<path d="M30.8024 25.687L26.8122 18.7756C27.9624 15.5247 25.4034 11.9528 21.9472 12.0005C18.4916 11.9527 15.9314 15.5253 17.0823 18.7756L13.092 25.687C13.0298 25.7947 12.9981 25.9174 13.0001 26.0418C13.0021 26.1662 13.0379 26.2877 13.1035 26.3934C13.1692 26.4991 13.2623 26.585 13.3729 26.6419C13.4835 26.6989 13.6075 26.7248 13.7317 26.7168L15.5604 26.5988L16.3726 28.2415C16.3132 28.3444 16.2815 28.4609 16.2805 28.5798C16.2795 28.6986 16.3094 28.8156 16.3671 28.9194C16.4248 29.0233 16.5085 29.1104 16.6099 29.1722C16.7114 29.2341 16.8271 29.2687 16.9458 29.2725C17.0646 29.2763 17.1823 29.2493 17.2875 29.1941C17.3927 29.1389 17.4818 29.0573 17.5461 28.9574C17.6104 28.8575 17.6477 28.7427 17.6544 28.624C17.6611 28.5054 17.6369 28.3871 17.5843 28.2806L21.0956 22.1987C21.6471 22.2939 22.2473 22.2939 22.7988 22.1987L26.3102 28.2806C26.3724 28.3883 26.4627 28.4772 26.5715 28.5377C26.6802 28.5981 26.8033 28.6279 26.9277 28.6239C27.0521 28.6199 27.173 28.5822 27.2776 28.5149C27.3823 28.4475 27.4667 28.3531 27.5218 28.2415L28.3341 26.5988L30.1628 26.7168C30.7029 26.7578 31.0787 26.153 30.8024 25.687ZM17.0358 26.4807L16.5897 25.5786C16.5296 25.4569 16.4348 25.3557 16.3172 25.2878C16.1997 25.2199 16.0646 25.1884 15.9292 25.1972L14.9251 25.262L17.8397 20.2137C18.3414 20.8815 18.9974 21.4178 19.7517 21.7765L17.0358 26.4807ZM20.9931 20.7727C20.9584 20.7597 20.9227 20.7495 20.8864 20.7423C19.3281 20.2832 18.1871 18.8405 18.1871 17.1355C18.3936 12.1472 25.5016 12.1488 25.7073 17.1355C25.7073 18.8403 24.5664 20.2829 23.0084 20.7422C22.9719 20.7494 22.936 20.7596 22.9012 20.7727C22.2963 20.9357 21.5979 20.9357 20.9931 20.7727ZM27.9652 25.1972C27.8297 25.1883 27.6946 25.2198 27.5771 25.2877C27.4595 25.3555 27.3647 25.4568 27.3047 25.5786L26.8586 26.4807L24.1428 21.7765C24.897 21.4178 25.5531 20.8815 26.0548 20.2137L28.9694 25.262L27.9652 25.1972Z" fill="#EB2227"/>
</svg>
