<svg width="12" height="12" viewBox="0 0 12 12" fill="none" xmlns="http://www.w3.org/2000/svg">
<g clip-path="url(#clip0_2355_6257)">
<path d="M10.5 0.5C10.7652 0.5 11.0196 0.605357 11.2071 0.792893C11.3946 0.98043 11.5 1.23478 11.5 1.5V10.5C11.5 10.7652 11.3946 11.0196 11.2071 11.2071C11.0196 11.3946 10.7652 11.5 10.5 11.5H1.5C1.23478 11.5 0.98043 11.3946 0.792893 11.2071C0.605357 11.0196 0.5 10.7652 0.5 10.5V1.5C0.5 1.23478 0.605357 0.98043 0.792893 0.792893C0.98043 0.605357 1.23478 0.5 1.5 0.5" stroke="white" stroke-linecap="round" stroke-linejoin="round"/>
<path d="M3.5 0.5H8.5V6.5L6 4.5L3.5 6.5V0.5Z" stroke="white" stroke-linecap="round" stroke-linejoin="round"/>
</g>
<defs>
<clipPath id="clip0_2355_6257">
<rect width="12" height="12" fill="white"/>
</clipPath>
</defs>
</svg>
