<svg width="32" height="32" viewBox="0 0 32 32" fill="none" xmlns="http://www.w3.org/2000/svg">
<path fill-rule="evenodd" clip-rule="evenodd" d="M2.3125 5.5C2.3125 5.1203 2.6203 4.8125 3 4.8125H24C24.3797 4.8125 24.6875 5.1203 24.6875 5.5C24.6875 5.8797 24.3797 6.1875 24 6.1875H3C2.6203 6.1875 2.3125 5.8797 2.3125 5.5Z" fill="#217B56"/>
<path fill-rule="evenodd" clip-rule="evenodd" d="M2.3125 25.5C2.3125 25.1203 2.6203 24.8125 3 24.8125H15C15.3797 24.8125 15.6875 25.1203 15.6875 25.5C15.6875 25.8797 15.3797 26.1875 15 26.1875H3C2.6203 26.1875 2.3125 25.8797 2.3125 25.5Z" fill="#217B56"/>
<path fill-rule="evenodd" clip-rule="evenodd" d="M5.5 1.6875C5.0193 1.6875 4.55828 1.87846 4.21837 2.21837C3.87846 2.55828 3.6875 3.0193 3.6875 3.5V28.5C3.6875 28.9807 3.87846 29.4417 4.21837 29.7816C4.55828 30.1215 5.0193 30.3125 5.5 30.3125H20C20.3797 30.3125 20.6875 30.6203 20.6875 31C20.6875 31.3797 20.3797 31.6875 20 31.6875H5.5C4.65462 31.6875 3.84387 31.3517 3.2461 30.7539C2.64832 30.1561 2.3125 29.3454 2.3125 28.5V3.5C2.3125 2.65462 2.64832 1.84387 3.2461 1.2461C3.84387 0.648325 4.65462 0.3125 5.5 0.3125H21.5C21.9186 0.3125 22.3331 0.394947 22.7198 0.555134C23.1065 0.715321 23.4579 0.950111 23.7539 1.2461C24.0499 1.54208 24.2847 1.89347 24.4449 2.2802C24.6051 2.66692 24.6875 3.08141 24.6875 3.5V15C24.6875 15.3797 24.3797 15.6875 24 15.6875C23.6203 15.6875 23.3125 15.3797 23.3125 15V3.5C23.3125 3.26198 23.2656 3.02629 23.1745 2.80639C23.0834 2.58648 22.9499 2.38667 22.7816 2.21837C22.6133 2.05006 22.4135 1.91655 22.1936 1.82547C21.9737 1.73438 21.738 1.6875 21.5 1.6875H5.5Z" fill="#217B56"/>
<path fill-rule="evenodd" clip-rule="evenodd" d="M25.6224 25.6224C25.8908 25.3539 26.3261 25.3539 26.5946 25.6224L30.4861 29.5139C30.7546 29.7823 30.7546 30.2176 30.4861 30.4861C30.2176 30.7546 29.7823 30.7546 29.5139 30.4861L25.6224 26.5946C25.3539 26.3261 25.3539 25.8908 25.6224 25.6224Z" fill="#EB2227"/>
<path fill-rule="evenodd" clip-rule="evenodd" d="M22.75 18.6875C20.5063 18.6875 18.6875 20.5063 18.6875 22.75C18.6875 24.9937 20.5063 26.8125 22.75 26.8125C24.9937 26.8125 26.8125 24.9937 26.8125 22.75C26.8125 20.5063 24.9937 18.6875 22.75 18.6875ZM17.3125 22.75C17.3125 19.747 19.747 17.3125 22.75 17.3125C25.753 17.3125 28.1875 19.747 28.1875 22.75C28.1875 25.753 25.753 28.1875 22.75 28.1875C19.747 28.1875 17.3125 25.753 17.3125 22.75Z" fill="#EB2227"/>
</svg>
