<svg width="20" height="20" viewBox="0 0 20 20" fill="none" xmlns="http://www.w3.org/2000/svg">
<path fill-rule="evenodd" clip-rule="evenodd" d="M12.995 12.995C13.1628 12.8272 13.4349 12.8272 13.6027 12.995L18.7414 18.1337C18.9092 18.3015 18.9092 18.5736 18.7414 18.7414C18.5736 18.9092 18.3015 18.9092 18.1337 18.7414L12.995 13.6027C12.8272 13.4349 12.8272 13.1628 12.995 12.995Z" fill="#2E3A5B"/>
<path fill-rule="evenodd" clip-rule="evenodd" d="M8.4375 1.99219C4.87785 1.99219 1.99219 4.87785 1.99219 8.4375C1.99219 11.9971 4.87785 14.8828 8.4375 14.8828C11.9971 14.8828 14.8828 11.9971 14.8828 8.4375C14.8828 4.87785 11.9971 1.99219 8.4375 1.99219ZM1.13281 8.4375C1.13281 4.40323 4.40323 1.13281 8.4375 1.13281C12.4718 1.13281 15.7422 4.40323 15.7422 8.4375C15.7422 12.4718 12.4718 15.7422 8.4375 15.7422C4.40323 15.7422 1.13281 12.4718 1.13281 8.4375Z" fill="#2E3A5B"/>
</svg>
