<svg width="301" height="158" viewBox="0 0 301 158" fill="none" xmlns="http://www.w3.org/2000/svg">
<g clip-path="url(#clip0_1512_10376)">
<path d="M47.8 28.6L46.6 36.5L52.1 32.8L47.8 28.6Z" fill="#EB2227"/>
<path d="M207.7 40.4C207.7 40.4 208.1 37.8 211.3 38.5C212.3 38.7 214.3 46.8 215 49.5C215.1 50 215.1 50.6 214.9 51.1L209.3 63.7L203.4 56.6L208.6 47.7C208.6 47.6 206.6 42 207.7 40.4Z" fill="#F9D1BD"/>
<path d="M208.8 40.5L214.1 30.9C214.6 29.6 213.9 28.2 212.6 27.8C210.5 27.2 207.5 27.7 205.3 34C201.7 44.4 208.8 40.5 208.8 40.5Z" fill="#F9D1BD"/>
<path d="M208.3 49.2C208.3 49.2 208.7 46.6 211.9 47.3C212.8 47.5 214.6 54.4 215.4 57.5C215.6 58.5 215.6 59.6 215.1 60.5L210 72.4L204.1 65.3L209.3 56.4C209.3 56.5 207.3 50.8 208.3 49.2Z" fill="#F9D1BD"/>
<path d="M97.3 45.6L92.8 43.6C91.5 43 90.1 43.7 89.6 45C88.9 47.1 89.3 50.1 95.6 52.5C105.9 56.3 97.3 45.6 97.3 45.6Z" fill="#F9D1BD"/>
<path d="M103.7 34.2L99.7 31.2C98.6 30.4 97 30.7 96.3 31.9C95.2 33.8 94.9 36.8 100.5 40.5C109.7 46.5 103.7 34.2 103.7 34.2Z" fill="#F9D1BD"/>
<path d="M94.7 51.2L90.6 50.1C88.6 49.6 86.6 51.3 87 53.4C87.4 55.2 89 57.2 94.1 58.3C104.9 60.4 94.7 51.2 94.7 51.2Z" fill="#F9D1BD"/>
<path d="M94.1 60.7L89.3 59.3C87.8 58.9 86.3 60.1 86.6 61.7C86.9 63.4 88.5 65.4 93.9 66.7C104.6 69.2 94.1 60.7 94.1 60.7Z" fill="#F9D1BD"/>
<path d="M128.5 86.9L127.5 62.4L121.3 41.2L110.4 36.7C110.4 36.7 103.9 50.4 103.2 66.9C103.2 67.8 103.2 68.7 103.2 69.6L99.5 68.7L102 84C102.5 86.8 104.1 91.4 106 93.4L107.5 95.1C115.6 112.1 114.2 132.6 118.6 157.7H154.1L128.5 86.9Z" fill="#F9D1BD"/>
<path d="M51.3 50.9L53.3 47.8C53.5 47.5 53.8 47.3 54.2 47.2C54.6 47.1 55 47.2 55.3 47.4C55.6 47.6 55.8 47.9 55.9 48.3C56 48.7 55.9 49.1 55.7 49.4L53.7 52.5C53.5 52.8 53.2 53 52.8 53.1C52.4 53.2 52 53.1 51.7 52.9C51.4 52.7 51.2 52.4 51.1 52C51 51.6 51.1 51.2 51.3 50.9Z" fill="#FFC6C2"/>
<path d="M51.1 48.6L48 52.3C47.2 53.5 47.7 55.4 49.3 56.4L48.8 58.3C50.3 59.4 49.8 62.5 50.6 61.2L55.9 51.3C57.7 48.7 53.2 45.5 51.1 48.6Z" fill="#F9D1BD"/>
<path d="M21.9 157.7H49.1L51.7 112.3C56 108.5 61.1 93.6 58.2 77.6L33.1 93L21.9 157.7Z" fill="#F9D1BD"/>
<path d="M36.2 99.2L36.7 99.1L36.2 99.2Z" fill="#C8C8C8"/>
<path d="M45.4001 97.5L42.3 98L45.4001 97.5Z" fill="white"/>
<path d="M43.6 87.9L40.5 88.5L42.3 98L45.4 97.4L43.6 87.9Z" fill="white"/>
<path d="M27.2 66.3H27L28.6 74.9H28.7L27.2 66.3Z" fill="white"/>
<path d="M47.3 97.2L55.9001 95.6L47.3 97.2Z" fill="#C8C8C8"/>
<path d="M57.2 97.2L37.4 102.8C36.4 103.1 35.3 103 34.4 102.4C33.5 101.9 32.8 101 32.5 100L19.3 53.3C19.2 52.8 19.1 52.3 19.2 51.8C19.3 51.3 19.4 50.8 19.7 50.3C20 49.8 20.3 49.4 20.7 49.1C21.1 48.8 21.6 48.5 22.1 48.4L41.9 42.8C42.9 42.5 44 42.6 44.9 43.2C45.8 43.7 46.5 44.6 46.8 45.6L60 92.3C60.1 92.8 60.2 93.3 60.1 93.8C60 94.3 59.9 94.8 59.6 95.3C59.3 95.8 59 96.2 58.6 96.5C58.1 96.8 57.7 97 57.2 97.2Z" fill="#191919"/>
<path d="M56.2 92.3L35.7 98.1C35.1 98.3 34.5 98.2 34 97.9C33.5 97.6 33.1 97.1 33 96.6L20.6 52.6C20.5 52.3 20.5 52 20.5 51.7C20.5 51.4 20.6 51.1 20.8 50.9C20.9 50.6 21.1 50.4 21.4 50.2C21.7 50 21.9 49.9 22.2 49.8L42.7 44C43.3 43.8 43.9 43.9 44.4 44.2C44.9 44.5 45.3 45 45.4 45.5L57.8 89.5C57.9 89.8 57.9 90.1 57.9 90.4C57.9 90.7 57.8 91 57.6 91.2C57.5 91.5 57.3 91.7 57 91.9C56.8 92.1 56.5 92.3 56.2 92.3Z" fill="white"/>
<path d="M110.1 87.8L89.9999 83.5C89.4999 83.4 88.9999 83.2 88.5999 82.9C88.1999 82.6 87.7999 82.2 87.4999 81.8C87.1999 81.4 87 80.9 86.9 80.4C86.8 79.9 86.8 79.4 86.9 78.8L97.1999 31.4C97.3999 30.4 98 29.5 98.9 28.9C99.8 28.3 100.9 28.1 101.9 28.4L122 32.7C122.5 32.8 123 33 123.4 33.3C123.8 33.6 124.2 34 124.5 34.4C124.8 34.8 125 35.3 125.1 35.8C125.2 36.3 125.2 36.8 125.1 37.4L114.8 84.8C114.6 85.8 114 86.7 113.1 87.3C112.2 87.9 111.1 88.1 110.1 87.8Z" fill="#191919"/>
<path d="M111.5 83.1L90.7 78.6C90.4 78.5 90.1 78.4 89.9 78.3C89.7 78.1 89.5 77.9 89.3 77.7C89.1 77.5 89 77.2 89 76.9C88.9 76.6 89 76.3 89 76L98.7 31.3C98.8 30.7 99.2 30.2 99.7 29.9C100.2 29.6 100.8 29.5 101.4 29.6L122.2 34.1C122.5 34.2 122.8 34.3 123 34.4C123.2 34.6 123.4 34.8 123.6 35C123.8 35.2 123.9 35.5 123.9 35.8C124 36.1 123.9 36.4 123.9 36.7L114.2 81.4C114.1 82 113.7 82.5 113.2 82.8C112.7 83.1 112.1 83.3 111.5 83.1Z" fill="white"/>
<path d="M27 78.6L29.6 89.9C29.6 89.9 38.6 94.9 36.9 107.4L31.4 116.7L24.9 103.5C24.2 102.6 23.9 99.7 23.6 98.6L20.2 80.2L27 78.6Z" fill="#F9D1BD"/>
<path d="M187.1 89C183.5 84.4 174.1 78.9 175.5 65.2L190.5 67.7L187.1 89Z" fill="#F9D1BD"/>
<path d="M201.8 88.3L182.6 82.1L185.9 53L212.8 54.2L211.8 65.1C211.2 71.6 209.2 77.8 205.9 83.4L201.8 88.3Z" fill="#F9D1BD"/>
<path d="M208.3 118.9L183.9 121.7L184.8 79.4L205.4 80L208.3 118.9Z" fill="#F9D1BD"/>
<path d="M181.4 115.4L209.3 114.9L213.4 157.7H184.4L183.3 124.3L181.4 115.4Z" fill="white"/>
<path d="M63.1 33.7L51.3 32.7C50.1 32.6 48.9 32 48.1 31C47.3 30 46.9 28.8 47 27.6L47.4 22.7C47.5 21.5 48.1 20.3 49.1 19.5C50.1 18.7 51.3 18.3 52.5 18.4L64.3 19.4C65.5 19.5 66.7 20.1 67.5 21.1C68.3 22.1 68.7 23.3 68.6 24.5L68.2 29.4C68.1 30.6 67.5 31.8 66.5 32.6C65.6 33.4 64.4 33.8 63.1 33.7Z" fill="#EB2227"/>
<path d="M156.4 49.9L143.8 52.6C142.7 52.8 141.6 52.6 140.7 52C139.8 51.4 139.1 50.5 138.9 49.4L138.3 46.5C138.1 45.4 138.3 44.3 138.9 43.4C139.5 42.5 140.4 41.8 141.5 41.6L154.1 38.9C155.2 38.7 156.3 38.9 157.2 39.5C158.1 40.1 158.8 41 159 42.1L159.6 45C159.8 46.1 159.6 47.2 159 48.1C158.4 49 157.5 49.7 156.4 49.9Z" fill="#C0C5CB"/>
<path d="M153.4 50.3L161.3 52L158 46.2L153.4 50.3Z" fill="#C0C5CB"/>
<path d="M248.7 36.4L253.2 43L254.8 36.5L248.7 36.4Z" fill="#C0C5CB"/>
<path d="M142.4 48.5C142 48.5 141.7 48.5 141.4 48.2C141.1 48 140.9 47.7 140.9 47.3C140.9 46.9 140.9 46.6 141.2 46.3C141.4 46 141.7 45.8 142.1 45.8C142.5 45.8 142.8 45.8 143.1 46.1C143.4 46.3 143.6 46.6 143.6 47C143.6 47.4 143.6 47.7 143.3 48C143.1 48.3 142.8 48.5 142.4 48.5Z" fill="#F6FAF3"/>
<path d="M149.1 47.1C148.7 47.1 148.4 47.1 148.1 46.8C147.8 46.6 147.6 46.3 147.6 45.9C147.6 45.5 147.6 45.2 147.9 44.9C148.1 44.6 148.4 44.4 148.8 44.4C149.2 44.4 149.5 44.4 149.8 44.7C150.1 44.9 150.3 45.2 150.3 45.6C150.3 46 150.3 46.3 150 46.6C149.8 46.9 149.5 47.1 149.1 47.1Z" fill="#F6FAF3"/>
<path d="M155.9 45.7C155.5 45.7 155.2 45.7 154.9 45.4C154.6 45.2 154.4 44.9 154.4 44.5C154.4 44.1 154.4 43.8 154.7 43.5C154.9 43.2 155.2 43 155.6 43C156 43 156.3 43 156.6 43.3C156.9 43.5 157.1 43.8 157.1 44.2C157.1 44.6 157.1 44.9 156.8 45.2C156.5 45.4 156.2 45.6 155.9 45.7Z" fill="#F6FAF3"/>
<path d="M243.1 57.5L231.1 52.8C230.1 52.4 229.3 51.6 228.8 50.6C228.4 49.6 228.3 48.5 228.7 47.4L229.8 44.7C230.2 43.7 231 42.9 232 42.4C233 42 234.2 41.9 235.2 42.3L247.2 47C248.2 47.4 249 48.2 249.5 49.2C249.9 50.2 250 51.3 249.6 52.4L248.5 55.1C248.1 56.1 247.3 56.9 246.3 57.4C245.3 57.9 244.2 57.9 243.1 57.5Z" fill="#C0C5CB"/>
<path d="M240.4 56.1L246 61.9L246.4 55.3L240.4 56.1Z" fill="#C0C5CB"/>
<path d="M167.6 28.1L139.2 32.8C136.4 33.3 133.7 31.4 133.2 28.5L132.8 26.1C132.3 23.3 134.3 20.6 137.1 20.1L165.5 15.4C168.3 14.9 171 16.8 171.5 19.7L171.9 22.1C172.4 24.9 170.5 27.6 167.6 28.1Z" fill="#C0C5CB"/>
<path d="M161.5 28.5L169.8 32.4L167.5 25.2L161.5 28.5Z" fill="#C0C5CB"/>
<path d="M91.8 22.1L94.8 25C94.9 25.1 94.9 25.1 95 25.1C95.1 25.1 95.2 25.1 95.2 25C95.3 24.9 95.3 24.9 95.3 24.8C95.3 24.7 95.3 24.6 95.2 24.6L92.2 21.7L92.1 21.6H92H91.9C91.9 21.6 91.8 21.6 91.8 21.7L91.7 21.8V21.9V22C91.7 22.1 91.8 22.1 91.8 22.1Z" fill="#191919"/>
<path d="M97.1 18.8C97.3 20.2 97.5 21.6 97.7 23C97.7 23.2 97.9 23.3 98.1 23.2C98.3 23.1 98.4 23 98.3 22.8C98.1 21.4 97.9 20 97.7 18.6C97.7 18.4 97.5 18.3 97.3 18.4C97.1 18.4 97 18.6 97.1 18.8Z" fill="#191919"/>
<path d="M211.2 15.8C211.5 15.8 211.8 15.9 212.1 16C212.2 16 212.4 16.1 212.5 16.1C212.6 16.1 212.6 16.2 212.7 16.2C212.6 16.2 212.7 16.2 212.7 16.2L212.8 16.3C213.1 16.4 213.3 16.6 213.6 16.7C213.7 16.8 213.9 16.9 214 17L214.1 17.1C214.2 17.1 214.2 17.2 214.3 17.2C214.5 17.4 214.8 17.6 215 17.8C215 17.9 215.1 17.9 215.1 18L215.2 18.1C215.3 18.2 215.4 18.4 215.5 18.5C215.7 18.8 215.8 19.1 216 19.3V19.4C216 19.4 216 19.4 216 19.5C216 19.5 216 19.6 216 19.5C216 19.5 216 19.5 216 19.6V19.7C216.1 19.9 216.1 20 216.2 20.2C216.3 20.4 216.3 20.5 216.3 20.7C216.3 20.8 216.3 20.9 216.4 21V21.1V21.2C216.4 21.2 216.4 21.3 216.4 21.2C216.4 21.6 216.5 21.9 216.5 22.3C216.5 22.4 216.5 22.5 216.6 22.5C216.7 22.6 216.7 22.6 216.8 22.6C216.9 22.6 217 22.6 217 22.5C217.1 22.4 217.1 22.4 217.1 22.3C217.1 20.9 216.8 19.6 216.1 18.4C215.6 17.5 214.9 16.8 214 16.2C213.2 15.6 212.2 15.2 211.2 15.1C211 15.1 210.8 15.1 210.8 15.3C210.9 15.5 211 15.7 211.2 15.8Z" fill="#191919"/>
<path d="M214.2 11.6C214.5 11.6 214.8 11.7 215.1 11.8C215.2 11.8 215.4 11.9 215.5 11.9C215.6 11.9 215.6 12 215.7 12C215.6 12 215.7 12 215.7 12L215.8 12.1C216.1 12.2 216.3 12.4 216.6 12.5C216.7 12.6 216.9 12.7 217 12.8C217 12.8 217.1 12.8 217.1 12.9C217.2 12.9 217.2 13 217.3 13C217.5 13.2 217.8 13.4 218 13.6C218 13.7 218.1 13.7 218.1 13.8C218.1 13.8 218.1 13.9 218.2 13.9C218.3 14 218.4 14.2 218.5 14.3C218.7 14.6 218.8 14.9 219 15.1V15.2V15.3C219 15.3 219 15.4 219 15.3V15.4V15.5C219.1 15.7 219.1 15.8 219.2 16C219.3 16.2 219.3 16.3 219.3 16.5C219.3 16.6 219.3 16.7 219.4 16.8V16.9C219.4 16.9 219.4 16.9 219.4 17C219.4 17 219.4 17.1 219.4 17C219.4 17.4 219.5 17.7 219.5 18.1C219.5 18.2 219.5 18.3 219.6 18.3C219.7 18.4 219.7 18.4 219.8 18.4C219.9 18.4 220 18.4 220 18.3C220.1 18.2 220.1 18.2 220.1 18.1C220.1 16.7 219.8 15.4 219.1 14.2C218.6 13.3 217.9 12.6 217 12C216.2 11.4 215.2 11 214.2 10.9C214 10.9 213.8 10.9 213.8 11.1C213.9 11.3 214 11.6 214.2 11.6Z" fill="#191919"/>
<path d="M29.6 113.2C29.6 113.2 31.4 115.5 32.2 115.2" stroke="#191919" stroke-width="0.2172" stroke-linecap="round" stroke-linejoin="round"/>
<path d="M29.6 89.9C29.6 89.9 28.7 90 28.6 90.2" stroke="#191919" stroke-width="0.2172" stroke-linecap="round" stroke-linejoin="round"/>
<path d="M27.7 124.3C31.7 123.2 42.6 120.9 51 126.1C51.4 126.3 51.7001 126.7 51.9001 127.1C52.1001 127.5 52.2001 128 52.2001 128.4L51.6 139.5C51.6 139.9 51.5 140.2 51.3 140.5C51.1 140.8 50.9 141.1 50.6 141.3C50.3 141.5 50.0001 141.7 49.7001 141.8C49.4001 141.9 49 141.9 48.6 141.9L26.1 138.4C25.8 138.3 25.4 138.2 25.1 138C24.8 137.8 24.6 137.6 24.4 137.3C24.2 137 24.1 136.7 24 136.4C23.9 136.1 23.9 135.7 24 135.4L25.8 126.3C25.9 125.8 26.1 125.4 26.4 125.1C26.9 124.6 27.3 124.4 27.7 124.3Z" fill="#EB6422"/>
<path d="M114.5 120.8C118.5 118.9 129.1 114.4 139.3 114.9C139.7 114.9 140 115 140.3 115.3C140.6 115.5 140.8 115.8 140.9 116.2L143.2 123.3L113.8 130.7L113 123.6C112.9 123 113.1 122.5 113.3 122C113.5 121.5 114 121.1 114.5 120.8Z" fill="#228EEB"/>
<path d="M28.4 135.5L27.8 135.6C22 136 17.5 139.6 16.2 146.2L14 157.7H54.9L55.6 151.2C56.4 143.2 54.7 138.9 47.1 136.5C40.6 134.8 34.4 134.6 28.4 135.5Z" fill="#EB6422"/>
<path d="M284.9 157.7H257.7L255.1 112.3C250.8 108.5 245.7 93.6 248.5 77.6L273.7 93L284.9 157.7Z" fill="#F9D1BD"/>
<path d="M270.6 99.2L270.1 99.1L270.6 99.2Z" fill="#C8C8C8"/>
<path d="M261.4 97.5L264.5 98.1L261.4 97.5Z" fill="white"/>
<path d="M263.2 87.9L261.4 97.4L264.5 98L266.3 88.5L263.2 87.9Z" fill="white"/>
<path d="M279.6 66.3H279.8L278.2 74.9H278.1L279.6 66.3Z" fill="white"/>
<path d="M259.5 97.2L250.9 95.6L259.5 97.2Z" fill="#C8C8C8"/>
<path d="M249.6 97.2L269.4 102.8C270.4 103.1 271.5 103 272.4 102.4C273.3 101.9 274 101 274.3 100L287.5 53.3C287.6 52.8 287.7 52.3 287.6 51.8C287.5 51.3 287.4 50.8 287.1 50.3C286.8 49.8 286.5 49.4 286.1 49.1C285.7 48.8 285.2 48.5 284.7 48.4L264.9 42.8C263.9 42.5 262.8 42.6 261.9 43.2C261 43.7 260.3 44.6 260 45.6L246.8 92.3C246.7 92.8 246.6 93.3 246.7 93.8C246.8 94.3 246.9 94.8 247.2 95.3C247.5 95.8 247.8 96.2 248.2 96.5C248.7 96.8 249.1 97 249.6 97.2Z" fill="#191919"/>
<path d="M250.6 92.3L271.1 98.1C271.7 98.3 272.3 98.2 272.8 97.9C273.3 97.6 273.7 97.1 273.8 96.6L286.2 52.6C286.3 52.3 286.3 52 286.3 51.7C286.3 51.4 286.2 51.1 286 50.9C285.8 50.7 285.7 50.4 285.4 50.2C285.2 50 284.9 49.9 284.6 49.8L264.1 44C263.5 43.8 262.9 43.9 262.4 44.2C261.9 44.5 261.5 45 261.4 45.5L249 89.5C248.9 89.8 248.9 90.1 248.9 90.4C248.9 90.7 249 91 249.2 91.2C249.3 91.5 249.5 91.7 249.8 91.9C250 92.1 250.3 92.3 250.6 92.3Z" fill="white"/>
<path d="M279.8 78.6L277.2 89.9C277.2 89.9 268.2 94.9 269.9 107.4L275.4 116.7L281.9 103.5C282.6 102.6 282.9 99.7 283.2 98.6L286.6 80.2L279.8 78.6Z" fill="#F9D1BD"/>
<path d="M277.2 113.2C277.2 113.2 275.4 115.5 274.6 115.2" stroke="#191919" stroke-width="0.2172" stroke-linecap="round" stroke-linejoin="round"/>
<path d="M277.2 89.9C277.2 89.9 278.1 90 278.2 90.2" stroke="#191919" stroke-width="0.2172" stroke-linecap="round" stroke-linejoin="round"/>
<path d="M279.1 124.3C275.1 123.2 264.2 120.9 255.8 126.1C255.4 126.3 255.1 126.7 254.9 127.1C254.7 127.5 254.6 128 254.6 128.4L255.2 139.5C255.2 139.9 255.3 140.2 255.5 140.5C255.7 140.8 255.9 141.1 256.2 141.3C256.5 141.5 256.8 141.7 257.1 141.8C257.4 141.9 257.8 141.9 258.2 141.9L280.7 138.4C281 138.3 281.4 138.2 281.7 138C282 137.8 282.2 137.6 282.4 137.3C282.6 137 282.7 136.7 282.8 136.4C282.9 136.1 282.9 135.7 282.8 135.4L281 126.3C280.9 125.8 280.7 125.4 280.4 125.1C280.1 124.8 279.5 124.4 279.1 124.3Z" fill="white"/>
<path d="M278.4 135.5C284.2 135.1 289.4 139.7 290.6 146.2L292.7 157.7H251.8L251.1 151.2C250.3 143.2 255.6 136.2 262.5 136L278.4 135.5Z" fill="#217B56"/>
<path d="M138.2 121.5C143.9 119.8 151.4 127.4 152.6 133.7L159.4 158H113.8L110.4 139.6C109.6 131.8 115.8 127.3 122.6 125.5L138.2 121.5Z" fill="#228EEB"/>
<path d="M114.1 94.4C114.1 94.4 117.3 94.3 117.9 92.5" stroke="#191919" stroke-width="0.2172" stroke-linecap="round" stroke-linejoin="round"/>
<path d="M191.6 89.5C191.6 89.5 194.8 90.2 195.7 88.5" stroke="#191919" stroke-width="0.2172" stroke-linecap="round" stroke-linejoin="round"/>
<path d="M181.4 101.9C181.8 103.1 182.1 104.4 182.3 105.6C183.1 110.5 179 117 180 127.8C181 138.6 179.8 157.7 179.8 157.7H218.9C218.9 157.7 214.6 131.3 213.8 123.7C213 116 208.3 106.2 209.3 103.7C210.3 101.2 210.7 98.5 206.8 99.1C202.8 99.7 189 101.6 184.8 99.2C180.7 96.9 181.4 101.9 181.4 101.9Z" fill="#EB2227"/>
<path d="M205.1 77.5L184.5 77.3C183.4 77.3 182.4 76.9 181.7 76.1C181 75.3 180.6 74.3 180.6 73.3L181.1 24.8C181.1 23.7 181.5 22.7 182.3 22C183.1 21.3 184.1 20.9 185.1 20.9L205.7 21.1C206.2 21.1 206.7 21.2 207.2 21.4C207.7 21.6 208.1 21.9 208.5 22.3C208.9 22.7 209.2 23.1 209.4 23.6C209.6 24.1 209.7 24.6 209.7 25.1L209.2 73.6C209.2 74.1 209.1 74.6 208.9 75.1C208.7 75.6 208.4 76 208 76.4C207.6 76.8 207.2 77.1 206.7 77.2C206.1 77.5 205.6 77.5 205.1 77.5Z" fill="#191919"/>
<path d="M205.5 72.6L184.2 72.4C183.9 72.4 183.6 72.3 183.4 72.2C183.1 72.1 182.9 71.9 182.7 71.7C182.5 71.5 182.3 71.2 182.2 71C182.1 70.7 182 70.4 182 70.2L182.4 24.5C182.4 24.2 182.5 23.9 182.6 23.7C182.7 23.4 182.9 23.2 183.1 23C183.3 22.8 183.6 22.6 183.8 22.5C184.1 22.4 184.4 22.3 184.6 22.3L205.9 22.5C206.2 22.5 206.5 22.6 206.7 22.7C207 22.8 207.2 23 207.4 23.2C207.6 23.4 207.8 23.7 207.9 23.9C208 24.2 208.1 24.5 208.1 24.7L207.7 70.4C207.7 70.7 207.6 71 207.5 71.2C207.4 71.5 207.2 71.7 207 71.9C206.8 72.1 206.5 72.3 206.3 72.4C206.1 72.5 205.8 72.6 205.5 72.6Z" fill="white"/>
<path d="M211.1 57C211.1 57 205.4 51.2 209.9 47.6C212.6 45.4 211.1 57 211.1 57Z" fill="#F9D1BD"/>
<path d="M210.3 48.1C210.3 48.1 204.6 42.3 209.1 38.7C211.8 36.6 210.3 48.1 210.3 48.1Z" fill="#F9D1BD"/>
<path d="M175.3 66.3C175.4 66.1 175 60.9 175 56.7C174.9 51.8 174.1 46.3 174.3 44.1C174.3 43.5 175 42.5 175.7 42.6C177.3 42.9 181.5 44.6 181.3 52C181.3 53.5 181.1 55.1 180.8 56.6L180.7 68.6L175.3 66.3Z" fill="#F9D1BD"/>
<path d="M214 52L209.8 45.8" stroke="#191919" stroke-width="0.2172" stroke-linecap="round" stroke-linejoin="round"/>
<path d="M209.3 54.6C209.3 54.6 210.8 56.9 210.7 57.3C210.6 57.7 209 62.3 209 62.3" stroke="#191919" stroke-width="0.2172" stroke-linecap="round" stroke-linejoin="round"/>
<path d="M208.9 104.7C208.9 104.7 207.1 105.6 205.4 105.6" stroke="white" stroke-width="0.2172" stroke-linecap="round" stroke-linejoin="round"/>
<path d="M254.5 127L255.3 138.3C255.3 138.3 248.7 145.7 251.5 154.7" stroke="#191919" stroke-width="0.2172" stroke-linecap="round" stroke-linejoin="round"/>
<path d="M292.3 155.1C292.3 155.1 291.7 151.8 290.3 144.8C288.9 137.8 281.8 135.8 281.8 135.8L280.7 125.4C280.7 125.4 278.4 121.9 263.4 123.2" stroke="#191919" stroke-width="0.2172" stroke-linecap="round" stroke-linejoin="round"/>
<path d="M281.7 135.8C280.2 135.6 278.7 135.5 277.2 135.5" stroke="#191919" stroke-width="0.2172" stroke-linecap="round" stroke-linejoin="round"/>
<path d="M274.3 127C274.3 127.2 275.2 135 275.2 135" stroke="#191919" stroke-width="0.2172" stroke-linecap="round" stroke-linejoin="round"/>
<path d="M267.7 126.5C267.7 126.8 268.6 134.5 268.6 134.5" stroke="#191919" stroke-width="0.2172" stroke-linecap="round" stroke-linejoin="round"/>
<path d="M260.9 126.5C260.9 126.8 261.8 134.5 261.8 134.5" stroke="#191919" stroke-width="0.2172" stroke-linecap="round" stroke-linejoin="round"/>
<path d="M205.8 23.8H201.1C200.6 23.8 200.3 24.2 200.3 24.6V25.7C200.3 26.2 200.7 26.5 201.1 26.5H205.8C206.3 26.5 206.6 26.1 206.6 25.7V24.6C206.7 24.2 206.3 23.8 205.8 23.8Z" fill="#F6FAF3"/>
<path d="M201.7 24.3C201.3 24.3 201.1 24.5 201.1 24.9V25.6C201.1 25.9 201.3 26.2 201.7 26.2C202 26.2 202.3 26 202.3 25.6V24.9C202.2 24.6 202 24.3 201.7 24.3Z" fill="#191919"/>
<path d="M203.4 24.3C203 24.3 202.8 24.5 202.8 24.9V25.6C202.8 25.9 203 26.2 203.4 26.2C203.7 26.2 204 26 204 25.6V24.9C204 24.6 203.7 24.3 203.4 24.3Z" fill="#191919"/>
<path d="M205.1 24.3C204.7 24.3 204.5 24.5 204.5 24.9V25.6C204.5 25.9 204.7 26.2 205.1 26.2C205.4 26.2 205.7 26 205.7 25.6V24.9C205.7 24.6 205.4 24.3 205.1 24.3Z" fill="#191919"/>
<path d="M184.4 26.2H184.9V24.5H184.5V24.3C184.7 24.3 184.8 24.2 185 24.1H185.2V26.2H185.7V26.4H184.4V26.2Z" fill="#191919"/>
<path d="M186.1 25.2C186.1 24.4 186.4 24 186.8 24C187.3 24 187.5 24.4 187.5 25.2C187.5 26 187.2 26.4 186.8 26.4C186.4 26.5 186.1 26 186.1 25.2ZM187.3 25.2C187.3 24.5 187.1 24.2 186.8 24.2C186.5 24.2 186.3 24.5 186.3 25.2C186.3 25.9 186.5 26.2 186.8 26.2C187.1 26.2 187.3 25.9 187.3 25.2Z" fill="#191919"/>
<path d="M188 24.9C188 24.8 188 24.8 188.1 24.7C188.1 24.7 188.1 24.7 188.2 24.6H188.3H188.4C188.4 24.6 188.5 24.6 188.5 24.7C188.5 24.7 188.5 24.7 188.5 24.8V24.9V25V25.1C188.5 25.1 188.5 25.1 188.4 25.2H188.3H188.2C188.2 25.2 188.1 25.2 188.1 25.1C188.1 25.1 188 25 188 24.9C188 24.9 188 25 188 24.9ZM188 26.2C188 26.1 188 26.1 188.1 26C188.1 26 188.1 26 188.2 25.9H188.3H188.4C188.4 25.9 188.5 25.9 188.5 26C188.5 26 188.5 26 188.5 26.1V26.2V26.3V26.4C188.5 26.4 188.5 26.4 188.4 26.5H188.3H188.2C188.2 26.5 188.1 26.5 188.1 26.4C188.1 26.4 188 26.3 188 26.2C188 26.3 188 26.3 188 26.2Z" fill="#191919"/>
<path d="M188.9 25.2C188.9 24.4 189.2 24 189.6 24C190.1 24 190.3 24.4 190.3 25.2C190.3 26 190 26.4 189.6 26.4C189.2 26.4 188.9 26 188.9 25.2ZM190.1 25.2C190.1 24.5 189.9 24.2 189.6 24.2C189.3 24.2 189.1 24.5 189.1 25.2C189.1 25.9 189.3 26.2 189.6 26.2C189.9 26.2 190.1 25.9 190.1 25.2Z" fill="#191919"/>
<path d="M190.7 25.2C190.7 24.4 191 24 191.4 24C191.9 24 192.1 24.4 192.1 25.2C192.1 26 191.8 26.4 191.4 26.4C191 26.5 190.7 26 190.7 25.2ZM191.9 25.2C191.9 24.5 191.7 24.2 191.4 24.2C191.1 24.2 190.9 24.5 190.9 25.2C190.9 25.9 191.1 26.2 191.4 26.2C191.7 26.2 191.9 25.9 191.9 25.2Z" fill="#191919"/>
<path d="M282.8 54L279.3 53.1C278.9 53 278.6 52.8 278.5 52.5C278.3 52.2 278.3 51.8 278.4 51.5C278.5 51.1 278.7 50.8 279 50.7C279.3 50.5 279.7 50.5 280 50.6L283.5 51.5C283.9 51.6 284.2 51.8 284.3 52.1C284.5 52.4 284.5 52.8 284.4 53.1C284.3 53.5 284.1 53.8 283.8 53.9C283.6 54 283.2 54.1 282.8 54Z" fill="#191919"/>
<path d="M279.5 52.6C279.4 52.6 279.4 52.5 279.3 52.5C279.2 52.5 279.2 52.4 279.2 52.3C279.2 52.2 279.1 52.2 279.1 52.1C279.1 52 279.1 51.9 279.1 51.9L279.3 51.3C279.3 51.2 279.4 51 279.6 50.9C279.7 50.8 279.9 50.8 280 50.8C280.1 50.8 280.1 50.9 280.2 50.9C280.3 50.9 280.3 51 280.3 51.1C280.3 51.2 280.4 51.2 280.4 51.3C280.4 51.4 280.4 51.5 280.4 51.5L280.2 52.1C280.2 52.2 280.1 52.4 279.9 52.5C279.8 52.6 279.6 52.6 279.5 52.6Z" fill="#F6FAF3"/>
<path d="M281.1 53C281 53 281 52.9 280.9 52.9C280.8 52.9 280.8 52.8 280.8 52.7C280.8 52.6 280.7 52.6 280.7 52.5C280.7 52.4 280.7 52.3 280.7 52.3L280.9 51.7C280.9 51.6 281 51.6 281 51.5C281 51.4 281.1 51.4 281.2 51.3C281.3 51.3 281.3 51.2 281.4 51.2C281.5 51.2 281.6 51.2 281.6 51.2C281.7 51.2 281.7 51.3 281.8 51.3C281.9 51.3 281.9 51.4 281.9 51.5C281.9 51.6 282 51.6 282 51.7C282 51.8 282 51.9 282 51.9L281.8 52.5C281.8 52.6 281.7 52.6 281.7 52.7C281.7 52.8 281.6 52.8 281.5 52.8C281.4 52.8 281.4 52.9 281.3 52.9C281.3 53.1 281.2 53.1 281.1 53Z" fill="#F6FAF3"/>
<path d="M282.8 53.5C282.7 53.5 282.7 53.4 282.6 53.4C282.5 53.4 282.5 53.3 282.4 53.2C282.4 53.1 282.3 53.1 282.3 53C282.3 52.9 282.3 52.8 282.3 52.8L282.5 52.2C282.5 52.1 282.6 52.1 282.6 52C282.6 51.9 282.7 51.9 282.8 51.9C282.9 51.9 282.9 51.8 283 51.8C283.1 51.8 283.2 51.8 283.2 51.8C283.3 51.8 283.3 51.9 283.4 51.9C283.5 51.9 283.5 52 283.5 52.1C283.5 52.2 283.6 52.2 283.6 52.3C283.6 52.4 283.6 52.5 283.6 52.5L283.4 53.1C283.4 53.2 283.3 53.4 283.1 53.5C283.1 53.5 282.9 53.5 282.8 53.5Z" fill="#F6FAF3"/>
<path d="M262.8 48.3L263.3 48.4L263.7 46.7L263.3 46.6V46.4C263.5 46.4 263.7 46.4 263.8 46.4L264 46.5L263.5 48.5L264 48.6L263.9 48.8L262.6 48.5L262.8 48.3Z" fill="#F6FAF3"/>
<path d="M264.7 47.8C264.9 47 265.3 46.7 265.7 46.8C266.2 46.9 266.3 47.4 266.1 48.1C265.9 48.9 265.5 49.2 265.1 49.1C264.6 49 264.5 48.5 264.7 47.8ZM265.8 48.1C266 47.4 265.9 47.1 265.6 47.1C265.3 47 265.1 47.3 264.9 47.9C264.7 48.5 264.8 48.9 265.1 49C265.4 49 265.7 48.8 265.8 48.1Z" fill="#F6FAF3"/>
<path d="M266.6 48C266.6 47.9 266.6 47.9 266.6 48C266.7 47.9 266.7 47.9 266.7 47.9H266.8H266.9H267C267 47.9 267 47.9 267.1 48V48.1V48.2V48.3C267.1 48.3 267.1 48.3 267 48.4H266.9H266.8H266.7C266.7 48.4 266.7 48.4 266.6 48.3C266.6 48.1 266.6 48.1 266.6 48ZM266.2 49.2C266.3 49.2 266.3 49.2 266.2 49.2C266.3 49.1 266.3 49.1 266.3 49.1H266.4H266.5H266.6C266.6 49.1 266.6 49.1 266.7 49.2V49.3V49.4V49.5C266.7 49.5 266.7 49.5 266.6 49.6H266.5H266.4H266.3C266.3 49.6 266.3 49.6 266.2 49.5C266.1 49.4 266.2 49.3 266.2 49.2C266.2 49.3 266.2 49.3 266.2 49.2Z" fill="#F6FAF3"/>
<path d="M267.3 48.5C267.5 47.7 267.9 47.4 268.3 47.5C268.8 47.6 268.9 48.1 268.7 48.8C268.5 49.6 268.1 49.9 267.7 49.8C267.3 49.7 267.1 49.2 267.3 48.5ZM268.5 48.8C268.7 48.1 268.6 47.8 268.3 47.8C268 47.7 267.8 48 267.6 48.6C267.4 49.3 267.5 49.6 267.8 49.7C268 49.7 268.3 49.5 268.5 48.8Z" fill="#F6FAF3"/>
<path d="M269.1 48.9C269.3 48.1 269.7 47.8 270.1 47.9C270.6 48 270.7 48.5 270.5 49.3C270.3 50.1 269.9 50.4 269.5 50.3C269 50.2 268.9 49.7 269.1 48.9ZM270.2 49.3C270.4 48.6 270.3 48.3 270 48.3C269.7 48.2 269.5 48.5 269.3 49.1C269.1 49.8 269.2 50.1 269.5 50.2C269.8 50.2 270 49.9 270.2 49.3Z" fill="#F6FAF3"/>
<path d="M26.3 82.7L30.1 77C32.5 72.2 33.1 70.6 30.3 68L21.1 77.8C20.5 78.5 20.1 79.4 20.2 80.3C20.2 81.2 20.6 82.1 21.3 82.8C22 83.4 22.9 83.8 23.8 83.7C24.8 83.8 25.7 83.3 26.3 82.7Z" fill="#F9D1BD"/>
<path d="M32 68.8L29.2 71.6C29 71.8 28.8 71.9 28.5 71.9C28.2 71.9 28 71.8 27.8 71.6C27.6 71.4 27.5 71.2 27.5 70.9C27.5 70.6 27.6 70.4 27.8 70.2L30.6 67.4C30.8 67.2 31 67.1 31.3 67.1C31.6 67.1 31.8 67.2 32 67.4C32.2 67.6 32.3 67.8 32.3 68.1C32.3 68.4 32.2 68.6 32 68.8Z" fill="#FFC6C2"/>
<path d="M27.5 80.8C27.5 80.8 26.2 79.9 25.9 80.1" stroke="#191919" stroke-width="0.2172" stroke-linecap="round" stroke-linejoin="round"/>
<path d="M49.9001 69.7L55.0001 66.5C55.7001 66 56.2001 65.2 56.3001 64.3C56.4001 63.4 56.2001 62.5 55.7001 61.8L55.5001 61.6C55.0001 60.9 54.2001 60.4 53.3001 60.3C52.4001 60.2 51.5001 60.4 50.8001 60.9L46.2001 65.7C43.0001 68 46.2001 72.5 49.9001 69.7Z" fill="#F9D1BD"/>
<path d="M50 67.9L47.2 70.2C46.9 70.4 46.5 70.6 46.1 70.5C45.7 70.5 45.4 70.3 45.1 70C44.9 69.7 44.7 69.3 44.8 68.9C44.8 68.5 45 68.2 45.3 67.9L48.1 65.6C48.4 65.4 48.8 65.2 49.2 65.3C49.6 65.3 49.9 65.5 50.2 65.8C50.4 66.1 50.6 66.5 50.5 66.9C50.4 67.3 50.3 67.6 50 67.9Z" fill="#FFC6C2"/>
<path d="M53.6 75.8L57.5 72.9C58.6 71.9 58.5 69.9 57.2 68.5L57 68.2C55.7 66.8 53.8 66.6 52.7 67.6L49.5 72C47.1 74.3 50.8 78.4 53.6 75.8Z" fill="#F9D1BD"/>
<path d="M54 73.5L51.3 76.2C51 76.5 50.7 76.6 50.3 76.6C49.9 76.6 49.6 76.4 49.3 76.2C49 75.9 48.9 75.6 48.9 75.2C48.9 74.8 49.1 74.5 49.3 74.2L52 71.5C52.3 71.2 52.6 71.1 53 71.1C53.4 71.1 53.7 71.3 54 71.5C54.3 71.8 54.4 72.1 54.4 72.5C54.4 72.9 54.3 73.2 54 73.5Z" fill="#FFC6C2"/>
<path d="M55.5999 80.5L59.3999 78.4C60.4999 77.6 60.5999 75.9 59.6999 74.5L59.4999 74.3C58.4999 72.9 56.7999 72.4 55.6999 73.2L52.3999 76.7C50.0999 78.3 52.8999 82.4 55.5999 80.5Z" fill="#F9D1BD"/>
<path d="M56.2999 78.5L53.4999 80.6C53.1999 80.8 52.8999 80.9 52.4999 80.8C52.1999 80.8 51.7999 80.6 51.5999 80.3C51.3999 80 51.2999 79.7 51.3999 79.3C51.3999 79 51.5999 78.6 51.8999 78.4L54.6999 76.3C54.9999 76.1 55.2999 76 55.6999 76.1C55.9999 76.1 56.3999 76.3 56.5999 76.6C56.7999 76.9 56.8999 77.2 56.7999 77.6C56.7999 77.9 56.5999 78.2 56.2999 78.5Z" fill="#FFC6C2"/>
<path d="M52.3 76.9C52.4 76.8 56.4001 72.8 56.4001 72.8" stroke="#191919" stroke-width="0.2172" stroke-linecap="round" stroke-linejoin="round"/>
<path d="M49.8 69.8C49.9 69.7 55.6 66 55.6 66" stroke="#191919" stroke-width="0.2172" stroke-linecap="round" stroke-linejoin="round"/>
<path d="M21.9 143.3C22.5 143.3 23 142.8 23 142.2C23 141.6 22.5 141.1 21.9 141.1C21.3 141.1 20.8 141.6 20.8 142.2C20.8 142.9 21.3 143.3 21.9 143.3Z" fill="#F6FAF3"/>
<path d="M34.9001 142.3C35.5001 142.3 36 141.8 36 141.2C36 140.6 35.5001 140.1 34.9001 140.1C34.3001 140.1 33.8 140.6 33.8 141.2C33.8 141.8 34.3001 142.3 34.9001 142.3Z" fill="#F6FAF3"/>
<path d="M32.2 156.2C32.8 156.2 33.3 155.7 33.3 155.1C33.3 154.5 32.8 154 32.2 154C31.6 154 31.1 154.5 31.1 155.1C31.1 155.7 31.6 156.2 32.2 156.2Z" fill="#F6FAF3"/>
<path d="M40.5 150.1C41.1 150.1 41.6 149.6 41.6 149C41.6 148.4 41.1 147.9 40.5 147.9C39.9 147.9 39.4 148.4 39.4 149C39.4 149.6 39.9 150.1 40.5 150.1Z" fill="#F6FAF3"/>
<path d="M26.7999 150.1C27.3999 150.1 27.9 149.6 27.9 149C27.9 148.4 27.3999 147.9 26.7999 147.9C26.1999 147.9 25.7 148.4 25.7 149C25.7 149.6 26.1999 150.1 26.7999 150.1Z" fill="#F6FAF3"/>
<path d="M47.9001 144.8C48.5001 144.8 49 144.3 49 143.7C49 143.1 48.5001 142.6 47.9001 142.6C47.3001 142.6 46.8 143.1 46.8 143.7C46.8 144.4 47.3001 144.8 47.9001 144.8Z" fill="#F6FAF3"/>
<path d="M47.2 155.6C47.8 155.6 48.3 155.1 48.3 154.5C48.3 153.9 47.8 153.4 47.2 153.4C46.6 153.4 46.1 153.9 46.1 154.5C46.1 155.1 46.7 155.6 47.2 155.6Z" fill="#F6FAF3"/>
<path d="M19.5 155.1C20.1 155.1 20.6 154.6 20.6 154C20.6 153.4 20.1 152.9 19.5 152.9C18.9 152.9 18.4 153.4 18.4 154C18.4 154.7 18.9 155.1 19.5 155.1Z" fill="#F6FAF3"/>
<path d="M112.9 112.8C112.9 112.8 132.8 104.4 131.4 95" stroke="#191919" stroke-width="0.2172" stroke-linecap="round" stroke-linejoin="round"/>
<path d="M118 83.8C117.8 83.6 123.2 75 121.7 68.8C120.8 65.2 116.9 58.2 116.9 58.2L108.9 51.3C108 50.5 106.2 50.8 105.6 51.8C104.6 53.4 104.4 55.8 107.7 58.6C108.3 59.1 110.7 61.1 112 62.8C113.1 64.3 113.1 66.4 113.5 67.8C113.8 68.6 112.8 73 112.6 76.6C112.3 87.6 116.6 87.7 116.6 87.7L118 83.8Z" fill="#F9D1BD"/>
<path d="M108.1 55.3L106.8 53.8C106.5 53.5 106.4 53.1 106.4 52.6C106.4 52.2 106.6 51.8 106.9 51.5C107.2 51.2 107.6 51.1 108.1 51.1C108.5 51.1 108.9 51.3 109.2 51.6L110.5 53.1C110.8 53.4 110.9 53.8 110.9 54.3C110.9 54.7 110.7 55.1 110.4 55.4C110.1 55.7 109.7 55.8 109.2 55.8C108.8 55.8 108.4 55.6 108.1 55.3Z" stroke="#191919" stroke-width="0.2172" stroke-linecap="round" stroke-linejoin="round"/>
<path d="M114.6 59.2C114.6 59.2 115.5 58.3 116 58.4" stroke="#191919" stroke-width="0.2172" stroke-linecap="round" stroke-linejoin="round"/>
<path d="M115.3 69.7C114.7 69.5 114 69.5 113.5 69.7" stroke="#191919" stroke-width="0.2172" stroke-linecap="round" stroke-linejoin="round"/>
<path d="M123.1 69.9C123.1 69.9 120 64.4 118.9 62.2" stroke="#191919" stroke-width="0.2172" stroke-linecap="round" stroke-linejoin="round"/>
<path d="M113.4 84C113.4 84 114 86.6 116 87.5" stroke="#191919" stroke-width="0.2172" stroke-linecap="round" stroke-linejoin="round"/>
<path d="M105.2 70.7C105.2 70.7 105.4 70.9 105.7 70.8" stroke="#191919" stroke-width="0.1082" stroke-linecap="round" stroke-linejoin="round"/>
<path d="M106.8 77.8C106.8 77.7 106.6 77.1 106.9 76.6" stroke="#191919" stroke-width="0.1082" stroke-linecap="round" stroke-linejoin="round"/>
<path d="M98 77.5L98.4 76.6V76.3" stroke="#191919" stroke-width="0.1082" stroke-linecap="round" stroke-linejoin="round"/>
<path d="M108.4 70.7C108.4 70.7 108.7 70.4 108.9 70.5" stroke="#191919" stroke-width="0.1082" stroke-linecap="round" stroke-linejoin="round"/>
<path d="M138.3 23.9L165.7 19.2" stroke="#F6FAF3" stroke-width="0.4199" stroke-linecap="round" stroke-linejoin="round"/>
<path d="M138.9 27.7L153.1 25.3" stroke="#F6FAF3" stroke-width="0.4199" stroke-linecap="round" stroke-linejoin="round"/>
<path d="M250.9 39.3C254.7 39.3 257.7 36.2 257.7 32.5C257.7 28.7 254.6 25.7 250.9 25.7C247.2 25.7 244.1 28.8 244.1 32.5C244 36.2 247.1 39.3 250.9 39.3Z" fill="#C0C5CB"/>
<path d="M248.6 29.9L249.4 35.4L254.8 30.1" stroke="#F6FAF3" stroke-width="0.4199" stroke-linecap="round" stroke-linejoin="round"/>
<path d="M232.9 46.7L246 51.6" stroke="#F6FAF3" stroke-width="0.4199" stroke-linecap="round" stroke-linejoin="round"/>
<path d="M257 72.2L251.5 68.8C250.7 68.2 250.2 67.3 250.1 66.4C250 65.4 250.2 64.5 250.8 63.7L251 63.4C251.6 62.6 252.5 62.1 253.4 62C254.4 61.9 255.3 62.1 256.1 62.7L261.1 67.9C264.4 70.4 261 75.2 257 72.2Z" fill="#F9D1BD"/>
<path d="M255.5 62.1L252.6 60.7C251.8 60.1 252 58.4 253 56.9L253.2 56.7C254.2 55.2 255.8 54.4 256.6 55L258.9 57.9C260.6 59 257.6 63.5 255.5 62.1Z" fill="#F9D1BD"/>
<path d="M280.5 82.7L276.7 77C275.6 74.8 274.8 73.3 274.7 72C274.4 69.8 277.1 68.5 278.6 70.1L285.7 77.8C286.3 78.5 286.7 79.4 286.6 80.3C286.6 81.2 286.2 82.1 285.5 82.8C284.8 83.4 283.9 83.8 283 83.7C282 83.8 281.1 83.3 280.5 82.7Z" fill="#F9D1BD"/>
<path d="M279.3 80.8C279.3 80.8 280.6 79.9 280.9 80.1" stroke="#191919" stroke-width="0.2172" stroke-linecap="round" stroke-linejoin="round"/>
<path d="M253 78.8L248.7 75.6C247.5 74.5 247.6 72.4 249 70.9L249.2 70.7C250.6 69.2 252.7 68.9 253.9 70L257.4 74.8C259.9 77.1 256 81.6 253 78.8Z" fill="#F9D1BD"/>
<path d="M250.8 83.9L246.7 81.7C245.5 80.9 245.4 79 246.4 77.5L246.6 77.2C247.6 75.7 249.5 75.1 250.7 76L254.3 79.8C256.8 81.5 253.8 86 250.8 83.9Z" fill="#F9D1BD"/>
<path d="M254.3 80C254.2 79.9 249.8 75.6 249.8 75.6" stroke="#191919" stroke-width="0.2351" stroke-linecap="round" stroke-linejoin="round"/>
<path d="M257.1 72.3C257 72.2 250.8 68.2 250.8 68.2" stroke="#191919" stroke-width="0.2351" stroke-linecap="round" stroke-linejoin="round"/>
<path d="M65.6 108.4C66.4 108.4 67 107.8 67 107C67 106.2 66.4 105.6 65.6 105.6C64.8 105.6 64.2 106.2 64.2 107C64.2 107.8 64.9 108.4 65.6 108.4Z" stroke="#191919" stroke-width="0.5509" stroke-linecap="round" stroke-linejoin="round"/>
<path d="M243.4 8.8C244.2 8.8 244.8 8.2 244.8 7.4C244.8 6.6 244.2 6 243.4 6C242.6 6 242 6.6 242 7.4C242 8.2 242.6 8.8 243.4 8.8Z" stroke="#191919" stroke-width="0.5509" stroke-linecap="round" stroke-linejoin="round"/>
<path d="M298.7 115.7C299.5 115.7 300.1 115.1 300.1 114.3C300.1 113.5 299.5 112.9 298.7 112.9C297.9 112.9 297.3 113.5 297.3 114.3C297.3 115 298 115.7 298.7 115.7Z" stroke="#191919" stroke-width="0.5509" stroke-linecap="round" stroke-linejoin="round"/>
<path d="M87.4 5.59999L82 8.79999L83.3 2.79999L87.4 5.59999Z" stroke="#191919" stroke-width="0.5509" stroke-linecap="round" stroke-linejoin="round"/>
<path d="M156 81.5L150.4 84.3L147.6 78.7L153.2 75.9L156 81.5Z" stroke="#191919" stroke-width="0.5509" stroke-linecap="round" stroke-linejoin="round"/>
<path d="M56 22.3C54.9 22.2 53.9 23.1 53.8 24.2C53.7 25.4 54.6 26.5 55.4 27.4C56 28.1 56.7 28.8 56.9 29.7C56.9 29.7 56.9 29.8 57 29.8H57.1H57.2C57.2 29.8 57.3 29.8 57.3 29.7C57.5 29.2 57.9 28.8 58.3 28.5C58.9 28 59.7 27.6 60.3 27.2C61 26.7 61.6 26.1 61.7 25.3C61.9 24.5 61.5 23.5 60.7 23.2C60.1 23 59.3 23.2 58.8 23.6C58.4 23.9 58.2 24.2 57.9 24.6C57.8 23.5 57.1 22.4 56 22.3Z" fill="#F6FAF3"/>
<path d="M25.6 27.9C26.4 27.9 27.1 27.2 27.1 26.4C27.1 25.6 26.4 24.9 25.6 24.9C24.8 24.9 24.1 25.6 24.1 26.4C24 27.3 24.7 27.9 25.6 27.9Z" fill="#CEDEDB"/>
<path d="M124.7 8.89999C125.5 8.89999 126.2 8.19999 126.2 7.39999C126.2 6.59999 125.5 5.89999 124.7 5.89999C123.9 5.89999 123.2 6.59999 123.2 7.39999C123.2 8.19999 123.8 8.89999 124.7 8.89999Z" fill="#CEDEDB"/>
<path d="M222.8 89.1C223.6 89.1 224.3 88.4 224.3 87.6C224.3 86.8 223.6 86.1 222.8 86.1C222 86.1 221.3 86.8 221.3 87.6C221.3 88.5 221.9 89.1 222.8 89.1Z" fill="#CEDEDB"/>
<path d="M277 19.7C277.8 19.7 278.5 19 278.5 18.2C278.5 17.4 277.8 16.7 277 16.7C276.2 16.7 275.5 17.4 275.5 18.2C275.4 19 276.1 19.7 277 19.7Z" fill="#CEDEDB"/>
<path d="M1.5 84.1C2.3 84.1 3 83.4 3 82.6C3 81.8 2.3 81.1 1.5 81.1C0.7 81.1 0 81.8 0 82.6C0 83.4 0.7 84.1 1.5 84.1Z" fill="#CEDEDB"/>
<path d="M199.4 3C200.2 3 200.9 2.3 200.9 1.5C200.9 0.7 200.2 0 199.4 0C198.6 0 197.9 0.7 197.9 1.5C197.9 2.4 198.5 3 199.4 3Z" fill="#CEDEDB"/>
<path d="M262.4 112.1C262.4 112.1 264.1 113 265.5 112.1" stroke="#191919" stroke-width="0.2172" stroke-linecap="round" stroke-linejoin="round"/>
<path d="M34.6 64.4L34.4 63.6L34.7 63.5H34.8H34.9C34.9 63.5 35 63.5 35 63.6V63.7C35 63.7 35 63.7 35 63.8C35 63.8 35 63.8 35 63.9C35 63.9 35 63.9 35.1 63.9C35.1 63.9 35.1 63.9 35.2 63.9C35.2 63.9 35.2 63.9 35.2 64V64.1V64.2C35.1 64.3 35.1 64.3 35 64.3L34.6 64.4ZM34.7 63.9H34.8H34.9H34.8H34.7ZM34.7 64L34.8 64.2H34.9L34.7 64Z" fill="#066132"/>
<path d="M35.6001 64.1C35.5001 64.1 35.5001 64.1 35.4001 64.2H35.3001H35.2001C35.2001 64.2 35.2001 64.2 35.1001 64.2C35.1001 64.2 35.1001 64.2 35.1001 64.1V64V63.9C35.1001 63.9 35.1001 63.9 35.2001 63.8H35.3001H35.4001C35.4001 63.8 35.4001 63.8 35.4001 63.7H35.2001V63.6V63.5C35.2001 63.5 35.2001 63.5 35.3001 63.4H35.4001H35.5001H35.6001C35.6001 63.4 35.6001 63.4 35.7001 63.5V63.6L35.8001 63.8L35.6001 64.1ZM35.3001 63.5C35.3001 63.4 35.3001 63.4 35.3001 63.5C35.3001 63.4 35.3001 63.4 35.3001 63.4V63.3C35.4001 63.3 35.4001 63.3 35.5001 63.3L35.3001 63.5ZM35.5001 64C35.6001 64 35.6001 64 35.5001 64L35.6001 63.8H35.5001C35.4001 63.9 35.4001 63.9 35.5001 64C35.4001 64 35.4001 64 35.5001 64C35.4001 64 35.4001 64 35.5001 64C35.4001 64 35.4001 64 35.5001 64Z" fill="#066132"/>
<path d="M35.8 63.8V63.7V63.6C35.8 63.6 35.8001 63.5 35.9001 63.5C35.9001 63.5 36 63.5 36 63.4H36.1H36.2001C36.2001 63.4 36.3 63.4 36.3 63.5C36.3 63.5 36.3001 63.6 36.4001 63.6V63.7V63.8C36.4001 63.8 36.4 63.9 36.3 63.9C36.2 64 36.1 64 36 64H35.9001C35.9001 64 35.8 64 35.8 63.9C35.8 63.8 35.8 63.8 35.8 63.8ZM36 63.7C36 63.7 36 63.8 36 63.7C36 63.8 36 63.8 36.1 63.8C36.1 63.8 36.1001 63.8 36.2001 63.8C36.2001 63.8 36.2001 63.8 36.2001 63.7C36.2001 63.7 36.2001 63.7 36.2001 63.6C36.2001 63.6 36.2001 63.6 36.2001 63.5C36.2001 63.5 36.2 63.5 36.1 63.5C36 63.6 36 63.6 36 63.7Z" fill="#066132"/>
<path d="M37.5001 63.6L37.3001 63.7L37.2001 63.4L36.9001 63.5L37.0001 63.8L36.8001 63.9L36.6001 63L36.8001 62.9L36.9001 63.2L37.2001 63.1L37.1001 62.8L37.3001 62.7L37.5001 63.6Z" fill="#066132"/>
<path d="M37.4 62.9C37.4 62.8 37.4 62.8 37.4 62.9C37.4 62.8 37.4 62.8 37.4 62.9C37.4 62.8 37.4 62.8 37.4 62.9C37.5 62.8 37.5 62.8 37.5 62.8C37.5 62.9 37.5 62.9 37.4 62.9C37.5 62.9 37.5 62.9 37.4 62.9ZM37.8 63.5H37.6L37.5 63H37.7L37.8 63.5Z" fill="#066132"/>
<path d="M38.2001 63.4H38.1H38C38 63.4 37.9001 63.4 37.9001 63.3V63.2V63.1V63C37.9001 63 37.9 62.9 38 62.9C38 62.9 38.1 62.9 38.1 62.8H38.2001H38.3C38.3 62.8 38.4001 62.8 38.4001 62.9C38.4001 62.9 38.4 63 38.5 63V63.1L38 63.2C38 63.2 38 63.3 38.1 63.3H38.2001C38.2001 63.3 38.2 63.3 38.3 63.3C38.3 63.3 38.3001 63.3 38.4001 63.2L38.5 63.3C38.3 63.4 38.3001 63.4 38.2001 63.4ZM38.2001 62.7H38.1H38L37.9001 62.8H37.8L37.9001 62.6H38L38.2001 62.7ZM38.1 63C38 63 38 63 38.1 63C38 63 38 63 38.1 63C38 63.1 38 63 38.1 63C38 63.1 38 63.1 38 63.1H38.2001C38.2001 63 38.2 63 38.1 63ZM38.1 62.7C38.1 62.6 38.1 62.6 38.1 62.7C38.1 62.6 38.1 62.6 38.1 62.7C38.1 62.6 38.1 62.6 38.1 62.7C38.1 62.6 38.1 62.6 38.1 62.6V62.5H38.2001C38.2001 62.6 38.2 62.6 38.1 62.7Z" fill="#066132"/>
<path d="M38.5 62.7C38.6 62.8 38.6 62.7 38.5 62.7C38.6 62.7 38.6 62.7 38.7 62.6H38.8C38.8 62.6 38.9 62.6 38.9 62.7C38.9 62.7 38.9 62.6 39 62.6C39 62.6 39.1 62.6 39.1 62.5H39.2C39.2 62.5 39.2 62.5 39.3 62.5C39.3 62.5 39.3 62.5 39.4 62.6V62.7L39.5 63.1H39.3L39.2 62.7L39.3 63.1H39.1L39 62.7L39.1 63.1H38.9L38.7 62.5L38.5 62.7Z" fill="#066132"/>
<path d="M40.3001 62.4C40.3001 62.5 40.3001 62.5 40.3001 62.6C40.3001 62.7 40.3001 62.7 40.2001 62.8L40.4001 62.9V63L40.2001 62.9H40.1001H40.0001L39.9001 62.8C39.9001 62.8 39.8001 62.7 39.8001 62.6C39.8001 62.5 39.8001 62.5 39.8001 62.4V62.3L39.9001 62.2L40.0001 62.1H40.1001H40.2001L40.3001 62.2C40.3001 62.3 40.3001 62.4 40.3001 62.4ZM40.1001 62.5C40.1001 62.4 40.1001 62.4 40.0001 62.3C40.0001 62.3 40.0001 62.3 39.9001 62.3C39.9001 62.3 39.9001 62.3 39.8001 62.3C39.8001 62.3 39.8001 62.3 39.7001 62.3C39.7001 62.3 39.7001 62.3 39.7001 62.4C39.7001 62.5 39.7001 62.5 39.7001 62.6C39.7001 62.7 39.7001 62.7 39.8001 62.8C39.8001 62.8 39.8001 62.8 39.9001 62.8C39.9001 62.8 39.9001 62.8 40.0001 62.8C40.0001 62.8 40.0001 62.8 40.1001 62.8C40.1001 62.8 40.1001 62.8 40.1001 62.7C40.2001 62.6 40.2001 62.6 40.1001 62.5Z" fill="#066132"/>
<path d="M40.9 62.6C40.9 62.7 40.8 62.7 40.9 62.6C40.8 62.7 40.8 62.7 40.8 62.7H40.7H40.6C40.6 62.7 40.6 62.7 40.5 62.6V62.5L40.4 62.1H40.6L40.7 62.5C40.8 62.6 40.8 62.6 40.9 62.6C40.9 62.5 40.9 62.5 40.9 62.5L40.8 62.1H41L41.2 62.7L40.9 62.6Z" fill="#066132"/>
<path d="M41.5 62.5C41.5 62.5 41.4 62.5 41.5 62.5C41.4 62.5 41.4 62.5 41.3 62.6H41.2H41.1C41.1 62.6 41.1 62.6 41 62.6C41 62.6 41 62.6 41 62.5V62.4V62.3C41 62.3 41 62.3 41.1 62.2H41.2H41.3C41.3 62.2 41.3 62.2 41.3 62.1H41.1V62V61.9C41.1 61.9 41.1 61.9 41.2 61.8H41.3H41.4H41.5C41.5 61.8 41.5 61.8 41.6 61.9V62L41.7 62.2L41.5 62.5ZM41.5 61.8H41.4H41.3L41.2 61.9L41 62L41.1 61.8H41.2H41.5ZM41.4 62.5C41.4 62.4 41.4 62.4 41.4 62.5C41.4 62.4 41.4 62.4 41.4 62.5L41.5 62.3H41.4C41.3 62.4 41.3 62.4 41.4 62.5C41.3 62.4 41.3 62.4 41.4 62.5C41.3 62.4 41.3 62.4 41.4 62.5C41.3 62.4 41.3 62.4 41.4 62.5C41.3 62.5 41.3 62.5 41.4 62.5Z" fill="#066132"/>
<path d="M41.8001 61.8C41.8001 61.9 41.8001 61.9 41.8001 61.8C41.9001 61.8 41.9001 61.8 42.0001 61.7H42.1001C42.1001 61.7 42.1001 61.7 42.2001 61.7C42.2001 61.7 42.2001 61.7 42.3001 61.8V61.9L42.4001 62.3H42.2001L42.0001 62L42.1001 62.4H41.9001L41.7001 61.8H41.8001Z" fill="#066132"/>
<path d="M42.7 62.2L42.6 61.9H42.5V61.8H42.6L42.5 61.5L42.8 61.4C42.9 61.4 42.9 61.4 43 61.4H43.1L43.2 61.5L43.3 61.6C43.3 61.7 43.3 61.7 43.3 61.8V61.9L43.2 62L43.1 62.1L42.7 62.2ZM42.9 61.8H42.8L42.9 62H43C43 62 43 62 43.1 62C43.1 62 43.1 62 43.1 61.9C43.1 61.9 43.1 61.8 42.9 61.8C43 61.6 42.9 61.6 42.9 61.5C42.9 61.5 42.9 61.5 42.8 61.5H42.7H42.6L42.7 61.7H42.8L42.9 61.8Z" fill="#066132"/>
<path d="M43.3 61.7V61.6V61.5C43.3 61.5 43.3001 61.4 43.4001 61.4C43.5001 61.3 43.6 61.3 43.6 61.3H43.7001C43.7001 61.3 43.8 61.3 43.8 61.4C43.8 61.4 43.8001 61.5 43.9001 61.5V61.6V61.7C43.9001 61.7 43.9 61.8 43.8 61.8C43.7 62 43.6 62 43.6 62H43.5C43.5 62 43.4001 62 43.4001 61.9C43.3001 61.8 43.3 61.8 43.3 61.7ZM43.7001 61.2H43.6H43.5L43.4001 61.3H43.3L43.4001 61.1H43.5L43.7001 61.2ZM43.6 62.1C43.6 62 43.6 62 43.6 62.1C43.7 62 43.7001 62 43.7001 62C43.7001 62.2 43.7 62.2 43.6 62.1C43.7 62.2 43.7 62.2 43.6 62.1C43.6 62.1 43.6 62.2 43.6 62.1ZM43.5 61.7C43.5 61.8 43.5 61.8 43.6 61.8C43.6 61.8 43.6001 61.8 43.7001 61.8C43.7001 61.8 43.7001 61.8 43.7001 61.7C43.7001 61.7 43.7001 61.7 43.7001 61.6C43.7001 61.6 43.7001 61.6 43.7001 61.5C43.7001 61.5 43.7 61.5 43.6 61.5C43.5 61.6 43.5 61.6 43.5 61.7C43.5 61.7 43.5 61.6 43.5 61.7Z" fill="#066132"/>
<path d="M43.9001 61.1C43.8001 61.1 43.8001 61.1 43.9001 61.1C43.9001 61 43.9001 61 43.9001 61.1C44.0001 61 44 61 44 61C44 61.2 44.0001 61.2 43.9001 61.1C43.9001 61.2 43.9001 61.2 43.9001 61.1C43.9001 61.2 43.9001 61.2 43.9001 61.1C43.9001 61.1 43.9001 61.2 43.9001 61.1ZM44.2001 61.8H44L43.8 61.2H44L44.2001 61.8Z" fill="#066132"/>
<path d="M37.8 61.9C37.8 61.8 37.7 61.7 37.7 61.6C37.6 61.3 37.5 60.9 37.4 60.6C37.3 60.4 37.3 60.1 37.2 59.9C37.2 59.8 37.1 59.6 37.1 59.5V59.6C37.1 59.8 37 60.1 37 60.3C36.9 60.7 36.9 61.1 36.8 61.5V61.6C36.6 61.7 36.3 61.7 36.1 61.8C36.1 61.8 36.1 61.7 36 61.7C35.6 61.2 35.2 60.7 34.8 60.2C34.8 60.2 34.8 60.1 34.7 60.1C34.7 60.2 34.7 60.3 34.7 60.3C34.8 60.7 34.9 61.1 35 61.5C35.1 61.8 35.1 62.1 35.2 62.4C35.2 62.4 35.2 62.4 35.2 62.5L34.4 62.7C34.4 62.7 34.4 62.7 34.3 62.7C34.3 62.6 34.3 62.6 34.2 62.5C33.9 61.3 33.7 60 33.5 58.7V58.6C33.5 58.6 33.5 58.6 33.6 58.6L34.4 58.4C34.4 58.4 34.4 58.4 34.5 58.4C34.5 58.4 34.5 58.4 34.6 58.5C35.1 59.1 35.6 59.6 36 60.2C36 60.2 36 60.3 36.1 60.3C36.1 60.2 36.1 60.1 36.2 60C36.2 59.9 36.2 59.8 36.3 59.7C36.3 59.6 36.3 59.5 36.4 59.4C36.4 59.3 36.4 59.2 36.5 59.1C36.5 59 36.5 58.9 36.6 58.8C36.7 58.7 36.6 58.6 36.7 58.5L36.8 58.2C36.9 58.2 37 58.1 37.1 58.1C37.2 58.1 37.3 58 37.4 58C37.5 58 37.6 57.9 37.7 57.9C37.7 58 37.8 58 37.8 58.1C38.2 59.2 39 61.6 39.1 61.8C39 61.8 38.9 61.9 38.8 61.9C38.7 61.9 38.6 62 38.5 62L37.8 61.9Z" fill="#066132"/>
<path d="M43.4001 59.3C43.6001 59.6 43.7001 59.8 43.8001 60.1C43.8001 60.1 43.8001 60.1 43.7001 60.2C43.5001 60.4 43.3001 60.5 43.0001 60.6C42.8001 60.7 42.5001 60.7 42.3001 60.8C41.6001 60.9 41.0001 60.6 40.6001 60C40.5001 59.8 40.4001 59.6 40.3001 59.4C40.2001 59.1 40.2001 58.9 40.1001 58.6C40.1001 58.3 40.1001 58.1 40.2001 57.8C40.3001 57.4 40.6001 57 41.0001 56.8C41.5001 56.5 42.0001 56.4 42.6001 56.5C42.6001 56.5 42.6001 56.5 42.7001 56.5C42.7001 56.5 42.7001 56.5 42.7001 56.6C42.7001 56.9 42.7001 57.1 42.7001 57.4C42.7001 57.4 42.7001 57.4 42.7001 57.5C42.7001 57.5 42.7001 57.5 42.6001 57.5C42.4001 57.5 42.3001 57.5 42.1001 57.5C41.9001 57.5 41.7001 57.6 41.6001 57.7C41.5001 57.8 41.4001 57.8 41.3001 57.9C41.2001 58 41.2001 58.1 41.2001 58.2C41.2001 58.3 41.2001 58.5 41.2001 58.6C41.2001 58.9 41.3001 59.1 41.4001 59.4C41.4001 59.5 41.5001 59.6 41.6001 59.6C41.7001 59.7 41.8001 59.8 41.9001 59.8C42.0001 59.8 42.2001 59.9 42.3001 59.8C42.6001 59.8 42.9001 59.6 43.2001 59.4L43.4001 59.3Z" fill="#066132"/>
<path d="M38.3 57.4C38.6 57.3 39 57.2 39.3 57.1C39.3 57.1 39.3001 57.1 39.4001 57.1C39.4001 57.1 39.4001 57.1 39.4001 57.2V57.3L40.4001 61C40.4001 61.1 40.4001 61.1 40.4001 61.2H40.3C40 61.3 39.7001 61.4 39.4001 61.4H39.3C39.3 61.4 39.3 61.4 39.3 61.3C39 60.1 38.6 58.8 38.3 57.4Z" fill="#066132"/>
<path d="M30.5 63C30.4 63 30.3 63 30.2 63C30.1 63 30 62.9 30 62.8C30 62.7 30 62.6 30 62.5C30 62.4 30.1 62.3 30.2 62.3C30.3 62.2 30.4 62.2 30.6 62.1C30.9 62 31.1 61.8 31.4 61.7C31.4 61.7 31.5 61.7 31.6 61.7H31.7L31.8 61.8V61.9C31.8 62 31.8 62 31.7 62C31.7 62 31.7 62 31.6 62.1L30.6 62.9C30.6 63 30.6 63 30.5 63Z" fill="#EB2227"/>
<path d="M29.0001 62.9C29.1001 62.9 29.1001 62.9 29.2001 62.9C29.3001 62.9 29.3001 62.9 29.3001 63C29.3001 63 29.4001 63 29.4001 63.1C29.7001 63.4 30.0001 63.6 30.2001 63.9L30.3001 64C30.3001 64 30.4001 64.1 30.4001 64.2C30.4001 64.3 30.4001 64.3 30.3001 64.4C30.3001 64.4 30.2001 64.5 30.1001 64.5C30.0001 64.5 30.0001 64.5 29.9001 64.5C29.8001 64.4 29.7001 64.3 29.5001 64.3L28.8001 63.9C28.8001 63.9 28.7001 63.9 28.7001 63.8C28.6001 63.8 28.6001 63.7 28.6001 63.6C28.6001 63.5 28.6001 63.5 28.6001 63.4C28.6001 63.3 28.7001 63.3 28.7001 63.2C28.9001 62.9 28.9001 62.9 29.0001 62.9Z" fill="#EB2227"/>
<path d="M28 61.8C28.1 61.8 28.1 61.8 28.2 61.8C28.3 61.8 28.3 61.9 28.4 61.9C28.4 61.9 28.5 62 28.5 62.1C28.5 62.2 28.5 62.2 28.5 62.3V62.4C28.3 62.8 28.1 63.1 27.9 63.5L27.8 63.6L27.7 63.7C27.6 63.7 27.6 63.7 27.6 63.7L27.5 63.6V63.5V63.4C27.6 63 27.7 62.6 27.9 62.2C27.9 62.1 27.9 62.1 28 62.1C27.8 61.9 27.9 61.9 28 61.8C28 61.8 27.9 61.9 28 61.8Z" fill="#EB2227"/>
<path d="M28.9001 61.4C28.8001 61.4 28.8001 61.4 28.7001 61.4L27.8001 61.3C27.7001 61.3 27.6001 61.3 27.5001 61.3C27.4001 61.3 27.4001 61.3 27.3001 61.2C27.3001 61.2 27.2001 61.1 27.2001 61C27.2001 60.9 27.2001 60.9 27.2001 60.8L27.3001 60.7H27.4001L28.7001 60.6H28.8001C28.9001 60.6 29.0001 60.6 29.0001 60.7C29.1001 60.7 29.1001 60.8 29.1001 60.9C29.1001 61 29.1001 61.1 29.1001 61.1C29.1001 61.2 29.0001 61.2 29.0001 61.3C29.0001 61.3 29.0001 61.3 28.9001 61.4Z" fill="#EB2227"/>
<path d="M29.9001 61.3C29.9001 61.2 29.9001 61.1 29.8001 61C29.8001 60.7 29.7001 60.5 29.7001 60.2C29.7001 60.1 29.7001 60.1 29.7001 60C29.7001 59.9 29.7001 59.9 29.7001 59.8C29.7001 59.7 29.8001 59.7 29.9001 59.7C30.0001 59.7 30.0001 59.7 30.1001 59.7C30.2001 59.7 30.2001 59.8 30.2001 59.8C30.2001 59.9 30.3001 60 30.3001 60.1C30.4001 60.3 30.5001 60.5 30.5001 60.7C30.5001 60.8 30.6001 60.9 30.6001 61C30.6001 61 30.6001 61.1 30.6001 61.2C30.6001 61.3 30.6001 61.3 30.6001 61.4L30.5001 61.5L30.4001 61.6C30.3001 61.6 30.3001 61.6 30.2001 61.6C30.1001 61.6 30.1001 61.6 30.0001 61.6L29.9001 61.5C29.9001 61.5 29.9001 61.4 29.9001 61.3Z" fill="#EB2227"/>
<path d="M32.7001 61C32.7001 61.1 32.7001 61.1 32.7001 61.2C32.7001 61.3 32.7 61.3 32.6 61.4L32.5 61.5C32.4 61.5 32.4 61.5 32.3 61.5H32.2001L31.2001 61.4H31.1C31 61.4 31 61.4 30.9 61.3C30.9 61.3 30.8 61.2 30.8 61.1V61V60.9L30.9 60.8H31C31.1 60.8 31.2 60.8 31.3 60.8H32.2001H32.3C32.4 60.8 32.5 60.8 32.5 60.9C32.7 60.9 32.7001 61 32.7001 61Z" fill="#EB2227"/>
<path d="M29.3001 58.6C29.4001 58.6 29.4001 58.6 29.5001 58.6C29.6001 58.6 29.6001 58.7 29.7001 58.7C29.8001 58.7 29.8001 58.8 29.8001 58.9C29.8001 59 29.8001 59 29.8001 59.1V59.2L29.3001 60.2V60.3C29.3001 60.4 29.2001 60.4 29.1001 60.4C29.0001 60.4 29.0001 60.4 28.9001 60.4C28.8001 60.4 28.8001 60.3 28.7001 60.3C28.7001 60.2 28.7001 60.2 28.7001 60.1V60L29.0001 59V58.9C29.0001 58.8 29.0001 58.8 29.1001 58.7C29.2001 58.7 29.2001 58.6 29.3001 58.6Z" fill="#EB2227"/>
<path d="M30.8001 64.7C30.8001 64.6 30.8001 64.5 30.7001 64.3C30.7001 64 30.6001 63.8 30.6001 63.5C30.6001 63.4 30.6001 63.4 30.6001 63.3C30.6001 63.2 30.6001 63.2 30.7001 63.2C30.7001 63.2 30.8001 63.2 30.8001 63.1H30.9001C30.9001 63.1 31.0001 63.1 31.0001 63.2L31.1001 63.3C31.1001 63.4 31.2001 63.4 31.2001 63.5L31.5001 64.4C31.5001 64.5 31.5001 64.5 31.5001 64.6C31.5001 64.7 31.5001 64.7 31.4001 64.8C31.4001 64.9 31.3001 64.9 31.2001 65C31.1001 65 31.1001 65 31.0001 65C30.9001 65 30.9001 65 30.8001 64.9C30.8001 64.9 30.8001 64.8 30.8001 64.7Z" fill="#EB2227"/>
<path d="M27.5 64.9C27.4 64.9 27.3 64.9 27.2 64.9C27.1 64.9 27 64.8 27 64.7C27 64.6 26.9 64.5 27 64.4C27 64.3 27.1 64.2 27.1 64.2C27.2 64.2 27.2 64.1 27.3 64.1C27.6 63.9 27.9 63.8 28.2 63.6C28.2 63.6 28.3 63.6 28.3 63.5C28.4 63.5 28.4 63.5 28.5 63.5C28.6 63.5 28.6 63.6 28.6 63.6C28.6 63.7 28.7 63.7 28.6 63.8C28.6 63.9 28.6 63.9 28.5 64L28.4 64.1C28.1 64.3 27.8 64.5 27.6 64.7C27.6 64.9 27.6 64.9 27.5 64.9Z" fill="#EB2227"/>
<path d="M27.5 61.7C27.5 61.8 27.5 61.8 27.5 61.9C27.5 62 27.5 62 27.4 62C27.4 62 27.3001 62.1 27.2001 62.1C27.1001 62.1 27.1 62.1 27 62.1C27 62.1 27 62.1 26.9 62.1L26 61.5C25.9 61.5 25.9 61.4 25.8 61.3C25.8 61.2 25.8 61.1 25.8 61C25.8 60.9 25.9 60.8 26 60.8C26.1 60.8 26.2001 60.8 26.2001 60.8L26.4 60.9C26.7 61.2 26.9001 61.4 27.2001 61.7C27.5001 61.6 27.5 61.7 27.5 61.7Z" fill="#EB2227"/>
<path d="M105.5 50.2L105.7 49.4L106 49.5H106.1C106.1 49.5 106.2 49.5 106.2 49.6V49.7V49.8C106.2 49.8 106.2 49.8 106.2 49.9C106.2 49.9 106.2 49.9 106.1 49.9C106.1 49.9 106.1 49.9 106.2 49.9C106.2 49.9 106.2 49.9 106.2 50C106.2 50 106.2 50 106.2 50.1C106.2 50.1 106.2 50.1 106.2 50.2V50.3C106.2 50.3 106.1 50.3 106.1 50.4C106 50.4 105.9 50.4 105.9 50.4L105.5 50.2ZM105.8 49.8C105.9 49.8 106 49.8 106 49.8H105.9H105.8V49.8ZM105.7 49.9L105.6 50.1H105.7C105.7 50.1 105.7 50.1 105.8 50.1L105.7 49.9Z" fill="#066132"/>
<path d="M106.5 50.5C106.5 50.4 106.5 50.4 106.5 50.5C106.5 50.4 106.5 50.4 106.5 50.5C106.5 50.4 106.5 50.4 106.5 50.5C106.4 50.5 106.4 50.5 106.3 50.5H106.2C106.2 50.5 106.2 50.5 106.1 50.4C106.1 50.4 106.1 50.4 106.1 50.3V50.2V50.1C106.1 50.1 106.1 50.1 106.2 50.1H106.3H106.4H106.5C106.5 50.1 106.5 50.1 106.5 50C106.5 50 106.5 50 106.4 50H106.2V49.9C106.2 49.9 106.2 49.9 106.3 49.9H106.4H106.5H106.6C106.6 49.9 106.7 49.9 106.7 50C106.7 50 106.7 50 106.7 50.1V50.2L106.6 50.4L106.5 50.5ZM106.5 49.7C106.6 49.7 106.6 49.7 106.5 49.7C106.6 49.7 106.6 49.7 106.5 49.7C106.6 49.6 106.6 49.7 106.5 49.7C106.6 49.6 106.6 49.6 106.6 49.6V49.5C106.7 49.5 106.7 49.5 106.8 49.6C106.8 49.6 106.8 49.6 106.8 49.7H106.5ZM106.4 50.3C106.4 50.3 106.5 50.3 106.4 50.3C106.5 50.3 106.5 50.3 106.5 50.3V50.2H106.4C106.4 50.2 106.4 50.2 106.4 50.3C106.4 50.2 106.4 50.2 106.4 50.3Z" fill="#066132"/>
<path d="M106.8 50.2V50.1C106.8 50.1 106.8 50 106.9 50H107H107.1C107.1 50 107.2 50 107.2 50.1L107.3 50.2V50.3V50.4C107.3 50.4 107.3 50.5 107.2 50.5C107.2 50.5 107.2 50.6 107.1 50.6H107C106.9 50.6 106.8 50.6 106.8 50.5L106.7 50.4V50.3C106.8 50.3 106.8 50.3 106.8 50.2ZM107 50.3C107 50.4 107 50.4 107 50.4C107 50.4 107 50.4 107.1 50.4C107.1 50.4 107.1 50.4 107.1 50.3C107.1 50.3 107.1 50.3 107.1 50.2C107.1 50.2 107.1 50.2 107.1 50.1C107.1 50.1 107.1 50.1 107 50.1C107.1 50.2 107 50.2 107 50.3C107 50.2 107 50.2 107 50.3Z" fill="#066132"/>
<path d="M108.4 50.9L108.2 50.8L108.3 50.5L108 50.4L107.9 50.7L107.7 50.6L107.9 49.8L108.1 49.9L108 50.2L108.3 50.3L108.4 50L108.6 50.1L108.4 50.9Z" fill="#066132"/>
<path d="M108.7 50.2C108.8 50.1 108.8 50.1 108.8 50.1C108.7 50.4 108.7 50.4 108.7 50.2C108.7 50.3 108.7 50.3 108.7 50.2C108.7 50.3 108.7 50.3 108.7 50.2C108.7 50.3 108.7 50.3 108.7 50.2ZM108.7 51H108.5L108.7 50.4H108.9L108.7 51Z" fill="#066132"/>
<path d="M109.1 51.1C109.1 51.1 109 51.1 109 51L108.9 50.9V50.8V50.7C108.9 50.7 108.9 50.6 109 50.6C109 50.6 109 50.5 109.1 50.5H109.2H109.3H109.4C109.4 50.5 109.5 50.5 109.5 50.6V50.7V50.8V50.9L109.1 50.8V50.9C109.1 50.9 109.1 50.9 109.2 51H109.3H109.4L109.5 51.1C109.5 51.1 109.5 51.1 109.4 51.1C109.2 51.2 109.2 51.2 109.1 51.1C109.1 51.2 109.1 51.2 109.1 51.1ZM109.4 50.5H109.3L109.2 50.4H109.1H109L109.2 50.3H109.3L109.4 50.5ZM109.2 50.7C109.2 50.7 109.1 50.7 109.2 50.7C109.1 50.7 109.1 50.7 109.2 50.7C109.1 50.7 109.1 50.7 109.1 50.7H109.3C109.2 50.8 109.2 50.8 109.2 50.7ZM109.4 50.4C109.4 50.3 109.4 50.3 109.4 50.4C109.5 50.3 109.4 50.3 109.4 50.3V50.2C109.4 50.2 109.5 50.2 109.5 50.3L109.4 50.4Z" fill="#066132"/>
<path d="M109.7 50.7C109.7 50.7 109.8 50.7 109.7 50.7C109.8 50.7 109.8 50.7 109.9 50.7H110V50.8H110.1H110.2C110.2 50.8 110.2 50.8 110.3 50.8C110.3 50.8 110.3 50.8 110.3 50.9V51V51.1L110.2 51.5H110L110.1 51.1C110.1 51.1 110.1 51.1 110 51.1L109.9 51.5H109.7L109.8 51.1C109.8 51.1 109.8 51.1 109.7 51.1L109.6 51.5H109.4L109.6 50.9L109.7 50.7Z" fill="#066132"/>
<path d="M111.4 51.4C111.4 51.5 111.4 51.5 111.3 51.6L111.2 51.7L111.3 51.8L111.2 51.9L111.1 51.7C111.1 51.7 111 51.7 111 51.6L110.9 51.5V51.4C110.9 51.3 110.9 51.3 110.9 51.2C110.9 51.1 110.9 51.1 111 51L111.1 50.9H111.2H111.3C111.3 50.9 111.4 50.9 111.4 51L111.5 51.1V51.2C111.5 51.2 111.4 51.3 111.4 51.4ZM111.2 51.3C111.2 51.2 111.2 51.2 111.2 51.1C111.2 51.1 111.2 51.1 111.2 51C111.2 51 111.2 51 111.1 51C111.1 51 111.1 51 111 51C111 51 111 51 110.9 51C110.9 51 110.8 51.1 110.8 51.2C110.8 51.3 110.8 51.3 110.8 51.4C110.8 51.4 110.8 51.4 110.8 51.5C110.8 51.5 110.8 51.5 110.9 51.5C110.9 51.5 110.9 51.5 111 51.5C111 51.5 111 51.5 111.1 51.5C111.2 51.4 111.2 51.4 111.2 51.3Z" fill="#066132"/>
<path d="M111.8 51.8C111.8 51.8 111.7 51.8 111.8 51.8C111.7 51.8 111.7 51.8 111.6 51.8H111.5C111.5 51.8 111.5 51.8 111.4 51.7V51.6V51.5L111.5 51.1H111.7L111.6 51.5C111.7 51.7 111.7 51.7 111.8 51.8C111.7 51.7 111.7 51.7 111.8 51.8C111.8 51.7 111.8 51.7 111.8 51.7L111.9 51.3H112.1L111.9 51.9L111.8 51.8Z" fill="#066132"/>
<path d="M112.4 52C112.4 52 112.3 52 112.4 52C112.3 52 112.3 52 112.2 52H112.1C112.1 52 112.1 52 112 51.9C112 51.9 112 51.9 112 51.8V51.7V51.6C112 51.6 112 51.6 112.1 51.6H112.2H112.3H112.4C112.4 51.6 112.4 51.6 112.4 51.5C112.4 51.5 112.4 51.5 112.3 51.5H112.1V51.4C112.1 51.4 112.1 51.4 112.2 51.4H112.3H112.4H112.5C112.5 51.4 112.5 51.4 112.6 51.5C112.6 51.5 112.6 51.5 112.6 51.6V51.7L112.5 51.9L112.4 52ZM112.7 51.4H112.6L112.5 51.3H112.4H112.3L112.5 51.2H112.6L112.7 51.4ZM112.3 51.9C112.4 51.9 112.4 51.9 112.4 51.9V51.8H112.3C112.3 51.8 112.3 51.8 112.3 51.9C112.2 51.8 112.2 51.8 112.3 51.9C112.3 51.8 112.2 51.8 112.3 51.9Z" fill="#066132"/>
<path d="M113 51.6C113.1 51.6 113.1 51.6 113.2 51.6H113.3C113.3 51.6 113.3 51.6 113.3 51.7V51.8V51.9L113.2 52.3H113L113.1 51.9C113.1 51.9 113.1 51.9 113 51.9L112.9 52.3H112.7L112.9 51.7L113 51.6Z" fill="#066132"/>
<path d="M113.6 52.3L113.7 52H113.6V51.9H113.7L113.8 51.6L114.1 51.7C114.2 51.7 114.2 51.7 114.2 51.8L114.3 51.9V52C114.3 52.1 114.3 52.1 114.3 52.2C114.3 52.3 114.3 52.3 114.2 52.3L114.1 52.4H114C113.9 52.4 113.9 52.4 113.8 52.4L113.6 52.3ZM114 52.1H113.9L113.8 52.3H113.9C113.9 52.3 113.9 52.3 114 52.3C114 52.3 114 52.3 114.1 52.3C114.1 52.3 114.2 52.2 114.2 52.1C114.2 52 114.2 52 114.2 51.9C114.2 51.9 114.2 51.9 114.2 51.8C114.2 51.8 114.2 51.8 114.1 51.8H114L113.9 52H114V52.1Z" fill="#066132"/>
<path d="M114.3 52.2C114.3 52.2 114.3 52.1 114.4 52.1C114.4 52.1 114.4 52 114.5 52H114.6C114.7 52 114.8 52 114.8 52.1L114.9 52.2V52.3V52.4C114.9 52.4 114.9 52.5 114.8 52.5C114.8 52.5 114.8 52.6 114.7 52.6H114.6C114.5 52.6 114.4 52.6 114.4 52.5L114.3 52.4V52.3C114.3 52.3 114.3 52.3 114.3 52.2ZM115 52H114.9L114.8 51.9H114.7H114.6L114.8 51.8H114.9L115 52ZM114.4 52.7C114.4 52.7 114.5 52.7 114.4 52.7C114.5 52.7 114.5 52.6 114.4 52.7C114.5 52.6 114.5 52.6 114.5 52.6C114.5 52.8 114.5 52.8 114.4 52.7C114.4 52.8 114.4 52.8 114.4 52.7C114.4 52.8 114.4 52.8 114.4 52.7ZM114.5 52.3C114.5 52.4 114.5 52.4 114.5 52.4C114.5 52.4 114.5 52.4 114.6 52.4C114.6 52.4 114.6 52.4 114.6 52.3C114.6 52.3 114.6 52.3 114.6 52.2C114.6 52.2 114.6 52.2 114.6 52.1C114.6 52.1 114.6 52.1 114.5 52.1C114.6 52.2 114.6 52.2 114.5 52.3C114.5 52.3 114.5 52.2 114.5 52.3Z" fill="#066132"/>
<path d="M115.1 52C115.1 51.9 115.1 51.9 115.1 52C115.2 51.9 115.2 51.9 115.1 52C115.2 51.9 115.2 51.9 115.2 51.9C115.2 52.1 115.2 52.1 115.1 52C115.1 52.1 115.1 52.1 115.1 52ZM115.1 52.8H114.9L115.1 52.2H115.3L115.1 52.8Z" fill="#066132"/>
<path d="M109.4 49.6C109.4 49.5 109.4 49.4 109.5 49.3C109.6 49 109.7 48.6 109.7 48.3C109.8 48.1 109.8 47.8 109.9 47.6C109.9 47.5 110 47.3 110 47.2C110 47.2 110 47.2 110 47.1C109.9 47.1 109.9 47.1 109.9 47.2C109.7 47.4 109.6 47.6 109.4 47.8C109.2 48.1 108.9 48.4 108.7 48.7C108.7 48.7 108.7 48.8 108.6 48.8C108.4 48.8 108.1 48.7 107.9 48.6V48.5C107.8 47.9 107.7 47.3 107.6 46.6V46.5C107.6 46.6 107.5 46.6 107.5 46.7C107.4 47.1 107.2 47.5 107.1 47.9C107 48.2 106.9 48.5 106.8 48.8C106.8 48.8 106.8 48.8 106.8 48.9L106 48.7C106 48.7 106 48.7 105.9 48.7C105.9 48.6 105.9 48.6 106 48.5C106.4 47.3 106.8 46.1 107.3 44.9V44.8C107.3 44.8 107.3 44.8 107.4 44.8L108.2 45C108.2 45 108.2 45 108.3 45V45.1C108.4 45.8 108.6 46.5 108.7 47.3V47.4C108.8 47.3 108.9 47.2 108.9 47.1C109 47 109 46.9 109.1 46.8C109.2 46.7 109.2 46.6 109.3 46.5C109.4 46.4 109.4 46.3 109.5 46.2C109.6 46.1 109.6 46 109.7 45.9C109.8 45.8 109.9 45.7 109.9 45.6L110.1 45.3C110.2 45.3 110.3 45.3 110.4 45.4C110.5 45.4 110.6 45.5 110.7 45.5C110.8 45.5 110.9 45.6 111 45.6C111 45.7 111 45.8 111 45.8C110.8 47 110.4 49.4 110.3 49.6C110.2 49.6 110.1 49.6 110 49.5C109.9 49.5 109.8 49.4 109.7 49.4L109.4 49.6Z" fill="#066132"/>
<path d="M115.7 50.1C115.7 50.4 115.7 50.7 115.7 51H115.6C115.3 51 115.1 51 114.8 51C114.6 51 114.3 50.9 114.1 50.8C113.5 50.5 113.1 50 113 49.3C113 49.1 113 48.8 113 48.6C113.1 48.3 113.1 48.1 113.3 47.8C113.4 47.6 113.6 47.3 113.8 47.2C114.1 46.9 114.6 46.8 115 46.8C115.5 46.8 116.1 47 116.5 47.3C116.5 47.3 116.5 47.3 116.5 47.4C116.4 47.6 116.3 47.8 116.1 48.1C116.1 48.1 116.1 48.1 116 48.1C115.9 48 115.7 47.9 115.6 47.9C115.4 47.8 115.2 47.8 115 47.8C114.9 47.8 114.8 47.8 114.7 47.9C114.6 47.9 114.5 48 114.4 48.1C114.3 48.2 114.2 48.3 114.2 48.5C114.1 48.7 114 49 114 49.3C114 49.4 114 49.5 114 49.6C114 49.7 114.1 49.9 114.2 50C114.3 50.1 114.4 50.2 114.5 50.2C114.8 50.3 115.1 50.4 115.4 50.3L115.7 50.1Z" fill="#066132"/>
<path d="M112.1 46C112.1 46 112.2 46 112.1 46C112.5 46.1 112.8 46.2 113.1 46.2C113.1 46.2 113.1 46.2 113.2 46.2C113.2 46.2 113.2 46.2 113.2 46.3V46.4L112.2 50.1C112.2 50.2 112.2 50.2 112.2 50.3H112.1C111.8 50.2 111.5 50.1 111.2 50.1H111.1C111.1 50.1 111.1 50.1 111.1 50C111.4 48.7 111.8 47.3 112.1 46Z" fill="#066132"/>
<path d="M102.6 46.9C102.5 46.9 102.4 46.8 102.4 46.7C102.3 46.6 102.3 46.5 102.3 46.4C102.3 46.3 102.4 46.2 102.4 46.2C102.5 46.1 102.6 46.1 102.7 46.1C102.8 46.1 103 46.1 103.1 46.1C103.4 46.1 103.7 46.1 104 46.1C104.1 46.1 104.1 46.1 104.2 46.1L104.3 46.2V46.3C104.3 46.4 104.3 46.4 104.3 46.4L104.2 46.5H104.1L102.9 46.7C102.7 47 102.7 47 102.6 46.9Z" fill="#EB2227"/>
<path d="M101.4 46C101.4 46 101.5 46 101.5 46.1L101.6 46.2V46.3C101.7 46.7 101.8 47.1 101.9 47.4V47.5C101.9 47.6 101.9 47.6 101.9 47.7C101.9 47.8 101.8 47.8 101.8 47.8C101.7 47.8 101.7 47.8 101.6 47.8C101.5 47.8 101.5 47.7 101.5 47.7C101.4 47.6 101.4 47.4 101.3 47.3L100.9 46.6C100.9 46.6 100.9 46.5 100.8 46.5C100.8 46.4 100.8 46.4 100.8 46.3C100.8 46.2 100.9 46.2 100.9 46.1C101 46 101 46 101.1 46C101.2 46 101.3 46 101.4 46Z" fill="#EB2227"/>
<path d="M101 44.7C101.1 44.7 101.1 44.8 101.2 44.8C101.3 44.9 101.3 44.9 101.3 45C101.3 45.1 101.3 45.1 101.3 45.2C101.3 45.3 101.2 45.3 101.2 45.4C101.2 45.4 101.1 45.4 101.1 45.5C100.8 45.7 100.4 45.9 100.1 46.2C100.1 46.2 100 46.2 100 46.3C99.9001 46.3 99.9001 46.3 99.8001 46.3L99.7001 46.2V46.1C99.7001 46 99.7001 46 99.7001 46C99.7001 46 99.7001 46 99.8001 45.9C100.1 45.6 100.4 45.3 100.7 45L100.8 44.9C100.8 44.7 100.9 44.6 101 44.7C101 44.7 101 44.6 101 44.7Z" fill="#EB2227"/>
<path d="M102.1 44.7C102 44.7 102 44.6 101.9 44.6L101.1 44C101 43.9 100.9 43.9 100.8 43.8L100.7 43.7C100.7 43.6 100.7 43.6 100.7 43.5C100.7 43.4 100.8 43.4 100.8 43.4C100.9 43.4 100.9 43.4 101 43.4H101.1L102.2 44C102.2 44 102.2 44 102.3 44C102.4 44 102.4 44.1 102.5 44.2C102.5 44.3 102.5 44.4 102.5 44.4C102.5 44.5 102.4 44.5 102.4 44.6C102.3 44.7 102.3 44.7 102.2 44.7C102.2 44.7 102.1 44.7 102.1 44.7Z" fill="#EB2227"/>
<path d="M102.9 45.2C102.9 45.1 103 45 103 44.9C103.1 44.6 103.2 44.4 103.3 44.2C103.3 44.1 103.3 44.1 103.4 44C103.4 43.9 103.5 43.9 103.5 43.9C103.6 43.9 103.6 43.9 103.7 43.9C103.8 43.9 103.8 44 103.9 44C103.9 44.1 104 44.1 103.9 44.2C103.9 44.3 103.9 44.4 103.8 44.5C103.8 44.7 103.7 44.9 103.7 45.2C103.7 45.3 103.7 45.4 103.6 45.5C103.6 45.6 103.6 45.6 103.5 45.6L103.4 45.7C103.4 45.7 103.3 45.7 103.3 45.8C103.2 45.8 103.2 45.8 103.1 45.8C103 45.8 103 45.8 103 45.7L102.9 45.6C102.9 45.6 102.9 45.5 102.8 45.5C102.9 45.3 102.9 45.2 102.9 45.2Z" fill="#EB2227"/>
<path d="M105.5 46.3C105.5 46.4 105.5 46.4 105.4 46.5L105.3 46.6C105.2 46.6 105.2 46.6 105.1 46.6C105 46.6 105 46.6 104.9 46.5C104.9 46.5 104.8 46.5 104.8 46.4L104 45.8C104 45.8 104 45.8 103.9 45.8C103.8 45.8 103.8 45.7 103.8 45.7C103.8 45.6 103.8 45.6 103.8 45.5C103.8 45.5 103.8 45.4 103.9 45.4L104 45.3H104.1H104.2C104.3 45.3 104.4 45.4 104.5 45.4L105.3 45.8C105.3 45.8 105.3 45.8 105.4 45.8C105.5 45.8 105.5 45.9 105.5 46C105.5 46.2 105.5 46.3 105.5 46.3Z" fill="#EB2227"/>
<path d="M103.7 42.5C103.8 42.5 103.8 42.5 103.9 42.6C104 42.6 104 42.7 104 42.8C104 42.9 104 42.9 104 43C104 43.1 103.9 43.1 103.9 43.2C103.9 43.2 103.8 43.2 103.8 43.3L102.9 43.9C102.9 43.9 102.9 43.9 102.8 43.9C102.7 43.9 102.7 43.9 102.6 43.9C102.5 43.9 102.5 43.9 102.4 43.8C102.4 43.7 102.3 43.7 102.3 43.6C102.3 43.5 102.3 43.5 102.4 43.4C102.4 43.4 102.4 43.4 102.5 43.3L103.3 42.6C103.3 42.6 103.4 42.5 103.5 42.5C103.6 42.5 103.7 42.5 103.7 42.5Z" fill="#EB2227"/>
<path d="M102 48.5C102 48.4 102.1 48.3 102.1 48.1C102.2 47.9 102.3 47.6 102.4 47.4C102.4 47.3 102.4 47.3 102.5 47.3L102.6 47.2H102.7C102.7 47.2 102.8 47.2 102.8 47.3L102.9 47.4V47.5C102.9 47.6 102.9 47.6 102.9 47.7L102.7 48.6C102.7 48.7 102.7 48.7 102.6 48.8C102.6 48.9 102.5 48.9 102.5 48.9C102.4 48.9 102.4 49 102.3 49C102.2 49 102.2 49 102.1 48.9C102 48.9 102 48.8 102 48.7C102 48.7 102 48.6 102 48.5Z" fill="#EB2227"/>
<path d="M99.1 47.1C99 47.1 98.9 47 98.9 47C98.8 46.9 98.8 46.8 98.8 46.8C98.8 46.7 98.8 46.6 98.9 46.6C99 46.5 99 46.5 99.1 46.5C99.2 46.5 99.2 46.5 99.3 46.5C99.6 46.5 99.9 46.5 100.3 46.5C100.4 46.5 100.4 46.5 100.5 46.5C100.6 46.5 100.6 46.5 100.7 46.6C100.7 46.6 100.8 46.7 100.8 46.8C100.8 46.9 100.8 46.9 100.8 47C100.8 47.1 100.7 47.1 100.6 47.1H100.5C100.1 47.1 99.8 47.2 99.5 47.2C99.2 47.1 99.1 47.1 99.1 47.1Z" fill="#EB2227"/>
<path d="M100.7 44.3C100.7 44.4 100.7 44.4 100.6 44.4L100.5 44.5C100.4 44.5 100.4 44.5 100.3 44.5C100.2 44.5 100.2 44.4 100.2 44.4C100.2 44.4 100.2 44.4 100.2 44.3L99.7001 43.3C99.7001 43.2 99.6001 43.2 99.6001 43.1C99.6001 43 99.7001 42.9 99.7001 42.8C99.8001 42.7 99.9001 42.7 100 42.7C100.1 42.7 100.2 42.7 100.2 42.8C100.3 42.9 100.3 42.9 100.3 43C100.4 43.4 100.5 43.7 100.6 44.1C100.7 44.2 100.7 44.3 100.7 44.3Z" fill="#EB2227"/>
<path d="M193.4 44.5V43.7H193.7H193.8H193.9C193.9 43.7 194 43.7 194 43.8V43.9C194 43.9 194 43.9 194 44C194 44 194 44 193.9 44C193.9 44 193.9 44 194 44C194 44 194 44 194 44.1C194 44.1 194 44.1 194 44.2V44.3C194 44.3 194 44.4 193.9 44.4C193.8 44.4 193.8 44.5 193.7 44.5H193.4V44.5ZM193.6 44H193.7H193.8H193.7H193.6ZM193.6 44.1V44.3H193.7C193.7 44.3 193.7 44.3 193.8 44.3H193.6V44.1Z" fill="#066132"/>
<path d="M194.5 44.5C194.5 44.4 194.5 44.4 194.5 44.5C194.5 44.4 194.5 44.5 194.5 44.5C194.4 44.5 194.4 44.5 194.3 44.5H194.2C194.2 44.5 194.2 44.5 194.1 44.5C194.1 44.5 194.1 44.5 194.1 44.4C194.1 44.4 194.1 44.4 194.1 44.3V44.2C194.1 44.2 194.1 44.2 194.2 44.1H194.3H194.4H194.5C194.5 44.1 194.5 44.1 194.5 44C194.5 44 194.5 44 194.4 44H194.2V43.9C194.2 43.9 194.2 43.9 194.3 43.8H194.4H194.5H194.6H194.7C194.7 43.8 194.7 43.8 194.8 43.9V44V44.2C194.8 44.2 194.8 44.2 194.8 44.3C194.8 44.4 194.8 44.3 194.8 44.3L194.5 44.5ZM194.4 43.8C194.4 43.7 194.4 43.7 194.4 43.8C194.4 43.7 194.4 43.7 194.4 43.8C194.5 43.7 194.5 43.7 194.5 43.7V43.6C194.6 43.6 194.6 43.6 194.7 43.6L194.4 43.8ZM194.4 44.4C194.4 44.4 194.4 44.3 194.4 44.4C194.5 44.3 194.5 44.3 194.4 44.4L194.5 44.3H194.4C194.4 44.2 194.4 44.3 194.4 44.4C194.4 44.3 194.4 44.3 194.4 44.4C194.4 44.3 194.4 44.3 194.4 44.4C194.4 44.3 194.4 44.3 194.4 44.4C194.4 44.4 194.4 44.3 194.4 44.4Z" fill="#066132"/>
<path d="M194.8 44.2V44.1C194.8 44.1 194.8 44 194.9 44C194.9 44 195 44 195 43.9H195.1H195.2C195.2 43.9 195.3 43.9 195.3 44C195.3 44 195.3 44.1 195.4 44.1V44.2V44.3C195.4 44.3 195.4 44.4 195.3 44.4C195.3 44.4 195.2 44.4 195.2 44.5C195.1 44.5 195 44.5 194.9 44.5C194.9 44.5 194.8 44.5 194.8 44.4C194.8 44.4 194.8 44.3 194.7 44.3C194.8 44.3 194.8 44.2 194.8 44.2ZM195 44.2C195 44.3 195 44.3 195 44.3C195 44.3 195 44.3 195.1 44.3C195.1 44.3 195.1 44.3 195.1 44.2C195.1 44.2 195.1 44.2 195.1 44.1C195.1 44.1 195.1 44.1 195.1 44C195.1 44 195.1 44 195.1 43.9C195.1 43.9 195.1 43.9 195 43.9C194.9 43.9 195 43.9 194.9 43.9C195 44.1 195 44.1 195 44.2C195 44.1 195 44.1 195 44.2Z" fill="#066132"/>
<path d="M196.4 44.5H196.2V44.2H195.9V44.5H195.7V43.7H195.9V44H196.2V43.7H196.4V44.5Z" fill="#066132"/>
<path d="M196.6 43.7C196.6 43.6 196.6 43.6 196.6 43.7C196.7 43.6 196.7 43.6 196.7 43.6C196.6 43.8 196.6 43.8 196.6 43.7C196.6 43.8 196.6 43.8 196.6 43.7C196.6 43.8 196.6 43.8 196.6 43.7ZM196.8 44.5H196.6V43.9H196.8V44.5Z" fill="#066132"/>
<path d="M197.2 44.5H197.1C197.1 44.5 197 44.5 197 44.4L196.9 44.3V44.2V44.1C196.9 44.1 196.9 44 197 44L197.1 43.9H197.2H197.3C197.3 43.9 197.4 43.9 197.4 44C197.4 44 197.4 44.1 197.5 44.1V44.2V44.3H197V44.4H197.1H197.2C197.2 44.4 197.2 44.4 197.3 44.4L197.4 44.5C197.4 44.5 197.4 44.5 197.3 44.5C197.3 44.5 197.3 44.5 197.2 44.5ZM197.3 43.8H197.2L197.1 43.7L197 43.8H196.9L197.1 43.7H197.2L197.3 43.8ZM197.2 44C197.1 44 197.1 44 197.2 44C197.1 44 197.1 44 197.2 44C197.1 44.1 197.1 44 197.2 44C197.1 44.1 197.1 44.1 197.1 44.1H197.3L197.2 44C197.2 44.1 197.2 44.1 197.2 44ZM197.3 43.7C197.3 43.6 197.3 43.6 197.3 43.7C197.4 43.6 197.4 43.6 197.4 43.6V43.5H197.5C197.4 43.7 197.4 43.7 197.3 43.7Z" fill="#066132"/>
<path d="M197.7 43.9C197.8 43.9 197.8 43.9 197.9 43.9H198C198 43.9 198.1 43.9 198.1 44C198.1 44 198.1 43.9 198.2 43.9H198.3H198.4C198.4 43.9 198.4 43.9 198.5 43.9C198.5 43.9 198.5 43.9 198.5 44V44.1V44.5H198.3V44.1C198.3 44.1 198.3 44.1 198.2 44.1V44.5H198V44.1V44.5H197.8V43.9H197.7Z" fill="#066132"/>
<path d="M199.5 44.1C199.5 44.2 199.5 44.2 199.5 44.3C199.5 44.4 199.4 44.4 199.4 44.4L199.5 44.5L199.4 44.6L199.2 44.5C199.2 44.5 199.2 44.5 199.1 44.5C199 44.5 199 44.5 199 44.5C199 44.5 198.9 44.5 198.9 44.4L198.8 44.3C198.8 44.2 198.8 44.2 198.8 44.1C198.8 44 198.8 44 198.8 43.9C198.8 43.9 198.8 43.8 198.9 43.8L199 43.7H199.1C199.2 43.7 199.2 43.7 199.2 43.7C199.2 43.7 199.3 43.7 199.3 43.8L199.4 43.9C199.5 43.9 199.5 44 199.5 44.1ZM199.3 44.1C199.3 44 199.3 44 199.3 43.9C199.3 43.9 199.3 43.9 199.2 43.9C199.2 43.9 199.2 43.9 199.1 43.9C199.1 43.9 199.1 43.9 199 43.9C199 43.9 199 43.9 198.9 43.9C198.9 44 198.9 44 198.9 44.1C198.9 44.2 198.9 44.2 198.9 44.3C198.9 44.3 198.9 44.3 199 44.3C199 44.3 199 44.3 199.1 44.3C199.1 44.3 199.1 44.3 199.2 44.3C199.2 44.3 199.2 44.3 199.3 44.3C199.3 44.2 199.3 44.1 199.3 44.1Z" fill="#066132"/>
<path d="M200 44.4C199.9 44.4 199.9 44.5 200 44.4C199.9 44.5 199.9 44.5 199.8 44.5H199.7C199.7 44.5 199.7 44.5 199.6 44.5C199.6 44.5 199.6 44.5 199.6 44.4V44.3V43.9H199.8V44.3C199.9 44.3 199.9 44.3 200 44.4C200 44.3 200 44.3 200 44.3V43.9H200.2V44.5L200 44.4Z" fill="#066132"/>
<path d="M200.6 44.5C200.6 44.4 200.6 44.4 200.6 44.5C200.6 44.4 200.5 44.5 200.6 44.5C200.5 44.5 200.5 44.5 200.4 44.5H200.3C200.3 44.5 200.3 44.5 200.2 44.5C200.2 44.5 200.2 44.5 200.2 44.4C200.2 44.4 200.2 44.4 200.2 44.3V44.2C200.2 44.2 200.2 44.2 200.3 44.1H200.4H200.5H200.6C200.6 44.1 200.6 44.1 200.6 44H200.4V43.9C200.4 43.9 200.4 43.9 200.5 43.8H200.6H200.7H200.8H200.9C200.9 43.8 200.9 43.8 201 43.9V44V44.2C201 44.2 201 44.2 201 44.3L200.6 44.5ZM200.7 43.8H200.5L200.4 43.7L200.3 43.8H200.2L200.4 43.6H200.5L200.7 43.8ZM200.5 44.4C200.5 44.4 200.5 44.3 200.5 44.4C200.6 44.3 200.6 44.3 200.5 44.4L200.6 44.3H200.5C200.4 44.2 200.4 44.3 200.5 44.4C200.4 44.3 200.4 44.3 200.5 44.4C200.4 44.3 200.4 44.3 200.5 44.4C200.4 44.3 200.4 44.3 200.5 44.4C200.5 44.4 200.5 44.3 200.5 44.4Z" fill="#066132"/>
<path d="M201 43.9C201.1 43.9 201.1 43.9 201 43.9C201.1 43.9 201.1 43.9 201.2 43.9H201.3C201.3 43.9 201.3 43.9 201.4 43.9C201.4 43.9 201.4 43.9 201.4 44V44.1V44.5H201.2V44.1C201.2 44.1 201.2 44.1 201.1 44.1V44.5H200.9V43.9H201Z" fill="#066132"/>
<path d="M201.8 44.5V44.1H201.7V44H201.8V43.7H202.1C202.2 43.7 202.2 43.7 202.3 43.7C202.3 43.7 202.4 43.7 202.4 43.8L202.5 43.9C202.5 44 202.5 44 202.5 44.1C202.5 44.2 202.5 44.2 202.5 44.3C202.5 44.3 202.5 44.4 202.4 44.4L202.3 44.5C202.3 44.5 202.2 44.5 202.1 44.5H201.8ZM202.2 44.1H202V44.3H202.1H202.2C202.2 44.3 202.2 44.3 202.3 44.3C202.3 44.2 202.4 44.2 202.3 44.1C202.3 44 202.3 44 202.3 43.9C202.3 43.9 202.3 43.9 202.2 43.9C202.2 43.9 202.2 43.9 202.1 43.9H202V44H202.1V44.1H202.2Z" fill="#066132"/>
<path d="M202.6 44.2V44.1C202.6 44.1 202.6 44 202.7 44C202.7 44 202.8 44 202.8 43.9C202.9 43.9 203 43.9 203.1 43.9C203.1 43.9 203.2 43.9 203.2 44C203.2 44 203.2 44.1 203.3 44.1V44.2V44.3C203.3 44.3 203.3 44.4 203.2 44.4C203.2 44.4 203.1 44.4 203.1 44.5C203 44.5 202.9 44.5 202.8 44.5C202.8 44.5 202.7 44.5 202.7 44.4C202.7 44.4 202.7 44.3 202.6 44.3C202.6 44.3 202.6 44.2 202.6 44.2ZM203.1 43.8H202.9L202.8 43.7L202.7 43.8H202.6L202.8 43.6H202.9L203.1 43.8ZM202.8 44.6C202.8 44.5 202.8 44.5 202.8 44.6C202.9 44.5 202.9 44.5 202.9 44.5C202.8 44.7 202.8 44.7 202.8 44.6C202.8 44.7 202.8 44.7 202.8 44.6C202.8 44.6 202.8 44.7 202.8 44.6ZM202.8 44.2C202.8 44.3 202.8 44.3 202.8 44.3C202.8 44.3 202.8 44.3 202.9 44.3C202.9 44.3 202.9 44.3 203 44.3C203 44.3 203 44.3 203 44.2C203 44.2 203 44.2 203 44.1C203 44.1 203 44.1 203 44C203 44 203 44 203 43.9C203 43.9 203 43.9 202.9 43.9C202.9 43.9 202.9 43.9 202.8 43.9C202.8 44.1 202.8 44.1 202.8 44.2C202.8 44.1 202.8 44.1 202.8 44.2Z" fill="#066132"/>
<path d="M203.2 43.7C203.2 43.7 203.3 43.7 203.2 43.7C203.3 43.6 203.3 43.6 203.2 43.7C203.3 43.6 203.3 43.6 203.3 43.6C203.3 43.8 203.3 43.8 203.2 43.7C203.3 43.8 203.3 43.8 203.2 43.7C203.2 43.8 203.3 43.8 203.2 43.7ZM203.4 44.5H203.2V43.9H203.4V44.5Z" fill="#066132"/>
<path d="M197.1 42.9C197.1 42.8 197.1 42.7 197.1 42.6C197.1 42.3 197.1 41.9 197.1 41.6C197.1 41.4 197.1 41.1 197.1 40.9C197.1 40.8 197.1 40.6 197.1 40.5C197.1 40.5 197.1 40.5 197.1 40.4C197.1 40.4 197 40.4 197 40.5C196.9 40.7 196.8 41 196.7 41.2C196.5 41.6 196.4 41.9 196.2 42.3V42.4C196 42.4 195.7 42.4 195.5 42.4V42.3C195.2 41.7 195 41.1 194.7 40.6V40.5C194.7 40.6 194.7 40.7 194.7 40.7C194.7 41.1 194.7 41.6 194.6 42C194.6 42.3 194.6 42.6 194.6 42.9C194.6 42.9 194.6 42.9 194.6 43H193.7C193.7 43 193.7 43 193.6 43C193.6 42.9 193.6 42.9 193.6 42.8C193.7 41.5 193.7 40.3 193.9 39V38.9C193.9 38.9 193.9 38.9 194 38.9H194.9C194.9 38.9 194.9 38.9 195 38.9C195 38.9 195 38.9 195 39C195.3 39.7 195.6 40.3 195.9 41C195.9 41 195.9 41.1 196 41.1C196.1 41 196.1 40.9 196.1 40.8C196.1 40.7 196.2 40.6 196.2 40.5C196.2 40.4 196.3 40.3 196.3 40.2C196.3 40.1 196.4 40 196.4 39.9C196.4 39.8 196.5 39.7 196.5 39.6C196.5 39.5 196.6 39.4 196.7 39.3L196.8 39C196.9 39 197 39 197.1 39C197.2 39 197.3 39 197.4 39C197.5 39 197.6 39 197.7 39C197.7 39.1 197.7 39.2 197.7 39.2C197.8 40.4 198 42.9 198 43.1C197.9 43.1 197.8 43.1 197.7 43.1C197.6 43.1 197.5 43.1 197.4 43.1L197.1 42.9Z" fill="#066132"/>
<path d="M203.3 41.8C203.4 42.1 203.5 42.4 203.5 42.7H203.4C203.2 42.8 202.9 42.9 202.7 42.9C202.5 42.9 202.2 42.9 202 42.9C201.3 42.8 200.8 42.4 200.6 41.7C200.5 41.5 200.5 41.2 200.5 41C200.5 40.7 200.5 40.5 200.6 40.2C200.7 39.9 200.8 39.7 200.9 39.5C201.1 39.1 201.5 38.9 202 38.8C202.5 38.7 203.1 38.7 203.6 38.9C203.6 38.9 203.6 38.9 203.7 38.9C203.7 38.9 203.7 38.9 203.7 39C203.6 39.2 203.6 39.5 203.5 39.7C203.5 39.7 203.5 39.7 203.5 39.8C203.5 39.8 203.5 39.8 203.4 39.8C203.3 39.8 203.1 39.7 203 39.7C202.8 39.7 202.6 39.7 202.4 39.7C202.3 39.7 202.2 39.8 202.1 39.8C202 39.9 201.9 40 201.9 40.1C201.8 40.2 201.8 40.4 201.8 40.5C201.8 40.8 201.8 41 201.8 41.3C201.8 41.4 201.8 41.5 201.9 41.6C202 41.7 202 41.8 202.2 41.9C202.3 42 202.4 42 202.6 42C202.9 42 203.2 42 203.5 41.9L203.3 41.8Z" fill="#066132"/>
<path d="M198.8 38.7C199.2 38.7 199.5 38.7 199.8 38.7C199.8 38.7 199.8 38.7 199.9 38.7C199.9 38.7 199.9 38.7 199.9 38.8V38.9V42.8C199.9 42.9 199.9 42.9 199.9 43H199.8C199.5 43 199.2 43 198.9 43H198.8C198.8 43 198.8 43 198.8 42.9C198.8 41.5 198.8 40.1 198.8 38.7Z" fill="#066132"/>
<path d="M189.8 42.1C189.7 42.1 189.6 42.1 189.5 42C189.4 41.9 189.4 41.8 189.4 41.8C189.4 41.7 189.4 41.6 189.5 41.5C189.6 41.4 189.6 41.4 189.7 41.3C189.8 41.3 190 41.2 190.1 41.2C190.4 41.1 190.7 41.1 191 41C191.1 41 191.1 41 191.2 41C191.2 41 191.3 41 191.3 41.1L191.4 41.2C191.4 41.2 191.4 41.3 191.4 41.4L191.3 41.5H191.2L190 42C190 42.1 189.9 42.1 189.8 42.1Z" fill="#EB2227"/>
<path d="M188.4 41.5C188.5 41.5 188.5 41.5 188.6 41.5L188.7 41.6C188.7 41.6 188.7 41.7 188.8 41.7C189 42 189.2 42.4 189.4 42.7C189.4 42.7 189.4 42.8 189.5 42.8C189.5 42.9 189.5 42.9 189.5 43C189.5 43.1 189.4 43.1 189.4 43.1C189.3 43.1 189.3 43.2 189.2 43.1C189.1 43.1 189.1 43.1 189 43C188.9 42.9 188.8 42.8 188.7 42.7L188.2 42.1L188.1 42C188.1 41.9 188 41.9 188 41.8C188 41.7 188 41.7 188 41.6C188 41.5 188.1 41.5 188.2 41.4C188.3 41.6 188.4 41.5 188.4 41.5Z" fill="#EB2227"/>
<path d="M187.7 40.3C187.8 40.3 187.8 40.3 187.9 40.4C188 40.4 188 40.5 188 40.6C188 40.7 188.1 40.7 188 40.8C188 40.9 188 40.9 187.9 41C187.9 41 187.9 41.1 187.8 41.1C187.5 41.4 187.2 41.7 187 42L186.9 42.1H186.8C186.7 42.1 186.7 42.1 186.7 42L186.6 41.9V41.8V41.7C186.8 41.3 187 41 187.3 40.6L187.4 40.5C187.6 40.3 187.6 40.3 187.7 40.3Z" fill="#EB2227"/>
<path d="M188.8 40.1C188.7 40.1 188.7 40.1 188.6 40L187.7 39.6C187.6 39.6 187.5 39.5 187.4 39.5C187.3 39.5 187.3 39.4 187.3 39.4C187.3 39.3 187.3 39.3 187.3 39.2C187.3 39.1 187.3 39.1 187.4 39.1C187.4 39.1 187.5 39 187.6 39H187.7L188.9 39.3C188.9 39.3 188.9 39.3 189 39.3C189.1 39.3 189.1 39.4 189.2 39.4C189.3 39.5 189.3 39.5 189.3 39.6C189.3 39.7 189.3 39.8 189.2 39.8C189.2 39.9 189.1 39.9 189 39.9C188.9 40.1 188.8 40.1 188.8 40.1Z" fill="#EB2227"/>
<path d="M189.7 40.3C189.7 40.2 189.7 40.1 189.7 40C189.7 39.7 189.8 39.5 189.8 39.2C189.8 39.1 189.8 39.1 189.8 39C189.8 38.9 189.8 38.9 189.9 38.8C189.9 38.8 190 38.7 190.1 38.7C190.2 38.7 190.2 38.7 190.3 38.8C190.3 38.8 190.4 38.9 190.4 39C190.4 39.1 190.4 39.2 190.4 39.3C190.4 39.5 190.4 39.7 190.5 40C190.5 40.1 190.5 40.2 190.5 40.3C190.5 40.4 190.5 40.4 190.5 40.5C190.5 40.5 190.5 40.6 190.4 40.6C190.3 40.6 190.3 40.7 190.3 40.7C190.3 40.7 190.2 40.7 190.1 40.7C190 40.7 190 40.7 189.9 40.7C189.8 40.7 189.8 40.7 189.8 40.6L189.7 40.5C189.7 40.4 189.7 40.4 189.7 40.3Z" fill="#EB2227"/>
<path d="M192.5 40.8C192.5 40.9 192.5 40.9 192.5 41C192.5 41.1 192.4 41.1 192.4 41.1C192.4 41.1 192.3 41.2 192.2 41.2C192.1 41.2 192.1 41.2 192 41.2H191.9L190.9 40.8C190.9 40.8 190.9 40.8 190.8 40.8C190.7 40.8 190.7 40.7 190.7 40.7C190.7 40.6 190.7 40.6 190.7 40.5V40.4C190.7 40.4 190.7 40.3 190.8 40.3C190.8 40.3 190.9 40.3 190.9 40.2H191C191.1 40.2 191.2 40.2 191.3 40.3L192.2 40.5H192.3C192.4 40.5 192.4 40.6 192.5 40.6C192.5 40.6 192.5 40.7 192.5 40.8Z" fill="#EB2227"/>
<path d="M189.8 37.5C189.9 37.5 189.9 37.5 190 37.5C190.1 37.5 190.1 37.6 190.2 37.6C190.2 37.7 190.3 37.7 190.3 37.8C190.3 37.9 190.3 37.9 190.2 38C190.2 38 190.2 38.1 190.1 38.1L189.4 38.9C189.4 38.9 189.4 38.9 189.3 39C189.3 39 189.2 39.1 189.1 39.1C189 39.1 189 39.1 188.9 39.1C188.8 39.1 188.8 39 188.8 38.9C188.8 38.8 188.8 38.8 188.8 38.7C188.8 38.7 188.8 38.6 188.9 38.6L189.4 37.7V37.6C189.4 37.5 189.5 37.5 189.5 37.5C189.7 37.5 189.7 37.5 189.8 37.5Z" fill="#EB2227"/>
<path d="M189.7 43.8C189.7 43.7 189.7 43.5 189.7 43.4C189.7 43.1 189.7 42.9 189.8 42.6C189.8 42.5 189.8 42.5 189.8 42.5L189.9 42.4H190H190.1L190.2 42.5V42.6C190.2 42.7 190.2 42.7 190.2 42.8L190.3 43.7C190.3 43.8 190.3 43.8 190.3 43.9C190.3 44 190.2 44 190.2 44.1C190.1 44.2 190.1 44.2 190 44.2C189.9 44.2 189.8 44.2 189.8 44.2C189.7 44.2 189.7 44.1 189.6 44.1C189.7 43.9 189.7 43.9 189.7 43.8Z" fill="#EB2227"/>
<path d="M186.5 43.2C186.4 43.2 186.3 43.2 186.2 43.1C186.1 43 186.1 43 186.1 42.9C186.1 42.8 186.1 42.7 186.1 42.6C186.1 42.5 186.2 42.5 186.3 42.4C186.4 42.4 186.4 42.4 186.5 42.3C186.8 42.2 187.1 42.2 187.4 42.1C187.4 42.1 187.5 42.1 187.6 42.1C187.7 42.1 187.7 42.1 187.8 42.1C187.9 42.1 187.9 42.2 187.9 42.2C187.9 42.3 187.9 42.3 187.9 42.4C187.9 42.5 187.8 42.5 187.8 42.5H187.7C187.4 42.6 187 42.8 186.7 42.9C186.6 43.1 186.5 43.2 186.5 43.2Z" fill="#EB2227"/>
<path d="M187.3 40.1C187.3 40.2 187.3 40.2 187.3 40.3L187.2 40.4C187.1 40.4 187.1 40.4 187 40.4C186.9 40.4 186.9 40.4 186.8 40.3C186.8 40.3 186.8 40.3 186.7 40.2L186 39.4C185.9 39.3 185.9 39.3 185.9 39.2C185.9 39.1 185.9 39 186 38.9C186.1 38.8 186.1 38.8 186.2 38.7C186.3 38.7 186.4 38.7 186.4 38.7C186.5 38.7 186.5 38.8 186.6 38.9C186.8 39.2 187 39.5 187.2 39.8C187.3 40 187.3 40 187.3 40.1Z" fill="#EB2227"/>
<path d="M267.6 65.5L267.8 64.7L268.1 64.8C268.1 64.8 268.2 64.8 268.2 64.9C268.2 64.9 268.3 64.9 268.3 65V65.1V65.2C268.3 65.2 268.3 65.2 268.3 65.3C268.3 65.3 268.3 65.3 268.2 65.3C268.2 65.3 268.2 65.3 268.3 65.3C268.3 65.3 268.3 65.3 268.3 65.4C268.3 65.4 268.3 65.4 268.3 65.5C268.3 65.5 268.3 65.5 268.3 65.6V65.7C268.3 65.7 268.2 65.7 268.2 65.8C268.1 65.8 268 65.8 268 65.8L267.6 65.5ZM267.9 65.1C268 65.1 268.1 65.1 268.1 65.1H268H267.9V65.1ZM267.9 65.3L267.8 65.5H267.9C267.9 65.5 267.9 65.5 268 65.5L267.9 65.3Z" fill="#066132"/>
<path d="M268.6 65.8C268.5 65.8 268.5 65.8 268.4 65.8H268.3C268.3 65.8 268.3 65.8 268.2 65.7C268.2 65.7 268.2 65.7 268.2 65.6V65.5V65.4C268.2 65.4 268.2 65.4 268.3 65.4H268.4H268.5H268.6C268.6 65.4 268.6 65.4 268.6 65.3C268.6 65.3 268.6 65.3 268.5 65.3L268.3 65.2V65.1C268.3 65.1 268.3 65.1 268.4 65.1H268.5H268.6H268.7C268.7 65.1 268.7 65.1 268.8 65.2V65.3V65.4L268.7 65.6L268.6 65.8ZM268.6 65.1C268.7 65.1 268.7 65.1 268.6 65.1C268.7 65.1 268.7 65 268.6 65.1C268.7 65 268.7 65 268.6 65.1C268.7 65 268.7 65 268.7 65V64.9C268.8 64.9 268.8 64.9 268.9 65C268.9 65 268.9 65 268.9 65.1H268.6ZM268.5 65.7C268.6 65.7 268.6 65.7 268.5 65.7C268.6 65.7 268.6 65.7 268.6 65.7V65.6H268.5C268.5 65.6 268.5 65.6 268.5 65.7C268.5 65.6 268.5 65.6 268.5 65.7C268.5 65.7 268.5 65.6 268.5 65.7Z" fill="#066132"/>
<path d="M268.9 65.6C268.9 65.6 268.9 65.5 269 65.5L269.1 65.4H269.2H269.3C269.3 65.4 269.4 65.4 269.4 65.5L269.5 65.6V65.7V65.8C269.5 65.8 269.5 65.9 269.4 65.9C269.4 65.9 269.4 66 269.3 66H269.2C269.1 66 269 66 269 65.9L268.9 65.8V65.7C268.9 65.7 268.9 65.7 268.9 65.6ZM269.1 65.7C269.1 65.8 269.1 65.8 269.1 65.8C269.1 65.8 269.1 65.8 269.2 65.8C269.2 65.8 269.2 65.8 269.2 65.7C269.2 65.7 269.2 65.7 269.2 65.6C269.2 65.6 269.2 65.6 269.2 65.5C269.2 65.5 269.2 65.5 269.1 65.5C269.2 65.6 269.2 65.6 269.1 65.7C269.1 65.6 269.1 65.6 269.1 65.7Z" fill="#066132"/>
<path d="M270.5 66.4L270.3 66.3L270.4 66L270.1 65.9L270 66.2L269.8 66.1L270 65.3L270.2 65.4L270.1 65.7L270.4 65.8L270.5 65.5L270.7 65.6L270.5 66.4Z" fill="#066132"/>
<path d="M270.8 65.7C270.8 65.7 270.8 65.6 270.8 65.7C270.8 65.6 270.8 65.6 270.8 65.7C270.8 65.6 270.8 65.6 270.8 65.7C270.9 65.6 270.9 65.6 270.9 65.6C270.8 65.8 270.8 65.8 270.8 65.7C270.8 65.8 270.8 65.8 270.8 65.7ZM270.8 66.5L270.6 66.4L270.8 65.8L271 65.9L270.8 66.5Z" fill="#066132"/>
<path d="M271.2 66.6C271.2 66.6 271.1 66.6 271.1 66.5L271 66.4V66.3V66.2C271 66.2 271 66.1 271.1 66.1C271.1 66.1 271.1 66 271.2 66H271.3H271.4C271.4 66 271.5 66 271.5 66.1C271.5 66.1 271.6 66.1 271.6 66.2V66.3V66.4V66.5L271.2 66.4V66.5C271.2 66.5 271.2 66.5 271.3 66.6H271.4H271.5L271.6 66.7C271.6 66.7 271.6 66.7 271.5 66.7C271.3 66.6 271.3 66.6 271.2 66.6ZM271.5 66H271.4L271.3 65.9H271.2H271.1L271.3 65.8H271.4L271.5 66ZM271.3 66.1C271.3 66.1 271.2 66.1 271.3 66.1C271.2 66.1 271.2 66.1 271.3 66.1C271.2 66.1 271.2 66.1 271.2 66.1L271.4 66.2C271.3 66.2 271.3 66.2 271.3 66.1C271.3 66.2 271.3 66.2 271.3 66.1ZM271.5 65.9C271.5 65.8 271.5 65.8 271.5 65.9C271.5 65.8 271.5 65.8 271.5 65.9C271.5 65.8 271.5 65.8 271.5 65.9C271.5 65.8 271.5 65.8 271.5 65.9C271.5 65.8 271.5 65.8 271.5 65.9C271.6 65.8 271.5 65.8 271.5 65.8V65.7C271.5 65.7 271.6 65.7 271.6 65.8L271.5 65.9Z" fill="#066132"/>
<path d="M271.8 66.1C271.8 66.2 271.9 66.2 271.8 66.1C271.9 66.1 271.9 66.1 272 66.1H272.1V66.2H272.2H272.3C272.3 66.2 272.3 66.2 272.4 66.2C272.4 66.2 272.4 66.2 272.4 66.3V66.4V66.5L272.3 66.9L272.1 66.8L272.2 66.4C272.2 66.4 272.2 66.4 272.1 66.4L272 66.8L271.8 66.7L271.9 66.3C271.9 66.3 271.9 66.3 271.8 66.3L271.7 66.7L271.5 66.6L271.7 66L271.8 66.1Z" fill="#066132"/>
<path d="M273.5 66.8C273.5 66.9 273.5 66.9 273.4 67L273.3 67.1L273.4 67.2L273.3 67.3L273.2 67.1C273.2 67.1 273.1 67.1 273.1 67L273 66.9V66.8C273 66.7 273 66.7 273 66.6C273 66.5 273 66.5 273.1 66.4L273.2 66.3H273.3H273.4C273.4 66.3 273.5 66.3 273.5 66.4L273.6 66.5V66.6C273.5 66.7 273.5 66.7 273.5 66.8ZM273.3 66.7C273.3 66.6 273.3 66.6 273.3 66.5C273.3 66.5 273.3 66.5 273.3 66.4C273.3 66.4 273.3 66.4 273.2 66.4C273.2 66.4 273.2 66.4 273.1 66.4C273.1 66.4 273.1 66.4 273 66.4C273 66.4 272.9 66.5 272.9 66.6C272.9 66.7 272.9 66.7 272.9 66.8C272.9 66.8 272.9 66.8 272.9 66.9C272.9 66.9 272.9 66.9 273 66.9C273 66.9 273 66.9 273.1 66.9C273.1 66.9 273.1 66.9 273.2 66.9C273.3 66.9 273.3 66.8 273.3 66.7Z" fill="#066132"/>
<path d="M273.9 67.3C273.8 67.3 273.8 67.3 273.9 67.3C273.8 67.3 273.8 67.3 273.7 67.3H273.6C273.6 67.3 273.6 67.3 273.5 67.2V67.1V67L273.6 66.6L273.8 66.7L273.7 67.1C273.8 67.2 273.8 67.2 273.9 67.3C273.8 67.2 273.8 67.2 273.9 67.3C273.9 67.2 273.9 67.2 273.9 67.2L274 66.8L274.2 66.9L274 67.5L273.9 67.3Z" fill="#066132"/>
<path d="M274.5 67.5C274.4 67.5 274.4 67.5 274.5 67.5C274.4 67.5 274.4 67.5 274.3 67.5H274.2C274.2 67.5 274.2 67.5 274.1 67.4C274.1 67.4 274.1 67.4 274.1 67.3V67.2V67.1C274.1 67.1 274.1 67.1 274.2 67.1H274.3H274.4H274.5C274.5 67.1 274.5 67.1 274.5 67C274.5 67 274.5 67 274.4 67L274.2 66.9V66.8C274.2 66.8 274.2 66.8 274.3 66.8H274.4H274.5H274.6C274.6 66.8 274.6 66.8 274.7 66.9V67V67.1L274.6 67.3L274.5 67.5ZM274.8 66.9H274.7L274.6 66.8H274.5H274.4L274.6 66.7H274.7L274.8 66.9ZM274.4 67.4C274.5 67.4 274.5 67.4 274.5 67.4V67.3H274.4C274.3 67.3 274.3 67.3 274.4 67.4C274.3 67.3 274.3 67.3 274.4 67.4C274.3 67.3 274.3 67.3 274.4 67.4C274.4 67.4 274.4 67.3 274.4 67.4Z" fill="#066132"/>
<path d="M275.1 67.1C275.2 67.1 275.2 67.1 275.3 67.1H275.4C275.4 67.1 275.4 67.1 275.4 67.2V67.3V67.4L275.3 67.8L275.1 67.7L275.2 67.3C275.2 67.3 275.2 67.3 275.1 67.3L275 67.7L274.8 67.6L275 67L275.1 67.1Z" fill="#066132"/>
<path d="M275.7 67.8L275.8 67.5H275.7V67.4H275.8L275.9 67.1L276.2 67.2C276.3 67.2 276.3 67.2 276.3 67.3L276.4 67.4V67.5C276.4 67.6 276.4 67.6 276.4 67.7C276.4 67.8 276.4 67.8 276.3 67.8L276.2 67.9H276.1C276 67.9 276 67.9 275.9 67.9L275.7 67.8ZM276.1 67.6H276L275.9 67.8H276C276 67.8 276 67.8 276.1 67.8C276.1 67.8 276.1 67.8 276.2 67.8C276.2 67.8 276.3 67.7 276.3 67.6C276.3 67.5 276.3 67.5 276.3 67.4C276.3 67.4 276.3 67.4 276.3 67.3C276.3 67.3 276.3 67.3 276.2 67.3H276.1L276 67.5H276.1V67.6Z" fill="#066132"/>
<path d="M276.4 67.7C276.4 67.7 276.4 67.6 276.5 67.6C276.5 67.6 276.5 67.5 276.6 67.5H276.7C276.8 67.5 276.9 67.5 276.9 67.6L277 67.7V67.8V67.9C277 67.9 277 68 276.9 68C276.9 68 276.9 68.1 276.8 68.1H276.7C276.6 68.1 276.5 68.1 276.5 68L276.4 67.9V67.8C276.4 67.8 276.4 67.8 276.4 67.7ZM277.1 67.5H277L276.9 67.4H276.8H276.7L276.9 67.3H277L277.1 67.5ZM276.5 68.2C276.5 68.2 276.6 68.2 276.5 68.2C276.6 68.1 276.6 68.1 276.6 68.1C276.6 68.3 276.5 68.3 276.5 68.2C276.5 68.3 276.5 68.3 276.5 68.2C276.5 68.3 276.5 68.3 276.5 68.2ZM276.6 67.8C276.6 67.8 276.6 67.9 276.6 67.8C276.6 67.9 276.6 67.9 276.6 67.9C276.6 67.9 276.6 67.9 276.7 67.9C276.7 67.9 276.7 67.9 276.7 67.8C276.7 67.8 276.7 67.8 276.7 67.7C276.7 67.7 276.7 67.7 276.7 67.6C276.7 67.6 276.7 67.6 276.6 67.6C276.7 67.7 276.6 67.7 276.6 67.8Z" fill="#066132"/>
<path d="M277.2 67.5C277.3 67.4 277.3 67.4 277.2 67.5C277.3 67.4 277.3 67.4 277.3 67.4C277.3 67.6 277.2 67.6 277.2 67.5C277.2 67.6 277.2 67.6 277.2 67.5C277.2 67.6 277.2 67.6 277.2 67.5ZM277.2 68.3L277 68.2L277.2 67.6L277.4 67.7L277.2 68.3Z" fill="#066132"/>
<path d="M271.6 65.1C271.6 65 271.7 64.9 271.7 64.8C271.8 64.5 271.9 64.1 271.9 63.8C272 63.6 272 63.3 272.1 63.1C272.1 63 272.2 62.8 272.2 62.7C272.2 62.7 272.2 62.7 272.2 62.6C272.2 62.6 272.1 62.6 272.1 62.7C271.9 62.9 271.8 63.1 271.6 63.3C271.3 63.6 271.1 63.9 270.8 64.2C270.8 64.2 270.8 64.3 270.7 64.3C270.5 64.3 270.2 64.2 270 64.1V64C269.9 63.4 269.8 62.7 269.8 62.1V62C269.8 62.1 269.7 62.1 269.7 62.2C269.6 62.6 269.4 63 269.3 63.4C269.2 63.7 269.1 64 269 64.3C269 64.3 269 64.3 269 64.4L268.2 64.2C268.2 64.2 268.2 64.2 268.1 64.2C268.1 64.1 268.1 64.1 268.2 64C268.6 62.8 269 61.6 269.5 60.4V60.3C269.5 60.3 269.5 60.3 269.6 60.3L270.4 60.5V60.6C270.5 61.3 270.7 62.1 270.7 62.8V62.9C270.8 62.8 270.9 62.7 270.9 62.7C271 62.6 271 62.5 271.1 62.4C271.2 62.3 271.2 62.2 271.3 62.1C271.4 62 271.4 61.9 271.5 61.8C271.6 61.7 271.6 61.6 271.7 61.5C271.8 61.4 271.9 61.3 271.9 61.2L272.1 60.9C272.2 60.9 272.3 60.9 272.4 61C272.5 61 272.6 61.1 272.7 61.1C272.8 61.1 272.9 61.2 273 61.2C273 61.3 273 61.4 273 61.4C272.8 62.5 272.3 65 272.2 65.2C272.1 65.2 272 65.2 271.9 65.1C271.8 65.1 271.7 65 271.6 65V65.1Z" fill="#066132"/>
<path d="M277.8 65.7C277.8 66 277.8 66.3 277.8 66.6H277.7C277.4 66.6 277.2 66.6 276.9 66.6C276.7 66.6 276.4 66.5 276.2 66.4C275.6 66.1 275.2 65.6 275.2 64.9C275.2 64.7 275.2 64.4 275.3 64.2C275.4 63.9 275.4 63.7 275.6 63.4C275.7 63.2 275.9 62.9 276.1 62.8C276.4 62.5 276.9 62.4 277.3 62.4C277.8 62.4 278.4 62.6 278.8 62.9C278.8 62.9 278.8 62.9 278.8 63C278.7 63.2 278.5 63.4 278.4 63.6C278.4 63.6 278.4 63.6 278.3 63.6C278.2 63.5 278 63.4 277.9 63.4C277.7 63.3 277.5 63.3 277.3 63.3C277.2 63.3 277.1 63.3 277 63.4C276.9 63.4 276.8 63.5 276.7 63.6C276.6 63.7 276.5 63.8 276.5 64C276.4 64.2 276.3 64.5 276.3 64.8C276.3 64.9 276.3 65 276.3 65.1C276.3 65.2 276.4 65.4 276.5 65.5C276.6 65.6 276.7 65.7 276.8 65.7C277.1 65.8 277.4 65.9 277.7 65.8L277.8 65.7Z" fill="#066132"/>
<path d="M274.3 61.5C274.7 61.6 275 61.7 275.3 61.8C275.3 61.8 275.3 61.8 275.4 61.8C275.4 61.8 275.4 61.8 275.4 61.9V62L274.3 65.7C274.3 65.8 274.3 65.8 274.3 65.9H274.2C273.9 65.8 273.6 65.7 273.4 65.7H273.3C273.3 65.7 273.3 65.7 273.3 65.6C273.5 64.1 273.9 62.8 274.3 61.5Z" fill="#066132"/>
<path d="M264.8 62.3C264.7 62.3 264.6 62.2 264.6 62.1C264.5 62 264.5 61.9 264.5 61.8C264.5 61.7 264.6 61.6 264.6 61.6C264.7 61.5 264.8 61.5 264.9 61.5C265 61.5 265.2 61.5 265.3 61.5C265.6 61.5 265.9 61.5 266.2 61.6C266.3 61.6 266.3 61.6 266.4 61.6L266.5 61.7V61.8C266.5 61.9 266.5 61.9 266.5 61.9L266.4 62H266.3L265.1 62.2C264.9 62.3 264.8 62.3 264.8 62.3Z" fill="#EB2227"/>
<path d="M263.6 61.4C263.6 61.4 263.7 61.4 263.7 61.5L263.8 61.6V61.7C263.9 62.1 264 62.5 264.1 62.8V62.9C264.1 63 264.1 63 264.1 63.1C264.1 63.2 264 63.2 264 63.2C263.9 63.2 263.9 63.2 263.8 63.2C263.7 63.2 263.7 63.1 263.7 63.1C263.6 63 263.6 62.8 263.5 62.7L263.1 62C263.1 62 263.1 61.9 263 61.9C263 61.8 263 61.8 263 61.7C263 61.6 263.1 61.6 263.1 61.5C263.2 61.4 263.2 61.4 263.3 61.4C263.4 61.3 263.5 61.3 263.6 61.4Z" fill="#EB2227"/>
<path d="M263.2 60C263.3 60 263.3 60.1 263.4 60.1C263.4 60.2 263.5 60.2 263.5 60.3C263.5 60.4 263.5 60.4 263.5 60.5C263.5 60.6 263.4 60.6 263.4 60.7C263.4 60.7 263.3 60.7 263.3 60.8C263 61 262.6 61.2 262.3 61.5C262.3 61.5 262.2 61.5 262.2 61.6C262.1 61.6 262.1 61.6 262.1 61.6L262 61.5V61.4C262 61.3 262 61.3 262 61.3C262 61.3 262 61.3 262.1 61.2C262.4 60.9 262.7 60.6 263 60.3L263.1 60.2C263 60 263.1 59.9 263.2 60C263.2 60 263.2 59.9 263.2 60Z" fill="#EB2227"/>
<path d="M264.3 60C264.2 60 264.2 59.9 264.1 59.9L263.4 59.3C263.3 59.2 263.2 59.2 263.1 59.1L263 59C263 59 263 58.9 263 58.8C263 58.7 263.1 58.7 263.1 58.7C263.2 58.7 263.2 58.7 263.3 58.7H263.4L264.5 59.3C264.5 59.3 264.5 59.3 264.6 59.3C264.7 59.3 264.7 59.4 264.8 59.5C264.8 59.6 264.8 59.7 264.8 59.7C264.8 59.8 264.7 59.8 264.7 59.9C264.6 60 264.6 60 264.5 60C264.4 60 264.3 60 264.3 60Z" fill="#EB2227"/>
<path d="M265.1 60.5C265.1 60.4 265.2 60.3 265.2 60.2C265.3 60 265.4 59.7 265.5 59.5C265.5 59.4 265.6 59.4 265.6 59.3C265.6 59.2 265.7 59.2 265.7 59.2C265.8 59.2 265.8 59.2 265.9 59.2C266 59.2 266 59.3 266.1 59.3C266.1 59.4 266.1 59.4 266.1 59.5C266.1 59.6 266.1 59.7 266 59.8C266 60 265.9 60.2 265.9 60.5C265.9 60.6 265.9 60.7 265.8 60.8C265.8 60.9 265.8 60.9 265.7 60.9L265.6 61C265.6 61 265.5 61 265.5 61.1C265.4 61.1 265.4 61.1 265.3 61.1C265.2 61.1 265.2 61.1 265.2 61C265.2 60.9 265.1 60.9 265.1 60.9C265.1 60.9 265.1 60.8 265 60.8C265.1 60.6 265.1 60.6 265.1 60.5Z" fill="#EB2227"/>
<path d="M267.7 61.7C267.7 61.8 267.7 61.8 267.6 61.8L267.5 61.9C267.4 61.9 267.4 61.9 267.3 61.9C267.2 61.9 267.2 61.9 267.1 61.8C267.1 61.8 267 61.8 267 61.7L266.2 61.1C266.2 61.1 266.2 61.1 266.1 61.1C266 61.1 266 61 266 61C266 60.9 266 60.9 266 60.8C266 60.8 266 60.7 266.1 60.7L266.2 60.6H266.3H266.4C266.5 60.6 266.6 60.7 266.7 60.7L267.5 61.1C267.5 61.1 267.5 61.1 267.6 61.1C267.7 61.1 267.7 61.2 267.7 61.3C267.7 61.6 267.7 61.6 267.7 61.7Z" fill="#EB2227"/>
<path d="M266 57.8C266.1 57.8 266.1 57.8 266.2 57.9C266.3 58 266.3 58 266.3 58.1C266.3 58.2 266.3 58.2 266.3 58.3C266.3 58.4 266.2 58.4 266.2 58.5C266.2 58.5 266.1 58.5 266.1 58.6L265.2 59.2C265.2 59.2 265.2 59.2 265.1 59.2C265 59.2 265 59.2 264.9 59.2C264.8 59.2 264.8 59.2 264.7 59.1C264.7 59 264.6 59 264.6 58.9C264.6 58.8 264.6 58.8 264.7 58.7C264.7 58.7 264.7 58.7 264.8 58.6L265.6 57.9C265.6 57.9 265.7 57.8 265.8 57.8C265.9 57.8 265.9 57.8 266 57.8Z" fill="#EB2227"/>
<path d="M264.1 63.8C264.1 63.7 264.2 63.6 264.2 63.4C264.3 63.2 264.4 62.9 264.5 62.7C264.5 62.7 264.5 62.6 264.6 62.6L264.7 62.5H264.8C264.8 62.5 264.9 62.5 264.9 62.6L265 62.7V62.8C265 62.9 265 62.9 265 63L264.8 63.9C264.8 64 264.8 64 264.7 64.1L264.6 64.2C264.5 64.2 264.5 64.3 264.4 64.2C264.3 64.2 264.3 64.2 264.2 64.1C264.1 64.1 264.1 64 264.1 63.9C264.1 64 264.1 63.9 264.1 63.8Z" fill="#EB2227"/>
<path d="M261.2 62.4C261.1 62.4 261 62.3 261 62.3C260.9 62.2 260.9 62.1 260.9 62.1C260.9 62 260.9 61.9 261 61.9C261.1 61.8 261.1 61.8 261.2 61.8C261.3 61.8 261.3 61.8 261.4 61.8C261.7 61.8 262 61.8 262.4 61.9C262.5 61.9 262.5 61.9 262.6 61.9C262.7 61.9 262.7 61.9 262.8 62C262.9 62.1 262.9 62.1 262.9 62.2C262.9 62.3 262.9 62.3 262.8 62.4C262.8 62.5 262.7 62.5 262.6 62.5H262.5C262.1 62.5 261.8 62.6 261.5 62.6C261.4 62.4 261.3 62.4 261.2 62.4Z" fill="#EB2227"/>
<path d="M262.9 59.6C262.9 59.7 262.9 59.7 262.8 59.7L262.7 59.8C262.6 59.8 262.6 59.8 262.5 59.8C262.4 59.8 262.4 59.7 262.4 59.7C262.4 59.7 262.4 59.7 262.4 59.6L261.9 58.6C261.9 58.5 261.8 58.4 261.9 58.4C261.9 58.3 262 58.2 262 58.1C262.1 58 262.2 58 262.3 58C262.4 58 262.5 58 262.5 58.1C262.6 58.2 262.6 58.2 262.6 58.3C262.7 58.7 262.8 59 262.9 59.4C262.9 59.5 262.9 59.6 262.9 59.6Z" fill="#EB2227"/>
</g>
<defs>
<clipPath id="clip0_1512_10376">
<rect width="301" height="158" fill="white"/>
</clipPath>
</defs>
</svg>
