<svg width="24" height="24" viewBox="0 0 24 24" fill="none" xmlns="http://www.w3.org/2000/svg">
<path fill-rule="evenodd" clip-rule="evenodd" d="M16.9152 6.0097C17.0453 6.26302 16.9454 6.57384 16.6921 6.70393L10.3624 9.95443C10.1091 10.0845 9.79829 9.98462 9.6682 9.7313C9.53811 9.47798 9.63801 9.16716 9.89133 9.03707L16.221 5.78657C16.4743 5.65648 16.7851 5.75638 16.9152 6.0097Z" fill="#217B56"/>
<path fill-rule="evenodd" clip-rule="evenodd" d="M9.6682 14.2687C9.79829 14.0154 10.1091 13.9155 10.3624 14.0456L16.6921 17.2961C16.9454 17.4262 17.0453 17.737 16.9152 17.9903C16.7851 18.2436 16.4743 18.3435 16.221 18.2134L9.89133 14.9629C9.63801 14.8328 9.53811 14.522 9.6682 14.2687Z" fill="#217B56"/>
<path fill-rule="evenodd" clip-rule="evenodd" d="M5.25 9.14062C3.67081 9.14062 2.39062 10.4208 2.39062 12C2.39062 13.5792 3.67081 14.8594 5.25 14.8594C6.82919 14.8594 8.10938 13.5792 8.10938 12C8.10938 10.4208 6.82919 9.14062 5.25 9.14062ZM1.35938 12C1.35938 9.85127 3.10127 8.10938 5.25 8.10938C7.39873 8.10938 9.14062 9.85127 9.14062 12C9.14062 14.1487 7.39873 15.8906 5.25 15.8906C3.10127 15.8906 1.35938 14.1487 1.35938 12Z" fill="#217B56"/>
<path fill-rule="evenodd" clip-rule="evenodd" d="M19.125 2.39062C17.7529 2.39062 16.6406 3.50292 16.6406 4.875C16.6406 6.24708 17.7529 7.35938 19.125 7.35938C20.4971 7.35938 21.6094 6.24708 21.6094 4.875C21.6094 3.50292 20.4971 2.39062 19.125 2.39062ZM15.6094 4.875C15.6094 2.93337 17.1834 1.35938 19.125 1.35938C21.0666 1.35938 22.6406 2.93337 22.6406 4.875C22.6406 6.81663 21.0666 8.39062 19.125 8.39062C17.1834 8.39062 15.6094 6.81663 15.6094 4.875Z" fill="#217B56"/>
<path fill-rule="evenodd" clip-rule="evenodd" d="M19.125 16.6406C17.7529 16.6406 16.6406 17.7529 16.6406 19.125C16.6406 20.4971 17.7529 21.6094 19.125 21.6094C20.4971 21.6094 21.6094 20.4971 21.6094 19.125C21.6094 17.7529 20.4971 16.6406 19.125 16.6406ZM15.6094 19.125C15.6094 17.1834 17.1834 15.6094 19.125 15.6094C21.0666 15.6094 22.6406 17.1834 22.6406 19.125C22.6406 21.0666 21.0666 22.6406 19.125 22.6406C17.1834 22.6406 15.6094 21.0666 15.6094 19.125Z" fill="#217B56"/>
</svg>
