<svg width="52" height="52" viewBox="0 0 52 52" fill="none" xmlns="http://www.w3.org/2000/svg">
<g clip-path="url(#clip0_567_2694)">
<path d="M25 50C24.9396 50 24.8793 49.9894 24.8217 49.9682C22.0531 48.9482 19.6976 47.1297 18.01 44.7094C16.3224 42.2891 15.4303 39.4502 15.4303 36.4997V28.4218C15.4303 28.2143 15.5546 28.027 15.7458 27.9465C18.8134 26.6549 21.927 26 25 26C28.073 26 31.1866 26.6549 34.2542 27.9465C34.3477 27.9859 34.4275 28.052 34.4836 28.1365C34.5397 28.2211 34.5697 28.3203 34.5697 28.4218V36.4997C34.5697 39.4502 33.6776 42.2892 31.99 44.7095C30.3024 47.1298 27.9469 48.9482 25.1783 49.9682C25.1212 49.9892 25.0608 50 25 50V50ZM16.4616 28.7666V36.4997C16.4616 41.9926 19.8846 46.9648 25 48.9335C30.1154 46.9648 33.5384 41.9926 33.5384 36.4997V28.7666C27.8707 26.4665 22.1293 26.4665 16.4616 28.7666V28.7666Z" fill="#217B56"/>
<path d="M25 46.8964C24.923 46.8964 24.846 46.8792 24.7749 46.8447C22.8441 45.9078 21.2144 44.4453 20.062 42.6154C18.9024 40.7742 18.2895 38.6594 18.2895 36.4998V30.4009C18.2895 30.2923 18.3238 30.1865 18.3875 30.0985C18.4512 30.0106 18.541 29.945 18.6441 29.9111C20.7681 29.213 22.9066 28.8591 25 28.8591C27.0934 28.8591 29.2319 29.213 31.3559 29.911C31.459 29.9449 31.5489 30.0105 31.6125 30.0985C31.6762 30.1864 31.7105 30.2923 31.7105 30.4008V36.4998C31.7105 38.6594 31.0976 40.7742 29.9381 42.6154C28.7856 44.4453 27.1559 45.9077 25.2251 46.8447C25.155 46.8788 25.078 46.8964 25 46.8964ZM19.3208 30.7776V36.4998C19.3208 40.3961 21.5416 44.0204 25 45.8043C28.4584 44.0204 30.6792 40.3961 30.6792 36.4998V30.7776C28.7766 30.1887 26.8678 29.8904 25 29.8904C23.1322 29.8904 21.2234 30.1887 19.3208 30.7776V30.7776Z" fill="#EB2227"/>
<path d="M23.8207 40.391C23.6839 40.391 23.5528 40.3367 23.4561 40.24L21.7713 38.5552C21.5699 38.3538 21.5699 38.0274 21.7713 37.826C21.9727 37.6247 22.2991 37.6247 22.5005 37.826L23.8207 39.1462L27.4996 35.4673C27.701 35.266 28.0274 35.266 28.2288 35.4673C28.4302 35.6687 28.4302 35.9951 28.2288 36.1965L24.1853 40.24C24.0886 40.3367 23.9574 40.391 23.8207 40.391V40.391Z" fill="#EB2227"/>
<path d="M12 26C11.9396 26 11.8793 25.9894 11.8217 25.9682C9.05311 24.9482 6.69764 23.1297 5.01 20.7094C3.32236 18.2891 2.43033 15.4502 2.43033 12.4997V4.42175C2.43033 4.21428 2.55464 4.02702 2.74584 3.94653C5.81344 2.65494 8.92697 2 12 2C15.073 2 18.1866 2.65494 21.2542 3.94653C21.3477 3.9859 21.4275 4.052 21.4836 4.13653C21.5397 4.22107 21.5697 4.32028 21.5697 4.42175V12.4997C21.5697 15.4502 20.6776 18.2892 18.99 20.7095C17.3024 23.1298 14.9469 24.9482 12.1783 25.9682C12.1212 25.9892 12.0608 26 12 26V26ZM3.46158 4.76656V12.4997C3.46158 17.9926 6.88463 22.9648 12 24.9335C17.1154 22.9648 20.5384 17.9926 20.5384 12.4997V4.76656C14.8707 2.46655 9.12933 2.46655 3.46158 4.76656V4.76656Z" fill="#217B56"/>
<path d="M12 22.8964C11.923 22.8964 11.846 22.8792 11.7749 22.8447C9.84413 21.9078 8.21443 20.4453 7.06196 18.6154C5.90241 16.7742 5.28952 14.6594 5.28952 12.4998V6.4009C5.28952 6.29231 5.3238 6.18649 5.38748 6.09853C5.45115 6.01057 5.54097 5.94496 5.64413 5.91105C7.76813 5.21304 9.90657 4.85913 12 4.85913C14.0934 4.85913 16.2319 5.21304 18.3559 5.91101C18.459 5.94491 18.5489 6.01052 18.6125 6.09848C18.6762 6.18644 18.7105 6.29226 18.7105 6.40085V12.4998C18.7105 14.6594 18.0976 16.7742 16.9381 18.6154C15.7856 20.4453 14.1559 21.9077 12.2251 22.8447C12.155 22.8788 12.078 22.8964 12 22.8964ZM6.32077 6.77758V12.4998C6.32077 16.3961 8.54157 20.0204 12 21.8043C15.4584 20.0204 17.6792 16.3961 17.6792 12.4998V6.77758C15.7766 6.18874 13.8678 5.89038 12 5.89038C10.1322 5.89038 8.22338 6.18874 6.32077 6.77758V6.77758Z" fill="#EB2227"/>
<path d="M10.8207 16.391C10.6839 16.391 10.5528 16.3367 10.4561 16.24L8.77131 14.5552C8.56993 14.3538 8.56993 14.0274 8.77131 13.826C8.97273 13.6247 9.29912 13.6247 9.50054 13.826L10.8207 15.1462L14.4996 11.4673C14.701 11.266 15.0274 11.266 15.2288 11.4673C15.4302 11.6687 15.4302 11.9951 15.2288 12.1965L11.1853 16.24C11.0886 16.3367 10.9574 16.391 10.8207 16.391V16.391Z" fill="#EB2227"/>
<path d="M39 26C38.9396 26 38.8793 25.9894 38.8217 25.9682C36.0531 24.9482 33.6976 23.1297 32.01 20.7094C30.3224 18.2891 29.4303 15.4502 29.4303 12.4997V4.42175C29.4303 4.21428 29.5546 4.02702 29.7458 3.94653C32.8134 2.65494 35.927 2 39 2C42.073 2 45.1866 2.65494 48.2542 3.94653C48.3477 3.9859 48.4275 4.052 48.4836 4.13653C48.5397 4.22107 48.5697 4.32028 48.5697 4.42175V12.4997C48.5697 15.4502 47.6776 18.2892 45.99 20.7095C44.3024 23.1298 41.9469 24.9482 39.1783 25.9682C39.1212 25.9892 39.0608 26 39 26V26ZM30.4616 4.76656V12.4997C30.4616 17.9926 33.8846 22.9648 39 24.9335C44.1154 22.9648 47.5384 17.9926 47.5384 12.4997V4.76656C41.8707 2.46655 36.1293 2.46655 30.4616 4.76656V4.76656Z" fill="#217B56"/>
<path d="M39 22.8964C38.923 22.8964 38.846 22.8792 38.7749 22.8447C36.8441 21.9078 35.2144 20.4453 34.062 18.6154C32.9024 16.7742 32.2895 14.6594 32.2895 12.4998V6.4009C32.2895 6.29231 32.3238 6.18649 32.3875 6.09853C32.4512 6.01057 32.541 5.94496 32.6441 5.91105C34.7681 5.21304 36.9066 4.85913 39 4.85913C41.0934 4.85913 43.2319 5.21304 45.3559 5.91101C45.459 5.94491 45.5489 6.01052 45.6125 6.09848C45.6762 6.18644 45.7105 6.29226 45.7105 6.40085V12.4998C45.7105 14.6594 45.0976 16.7742 43.9381 18.6154C42.7856 20.4453 41.1559 21.9077 39.2251 22.8447C39.155 22.8788 39.078 22.8964 39 22.8964ZM33.3208 6.77758V12.4998C33.3208 16.3961 35.5416 20.0204 39 21.8043C42.4584 20.0204 44.6792 16.3961 44.6792 12.4998V6.77758C42.7766 6.18874 40.8678 5.89038 39 5.89038C37.1322 5.89038 35.2234 6.18874 33.3208 6.77758V6.77758Z" fill="#EB2227"/>
<path d="M37.8207 16.391C37.6839 16.391 37.5528 16.3367 37.4561 16.24L35.7713 14.5552C35.5699 14.3538 35.5699 14.0274 35.7713 13.826C35.9727 13.6247 36.2991 13.6247 36.5005 13.826L37.8207 15.1462L41.4996 11.4673C41.701 11.266 42.0274 11.266 42.2288 11.4673C42.4302 11.6687 42.4302 11.9951 42.2288 12.1965L38.1853 16.24C38.0886 16.3367 37.9574 16.391 37.8207 16.391V16.391Z" fill="#EB2227"/>
</g>
<defs>
<clipPath id="clip0_567_2694">
<rect width="52" height="52" fill="white"/>
</clipPath>
</defs>
</svg>
