<svg width="52" height="52" viewBox="0 0 52 52" fill="none" xmlns="http://www.w3.org/2000/svg">
<g clip-path="url(#clip0_567_2635)">
<path d="M12 38C11.9396 38 11.8793 37.9894 11.8217 37.9682C9.05311 36.9482 6.69764 35.1297 5.01 32.7094C3.32236 30.2891 2.43033 27.4502 2.43033 24.4997V16.4218C2.43033 16.2143 2.55464 16.027 2.74584 15.9465C5.81344 14.6549 8.92697 14 12 14C15.073 14 18.1866 14.6549 21.2542 15.9465C21.3477 15.9859 21.4275 16.052 21.4836 16.1365C21.5397 16.2211 21.5697 16.3203 21.5697 16.4218V24.4997C21.5697 27.4502 20.6776 30.2892 18.99 32.7095C17.3024 35.1298 14.9469 36.9482 12.1783 37.9682C12.1212 37.9892 12.0608 38 12 38V38ZM3.46158 16.7666V24.4997C3.46158 29.9926 6.88463 34.9648 12 36.9335C17.1154 34.9648 20.5384 29.9926 20.5384 24.4997V16.7666C14.8707 14.4665 9.12933 14.4665 3.46158 16.7666V16.7666Z" fill="#217B56"/>
<path d="M12 34.8964C11.923 34.8964 11.846 34.8792 11.7749 34.8447C9.84413 33.9078 8.21443 32.4453 7.06196 30.6154C5.90241 28.7742 5.28952 26.6594 5.28952 24.4998V18.4009C5.28952 18.2923 5.3238 18.1865 5.38748 18.0985C5.45115 18.0106 5.54097 17.945 5.64413 17.9111C7.76813 17.213 9.90657 16.8591 12 16.8591C14.0934 16.8591 16.2319 17.213 18.3559 17.911C18.459 17.9449 18.5489 18.0105 18.6125 18.0985C18.6762 18.1864 18.7105 18.2923 18.7105 18.4008V24.4998C18.7105 26.6594 18.0976 28.7742 16.9381 30.6154C15.7856 32.4453 14.1559 33.9077 12.2251 34.8447C12.155 34.8788 12.078 34.8964 12 34.8964ZM6.32077 18.7776V24.4998C6.32077 28.3961 8.54157 32.0204 12 33.8043C15.4584 32.0204 17.6792 28.3961 17.6792 24.4998V18.7776C15.7766 18.1887 13.8678 17.8904 12 17.8904C10.1322 17.8904 8.22338 18.1887 6.32077 18.7776V18.7776Z" fill="#EB2227"/>
<path d="M10.8207 28.391C10.6839 28.391 10.5528 28.3367 10.4561 28.24L8.77131 26.5552C8.56993 26.3538 8.56993 26.0274 8.77131 25.826C8.97273 25.6247 9.29912 25.6247 9.50054 25.826L10.8207 27.1462L14.4996 23.4673C14.701 23.266 15.0274 23.266 15.2288 23.4673C15.4302 23.6687 15.4302 23.9951 15.2288 24.1965L11.1853 28.24C11.0886 28.3367 10.9574 28.391 10.8207 28.391V28.391Z" fill="#EB2227"/>
<path d="M39 38C38.9396 38 38.8793 37.9894 38.8217 37.9682C36.0531 36.9482 33.6976 35.1297 32.01 32.7094C30.3224 30.2891 29.4303 27.4502 29.4303 24.4997V16.4218C29.4303 16.2143 29.5546 16.027 29.7458 15.9465C32.8134 14.6549 35.927 14 39 14C42.073 14 45.1866 14.6549 48.2542 15.9465C48.3477 15.9859 48.4275 16.052 48.4836 16.1365C48.5397 16.2211 48.5697 16.3203 48.5697 16.4218V24.4997C48.5697 27.4502 47.6776 30.2892 45.99 32.7095C44.3024 35.1298 41.9469 36.9482 39.1783 37.9682C39.1212 37.9892 39.0608 38 39 38V38ZM30.4616 16.7666V24.4997C30.4616 29.9926 33.8846 34.9648 39 36.9335C44.1154 34.9648 47.5384 29.9926 47.5384 24.4997V16.7666C41.8707 14.4665 36.1293 14.4665 30.4616 16.7666V16.7666Z" fill="#217B56"/>
<path d="M39 34.8964C38.923 34.8964 38.846 34.8792 38.7749 34.8447C36.8441 33.9078 35.2144 32.4453 34.062 30.6154C32.9024 28.7742 32.2895 26.6594 32.2895 24.4998V18.4009C32.2895 18.2923 32.3238 18.1865 32.3875 18.0985C32.4512 18.0106 32.541 17.945 32.6441 17.9111C34.7681 17.213 36.9066 16.8591 39 16.8591C41.0934 16.8591 43.2319 17.213 45.3559 17.911C45.459 17.9449 45.5489 18.0105 45.6125 18.0985C45.6762 18.1864 45.7105 18.2923 45.7105 18.4008V24.4998C45.7105 26.6594 45.0976 28.7742 43.9381 30.6154C42.7856 32.4453 41.1559 33.9077 39.2251 34.8447C39.155 34.8788 39.078 34.8964 39 34.8964ZM33.3208 18.7776V24.4998C33.3208 28.3961 35.5416 32.0204 39 33.8043C42.4584 32.0204 44.6792 28.3961 44.6792 24.4998V18.7776C42.7766 18.1887 40.8678 17.8904 39 17.8904C37.1322 17.8904 35.2234 18.1887 33.3208 18.7776V18.7776Z" fill="#EB2227"/>
<path d="M37.8207 28.391C37.6839 28.391 37.5528 28.3367 37.4561 28.24L35.7713 26.5552C35.5699 26.3538 35.5699 26.0274 35.7713 25.826C35.9727 25.6247 36.2991 25.6247 36.5005 25.826L37.8207 27.1462L41.4996 23.4673C41.701 23.266 42.0274 23.266 42.2288 23.4673C42.4302 23.6687 42.4302 23.9951 42.2288 24.1965L38.1853 28.24C38.0886 28.3367 37.9574 28.391 37.8207 28.391V28.391Z" fill="#EB2227"/>
</g>
<defs>
<clipPath id="clip0_567_2635">
<rect width="52" height="52" fill="white"/>
</clipPath>
</defs>
</svg>
