<svg width="32" height="32" viewBox="0 0 32 32" fill="none" xmlns="http://www.w3.org/2000/svg">
<g clip-path="url(#clip0_9948_22556)">
<path d="M16.0003 32C15.8648 32 15.7294 31.9866 15.5949 31.9598L15.5879 31.9583C15.4956 31.9397 15.4047 31.9148 15.3158 31.8838C12.2244 30.8059 9.66958 29.2956 7.72194 27.395C6.0158 25.73 4.7149 23.7034 3.85555 21.3715C2.28478 17.1096 2.37472 12.3903 2.4469 8.59827L2.44815 8.54665C2.46253 8.23041 2.47215 7.89704 2.47765 7.52743C2.50228 5.87297 3.81755 4.50463 5.47219 4.4122C9.28096 4.19945 12.2293 2.95574 14.7508 0.498244L14.7661 0.483807C15.4697 -0.1613 16.531 -0.161238 17.2346 0.483807L17.2499 0.498244C19.7714 2.95574 22.7197 4.19952 26.5284 4.4122C28.1831 4.50463 29.4985 5.87297 29.523 7.52743C29.5285 7.89792 29.5382 8.23128 29.5525 8.54659L29.553 8.56477C29.625 12.364 29.7147 17.0922 28.1381 21.367C27.278 23.6992 25.9771 25.7264 24.2715 27.392C22.3255 29.2925 19.7735 30.8035 16.6864 31.8831C16.5948 31.915 16.501 31.9406 16.4059 31.9596C16.2724 31.9864 16.1365 32 16.0003 32ZM15.8668 30.6119C15.9563 30.6294 16.047 30.6292 16.1364 30.6114C16.1689 30.6049 16.201 30.5962 16.2323 30.5853C28.5086 26.2922 28.3201 16.0687 28.1785 8.60002C28.1631 8.24948 28.1529 7.89872 28.1481 7.54786C28.1343 6.61176 27.3891 5.83741 26.4517 5.78504C24.366 5.6686 22.5355 5.2663 20.8555 4.5552C19.1781 3.84515 17.6877 2.84312 16.2994 1.4919C16.1249 1.33703 15.8758 1.33703 15.7012 1.49184C14.3129 2.84299 12.8224 3.84509 11.145 4.5552C9.46508 5.2663 7.63457 5.66854 5.54882 5.78504C4.61153 5.83735 3.86636 6.6117 3.85243 7.54786C3.84765 7.89874 3.83754 8.24952 3.82211 8.60008L3.82168 8.62452C3.67956 16.0849 3.48487 26.3023 15.768 30.5854C15.7985 30.596 15.8309 30.6047 15.864 30.6114L15.8668 30.6119Z" fill="#36AE7C"/>
<path d="M15.9997 23.8413C11.6762 23.8413 8.15869 20.3238 8.15869 16.0002C8.15869 11.6766 11.6762 8.15918 15.9997 8.15918C20.3233 8.15918 23.8408 11.6766 23.8408 16.0002C23.8408 20.3238 20.3233 23.8413 15.9997 23.8413ZM15.9997 9.53414C12.4343 9.53414 9.53365 12.4348 9.53365 16.0002C9.53365 19.5656 12.4343 22.4663 15.9997 22.4663C19.5651 22.4663 22.4658 19.5656 22.4658 16.0002C22.4658 12.4348 19.5651 9.53414 15.9997 9.53414Z" fill="#EB5353"/>
<path d="M19.4913 13.6717C19.2228 13.4032 18.7875 13.4032 18.519 13.6717L14.564 17.6266L13.353 16.4156C13.0846 16.1471 12.6493 16.1471 12.3808 16.4156C12.1123 16.6841 12.1123 17.1194 12.3808 17.3879L14.0778 19.085C14.1494 19.1569 14.2361 19.2119 14.3315 19.2462C14.427 19.2805 14.5289 19.2931 14.6298 19.2833C14.7887 19.2682 14.9374 19.1981 15.0501 19.0851L19.4911 14.6439C19.7597 14.3755 19.7597 13.9402 19.4913 13.6717Z" fill="#EB5353"/>
</g>
<defs>
<clipPath id="clip0_9948_22556">
<rect width="32" height="32" fill="white"/>
</clipPath>
</defs>
</svg>
