<svg width="46" height="46" viewBox="0 0 46 46" fill="none" xmlns="http://www.w3.org/2000/svg">
<path d="M23.4628 44.9257C23.3548 44.9257 23.2469 44.9068 23.144 44.8688C18.1921 43.0445 13.9792 39.792 10.9607 35.4631C7.94223 31.1343 6.34677 26.0567 6.34677 20.7794V6.33148C6.34677 5.9604 6.56911 5.62546 6.91109 5.48151C12.3977 3.1714 17.9665 2 23.4628 2C28.9592 2 34.5279 3.1714 40.0146 5.48151C40.1818 5.55194 40.3246 5.67015 40.425 5.82134C40.5254 5.97254 40.5789 6.14999 40.5789 6.33148V20.7794C40.5789 26.0567 38.9834 31.1343 35.9649 35.4632C32.9465 39.7921 28.7336 43.0446 23.7817 44.8689C23.6796 44.9065 23.5716 44.9257 23.4628 44.9257V44.9257ZM8.19124 6.9482V20.7795C8.19124 30.604 14.3136 39.4971 23.4628 43.0181C32.612 39.4971 38.7344 30.604 38.7344 20.7795V6.9482C28.5972 2.83445 18.3284 2.83445 8.19124 6.9482V6.9482Z" fill="#EAECED"/>
<path d="M23.4628 39.3751C23.325 39.3751 23.1873 39.3442 23.0601 39.2825C19.6068 37.6067 16.692 34.9909 14.6307 31.718C12.5568 28.425 11.4606 24.6426 11.4606 20.7798V9.87157C11.4606 9.67736 11.5219 9.48809 11.6358 9.33077C11.7497 9.17345 11.9103 9.0561 12.0948 8.99545C15.8937 7.747 19.7185 7.11401 23.4628 7.11401C27.207 7.11401 31.0318 7.747 34.8307 8.99537C35.0152 9.05601 35.1759 9.17335 35.2898 9.33068C35.4037 9.488 35.465 9.67727 35.465 9.87149V20.7798C35.465 24.6426 34.3687 28.425 32.2948 31.718C30.2335 34.9909 27.3187 37.6066 23.8654 39.2825C23.7399 39.3434 23.6023 39.3751 23.4628 39.3751ZM13.305 10.5453V20.7799C13.305 27.7488 17.2771 34.2311 23.4628 37.4216C29.6484 34.2311 33.6205 27.7488 33.6205 20.7799V10.5453C30.2175 9.49212 26.8034 8.95848 23.4628 8.95848C20.1221 8.95848 16.708 9.49212 13.305 10.5453V10.5453Z" fill="#EAECED"/>
<path d="M21.3534 27.7395C21.1088 27.7395 20.8743 27.6423 20.7013 27.4694L17.688 24.456C17.3278 24.0959 17.3278 23.5119 17.688 23.1517C18.0482 22.7917 18.632 22.7917 18.9923 23.1517L21.3535 25.513L27.9334 18.933C28.2937 18.5729 28.8774 18.5729 29.2377 18.933C29.5979 19.2932 29.5979 19.8771 29.2377 20.2373L22.0056 27.4695C21.8326 27.6424 21.598 27.7395 21.3534 27.7395V27.7395Z" fill="#EAECED"/>
</svg>
