<svg width="52" height="52" viewBox="0 0 52 52" fill="none" xmlns="http://www.w3.org/2000/svg">
<g clip-path="url(#clip0_567_2695)">
<path d="M26 38C25.9396 38 25.8793 37.9894 25.8217 37.9682C23.0531 36.9482 20.6976 35.1297 19.01 32.7094C17.3224 30.2891 16.4303 27.4502 16.4303 24.4997V16.4218C16.4303 16.2143 16.5546 16.027 16.7458 15.9465C19.8134 14.6549 22.927 14 26 14C29.073 14 32.1866 14.6549 35.2542 15.9465C35.3477 15.9859 35.4275 16.052 35.4836 16.1365C35.5397 16.2211 35.5697 16.3203 35.5697 16.4218V24.4997C35.5697 27.4502 34.6776 30.2892 32.99 32.7095C31.3024 35.1298 28.9469 36.9482 26.1783 37.9682C26.1212 37.9892 26.0608 38 26 38ZM17.4616 16.7666V24.4997C17.4616 29.9926 20.8846 34.9648 26 36.9335C31.1154 34.9648 34.5384 29.9926 34.5384 24.4997V16.7666C28.8707 14.4665 23.1293 14.4665 17.4616 16.7666Z" fill="#217B56"/>
<path d="M26 34.8964C25.923 34.8964 25.846 34.8792 25.7749 34.8447C23.8441 33.9078 22.2144 32.4453 21.062 30.6154C19.9024 28.7742 19.2895 26.6594 19.2895 24.4998V18.4009C19.2895 18.2923 19.3238 18.1865 19.3875 18.0985C19.4512 18.0106 19.541 17.945 19.6441 17.9111C21.7681 17.213 23.9066 16.8591 26 16.8591C28.0934 16.8591 30.2319 17.213 32.3559 17.911C32.459 17.9449 32.5489 18.0105 32.6125 18.0985C32.6762 18.1864 32.7105 18.2923 32.7105 18.4008V24.4998C32.7105 26.6594 32.0976 28.7742 30.9381 30.6154C29.7856 32.4453 28.1559 33.9077 26.2251 34.8447C26.155 34.8788 26.078 34.8964 26 34.8964ZM20.3208 18.7776V24.4998C20.3208 28.3961 22.5416 32.0204 26 33.8043C29.4584 32.0204 31.6792 28.3961 31.6792 24.4998V18.7776C29.7766 18.1887 27.8678 17.8904 26 17.8904C24.1322 17.8904 22.2234 18.1887 20.3208 18.7776Z" fill="#EB2227"/>
<path d="M24.8207 28.391C24.6839 28.391 24.5528 28.3367 24.4561 28.24L22.7713 26.5552C22.5699 26.3538 22.5699 26.0274 22.7713 25.826C22.9727 25.6247 23.2991 25.6247 23.5005 25.826L24.8207 27.1462L28.4996 23.4673C28.701 23.266 29.0274 23.266 29.2288 23.4673C29.4302 23.6687 29.4302 23.9951 29.2288 24.1965L25.1853 28.24C25.0886 28.3367 24.9574 28.391 24.8207 28.391Z" fill="#EB2227"/>
</g>
<defs>
<clipPath id="clip0_567_2695">
<rect width="52" height="52" fill="white"/>
</clipPath>
</defs>
</svg>
