<svg width="20" height="20" viewBox="0 0 20 20" fill="none" xmlns="http://www.w3.org/2000/svg">
<path fill-rule="evenodd" clip-rule="evenodd" d="M5.625 15.7422C4.82678 15.7422 4.17969 16.3893 4.17969 17.1875C4.17969 17.9857 4.82678 18.6328 5.625 18.6328C6.42322 18.6328 7.07031 17.9857 7.07031 17.1875C7.07031 16.3893 6.42322 15.7422 5.625 15.7422ZM3.32031 17.1875C3.32031 15.9147 4.35216 14.8828 5.625 14.8828C6.89784 14.8828 7.92969 15.9147 7.92969 17.1875C7.92969 18.4603 6.89784 19.4922 5.625 19.4922C4.35216 19.4922 3.32031 18.4603 3.32031 17.1875Z" fill="#2E3A5B"/>
<path fill-rule="evenodd" clip-rule="evenodd" d="M16.875 15.7422C16.0768 15.7422 15.4297 16.3893 15.4297 17.1875C15.4297 17.9857 16.0768 18.6328 16.875 18.6328C17.6732 18.6328 18.3203 17.9857 18.3203 17.1875C18.3203 16.3893 17.6732 15.7422 16.875 15.7422ZM14.5703 17.1875C14.5703 15.9147 15.6022 14.8828 16.875 14.8828C18.1478 14.8828 19.1797 15.9147 19.1797 17.1875C19.1797 18.4603 18.1478 19.4922 16.875 19.4922C15.6022 19.4922 14.5703 18.4603 14.5703 17.1875Z" fill="#2E3A5B"/>
<path fill-rule="evenodd" clip-rule="evenodd" d="M0.195312 0.9375C0.195312 0.70019 0.38769 0.507812 0.625 0.507812H3.4375C3.6542 0.507812 3.83699 0.669176 3.86387 0.884204L4.20745 3.63281H18.75C18.8739 3.63281 18.9917 3.68626 19.0733 3.77945C19.1549 3.87265 19.1923 3.99651 19.1759 4.11929L17.9259 13.4943C17.8975 13.7078 17.7154 13.8672 17.5 13.8672H5C4.7833 13.8672 4.60051 13.7058 4.57363 13.4908L3.41077 4.18787C3.39869 4.14821 3.39219 4.10611 3.39219 4.0625C3.39219 4.0559 3.39234 4.04933 3.39263 4.0428L3.05818 1.36719H0.625C0.38769 1.36719 0.195312 1.17481 0.195312 0.9375ZM4.31487 4.49219L5.37932 13.0078H17.1238L18.2592 4.49219H4.31487Z" fill="#2E3A5B"/>
</svg>
