<svg width="164" height="115" viewBox="0 0 164 115" fill="none" xmlns="http://www.w3.org/2000/svg">
<rect x="19" y="44" width="128" height="27" rx="6" fill="#4D9578"/>
<rect x="18" y="44" width="126" height="27" rx="6" fill="#217B56"/>
<circle cx="130.5" cy="57.5" r="5.5" fill="white"/>
<circle cx="31.5" cy="57.5" r="5.5" fill="white"/>
<path d="M45.3887 61.1172C46.7705 61.1172 47.5859 60.3018 47.5859 58.915V53.9541H46.4922V58.9053C46.4922 59.7109 46.1016 60.1406 45.3789 60.1406C44.7246 60.1406 44.3877 59.7207 44.3438 59.1836L44.3389 59.1396H43.2598L43.2646 59.1982C43.3232 60.3213 44.085 61.1172 45.3887 61.1172ZM48.8994 61H49.8955V55.7998H49.9297L52.0537 61H52.8643L54.9883 55.7998H55.0225V61H56.0186V53.9541H54.7588L52.4736 59.5791H52.4443L50.1641 53.9541H48.8994V61ZM59.0068 61H60.0762V53.9541H58.9971L57.1416 55.2725V56.3076L58.9824 55.0381H59.0068V61ZM61.8877 61H62.9717V55.7803H63.001L66.6289 61H67.6348V53.9541H66.5508V59.1641H66.5215L62.8984 53.9541H61.8877V61ZM68.416 61H69.5635L70.2129 59.0957H72.9277L73.5723 61H74.7197L72.1611 53.9541H70.9795L68.416 61ZM71.5605 55.1211H71.5801L72.6299 58.2168H70.5059L71.5605 55.1211ZM77.8301 61.1172C79.3242 61.1172 80.3838 60.2578 80.3838 59.0518V59.042C80.3838 58.0557 79.6904 57.4307 78.6553 57.3379V57.3135C79.5146 57.1328 80.1396 56.5469 80.1396 55.6729V55.6631C80.1396 54.5791 79.2217 53.8369 77.8203 53.8369C76.4434 53.8369 75.5059 54.6133 75.3984 55.79L75.3936 55.8389H76.4189L76.4238 55.7949C76.4922 55.1406 77.0391 54.7305 77.8203 54.7305C78.6162 54.7305 79.0752 55.126 79.0752 55.8047V55.8145C79.0752 56.4688 78.5283 56.9424 77.7227 56.9424H76.8975V57.792H77.752C78.6943 57.792 79.2705 58.2363 79.2705 59.0322V59.042C79.2705 59.7256 78.6895 60.2041 77.8301 60.2041C76.9561 60.2041 76.3652 59.7646 76.2969 59.1396L76.292 59.0859H75.2422L75.2471 59.1494C75.3447 60.2969 76.3262 61.1172 77.8301 61.1172ZM83.9434 61.1172C85.4619 61.1172 86.5312 60.126 86.5312 58.6953V58.6855C86.5312 57.3379 85.5596 56.3662 84.2119 56.3662C83.5186 56.3662 82.9326 56.6348 82.6152 57.1084H82.5908L82.8057 54.877H86.1211V53.9541H81.9219L81.5752 58.0166H82.5322C82.625 57.8604 82.7373 57.7236 82.8691 57.6113C83.1523 57.3574 83.5283 57.2305 83.9629 57.2305C84.8369 57.2305 85.457 57.8408 85.4619 58.7051V58.7148C85.4619 59.5889 84.8418 60.2041 83.9531 60.2041C83.167 60.2041 82.5908 59.7158 82.498 59.0811L82.4932 59.042H81.4482L81.4531 59.1006C81.5508 60.2627 82.5322 61.1172 83.9434 61.1172ZM89.8809 61.1172C91.375 61.1172 92.4346 60.2578 92.4346 59.0518V59.042C92.4346 58.0557 91.7412 57.4307 90.7061 57.3379V57.3135C91.5654 57.1328 92.1904 56.5469 92.1904 55.6729V55.6631C92.1904 54.5791 91.2725 53.8369 89.8711 53.8369C88.4941 53.8369 87.5566 54.6133 87.4492 55.79L87.4443 55.8389H88.4697L88.4746 55.7949C88.543 55.1406 89.0898 54.7305 89.8711 54.7305C90.667 54.7305 91.126 55.126 91.126 55.8047V55.8145C91.126 56.4688 90.5791 56.9424 89.7734 56.9424H88.9482V57.792H89.8027C90.7451 57.792 91.3213 58.2363 91.3213 59.0322V59.042C91.3213 59.7256 90.7402 60.2041 89.8809 60.2041C89.0068 60.2041 88.416 59.7646 88.3477 59.1396L88.3428 59.0859H87.293L87.2979 59.1494C87.3955 60.2969 88.377 61.1172 89.8809 61.1172ZM95.9941 61.1172C97.5127 61.1172 98.582 60.126 98.582 58.6953V58.6855C98.582 57.3379 97.6104 56.3662 96.2627 56.3662C95.5693 56.3662 94.9834 56.6348 94.666 57.1084H94.6416L94.8564 54.877H98.1719V53.9541H93.9727L93.626 58.0166H94.583C94.6758 57.8604 94.7881 57.7236 94.9199 57.6113C95.2031 57.3574 95.5791 57.2305 96.0137 57.2305C96.8877 57.2305 97.5078 57.8408 97.5127 58.7051V58.7148C97.5127 59.5889 96.8926 60.2041 96.0039 60.2041C95.2178 60.2041 94.6416 59.7158 94.5488 59.0811L94.5439 59.042H93.499L93.5039 59.1006C93.6016 60.2627 94.583 61.1172 95.9941 61.1172ZM101.521 61H102.728L105.237 53.9541H104.061L102.137 59.7842H102.112L100.188 53.9541H99.0117L101.521 61ZM108.313 61.1172C109.993 61.1172 111.004 59.7158 111.004 57.4795V57.4697C111.004 55.2334 109.993 53.8369 108.313 53.8369C106.629 53.8369 105.623 55.2334 105.623 57.4697V57.4795C105.623 59.7158 106.629 61.1172 108.313 61.1172ZM108.313 60.2041C107.308 60.2041 106.727 59.1689 106.727 57.4795V57.4697C106.727 55.7803 107.308 54.7549 108.313 54.7549C109.314 54.7549 109.9 55.7803 109.9 57.4697V57.4795C109.9 59.1689 109.314 60.2041 108.313 60.2041ZM113.685 61H114.754V53.9541H113.675L111.819 55.2725V56.3076L113.66 55.0381H113.685V61Z" fill="white"/>
</svg>
