<svg width="32" height="32" viewBox="0 0 32 32" fill="none" xmlns="http://www.w3.org/2000/svg">
<path d="M7.65041 32H0.750977C0.371289 32 0.0634766 31.6922 0.0634766 31.3125V25.5941C0.0634766 25.3819 0.161414 25.1817 0.328914 25.0514L6.05948 20.5944C7.28923 19.6379 8.82441 19.1112 10.3824 19.1112H19.7444C21.1745 19.1112 22.3379 20.2747 22.3379 21.7048C22.3382 22.0281 22.2778 22.3486 22.1598 22.6496C22.1725 22.6392 22.1852 22.6285 22.1975 22.6175L27.4684 17.955C28.5279 17.0178 30.2037 17.069 31.204 18.0693V18.0693C31.6944 18.5596 31.9541 19.2113 31.9354 19.9045C31.9168 20.5976 31.6224 21.2344 31.1064 21.6976L24.1939 27.9044C23.1353 28.856 21.7619 29.3821 20.3385 29.3813H11.5965L8.0456 31.8751C7.92987 31.9564 7.79186 32 7.65041 32ZM1.43848 30.625H7.4331L10.984 28.1313C11.0998 28.05 11.2377 28.0064 11.3792 28.0064H20.3387C21.423 28.007 22.469 27.6062 23.2754 26.8814L30.1879 20.6746C30.4202 20.4661 30.5527 20.1795 30.561 19.8676C30.5695 19.5556 30.4526 19.2623 30.2319 19.0416H30.2319C29.7442 18.5539 28.8959 18.5281 28.3795 18.9849L23.1087 23.6474C22.6346 24.0671 22.0233 24.2986 21.3902 24.2984H13.1852C12.8055 24.2984 12.4977 23.9906 12.4977 23.6109C12.4977 23.2313 12.8055 22.9234 13.1852 22.9234H19.7444C20.4164 22.9234 20.963 22.3768 20.963 21.7048C20.963 21.0329 20.4164 20.4862 19.7444 20.4862H10.3824C9.12873 20.4862 7.89329 20.9101 6.90366 21.6798L1.43854 25.9304V30.625H1.43848Z" fill="#217B56"/>
<path d="M16.0182 9.24993C14.7331 9.24993 13.6875 8.20433 13.6875 6.91923C13.6875 5.63406 14.7331 4.58859 16.0182 4.58859C17.3033 4.58859 18.3489 5.63406 18.3489 6.91923C18.3489 7.29893 18.6568 7.60675 19.0365 7.60675C19.4162 7.60675 19.724 7.29893 19.724 6.91923C19.724 5.11086 18.4216 3.60187 16.7058 3.27849V2.31252C16.7058 1.93282 16.3979 1.625 16.0182 1.625C15.6385 1.625 15.3307 1.93282 15.3307 2.31252V3.27849C13.6149 3.60187 12.3125 5.11086 12.3125 6.91923C12.3125 8.96254 13.9749 10.625 16.0182 10.625C17.3034 10.625 18.3489 11.6705 18.3489 12.9557C18.3489 14.2408 17.3034 15.2863 16.0182 15.2863C14.7331 15.2863 13.6875 14.2408 13.6875 12.9557C13.6875 12.576 13.3797 12.2681 13 12.2681C12.6203 12.2681 12.3125 12.576 12.3125 12.9557C12.3125 14.764 13.6149 16.273 15.3307 16.5964V17.5624C15.3307 17.9421 15.6385 18.2499 16.0182 18.2499C16.3979 18.2499 16.7058 17.9421 16.7058 17.5624V16.5964C18.4216 16.273 19.724 14.764 19.724 12.9557C19.724 10.9124 18.0616 9.24993 16.0182 9.24993Z" fill="#EB2227"/>
</svg>
