<svg width="12" height="12" viewBox="0 0 12 12" fill="none" xmlns="http://www.w3.org/2000/svg">
<g clip-path="url(#clip0_2739_9998)">
<path d="M6.37298 0.732015L7.92798 3.88201L11.405 4.38801C11.4818 4.39909 11.554 4.43145 11.6133 4.48143C11.6727 4.5314 11.7168 4.597 11.7408 4.6708C11.7648 4.74459 11.7677 4.82363 11.749 4.89896C11.7304 4.97428 11.6911 5.04289 11.6355 5.09701L9.11898 7.54701L9.71298 11.01C9.72608 11.0865 9.71753 11.1651 9.68828 11.237C9.65904 11.3089 9.61027 11.3712 9.54748 11.4168C9.4847 11.4624 9.41041 11.4895 9.33301 11.4952C9.25561 11.5008 9.17818 11.4846 9.10948 11.4485L5.99998 9.81601L2.88998 11.45C2.82122 11.4859 2.7438 11.502 2.66642 11.4962C2.58905 11.4905 2.51481 11.4633 2.45207 11.4177C2.38934 11.3721 2.34059 11.3098 2.31133 11.2379C2.28208 11.1661 2.27347 11.0875 2.28648 11.011L2.88048 7.55001L0.363983 5.10001C0.308377 5.04589 0.269037 4.97728 0.250419 4.90196C0.231801 4.82663 0.234648 4.74759 0.258639 4.6738C0.28263 4.60001 0.326805 4.5344 0.386161 4.48443C0.445517 4.43445 0.517682 4.40209 0.594483 4.39101L4.07148 3.88251L5.62648 0.732515C5.66088 0.662928 5.71404 0.604339 5.77996 0.563357C5.84589 0.522375 5.92195 0.500632 5.99958 0.50058C6.0772 0.500528 6.1533 0.522169 6.21927 0.563063C6.28525 0.603956 6.33849 0.662474 6.37298 0.732015Z" fill="#FBD118"/>
</g>
<defs>
<clipPath id="clip0_2739_9998">
<rect width="12" height="12" fill="white"/>
</clipPath>
</defs>
</svg>
