<svg width="187" height="193" viewBox="0 0 187 193" fill="none" xmlns="http://www.w3.org/2000/svg">
<g clip-path="url(#clip0_107_1652)">
<path fill-rule="evenodd" clip-rule="evenodd" d="M14.707 63.9556C4.20224 48.3135 11.8066 26.737 29.9219 21.5778C30.3817 21.4473 30.8478 21.3205 31.3201 21.1972C61.9006 13.3272 70.1978 43.2382 105.102 18.7116C140.006 -5.81496 186.89 27.2558 162.253 69.1396C146.319 96.2279 210.37 124.464 176.255 160.463C145.278 193.161 96.7206 161.563 83.7334 131.161C74.0893 108.569 27.3229 82.7467 14.707 63.9556Z" fill="#E9F2EE"/>
<path d="M112.543 39.0704C118.768 44.1969 120.133 49.8983 120.21 53.7059C121.862 49.1137 123.671 44.823 125.463 40.9501C113.416 31.8156 119.897 22.7183 119.897 22.7183C125.835 27.7905 127.199 33.3256 127.289 37.1301C127.298 37.113 127.306 37.0959 127.314 37.0788C129.863 31.9166 132.451 27.3136 134.752 23.492C123.904 11.9293 132.266 3.98471 132.266 3.98471C137.576 10.6647 137.427 16.8414 136.572 20.5325C139.074 16.5478 141.051 13.7344 141.976 12.4544C146.861 0.141367 157.473 0 157.473 0C154.351 11.9806 147.201 13.2762 143.745 13.155C143.018 14.1461 140.876 17.1335 138.075 21.6013C147.798 16.8445 155.163 21.8344 155.163 21.8344C145.558 30.0353 138.878 26.7217 136.21 24.6462C133.959 28.3948 131.438 32.8922 128.953 37.927C128.695 38.4506 128.434 38.9865 128.176 39.5287C137.096 32.1605 145.78 35.8686 145.78 35.8686C137.275 46.5614 129.555 43.3736 127.064 41.8884C125.187 45.9555 123.295 50.4901 121.589 55.3433C130.216 48.3199 138.662 51.7454 138.662 51.7454C130.84 61.9503 123.503 59.8562 120.551 58.3757C117.118 68.913 114.699 80.746 115.21 92.4982C115.221 92.741 115.135 92.9782 114.972 93.1581C114.808 93.3379 114.58 93.4458 114.337 93.4583C114.239 93.4628 114.14 93.4513 114.045 93.4241C113.859 93.3709 113.695 93.2608 113.575 93.1091C113.455 92.9575 113.386 92.7721 113.377 92.579C112.852 80.4742 115.359 68.3118 118.901 57.5213C106.079 48.511 112.543 39.0704 112.543 39.0704Z" fill="#4D9578"/>
<path d="M130.91 61.7949C135.454 68.4532 135.171 74.3114 134.18 77.9901C137.051 74.0427 139.987 70.4277 142.789 67.2104C133.779 55.0745 142.541 48.1505 142.541 48.1505C146.824 54.6752 146.591 60.3766 145.611 64.0537C145.623 64.0397 145.635 64.0242 145.649 64.0102C149.533 59.766 153.31 56.0703 156.588 53.0441C149.403 38.9073 159.653 33.6254 159.653 33.6254C162.884 41.5202 161.015 47.4126 159.162 50.7138C162.676 47.5882 165.363 45.4397 166.608 44.4688C174.74 34.0106 184.968 36.8411 184.968 36.8411C178.621 47.4717 171.395 46.7182 168.11 45.6354C167.136 46.3842 164.243 48.6539 160.307 52.1601C170.97 50.3099 176.642 57.1577 176.642 57.1577C165.127 62.3479 159.639 57.2991 157.663 54.5618C154.453 57.5321 150.776 61.1455 146.981 65.2809C146.588 65.7107 146.19 66.1509 145.786 66.6014C156.41 62.0201 163.71 67.9996 163.71 67.9996C152.553 75.8975 146.036 70.684 144.059 68.5573C141.119 71.9377 138.036 75.7639 135.041 79.9459C145.294 75.6117 152.44 81.2617 152.44 81.2617C142.084 88.8739 135.617 84.8146 133.207 82.5698C126.966 91.7354 121.339 102.414 118.544 113.842C118.486 114.079 118.336 114.283 118.127 114.41C117.918 114.536 117.667 114.575 117.43 114.517C117.334 114.494 117.242 114.455 117.158 114.402C116.995 114.299 116.868 114.147 116.795 113.968C116.723 113.789 116.709 113.591 116.754 113.404C119.633 101.634 125.438 90.6573 131.854 81.2866C122.064 69.0528 130.91 61.7949 130.91 61.7949Z" fill="#4D9578"/>
<path d="M96.1737 193C129.463 193 156.449 190.516 156.449 187.451C156.449 184.386 129.463 181.902 96.1737 181.902C62.8844 181.902 35.8981 184.386 35.8981 187.451C35.8981 190.516 62.8844 193 96.1737 193Z" fill="#EDE0D5"/>
<path d="M125.691 27.7729L67.624 28.3303C61.4212 28.3898 56.441 33.4665 56.5006 39.6694L57.8177 176.872C57.8772 183.075 62.9539 188.055 69.1567 187.996L127.224 187.438C133.427 187.379 138.407 182.302 138.347 176.099L137.03 38.8963C136.971 32.6935 131.894 27.7133 125.691 27.7729Z" fill="#066132"/>
<path d="M121.262 27.7735L63.1953 28.3309C56.9925 28.3905 52.0123 33.4671 52.0719 39.67L53.389 176.873C53.4485 183.076 58.5252 188.056 64.728 187.996L122.795 187.439C128.998 187.379 133.978 182.303 133.918 176.1L132.601 38.8969C132.542 32.6941 127.465 27.7139 121.262 27.7735Z" fill="#217B56"/>
<path d="M63.4587 174.147L123.539 173.567C124.359 173.56 125.169 173.39 125.924 173.069C126.678 172.748 127.362 172.281 127.936 171.695C128.51 171.109 128.962 170.416 129.268 169.655C129.573 168.894 129.726 168.08 129.717 167.26L128.474 37.9751C128.458 36.3204 127.785 34.74 126.604 33.5812C125.422 32.4223 123.829 31.78 122.175 31.7953L62.0932 32.3748C61.2732 32.3827 60.4628 32.5522 59.7084 32.8735C58.954 33.1949 58.2704 33.6618 57.6965 34.2476C57.1227 34.8334 56.67 35.5265 56.3643 36.2874C56.0586 37.0483 55.9059 37.862 55.9149 38.682L57.1577 167.967C57.1654 168.786 57.3346 169.597 57.6554 170.351C57.9763 171.105 58.4426 171.788 59.0278 172.362C59.6129 172.936 60.3054 173.389 61.0657 173.695C61.826 174.002 62.6391 174.155 63.4587 174.147Z" fill="#F0E3D7"/>
<path opacity="0.27" fill-rule="evenodd" clip-rule="evenodd" d="M56.252 64.815L72.0355 32.2103L82.315 32.1124L56.4353 83.732L56.252 64.815Z" fill="white"/>
<path d="M89.5745 53.7386C89.5745 53.7386 92.6225 49.83 103.906 50.2696C126.821 51.1613 121.249 108.909 121.249 108.909C121.249 108.909 104.715 109.753 100.707 106.321C96.6989 102.89 107.516 65.9661 99.0664 64.439C90.6169 62.9119 89.5745 53.7386 89.5745 53.7386Z" fill="#4A2A1A"/>
<path d="M69.0902 69.7192C69.0902 69.7192 72.2609 55.8123 86.5002 52.7659C100.74 49.7195 104.849 58.6303 106.334 61.5478C107.819 64.4652 114.024 86.4037 97.5922 92.9144C85.0213 97.8933 69.0902 69.7192 69.0902 69.7192Z" fill="#4A2A1A"/>
<path d="M76.1697 80.0856C76.5455 76.0578 74.3619 72.5604 71.2925 72.274C68.2232 71.9877 65.4303 75.0208 65.0546 79.0486C64.6788 83.0765 66.8624 86.5738 69.9317 86.8602C73.0011 87.1465 75.7939 84.1135 76.1697 80.0856Z" fill="#EF4E52"/>
<path d="M96.6087 105.665L85.5044 107.75L78.0631 86.708L96.1132 81.6576C96.2778 88.2522 95.1811 98.2536 100.533 101.74C101.366 104.093 99.0617 105.205 96.6087 105.665Z" fill="#FFBE9D"/>
<path d="M104.156 101.364H82.3679C77.2228 101.364 70.2926 102.501 66.3452 106.52C65.5744 107.31 64.8547 108.149 64.1905 109.03L56.6778 117.79L57.1687 167.959C57.1754 168.778 57.3434 169.588 57.6632 170.343C57.9829 171.097 58.4481 171.781 59.0322 172.356C59.6163 172.93 60.3078 173.384 61.0674 173.691C61.8269 173.999 62.6395 174.153 63.4588 174.147L123.539 173.567C124.359 173.559 125.169 173.39 125.924 173.069C126.678 172.747 127.362 172.281 127.936 171.695C128.51 171.109 128.962 170.416 129.268 169.655C129.574 168.894 129.726 168.08 129.717 167.26L129.28 121.912C125.084 110.554 116.11 101.364 104.156 101.364Z" fill="white"/>
<path d="M80.743 101.364C80.743 101.364 67.0893 120.96 80.4323 120.006C93.7752 119.052 104.163 101.364 104.163 101.364H80.743Z" fill="#FFBE9D"/>
<path d="M98.5443 80.0312C98.1435 89.7918 88.4776 97.4785 80.4243 97.2315C70.1184 96.9208 67.5567 90.4925 70.1184 78.835C70.367 77.6994 70.3732 73.7085 70.5425 72.3103C72.0417 59.8902 77.4556 61.4701 84.6918 61.7668C92.7435 62.1008 98.9435 70.2768 98.5443 80.0312Z" fill="#FFBE9D"/>
<path d="M75.4548 86.0636C75.2361 86.0371 75.0351 85.9303 74.8908 85.7638C74.7355 85.5526 74.6463 85.3 74.6347 85.0381C74.6231 84.7762 74.6895 84.5167 74.8256 84.2926L75.6194 82.8945L76.8622 80.7196C76.8622 80.7196 78.0802 78.5058 76.8762 77.2397" stroke="#BF6649" stroke-width="0.79998" stroke-linecap="round" stroke-linejoin="round"/>
<path d="M77.2708 86.3693L78.1765 86.2357" stroke="#BF6649" stroke-width="0.79998" stroke-linecap="round" stroke-linejoin="round"/>
<path d="M84.4915 79.9894C84.4915 80.6108 84.0255 81.1296 83.4616 81.1343C82.8976 81.1389 82.4207 80.6356 82.4176 80.008C82.4145 79.3804 82.8743 78.8677 83.4476 78.8631C84.0208 78.8584 84.4869 79.3617 84.4915 79.9894Z" fill="#472E34"/>
<path d="M74.2415 78.8134C74.2415 79.4348 73.8935 79.935 73.4648 79.9366C73.036 79.9382 72.6694 79.441 72.6663 78.8227C72.6632 78.2045 73.0143 77.7011 73.4508 77.698C73.8873 77.6949 74.2384 78.1951 74.2415 78.8134Z" fill="#472E34"/>
<path d="M82.0245 87.5237C82.2358 87.3528 82.576 87.6542 82.59 88.0286C82.632 89.1517 82.068 91.1355 80.6777 91.6606C78.742 92.3954 77.5582 90.8839 76.7163 89.8757C76.4506 89.565 76.5298 89.0709 76.8405 89.1113C79.118 89.4127 80.7056 88.5909 82.0245 87.5237Z" fill="white"/>
<path d="M66.8981 75.7855C67.5987 75.0973 71.3084 61.832 73.0623 59.7721C75.7142 56.6558 80.5331 53.1123 83.9492 53.8486C87.3654 54.585 99.071 56.7008 103.057 60.7725C105.313 63.0748 102.868 60.9139 102.358 68.2977C101.849 75.6814 105.995 84.802 98.5552 86.1629C91.1155 87.5237 97.8701 79.9644 94.1075 77.3639C90.345 74.7633 88.5352 74.5179 88.1903 66.7147C88.1173 65.0695 85.7389 59.5468 84.3329 61.5477C74.1016 76.1086 68.739 76.062 66.8981 75.7855Z" fill="#4A2A1A"/>
<path d="M102.295 81.9685C101.558 85.8989 102.81 89.562 96.4224 88.2353C93.9275 87.7165 92.4843 84.1963 93.2207 80.2675C93.957 76.3387 96.5871 73.5315 99.0929 74.0007C101.599 74.4698 103.033 78.0382 102.295 81.9685Z" fill="#CF1A1E"/>
<path d="M106.108 81.5674C106.38 77.5313 104.108 74.0911 101.032 73.8836C97.9564 73.676 95.2423 76.7797 94.97 80.8159C94.6976 84.8521 96.9702 88.2923 100.046 88.4998C103.122 88.7073 105.836 85.6036 106.108 81.5674Z" fill="#EF4E52"/>
<path d="M101.453 77.9388C101.197 77.9399 100.949 77.8508 100.752 77.6871C100.555 77.5235 100.423 77.2957 100.378 77.044C98.9281 69.2454 95.5788 63.7942 90.418 60.8441C82.7127 56.4369 73.415 59.4289 73.3296 59.4584C72.7641 59.665 72.9614 57.3798 76.0964 56.7444C79.6803 56.0174 85.8337 55.7254 91.4465 58.9085C97.2239 62.1863 100.954 68.1533 102.531 76.6432C102.557 76.7846 102.555 76.9299 102.525 77.0707C102.495 77.2115 102.438 77.345 102.356 77.4635C102.275 77.5821 102.171 77.6835 102.05 77.7618C101.929 77.8402 101.794 77.894 101.653 77.9201C101.587 77.9332 101.52 77.9394 101.453 77.9388Z" fill="#EF4E52"/>
<path d="M101.454 85.1283C102.771 85.1283 103.839 83.3901 103.839 81.2461C103.839 79.102 102.771 77.3639 101.454 77.3639C100.137 77.3639 99.0695 79.102 99.0695 81.2461C99.0695 83.3901 100.137 85.1283 101.454 85.1283Z" fill="white"/>
<path d="M87.0065 96.0059C86.7246 96.0063 86.4535 95.898 86.2494 95.7036C86.0453 95.5092 85.9241 95.2435 85.9109 94.962C85.8977 94.6804 85.9935 94.4046 86.1785 94.192C86.3635 93.9793 86.6233 93.8461 86.904 93.8201C95.9329 92.9564 99.0212 86.7502 100.182 84.4137C100.31 84.1327 100.457 83.8608 100.621 83.5997C100.794 83.3808 101.043 83.2358 101.319 83.1943C101.595 83.1527 101.876 83.2177 102.105 83.3759C102.335 83.5342 102.495 83.7738 102.554 84.0463C102.613 84.3187 102.567 84.6034 102.423 84.8425C102.377 84.9124 102.248 85.1734 102.144 85.3831C100.958 87.7646 97.3543 95.0148 87.1121 95.995C87.0764 95.9966 87.0422 96.0059 87.0065 96.0059Z" fill="white"/>
<path d="M87.238 95.4218C87.1588 96.5714 85.9471 97.4243 84.5319 97.3264C83.1166 97.2285 82.0354 96.2172 82.1146 95.0676C82.1939 93.918 83.4056 93.0652 84.8193 93.163C86.2329 93.2609 87.3173 94.2722 87.238 95.4218Z" fill="white"/>
<path d="M59.8903 152.83C59.8903 152.83 63.5845 134.066 64.1951 130.782C64.8056 127.498 63.4307 122.925 63.4307 122.925" stroke="#217B56" stroke-width="1.33597" stroke-linecap="round" stroke-linejoin="round"/>
<path d="M106.899 62.7082C106.899 62.7082 103.449 53.2583 92.4967 52.2998L106.899 62.7082Z" fill="#EF4E52"/>
<path d="M106.899 62.7082C106.899 62.7082 103.449 53.2583 92.4967 52.2998" stroke="#EB5353" stroke-width="1.33597" stroke-linecap="round" stroke-linejoin="round"/>
<path d="M101.42 125.421H92.3412C91.7329 125.421 91.2398 125.915 91.2398 126.523V127.438C91.2398 128.046 91.7329 128.539 92.3412 128.539H101.42C102.028 128.539 102.521 128.046 102.521 127.438V126.523C102.521 125.915 102.028 125.421 101.42 125.421Z" fill="white"/>
<path d="M86.0216 75.2249C85.1392 74.5196 83.668 74.7992 83.6541 74.8023C83.5901 74.8163 83.5238 74.8163 83.4599 74.8023C83.3477 74.7866 83.2451 74.7307 83.1712 74.6449C83.0974 74.5591 83.0572 74.4493 83.0584 74.3361C83.0595 74.2228 83.1018 74.1139 83.1774 74.0296C83.2531 73.9453 83.3568 73.8914 83.4692 73.878C83.5469 73.8625 85.3831 73.5083 86.6104 74.4901C86.6587 74.5287 86.699 74.5765 86.7289 74.6307C86.7587 74.685 86.7776 74.7445 86.7845 74.8061C86.7913 74.8676 86.786 74.9299 86.7688 74.9893C86.7516 75.0488 86.7228 75.1043 86.6842 75.1526C86.6455 75.201 86.5977 75.2412 86.5435 75.2711C86.4893 75.301 86.4297 75.3199 86.3682 75.3267C86.3066 75.3336 86.2444 75.3283 86.1849 75.3111C86.1254 75.2938 86.0699 75.2651 86.0216 75.2264V75.2249Z" fill="#4F261F"/>
<path d="M76.5687 74.173C76.5304 74.2222 76.4826 74.2633 76.4282 74.2937C76.3737 74.3241 76.3137 74.3433 76.2517 74.3501C76.1897 74.3569 76.127 74.3512 76.0672 74.3334C76.0075 74.3155 75.9519 74.2858 75.9038 74.246C75.023 73.5407 73.5518 73.8204 73.5379 73.8235C73.4738 73.8367 73.4077 73.8367 73.3437 73.8235C73.2327 73.8067 73.1315 73.7505 73.0586 73.6651C72.9858 73.5797 72.9462 73.4709 72.9472 73.3587C72.9481 73.2465 72.9895 73.1384 73.0638 73.0542C73.1381 72.9701 73.2402 72.9156 73.3514 72.9007C73.4307 72.8852 75.2669 72.5294 76.4942 73.5112C76.5431 73.5494 76.5839 73.5969 76.6141 73.651C76.6444 73.7052 76.6636 73.7648 76.6706 73.8264C76.6775 73.8881 76.6721 73.9505 76.6546 74.01C76.6371 74.0695 76.6079 74.1249 76.5687 74.173Z" fill="#4F261F"/>
<path d="M109.337 152.18C109.337 152.18 108.616 144.167 108.768 139.597C108.92 135.027 108.759 127.242 110.138 126.02C111.518 124.797 111.976 124.034 111.976 124.034" stroke="#217B56" stroke-width="1.33597" stroke-linecap="round" stroke-linejoin="round"/>
<path d="M99.9565 98.4293C99.9565 98.4293 98.33 108.993 101.454 115.491C101.454 115.491 108.651 102.499 113.402 103.348C118.153 104.196 121.361 102.823 121.065 94.7211C120.77 86.6196 113.153 86.0635 113.153 86.0635L99.9565 98.4293Z" fill="#4A2A1A"/>
<path d="M102.667 160.546C106.757 154.136 104.876 145.625 98.4662 141.535C92.0565 137.445 83.5449 139.326 79.4552 145.736C75.3654 152.146 77.2462 160.657 83.6559 164.747C90.0657 168.837 98.5772 166.956 102.667 160.546Z" fill="#EF4E52"/>
<path d="M99.7204 154.646C99.6994 153.357 99.1948 152.123 98.3067 151.189C96.9086 149.729 94.423 147.916 90.6946 147.953C86.9662 147.99 84.7338 149.852 83.5485 151.338C82.8112 152.264 82.4171 153.417 82.4331 154.601L82.444 155.637C82.4501 156.24 82.6954 156.816 83.126 157.238C83.5565 157.66 84.1371 157.894 84.74 157.888C85.0386 157.885 85.3337 157.823 85.6084 157.706C85.8831 157.589 86.132 157.419 86.3409 157.205C86.5498 156.992 86.7146 156.739 86.8259 156.462C86.9372 156.185 86.9928 155.889 86.9895 155.59L86.9615 153.796C86.96 153.679 86.9849 153.563 87.0344 153.457C87.0839 153.351 87.1567 153.258 87.2474 153.184C89.7423 151.206 92.2077 151.093 94.6358 153.108C94.7211 153.18 94.7898 153.271 94.837 153.372C94.8841 153.474 94.9088 153.584 94.9092 153.696L94.9232 155.517C94.9277 156.119 95.1711 156.695 95.5998 157.118C96.0286 157.541 96.6077 157.777 97.2099 157.773H97.4756C97.7764 157.771 98.0739 157.71 98.3508 157.592C98.6277 157.474 98.8785 157.303 99.0886 157.087C99.2987 156.872 99.464 156.617 99.5748 156.338C99.6857 156.058 99.7399 155.759 99.7344 155.458L99.7204 154.646Z" fill="#F6FAF3"/>
<path d="M44.5511 54.0134H15.1093C6.76466 54.0134 0 60.7777 0 69.1219C0 77.4661 6.76466 84.2305 15.1093 84.2305H44.5511C52.8958 84.2305 59.6604 77.4661 59.6604 69.1219C59.6604 60.7777 52.8958 54.0134 44.5511 54.0134Z" fill="#EF4E52"/>
<path d="M23.1674 70.5844C24.1461 66.4376 21.5779 62.2826 17.4312 61.3039C13.2844 60.3252 9.1294 62.8933 8.15067 67.0401C7.17195 71.1869 9.74015 75.3419 13.8869 76.3206C18.0337 77.2993 22.1887 74.7311 23.1674 70.5844Z" fill="white"/>
<path d="M29.2864 65.2341H47.077" stroke="white" stroke-width="0.973976" stroke-linecap="round" stroke-linejoin="round"/>
<path d="M29.2864 73.0015H39.7507" stroke="white" stroke-width="0.973976" stroke-linecap="round" stroke-linejoin="round"/>
<path d="M33.8754 82.7702L48.8076 92.144V77.0409L33.8754 82.7702Z" fill="#EF4E52"/>
<path d="M30.6116 60.142C38.0133 60.142 44.0136 54.1417 44.0136 46.74C44.0136 39.3383 38.0133 33.338 30.6116 33.338C23.2099 33.338 17.2096 39.3383 17.2096 46.74C17.2096 54.1417 23.2099 60.142 30.6116 60.142Z" fill="#4D9578"/>
<path d="M34.657 46.6887C34.657 46.9833 34.7444 47.2713 34.9081 47.5163C35.0718 47.7613 35.3045 47.9523 35.5767 48.065C35.8489 48.1778 36.1485 48.2073 36.4375 48.1498C36.7265 48.0923 36.9919 47.9505 37.2003 47.7421C37.4086 47.5338 37.5505 47.2683 37.608 46.9793C37.6655 46.6903 37.636 46.3908 37.5232 46.1185C37.4105 45.8463 37.2195 45.6136 36.9745 45.4499C36.7295 45.2862 36.4415 45.1989 36.1468 45.1989C35.7517 45.1989 35.3728 45.3558 35.0934 45.6352C34.814 45.9146 34.657 46.2935 34.657 46.6887Z" fill="white"/>
<path d="M31.1648 48.0644C31.9249 47.7495 32.2859 46.878 31.971 46.1179C31.6562 45.3577 30.7847 44.9967 30.0245 45.3116C29.2644 45.6265 28.9034 46.4979 29.2183 47.2581C29.5331 48.0183 30.4046 48.3793 31.1648 48.0644Z" fill="white"/>
<path d="M23.551 46.6887C23.5507 46.9837 23.638 47.2723 23.8017 47.5178C23.9655 47.7633 24.1984 47.9547 24.4709 48.0677C24.7435 48.1808 25.0435 48.2105 25.3329 48.153C25.6224 48.0955 25.8883 47.9534 26.0969 47.7448C26.3056 47.5361 26.4477 47.2702 26.5052 46.9808C26.5627 46.6913 26.533 46.3913 26.4199 46.1188C26.3068 45.8462 26.1155 45.6133 25.87 45.4495C25.6245 45.2858 25.3359 45.1985 25.0408 45.1989C24.6458 45.1993 24.2671 45.3564 23.9878 45.6357C23.7085 45.915 23.5514 46.2937 23.551 46.6887Z" fill="white"/>
<path d="M21.0467 56.5147C23.4751 58.9376 26.7401 60.3373 30.1695 60.4255C33.5988 60.5136 36.9314 59.2835 39.4811 56.9885C42.0308 54.6934 43.6034 51.5081 43.8753 48.0884C44.1471 44.6687 43.0974 41.275 40.9423 38.606" stroke="#1F1406" stroke-width="0.79998" stroke-linecap="round" stroke-linejoin="round"/>
<path d="M64.8843 8.00904C65.0376 6.25689 63.7415 4.71223 61.9893 4.55893C60.2372 4.40564 58.6925 5.70177 58.5392 7.45392C58.3859 9.20607 59.6821 10.7507 61.4342 10.904C63.1864 11.0573 64.731 9.76119 64.8843 8.00904Z" stroke="#217B56" stroke-width="0.755981" stroke-linecap="round" stroke-linejoin="round"/>
<path d="M179.948 124.738C181.573 124.065 182.345 122.202 181.672 120.577C180.999 118.952 179.136 118.18 177.511 118.854C175.886 119.527 175.114 121.39 175.787 123.015C176.461 124.639 178.323 125.411 179.948 124.738Z" stroke="#217B56" stroke-width="0.755981" stroke-linecap="round" stroke-linejoin="round"/>
<path fill-rule="evenodd" clip-rule="evenodd" d="M26.8522 99.1765C26.8522 99.1765 28.1556 97.4164 26.105 95.9033C24.0543 94.3902 24.1957 98.4588 24.261 98.5038C24.3262 98.5489 26.8522 99.1765 26.8522 99.1765Z" fill="#572A22"/>
<path fill-rule="evenodd" clip-rule="evenodd" d="M21.2347 100.026C21.2347 100.026 21.7132 102.075 23.2807 101.95C24.8482 101.824 24.3681 97.3218 24.3681 97.3218L21.2347 100.026Z" fill="#572A22"/>
<path fill-rule="evenodd" clip-rule="evenodd" d="M26.254 100.53C26.254 100.53 26.3519 102.796 26.4342 104.674C26.4391 104.928 26.3719 105.179 26.2405 105.397C26.1091 105.614 25.9189 105.79 25.6917 105.905C25.4496 106.033 25.1808 106.101 24.907 106.106C24.6333 106.11 24.3624 106.05 24.1164 105.929L23.6504 105.698C23.3319 105.554 23.0641 105.318 22.8815 105.02C22.699 104.722 22.6102 104.376 22.6266 104.026C22.7556 102.273 22.9917 99.077 22.9917 99.077L26.254 100.53Z" fill="#FFBE9D"/>
<path fill-rule="evenodd" clip-rule="evenodd" d="M26.4669 101.967L26.3736 103.253L24.8978 102.204L26.4669 101.967Z" fill="#633C1D"/>
<path fill-rule="evenodd" clip-rule="evenodd" d="M22.1062 98.3874C22.0141 98.0833 22.0463 97.7551 22.1956 97.4747C22.345 97.1944 22.5994 96.9846 22.9031 96.8914L25.0966 96.2311C25.718 96.0416 26.2944 96.4424 26.5787 97.042C26.9142 97.7504 27.2576 99.3257 27.3694 100.5C27.4315 101.162 27.1146 101.884 26.4839 102.074C25.8128 102.277 23.6053 102.229 23.0507 101.078C22.6281 100.197 22.3842 99.3257 22.1062 98.3874Z" fill="#FFBE9D"/>
<path fill-rule="evenodd" clip-rule="evenodd" d="M20.9551 100.466C20.9551 100.466 20.2732 97.9899 21.1276 96.9118C22.2756 95.4608 23.9565 94.5272 26.0988 95.9036C26.0988 95.9036 27.2546 96.4131 23.8664 97.3219C23.4361 97.4369 24.3402 99.4517 23.8089 99.7081C22.9039 100.117 21.9375 100.373 20.9489 100.466H20.9551Z" fill="#572A22"/>
<path fill-rule="evenodd" clip-rule="evenodd" d="M22.156 101.132C22.4791 101.572 23.0306 101.709 23.3895 101.443C23.7483 101.177 23.7778 100.6 23.4547 100.162C23.1316 99.7234 22.5801 99.5852 22.2212 99.8508C21.8624 100.116 21.8329 100.691 22.156 101.132Z" fill="#FFBE9D"/>
<path fill-rule="evenodd" clip-rule="evenodd" d="M40.2651 120.209C38.2471 115.535 34.5964 108.589 34.5964 108.589C33.6379 106.175 31.4894 104.682 30.0648 105.451C29.5071 105.762 29.4326 106.736 29.8986 107.654L31.3216 123.8C34.0822 124.969 36.6517 128.115 39.2709 125.567C40.7016 124.182 41.0527 122.032 40.2651 120.209Z" fill="#BDD7CC"/>
<path d="M23.3351 189.733C34.4699 189.733 43.4964 189.06 43.4964 188.231C43.4964 187.401 34.4699 186.728 23.3351 186.728C12.2004 186.728 3.17389 187.401 3.17389 188.231C3.17389 189.06 12.2004 189.733 23.3351 189.733Z" fill="#E3CBBB"/>
<path fill-rule="evenodd" clip-rule="evenodd" d="M29.5398 185.607C29.5398 185.607 25.2382 167.364 28.1417 160.146L24.0793 135.399L35.6808 136.193L32.7789 185.782L29.5398 185.607Z" fill="#E3633D"/>
<path fill-rule="evenodd" clip-rule="evenodd" d="M32.8285 184.889L34.629 186.557C35.1153 186.969 37.6397 187.769 37.6397 187.769C37.9286 188.282 37.4735 188.546 37.0742 188.619L29.8132 188.464C29.8132 188.464 28.1043 188.116 29.3161 184.891C30.6847 185.476 32.5706 185.893 32.8285 184.889Z" fill="#4A2A1A"/>
<path fill-rule="evenodd" clip-rule="evenodd" d="M36.4171 140.061L35.9588 161.02L34.2608 182.029H25.8207C25.8207 182.029 26.2868 178.377 26.1003 177.213C25.9139 176.05 24.6509 165.059 26.7885 160L24.8063 139.401L36.4171 140.061Z" fill="#217B56"/>
<path fill-rule="evenodd" clip-rule="evenodd" d="M26.728 160.01L24.7473 139.406L28.7724 139.627L30.2233 154.711C30.4777 157.517 30.3685 160.344 29.8986 163.122C29.0038 168.61 29.8862 176.261 30.0447 177.218C30.2389 178.377 29.765 182.034 29.765 182.034H25.7601C25.7601 182.034 26.2339 178.382 26.0413 177.218C25.8487 176.055 24.5919 165.064 26.728 160.01Z" fill="#066132"/>
<path fill-rule="evenodd" clip-rule="evenodd" d="M13.8805 185.571C13.8805 185.571 11.9464 167.11 15.7851 159.805L14.94 134.76L26.4358 135.564L16.9797 185.742L13.8805 185.571Z" fill="#E3633D"/>
<path fill-rule="evenodd" clip-rule="evenodd" d="M17.1428 184.889L18.8517 186.533C19.2835 186.949 21.7054 187.76 21.7054 187.76C21.9276 188.277 21.4382 188.551 21.0281 188.619L13.7888 188.464C13.7888 188.464 12.1297 188.111 13.7546 184.847C15.0425 185.437 16.756 185.905 17.1428 184.889Z" fill="#4A2A1A"/>
<path fill-rule="evenodd" clip-rule="evenodd" d="M27.0727 139.479L23.4919 160.687L19.066 181.95H10.6243C10.6243 181.95 11.572 178.254 11.53 177.08C11.4881 175.905 11.659 164.781 14.4521 159.662L14.8063 136.81L27.0727 139.479Z" fill="#217B56"/>
<path fill-rule="evenodd" clip-rule="evenodd" d="M19.108 123.135L34.8744 124.335C37.4377 125.277 36.4139 140.061 36.4139 140.061L26.0474 140.541C21.2316 140.442 15.5349 144.219 14.9368 136.192C14.2549 127.021 19.108 123.135 19.108 123.135Z" fill="#217B56"/>
<path fill-rule="evenodd" clip-rule="evenodd" d="M14.7954 137.147C14.7954 137.147 25.2567 138.273 28.6604 133.68L14.6354 132.476C14.6354 132.476 14.5842 135.974 14.7954 137.147Z" fill="#066132"/>
<path fill-rule="evenodd" clip-rule="evenodd" d="M31.2253 105.259L27.7175 104.061L22.97 103.738L15.3579 106.299C13.3259 107.304 13.9597 109.209 14.7365 111.348L14.1368 118.221C12.5678 123.43 12.5833 127.281 12.8568 132.642C21.4118 135.819 35.5285 135.215 38.2284 131.29C37.7764 120.551 35.384 112.162 31.2253 105.259Z" fill="#BDD7CC"/>
<path d="M27.7097 104.061C27.7097 104.061 29.6066 108.757 26.383 108.963C23.1595 109.17 21.3948 104.289 21.3948 104.289L23.7499 103.244L27.7097 104.061Z" fill="#FFBE9D"/>
<path fill-rule="evenodd" clip-rule="evenodd" d="M7.17711 124.977C6.77786 127.152 7.10254 127.741 9.56173 128.493L22.6639 131.093L21.9167 128.584L11.8733 124.054L7.17711 124.977Z" fill="#C95836"/>
<path d="M21.9168 128.584L23.9845 129.561C24.3989 129.757 24.7295 130.094 24.9166 130.512L25.6685 132.205C25.7271 132.342 25.7521 132.491 25.7416 132.639C25.731 132.787 25.6851 132.931 25.6077 133.058C25.5303 133.185 25.4237 133.292 25.2967 133.369C25.1697 133.446 25.026 133.492 24.8777 133.503L22.3471 132.125C21.7619 131.789 21.3133 131.258 21.0794 130.626L20.6522 129.526L21.9168 128.584Z" fill="#C95836"/>
<path fill-rule="evenodd" clip-rule="evenodd" d="M15.8331 106.234C15.8331 106.234 13.4936 106.203 12.1684 109.341C10.8433 112.479 6.75762 121.43 6.6349 122.011C6.51217 122.592 3.88366 127.351 8.46647 128.584C13.9394 130.06 19.3938 131.665 19.3938 131.665L20.6971 126.398L12.9871 123.798C12.9871 123.798 18.2799 108.681 18.036 107.686C17.7921 106.692 15.8331 106.234 15.8331 106.234Z" fill="#BDD7CC"/>
<path d="M16.5322 113.259L13.3942 122.628L19.9173 125.923" stroke="#4D9578" stroke-width="0.599985" stroke-linecap="round" stroke-linejoin="round"/>
<path d="M36.0644 117.03L34.239 111.288V110.856" stroke="#4D9578" stroke-width="0.599985" stroke-linecap="round" stroke-linejoin="round"/>
<path fill-rule="evenodd" clip-rule="evenodd" d="M31.912 124.575L33.5276 124.587C34.1847 124.587 34.8791 124.109 35.0811 123.511L36.5756 118.897C36.7697 118.299 36.3907 117.809 35.7351 117.8L34.1195 117.787C33.4624 117.787 32.7664 118.266 32.566 118.864L31.07 123.478C30.8773 124.076 31.2564 124.57 31.912 124.575Z" fill="#3D2213"/>
<path fill-rule="evenodd" clip-rule="evenodd" d="M35.0577 123.006C35.2434 123.061 35.4425 123.049 35.6208 122.974C35.7991 122.898 35.9455 122.763 36.0349 122.591C36.4652 121.76 37.0711 120.22 36.0924 119.549C34.7191 118.608 33.5011 121.011 33.7077 121.969C33.832 122.541 34.5218 122.849 35.0577 123.006Z" fill="#E3633D"/>
</g>
<defs>
<clipPath id="clip0_107_1652">
<rect width="186.424" height="193" fill="white"/>
</clipPath>
</defs>
</svg>
