<svg width="214" height="193" viewBox="0 0 214 193" fill="none" xmlns="http://www.w3.org/2000/svg">
    <g clip-path="url(#clip0_1109_6330)">
        <path
            d="M0.0100637 65.9378C0.0100637 65.9378 -1.33944 36.6087 25.7605 24.2114C49.7696 13.2292 57.0083 28.345 79.1909 22.1862C101.373 16.0275 114.911 -10.748 158.106 4.77217C201.3 20.2923 175.839 82.4155 192.258 91.2502C192.258 91.2502 226.645 108.739 208.218 152.71C189.791 196.682 109.667 177.244 110.942 107.668C111.416 82.2825 1.95008 155.663 0.0100637 65.9378Z"
            fill="#E9F2EE" />
        <path
            d="M111.223 121.776C111.223 121.776 124.041 66.6257 169.94 55.6559L128.408 122.468C128.408 122.468 152.566 87.7797 196.924 110.425C196.924 110.425 151.173 119.891 133.893 141.159C133.893 141.159 125.117 152.43 120.352 159.991C105.181 184.071 111.223 121.776 111.223 121.776Z"
            fill="#BDD7CC" />
        <path
            d="M96.8538 192.998C128.711 192.998 154.537 190.621 154.537 187.689C154.537 184.757 128.711 182.38 96.8538 182.38C64.9965 182.38 39.171 184.757 39.171 187.689C39.171 190.621 64.9965 192.998 96.8538 192.998Z"
            fill="#E9F2EE" />
        <path
            d="M66.7657 188.208L122.336 187.676C125.186 187.648 127.908 186.489 129.903 184.454C131.898 182.419 133.004 179.675 132.976 176.826L131.712 45.5213C131.683 42.6716 130.524 39.9499 128.49 37.9547C126.455 35.9594 123.711 34.8539 120.861 34.8814L65.2903 35.4134C62.4405 35.4414 59.7185 36.6004 57.7231 38.6353C55.7278 40.6703 54.6225 43.4145 54.6504 46.2643L55.9147 177.567C55.9428 180.417 57.1017 183.139 59.1366 185.135C61.1715 187.13 63.9157 188.236 66.7657 188.208V188.208Z"
            fill="#217B56" />
        <path
            d="M65.5474 174.949L123.042 174.394C123.826 174.387 124.602 174.225 125.323 173.918C126.045 173.611 126.699 173.165 127.248 172.605C127.797 172.045 128.231 171.382 128.524 170.655C128.817 169.927 128.964 169.149 128.956 168.365L127.765 44.6382C127.757 43.8541 127.595 43.0792 127.288 42.3577C126.981 41.6362 126.534 40.9823 125.974 40.4333C125.415 39.8843 124.752 39.4509 124.025 39.158C123.297 38.865 122.519 38.7182 121.735 38.7259L64.2405 39.2792C63.4562 39.2866 62.6811 39.4485 61.9594 39.7555C61.2377 40.0626 60.5836 40.5088 60.0344 41.0687C59.4852 41.6286 59.0517 42.2912 58.7586 43.0187C58.4656 43.7462 58.3187 44.5243 58.3264 45.3085L59.5181 169.035C59.5255 169.82 59.6874 170.595 59.9944 171.316C60.3015 172.038 60.7477 172.692 61.3076 173.241C61.8675 173.791 62.5301 174.224 63.2576 174.517C63.9851 174.81 64.7632 174.957 65.5474 174.949V174.949Z"
            fill="white" />
        <path
            d="M113.009 169.382C120.94 164.79 123.648 154.637 119.055 146.706C114.463 138.774 104.311 136.067 96.379 140.659C88.4474 145.251 85.7403 155.404 90.3326 163.336C94.9248 171.267 105.077 173.974 113.009 169.382Z"
            fill="#EB2227" />
        <path
            d="M100.04 148.149C99.0855 148.937 98.4625 150.056 98.2954 151.282C98.0984 152.637 98.1871 154.018 98.5557 155.336C98.9244 156.654 99.5648 157.88 100.436 158.936C102.7 161.71 105.435 162.27 107.265 162.274C108.402 162.271 109.503 161.875 110.381 161.153L111.152 160.523C111.601 160.157 111.886 159.628 111.944 159.051C112.003 158.475 111.83 157.899 111.464 157.45V157.45C111.097 157.002 110.568 156.718 109.992 156.659C109.416 156.601 108.84 156.774 108.391 157.14L107.052 158.234C106.965 158.305 106.863 158.356 106.754 158.382C106.644 158.408 106.531 158.409 106.421 158.385C103.44 157.7 101.878 155.92 101.933 152.887C101.936 152.78 101.962 152.675 102.01 152.579C102.058 152.482 102.126 152.398 102.209 152.331L103.568 151.228C104.017 150.863 104.302 150.335 104.363 149.76C104.423 149.185 104.252 148.609 103.889 148.16L103.727 147.961C103.545 147.736 103.321 147.55 103.066 147.412C102.812 147.275 102.533 147.19 102.245 147.161C101.957 147.133 101.667 147.161 101.39 147.246C101.114 147.331 100.857 147.469 100.634 147.654L100.04 148.149Z"
            fill="#F6FAF3" />
        <path d="M103.644 108.063L114.254 114.195L114.17 100.377L103.644 108.063Z" fill="#EF834E" />
        <path
            d="M109.246 106.072H79.1737C70.8666 106.072 64.1324 112.806 64.1324 121.113C64.1324 129.42 70.8666 136.154 79.1737 136.154H109.246C117.553 136.154 124.287 129.42 124.287 121.113C124.287 112.806 117.553 106.072 109.246 106.072Z"
            fill="#EF834E" />
        <path
            d="M102.381 118.256H74.6978C74.4517 118.255 74.2159 118.157 74.0418 117.983C73.8678 117.809 73.7695 117.573 73.7686 117.327V117.327C73.7695 117.081 73.8678 116.845 74.0418 116.671C74.2159 116.497 74.4517 116.399 74.6978 116.398H102.381C102.627 116.399 102.863 116.497 103.037 116.671C103.211 116.845 103.31 117.081 103.31 117.327V117.327C103.31 117.573 103.211 117.809 103.037 117.983C102.863 118.157 102.627 118.255 102.381 118.256V118.256Z"
            fill="white" />
        <path
            d="M113.723 118.256H107.354C107.107 118.255 106.872 118.157 106.698 117.983C106.524 117.809 106.425 117.573 106.424 117.327V117.327C106.425 117.081 106.524 116.845 106.698 116.671C106.872 116.497 107.107 116.399 107.354 116.398H113.723C113.97 116.399 114.205 116.497 114.379 116.671C114.554 116.845 114.652 117.081 114.653 117.327V117.327C114.652 117.573 114.554 117.809 114.379 117.983C114.205 118.157 113.97 118.255 113.723 118.256V118.256Z"
            fill="white" />
        <path
            d="M95.5823 124.488H75.2919C75.0456 124.487 74.8095 124.389 74.6354 124.215C74.4612 124.041 74.3632 123.805 74.3627 123.558V123.558C74.3632 123.312 74.4612 123.076 74.6354 122.902C74.8095 122.728 75.0456 122.63 75.2919 122.629H95.5823C95.8286 122.63 96.0647 122.728 96.2389 122.902C96.413 123.076 96.5111 123.312 96.5115 123.558C96.5106 123.804 96.4124 124.04 96.2384 124.214C96.0643 124.388 95.8285 124.487 95.5823 124.488V124.488Z"
            fill="white" />
        <path
            d="M81.2077 127.318H67.2463C59.6247 127.318 53.4463 133.496 53.4463 141.118V141.12C53.4463 148.741 59.6247 154.92 67.2463 154.92H81.2077C88.8292 154.92 95.0077 148.741 95.0077 141.12V141.118C95.0077 133.496 88.8292 127.318 81.2077 127.318Z"
            fill="#36AE7C" />
        <path
            d="M67.0973 127.11H81.0587C84.7154 127.121 88.2192 128.578 90.8049 131.164C93.3905 133.75 94.8479 137.254 94.8587 140.91"
            stroke="#401E1E" stroke-width="0.450425" stroke-linecap="round"
            stroke-linejoin="round" />
        <path
            d="M31.2991 48.0199C32.8328 48.0199 34.0762 46.7766 34.0762 45.2429C34.0762 43.7091 32.8328 42.4658 31.2991 42.4658C29.7654 42.4658 28.5221 43.7091 28.5221 45.2429C28.5221 46.7766 29.7654 48.0199 31.2991 48.0199Z"
            stroke="#217B56" stroke-width="0.524905" stroke-linecap="round"
            stroke-linejoin="round" />
        <path
            d="M147.736 19.1768C149.27 19.1768 150.513 17.9335 150.513 16.3998C150.513 14.8661 149.27 13.6227 147.736 13.6227C146.202 13.6227 144.959 14.8661 144.959 16.3998C144.959 17.9335 146.202 19.1768 147.736 19.1768Z"
            stroke="#217B56" stroke-width="0.524905" stroke-linecap="round"
            stroke-linejoin="round" />
        <path
            d="M178.714 133.478C180.248 133.478 181.491 132.235 181.491 130.701C181.491 129.168 180.248 127.924 178.714 127.924C177.18 127.924 175.937 129.168 175.937 130.701C175.937 132.235 177.18 133.478 178.714 133.478Z"
            stroke="#217B56" stroke-width="0.524905" stroke-linecap="round"
            stroke-linejoin="round" />
        <path fill-rule="evenodd" clip-rule="evenodd"
            d="M45.3191 103.901C46.9151 104.165 47.4471 101.505 46.7945 100.025L42.3824 88.654C41.1801 85.6269 38.4811 83.756 36.7078 84.7207C35.9985 85.1002 35.9133 86.3309 36.4968 87.4836L43.2673 106.103L45.3191 103.901Z"
            fill="#F9D1BD" />
        <path fill-rule="evenodd" clip-rule="evenodd"
            d="M17.2491 78.0512C17.4122 77.8507 17.5313 77.618 17.5985 77.3684C17.6657 77.1187 17.6796 76.8578 17.6392 76.6024C17.1072 72.3943 22.8546 72.8057 24.7325 72.5663C26.6832 72.3145 26.3959 68.9895 29.9195 69.6421C33.4431 70.2947 33.5424 72.3854 33.7109 72.4174C33.9574 72.4635 31.7602 75.0933 31.7602 75.0933C31.7602 75.0933 30.0135 74.7493 28.3909 77.7356C26.7683 80.7218 26.7045 82.7009 23.5799 84.0202C20.4553 85.3396 14.8427 78.2959 14.8427 78.2959C16.0592 78.9538 16.8146 78.5584 17.2491 78.0512Z"
            fill="#663A24" />
        <path fill-rule="evenodd" clip-rule="evenodd"
            d="M55.5831 189.375C55.5831 191.237 44.2657 192.745 30.3061 192.745C16.3465 192.745 5.02911 191.236 5.02911 189.375C5.02911 187.515 16.3447 186.006 30.3061 186.006C44.2675 186.006 55.5831 187.513 55.5831 189.375Z"
            fill="#E9F2EE" />
        <path fill-rule="evenodd" clip-rule="evenodd"
            d="M30.6165 185.22C30.6165 185.22 27.1958 162.344 31.6131 153.301L29.2014 122.267L43.6629 123.264L33.9185 185.401L30.6165 185.22Z"
            fill="#E3633D" />
        <path fill-rule="evenodd" clip-rule="evenodd"
            d="M34.0231 184.323L36.8941 186.414C37.458 186.93 40.5383 187.934 40.5383 187.934C40.8451 188.576 40.2457 188.912 39.7367 188.998L30.6502 188.808C30.6502 188.808 28.5524 188.372 30.4126 184.327C32.0671 185.057 33.5921 185.58 34.0231 184.323Z"
            fill="#4A2A1A" />
        <path fill-rule="evenodd" clip-rule="evenodd"
            d="M44.6683 128.118L41.3185 154.393L36.9171 180.736H26.3392C26.3392 180.736 27.3269 176.155 27.2099 174.706C27.0929 173.258 26.7098 159.468 29.9355 153.127L29.6784 127.298L44.6683 128.118Z"
            fill="#217B56" />
        <path fill-rule="evenodd" clip-rule="evenodd"
            d="M29.861 153.123L29.6039 127.295L34.6277 127.571L34.8157 146.477C34.8254 150.034 34.3827 153.577 33.4981 157.023C31.7816 163.905 32.06 173.497 32.1557 174.696C32.2728 176.148 31.285 180.725 31.285 180.725H26.2647C26.2647 180.725 27.2525 176.145 27.1354 174.696C27.0184 173.247 26.6354 159.465 29.861 153.123Z"
            fill="#066132" />
        <path fill-rule="evenodd" clip-rule="evenodd"
            d="M16.4121 185.176C16.4121 185.176 13.9879 162.029 18.7972 152.87L17.7332 121.469L32.1503 122.478L19.698 185.357L16.4121 185.176Z"
            fill="#E3633D" />
        <path fill-rule="evenodd" clip-rule="evenodd"
            d="M19.8613 184.266L22.6383 186.377C23.181 186.909 26.2169 187.916 26.2169 187.916C26.4953 188.565 25.88 188.907 25.3675 188.992L16.2898 188.799C16.2898 188.799 14.2115 188.359 16.2473 184.266C17.8699 185.009 19.3737 185.54 19.8613 184.266Z"
            fill="#4A2A1A" />
        <path fill-rule="evenodd" clip-rule="evenodd"
            d="M32.9538 127.385L28.4637 153.985L22.915 180.643H12.3318C12.3318 180.643 13.5181 176.008 13.4649 174.538C13.4117 173.068 13.6281 159.11 17.1304 152.699L17.5737 124.048L32.9538 127.385Z"
            fill="#217B56" />
        <path fill-rule="evenodd" clip-rule="evenodd"
            d="M22.9717 106.894L42.7372 108.4C45.9522 109.581 44.6665 128.118 44.6665 128.118L31.6698 128.719C25.6405 128.593 18.4905 133.329 17.7386 123.268C16.8821 111.766 22.9717 106.894 22.9717 106.894Z"
            fill="#217B56" />
        <path fill-rule="evenodd" clip-rule="evenodd"
            d="M17.5559 124.463C17.5559 124.463 30.6785 125.881 34.9345 120.114L17.3608 118.605C17.3608 118.605 17.2952 122.993 17.5559 124.463Z"
            fill="#066132" />
        <path fill-rule="evenodd" clip-rule="evenodd"
            d="M38.1495 84.4813L33.7517 82.9793L27.8004 82.575L20.2354 85.2119C19.0052 85.82 18.0432 86.8612 17.5342 88.1355C17.0252 89.4098 17.0051 90.8273 17.4779 92.1155L19.3292 100.773C17.3626 107.304 16.3483 111.885 16.6887 118.605C27.4156 122.588 42.1608 122.393 45.5461 117.472C44.9751 104.018 43.3738 93.1387 38.1495 84.4813Z"
            fill="#BDD7CC" />
        <path fill-rule="evenodd" clip-rule="evenodd"
            d="M33.6933 79.1294L32.1079 84.1568C32.015 84.4534 31.8451 84.7202 31.6155 84.9298C31.3859 85.1394 31.1049 85.2845 30.801 85.3502C30.4981 85.4144 30.1835 85.3959 29.8903 85.2967C29.597 85.1975 29.3358 85.0212 29.1341 84.7863L28.7422 84.3341C28.4651 84.0099 28.285 83.6143 28.2222 83.1925C28.1595 82.7707 28.2168 82.3397 28.3875 81.949L30.8914 76.1644L33.6933 79.1294Z"
            fill="#F9D1BD" />
        <path fill-rule="evenodd" clip-rule="evenodd"
            d="M33.3526 80.6669L32.7071 82.2753L31.6024 80.3601L33.3526 80.6669Z" fill="#873B24" />
        <path
            d="M33.7517 82.9793C33.7517 82.9793 36.1297 88.8668 32.0883 89.1257C28.0469 89.3846 25.8338 83.2737 25.8338 83.2737L28.7864 81.9614L33.7517 82.9793Z"
            fill="#F9D1BD" />
        <path fill-rule="evenodd" clip-rule="evenodd"
            d="M31.4765 75.189C31.5636 74.7946 31.8033 74.4507 32.1433 74.2327C32.4833 74.0147 32.8959 73.9403 33.2907 74.0257L36.128 74.6553C36.9437 74.8326 37.3267 75.6341 37.2682 76.4765C37.1991 77.4695 36.6015 79.4291 35.9967 80.7999C35.6545 81.573 34.853 82.1777 34.0461 81.9968C33.1754 81.8036 30.7548 80.3849 30.8541 78.757C30.9339 77.5156 31.2088 76.4002 31.4783 75.189H31.4765Z"
            fill="#F9D1BD" />
        <path fill-rule="evenodd" clip-rule="evenodd"
            d="M27.4174 77.2975C27.4174 77.2975 29.6926 73.6072 31.3098 72.9404C33.4839 72.0538 35.9205 72.0538 37.4544 74.9159C37.4544 74.9159 34.782 77.3986 28.3892 77.7355L27.4174 77.2975Z"
            fill="#663A24" />
        <path fill-rule="evenodd" clip-rule="evenodd"
            d="M29.829 78.2569C29.9142 78.9449 30.4408 79.4397 31.0048 79.3652C31.5687 79.2907 31.9588 78.6701 31.8737 77.9838C31.7886 77.2975 31.2619 76.801 30.698 76.8772C30.1341 76.9535 29.7439 77.5706 29.829 78.2569Z"
            fill="#F9D1BD" />
        <path fill-rule="evenodd" clip-rule="evenodd"
            d="M35.8052 80.1048L34.4025 79.7625C34.4025 79.7625 34.188 80.7414 34.8866 80.8265C35.5853 80.9116 35.8052 80.1048 35.8052 80.1048Z"
            fill="white" />
        <path fill-rule="evenodd" clip-rule="evenodd"
            d="M21.9573 107.026L23.1756 92.2573C23.516 88.7018 21.482 86.1234 18.9019 86.8398C17.8857 87.1218 17.1285 89.342 17.1285 90.7198L16.6941 107.212L21.9573 107.026Z"
            fill="#F9D1BD" />
        <path fill-rule="evenodd" clip-rule="evenodd"
            d="M16.7012 107.219C17.7049 109.813 20.0156 111.379 23.1348 110.57L37.2612 103.6L34.8175 101.409L23.4948 104.875L16.7012 107.219Z"
            fill="#F9D1BD" />
        <path
            d="M34.8174 101.409L37.6707 101.101C38.2407 101.039 38.8141 101.183 39.2862 101.509L41.1997 102.825C41.3536 102.931 41.4795 103.073 41.5664 103.239C41.6534 103.405 41.6988 103.59 41.6988 103.777C41.6988 103.964 41.6534 104.149 41.5664 104.314C41.4795 104.48 41.3536 104.623 41.1997 104.729V104.729L37.5927 104.906C36.7472 104.932 35.9199 104.659 35.2555 104.135L34.078 103.248L34.8174 101.409Z"
            fill="#F9D1BD" />
        <path d="M33.5761 72.4191C33.5761 72.4191 32.0652 71.3657 30.3965 73.3873" stroke="white"
            stroke-width="0.450425" stroke-linecap="round" stroke-linejoin="round" />
        <path fill-rule="evenodd" clip-rule="evenodd"
            d="M41.0418 106.88L43.0687 106.896C43.8915 106.896 44.764 106.295 45.007 105.545L46.8796 99.7602C47.1225 99.0101 46.6491 98.3912 45.8262 98.3859L43.7993 98.3682C42.9765 98.3682 42.104 98.9711 41.8611 99.7194L39.9884 105.513C39.7455 106.254 40.219 106.873 41.0418 106.88Z"
            fill="#3D2213" />
        <path fill-rule="evenodd" clip-rule="evenodd"
            d="M44.9875 104.912C45.2201 104.981 45.4694 104.967 45.6926 104.872C45.9159 104.777 46.0992 104.607 46.2111 104.392C46.7431 103.351 47.511 101.42 46.2838 100.58C44.5619 99.3985 43.0351 102.411 43.294 103.614C43.4465 104.33 44.3137 104.717 44.9875 104.912Z"
            fill="#E3633D" />
        <path
            d="M131.148 85.5324C144.711 71.9693 144.711 49.9791 131.148 36.4159C117.585 22.8528 95.5946 22.8528 82.0314 36.4159C68.4683 49.9791 68.4683 71.9693 82.0314 85.5324C95.5946 99.0956 117.585 99.0956 131.148 85.5324Z"
            fill="#2C3E50" />
        <path
            d="M106.763 95.6763C114.267 95.5766 121.529 93.0014 127.419 88.3507L128.66 87.3257L114.807 79.3635C114.807 79.3635 113.539 86.6944 104.986 86.7972C96.7935 86.8965 97.329 78.7836 97.329 78.7836L83.7276 87.1182C90.0743 92.7369 98.2874 95.7882 106.763 95.6763V95.6763Z"
            fill="#EB2227" />
        <path fill-rule="evenodd" clip-rule="evenodd"
            d="M93.0517 55.1345C93.0517 55.1345 94.6708 52.3876 94.2558 44.7428L96.8236 36.5305C96.8236 36.5305 90.5052 35.3051 90.1683 43.0652C90.0779 45.1382 90.3456 50.9636 90.9486 53.1306C91.7856 56.0991 93.0517 55.1345 93.0517 55.1345Z"
            fill="#42271B" />
        <path fill-rule="evenodd" clip-rule="evenodd"
            d="M117.064 56.1791C117.064 56.1791 115.69 53.301 116.766 45.7164L114.912 37.3215C114.912 37.3215 121.313 36.6494 120.976 44.4148C120.764 49.3181 117.064 56.1791 117.064 56.1791Z"
            fill="#42271B" />
        <path
            d="M93.0517 55.1345C93.1812 52.8167 92.7822 43.7852 93.6245 41.5011C95.0822 37.5449 97.501 35.4381 100.397 34.5231L108.542 34.0479C112.401 34.4876 115.711 36.5394 117.547 41.4568C118.4 43.7373 118.04 52.7689 118.178 55.0866C118.636 62.5984 119.496 73.2384 109.06 73.1994H108.634V70.8834L102.69 70.8976V73.2135H102.264C91.8122 73.3058 92.6315 62.6498 93.0517 55.1345Z"
            fill="#F9D1BD" />
        <path
            d="M96.469 79.2836L97.5755 61.5503C97.5918 61.2912 97.6611 61.0382 97.7794 60.807C97.8976 60.5758 98.0621 60.3715 98.2627 60.2066C98.4633 60.0418 98.6957 59.92 98.9454 59.8488C99.1951 59.7777 99.4568 59.7586 99.7142 59.793L112.232 61.4706C112.663 61.5281 113.061 61.7323 113.359 62.0488C113.657 62.3653 113.837 62.7748 113.869 63.2084L115.034 79.1949C115.116 80.3298 114.965 81.4696 114.588 82.5434C114.212 83.6172 113.618 84.6021 112.845 85.4371C112.072 86.272 111.136 86.9391 110.094 87.397C109.052 87.8549 107.928 88.0938 106.79 88.0988L104.789 88.1077C103.652 88.1126 102.526 87.8838 101.481 87.4355C100.436 86.9872 99.4941 86.329 98.714 85.5016C97.9338 84.6742 97.332 83.6953 96.9458 82.6257C96.5596 81.5561 96.3973 80.4185 96.469 79.2836V79.2836Z"
            fill="#F9D1BD" />
        <path
            d="M110.173 51.1338C110.048 51.129 109.925 51.0926 109.818 51.0282C109.71 50.9637 109.62 50.8732 109.556 50.765C109.418 50.4848 109.593 50.1851 109.95 50.0965C110.06 50.0699 112.626 49.4439 114.653 50.3944C114.988 50.5522 115.112 50.882 114.928 51.1303C114.743 51.3786 114.325 51.453 113.986 51.2952C112.53 50.6125 110.475 51.1072 110.453 51.1179C110.362 51.139 110.267 51.1444 110.173 51.1338V51.1338Z"
            fill="#4F261F" />
        <path
            d="M111.329 55.0192C111.308 55.6576 111.697 56.1896 112.198 56.2073C112.7 56.2251 113.122 55.7215 113.145 55.0813C113.168 54.4411 112.776 53.9091 112.276 53.8914C111.776 53.8736 111.351 54.3791 111.329 55.0192Z"
            fill="#572A22" />
        <path d="M109.989 54.6646C109.989 54.6646 111.987 52.7902 114.45 54.6026" stroke="#4F261F"
            stroke-width="0.643718" stroke-miterlimit="10" stroke-linecap="round" />
        <path
            d="M101.048 51.1533C101.173 51.1477 101.295 51.1108 101.402 51.0461C101.51 50.9813 101.599 50.8908 101.663 50.7827C101.8 50.5008 101.622 50.2028 101.266 50.1159C101.156 50.0876 98.5881 49.474 96.5647 50.4334C96.2296 50.593 96.1072 50.9228 96.2934 51.1711C96.4796 51.4193 96.8981 51.4903 97.2351 51.3307C98.6874 50.6426 100.746 51.1285 100.768 51.1338C100.859 51.1562 100.954 51.1628 101.048 51.1533V51.1533Z"
            fill="#4F261F" />
        <path
            d="M99.9074 55.0423C99.9322 55.6825 99.5527 56.2163 99.0438 56.2358C98.5349 56.2553 98.1163 55.7534 98.0933 55.1132C98.0702 54.4731 98.448 53.9411 98.9569 53.9216C99.4659 53.9021 99.8826 54.4039 99.9074 55.0423Z"
            fill="#572A22" />
        <path d="M101.246 54.6823C101.246 54.6823 99.2407 52.8167 96.7846 54.6397" stroke="#4F261F"
            stroke-width="0.643718" stroke-miterlimit="10" stroke-linecap="round" />
        <path
            d="M114.557 71.7257C114.557 71.7257 109.538 74.7067 101.633 72.8181C101.633 72.8181 114.874 77.1379 115.061 79.7057L114.557 71.7257Z"
            fill="#EF834E" />
        <path
            d="M95.4898 63.0462C97.4415 61.879 97.6142 58.5758 95.8755 55.6684C94.1368 52.7609 91.1451 51.3501 89.1934 52.5173C87.2416 53.6845 87.0689 56.9876 88.8076 59.8951C90.5463 62.8026 93.538 64.2133 95.4898 63.0462Z"
            fill="#F9D1BD" />
        <path
            d="M122.157 59.8314C123.869 56.9091 123.681 53.6172 121.737 52.4787C119.793 51.3402 116.83 52.7862 115.118 55.7085C113.406 58.6307 113.594 61.9227 115.538 63.0612C117.482 64.1997 120.445 62.7537 122.157 59.8314Z"
            fill="#F9D1BD" />
        <path d="M105.123 61.2507L104.208 60.9865" stroke="#853A27" stroke-width="0.446878"
            stroke-linecap="round" stroke-linejoin="round" />
        <path fill-rule="evenodd" clip-rule="evenodd"
            d="M92.7822 40.7866L92.8673 38.8536C92.8673 38.8536 99.6468 41.4817 106.024 41.3611C112.401 41.2405 119.717 39.2686 119.717 39.2686C119.717 39.2686 115.174 31.0936 106.173 30.6023C97.3255 30.1271 91.8051 35.7645 92.7822 40.7866Z"
            fill="#42271B" />
        <path d="M117.029 53.5456L119.359 52.4515" stroke="#6E3020" stroke-width="0.547958"
            stroke-linecap="round" stroke-linejoin="round" />
        <path d="M94.5289 53.5136L91.9877 52.1357" stroke="#6E3020" stroke-width="0.547958"
            stroke-linecap="round" stroke-linejoin="round" />
        <path
            d="M92.4701 39.0469C92.4701 39.0469 104.74 27.6728 114.741 36.0323C120.982 41.2529 120.318 48.7683 118.143 47.0535C116.11 45.4575 114.202 45.2536 111.955 44.7482C109.407 44.1701 105.288 47.1794 101.464 45.2021C95.4049 42.0722 92.4701 39.0469 92.4701 39.0469Z"
            fill="#42271B" />
        <path
            d="M105.763 67.4662C105.375 67.4676 104.991 67.3926 104.632 67.2455C104.273 67.0984 103.947 66.8821 103.672 66.6089C103.397 66.3357 103.178 66.011 103.028 65.6534C102.879 65.2957 102.801 64.912 102.8 64.5242V64.3717L108.707 64.3505V64.503C108.708 64.8909 108.633 65.2754 108.486 65.6344C108.339 65.9934 108.123 66.3198 107.849 66.595C107.576 66.8703 107.251 67.0889 106.893 67.2384C106.535 67.3878 106.151 67.4653 105.763 67.4662V67.4662Z"
            fill="white" />
        <path
            d="M107.625 61.3021C107.854 61.3062 108.076 61.2246 108.247 61.0734C108.437 60.8777 108.564 60.6302 108.613 60.3621C108.661 60.094 108.629 59.8176 108.521 59.5678L107.898 58.0233L106.932 55.6044C106.932 55.6044 106.079 52.4532 107.496 51.3165"
            stroke="#853A27" stroke-width="0.446878" stroke-linecap="round"
            stroke-linejoin="round" />
        <path opacity="0.23"
            d="M96.2179 52.7236L102.621 52.8253C103.086 52.8327 103.53 53.0247 103.854 53.3592C104.178 53.6936 104.355 54.143 104.348 54.6086L104.339 55.1671C104.321 56.2957 103.856 57.371 103.045 58.1563C102.234 58.9417 101.145 59.3729 100.016 59.3549L99.1899 59.3418C97.9849 59.3222 96.8371 58.8249 95.9988 57.9591C95.1604 57.0934 94.7003 55.9302 94.7194 54.7252L94.7283 54.1667C94.7344 53.7778 94.8949 53.4073 95.1742 53.1366C95.4536 52.866 95.829 52.7174 96.2179 52.7236V52.7236Z"
            fill="#DADDED" />
        <path opacity="0.23"
            d="M109.394 53.0392L115.797 53.1409C116.262 53.1483 116.706 53.3403 117.03 53.6747C117.354 54.0092 117.532 54.4586 117.524 54.9241L117.515 55.4827C117.497 56.6113 117.032 57.6866 116.221 58.4719C115.411 59.2573 114.321 59.6884 113.192 59.6705L112.366 59.6574C111.161 59.6383 110.013 59.1411 109.174 58.2753C108.335 57.4095 107.875 56.246 107.894 55.0407L107.903 54.4822C107.909 54.0933 108.069 53.7228 108.349 53.4522C108.628 53.1815 109.003 53.033 109.392 53.0392L109.394 53.0392Z"
            fill="#DADDED" />
        <path
            d="M109.181 52.8567L115.583 52.9584C116.049 52.9658 116.492 53.1578 116.816 53.4922C117.14 53.8267 117.318 54.2761 117.311 54.7416L117.302 55.3002C117.284 56.4288 116.819 57.5041 116.008 58.2894C115.197 59.0748 114.108 59.506 112.979 59.488L112.153 59.4749C110.947 59.4558 109.799 58.9586 108.96 58.0928C108.122 57.227 107.661 56.0635 107.68 54.8583L107.689 54.2997C107.692 54.107 107.733 53.9168 107.81 53.7399C107.887 53.5631 107.997 53.4031 108.136 53.2691C108.274 53.135 108.438 53.0296 108.617 52.9589C108.797 52.8881 108.988 52.8534 109.181 52.8567V52.8567Z"
            stroke="#6E3020" stroke-width="0.547958" stroke-linecap="round"
            stroke-linejoin="round" />
        <path
            d="M96.1854 52.6486L102.588 52.7503C103.054 52.7577 103.497 52.9498 103.821 53.2842C104.145 53.6186 104.323 54.068 104.316 54.5336L104.307 55.0921C104.289 56.2207 103.823 57.296 103.012 58.0814C102.202 58.8667 101.112 59.2979 99.9836 59.28L99.1573 59.2668C97.9521 59.2477 96.8038 58.7505 95.9651 57.8848C95.1263 57.019 94.6659 55.8555 94.6851 54.6502L94.6939 54.0917C94.7001 53.7028 94.8605 53.3322 95.1399 53.0616C95.4193 52.791 95.7947 52.6424 96.1836 52.6486L96.1854 52.6486Z"
            stroke="#6E3020" stroke-width="0.547958" stroke-linecap="round"
            stroke-linejoin="round" />
        <path d="M108.015 53.2495L103.928 53.1839" stroke="#6E3020" stroke-width="0.547958"
            stroke-linecap="round" stroke-linejoin="round" />
        <path d="M89.9874 61.9849C89.5493 63.7866 91.5833 70.3301 97.5329 69.8815" stroke="white"
            stroke-width="1.34063" stroke-linecap="round" stroke-linejoin="round" />
        <path
            d="M99.9925 69.6616C99.9925 70.4614 99.1201 71.121 98.0242 71.1317C96.9282 71.1423 96.0327 70.5039 96.0238 69.7024C96.015 68.9008 96.8963 68.2447 97.9922 68.2323C99.0882 68.2199 99.9837 68.8618 99.9925 69.6616Z"
            fill="white" />
        <path
            d="M89.6682 55.2249C89.6682 55.2249 86.9497 34.8884 103.03 34.3671C122.654 33.7287 119.834 54.3312 119.834 54.3312"
            stroke="white" stroke-width="1.09592" stroke-linecap="round" stroke-linejoin="round" />
        <path
            d="M89.9077 63.8167C89.2192 63.9206 88.5175 63.7476 87.9562 63.3355C87.3949 62.9234 87.0196 62.3058 86.9126 61.6177L85.9532 55.3721C85.8492 54.6835 86.0222 53.9819 86.4343 53.4206C86.8464 52.8592 87.4641 52.484 88.1521 52.3769V52.3769C88.8407 52.272 89.5429 52.4443 90.1046 52.8561C90.6664 53.268 91.042 53.8858 91.149 54.5741L92.1031 60.8251C92.2056 61.5124 92.0324 62.2125 91.6212 62.7728C91.2101 63.3331 90.5942 63.7083 89.9077 63.8167V63.8167Z"
            fill="white" />
        <path
            d="M118.281 60.4917C118.232 61.1947 118.464 61.8883 118.926 62.4203C119.389 62.9522 120.043 63.2791 120.746 63.3291C121.449 63.3754 122.141 63.1422 122.673 62.6801C123.204 62.2181 123.531 61.5647 123.583 60.8624L124.025 54.6256C124.073 53.9226 123.841 53.229 123.379 52.6971C122.917 52.1651 122.263 51.8383 121.56 51.7883C120.857 51.7419 120.165 51.9752 119.633 52.4372C119.102 52.8993 118.774 53.5526 118.722 54.255"
            fill="white" />
        <path
            d="M79.2287 82.2557C80.6659 84.155 82.2934 85.9026 84.0858 87.4711V87.4711C89.4735 92.234 96.2277 95.1739 103.385 95.8713C104.716 96.0073 106.054 96.0665 107.393 96.0486C126.571 95.7986 141.918 80.0497 141.669 60.8694"
            stroke="#191919" stroke-width="0.450425" stroke-linecap="round"
            stroke-linejoin="round" />
        <path
            d="M67.9236 141.204C68.1913 140.07 67.4888 138.934 66.3545 138.666C65.2202 138.398 64.0836 139.101 63.8159 140.235C63.5482 141.369 64.2507 142.506 65.385 142.773C66.5193 143.041 67.6559 142.339 67.9236 141.204Z"
            fill="white" />
        <path
            d="M74.5878 142.676C75.6646 142.23 76.1759 140.996 75.7299 139.919C75.2839 138.842 74.0494 138.331 72.9727 138.777C71.8959 139.223 71.3846 140.457 71.8306 141.534C72.2766 142.611 73.5111 143.122 74.5878 142.676Z"
            fill="white" />
        <path
            d="M83.0925 142.219C83.9166 141.395 83.9166 140.058 83.0925 139.234C82.2684 138.41 80.9322 138.41 80.1081 139.234C79.284 140.058 79.284 141.395 80.1081 142.219C80.9322 143.043 82.2684 143.043 83.0925 142.219Z"
            fill="white" />
        <path
            d="M88.1892 40.0789C90.4919 32.4855 86.2029 24.463 78.6095 22.1603C71.016 19.8575 62.9935 24.1465 60.6908 31.74C58.3881 39.3335 62.6771 47.3559 70.2705 49.6587C77.864 51.9614 85.8865 47.6724 88.1892 40.0789Z"
            fill="#36AE7C" />
        <path d="M69.2537 34.2057L74.0151 40.7404L79.3315 30.7176" stroke="white"
            stroke-width="1.39561" stroke-linecap="round" stroke-linejoin="round" />
        <path
            d="M18.7192 86.2954C18.7192 86.2954 16.0326 87.9268 16.4777 98.0312L25.9579 98.698C25.9579 98.698 23.5551 87.6147 23.5107 87.4817C23.4664 87.3487 21.6133 84.6054 18.7192 86.2954Z"
            fill="#BDD7CC" />
        <path fill-rule="evenodd" clip-rule="evenodd"
            d="M42.4268 96.3093L45.3049 95.0343C45.3049 95.0343 43.5174 85.297 38.1495 84.4813L41.4177 98.1501L42.4268 96.3093Z"
            fill="#BDD7CC" />
        <path d="M24.1332 98.0756L23.7325 91.8441" stroke="#066132" stroke-width="0.492985"
            stroke-linecap="round" stroke-linejoin="round" />
        <path d="M42.6946 95.8058L40.5134 90.6418" stroke="#066132" stroke-width="0.492985"
            stroke-linecap="round" stroke-linejoin="round" />
    </g>
    <defs>
        <clipPath id="clip0_1109_6330">
            <rect width="213.652" height="193" fill="white" />
        </clipPath>
    </defs>
</svg>
