<svg width="24" height="24" viewBox="0 0 24 24" fill="none" xmlns="http://www.w3.org/2000/svg">
    <path fill-rule="evenodd" clip-rule="evenodd" d="M11.7442 1.42731C11.9027 1.33673 12.0973 1.33673 12.2558 1.42731L22.7558 7.42731C22.9165 7.51912 23.0156 7.68996 23.0156 7.875V10.125C23.0156 10.4098 22.7848 10.6406 22.5 10.6406H1.5C1.21523 10.6406 0.984375 10.4098 0.984375 10.125V7.875C0.984375 7.68996 1.08352 7.51912 1.24418 7.42731L11.7442 1.42731ZM2.01562 8.17423V9.60938H21.9844V8.17423L12 2.46887L2.01562 8.17423Z" fill="#EB2227"/>
    <path fill-rule="evenodd" clip-rule="evenodd" d="M15 11.8594C15.2848 11.8594 15.5156 12.0902 15.5156 12.375V19.875C15.5156 20.1598 15.2848 20.3906 15 20.3906C14.7152 20.3906 14.4844 20.1598 14.4844 19.875V12.375C14.4844 12.0902 14.7152 11.8594 15 11.8594Z" fill="#217B56"/>
    <path fill-rule="evenodd" clip-rule="evenodd" d="M6 11.8594C6.28477 11.8594 6.51562 12.0902 6.51562 12.375V19.875C6.51562 20.1598 6.28477 20.3906 6 20.3906C5.71523 20.3906 5.48438 20.1598 5.48438 19.875V12.375C5.48438 12.0902 5.71523 11.8594 6 11.8594Z" fill="#217B56"/>
    <path fill-rule="evenodd" clip-rule="evenodd" d="M3 11.8594C3.28477 11.8594 3.51562 12.0902 3.51562 12.375V19.875C3.51562 20.1598 3.28477 20.3906 3 20.3906C2.71523 20.3906 2.48438 20.1598 2.48438 19.875V12.375C2.48438 12.0902 2.71523 11.8594 3 11.8594Z" fill="#217B56"/>
    <path fill-rule="evenodd" clip-rule="evenodd" d="M9 11.8594C9.28477 11.8594 9.51562 12.0902 9.51562 12.375V19.875C9.51562 20.1598 9.28477 20.3906 9 20.3906C8.71523 20.3906 8.48438 20.1598 8.48438 19.875V12.375C8.48438 12.0902 8.71523 11.8594 9 11.8594Z" fill="#217B56"/>
    <path fill-rule="evenodd" clip-rule="evenodd" d="M12 11.8594C12.2848 11.8594 12.5156 12.0902 12.5156 12.375V19.875C12.5156 20.1598 12.2848 20.3906 12 20.3906C11.7152 20.3906 11.4844 20.1598 11.4844 19.875V12.375C11.4844 12.0902 11.7152 11.8594 12 11.8594Z" fill="#217B56"/>
    <path fill-rule="evenodd" clip-rule="evenodd" d="M18 11.8594C18.2848 11.8594 18.5156 12.0902 18.5156 12.375V19.875C18.5156 20.1598 18.2848 20.3906 18 20.3906C17.7152 20.3906 17.4844 20.1598 17.4844 19.875V12.375C17.4844 12.0902 17.7152 11.8594 18 11.8594Z" fill="#217B56"/>
    <path fill-rule="evenodd" clip-rule="evenodd" d="M21 11.8594C21.2848 11.8594 21.5156 12.0902 21.5156 12.375V19.875C21.5156 20.1598 21.2848 20.3906 21 20.3906C20.7152 20.3906 20.4844 20.1598 20.4844 19.875V12.375C20.4844 12.0902 20.7152 11.8594 21 11.8594Z" fill="#217B56"/>
    <path fill-rule="evenodd" clip-rule="evenodd" d="M12 5.39062C11.4563 5.39062 11.0156 5.83134 11.0156 6.375C11.0156 6.91866 11.4563 7.35938 12 7.35938C12.5437 7.35938 12.9844 6.91866 12.9844 6.375C12.9844 5.83134 12.5437 5.39062 12 5.39062ZM9.98438 6.375C9.98438 5.2618 10.8868 4.35938 12 4.35938C13.1132 4.35938 14.0156 5.2618 14.0156 6.375C14.0156 7.4882 13.1132 8.39062 12 8.39062C10.8868 8.39062 9.98438 7.4882 9.98438 6.375Z" fill="#EB2227"/>
    <path fill-rule="evenodd" clip-rule="evenodd" d="M0.984375 19.875C0.984375 19.5902 1.21523 19.3594 1.5 19.3594H22.5C22.7848 19.3594 23.0156 19.5902 23.0156 19.875V22.5C23.0156 22.7848 22.7848 23.0156 22.5 23.0156H1.5C1.21523 23.0156 0.984375 22.7848 0.984375 22.5V19.875ZM2.01562 20.3906V21.9844H21.9844V20.3906H2.01562Z" fill="#217B56"/>
</svg>
