<svg width="215" height="158" viewBox="0 0 215 158" fill="none" xmlns="http://www.w3.org/2000/svg">
<g clip-path="url(#clip0_461_2740)">
<path d="M104.885 154.7C124.782 154.7 140.912 153.875 140.912 152.858C140.912 151.84 124.782 151.015 104.885 151.015C84.9873 151.015 68.8574 151.84 68.8574 152.858C68.8574 153.875 84.9873 154.7 104.885 154.7Z" fill="#F2F2F2"/>
<path fill-rule="evenodd" clip-rule="evenodd" d="M75.4566 30.3553C75.4566 30.3553 48.8078 33.8517 41.6549 57.841C34.502 81.8304 34.522 98.7456 55.3852 111.216C76.2485 123.687 98.494 98.1114 118.35 110.306C138.206 122.5 164.871 70.2404 146.294 53.4152C127.716 36.59 75.4566 30.3553 75.4566 30.3553Z" fill="#E9F2EE"/>
<path fill-rule="evenodd" clip-rule="evenodd" d="M149.528 11.7939C114.708 26.4287 113.17 -1.01324 85.2298 0.0287938C84.7932 0.0450561 84.3629 0.0500598 83.9413 0.0925919C66.9035 1.81264 66.5908 18.0349 69.4029 24.5097C71.5533 29.461 75.4024 33.4827 80.171 36.0134L111.68 105.596L107.05 114.013L123.711 129.738C132.479 138.013 145.599 139.912 156.206 134.18C156.427 134.061 156.645 133.94 156.861 133.817C176.969 122.375 169.743 85.8296 189.463 66.1949C209.183 46.5626 184.348 -2.84087 149.528 11.7939Z" fill="#E9F2EE"/>
<path d="M27.2453 16.3049C28.5623 15.7674 29.1941 14.264 28.6566 12.947C28.119 11.6301 26.6156 10.9982 25.2986 11.5358C23.9817 12.0734 23.3498 13.5768 23.8874 14.8937C24.425 16.2107 25.9284 16.8425 27.2453 16.3049Z" stroke="#217B56" stroke-width="0.750565" stroke-miterlimit="10" stroke-linecap="round" stroke-linejoin="round"/>
<path d="M159.095 98.4301C160.41 97.8857 161.034 96.379 160.489 95.0647C159.945 93.7505 158.438 93.1264 157.124 93.6708C155.81 94.2152 155.185 95.7219 155.73 97.0362C156.274 98.3504 157.781 98.9745 159.095 98.4301Z" stroke="#217B56" stroke-width="0.750565" stroke-miterlimit="10" stroke-linecap="round" stroke-linejoin="round"/>
<path d="M157.175 30.4091L138.974 30.3553L138.955 81.3613C160.43 82.2907 165.207 55.0577 166.212 40.0251C166.561 34.8099 162.403 30.3979 157.175 30.4091ZM156.502 45.7344C155.859 55.3504 152.803 72.7723 139.065 72.1781L139.076 39.5485L150.72 39.5823C154.065 39.5748 156.725 42.3982 156.502 45.7344Z" fill="#E69A02"/>
<path d="M113.494 88.9176L95.4492 88.957L95.5411 131.034L113.586 130.994L113.494 88.9176Z" fill="#E69A02"/>
<path d="M113.537 112.42C113.544 115.487 95.4912 107.614 95.4849 104.546L95.4512 88.957L113.496 88.9182L113.537 112.42Z" fill="#BA7D02"/>
<path d="M68.8741 30.508L50.6729 30.6406C45.4452 30.6519 41.3071 35.0827 41.6773 40.2966C42.7469 55.3242 47.6431 82.5359 69.1143 81.5127L68.8741 30.508ZM51.4134 45.9634C51.1757 42.6271 53.824 39.7937 57.1678 39.7862L68.8115 39.7012L68.9654 72.3307C55.23 72.985 52.0977 55.5769 51.4134 45.9634Z" fill="#E69A02"/>
<path d="M105.023 105.059L103.087 105.063C83.0366 105.107 66.7481 88.8882 66.7043 68.8393L66.6055 23.5114C66.603 22.4619 67.4524 21.6088 68.5019 21.6063L139.243 21.4524C140.292 21.4499 141.145 22.2993 141.148 23.3488L141.247 68.6767C141.29 88.7268 125.073 105.015 105.023 105.059Z" fill="#FFCE54"/>
<path d="M118.785 77.0488C127.082 68.7523 127.082 55.301 118.785 47.0045C110.489 38.7079 97.0374 38.7079 88.7409 47.0045C80.4444 55.301 80.4444 68.7523 88.7409 77.0488C97.0374 85.3453 110.489 85.3453 118.785 77.0488Z" fill="white"/>
<path d="M82.6543 61.5751C82.6293 49.8426 92.119 40.3104 103.853 40.2841C109.451 40.2716 114.548 42.4257 118.351 45.9571" stroke="#3B1F05" stroke-width="0.750565" stroke-miterlimit="10" stroke-linecap="round" stroke-linejoin="round"/>
<path d="M104.514 46.2673L108.804 54.9126C108.93 55.1678 109.174 55.3441 109.457 55.3842L119.01 56.7515C119.721 56.8528 120.006 57.7247 119.493 58.2276L112.597 64.9789C112.393 65.1778 112.3 65.4655 112.349 65.7457L114.002 75.2541C114.124 75.9609 113.384 76.5026 112.747 76.1698L104.194 71.6977C103.942 71.5651 103.64 71.5664 103.389 71.699L94.856 76.2086C94.2217 76.5439 93.4787 76.006 93.5975 75.2992L95.2087 65.7833C95.2563 65.5018 95.1624 65.2166 94.9585 65.0177L88.0333 58.2964C87.5179 57.7972 87.8006 56.9228 88.5099 56.819L98.0571 55.4104C98.3386 55.3692 98.5825 55.1915 98.7076 54.9351L102.96 46.2711C103.279 45.6256 104.195 45.6243 104.514 46.2673Z" fill="#EB2227"/>
<path d="M93.1913 76.31L94.8025 66.7941C94.85 66.5126 94.7562 66.2274 94.5523 66.0285L87.6271 59.3072C87.1117 58.8081 87.3944 57.9337 88.1037 57.8298L97.6509 56.4213C97.9323 56.38 98.1763 56.2024 98.3014 55.9459L102.553 47.2819C102.87 46.6377 103.787 46.6352 104.106 47.2781L108.395 55.9234" stroke="#012545" stroke-width="0.436829" stroke-miterlimit="10" stroke-linecap="round" stroke-linejoin="round"/>
<path d="M132.022 138.003L77.1379 138.123C76.8289 138.124 76.5774 137.874 76.5762 137.564C76.5649 132.35 80.7831 128.113 85.997 128.101L123.119 128.02C128.333 128.009 132.57 132.227 132.581 137.441C132.581 137.75 132.331 138.001 132.022 138.003Z" fill="#FFCE54"/>
<path d="M82.5664 135.312C83.995 133.649 86.1116 132.594 88.4759 132.589L119.189 132.521" stroke="white" stroke-width="0.543297" stroke-miterlimit="10" stroke-linecap="round" stroke-linejoin="round"/>
<path d="M132.582 137.441L76.5781 137.564L76.6116 152.908L132.615 152.786L132.582 137.441Z" fill="#FFCE54"/>
<path d="M95.4844 104.547C95.4844 104.547 106.981 106.309 113.529 104.036" stroke="#3B1F05" stroke-width="0.750565" stroke-miterlimit="10" stroke-linecap="round" stroke-linejoin="round"/>
<path d="M71.7461 25.1239V66.111" stroke="white" stroke-width="0.543297" stroke-miterlimit="10" stroke-linecap="round" stroke-linejoin="round"/>
<path d="M141.166 30.3553V39.5473" stroke="#3B1F05" stroke-width="0.750565" stroke-miterlimit="10" stroke-linecap="round" stroke-linejoin="round"/>
<path d="M141.164 72.1205C141.164 72.1205 140.659 78.8506 138.955 81.3613" stroke="#3B1F05" stroke-width="0.750565" stroke-miterlimit="10" stroke-linecap="round" stroke-linejoin="round"/>
<path d="M66.5117 30.3553V39.5473" stroke="#3B1F05" stroke-width="0.750565" stroke-miterlimit="10" stroke-linecap="round" stroke-linejoin="round"/>
<path d="M66.5117 72.1205C66.5117 72.1205 67.0171 78.8506 68.7209 81.3613" stroke="#3B1F05" stroke-width="0.750565" stroke-miterlimit="10" stroke-linecap="round" stroke-linejoin="round"/>
<path d="M110.43 150.346L129.414 150.148V136.005" stroke="#3B1F05" stroke-width="0.750565" stroke-miterlimit="10" stroke-linecap="round" stroke-linejoin="round"/>
<path d="M147.884 149.353C148.406 148.475 148.116 147.34 147.237 146.818C146.358 146.297 145.223 146.586 144.702 147.465C144.181 148.344 144.47 149.479 145.349 150C146.228 150.522 147.363 150.232 147.884 149.353Z" fill="#F2F2F2"/>
<path fill-rule="evenodd" clip-rule="evenodd" d="M180.393 66.2812L183.793 72.7348C184.677 74.9377 183.378 77.4083 181.061 77.9274C180.148 78.1313 179.241 77.5659 179.022 76.6565L174.777 64.3635L180.393 66.2812Z" fill="#BDD7CC"/>
<path fill-rule="evenodd" clip-rule="evenodd" d="M180.394 66.2811C178.479 67.2456 176.346 66.9466 174.98 64.8701L170.504 53.5753L173.486 54.4185L177.719 61.4262L180.394 66.2811Z" fill="#F9D1BD"/>
<path d="M173.485 54.4184L172.27 52.5683C172.028 52.198 171.66 51.9278 171.234 51.8065L169.513 51.3124C168.913 51.1397 168.326 51.6213 168.376 52.2431L170.034 54.481C170.399 54.9751 170.973 55.3366 171.638 55.4943L172.749 55.757L173.485 54.4184Z" fill="#F9D1BD"/>
<path fill-rule="evenodd" clip-rule="evenodd" d="M201.246 69.7038C200.945 69.4361 200.809 69.0358 200.807 68.633C200.802 65.3617 196.448 66.2349 194.988 66.2324C193.466 66.2312 193.368 63.658 190.736 64.4986C188.104 65.3392 188.229 66.9492 188.104 66.9905C187.92 67.0505 189.862 68.8469 189.862 68.8469C189.862 68.8469 191.165 68.4153 192.693 70.5419C194.22 72.6685 194.464 74.1771 196.983 74.8839C199.503 75.5907 203.112 69.6575 203.112 69.6575C202.243 70.278 201.627 70.0415 201.246 69.7038Z" fill="#191919"/>
<path d="M185.881 157.097C196.648 157.097 205.376 156.447 205.376 155.645C205.376 154.843 196.648 154.192 185.881 154.192C175.115 154.192 166.387 154.843 166.387 155.645C166.387 156.447 175.115 157.097 185.881 157.097Z" fill="#E0E0E0"/>
<path fill-rule="evenodd" clip-rule="evenodd" d="M186.238 130.682L189.831 151.947C191.524 153.244 192.462 152.29 192.485 150.343C192.666 141.924 195.145 137.535 190.963 128.654L186.238 130.682Z" fill="#F9D1BD"/>
<path fill-rule="evenodd" clip-rule="evenodd" d="M185.522 105.144L185.33 126.838C185.216 127.801 185.584 129.065 185.68 130.029L188.234 148.41L193.697 147.165C195.135 138.13 195.547 130.728 193.416 126.03L197.094 107.47L192.113 105.716L185.522 105.144Z" fill="#217B56"/>
<path fill-rule="evenodd" clip-rule="evenodd" d="M189.771 151.543L187.909 153.551C187.558 154.026 185.377 155.242 185.377 155.242C185.239 155.774 185.743 155.94 186.141 155.929L192.99 154.438C192.99 154.438 194.514 153.797 192.505 151.011C191.361 151.808 190.284 152.431 189.771 151.543Z" fill="#191919"/>
<path fill-rule="evenodd" clip-rule="evenodd" d="M167.65 122.906L161.092 143.452C162.001 145.381 163.272 144.963 164.185 143.244C168.207 135.845 172.423 133.083 172.779 123.273L167.65 122.906Z" fill="#F9D1BD"/>
<path fill-rule="evenodd" clip-rule="evenodd" d="M178.723 99.8827L168.604 119.072C168.061 119.875 167.81 121.167 167.452 122.068L161.291 139.574L166.716 140.972C172.138 133.604 175.898 127.215 176.16 122.063L187.94 107.256L184.318 103.413L178.723 99.8827Z" fill="#217B56"/>
<path fill-rule="evenodd" clip-rule="evenodd" d="M161.223 143.064L158.647 143.995C158.118 144.256 155.621 144.336 155.621 144.336C155.256 144.745 155.627 145.124 155.986 145.297L162.756 147.112C162.756 147.112 164.404 147.241 163.896 143.845C162.514 144.03 161.271 144.088 161.223 143.064Z" fill="#191919"/>
<path fill-rule="evenodd" clip-rule="evenodd" d="M193.585 92.6985L180.602 93.7156C178.191 94.6262 176.977 108.786 176.977 108.786L187.063 109.531C191.591 109.434 196.945 113.086 197.51 105.327C198.153 96.4564 193.585 92.6985 193.585 92.6985Z" fill="#217B56"/>
<path fill-rule="evenodd" clip-rule="evenodd" d="M197.569 102.93C197.569 102.93 187.475 104.367 184.275 99.9252L197.46 98.7606C197.46 98.7606 197.768 101.797 197.569 102.93Z" fill="#066132"/>
<path fill-rule="evenodd" clip-rule="evenodd" d="M180.063 76.2074C180.874 74.2547 182.723 72.9312 184.835 72.8148L184.941 72.8086L189.581 72.5221L194.676 74.3422C196.597 75.3205 197.391 77.2369 196.29 79.2947L196.328 86.5652C196.411 91.9267 197.878 95.1266 198.155 100.122C189.643 103.135 180.094 102.128 177.689 98.3378C178.235 88.9157 177.617 82.083 180.063 76.2074Z" fill="#BDD7CC"/>
<path fill-rule="evenodd" clip-rule="evenodd" d="M185 69.9151C185 69.9151 185.545 72.0705 185.997 73.8556C186.117 74.331 186.482 74.705 186.95 74.8326C187.419 74.9602 187.92 74.8238 188.259 74.4736C188.37 74.3585 188.478 74.2471 188.58 74.1421C189.046 73.6617 189.196 72.9537 188.964 72.3219C188.371 70.7045 187.293 67.7573 187.293 67.7573L185 69.9151Z" fill="#F9D1BD"/>
<path fill-rule="evenodd" clip-rule="evenodd" d="M185.199 71.1123L185.625 72.3808L186.561 70.9547L185.199 71.1123Z" fill="#EF834E"/>
<path d="M184.763 72.7623C184.763 72.7623 182.665 77.3432 185.781 77.5572C188.897 77.7711 190.911 72.9962 190.911 72.9962L188.353 72.0367L184.763 72.7623Z" fill="#F9D1BD"/>
<path fill-rule="evenodd" clip-rule="evenodd" d="M188.81 67.9174C189.059 67.3157 188.779 66.6264 188.185 66.3775C187.551 66.1123 186.75 65.777 186.115 65.5118C185.52 65.2629 184.925 65.5944 184.587 66.1511C184.188 66.8078 183.693 68.3089 183.464 69.441C183.335 70.0803 183.571 70.8171 184.166 71.066C184.8 71.3312 186.956 71.5151 187.614 70.4443C188.117 69.6274 188.444 68.8031 188.81 67.9174Z" fill="#F9D1BD"/>
<path fill-rule="evenodd" clip-rule="evenodd" d="M188.622 70.2642C189.049 70.3467 190.273 69.7 190.837 68.5967C191.322 67.6485 190.407 67.3532 189.914 66.5764C188.942 65.0453 187.399 63.9644 185.164 65.0878C185.323 67.2632 186.479 68.9882 188.622 70.2642Z" fill="#191919"/>
<path fill-rule="evenodd" clip-rule="evenodd" d="M188.481 70.5844C188.122 70.9797 187.569 71.0573 187.247 70.7583C186.924 70.4593 186.955 69.8964 187.314 69.5023C187.673 69.107 188.225 69.0295 188.547 69.3285C188.871 69.6274 188.841 70.1903 188.481 70.5844Z" fill="#F9D1BD"/>
<path fill-rule="evenodd" clip-rule="evenodd" d="M183.893 69.0895L184.935 69.5011C184.935 69.5011 184.634 70.2129 184.157 69.9552C183.68 69.6975 183.893 69.0895 183.893 69.0895Z" fill="white"/>
<path fill-rule="evenodd" clip-rule="evenodd" d="M202.079 72.9825L193.406 73.8794C191.307 73.8969 193.569 79.3535 194.36 79.2234L202.831 76.719L202.079 72.9825Z" fill="#BDD7CC"/>
<path fill-rule="evenodd" clip-rule="evenodd" d="M199.172 75.9572C200.798 77.2269 202.85 77.3883 204.557 75.8208C204.694 75.6958 204.807 75.5494 204.907 75.3955L211.347 65.423L208.863 64.9414L202.74 71.7178L199.172 75.9572Z" fill="#F9D1BD"/>
<path d="M208.984 64.8351L210.872 63.6805C211.25 63.4503 211.696 63.3627 212.133 63.434L213.901 63.723C214.516 63.8231 214.843 64.5086 214.531 65.0503L212.077 66.3663C211.535 66.6565 210.862 66.739 210.193 66.5964L209.077 66.36L208.984 64.8351Z" fill="#F9D1BD"/>
<path d="M24.7092 157.775C36.1045 157.775 45.3422 157.087 45.3422 156.238C45.3422 155.389 36.1045 154.7 24.7092 154.7C13.3139 154.7 4.07617 155.389 4.07617 156.238C4.07617 157.087 13.3139 157.775 24.7092 157.775Z" fill="#E0E0E0"/>
<path d="M34.9981 146.914L30.5098 147.605L31.862 153.109C31.8683 153.16 31.9183 153.202 31.9771 153.205C32.8991 153.262 33.8223 153.312 34.7442 153.354C35.0144 153.367 35.3109 153.372 35.5185 153.225L34.9981 146.914Z" fill="#F9D1BD"/>
<path d="M31.3402 155.932C31.3365 156.373 33.3817 156.395 36.1826 156.395C37.0808 156.395 39.5564 156.423 39.5589 156.098C39.6127 154.456 37.5499 156.011 35.4746 152.32C34.4025 152.875 32.5198 152.934 31.5141 152.151C31.5316 152.151 31.1976 154.651 31.3402 155.932Z" fill="#191919"/>
<path d="M14.1101 104.381C15.3248 102.939 20.3723 102.265 20.8965 104.23C21.9835 108.307 25.0296 133.877 27.8329 150.991C31.1567 151.173 32.8605 149.943 38.0219 149.75C34.9971 131.286 35.5438 113.25 32.2388 93.0814C27.0649 93.5755 23.5272 93.1602 18.3533 93.6543C17.8066 93.7068 15.5875 94.6838 15.2022 95.0466C14.7406 95.4807 14.6931 96.2125 14.7143 96.8817C14.8006 99.4937 12.6202 102.148 14.1101 104.381Z" fill="#217B56"/>
<path d="M23.9851 103.362C25.0722 107.438 28.1182 133.009 30.9216 150.123C33.3859 150.258 30.9341 151.173 27.6116 150.991C24.8082 133.877 21.7622 108.307 20.6751 104.23C20.151 102.266 23.6036 101.932 23.9851 103.362Z" fill="#066132"/>
<path d="M38.7075 60.817L38.0758 58.5553C37.9495 58.1037 37.6668 57.7147 37.2802 57.4608L35.4663 58.155L35.2324 59.8363C35.4426 60.453 35.9029 60.9972 36.5209 61.3612L37.5504 61.9666L38.7075 60.817Z" fill="#F9D1BD"/>
<path d="M11.8965 146.943C11.914 146.962 11.9328 146.981 12.1479 147.176C12.283 149.332 12.4194 151.488 12.5545 153.644C13.5077 153.713 14.4622 153.772 15.4166 153.822C15.6856 153.836 15.9821 153.842 16.1985 153.674L16.9353 146.668L11.8965 146.943Z" fill="#F9D1BD"/>
<path d="M7.88217 92.2632C8.56768 111.184 9.25445 130.114 10.618 149.372C12.8584 148.539 14.1406 150.832 17.6871 149.793C18.8892 149.44 20.1301 150.118 20.1301 150.118C20.4842 149.804 20.4304 146.379 20.4691 145.9C21.1371 137.774 21.0096 132.438 19.8587 124.3C20.1752 111.494 21.1246 102.795 20.5067 92.2857C15.8332 92.0818 12.6295 92.5847 7.95597 92.4959C7.88717 92.4959 7.81962 92.4959 7.75082 92.4959C7.68452 92.5422 7.61822 92.5872 7.88217 92.2632Z" fill="#217B56"/>
<path d="M7.41797 99.5512C8.15728 100.912 8.89658 102.273 9.63714 103.634C9.68217 103.718 9.73847 103.809 9.83104 103.831C9.93737 103.854 10.0399 103.778 10.1238 103.707C10.5866 103.313 11.0482 102.92 11.5111 102.526C12.0552 102.063 12.6507 101.488 12.6069 100.787C12.5681 100.165 12.0377 99.7176 11.5473 99.3423C10.8581 98.8144 10.1688 98.2865 9.47952 97.7599C9.26686 97.5972 8.99916 97.4259 8.74522 97.5297C8.56383 97.6035 8.46125 97.7949 8.37369 97.97C8.05595 98.6105 7.73821 99.251 7.41797 99.5512Z" fill="#F9D1BD"/>
<path d="M18.4128 66.8829C16.8129 66.9779 13.1376 67.5721 11.6052 68.075C10.0728 68.5779 8.61296 69.5411 7.84988 70.9684C7.1431 72.2894 7.10557 73.8381 7.08431 75.3192C6.97548 82.8837 6.86664 90.4481 6.75781 98.0126C15.0953 99.1909 23.6568 99.0346 32.0206 97.5522C33.1402 97.3533 34.3673 97.0643 35.0529 96.1437C35.6821 95.298 35.6671 94.1659 35.6108 93.1301C35.2605 86.5664 34.4049 80.044 33.0564 73.6392C32.7511 72.1906 32.5385 70.5957 31.544 69.5161C28.1777 65.8596 23.309 66.7227 23.309 66.7227C21.9055 68.6505 19.5762 68.4428 18.4128 66.8829Z" fill="#BDD7CC"/>
<path d="M8.30252 70.3792C2.32677 76.7666 -0.00748762 84.8939 1.80371e-05 93.4766C1.75009 97.1532 4.50716 100.322 7.89972 102.558C8.18118 102.221 8.46264 101.882 8.7441 101.544C9.75862 100.326 10.7731 99.1059 11.7876 97.8875C8.43387 93.8206 7.33804 87.9775 8.96302 82.8411C10.5067 77.9625 14.2332 73.9582 15.5267 69.0295C15.5067 69.1095 15.4867 69.1896 15.4667 69.2697L8.30252 70.3792Z" fill="#BDD7CC"/>
<path d="M9.09273 77.746C9.49678 80.6707 8.5223 80.9322 7.23633 84.2684C6.58083 85.9685 6.14551 87.7999 6.3394 89.5887C6.66965 92.646 8.92135 95.0466 11.058 97.2119" stroke="#066132" stroke-width="0.500377" stroke-miterlimit="10" stroke-linecap="round" stroke-linejoin="round"/>
<path fill-rule="evenodd" clip-rule="evenodd" d="M12.3936 152.414L10.6873 154.064C10.2044 154.498 7.59745 155.342 7.59745 155.342C7.3285 155.881 7.82762 156.165 8.25294 156.236L15.8962 156.076C15.8962 156.076 17.8302 155.767 16.3353 152.367C14.933 152.981 12.7351 153.472 12.3936 152.414Z" fill="#191919"/>
<path d="M9.06836 103.947C9.06836 103.947 12.0494 103.161 12.9275 100.297" stroke="#A39287" stroke-width="0.280799" stroke-miterlimit="10" stroke-linecap="round" stroke-linejoin="round"/>
<path d="M23.4027 66.6827C23.4027 66.6827 23.1775 73.5041 19.9413 72.9912C16.7051 72.4771 16.2285 67.0267 16.2285 67.0267L18.8793 66.6915L23.4027 66.6827Z" fill="#F9D1BD"/>
<path d="M22.3379 102.471H25.8068" stroke="#066132" stroke-width="0.280799" stroke-miterlimit="10" stroke-linecap="round" stroke-linejoin="round"/>
<path fill-rule="evenodd" clip-rule="evenodd" d="M22.0186 61.2236C22.0186 61.2236 23.3709 59.2196 21.0354 57.6496C18.6999 56.0785 19.0527 60.5606 19.1277 60.6081C19.2015 60.6544 22.0186 61.2236 22.0186 61.2236Z" fill="#191919"/>
<path fill-rule="evenodd" clip-rule="evenodd" d="M15.8613 62.4345C15.8613 62.4345 16.4868 64.6712 18.2118 64.456C19.9356 64.2409 19.1913 59.2984 19.1913 59.2984L15.8613 62.4345Z" fill="#191919"/>
<path fill-rule="evenodd" clip-rule="evenodd" d="M21.4248 62.746C21.4248 62.746 21.6437 65.2416 21.8251 67.3082C21.8738 67.8586 21.5836 68.3915 21.0657 68.7018C20.5478 69.012 19.8848 69.052 19.3282 68.8056C19.1468 68.7255 18.9692 68.6467 18.8015 68.5716C18.0397 68.2339 17.5681 67.5359 17.5906 66.7778C17.6494 64.8363 17.7545 61.2999 17.7545 61.2999L21.4248 62.746Z" fill="#F9D1BD"/>
<path fill-rule="evenodd" clip-rule="evenodd" d="M21.7279 64.3209L21.6866 65.7445L20.0078 64.6587L21.7279 64.3209Z" fill="#633C1D"/>
<path fill-rule="evenodd" clip-rule="evenodd" d="M16.7436 60.5844C16.5046 59.8901 16.8662 59.1345 17.5517 58.8943C18.2835 58.6391 19.2067 58.3164 19.9385 58.06C20.624 57.8198 21.2707 58.2338 21.6135 58.8818C22.0175 59.6474 22.4729 61.3687 22.653 62.6584C22.7543 63.3852 22.4391 64.1983 21.7536 64.4385C21.0218 64.6937 18.585 64.755 17.917 63.5053C17.4078 62.5533 17.0963 61.6051 16.7436 60.5844Z" fill="#F9D1BD"/>
<path fill-rule="evenodd" clip-rule="evenodd" d="M15.5734 62.9324C15.5734 62.9324 14.7015 60.2341 15.5922 59.002C16.7881 57.347 18.5969 56.2349 21.0338 57.6484C21.0338 57.6484 22.3335 58.1538 18.6395 59.3222C18.1704 59.4698 19.2662 61.6489 18.6933 61.9567C17.9189 62.3707 16.9044 62.7172 15.5734 62.9324Z" fill="#191919"/>
<path fill-rule="evenodd" clip-rule="evenodd" d="M16.9321 63.6054C17.3099 64.0733 17.9254 64.1984 18.3081 63.8844C18.6909 63.5704 18.6947 62.9362 18.3182 62.4671C17.9404 61.9992 17.3249 61.8741 16.9421 62.1881C16.5593 62.5033 16.5556 63.1376 16.9321 63.6054Z" fill="#F9D1BD"/>
<path fill-rule="evenodd" clip-rule="evenodd" d="M22.124 62.1743L20.6191 62.5796C20.6191 62.5796 20.9156 63.4853 21.6174 63.2151C22.3192 62.9436 22.124 62.1743 22.124 62.1743Z" fill="white"/>
<path d="M28.1016 67.3295L37.5762 70.318L35.9625 61.3312L38.8859 59.6687C38.8859 59.6687 45.7073 73.4153 44.4426 75.1754C41.6618 79.047 28.9622 75.6095 28.9622 75.6095L28.1016 67.3295Z" fill="#BDD7CC"/>
<path d="M185.565 109.633L185.306 105.921L183.883 105.427" stroke="#066132" stroke-width="0.500377" stroke-miterlimit="10" stroke-linecap="round" stroke-linejoin="round"/>
<path d="M33.589 76.31L30.1914 74.9915" stroke="#066132" stroke-width="0.500377" stroke-miterlimit="10" stroke-linecap="round" stroke-linejoin="round"/>
</g>
<defs>
<clipPath id="clip0_461_2740">
<rect width="214.653" height="157.774" fill="white"/>
</clipPath>
</defs>
</svg>
