<svg width="194" height="157" viewBox="0 0 194 157" fill="none" xmlns="http://www.w3.org/2000/svg">
<g clip-path="url(#clip0_3519_7601)">
<path d="M0.682092 81.7875C-1.60486 61.5003 -0.49664 14.1115 42.4659 1.78935C89.2254 -11.6211 111.028 54.8789 130.623 50.5232C130.623 50.5232 171.165 40.6663 176.381 83.9827C181.598 127.299 121.743 146.006 61.1873 138.989C33.0108 135.726 4.06263 111.768 0.682092 81.7875Z" fill="#F4F8F7"/>
<path d="M181.438 43.8872H79.2172C75.4354 43.8872 72.3696 46.953 72.3696 50.7348V108.418C72.3696 112.2 75.4354 115.266 79.2172 115.266H181.438C185.22 115.266 188.286 112.2 188.286 108.418V50.7348C188.286 46.953 185.22 43.8872 181.438 43.8872Z" fill="#BDD7CC"/>
<path d="M179.537 62.5926H82.9581C81.3174 62.5926 79.9873 63.9227 79.9873 65.5634V68.0246C79.9873 69.6653 81.3174 70.9954 82.9581 70.9954H179.537C181.178 70.9954 182.508 69.6653 182.508 68.0246V65.5634C182.508 63.9227 181.178 62.5926 179.537 62.5926Z" fill="#EFF1F7"/>
<path d="M188.286 90.8369H72.3696V100.643H188.286V90.8369Z" fill="#4D9578"/>
<path d="M113.084 156.07C150.055 156.07 180.026 153.886 180.026 151.19C180.026 148.495 150.055 146.311 113.084 146.311C76.1134 146.311 46.1426 148.495 46.1426 151.19C46.1426 153.886 76.1134 156.07 113.084 156.07Z" fill="#E9F2EE"/>
<path d="M165.297 80.71H64.3659C60.6311 80.71 57.6035 83.7376 57.6035 87.4724V144.427C57.6035 148.162 60.6311 151.189 64.3659 151.189H165.297C169.031 151.189 172.059 148.162 172.059 144.427V87.4724C172.059 83.7376 169.031 80.71 165.297 80.71Z" fill="#066132"/>
<path d="M163.268 80.71H62.3371C58.6023 80.71 55.5747 83.7376 55.5747 87.4724V144.427C55.5747 148.162 58.6023 151.189 62.3371 151.189H163.268C167.003 151.189 170.03 148.162 170.03 144.427V87.4724C170.03 83.7376 167.003 80.71 163.268 80.71Z" fill="#217B56"/>
<path d="M81.0895 106.864C84.7684 103.185 84.7684 97.2199 81.0895 93.5409C77.4105 89.862 71.4458 89.862 67.7668 93.5409C64.0878 97.2199 64.0878 103.185 67.7668 106.864C71.4458 110.543 77.4105 110.543 81.0895 106.864Z" fill="#066132"/>
<path d="M152.849 100.203H134.361C130.966 100.203 128.214 102.955 128.214 106.349V113.097C128.214 116.492 130.966 119.244 134.361 119.244H152.849C156.244 119.244 158.996 116.492 158.996 113.097V106.349C158.996 102.955 156.244 100.203 152.849 100.203Z" fill="#066132"/>
<path d="M95.3243 140.39H66.1034C65.4973 140.39 65.0059 140.882 65.0059 141.488V142.398C65.0059 143.004 65.4973 143.495 66.1034 143.495H95.3243C95.9305 143.495 96.4219 143.004 96.4219 142.398V141.488C96.4219 140.882 95.9305 140.39 95.3243 140.39Z" fill="#066132"/>
<path d="M157.897 140.39H128.676C128.07 140.39 127.578 140.882 127.578 141.488V142.398C127.578 143.004 128.07 143.495 128.676 143.495H157.897C158.503 143.495 158.994 143.004 158.994 142.398V141.488C158.994 140.882 158.503 140.39 157.897 140.39Z" fill="#066132"/>
<path d="M157.897 90.5815H128.676C128.07 90.5815 127.578 91.0729 127.578 91.6791V92.5891C127.578 93.1952 128.07 93.6866 128.676 93.6866H157.897C158.503 93.6866 158.994 93.1952 158.994 92.5891V91.6791C158.994 91.0729 158.503 90.5815 157.897 90.5815Z" fill="#066132"/>
<path d="M81.6518 127.211H67.201C65.9887 127.211 65.0059 128.194 65.0059 129.407V131.225C65.0059 132.438 65.9887 133.42 67.201 133.42H81.6518C82.8642 133.42 83.847 132.438 83.847 131.225V129.407C83.847 128.194 82.8642 127.211 81.6518 127.211Z" fill="#066132"/>
<path d="M106.807 127.211H92.3563C91.1439 127.211 90.1611 128.194 90.1611 129.407V131.225C90.1611 132.438 91.1439 133.42 92.3563 133.42H106.807C108.019 133.42 109.002 132.438 109.002 131.225V129.407C109.002 128.194 108.019 127.211 106.807 127.211Z" fill="#066132"/>
<path d="M131.962 127.211H117.512C116.299 127.211 115.316 128.194 115.316 129.407V131.225C115.316 132.438 116.299 133.42 117.512 133.42H131.962C133.175 133.42 134.158 132.438 134.158 131.225V129.407C134.158 128.194 133.175 127.211 131.962 127.211Z" fill="#066132"/>
<path d="M157.117 127.211H142.666C141.454 127.211 140.471 128.194 140.471 129.407V131.225C140.471 132.438 141.454 133.42 142.666 133.42H157.117C158.329 133.42 159.312 132.438 159.312 131.225V129.407C159.312 128.194 158.329 127.211 157.117 127.211Z" fill="#066132"/>
<path d="M41.374 156.4C53.8679 156.4 63.9961 155.646 63.9961 154.715C63.9961 153.784 53.8679 153.029 41.374 153.029C28.8802 153.029 18.752 153.784 18.752 154.715C18.752 155.646 28.8802 156.4 41.374 156.4Z" fill="#E9F2EE"/>
<path fill-rule="evenodd" clip-rule="evenodd" d="M43.3922 151.829C43.3922 151.829 39.0445 133.125 42.1017 125.341L38.0493 99.8197L50.0841 99.6867L46.1368 151.76L43.3922 151.829Z" fill="#E3633D"/>
<path fill-rule="evenodd" clip-rule="evenodd" d="M46.1422 151.053L48.4651 152.871C48.9174 153.316 51.4452 154.237 51.4452 154.237C51.6806 154.779 51.1791 155.042 50.748 155.098L43.214 154.677C43.214 154.677 41.4845 154.254 43.1461 150.952C44.4978 151.606 45.7484 152.084 46.1422 151.053Z" fill="#2E203D"/>
<path fill-rule="evenodd" clip-rule="evenodd" d="M51.2387 103.638L50.2116 125.608L48.3145 147.703L39.5551 148.405C39.5551 148.405 40.0687 144.546 39.8758 143.349C39.6829 142.152 38.4509 130.77 40.7006 125.308L38.7769 103.947L51.2387 103.638Z" fill="#217B56"/>
<path fill-rule="evenodd" clip-rule="evenodd" d="M40.6394 125.312L38.7144 103.952L42.8905 103.847L44.302 119.488C44.5472 122.432 44.4162 125.395 43.9122 128.305C42.9477 134.115 43.8138 142.035 43.9721 143.021C44.1663 144.218 43.6515 148.076 43.6515 148.076L39.4953 148.409C39.4953 148.409 40.0102 144.55 39.8173 143.353C39.6243 142.156 38.3897 130.778 40.6394 125.312Z" fill="#066132"/>
<path d="M44.0639 41.1506C24.3381 32.9194 5.96793 55.5481 14.6514 73.1506" stroke="#217B56" stroke-width="0.532159" stroke-linecap="round" stroke-linejoin="round" stroke-dasharray="4.28 4.28"/>
<path d="M70.5455 15.2251C72.1032 15.2251 73.366 13.9624 73.366 12.4047C73.366 10.847 72.1032 9.58423 70.5455 9.58423C68.9879 9.58423 67.7251 10.847 67.7251 12.4047C67.7251 13.9624 68.9879 15.2251 70.5455 15.2251Z" stroke="#217B56" stroke-width="0.798239" stroke-miterlimit="10" stroke-linecap="round"/>
<path d="M190.78 134.993C192.338 134.993 193.601 133.73 193.601 132.172C193.601 130.615 192.338 129.352 190.78 129.352C189.223 129.352 187.96 130.615 187.96 132.172C187.96 133.73 189.223 134.993 190.78 134.993Z" stroke="#217B56" stroke-width="0.798239" stroke-miterlimit="10" stroke-linecap="round"/>
<path d="M68.3623 64.6693C76.5468 64.6693 83.1816 58.0345 83.1816 49.85C83.1816 41.6655 76.5468 35.0307 68.3623 35.0307C60.1778 35.0307 53.543 41.6655 53.543 49.85C53.543 58.0345 60.1778 64.6693 68.3623 64.6693Z" fill="#EB2227"/>
<path d="M76.0811 37.1979C78.6351 38.7558 80.6579 41.05 81.8835 43.7791C83.1091 46.5081 83.4801 49.5442 82.9477 52.4881C82.4153 55.432 81.0045 58.1458 78.9007 60.2728C76.797 62.3998 74.0988 63.8403 71.1609 64.4049C68.2231 64.9696 65.1831 64.6319 62.4407 63.4364C59.6984 62.2408 57.3821 60.2433 55.7963 57.7065C54.2106 55.1698 53.4297 52.2125 53.5562 49.2235C53.6828 46.2346 54.711 43.3539 56.5056 40.9603" stroke="#274363" stroke-width="0.645243" stroke-linecap="round" stroke-linejoin="round"/>
<path d="M66.3682 35.1651C68.515 34.8768 70.6989 35.0583 72.7687 35.6973" stroke="#274363" stroke-width="0.645243" stroke-linecap="round" stroke-linejoin="round"/>
<path fill-rule="evenodd" clip-rule="evenodd" d="M36.4367 93.4033L36.2531 124.911L35.105 151.644L32.6092 151.74C31.0819 142.194 25.9572 135.243 28.5169 123.691L27.418 102.175L31.5302 94.4436L36.4367 93.4033Z" fill="#C95836"/>
<path fill-rule="evenodd" clip-rule="evenodd" d="M37.1912 93.2423L37.0768 125.606L36.8692 148.023C36.88 148.352 36.7603 148.673 36.5361 148.914C36.3118 149.156 36.0013 149.299 35.6719 149.313L31.0261 149.446C30.7791 149.452 30.5389 149.365 30.3539 149.201C30.169 149.037 30.0531 148.809 30.0296 148.563C29.8221 146.534 29.3511 143.96 29.0984 142.786C27.8372 137.056 26.5866 133.976 27.4287 123.967L26.1436 101.814L31.5303 94.4437L37.1912 93.2423Z" fill="#217B56"/>
<path fill-rule="evenodd" clip-rule="evenodd" d="M30.3329 86.9854L45.0631 87.6067C49.1355 95.174 48.4091 104.619 48.4091 104.619L37.5623 105.119C32.5454 105.014 26.6105 108.948 25.9879 100.595C25.2774 91.0338 30.3329 86.9854 30.3329 86.9854Z" fill="#217B56"/>
<path fill-rule="evenodd" clip-rule="evenodd" d="M35.1224 151.375C35.1224 151.375 36.3477 153.543 36.7828 154.897C36.8187 155.008 36.8279 155.127 36.8097 155.242C36.7914 155.358 36.7462 155.467 36.6777 155.562C36.6087 155.656 36.5177 155.731 36.4128 155.78C36.3079 155.83 36.1924 155.854 36.0763 155.848L34.6249 155.782C34.3979 155.77 34.1808 155.685 34.0062 155.54C33.9011 155.452 33.7734 155.345 33.6377 155.235C33.0244 154.725 32.745 154.16 32.737 153.372C32.7221 152.796 32.6777 152.221 32.604 151.649C33.5433 150.698 35.1224 151.375 35.1224 151.375Z" fill="#2E203D"/>
<path d="M61.6504 78.5733L60.7031 79.7347C60.3746 80.1375 59.9124 80.4089 59.4007 80.4997L57.3279 80.8669C57.1608 80.8966 56.989 80.8854 56.8272 80.8342C56.6654 80.783 56.5184 80.6933 56.3989 80.5729C56.2793 80.4524 56.1908 80.3047 56.1408 80.1425C56.0908 79.9803 56.0809 79.8084 56.1119 79.6416V79.6416L58.488 77.9826C58.9763 77.4504 60.7803 77.034 61.5785 76.9302C61.79 77.1476 61.9142 77.4351 61.9274 77.7381C61.9406 78.041 61.842 78.3383 61.6504 78.5733V78.5733Z" fill="#F9D1BD"/>
<path fill-rule="evenodd" clip-rule="evenodd" d="M42.5833 68.1723C42.5833 68.1723 37.4999 67.8171 37.4985 63.7514C37.4972 59.6857 40.4041 59.2347 40.4041 59.2347L43.5558 65.445L42.5833 68.1723Z" fill="#2E203D"/>
<path fill-rule="evenodd" clip-rule="evenodd" d="M52.9803 85.3104L48.5168 71.8016C47.4006 68.727 44.3287 67.4831 42.0604 69.1847C41.1677 69.8499 40.9136 71.2973 41.491 72.4255L48.6751 86.4639L52.9803 85.3104Z" fill="#C95836"/>
<path fill-rule="evenodd" clip-rule="evenodd" d="M45.0071 68.4942L40.7206 67.0015L37.042 66.5704L35.2367 66.6409L28.3811 69.0357C27.2671 69.5866 26.3959 70.5297 25.9347 71.6837C25.4736 72.8378 25.455 74.1216 25.8826 75.2885L27.5603 83.1379C25.7775 89.0568 24.801 90.5322 25.1097 96.6241C34.0672 98.1794 49.3229 96.6241 50.036 95.8099C49.5185 83.6128 48.1003 74.6353 45.0071 68.4942Z" fill="#BDD7CC"/>
<path d="M40.6317 67.0082C40.6317 67.0082 42.787 72.3444 39.1244 72.5786C35.4618 72.8127 33.4556 67.2663 33.4556 67.2663L36.1323 66.0782L40.6317 67.0082Z" fill="#F9D1BD"/>
<path fill-rule="evenodd" clip-rule="evenodd" d="M24.385 91.1243L30.5913 76.3302C32.0481 73.2703 30.8427 70.3647 28.0635 70.2104C26.9673 70.1492 25.75 71.0858 25.3309 72.3138L20.2222 88.0723L24.385 91.1243Z" fill="#F9D1BD"/>
<path fill-rule="evenodd" clip-rule="evenodd" d="M20.2222 88.0724C21.0204 90.5749 23.0692 92.2405 25.9788 91.7695L39.3081 86.5597L37.1661 84.298L26.5815 86.5052L20.2222 88.0724Z" fill="#F9D1BD"/>
<path fill-rule="evenodd" clip-rule="evenodd" d="M32.234 73.7826L28.8814 82.8984L21.3779 80.1884C22.8174 78.6239 24.3048 71.1417 28.3811 69.0317C32.8606 66.7128 32.234 73.7826 32.234 73.7826Z" fill="#BDD7CC"/>
<path fill-rule="evenodd" clip-rule="evenodd" d="M45.0075 68.4943C45.0075 68.4943 47.9011 68.6938 49.4271 73.6921C50.9531 78.6904 52.3021 79.7095 52.3021 79.7095L46.8302 81.9286L42.6128 71.5675L45.0075 68.4943Z" fill="#BDD7CC"/>
<path d="M48.2003 81.0865C48.2003 81.0865 47.1227 77.9587 46.2247 76.1933C45.3267 74.4278 45.646 73.0389 45.646 73.0389" stroke="#217B56" stroke-width="0.26608" stroke-linecap="round" stroke-linejoin="round"/>
<path d="M28.252 82.2878L31.0977 74.9241L30.9606 73.4287" stroke="#217B56" stroke-width="0.26608" stroke-linecap="round" stroke-linejoin="round"/>
<path fill-rule="evenodd" clip-rule="evenodd" d="M37.3589 96.4685L56.0763 93.7678L59.0111 74.1657L42.6472 76.1919C41.5017 76.3343 39.9864 77.4358 39.7097 78.9232L37.3589 96.4685Z" fill="white"/>
<path d="M36.0952 85.7429L37.3963 83.4932C37.6569 83.0434 38.0698 82.7017 38.5604 82.5299L40.5467 81.8368C40.707 81.7811 40.8783 81.7651 41.0461 81.7901C41.2139 81.815 41.3732 81.8802 41.5103 81.9801C41.6474 82.0799 41.7584 82.2115 41.8336 82.3636C41.9088 82.5156 41.9461 82.6836 41.9423 82.8532V82.8532L40.1463 85.5899C39.7121 86.2219 39.0691 86.6807 38.3303 86.8857L37.0464 87.2662L36.0952 85.7429Z" fill="#F9D1BD"/>
<path fill-rule="evenodd" clip-rule="evenodd" d="M37.8666 58.64C37.8666 58.64 27.3857 66.5745 31.2718 69.5493C33.7078 71.4118 39.3979 62.5075 39.3979 62.5075L37.8666 58.64Z" fill="#2E203D"/>
<path fill-rule="evenodd" clip-rule="evenodd" d="M40.0782 63.7793C40.0782 63.7793 39.7523 66.2219 39.4835 68.2441C39.4485 68.5084 39.3438 68.7585 39.1801 68.969C39.0165 69.1794 38.7998 69.3425 38.5523 69.4414C38.3068 69.5399 38.0393 69.5706 37.7779 69.5303C37.5165 69.4901 37.2707 69.3803 37.0662 69.2126L36.6671 68.8893C36.3855 68.6579 36.1747 68.3518 36.059 68.0062C35.9432 67.6606 35.9271 67.2893 36.0125 66.935L37.2698 61.6959L40.0702 63.7793H40.0782Z" fill="#F9D1BD"/>
<path fill-rule="evenodd" clip-rule="evenodd" d="M39.9119 65.5075L39.6046 66.9576C38.5682 66.609 38.0227 65.6392 37.5811 64.5389L39.9119 65.5075Z" fill="#873B24"/>
<path fill-rule="evenodd" clip-rule="evenodd" d="M37.7287 59.9331C37.8346 59.6044 38.0663 59.3311 38.3732 59.1728C38.6801 59.0145 39.0372 58.9841 39.3664 59.0883L41.7319 59.852C42.4117 60.0715 42.6738 60.7832 42.5567 61.491C42.4237 62.3318 41.7585 63.9522 41.1292 65.0698C40.7766 65.7004 40.0462 66.1501 39.3664 65.9306C38.64 65.6964 36.6936 64.2968 36.9132 62.9199C37.0795 61.8715 37.3987 60.9429 37.7287 59.9331V59.9331Z" fill="#F9D1BD"/>
<path fill-rule="evenodd" clip-rule="evenodd" d="M41.1372 60.0635C41.1372 60.0635 39.0152 61.7305 37.5784 61.6161C36.1416 61.5017 36.2826 62.1802 36.2826 62.1802C36.2826 62.1802 36.7296 58.5296 38.7079 58.2848C40.0782 58.1158 40.7102 57.9455 41.1372 60.0635Z" fill="#2E203D"/>
<path fill-rule="evenodd" clip-rule="evenodd" d="M36.0816 62.4143C36.0989 63.005 36.5074 63.4693 36.9943 63.4506C37.4812 63.432 37.8617 62.9358 37.8444 62.3451C37.8271 61.7544 37.4173 61.2901 36.9304 61.3087C36.4435 61.3273 36.0643 61.8222 36.0816 62.4143Z" fill="#F9D1BD"/>
<path fill-rule="evenodd" clip-rule="evenodd" d="M43.5369 61.0227C43.9786 62.3079 43.7551 65.127 44.1795 66.9576C44.2793 67.39 45.2159 68.1723 44.8966 68.7802C44.7638 68.9774 44.6477 69.1852 44.5493 69.4015C44.4535 69.6019 44.2983 69.7679 44.1049 69.877C43.9115 69.9861 43.6891 70.033 43.4681 70.0113C43.2471 69.9897 43.0381 69.9005 42.8695 69.756C42.7009 69.6114 42.5809 69.4184 42.5258 69.2033C42.4122 68.7702 42.329 68.3296 42.277 67.8849C41.9617 64.974 42.3169 62.0072 41.0025 60.8817C40.7146 60.6971 40.4786 60.4422 40.3167 60.1409C40.1549 59.8396 40.0727 59.5021 40.0779 59.1601C40.0925 57.9748 42.4699 58.906 43.5369 61.0227Z" fill="#2E203D"/>
<path fill-rule="evenodd" clip-rule="evenodd" d="M59.0232 73.43C59.0232 73.43 61.9927 73.297 62.1191 77.364L43.5427 80.4319C43.5427 80.4319 46.8395 78.4363 42.9653 76.1906L59.0232 73.43Z" fill="white"/>
<path d="M61.0783 77.6513L43.5556 80.8589C43.5556 80.8589 43.7286 77.0367 40.9946 77.509" stroke="#9197EB" stroke-width="0.26608" stroke-linecap="round" stroke-linejoin="round"/>
<path fill-rule="evenodd" clip-rule="evenodd" d="M60.9068 109.758C64.1889 107.073 63.4971 101.388 60.6301 100.148C56.5058 98.3643 56.0761 93.7625 56.0761 93.7625L37.3587 96.4632C36.7348 102.104 40.2164 102.858 42.6284 104.485C43.9921 105.406 43.6635 107.434 43.118 109.022C42.7778 109.989 42.3184 110.909 41.7504 111.761C41.0532 112.826 39.8306 115.275 41.1823 117.805C42.9837 121.181 49.472 124.723 49.472 124.723L69.8018 120.889C69.8018 120.889 54.0965 120.401 60.9068 109.758Z" fill="white"/>
<path d="M62.3583 41.9534L60.2866 43.916L73.3923 57.7506L75.464 55.788L62.3583 41.9534Z" fill="white"/>
<path d="M73.8102 42.2633L59.9766 55.368L61.9391 57.4398L75.7728 44.335L73.8102 42.2633Z" fill="white"/>
</g>
<defs>
<clipPath id="clip0_3519_7601">
<rect width="194" height="156.4" fill="white"/>
</clipPath>
</defs>
</svg>
