<svg width="218" height="169" viewBox="0 0 218 169" fill="none" xmlns="http://www.w3.org/2000/svg">
<path d="M107.328 1.62616C123.479 -3.71416 150.826 3.96501 157.04 26.6448C163.196 49.1131 155.658 55.3044 157.944 74.6616C160.23 94.0187 205.684 114.979 183.205 141.678C162.988 165.685 121.115 122.722 87.4521 128.554C87.4521 128.554 32.1342 142.495 15.3733 119.705C-9.6683 85.6525 48.4803 80.1265 67.1044 49.3503C84.4208 20.7326 86.0997 8.64541 107.328 1.62616Z" fill="#F4F8F7"/>
<path d="M125.742 165.654C152.139 165.654 173.537 163.831 173.537 161.582C173.537 159.333 152.139 157.51 125.742 157.51C99.3461 157.51 77.9478 159.333 77.9478 161.582C77.9478 163.831 99.3461 165.654 125.742 165.654Z" fill="#E3E5EB"/>
<path d="M166.435 99.8266L164.665 99.3252C166.058 100.63 167.092 102.271 167.665 104.091C168.239 105.911 168.334 107.848 167.941 109.716V109.716C167.516 111.736 166.536 113.597 165.113 115.091C163.689 116.586 161.877 117.654 159.881 118.177L162.488 118.609C163.721 118.869 164.994 118.882 166.233 118.65C167.471 118.418 168.652 117.943 169.708 117.255C170.764 116.566 171.673 115.676 172.385 114.636C173.096 113.595 173.596 112.425 173.856 111.192V111.192C174.379 108.7 173.891 106.104 172.499 103.972C171.107 101.841 168.926 100.35 166.435 99.8266V99.8266Z" fill="#CF1A1E"/>
<path d="M124.959 161.207L125.891 161.478C127.922 162.069 130.104 161.83 131.959 160.814C133.813 159.798 135.189 158.087 135.783 156.058L146.377 119.788C146.969 117.758 146.731 115.575 145.714 113.72C144.698 111.865 142.987 110.49 140.957 109.896L140.025 109.625C137.994 109.033 135.812 109.271 133.957 110.287C132.102 111.304 130.726 113.015 130.133 115.045L119.544 151.316C118.953 153.346 119.191 155.527 120.206 157.382C121.221 159.236 122.931 160.612 124.959 161.207V161.207Z" fill="#CF1A1E"/>
<path d="M111.678 116.201L149.301 121.811C151.352 122.242 153.467 122.265 155.527 121.879C157.586 121.493 159.549 120.705 161.304 119.559C163.058 118.414 164.57 116.935 165.753 115.205C166.936 113.476 167.767 111.531 168.198 109.48V109.48C169.068 105.339 168.258 101.022 165.945 97.4786C163.633 93.9349 160.008 91.4549 155.867 90.5837L118.162 78.754C117.357 78.586 110.879 116.033 111.678 116.201Z" fill="#EB2227"/>
<path d="M154.16 112.856L117.101 107.33C116.346 112.258 112.982 115.421 112.982 115.421L150.33 120.99C154.206 121.804 158.246 121.148 161.665 119.149C165.084 117.15 167.638 113.951 168.83 110.174C164.482 112.96 159.212 113.923 154.16 112.856Z" fill="#CF1A1E"/>
<path d="M157.012 90.925L154.072 90.0862C156.388 92.2551 158.105 94.9845 159.059 98.0109C160.013 101.037 160.17 104.258 159.516 107.363V107.363C158.811 110.722 157.183 113.818 154.816 116.303C152.448 118.789 149.435 120.565 146.115 121.433L150.451 122.151C152.501 122.582 154.617 122.605 156.676 122.219C158.735 121.833 160.698 121.044 162.453 119.899C164.208 118.754 165.72 117.275 166.903 115.545C168.086 113.816 168.916 111.87 169.347 109.82V109.82C170.217 105.679 169.406 101.362 167.092 97.8181C164.779 94.2747 161.153 91.7952 157.012 90.925Z" fill="white"/>
<path d="M94.1152 45.4396L125.462 81.0453C127.476 90.8452 125.08 107.538 118.852 116.918L74.6646 137.995C74.409 138.14 74.1171 138.208 73.8238 138.191C73.5306 138.174 73.2485 138.072 73.0114 137.899C72.7743 137.725 72.5923 137.487 72.4872 137.213C72.3822 136.939 72.3586 136.64 72.4192 136.352L91.3983 46.0385C91.4585 45.751 91.6005 45.4869 91.8071 45.278C92.0138 45.0692 92.2763 44.9245 92.5632 44.8612C92.8501 44.798 93.1492 44.8189 93.4245 44.9215C93.6998 45.0241 93.9396 45.204 94.1152 45.4396V45.4396Z" fill="#EB2227"/>
<path d="M101.972 95.4167C107.448 69.3608 103.359 46.4456 92.8373 44.2342C82.316 42.0227 69.3471 61.3524 63.8705 87.4083C58.3939 113.464 62.4835 136.379 73.0048 138.591C83.5262 140.802 96.4951 121.473 101.972 95.4167Z" fill="#EF4E52"/>
<path d="M99.0788 96.4243C104.105 72.5092 100.767 51.5639 91.6214 49.6417C82.4762 47.7195 70.9877 65.5483 65.961 89.4634C60.9344 113.379 64.2732 134.324 73.4184 136.246C82.5636 138.168 94.0522 120.339 99.0788 96.4243Z" fill="#EB2227"/>
<path d="M101.282 79.6779C99.9269 78.2537 97.8943 77.1033 94.9931 76.2442C88.8397 74.4379 81.7216 81.884 79.2811 92.1527C76.8406 102.421 80.1267 111.225 86.1567 113.427C89.3994 114.612 91.8819 114.599 93.8372 113.736C96.111 108.084 98.0379 101.573 99.4038 94.5457C100.365 89.6379 100.993 84.6706 101.282 79.6779V79.6779Z" fill="#CF1A1E"/>
<path d="M92.9782 94.1541C94.2804 88.3902 93.1517 83.2241 90.4574 82.6154C87.763 82.0067 84.5232 86.1859 83.221 91.9499C81.9189 97.7139 83.0475 102.88 85.7419 103.489C88.4363 104.097 91.6761 99.9181 92.9782 94.1541Z" fill="#EF4E52"/>
<path d="M118.852 116.918C118.852 116.918 130.425 94.8994 124.741 79.9937" stroke="#27427A" stroke-width="0.542027" stroke-linecap="round" stroke-linejoin="round"/>
<path d="M91.6177 49.6377C84.1527 48.0686 75.1266 59.6652 69.3282 76.9843C75.9301 70.7659 86.2205 67.4542 101.376 77.75C101.834 62.4499 98.2562 51.0321 91.6177 49.6377Z" fill="#CF1A1E"/>
<path d="M100.701 125.575C108.235 117.698 116.555 85.067 111.61 65.3115L117.696 72.2224C120.231 75.1019 120.143 109.069 109.326 121.461L100.701 125.575Z" fill="white"/>
<g style="mix-blend-mode:multiply" opacity="0.21">
<path d="M156.727 113.239C154.212 116.729 150.561 119.236 146.4 120.33L150.567 121.021L150.714 121.043C154.589 121.857 158.629 121.201 162.048 119.202C165.467 117.203 168.02 114.005 169.212 110.228C165.504 112.601 161.108 113.661 156.727 113.239V113.239Z" fill="#8B92E3"/>
</g>
<g style="mix-blend-mode:multiply" opacity="0.21">
<path d="M112.628 116.437C114.024 113.69 115.154 110.531 116.054 107.186L109.343 106.198C108.465 109.524 107.391 112.794 106.128 115.994L112.628 116.437Z" fill="#8B92E3"/>
</g>
<path d="M53.1813 42.8081C54.7465 43.9479 55.9436 45.5211 56.625 47.3334C57.3065 49.1458 57.4423 51.1179 57.0159 53.0066C56.5895 54.8953 55.6194 56.6177 54.2254 57.9615C52.8314 59.3052 51.0744 60.2114 49.1714 60.5682C47.2684 60.925 45.3025 60.7167 43.5164 59.9692C41.7303 59.2217 40.2022 57.9676 39.1206 56.3617C38.039 54.7557 37.4513 52.8683 37.4299 50.9322C37.4086 48.9961 37.9546 47.0961 39.0005 45.4667" stroke="#2D4E73" stroke-width="0.577259" stroke-miterlimit="10" stroke-linecap="round"/>
<path d="M47.6526 40.915C48.7821 40.9491 49.8974 41.1755 50.9508 41.5844" stroke="#2D4E73" stroke-width="0.577259" stroke-miterlimit="10" stroke-linecap="round"/>
<path d="M43.1064 49.3556L47.2489 54.2786L52.7992 46.9192" stroke="#2D4E73" stroke-width="0.577259" stroke-miterlimit="10" stroke-linecap="round"/>
<path d="M136.755 56.9585C136.918 55.6341 135.976 54.4283 134.652 54.2652C133.328 54.1021 132.122 55.0435 131.959 56.3679C131.796 57.6923 132.737 58.8981 134.062 59.0612C135.386 59.2242 136.592 58.2828 136.755 56.9585Z" stroke="#2D4E73" stroke-width="0.577259" stroke-miterlimit="10" stroke-linecap="round"/>
<path d="M77.9478 30.2453C79.2822 30.2453 80.3639 29.1635 80.3639 27.8292C80.3639 26.4948 79.2822 25.4131 77.9478 25.4131C76.6135 25.4131 75.5317 26.4948 75.5317 27.8292C75.5317 29.1635 76.6135 30.2453 77.9478 30.2453Z" stroke="#2D4E73" stroke-width="0.577259" stroke-miterlimit="10" stroke-linecap="round"/>
<path d="M102.028 148.526C103.327 148.221 104.134 146.921 103.83 145.622C103.526 144.323 102.226 143.516 100.926 143.821C99.6272 144.125 98.8206 145.425 99.1249 146.724C99.4291 148.023 100.729 148.83 102.028 148.526Z" stroke="#2D4E73" stroke-width="0.577259" stroke-miterlimit="10" stroke-linecap="round"/>
<path d="M111.704 19.4331H129.545V31.3943H111.091V22.4224" stroke="#2D4E73" stroke-width="0.577259" stroke-miterlimit="10" stroke-linecap="round"/>
<path d="M112.554 20.8952L120.555 26.8074L129.545 19.4331" stroke="#2D4E73" stroke-width="0.577259" stroke-miterlimit="10" stroke-linecap="round"/>
<path fill-rule="evenodd" clip-rule="evenodd" d="M18.2774 91.837C17.482 93.5647 15.7489 94.5037 13.4764 93.7517L3.26465 88.0604L5.10889 86.7053L13.3436 89.7989L18.2774 91.837Z" fill="#F9D1BD"/>
<path d="M5.10893 86.7041L3.02212 86.3179C2.61427 86.2388 2.19163 86.303 1.8256 86.4995L0.390585 87.2841C-0.109435 87.5551 -0.133826 88.2326 0.343157 88.5985L2.98147 88.9508C3.58696 89.0241 4.19924 88.8873 4.71596 88.5632L5.60082 88.0212L5.10893 86.7041Z" fill="#F9D1BD"/>
<path fill-rule="evenodd" clip-rule="evenodd" d="M33.1995 94.6095C31.0964 96.5066 16.6216 95.4483 15.4657 94.89C14.1662 94.2599 6.48975 90.8451 6.48975 90.8451L8.57113 87.2393C8.57113 87.2393 15.5497 89.3342 16.3018 89.2299C17.0538 89.1255 31.152 88.2921 31.152 88.2921L33.1995 94.6095Z" fill="#BDD7CC"/>
<path fill-rule="evenodd" clip-rule="evenodd" d="M51.8193 103.718C53.6676 103.267 55.478 104.042 56.3033 106.293L58.2003 117.829L55.9889 117.23L53.2936 108.856L51.8193 103.718Z" fill="#F9D1BD"/>
<path d="M55.9835 117.225L56.9754 119.102C57.167 119.47 57.4802 119.76 57.8616 119.923L59.3725 120.558C59.8983 120.777 60.4458 120.375 60.4322 119.777L59.0636 117.484C58.7443 116.965 58.2564 116.57 57.6814 116.366L56.7044 116.013L55.9835 117.225Z" fill="#F9D1BD"/>
<path fill-rule="evenodd" clip-rule="evenodd" d="M44.7176 90.3057C47.5104 90.7759 55.6801 102.772 55.9647 104.023C56.2804 105.432 58.3767 113.569 58.3767 113.569L54.2573 114.179C54.2573 114.179 51.5607 107.404 51.0051 106.886C50.4496 106.369 42.8639 98.9984 42.8639 98.9984L44.7176 90.3057Z" fill="#BDD7CC"/>
<path fill-rule="evenodd" clip-rule="evenodd" d="M37.636 83.5724C37.636 83.5724 38.8176 81.8895 36.8555 80.5168C34.8934 79.1441 35.1237 82.9559 35.1874 83.0047C35.2511 83.0535 37.636 83.5724 37.636 83.5724Z" fill="#101C33"/>
<path fill-rule="evenodd" clip-rule="evenodd" d="M32.3864 84.5073C32.3864 84.5073 32.8837 86.4193 34.3539 86.2689C35.8242 86.1185 35.2672 81.8975 35.2672 81.8975L32.3864 84.5073Z" fill="#101C33"/>
<path fill-rule="evenodd" clip-rule="evenodd" d="M37.1089 84.8585C37.1089 84.8585 37.2566 86.9846 37.3799 88.7448C37.3912 88.9835 37.3345 89.2204 37.2165 89.4281C37.0985 89.6358 36.924 89.8058 36.7132 89.9183C36.4886 90.0447 36.2372 90.1159 35.9797 90.126C35.7222 90.1361 35.466 90.0849 35.2321 89.9766L34.7877 89.7693C34.1454 89.4711 33.7551 88.8695 33.7849 88.2258C33.8649 86.5754 34.0099 83.5698 34.0099 83.5698L37.1089 84.8544V84.8585Z" fill="#F9D1BD"/>
<path fill-rule="evenodd" clip-rule="evenodd" d="M37.3433 86.2026L37.2864 87.4127L35.8744 86.4642L37.3433 86.2026Z" fill="#633C1D"/>
<path fill-rule="evenodd" clip-rule="evenodd" d="M33.1601 82.9478C33.0666 82.6639 33.0896 82.3545 33.224 82.0875C33.3584 81.8205 33.5932 81.6178 33.8769 81.5236L35.9203 80.8461C36.5071 80.6537 37.0505 81.0155 37.331 81.5711C37.663 82.2283 38.0248 83.6999 38.1576 84.7988C38.2334 85.4195 37.9516 86.1065 37.3648 86.2989C36.7388 86.5049 34.6656 86.5198 34.1127 85.4466C33.694 84.6335 33.4433 83.8205 33.1641 82.9438L33.1601 82.9478Z" fill="#F9D1BD"/>
<path fill-rule="evenodd" clip-rule="evenodd" d="M32.1288 84.9261C32.1288 84.9261 31.4296 82.6225 32.206 81.5845C33.2494 80.1942 34.8037 79.2809 36.8553 80.5167C36.8553 80.5167 37.9529 80.968 34.7929 81.903C34.3863 82.0222 35.2902 83.8922 34.7929 84.1456C34.1275 84.4857 33.2589 84.7635 32.1234 84.9261H32.1288Z" fill="#101C33"/>
<path fill-rule="evenodd" clip-rule="evenodd" d="M33.2738 85.5211C33.5869 85.9276 34.1099 86.0414 34.4392 85.7799C34.7685 85.5184 34.7834 84.9791 34.4704 84.5739C34.1573 84.1687 33.6343 84.0536 33.3037 84.3151C32.973 84.5766 32.9608 85.1159 33.2738 85.5211Z" fill="#F9D1BD"/>
<g style="mix-blend-mode:multiply" opacity="0.21">
<path d="M39.7349 168.988C50.1936 168.988 58.672 168.356 58.672 167.577C58.672 166.798 50.1936 166.167 39.7349 166.167C29.2763 166.167 20.7979 166.798 20.7979 167.577C20.7979 168.356 29.2763 168.988 39.7349 168.988Z" fill="#646AA3"/>
</g>
<path fill-rule="evenodd" clip-rule="evenodd" d="M32.3281 164.748C32.3281 164.748 36.3689 147.612 33.6452 140.832L37.457 117.586L26.5596 118.333L29.2873 164.912L32.3281 164.748Z" fill="#F9D1BD"/>
<path fill-rule="evenodd" clip-rule="evenodd" d="M29.24 164.074L27.5475 165.641C27.0922 166.027 24.7195 166.779 24.7195 166.779C24.4485 167.26 24.8767 167.514 25.252 167.577L32.0721 167.435C32.0721 167.435 33.6711 167.108 32.5382 164.077C31.2523 164.625 29.4812 165.016 29.24 164.074Z" fill="#101C33"/>
<path fill-rule="evenodd" clip-rule="evenodd" d="M25.8684 121.966L26.2993 141.652L27.8942 161.389H35.8227C35.8227 161.389 35.3783 157.958 35.5598 156.868C35.7414 155.779 36.9149 145.453 34.9135 140.701L36.774 121.352L25.8684 121.966Z" fill="#217B56"/>
<path d="M34.9018 140.693L34.9002 140.71L34.9068 140.726C35.904 143.087 36.1123 146.844 36.046 150.155C35.9799 153.464 35.6403 156.315 35.5501 156.856C35.5035 157.135 35.4976 157.56 35.5137 158.035C35.5299 158.512 35.5686 159.044 35.6128 159.542C35.6571 160.039 35.707 160.503 35.7459 160.842C35.7654 161.012 35.782 161.15 35.7939 161.246L35.803 161.32H32.1779L32.1667 161.229C32.1549 161.133 32.1383 160.995 32.1189 160.826C32.0801 160.487 32.0303 160.024 31.9861 159.528C31.942 159.031 31.9036 158.501 31.8875 158.028C31.8714 157.554 31.8779 157.142 31.9221 156.878L31.9221 156.878C32.0716 155.977 32.9009 148.777 32.0577 143.617L32.0576 143.617C31.6178 141.013 31.5156 138.363 31.7534 135.733L33.111 121.621L36.7548 121.423L34.9018 140.693ZM31.8553 156.867C31.6737 157.951 32.1182 161.387 32.1182 161.387L31.8553 156.867Z" fill="#066132" stroke="#066132" stroke-width="0.135507"/>
<path fill-rule="evenodd" clip-rule="evenodd" d="M54.8438 163.541C54.8438 163.541 53.5768 146.15 48.8192 140.032L45.4559 116.734L34.9609 119.382L52.009 164.213L54.8438 163.541Z" fill="#F9D1BD"/>
<path fill-rule="evenodd" clip-rule="evenodd" d="M52.0769 163.718L51.4156 165.84C51.2489 166.382 49.6201 168.144 49.6201 168.144C49.6703 168.671 50.1974 168.673 50.5687 168.55L56.4619 165.154C56.4619 165.154 57.6692 164.116 54.8561 162.161C54.0539 163.221 52.8547 164.379 52.0769 163.718Z" fill="#101C33"/>
<path fill-rule="evenodd" clip-rule="evenodd" d="M34.3607 121.279L41.8393 142.129L49.4507 161.057L57.2546 159.66C57.2546 159.66 55.764 156.398 55.6122 155.307C55.4605 154.216 53.4577 143.956 50.0266 139.685L45.9194 118.613L34.3607 121.279Z" fill="#217B56"/>
<path fill-rule="evenodd" clip-rule="evenodd" d="M42.1241 106.066L27.316 107.194C24.9067 108.079 25.8688 121.964 25.8688 121.964L35.6063 122.415C40.1295 122.32 45.4807 125.869 46.0403 118.331C46.6867 109.716 42.1241 106.066 42.1241 106.066Z" fill="#217B56"/>
<path d="M45.91 117.108C45.8836 117.11 45.8477 117.113 45.8026 117.116C45.6976 117.123 45.5431 117.134 45.3453 117.145C44.9497 117.169 44.3809 117.198 43.6883 117.219C42.3028 117.261 40.4227 117.272 38.4433 117.149C36.4633 117.026 34.3864 116.768 32.6066 116.272C30.8785 115.792 29.4422 115.09 28.6406 114.082L45.4278 112.482L45.4455 112.58C45.4638 112.682 45.4897 112.829 45.5202 113.009C45.5812 113.369 45.6604 113.86 45.7333 114.386C45.8063 114.912 45.873 115.471 45.909 115.967C45.9429 116.434 45.9491 116.84 45.91 117.108Z" fill="#066132" stroke="#066132" stroke-width="0.135507"/>
<path fill-rule="evenodd" clip-rule="evenodd" d="M30.8321 88.3505L32.6912 88.0294L37.1413 87.6147L44.3435 89.8411C46.2744 90.7382 45.7283 92.5404 45.0495 94.5676L45.7636 101.003C47.3585 105.857 47.433 109.473 47.3029 114.514C39.3433 117.697 27.2358 117.251 24.6083 113.628C24.7668 104.633 24.6476 100.718 26.6978 92.2274C26.9336 91.2483 27.4506 90.3596 28.1852 89.6707C28.9198 88.9819 29.8399 88.523 30.8321 88.3505V88.3505Z" fill="#BDD7CC"/>
<path d="M32.6912 88.0267C32.6912 88.0267 31.019 92.4808 34.0462 92.6001C37.0734 92.7193 38.6209 88.0931 38.6209 88.0931L36.3851 87.1663L32.6912 88.0267Z" fill="#F9D1BD"/>
<path d="M46.2622 101.885L44.1321 98.5703L44.4695 97.7383" stroke="#066132" stroke-width="0.569128" stroke-linecap="round" stroke-linejoin="round"/>
<path d="M25.5446 97.7912C25.7424 97.2058 25.634 96.1516 26.6286 94.5391" stroke="#066132" stroke-width="0.569128" stroke-linecap="round" stroke-linejoin="round"/>
<path fill-rule="evenodd" clip-rule="evenodd" d="M182.41 87.6498C180.719 88.4113 178.887 88.0726 177.786 86.2283L174.344 76.3052L176.53 76.4109L180.282 83.3569L182.41 87.6498Z" fill="#F9D1BD"/>
<path d="M176.548 76.4259L175 75.3012C174.692 75.076 174.312 74.9696 173.931 75.0017L172.388 75.1277C172.264 75.1381 172.143 75.1785 172.038 75.2454C171.933 75.3123 171.845 75.4037 171.783 75.5118C171.72 75.6199 171.685 75.7415 171.68 75.8662C171.674 75.9909 171.699 76.1151 171.752 76.228V76.228L173.777 77.5316C174.258 77.8261 174.827 77.9426 175.385 77.8609L176.364 77.7335L176.548 76.4259Z" fill="#F9D1BD"/>
<path fill-rule="evenodd" clip-rule="evenodd" d="M178.398 77.9746L175.01 80.4313C175.01 80.4313 177.956 86.7405 178.375 87.8951C178.662 88.6905 179.205 90.1987 180.353 91.448C181.501 92.6974 185.704 99.4294 185.704 99.4294C185.704 99.4294 189.969 100.306 190.263 96.2179C190.416 94.0958 187.211 91.1892 185.032 89.4696C183.7 88.4216 182.633 87.0756 181.915 85.54L178.398 77.9746Z" fill="#BDD7CC"/>
<path d="M199.748 167.274C209.056 167.274 216.601 166.712 216.601 166.019C216.601 165.326 209.056 164.764 199.748 164.764C190.44 164.764 182.895 165.326 182.895 166.019C182.895 166.712 190.44 167.274 199.748 167.274Z" fill="#E3E5EB"/>
<path fill-rule="evenodd" clip-rule="evenodd" d="M193.623 161.555C193.623 161.555 195.904 146.305 192.959 140.271L194.566 119.585L184.925 120.249L191.429 161.674L193.623 161.555Z" fill="#F9D1BD"/>
<path fill-rule="evenodd" clip-rule="evenodd" d="M191.361 161.29L190.715 164.017C190.639 164.519 190.444 164.519 190.444 164.519L189.36 165C189.122 165.08 189.076 165.364 189.141 165.597C189.157 165.658 190.496 165.597 190.746 165.597L192.119 165.512L194.274 162.603C194.274 162.603 195.478 161.187 193.837 159.939C193.309 161.055 192.062 161.66 191.361 161.29Z" fill="#4A2A1A"/>
<path fill-rule="evenodd" clip-rule="evenodd" d="M184.254 123.482L186.484 141.002L189.42 158.565H196.475C196.475 158.565 195.815 155.512 195.894 154.542C195.973 153.571 196.229 144.379 194.077 140.155L194.248 122.935L184.254 123.482Z" fill="#217B56"/>
<path fill-rule="evenodd" clip-rule="evenodd" d="M194.127 140.155L194.298 122.935L190.95 123.119L190.824 135.721C190.817 138.093 191.112 140.455 191.702 142.752C192.847 147.341 192.661 153.728 192.596 154.542C192.519 155.512 193.177 158.565 193.177 158.565H196.524C196.524 158.565 195.866 155.512 195.944 154.542C196.023 153.571 196.278 144.383 194.127 140.155Z" fill="#066132"/>
<path fill-rule="evenodd" clip-rule="evenodd" d="M203.55 142.471L214.341 157.887C216.135 158.309 216.127 157.295 215.455 155.753C212.609 149.052 213.005 144.712 206.557 139.195L203.55 142.471Z" fill="#F9D1BD"/>
<path fill-rule="evenodd" clip-rule="evenodd" d="M192.691 123.447L199.917 139.979C200.304 140.878 200.772 141.74 201.317 142.553L211.498 156.501L215.639 153.429C213.694 146.414 211.948 143.13 206.277 136.814L202.447 120.466L197.938 121.178L192.691 123.447Z" fill="#217B56"/>
<path fill-rule="evenodd" clip-rule="evenodd" d="M214.25 157.855L214.459 160.214C214.56 160.714 214.075 162.818 214.075 162.818C214.337 163.214 214.735 162.986 214.959 162.725L217.972 157.468C217.972 157.468 218.444 156.113 215.494 155.793C215.344 156.989 215.117 158.04 214.25 157.855Z" fill="#4A2A1A"/>
<path fill-rule="evenodd" clip-rule="evenodd" d="M198.719 109.332L185.541 110.336C183.398 111.124 184.254 123.481 184.254 123.481L192.927 123.887C196.952 123.803 201.714 126.96 202.214 120.251C202.781 112.582 198.719 109.332 198.719 109.332Z" fill="#217B56"/>
<path fill-rule="evenodd" clip-rule="evenodd" d="M202.328 121.045C202.328 121.045 193.584 121.994 190.738 118.147L202.263 115.301C202.263 115.301 202.506 120.066 202.328 121.045Z" fill="#066132"/>
<path fill-rule="evenodd" clip-rule="evenodd" d="M187.271 94.1298L192.034 93.0946L193.359 93.0173L198.55 94.2762C199.406 94.5995 200.112 95.2276 200.532 96.0398C200.952 96.852 201.058 97.7909 200.828 98.6761L200.161 104.542C201.03 111.118 202.354 112.468 203.072 116.196C196.214 119.536 186.417 120.365 183.852 117.319C183.361 108.361 184.373 100.214 187.271 94.1298Z" fill="#BDD7CC"/>
<path fill-rule="evenodd" clip-rule="evenodd" d="M190.329 90.3831C190.329 90.3831 190.451 92.3019 190.551 93.8901C190.564 94.097 190.631 94.2968 190.747 94.4692C190.862 94.6415 191.021 94.7802 191.207 94.8711C191.392 94.9615 191.599 95.0001 191.804 94.9829C192.01 94.9657 192.207 94.8934 192.375 94.7736L192.702 94.5432C192.934 94.378 193.115 94.1504 193.224 93.8867C193.333 93.6229 193.365 93.3338 193.317 93.0526C193.07 91.5837 192.622 88.9075 192.622 88.9075L190.329 90.3831Z" fill="#F9D1BD"/>
<path fill-rule="evenodd" clip-rule="evenodd" d="M190.307 91.4277L190.468 92.5728L191.49 91.509L190.307 91.4277Z" fill="#873B24"/>
<path d="M189.439 93.6719C189.439 93.6719 188.244 97.7371 190.941 97.6423C193.639 97.5474 194.711 93.3467 194.711 93.3467L192.666 92.6692L189.439 93.6719Z" fill="#F9D1BD"/>
<path fill-rule="evenodd" clip-rule="evenodd" d="M193.618 88.5552C193.722 88.3066 193.723 88.027 193.621 87.7775C193.52 87.5279 193.324 87.3287 193.076 87.2232L191.288 86.4711C190.775 86.2543 190.26 86.5416 189.966 87.0213C189.62 87.5877 189.189 88.8845 188.99 89.8669C188.878 90.4184 189.081 91.0566 189.595 91.2721C190.137 91.5038 192.007 91.6651 192.576 90.7396C193.011 90.0349 193.294 89.3235 193.612 88.5579L193.618 88.5552Z" fill="#F9D1BD"/>
<path fill-rule="evenodd" clip-rule="evenodd" d="M196.275 90.425C196.275 90.425 195.191 88.3843 194.573 87.3978C193.736 86.0739 192.405 85.1362 190.47 86.1037C190.47 86.1037 190.966 88.4859 194.314 91.1324L196.275 90.425Z" fill="#101C33"/>
<path fill-rule="evenodd" clip-rule="evenodd" d="M189.367 89.5618L190.265 89.9182C190.265 89.9182 190.005 90.5334 189.588 90.3098C189.17 90.0862 189.367 89.5618 189.367 89.5618Z" fill="white"/>
<path d="M194.352 88.4604C194.352 88.4604 199.175 92.1042 196.444 94.8983C193.714 97.6925 189.025 102.462 189.788 105.888C189.788 105.888 187.502 103.901 188.584 101.224C189.665 98.5462 193.03 94.4972 193.191 93.6354C193.352 92.7736 191.584 87.5376 191.584 87.5376L193.985 87.7029L194.352 88.4604Z" fill="#101C33"/>
<path fill-rule="evenodd" clip-rule="evenodd" d="M193.329 90.8614C193.019 91.2016 192.541 91.268 192.263 91.0091C191.985 90.7503 192.012 90.2639 192.322 89.9251C192.633 89.5863 193.111 89.5186 193.39 89.776C193.669 90.0335 193.639 90.5186 193.329 90.8614Z" fill="#F9D1BD"/>
<path fill-rule="evenodd" clip-rule="evenodd" d="M193.955 74.1412L171.763 75.7944C160.64 76.6224 150.86 68.1993 150.032 57.0755C149.203 45.9518 157.62 36.1723 168.75 35.3443L190.942 33.6912C202.065 32.8618 211.845 41.2795 212.673 52.41C213.502 63.5338 205.079 73.3092 193.955 74.1412Z" fill="#EB2227"/>
<path fill-rule="evenodd" clip-rule="evenodd" d="M155.257 65.5771L154.614 80.0357L167.071 74.2997L155.257 65.5771Z" fill="#EB2227"/>
<path d="M168.003 60.031C169.863 59.035 170.564 56.7192 169.568 54.8586C168.572 52.998 166.256 52.297 164.396 53.293C162.535 54.289 161.834 56.6048 162.83 58.4654C163.826 60.326 166.142 61.027 168.003 60.031Z" fill="white"/>
<path d="M183.187 58.5941C185.062 57.6268 185.799 55.3221 184.831 53.4464C183.864 51.5706 181.559 50.8342 179.684 51.8015C177.808 52.7688 177.072 55.0735 178.039 56.9493C179.006 58.825 181.311 59.5614 183.187 58.5941Z" fill="white"/>
<path fill-rule="evenodd" clip-rule="evenodd" d="M200.397 53.902C200.373 54.6573 200.126 55.3887 199.687 56.0036C199.248 56.6186 198.636 57.0894 197.929 57.3566C197.222 57.6239 196.452 57.6755 195.715 57.505C194.979 57.3345 194.31 56.9495 193.793 56.3987C193.275 55.8479 192.933 55.156 192.808 54.4105C192.684 53.6651 192.784 52.8995 193.094 52.2107C193.405 51.5218 193.913 50.9406 194.554 50.5404C195.196 50.1403 195.941 49.9393 196.696 49.9628C197.709 49.995 198.668 50.428 199.362 51.1666C200.056 51.9052 200.428 52.889 200.397 53.902Z" fill="white"/>
<path d="M118.161 72.6871L111.61 65.3115" stroke="#2D4E73" stroke-width="0.577259" stroke-miterlimit="10" stroke-linecap="round"/>
<path d="M100.701 125.575L109.326 121.463" stroke="#2D4E73" stroke-width="0.577259" stroke-miterlimit="10" stroke-linecap="round"/>
<path d="M154.071 90.0862L160.318 91.9995C160.318 91.9995 166.218 93.8289 168.512 100.519" stroke="#2D4E73" stroke-width="0.577259" stroke-miterlimit="10" stroke-linecap="round"/>
<path d="M146.113 121.433L152.256 122.498C152.256 122.498 157.752 123.718 163.938 118.804" stroke="#2D4E73" stroke-width="0.577259" stroke-miterlimit="10" stroke-linecap="round"/>
<path d="M164.333 74.7373C164.144 74.6817 157.622 72.4933 155.023 69.0623" stroke="#732626" stroke-width="0.60436" stroke-linecap="round" stroke-linejoin="round"/>
<path fill-rule="evenodd" clip-rule="evenodd" d="M197.764 87.944C199.598 87.673 200.957 86.4006 200.89 84.2528L198.438 74.041L196.654 75.308L197.24 83.1809L197.764 87.944Z" fill="#F9D1BD"/>
<path d="M196.648 75.327L197.344 73.5451C197.484 73.1891 197.746 72.8949 198.084 72.7158L199.453 71.9909C199.563 71.9325 199.686 71.9017 199.811 71.9011C199.935 71.9006 200.059 71.9303 200.169 71.9877C200.28 72.0451 200.375 72.1285 200.447 72.2308C200.518 72.333 200.564 72.4511 200.58 72.5749V72.5749L199.577 74.7647C199.332 75.272 198.915 75.6769 198.401 75.9084L197.508 76.3284L196.648 75.327Z" fill="#F9D1BD"/>
<path fill-rule="evenodd" clip-rule="evenodd" d="M200.95 97.6447L201.652 88.078L199.507 76.9529L195.757 76.8472L197.13 88.3598L196.169 95.9224L200.95 97.6447Z" fill="#BDD7CC"/>
</svg>
