<svg width="105" height="63" viewBox="0 0 105 63" fill="none" xmlns="http://www.w3.org/2000/svg">
<g clip-path="url(#clip0_1510_9369)">
<path d="M101.1 100.2L-20.0001 100.5C-20.0001 100.5 -24.6001 76.2 -43.0001 76.5C-64.4001 76.8 -65.7001 100.2 -65.7001 100.2H-82.0001C-82.0001 100.2 -90.3001 79.5 -83.0001 73.7C-83.0001 73.7 -77.1001 61.5 -74.6001 54.7C-74.6001 54.7 -77.1001 47.6 -76.4001 43.2L-58.3001 29C-50.6001 18.7 -20.6001 3.49999 -8.10011 1.49999C18.0999 -2.80001 39.3999 -5.60001 65.5999 7.49999C106.1 27.8 119.3 49.8 119.3 49.8C119.3 49.8 135.3 48.7 160.5 53.7C165.7 58.8 166.4 64.8 167.6 70.2L167.5 100.3H157.8C156.6 100.3 155.5 99.9 154.6 99.2C153.7 98.5 153 97.5 152.7 96.3C150.9 88.8 144.8 76.3 131.2 75.9C118.2 75.5 107.9 79.4 105.3 96.7C105.1 97.7 104.7 98.6 103.9 99.2C103 99.8 102.1 100.2 101.1 100.2Z" fill="#217B56"/>
<path d="M166.5 103.6L44.4999 103.7C44.4999 103.7 44.7999 73.8 19.8999 73.1C-5.00009 72.4 -3.70009 102.3 -3.70009 102.3L-3.60009 107.1C-3.60009 107.1 -21.2001 105.4 -26.2001 102.8C-27.3001 100.3 -28.2001 97.7 -28.8001 95.1C-29.5001 91.2 -29.0001 83.2 -29.0001 83.2L-24.9001 80C-24.9001 80 -26.5001 61.5 -23.8001 54.8C-23.8001 54.8 -26.3001 47.7 -25.7001 43.3L27.0999 -3L102.9 -2.1C113.1 -1.9 118.3 0.4 127.4 4.9C161.4 21.8 182.1 36.7 182.1 36.7C182.1 36.7 220.4 43.5 233.7 53.8C239 58.9 241.9 62.3 243.8 75.8L244.1 81.1L212.6 91.2L166.5 103.6Z" fill="#4D9578"/>
<path d="M-75.3001 58.8C-75.3001 58.8 162.1 55.3 160.5 53.8C135.2 46.4 111.4 38.5 111.4 38.5C111.4 38.5 89.2999 16.3 60.7999 3.1C41.0999 -6 6.49991 -3.6 -16.7001 1.7C-31.9001 5.2 -47.7001 15.1 -52.9001 22.1L-76.2001 43.4C-76.8001 47.8 -74.4001 54.9 -74.4001 54.9C-74.9001 56.1 -75.2001 57.4 -75.3001 58.8Z" fill="#217B56"/>
<path d="M6.39981 3.39999L10.9998 39.5L-32.4002 39.7C-41.3002 39.7 -46.1002 29.3 -40.3002 22.5C-26.1002 5.79999 -3.00019 3.89999 6.39981 3.39999Z" fill="#2E3A5B"/>
<path d="M10.0999 2.99998C10.0999 2.99998 43.6999 -2.30002 67.0999 11.4C80.5999 19.3 92.6999 27.7 104.5 38.9L14.3999 39.8L10.0999 2.99998Z" fill="#2E3A5B"/>
<path d="M99 44.2L103.2 58.8L102.6 100.1H104.6L105.4 58.5L101.3 44.2H99Z" fill="#066132"/>
<path d="M55.0999 0.799988H101.2C108.6 0.799988 115.9 2.39999 122.5 5.59999C143.9 15.8 180.8 38.5 180.8 38.5H116.6C113.3 38.5 110.1 37.2 107.7 35C93.6999 21.8 74.7999 8.79999 55.0999 0.799988Z" fill="#2E3A5B"/>
<path d="M69.3 39.7L93.4 39.6C97 39.6 96.4 26.6 82.8 26.6L71.7 26.7C70 26.7 68.3 27.4 67.1 28.6C65.9 29.8 65.2 31.5 65.2 33.2V35.7C65.2 36.8 65.6 37.8 66.4 38.6C67.2 39.2 68.2 39.7 69.3 39.7Z" fill="#066132"/>
<path d="M23.0998 100.4L13.2998 59.6V43.7" stroke="#066132" stroke-width="2.3112" stroke-miterlimit="10"/>
<path d="M48.8999 39.4L16.5999 39.7L26.5999 2C35.2999 2.1 46.3999 3.1 56.7999 6.7L48.8999 39.4Z" fill="#596481"/>
<path d="M99.6 0.799988H101.2C108.6 0.799988 115.9 2.39999 122.6 5.59999C128.7 8.49999 136 12.4 143.3 16.5L138 38.6H116.7C113.4 38.6 110.2 37.3 107.8 35.1C103.3 30.9 98.6 26.9 93.7 23.2L99.6 0.799988Z" fill="#596481"/>
<path d="M24.6998 55.4H40.3998V49.2H23.3998C22.9998 49.2 22.5998 49.4 22.2998 49.7C21.9998 50 21.7998 50.4 21.7998 50.8V52.6C21.7998 53 21.8998 53.3 21.9998 53.7C22.0998 54 22.3998 54.4 22.5998 54.6C22.8998 54.9 23.1998 55.1 23.4998 55.2C23.9998 55.3 24.3998 55.4 24.6998 55.4Z" fill="#066132"/>
<path opacity="0.7" d="M41.3998 36.3C41.2998 36.6 41.2998 36.9 41.1998 37.2L41.0998 37.4C40.8998 37.8 40.6998 38.2 40.4998 38.6L40.2998 38.9C40.1998 39 40.1998 39 40.0998 39.1L39.9998 39.2L39.8998 39.4C39.8998 39.4 39.6998 39.5 39.6998 39.6V39.7C39.5998 39.8 39.5998 39.8 39.4998 39.9C39.4998 39.9 39.4998 39.9 39.4998 40L39.3998 40.1C39.2998 40.1 39.2998 40.2 39.1998 40.2C38.9998 40.4 38.7998 40.6 38.4998 40.7C38.2998 40.9 38.0998 41 37.7998 41.2C37.9998 41 38.2998 40.9 38.4998 40.7C38.6998 40.5 38.8998 40.4 39.1998 40.2L39.3998 40.1C39.3998 40.1 39.4998 40.1 39.4998 40L39.5998 39.9C39.6998 39.8 39.7998 39.7 39.8998 39.6L39.9998 39.5L40.0998 39.4L40.1998 39.2L40.2998 39C40.3998 38.8 40.6998 38.6 40.7998 38.5C40.7998 38.4 40.7998 38.3 40.8998 38.2C41.0998 37.9 41.1998 37.7 41.2998 37.4L41.3998 37.2C41.4998 36.9 41.5998 36.6 41.6998 36.4C41.4998 36.3 41.4998 36.3 41.3998 36.3Z" fill="#C7C7C7"/>
<path d="M41.3999 36.4C41.3999 36.5 41.2999 36.9 41.1999 37.2C40.9999 37.6 40.7999 38.1 40.5999 38.5C40.5999 38.5 41.7999 36 41.6999 35.6L41.3999 36.4Z" fill="white"/>
<path d="M44.9999 19.8C44.7999 19.7 44.6999 19.6 44.4999 19.5C44.2999 19.4 44.2999 19.4 44.2999 19.4C43.0999 18.9 42.5999 16 41.4999 15.1L41.0999 14.9C40.6999 14.7 40.6999 14.2 40.2999 14L39.9999 13.8L39.5999 13.6C38.1999 13.4 36.6999 13 35.2999 12.5C35.0999 12.5 34.9999 12.5 34.7999 12.5C34.1999 12.5 33.6999 12.5 33.0999 12.5C32.8999 12.5 32.7999 12.5 32.6999 12.5C31.6999 12.6 30.9999 12.5 30.0999 12.5C29.9999 12.5 29.7999 12.5 29.6999 12.4C29.1999 12.3 28.5999 12 28.0999 11.7C27.9999 11.6 27.8999 11.6 27.6999 11.5C26.9999 11.5 26.4999 11.3 25.8999 11.3C25.7999 11.3 25.5999 11.3 25.4999 11.2C23.7999 11.6 25.4999 11.4 23.6999 12.1C23.4999 12.2 23.2999 12.3 23.1999 12.4C22.6999 12.7 22.0999 13 21.5999 13.3C22.0999 13 22.6999 12.7 23.1999 12.4L23.6999 12.1C25.4999 11.3 23.7999 11.5 25.3999 11.3C25.5999 11.3 25.6999 11.3 25.8999 11.3C26.4999 11.4 27.0999 11.4 27.6999 11.5C27.7999 11.6 27.8999 11.7 28.0999 11.7C28.5999 12 29.0999 12.2 29.6999 12.4C29.7999 12.4 29.9999 12.5 30.0999 12.5C31.1999 12.5 31.9999 12.7 32.9999 12.7C33.0999 12.7 33.2999 12.7 33.3999 12.7C33.7999 12.7 34.2999 12.6 34.6999 12.6H35.1999C36.5999 12.9 37.9999 13.2 39.3999 13.7L39.7999 13.9C39.8999 14 40.0999 14 40.1999 14.1C40.3999 14.2 40.3999 14.7 40.5999 14.8L40.9999 15C42.3999 15.8 42.8999 18.7 44.0999 19.5C44.1999 19.5 44.2999 19.6 44.2999 19.6C44.3999 19.6 44.5999 19.8 44.7999 19.9L44.9999 19.8Z" fill="white"/>
<path d="M44.7998 20.4C44.6998 20.3 44.6998 20.2 44.6998 20.1L44.5998 19.9C44.1998 19.1 43.9998 18.2 43.7998 17.3L43.6998 17C43.5998 16.7 43.4998 16.5 43.3998 16.2L43.2998 16L43.1998 15.8C42.6998 15.1 42.1998 14.3 41.6998 13.5L41.4998 13.3C41.2998 13.1 40.9998 12.8 40.7998 12.6L40.5998 12.4C40.1998 12 39.8998 11.6 39.4998 11.3L39.3998 11C39.1998 10.7 39.0998 10.4 38.8998 10L38.7998 9.70001C38.4998 9.40001 38.2998 9.10001 38.0998 8.80001L37.9998 8.70001C37.1998 8.20001 36.3998 7.80001 35.5998 7.50001C35.4998 7.50001 35.3998 7.40001 35.2998 7.40001C34.9998 7.30001 34.6998 7.20001 34.2998 7.10001C34.5998 7.20001 34.9998 7.30001 35.2998 7.40001C35.3998 7.40001 35.4998 7.50001 35.5998 7.50001C36.4998 7.80001 37.2998 8.20001 37.9998 8.70001L38.1998 8.90001C38.3998 9.20001 38.6998 9.50001 38.8998 9.80001L38.9998 10.1C39.0998 10.4 39.2998 10.8 39.4998 11.1L39.6998 11.3C40.1998 11.8 40.4998 12.2 40.8998 12.6C40.9998 12.7 40.9998 12.7 41.0998 12.8C41.2998 13 41.4998 13.2 41.6998 13.3L41.8998 13.5C42.3998 14.3 42.8998 15 43.2998 15.8L43.3998 16L43.4998 16.2C43.5998 16.4 43.5998 16.5 43.6998 16.7L43.7998 17C44.0998 18 44.3998 18.9 44.6998 19.8L44.7998 20C44.7998 20.1 44.8998 20.2 44.8998 20.3L44.7998 20.4Z" fill="white"/>
<path d="M45.1 20.4C45.2 20.5 45.3 20.6 45.4 20.7L45.5 20.8C46.2 21.5 47 22.2 47.8 22.8L48 23C48.2 23.2 48.5 23.4 48.7 23.6L48.9 23.8L49.1 24C49.7 24.9 50.3 25.7 51 26.6L51.2 26.9C51.4 27.2 51.5 27.6 51.7 28L51.8 28.3C52 28.9 52.3 29.4 52.6 29.9C52.7 30 52.7 30.1 52.8 30.2C53 30.5 53.3 30.8 53.6 31.1L53.8 31.3C54 31.7 54.2 32.1 54.5 32.4L54.7 32.7C55 33.7 55.1 34.7 55.1 35.8V36.2C55.1 36.6 55.1 36.9 55.1 37.3C55.1 36.9 55.1 36.5 55.1 36.2V35.8C55.1 34.8 54.9 33.8 54.6 32.8L54.4 32.5C54.2 32.1 54 31.8 53.7 31.4L53.5 31.2C53.2 30.9 52.9 30.6 52.7 30.3L52.5 30C52.2 29.3 51.8 28.8 51.5 28.2L51.4 27.9C51.3 27.6 51.2 27.3 51.1 27L51 26.6C50.4 25.8 49.8 24.9 49.1 24.1L48.9 23.9L48.7 23.7C48.6 23.6 48.4 23.4 48.3 23.3L48 23.1C47.2 22.3 46.3 21.6 45.5 20.9L45.3 20.8C45.2 20.7 45.1 20.6 45 20.5L45.1 20.4Z" fill="white"/>
<path d="M51.5 21C51.1 21.1 50.6 21.1 50.2 21C50 21 49.8 21 49.5 20.9C48.8 20.8 48.1999 20.7 47.5999 20.5C46.9999 20.3 46.4 20.1 45.7 20C45.4 19.9 45.1 19.8 44.7 19.8C44.5 19.8 44.4 19.8 44.2 19.8C44 19.8 43.8 19.8 43.7 19.9C43.5 19.9 43.2 19.9 43 20C42.9 20 42.8 20 42.7 20C41.7 20.1 40.7999 20.2 39.7999 20.1C39.6999 20.1 39.6 20.1 39.4 20.1C39.3 20.1 39.2 20.1 39 20C38.9 20 38.8 20 38.7 20C38.6 20 38.5 20 38.4 20H38.0999C37.9999 20 37.8999 20 37.7999 20C37.6999 20 37.6 20.1 37.4 20.1L37.0999 20.3C35.9999 20.4 35 20.7 34 21.3C33.9 21.4 33.8 21.4 33.7 21.5C32.9 21.7 32.2 22 31.5 22.4C31.4 22.5 31.3999 22.9 31.2999 23C30.4999 23.4 29.7 23.6 28.9 23.7L28.5 23.8L27.2999 24.2C24.5999 25.2 21.9 26.2 19.2 27.2C21.9 26.2 24.5999 25.2 27.2999 24.3C27.6999 24.2 28.1 24 28.5 23.9C28.6 23.9 28.8 23.8 28.9 23.8C29.7 23.7 30.5999 23.5 31.2999 23.1C31.3999 23 31.4 22.6 31.5 22.5C32.3 22.1 33.1999 21.7 34.0999 21.4C34.1999 21.3 34.3 21.3 34.4 21.2C35.3 20.8 36.2 20.6 37.2 20.4L37.5 20.3L37.7999 20.2C37.8999 20.2 37.9999 20.2 38.0999 20.2H38.4C38.5 20.2 38.6 20.2 38.7 20.2C38.8 20.2 38.9 20.2 39 20.2C39.1 20.2 39.2 20.2 39.4 20.2C39.5 20.2 39.5999 20.2 39.7999 20.2C40.6999 20.1 41.6 20.2 42.7 20.1C42.8 20.1 42.9 20.1 43 20.1C43.2 20.1 43.5 20.1 43.7 20C44.4 19.9 45 20 45.7 20.2C46.3 20.4 46.8999 20.6 47.5999 20.7C47.9999 20.8 48.4 20.9 48.9 21C49.1 21 49.2999 21.1 49.5999 21.1C50.2999 21.2 50.9999 21.2 51.5999 21.2L51.5 21Z" fill="white"/>
<path d="M44.4999 25.3C44.3999 25.4 44.2999 25.4 44.1999 25.5L43.9999 25.7L43.7999 25.9L43.6999 26L43.4999 26.2L43.2999 26.4L43.0999 26.7L42.9999 26.9C42.2999 27.6 41.7999 28.5 41.4999 29.4L41.3999 29.7C40.9999 30.3 40.6999 31 40.3999 31.6C40.3999 31.7 40.5999 32 40.5999 32.1C40.2999 32.8 39.8999 33.5 39.3999 34.1L39.1999 34.4L38.6999 35.4C37.3999 37.7 37.8999 36.5 36.5999 38.8C37.8999 36.5 37.3999 37.7 38.6999 35.4L39.1999 34.4L39.3999 34.1C39.8999 33.5 40.2999 32.8 40.5999 32.1C40.6999 32 40.3999 31.7 40.3999 31.6C40.6999 30.8 41.0999 30.1 41.4999 29.3L41.5999 29C41.9999 28.2 42.4999 27.5 42.9999 26.8L43.1999 26.5L43.3999 26.2L43.5999 26L43.7999 25.8L43.9999 25.6L44.1999 25.4L44.4999 25.2V25.3C44.5999 25.2 44.6999 25.1 44.7999 25L44.4999 25.3Z" fill="white"/>
<path d="M44.5999 19.5C44.0999 19.5 43.6999 19.4 43.2999 19.2C43.0999 19.1 42.9 19.1 42.7 19C42.1 18.8 41.5 18.5 41 18.1C40.4 17.8 39.8999 17.4 39.2999 17.1C38.9999 16.9 38.7 16.8 38.4 16.7C38.2 16.6 38.1 16.6 37.9 16.5C37.7 16.5 37.6 16.4 37.4 16.4C37.2 16.4 37 16.3 36.7 16.3C36.5 16.3 36.5 16.3 36.4 16.2C35.5 16.1 34.5 15.9 33.7 15.6C33.6 15.6 33.5 15.5 33.4 15.5C33.3 15.5 33.1999 15.4 33.0999 15.3L32.9 15.2C32.8 15.2 32.7 15.2 32.7 15.1C32.6 15 32.5 15.1 32.4 15.1C32.3 15.1 32.1999 15.1 32.0999 15.1H31.7C31.6 15.1 31.5 15.1 31.4 15.1C30.4 14.9 29.3 15 28.3 15.2C28.2 15.2 28.1 15.3 27.9 15.3C27.1 15.3 26.3 15.4 25.6 15.6C25.5 15.6 25.4 16.1 25.3 16.1C24.5 16.3 23.7 16.3 22.8 16.2C22.7 16.2 22.5 16.2 22.4 16.2C22 16.2 21.6 16.3 21.2 16.3C18.4 16.6 18 16.4 15.2 16.6C18 16.3 18.4 16.5 21.2 16.3L22.4 16.2C22.5 16.2 22.7 16.2 22.8 16.2C23.6 16.3 24.4 16.3 25.2 16.1C25.3 16.1 25.4 15.6 25.5 15.6C26.4 15.4 27.3 15.3 28.2 15.2C28.3 15.2 28.4 15.1 28.6 15.1C29.5 15 30.5 15 31.4 15.1C31.5 15.1 31.6 15.1 31.7 15.1C31.8 15.1 31.9 15.1 32 15.1C32.1 15.1 32.2 15.1 32.2 15.1C32.3 15.1 32.4 15.1 32.4 15.1L32.5999 15.2L32.7999 15.3C32.8999 15.3 32.9999 15.4 33.0999 15.4C33.1999 15.4 33.3 15.5 33.4 15.5C34.3 15.6 35.0999 16 36.0999 16.2L36.4 16.3C36.6 16.3 36.7999 16.4 37.0999 16.4C37.7999 16.5 38.4 16.7 38.9 17.1C39.5 17.4 39.9999 17.8 40.5999 18.1C40.9999 18.3 41.4 18.5 41.7 18.7C41.9 18.8 42.0999 18.9 42.2999 19C42.8999 19.3 43.6 19.5 44.2 19.6L44.5999 19.5Z" fill="white"/>
<path d="M44.7 20.5C44.8 21.1 44.9 21.7 45 22.4V23L45.0999 23.8L45.2999 25.9V26.1C45.3999 27.1 45.4999 27.9 45.5999 29V29.3C45.6999 30.8 45.6 32.4 45.5 33.9L45.2999 35.4V35.6C45.1999 36.1 45.1999 36.7 45.2999 37.2V37.5C45.3999 38.4 45.4 38.8 45.5 39.7C45.6 40.8 44.8 40.6 45 41.6C45.2 42.7 45.3 43.8 45.2 44.9C45.3 43.8 45.2 42.7 45 41.6C44.7 40.3 45.5 40.9 45.2 39.7C45 38.8 45.3999 38.4 45.2999 37.4V37.1C45.2999 36.6 45.2999 36 45.2999 35.5V35.3L45.5 33.8C45.7 32.2 45.6999 30.7 45.5999 29.1V28.8C45.5999 27.9 45.5 26.9 45.4 26V25.8L45.2 23.7L45 22.3V22C44.8 21.5 44.8999 20.9 44.7999 20.4L44.7 20.5Z" fill="#D6D4D4"/>
<path d="M44.7999 20.4C44.5999 21 44.3999 21.6 44.1999 22.2L44.0999 22.5C43.7999 23.3 43.9999 23.9 43.7999 24.6V24.9L43.6999 25.7V25.9C43.3999 26.8 43.3999 27.7 42.9999 28.6V28.8C42.7999 29.5 42.6999 30.2 42.4999 30.9C42.3999 31.6 42.1999 32.5 41.9999 33.3V33.6C41.8999 34.1 41.7999 34.7 41.6999 35.2V35.5L41.5999 36.3V36.6C41.5999 36.7 41.5999 36.7 41.5999 36.8V37.6V38.9L41.4999 40.2V40.9C41.4999 41.1 41.3999 41.3 41.3999 41.6C41.3999 41.4 41.4999 41.2 41.4999 40.9L41.5999 40.2L41.6999 38.9V37.6C41.6999 37.4 41.6999 37.2 41.6999 36.9V36.7C41.6999 36.6 41.6999 36.6 41.6999 36.5V36.2L41.7999 35.4V35.1C41.7999 34.6 41.8999 34 41.9999 33.5L42.0999 33.2C42.2999 32.4 42.3999 31.6 42.5999 30.8C42.7999 30 42.8999 29.4 43.0999 28.7L43.1999 28.4C43.3999 27.5 43.5999 26.6 43.8999 25.7V25.5C43.9999 25.1 43.9999 24.8 44.0999 24.4V24.1C43.9999 23.6 44.2999 23 44.2999 22.5L44.3999 22.2C44.6999 21.5 44.5999 20.9 45.0999 20.1L44.7999 20.4Z" fill="white"/>
<path d="M44.6 19.5C43.7 19.7 42.9 19.7 42 19.8C41.8 19.8 41.5 19.9 41.3 19.9C40.6 20.1 39.8 20.2 39.1 20.1C39 20.1 38.9 20.1 38.8 20.1C38.5 20.1 38.3 20.1 38 20.1C37.9 20.1 37.8 20.1 37.6 20.1C37.2 20.1 36.9 20.1 36.5 20.1C36.4 20.1 36.3 20.1 36.1 20.1C35.5 19.9 34.8 20.2 34.3 20C34.2 20 34.1 20 33.9 20C33.5 20 33.2 20 32.8 20C31.8 20 30.8 20.1 29.8 20.2C29.6 20.2 29.3 20.3 29.1 20.3C29 20.3 28.9 20.3 28.9 20.3C27.9 20.6 26.8 20.8 25.7 20.8C24.7 20.8 23.8 20.8 22.9 21C22.8 21 22.7 21 22.5 21L21 21.3C21.5 21.3 22 21.3 22.5 21.2C22.6 21.2 22.7 21.2 22.9 21.2C24.9 20.7 26.9 21.4 28.9 20.5C29 20.5 29.1 20.5 29.1 20.5C29.3 20.5 29.6 20.4 29.8 20.4C30.8 20.3 31.8 20.2 32.7 20.2C33.1 20.2 33.4 20.2 33.8 20.2C33.9 20.2 34 20.2 34.2 20.2C34.7 20.3 35.2 20.3 35.7 20.3C35.8 20.3 35.9 20.3 36.1 20.3C36.7 20.3 37.4 20.3 38 20.3C38.1 20.3 38.2 20.3 38.3 20.3H38.6C39.5 20.3 40.4 20.3 41.3 20.1C41.5 20.1 41.7 20 42 19.9C42.9 19.9 43.7 19.8 44.6 19.6V19.5Z" fill="#C7C7C7"/>
<path d="M44.6999 20.4C44.2999 20.9 43.8999 21.4 43.4999 21.9L43.2999 22.1C42.5999 22.5 42.1999 23.2 41.6999 23.8L41.4999 24C40.9999 24.6 40.5999 25.1 39.9999 25.6L39.7999 25.8C39.0999 26.4 38.4999 27.1 37.8999 27.8L37.6999 28L37.0999 28.7L36.8999 28.9C36.4999 29.2 36.1999 29.6 35.8999 30L35.6999 30.2C35.0999 31.2 34.1999 32.2 33.4999 33.4L33.2999 33.6L32.3999 34.9L31.3999 36.4L31.0999 36.8C30.9999 36.9 30.8999 37.1 30.7999 37.2C30.5999 37.5 30.4999 37.7 30.2999 38C29.6999 39 30.0999 37.7 29.5999 38.7C29.1999 39.6 28.6999 40.6 28.0999 41.9C28.6999 40.6 29.0999 39.7 29.5999 38.7C30.0999 37.7 29.6999 39 30.2999 38C30.3999 37.7 30.5999 37.5 30.7999 37.2C30.8999 37.1 30.9999 36.9 31.0999 36.8L31.3999 36.4L32.4999 34.9L33.3999 33.6L33.5999 33.4C34.0999 32.4 35.0999 31.5 35.6999 30.4L35.8999 30.2C36.1999 29.8 36.5999 29.4 36.9999 29L37.1999 28.8L37.7999 28.1L37.9999 27.9C38.5999 27.2 39.2999 26.5 39.9999 25.9L40.0999 25.8C40.1999 25.6 40.3999 25.5 40.4999 25.3L40.6999 25.1C40.9999 24.8 41.2999 24.4 41.5999 24.1C41.5999 24 41.6999 23.9 41.7999 23.9C42.2999 23.2 42.9999 22.7 43.4999 22.1C43.5999 22 43.5999 21.9 43.6999 21.9C44.0999 21.5 44.6999 21.1 44.8999 20.6L44.6999 20.4Z" fill="#C7C7C7"/>
<path d="M44.7 19.7C44.1 20.1 43.2 20.4 42.4 20.9C42.3 21 42.1 21.1 42 21.2C41.7 21.4 41.4 21.6 41.2 21.7C40.9 21.9 40.8 21.9 40.5 22C39.5 22.4 38.6 22.8 37.7 23.4L37 23.7C36.6 23.9 36.2 24.2 35.8 24.4C35.7 24.5 35.5 24.6 35.4 24.6C34.3 25.3 33 25.8 32 26.6C31.9 26.7 31.8 26.8 31.7 26.9L31.4 27.1C31.3 27.2 31.2 27.2 31.1 27.3L30.2 27.8C30.1 27.9 30 27.9 29.9 28C28.8 28.5 27.7 29.1 26.7 29.7L26.4 29.9C26.1 30 25.7 30.2 25.4 30.3C24 30.9 25 31.1 23.7 31.8C23 32.2 22.7 32.5 22.1 32.8L21.6 33C21.4 33.1 21.3 33.2 21.1 33.3C20.8 33.5 21.2 33.4 20.8 33.5C19.5 34.1 17.8 36 16.5 36.6C17.8 36 19.5 34.1 20.8 33.5C21.1 33.3 20.7 33.4 21.1 33.3C21.3 33.2 21.4 33.1 21.6 33L22.1 32.7C22.7 32.3 23.1 32 23.7 31.7C25 31 24 30.8 25.4 30.2C25.7 30.1 26.1 29.9 26.4 29.8C26.5 29.8 26.6 29.7 26.7 29.6C27.8 29.1 28.9 28.4 30 27.8L30.2 27.7L30.7 27.4C30.8 27.3 30.9 27.3 31 27.2C31.2 27.1 31.4 26.9 31.7 26.8L32 26.6C33.2 25.8 34.2 25.3 35.4 24.6C35.5 24.5 35.6 24.5 35.7 24.4C36.1 24.2 36.5 23.9 36.9 23.7C37.1 23.6 37.3 23.5 37.5 23.4C38.5 22.7 39.5 22.5 40.4 21.9C40.6 21.8 40.8 21.7 41.1 21.6C41.4 21.4 41.7 21.3 41.9 21.1C42 21 42.2 20.9 42.3 20.8C43.1 20.3 44 20.1 44.6 19.7H44.7Z" fill="#D6D4D4"/>
<path d="M28.0999 15.2C27.6999 15.4 27.2999 15.7 26.9999 16.1C26.9999 16.2 26.8999 16.2 26.7999 16.3C26.5999 16.8 26.6999 17.1 26.5999 17.5C26.5999 17.6 26.3999 17.8 26.3999 17.9C26.3999 18 26.2999 18 26.2999 18.1C26.1999 19.2 26.6999 20.3 26.5999 21.5L26.6999 21.8L26.8999 23C26.9999 23.3 26.9999 23.6 27.0999 23.9V24L27.1999 24.3C27.3999 25.3 27.6999 26.2 27.9999 27.1L28.0999 27.4L28.1999 27.7C28.2999 28 28.4999 28.3 28.5999 28.6C28.5999 28.6 28.5999 28.6 28.6999 28.6C28.4999 28.3 28.3999 28 28.2999 27.7L28.1999 27.4L28.0999 27L27.9999 26.7C27.6999 25.9 27.3999 25.1 27.2999 24.2L27.1999 23.9V23.8C27.0999 23.5 26.9999 23.2 26.9999 22.9L26.7999 21.7V21.4C26.7999 20.2 26.2999 19.1 26.4999 18C26.4999 17.9 26.5999 17.9 26.5999 17.8C26.5999 17.7 26.7999 17.5 26.7999 17.4C26.8999 16.9 26.7999 16.6 26.9999 16.2C26.9999 16.1 27.0999 16.1 27.1999 16C27.2999 15.7 27.6999 15.4 28.0999 15.2Z" fill="#C7C7C7"/>
<path d="M17.8999 32.5C18.3999 32.7 20.2999 32.3 20.7999 32.6C20.3999 32.2 18.3999 32.6 17.8999 32.5Z" fill="#C7C7C7"/>
<path d="M17.4998 30.8C17.1998 30.3 17.2998 29.9 16.9998 29.5C16.9998 29.4 16.6998 29.2 16.6998 29.2C16.6998 29.1 16.5998 29.1 16.5998 29C16.1998 27.8 16.4998 26.4 16.2998 25.1V24.8C16.2998 24.3 16.2998 23.9 16.2998 23.4C16.2998 23.1 16.2998 22.7 16.3998 22.4V22.2V21.8C16.3998 20.8 16.4998 19.8 16.6998 18.8L16.7998 18.4L16.8998 18L16.9998 17.6C16.9998 17.2 17.0998 16.8 17.2998 16.5C17.2998 16.5 17.2998 16.5 17.1998 16.5C17.0998 16.9 16.8998 17.2 16.8998 17.6V18V18.4C16.6998 19.5 16.5998 20.7 16.4998 21.8V22.2V22.4C16.4998 22.7 16.3998 23.1 16.3998 23.4V25C16.6998 26.3 16.3998 27.7 16.7998 28.9C16.7998 29 16.8998 29 16.8998 29.1C16.8998 29.2 17.1998 29.4 17.1998 29.4C17.2998 30 17.2998 30.4 17.4998 30.8C17.5998 30.9 17.6998 30.9 17.7998 31C18.3998 31.4 17.3998 32.2 17.9998 32.4C17.4998 32.2 18.4998 31.3 17.8998 31C17.6998 30.9 17.5998 30.9 17.4998 30.8Z" fill="#C7C7C7"/>
<path d="M21.1 32.7C21 32.7 20.8999 32.7 20.7999 32.7H20.7L20.7999 32.8L21.1 32.7C21.3 32.8 21.5999 32.8 21.7999 32.8C21.9999 32.8 22.3 32.7 22.5 32.6C22.1 32.7 21.6 32.8 21.1 32.7Z" fill="#C7C7C7"/>
<path opacity="0.5" d="M17.8999 32.4C19.2999 32.9 20.2999 32.2 20.6999 32.6C20.3999 32.2 18.3999 32.6 17.8999 32.4Z" fill="white"/>
<path opacity="0.5" d="M21.1 32.7C21 32.7 20.8999 32.7 20.7999 32.7H20.7L20.7999 32.8L21.1 32.7C21.5 32.8 22 32.8 22.4 32.5C22 32.7 21.6 32.7 21.1 32.7Z" fill="white"/>
<path opacity="0.5" d="M16.9999 18.5L17.0999 18.1L17.1999 17.7C17.1999 17.2 17.2999 16.8 17.3999 16.4H17.2999C17.1999 16.8 17.0999 17.2 16.9999 17.7L16.8999 18.1L16.9999 18.5C16.7999 19.3 16.6999 20.1 16.5999 20.9C16.6999 20.4 16.7999 19.9 16.7999 19.3C16.7999 19.1 16.8999 18.6 16.9999 18.5Z" fill="white"/>
<path opacity="0.5" d="M17.7998 30.7C17.4998 30.3 17.2998 29.4 17.0998 28.9L16.9998 28.7C16.9998 28.6 16.8998 28.6 16.8998 28.5C16.4998 27.4 16.6998 26 16.3998 24.7V24.4C16.3998 24 16.5998 23.6 16.5998 23.1C16.5998 22.8 16.4998 22.6 16.5998 22.3V22.1V21.8C16.5998 21.5 16.5998 21.2 16.5998 20.8L16.4998 21.8V22.1V22.3C16.4998 22.6 16.4998 22.8 16.4998 23.1C16.4998 23.5 16.2998 23.9 16.2998 24.4V24.7C16.5998 26 16.3998 27.3 16.7998 28.5C16.7998 28.6 16.8998 28.6 16.8998 28.7L16.9998 29C17.1998 29.4 17.4998 30.3 17.7998 30.7C17.7998 30.8 17.8998 30.9 17.8998 31C18.3998 31.3 18.8998 31.6 19.4998 31.8C18.9998 31.6 18.4998 31.3 17.9998 31C17.8998 30.9 17.7998 30.8 17.7998 30.7Z" fill="white"/>
<path d="M53.3999 18.9C53.0999 17.7 52.0999 13 50.7999 12.6C50.6999 12.5 50.5999 12.5 50.4999 12.4L50.1999 12.2C49.3999 11.5 48.0999 11 47.3999 10.1L47.0999 9.89999L46.8999 9.69999C46.4999 9.49999 45.9999 9.39999 45.5999 9.29999C45.0999 9.29999 44.6999 9.29999 44.1999 9.49999C44.0999 9.49999 43.9999 9.59999 43.8999 9.59999C42.8999 9.99999 41.9999 10.5 41.0999 11.2L40.7999 11.5L40.4999 11.8C39.6999 12.6 38.9999 13.4 38.2999 14.2L38.0999 14.5L37.9999 14.6C37.7999 14.8 37.4999 15.1 37.2999 15.4L36.4999 16.5L36.2999 16.8C35.7999 18 34.6999 18.9 34.3999 20.1C34.3999 20.2 34.3999 20.3 34.3999 20.4C34.3999 20.5 34.4999 20.8 34.4999 20.9C34.3999 21.4 34.1999 21.7 34.0999 22.3C34.0999 22.4 34.1999 22.5 34.1999 22.6C34.5999 23.9 35.5999 24.6 35.6999 25.9L35.8999 26.1C36.1999 26.5 36.5999 26.8 37.0999 26.9C36.5999 26.7 36.1999 26.5 35.8999 26.1L35.6999 25.9C35.3999 24.6 34.6999 23.8 34.1999 22.6C34.1999 22.5 34.0999 22.4 34.0999 22.3C34.1999 21.7 34.3999 21.5 34.4999 20.9C34.4999 20.8 34.3999 20.5 34.3999 20.4C34.3999 20.3 34.3999 20.2 34.3999 20.2C34.7999 19 35.7999 18.1 36.3999 16.9L36.5999 16.6L37.3999 15.5C37.5999 15.2 37.7999 15 38.0999 14.7L38.1999 14.6L38.3999 14.3C38.9999 13.5 39.5999 12.8 40.3999 12.2L40.6999 11.9L40.9999 11.6L41.2999 11.3C41.9999 10.5 43.0999 10.3 43.9999 9.79999C44.0999 9.79999 44.1999 9.69999 44.2999 9.69999C45.1999 9.39999 46.1999 9.19999 46.9999 9.89999L47.1999 10.1L47.4999 10.3C48.3999 11.1 49.2999 11.8 50.2999 12.4L50.5999 12.6C50.6999 12.6 50.7999 12.7 50.8999 12.7C51.8999 13.5 52.4999 14.7 52.5999 15.9L53.3999 18.9Z" fill="#C7C7C7"/>
<path opacity="0.5" d="M52.8998 18C52.5998 16.8 51.5998 13.2 50.7998 12.7C50.6998 12.6 50.3998 12.6 50.2998 12.5C50.1998 12.4 49.4998 12.1 49.3998 12C48.5998 11.3 47.9998 11.2 47.1998 10.5L46.9998 10.3C46.8998 10.2 46.5998 9.8 46.4998 9.8C46.0998 9.6 45.5998 9.5 45.1998 9.5C44.6998 9.5 44.2998 9.6 43.8998 9.7C43.7998 9.7 43.6998 9.8 43.5998 9.8C42.6998 10.2 41.8998 10.8 41.1998 11.5C41.0998 11.6 40.9998 11.7 40.8998 11.8L40.5998 12.1C39.7998 12.8 38.9998 13.6 38.2998 14.5L38.0998 14.8H37.9998C37.7998 15 37.6998 15.2 37.5998 15.5C37.2998 15.8 36.9998 16.1 36.6998 16.4L36.4998 16.7C35.9998 17.9 35.0998 18.8 34.6998 20C34.6998 20.1 34.6998 20.2 34.6998 20.2V20.4C34.5998 20.9 34.2998 21.7 34.2998 22.3V22.6C34.6998 23.9 35.4998 24.5 35.5998 25.8L35.7998 26C36.0998 26.4 36.4998 26.7 36.8998 26.8C36.4998 26.6 36.0998 26.4 35.7998 26L35.5998 25.8C35.2998 24.5 34.6998 23.8 34.2998 22.6C34.2998 22.5 34.2998 22.4 34.2998 22.3C34.3998 21.8 34.6998 21 34.7998 20.4V20.2V20C35.0998 18.8 35.9998 17.9 36.5998 16.7L36.7998 16.4C36.9998 16.1 37.3998 15.8 37.6998 15.5C37.7998 15.3 37.9998 15 38.0998 14.8L38.1998 14.7L38.3998 14.5C38.8998 13.8 39.4998 13.2 40.0998 12.6C40.1998 12.5 40.5998 12.2 40.6998 12.1L40.9998 11.8L41.2998 11.5C41.9998 10.8 42.6998 10.2 43.5998 9.8C43.6998 9.8 43.7998 9.7 43.8998 9.7C44.7998 9.4 45.7998 9.1 46.4998 9.8C46.5998 9.9 46.8998 10.3 46.9998 10.3L47.1998 10.5C47.9998 11.3 48.0998 11 48.8998 11.6C48.9998 11.7 50.0998 12.5 50.1998 12.5C50.2998 12.6 50.6998 12.5 50.7998 12.6C51.6998 13.4 52.1998 14.6 52.2998 15.8L52.8998 18Z" fill="white"/>
<path d="M45.3 36.3C44.4 36.5 43.7 36.3 42.9 36.5H42.6C42.5 36.5 42.4 36.5 42.3 36.5H42.1C42 36.5 42 36.5 41.9 36.5C41.8 36.5 41.7 36.5 41.6 36.5C39.2 36.1 36.8 36 34.6 35.2C34.5 35.2 34.4 35.1 34.3 35.1C34.2 35.1 34.1 35 34 35C32.6 34 31.3 32.8 30.2 31.5L30 31.3L29.3 30.6L28.4 29.7C28.1 29.4 27.8 29.1 27.5 28.8C27.8 29.1 28.1 29.4 28.4 29.6L29.3 30.5L30 31.2C30.1 31.3 30.2 31.6 30.2 31.7C31.4 32.8 32.6 33.9 34 34.9C34.1 34.9 34.2 35 34.3 35C34.4 35 34.5 35.1 34.6 35.1C36.9 35.7 39.2 36 41.6 36.5C41.7 36.5 41.8 36.5 41.9 36.5C42 36.5 42 36.5 42.1 36.5H42.3C42.4 36.5 42.5 36.5 42.6 36.5H42.8C43.6 36.5 44.4 36.5 45.3 36.3V36.3Z" fill="#C7C7C7"/>
<path d="M30.7999 27.5C30.6999 26.8 30.5999 26.1 30.3999 25.4L30.2999 24.9C30.1999 23.3 28.7999 21.4 28.6999 19.8C28.6999 19.6 28.6999 19.4 28.6999 19.3C29.0999 17.7 30.4999 16.6 30.8999 14.9C30.0999 16.4 28.9999 17.6 28.5999 19.4C28.5999 19.6 28.5999 19.8 28.5999 19.9C28.6999 21.8 30.2999 23.6 30.2999 25.5L30.4999 26.1C30.5999 26.5 30.6999 26.9 30.7999 27.3V27.5Z" fill="white"/>
<path d="M41.8999 33.8C41.4999 33.7 40.9999 33.6 40.5999 33.5L40.2999 33.4C39.3999 33.1 37.7999 33.3 36.8999 33C36.7999 33 36.6999 32.9 36.5999 32.9C35.8999 32.3 35.7999 31.3 34.8999 30.8C35.3999 31.6 35.6999 32.4 36.4999 33C36.5999 33 36.6999 33.1 36.7999 33.1C37.8999 33.5 39.4999 33.1 40.4999 33.5C40.5999 33.5 40.6999 33.5 40.8999 33.6L41.6999 33.7L41.8999 33.8Z" fill="white"/>
<path d="M23.8 16.2C23.6 16.3 23.3 16.3 23.2 16.4L23.1 16.5C22.9 16.6 22.7 16.8 22.4 16.9C22.2 17 21.9 17.1 21.7 17.2C21.5 17.3 21.2 17.3 21 17.4C20.5 17.6 22.3 17.3 21.8 17.5C21.3 17.7 15.2 21 14.7 21.2C15.2 21 21.3 17.7 21.8 17.5C22.3 17.3 20.5 17.6 21 17.4C21.3 17.3 21.5 17.3 21.7 17.2C21.9 17.1 22.2 17.1 22.4 16.9C22.6 16.8 22.8 16.6 23.1 16.5L23.2 16.4C23.4 16.3 23.6 16.3 23.8 16.2Z" fill="#C7C7C7"/>
<path d="M28.6998 28.7C27.8998 29 27.0998 28.9 26.2998 29.2C26.1998 29.2 26.0998 29.2 25.9998 29.2C25.5998 29.2 25.0998 29.3 24.6998 29.3C24.2998 29.4 23.7998 29.5 23.3998 29.6L22.7998 29.8L22.1998 30C21.7998 30.2 21.3998 30.3 20.9998 30.5C20.1998 30.8 21.6998 30.6 20.7998 30.9C21.5998 30.6 20.1998 30.8 20.9998 30.5C21.3998 30.4 21.7998 30.2 22.1998 30L22.7998 29.8C22.9998 29.7 23.1998 29.6 23.3998 29.6C23.7998 29.5 24.1998 29.3 24.6998 29.3C25.0998 29.2 25.4998 29.2 25.9998 29.2C26.0998 29.2 26.1998 29.2 26.2998 29.2C26.9998 29.1 27.6998 29 28.3998 28.8L28.6998 28.7Z" fill="#C7C7C7"/>
<path opacity="0.7" d="M27.2998 35.5C27.7998 35.9 28.2998 36.3 28.7998 36.7C29.2998 37.1 29.8998 37.4 30.3998 37.7C30.4998 37.8 30.6998 37.9 30.7998 38C30.8998 38 30.8998 38.1 30.9998 38.1L31.1998 38.2C31.2998 38.3 31.4998 38.4 31.5998 38.4C31.6998 38.5 31.8998 38.5 31.9998 38.6C32.6998 38.9 33.2998 39.2 33.9998 39.4L34.3998 39.5C35.5998 39.9 36.9998 40 38.3998 40.3H38.6998H38.9998C39.1998 40.3 39.2998 40.3 39.3998 40.4C39.4998 40.5 39.6998 40.5 39.7998 40.5C39.8998 40.5 40.0998 40.6 40.1998 40.6C40.0998 40.5 39.8998 40.5 39.7998 40.5C39.6998 40.5 39.4998 40.4 39.3998 40.4C39.2998 40.4 39.0998 40.3 38.9998 40.3C38.7998 40.3 38.7998 40.3 38.6998 40.2C38.5998 40.1 38.4998 40.2 38.3998 40.2C36.9998 40 35.7998 40 34.3998 39.6C34.2998 39.5 34.0998 39.5 33.9998 39.4C33.3998 39.1 32.6998 38.8 32.0998 38.6C31.9998 38.5 31.7998 38.5 31.6998 38.4C31.5998 38.3 31.3998 38.3 31.2998 38.2C31.1998 38.2 31.1998 38.1 31.0998 38.1L30.8998 37.9L30.4998 37.6C29.9998 37.3 29.3998 36.9 28.8998 36.6C28.2998 36.3 27.7998 35.9 27.2998 35.5Z" fill="#C7C7C7"/>
<path d="M29.3999 36.4C29.5999 36.6 29.7999 36.8 29.9999 36.9L30.5999 37.4L30.6999 37.5L30.7999 37.6L30.8999 37.7C30.9999 37.7 30.9999 37.8 31.0999 37.8L31.2999 37.9C31.5999 38.1 31.7999 38.2 32.0999 38.3L32.2999 38.4C32.7999 38.6 33.3999 38.8 33.8999 39H33.9999H34.0999L34.2999 39.1L34.4999 39.2C34.5999 39.2 34.5999 39.2 34.6999 39.3C34.5999 39.3 34.5999 39.2 34.4999 39.2C34.3999 39.2 34.3999 39.2 34.2999 39.1H33.9999H33.8999H33.7999C33.1999 38.8 32.6999 38.7 32.0999 38.5L31.8999 38.4C31.5999 38.3 31.3999 38.1 31.1999 38L30.9999 37.7C30.8999 37.7 30.8999 37.6 30.8999 37.6L30.7999 37.5L30.6999 37.4L30.4999 37.3C30.2999 37.1 30.0999 37 29.8999 36.8C29.7999 36.7 29.5999 36.6 29.3999 36.4Z" fill="#C7C7C7"/>
<path d="M43.7 30.8C44.2 30.7 44.7 30.6 45.2 30.5C45.7 30.4 46.2 30.2 46.7 30.1C46.8 30.1 46.8999 30 47.0999 30H47.2999C47.3999 30 47.4 30 47.5 30C47.6 30 47.7 29.9 47.9 29.9L48.2999 29.8C48.7999 29.6 49.4 29.3 49.9 29L50.2 28.8C51.1 28.3 52 27.5 52.9 26.8L53.0999 26.6C53.1999 26.5 53.1999 26.5 53.2999 26.4L53.5999 26.2C53.6999 26.1 53.8 26.1 53.9 26C54 25.9 54.1 25.9 54.2 25.8C54.1 25.9 54 25.9 53.9 26H53.4L53.0999 26.2L52.9 26.4L52.7 26.6C51.6 27.3 50.9 28 49.9 28.7C49.8 28.8 49.6999 28.8 49.5999 28.9C49.0999 29.2 48.5999 29.4 48.0999 29.7C47.9999 29.8 47.8999 29.8 47.7999 29.8C47.6999 29.8 47.6 29.9 47.4 29.9C47.3 29.9 47.3 29.9 47.2 29.9C47.1 29.9 47.1 29.9 47 29.9C46.9 29.9 46.6999 30 46.5999 30C46.0999 30.1 45.5999 30.3 45.0999 30.5C44.6999 30.6 44.2 30.7 43.7 30.8Z" fill="#C7C7C7"/>
<path d="M45.2998 30C45.4998 30 45.6998 30 45.8998 30C46.0998 30 46.2998 29.9 46.4998 29.9C46.5998 29.9 46.5998 29.9 46.6998 29.9C46.6998 29.9 46.6998 29.9 46.7998 29.9H46.8998C46.8998 29.9 46.9998 29.9 47.0998 29.9H47.1998C47.3998 29.8 47.5998 29.7 47.8998 29.7L47.9998 29.6C48.3998 29.4 48.7998 29.1 49.1998 28.9L49.2998 28.8L49.3998 28.7L49.4998 28.6L49.5998 28.5C49.5998 28.5 49.6998 28.5 49.6998 28.4L49.5998 28.5L49.4998 28.6L49.3998 28.7H49.2998L49.1998 28.8C48.6998 29 48.3998 29.3 47.8998 29.5H47.7998C47.5998 29.6 47.2998 29.6 47.0998 29.7C46.9998 29.7 46.9998 29.7 46.8998 29.7H46.7998C46.7998 29.7 46.7998 29.7 46.6998 29.7H46.5998C46.4998 29.7 46.4998 29.7 46.3998 29.7C46.1998 29.7 45.9998 29.8 45.7998 29.8C45.6998 29.9 45.4998 30 45.2998 30Z" fill="#C7C7C7"/>
<path d="M52.1999 22.9C50.7999 23.9 49.2999 24.9 47.7999 26C47.5999 26.1 47.4999 26.3 47.2999 26.4C47.0999 26.5 47.0999 26.5 46.9999 26.6C46.8999 26.7 46.7999 26.7 46.6999 26.8C45.6999 27.5 44.7999 26.9 43.9999 26.5C43.8999 26.5 43.7999 26.4 43.6999 26.4C43.3999 26.3 43.0999 26.2 42.7999 26.1C42.6999 26.1 42.5999 26.1 42.4999 26.1C41.5999 25.9 40.3999 26.3 39.3999 25.8C39.2999 25.8 39.2999 25.7 39.1999 25.7C38.7999 25.5 38.5999 25.2 38.3999 24.9C38.2999 24.8 38.2999 24.8 38.1999 24.7L37.8999 24.1L37.5999 23.5C37.4999 23.1 37.0999 22.7 37.0999 22.3L36.8999 21.7V21.4V21L37.0999 20.7L37.2999 20.4C37.5999 19.4 38.1999 18.5 38.9999 17.8L39.1999 17.6L39.3999 17.5C40.4999 16.8 41.4999 16 42.5999 15.4L42.8999 15.2L43.1999 15L44.2999 14.1L44.4999 13.9C44.4999 13.8 44.5999 13.7 44.6999 13.7C44.7999 13.6 44.8999 13.6 44.8999 13.6C44.7999 13.6 44.6999 13.6 44.6999 13.7C44.5999 13.8 44.5999 13.8 44.4999 13.9L44.5999 14L43.3999 14.9L43.1999 15L42.8999 15.2C41.7999 15.8 40.6999 16.7 39.5999 17.3L39.4999 17.4H39.3999L39.1999 17.6C38.3999 18.3 37.7999 19.2 37.3999 20.2L37.1999 20.5L36.9999 20.9V21.2V21.5C37.0999 21.7 37.0999 22 37.1999 22.2C37.1999 22.6 37.5999 23 37.6999 23.4L37.9999 24L38.2999 24.6L38.4999 24.8C38.6999 25.2 39.0999 25.5 39.4999 25.7C39.5999 25.7 39.6999 25.8 39.7999 25.8C40.5999 25.9 41.4999 26 42.2999 26.1C42.3999 26.1 42.4999 26.1 42.6999 26.1C43.0999 26.1 43.5999 26.2 43.8999 26.4C43.9999 26.4 44.0999 26.5 44.1999 26.6C44.5999 26.9 44.9999 27 45.4999 27C45.9999 27 46.3999 26.9 46.8999 26.7C46.9999 26.6 47.0999 26.6 47.1999 26.5C47.2999 26.4 47.3999 26.4 47.4999 26.3C47.5999 26.2 47.7999 26 47.9999 25.9C49.2999 24.9 50.6999 23.9 52.1999 22.9Z" fill="#C7C7C7"/>
<path opacity="0.7" d="M41.7 13.5C41.6 13.9 41.5 14.2 41.4 14.5L41.3 14.7C41.1 15.2 40.9 15.6 40.6 16C40.6 16.1 40.5 16.3 40.4 16.3C40.3 16.3 40.3 16.3 40.2 16.5L40.1 16.7L40 16.9C40 16.9 39.8 17 39.8 17.1V17.2C39.7 17.3 39.7 17.3 39.6 17.4L39.5 17.5L39.4 17.6L39.2 17.7C39 17.9 38.8 18.1 38.6 18.2C38.4 18.4 38.2 18.5 38 18.7C38.2 18.5 38.4 18.4 38.6 18.2C38.8 18 39 17.9 39.2 17.7L39.3 17.6L39.4 17.5L39.5 17.4C39.6 17.3 39.7 17.2 39.8 17.1L39.9 17L40 16.9C40 16.8 40.1 16.8 40.1 16.7L40.2 16.5C40.4 16.3 40.6 16.1 40.7 15.9C40.7 15.8 40.8 15.7 40.8 15.6C41 15.3 41.1 15 41.3 14.6L41.4 14.4C41.5 14.1 41.7 13.7 41.8 13.4L41.7 13.5Z" fill="#C7C7C7"/>
<path opacity="0.3" d="M41.7999 13.7C41.7999 13.8 41.6999 14.1 41.5999 14.3C41.4999 14.5 41.4 14.7 41.4 14.9C41.3 15.2 41.1999 15.4 41.0999 15.6C40.9999 15.7 41 15.8 40.9 15.9C40.8 16 40.7 16.2 40.7 16.4H40.7999C40.8999 16.1 41.0999 15.7 41.2999 15.4C41.2999 15.4 41.4 15 41.5 14.7C41.6 14.4 41.6999 14.1 41.7999 13.9C41.8999 13.9 41.8999 13.9 41.7999 13.7Z" fill="#C7C7C7"/>
<path d="M41.7 13.6C41.7 13.7 41.5 14.2 41.4 14.5C41.2 15 41 15.5 40.7 16C40.7 16 41.7 14 41.7 13.5V13.6Z" fill="white"/>
<path opacity="0.7" d="M41.7999 14.4C41.6999 14.6 41.5999 14.9 41.4999 15.2C41.3999 15.4 41.3999 15.6 41.2999 15.7C41.1999 15.9 41.0999 16.1 40.8999 16.3L40.9999 16.2C40.9999 16.2 41.2999 15.7 41.3999 15.6C41.4999 15.4 41.5999 15.1 41.5999 14.9C41.6999 14.7 41.6999 14.6 41.7999 14.4Z" fill="white"/>
<path opacity="0.7" d="M18.7 31.5C18.5 31 18.4 30.6 18.2 30.2V30C18 29.4 17.8 28.8 17.7 28.2L17.6 27.7C17.6 27.5 17.6 27.6 17.6 27.4V27.1V26.8C17.6 26.7 17.6 26.5 17.6 26.5C17.6 26.4 17.5 26.4 17.5 26.3V26V25.5C17.5 25.2 17.5 24.8 17.5 24.5C17.5 24.2 17.5 23.9 17.5 23.6C17.5 23.9 17.5 24.2 17.5 24.5V26V26.5V26.7V26.9V27.2V27.5C17.6 27.8 17.5 28.1 17.6 28.4C17.6 28.5 17.7 28.7 17.7 28.8C17.8 29.2 17.9 29.7 18.1 30.1L18.2 30.4C18.4 30.7 18.5 31.1 18.7 31.5Z" fill="#C7C7C7"/>
<path d="M18.7 31.4C18.6 31.3 18.3999 30.6 18.2999 30.3C18.0999 29.6 17.9 29 17.7 28.3C18 29.4 18.4 30.5 18.9 31.6L18.7 31.4Z" fill="white"/>
<path opacity="0.7" d="M30.2999 31.6C30.2999 31.3 30.3999 30.9 30.3999 30.6V30.4C30.4999 30 30.5999 29.6 30.7999 29.2C30.7999 29.1 30.8999 28.9 30.8999 28.9C30.8999 28.8 30.9999 28.9 30.9999 28.7L31.0999 28.5L31.1999 28.3C31.1999 28.3 31.2999 28.2 31.3999 28.1V28C31.3999 27.9 31.4999 27.9 31.4999 27.8C31.4999 27.8 31.4999 27.8 31.4999 27.7L31.5999 27.6L31.6999 27.5L32.0999 27C32.1999 26.8 32.3999 26.7 32.4999 26.5C32.3999 26.6 32.1999 26.8 32.0999 27L31.6999 27.5L31.5999 27.6L31.4999 27.7L31.3999 27.8C31.2999 27.9 31.2999 28 31.1999 28.1L31.0999 28.2L30.9999 28.3L30.8999 28.5L30.9999 28.7C30.8999 28.9 30.7999 29 30.6999 29.2C30.6999 29.3 30.6999 29.4 30.6999 29.5C30.5999 29.8 30.4999 30.1 30.4999 30.4V30.6C30.2999 30.9 30.1999 31.2 30.2999 31.6C30.1999 31.5 30.1999 31.5 30.2999 31.6Z" fill="#C7C7C7"/>
<path opacity="0.3" d="M29.2999 30.6C29.2999 30.4 29.3 30.2 29.4 30C29.4 29.8 29.5 29.6 29.5 29.4C29.5 29.2 29.6 29 29.6 28.7L29.7 28.4C29.8 28.3 29.7999 28.1 29.7999 28H29.7C29.6 28.3 29.5 28.6 29.4 28.9C29.4 28.9 29.3999 29.3 29.2999 29.6L29.2 30.3C29.3 30.4 29.2999 30.5 29.2999 30.6Z" fill="#C7C7C7"/>
<path d="M30.2998 31.5C30.2998 31.4 30.3998 30.9 30.3998 30.7C30.4998 30.2 30.5998 29.8 30.7998 29.3C30.5998 30.1 30.3998 30.8 30.3998 31.6L30.2998 31.5Z" fill="white"/>
<path opacity="0.7" d="M45.3998 35.2C45.6998 35 46.0998 34.9 46.3998 34.7C46.4998 34.7 46.4998 34.6 46.5998 34.6C47.0998 34.4 47.4998 34.3 47.9998 34.1C48.0998 34.1 48.2998 34 48.3998 34C48.4998 34 48.4998 34 48.5998 34C48.6998 34 48.6998 34 48.7998 34C48.8998 34 48.8998 34 48.9998 34C49.0998 34 49.1998 34 49.1998 34L49.2998 33.9C49.3998 33.9 49.4998 33.9 49.4998 33.9H49.5998H49.6998H49.8998C50.0998 33.9 50.3998 33.9 50.5998 33.9C50.7998 33.9 50.9998 33.9 51.2998 33.9C51.0998 33.9 50.8998 33.9 50.5998 33.8C50.3998 33.8 50.0998 33.8 49.8998 33.8C49.7998 33.8 49.7998 33.8 49.6998 33.8C49.6998 33.8 49.6998 33.8 49.5998 33.8H49.4998C49.3998 33.8 49.2998 33.8 49.0998 33.8H48.9998H48.8998C48.7998 33.8 48.7998 33.8 48.6998 33.8C48.5998 33.8 48.5998 33.8 48.4998 33.8C48.2998 33.8 47.9998 33.8 47.7998 33.9C47.6998 33.9 47.5998 34 47.4998 34C47.1998 34.1 46.7998 34.2 46.4998 34.4C46.3998 34.4 46.3998 34.5 46.2998 34.5C45.9998 34.6 45.6998 34.7 45.2998 34.9C45.4998 35.1 45.4998 35.1 45.3998 35.2Z" fill="#C7C7C7"/>
<path d="M45.4999 35.1C45.5999 35 46.0999 34.8 46.3999 34.7C46.8999 34.5 47.3999 34.3 47.8999 34.1C46.9999 34.4 46.1999 34.8 45.3999 35.2L45.4999 35.1Z" fill="white"/>
<path opacity="0.7" d="M31.3999 35.9C31.5999 35.9 31.7999 35.9 32.0999 35.9H32.1999C32.4999 35.9 32.7999 35.9 32.9999 36H33.1999C33.1999 36 33.1999 36 33.2999 36.1C33.3999 36.1 33.3999 36.1 33.3999 36.1H33.4999L33.5999 36.2H33.6999H33.7999H33.8999L34.1999 36.4C34.2999 36.5 34.3999 36.5 34.4999 36.6C34.3999 36.5 34.2999 36.5 34.1999 36.4C34.0999 36.3 33.9999 36.3 33.8999 36.2H33.7999C33.6999 36.2 33.6999 36.1 33.5999 36.1H33.4999H33.3999H33.2999H33.1999C33.1999 36.1 32.9999 36 32.7999 36C32.6999 36 32.5999 36 32.5999 36C32.3999 36 32.1999 36 31.9999 36H31.8999C31.8999 35.9 31.6999 35.9 31.3999 35.9Z" fill="#C7C7C7"/>
<path d="M31.4999 35.9C31.5999 35.9 31.8999 35.9 32.0999 35.9C32.3999 35.9 32.6999 35.9 32.9999 36C32.4999 36 31.8999 36 31.3999 36L31.4999 35.9Z" fill="white"/>
<path opacity="0.7" d="M47.3999 8.29999C47.3999 8.09999 47.4999 7.89999 47.5999 7.59999V7.49999C47.6999 7.19999 47.8999 6.89999 48.0999 6.59999L48.1999 6.39999C48.1999 6.39999 48.2999 6.39999 48.3999 6.29999L48.4999 6.19999L48.5999 6.09999L48.7999 5.99999V5.89999C48.7999 5.79999 48.8999 5.79999 48.9999 5.79999H49.0999C49.0999 5.79999 49.0999 5.79999 49.1999 5.79999L49.2999 5.69999C49.4999 5.59999 49.5999 5.39999 49.7999 5.29999C49.9999 5.19999 50.0999 5.09999 50.2999 4.89999C50.0999 4.99999 49.9999 5.09999 49.7999 5.29999C49.5999 5.39999 49.4999 5.59999 49.2999 5.69999H48.9999C48.9999 5.69999 48.9999 5.69999 48.8999 5.69999C48.8999 5.69999 48.8999 5.69999 48.7999 5.69999C48.6999 5.79999 48.5999 5.79999 48.5999 5.89999V5.99999L48.4999 6.09999L48.3999 6.19999L48.2999 6.29999C48.1999 6.39999 47.9999 6.59999 47.8999 6.69999C47.8999 6.69999 47.8999 6.89999 47.7999 6.89999C47.6999 7.09999 47.5999 7.29999 47.4999 7.49999V7.59999C47.4999 7.89999 47.3999 8.09999 47.3999 8.29999C47.3999 8.39999 47.3999 8.39999 47.3999 8.29999Z" fill="#C7C7C7"/>
<path d="M47.4 8.30001C47.4 8.20001 47.5 7.90001 47.6 7.70001C47.7 7.40001 47.9 7.00001 48.1 6.70001C48.1 6.70001 47.2 8.60001 47.3 8.90001L47.4 8.30001Z" fill="white"/>
<path d="M44.0999 20.4C44.1999 20.1 44.2999 19.8 44.4999 19.5L44.7999 19.1C45.0999 18.7 45.2999 18.4 45.5999 18C45.8999 17.7 46.1999 17.3 46.4999 17C46.6999 16.8 46.7999 16.6 46.8999 16.5C46.9999 16.4 46.9999 16.3 47.0999 16.2C47.1999 16.1 47.1999 16 47.1999 15.9L47.3999 15.5L47.4999 15.3C47.6999 14.7 47.9999 14.1 48.3999 13.5L48.4999 13.3C48.4999 13.2 48.5999 13.2 48.6999 13.1L48.7999 12.9L48.8999 12.7L48.9999 12.5L49.0999 12.3L49.1999 12.1L49.2999 11.9C49.5999 11.2 49.7999 10.4 49.7999 9.60001V9.30001C49.8999 8.70001 49.9999 8.10001 49.9999 7.60001C49.9999 7.50001 49.7999 7.40001 49.7999 7.30001C49.8999 6.60001 49.9999 6.00001 50.1999 5.50001L50.2999 5.20001L50.4999 4.30001C50.8999 2.30001 50.8999 3.30001 51.1999 1.20001C50.7999 3.20001 50.7999 2.20001 50.3999 4.30001L50.1999 5.20001L50.0999 5.50001C49.8999 6.10001 49.6999 6.70001 49.6999 7.30001C49.6999 7.40001 49.8999 7.50001 49.8999 7.60001C49.7999 8.30001 49.6999 8.90001 49.5999 9.60001V9.90001C49.4999 10.6 49.2999 11.3 49.0999 11.9L48.9999 12.1V12.3V12.5L48.8999 12.7L48.7999 12.9L48.6999 13L48.5999 13.2L48.4999 13.4C48.2999 14 47.8999 14.5 47.5999 15.2L47.4999 15.4L47.2999 15.8C47.0999 16.2 46.8999 16.6 46.5999 17C46.2999 17.3 45.9999 17.7 45.6999 18C45.4999 18.2 45.2999 18.5 45.0999 18.7C44.9999 18.8 44.8999 18.9 44.7999 19.1C44.3999 19.5 44.1999 19.9 44.0999 20.4Z" fill="white"/>
<path d="M44.8999 20.2C44.7999 19.7 44.6999 19.3 44.6999 18.8L44.5999 18.4L44.4999 17.8L44.2999 16.2V16C44.1999 15.3 44.0999 14.6 44.0999 13.9V13.7C43.9999 12.6 44.0999 11.4 44.1999 10.3C44.1999 9.89999 44.2999 9.59999 44.2999 9.19999V8.89999C44.3999 8.49999 44.3999 8.09999 44.2999 7.69999V7.49999C44.1999 6.79999 44.1999 6.49999 44.1999 5.79999C44.0999 4.99999 44.6999 5.09999 44.4999 4.29999C44.3999 3.49999 44.2999 2.59999 44.3999 1.79999C44.2999 2.59999 44.3999 3.49999 44.4999 4.29999C44.6999 5.29999 44.0999 4.79999 44.2999 5.69999C44.3999 6.39999 44.1999 6.69999 44.1999 7.39999V7.59999C44.1999 7.99999 44.1999 8.39999 44.1999 8.79999V8.99999L44.0999 10.1C43.9999 11.3 43.8999 12.4 43.9999 13.6V13.8C43.9999 14.5 44.0999 15.2 44.1999 15.9V16L44.3999 17.6L44.4999 18.6V19C44.6999 19.3 44.5999 19.8 44.6999 20.2H44.8999Z" fill="#D6D4D4"/>
<path d="M45.8999 20.7C46.2999 21 46.6999 21.3 47.0999 21.6C47.1999 21.6 47.1999 21.7 47.2999 21.7C47.7999 22.1 48.2999 22.1 48.7999 22.4L48.9999 22.5C49.1999 22.6 49.3999 22.7 49.5999 22.8C49.6999 22.8 49.6999 22.9 49.7999 22.9C50.3999 23.4 51.0999 23.6 51.5999 24.1L51.7999 24.2C52.2999 24.5 52.7999 24.8 53.2999 25.1C53.7999 25.4 54.3999 25.8 54.9999 26C55.0999 26 55.0999 26.1 55.1999 26.1C55.5999 26.3 55.9999 26.5 56.2999 26.7C56.3999 26.7 56.3999 26.8 56.4999 26.8C56.6999 26.9 56.8999 27 57.0999 27.1C57.1999 27.1 57.2999 27.2 57.2999 27.2H57.3999H57.4999C57.6999 27.2 57.7999 27.3 57.9999 27.3C58.2999 27.4 58.6999 27.5 58.9999 27.6C59.2999 27.7 59.6999 27.8 59.9999 27.9L60.4999 28.1C60.6999 28.2 60.7999 28.2 60.9999 28.3C60.8999 28.2 60.6999 28.1 60.4999 28.1C60.2999 28 60.1999 28 59.9999 27.9C59.6999 27.8 59.2999 27.7 58.9999 27.6C58.6999 27.5 58.2999 27.4 57.9999 27.3C57.7999 27.3 57.6999 27.2 57.4999 27.2H57.3999H57.2999C57.1999 27.2 57.0999 27.1 57.0999 27.1C56.8999 27 56.6999 26.9 56.4999 26.8C56.3999 26.8 56.3999 26.7 56.2999 26.7C55.8999 26.7 55.4999 26.3 55.1999 26.1C54.9999 26 54.9999 26 54.8999 26C54.2999 25.7 53.7999 25.4 53.1999 25C52.5999 24.7 52.1999 24.4 51.6999 24.1L51.5999 24C50.9999 23.6 50.2999 23.2 49.7999 22.8C49.6999 22.8 49.6999 22.7 49.5999 22.7C49.3999 22.6 49.0999 22.4 48.8999 22.3L48.6999 22.2C48.2999 22.2 47.9999 21.8 47.5999 21.6C47.4999 21.6 47.4999 21.5 47.3999 21.5C46.9999 21.1 46.4999 21 45.9999 20.4L45.8999 20.7Z" fill="white"/>
<path d="M44.8999 20.2C45.1999 19.8 45.3999 19.5 45.6999 19.2L45.7999 19.1C46.1999 18.8 46.5999 18.4 46.8999 17.9L46.9999 17.8C47.2999 17.4 47.6999 17.1 47.9999 16.7L48.0999 16.6C48.5999 16.2 48.9999 15.7 49.3999 15.2L49.4999 15L49.8999 14.5L49.9999 14.3C50.2999 14.1 50.4999 13.8 50.6999 13.6L50.7999 13.5C51.1999 12.8 51.8999 12.1 52.2999 11.3L52.3999 11.1L52.9999 10.2L53.6999 9.09999L53.8999 8.79999C53.9999 8.69999 53.9999 8.59999 54.0999 8.49999C54.1999 8.29999 54.2999 8.09999 54.3999 7.99999C54.7999 7.29999 54.4999 8.19999 54.8999 7.49999C55.2999 6.79999 55.4999 6.19999 55.8999 5.29999C55.4999 6.19999 55.1999 6.89999 54.8999 7.49999C54.5999 8.09999 55.2999 7.29999 54.8999 7.99999C54.7999 8.19999 54.6999 8.39999 54.5999 8.49999L54.3999 8.79999L54.1999 9.09999L53.4999 10.1L52.8999 11L52.7999 11.2C52.3999 11.9 51.6999 12.5 51.2999 13.3L51.1999 13.5C50.9999 13.8 50.6999 14.1 50.3999 14.3L50.1999 14.5L49.7999 15L49.6999 15.2C49.2999 15.7 48.7999 16.2 48.3999 16.6L48.2999 16.7C48.1999 16.8 48.0999 16.9 47.9999 17L47.8999 17.1C47.6999 17.3 47.4999 17.6 47.2999 17.8L46.9999 17.9C46.5999 18.4 46.0999 18.7 45.7999 19.2L45.6999 19.4C45.3999 19.6 44.9999 19.9 44.8999 20.2Z" fill="#C7C7C7"/>
<path d="M44.9998 20C45.0998 19.8 45.1998 19.6 45.1998 19.4L45.2998 19.2V19C45.3998 18.7 45.3998 18.3 45.3998 18C45.3998 17.8 45.3998 17.7 45.3998 17.5C45.3998 17.3 45.3998 17.2 45.2998 17V16.9C45.0998 16.5 45.2998 16.2 45.0998 15.9V15.8C45.0998 15.6 44.8998 15.5 44.9998 15.3V15.2V14.9C44.9998 14.8 44.9998 14.7 44.9998 14.6V14.5C44.9998 14.5 44.9998 14.4 45.0998 14.4C45.0998 14.4 45.1998 14.4 45.1998 14.3L45.2998 14.2C45.3998 14.1 45.3998 14 45.4998 14C45.6998 13.7 45.8998 13.3 45.9998 13C46.0998 12.7 46.2998 12.3 46.3998 12C46.2998 12.3 46.0998 12.7 45.9998 13C45.7998 13.3 45.6998 13.7 45.4998 14C45.3998 14.1 45.3998 14.2 45.2998 14.2L45.1998 14.3H44.9998H44.8998L44.7998 14.4V14.5C44.7998 14.6 44.7998 14.7 44.7998 14.8V15.1V15.2C44.7998 15.3 44.8998 15.4 44.8998 15.6V15.7C44.9998 16.1 45.0998 16.5 45.1998 16.8V16.9C45.1998 17.1 45.2998 17.2 45.2998 17.4C45.2998 17.6 45.2998 17.7 45.2998 17.9V18.1V18.2C45.2998 18.3 45.2998 18.4 45.2998 18.5V18.6C45.2998 18.7 45.2998 18.8 45.1998 18.9L45.0998 19.1L44.9998 19.4C44.9998 19.6 44.8998 19.8 44.7998 20H44.9998Z" fill="white"/>
<path d="M44.8999 20.1C45.2999 19.8 45.6999 19.4 45.9999 19.1L46.1999 18.9C46.6999 18.5 46.8999 18 47.2999 17.6L47.3999 17.4L47.7999 16.9L47.8999 16.8C48.4999 16.3 48.8999 15.7 49.4999 15.3L49.6999 15.1L50.8999 13.9L52.1999 12.5L52.2999 12.3C52.5999 12 52.8999 11.7 53.1999 11.4L53.2999 11.2L53.6999 10.7L53.8999 10.5L53.9999 10.4L54.0999 10.3L54.3999 9.90001L54.9999 9.20001L55.5999 8.40001L55.8999 8.00001C55.9999 7.90001 56.0999 7.70001 56.1999 7.60001C56.0999 7.70001 55.9999 7.90001 55.8999 8.00001L55.5999 8.40001C55.3999 8.70001 55.1999 8.90001 54.9999 9.20001L54.3999 10L54.0999 10.4L53.9999 10.5L53.8999 10.6L53.6999 10.8C53.5999 11 53.3999 11.1 53.2999 11.3L53.1999 11.5C52.9999 11.8 52.6999 12.2 52.2999 12.4L52.1999 12.6L50.8999 14L49.6999 15.2L49.4999 15.4C48.9999 15.9 48.4999 16.5 47.8999 16.9L47.7999 17L47.1999 17.6L47.0999 17.8C46.8999 18.2 46.4999 18.4 46.2999 18.8C46.1999 18.8 46.1999 18.9 46.1999 19C45.6999 19.3 45.2999 19.7 44.8999 20.1Z" fill="white"/>
<path d="M44.8999 20.1C45.1999 19.9 45.5999 19.6 45.8999 19.4L46.0999 19.3C46.4999 19.1 46.9999 18.9 47.3999 18.6L47.4999 18.5C47.8999 18.3 48.2999 18 48.6999 17.8L48.8999 17.7C49.3999 17.5 49.8999 17.2 50.3999 16.9L50.5999 16.8C50.7999 16.7 50.8999 16.6 51.0999 16.5L51.2999 16.4C51.5999 16.3 51.7999 16.1 52.0999 16L52.1999 15.9C52.7999 15.4 53.5999 15 54.2999 14.4L54.4999 14.3L55.2999 13.7L56.2999 13L56.4999 12.8L56.7999 12.6C56.9999 12.5 57.0999 12.3 57.2999 12.2C57.8999 11.7 58.4999 11.1 59.1999 10.6C59.7999 9.99999 60.3999 9.49999 60.9999 8.89999C60.3999 9.49999 59.7999 9.99999 59.1999 10.6C58.5999 11.2 57.9999 11.7 57.2999 12.2C57.0999 12.3 56.9999 12.5 56.7999 12.6L56.4999 13L56.1999 13.2L55.1999 13.9C54.8999 14.1 54.5999 14.3 54.3999 14.5L54.1999 14.6C53.5999 15.1 52.8999 15.5 52.1999 16L51.9999 16.1C51.6999 16.3 51.3999 16.4 51.0999 16.6L50.9999 16.7L50.4999 16.9L50.3999 17C49.8999 17.3 49.3999 17.6 48.8999 17.8L48.7999 17.9C48.6999 18 48.5999 18 48.4999 18.1L48.3999 18.2C48.1999 18.3 47.8999 18.5 47.6999 18.6L47.4999 18.7C46.9999 19 46.5999 19.2 46.1999 19.4C46.0999 19.4 46.0999 19.5 45.9999 19.5C45.4999 19.6 45.1999 19.8 44.8999 20.1Z" fill="#C7C7C7"/>
<path d="M44.7998 20.2C44.9998 20.1 45.1998 20.2 45.4998 20.1L45.5998 20C45.6998 20 45.7998 19.9 45.8998 19.9C45.9998 19.9 45.9998 19.9 46.0998 19.9C46.3998 19.9 46.6998 19.9 46.8998 19.8L47.0998 19.7C47.1998 19.7 47.3998 19.6 47.4998 19.6C47.5998 19.5 47.5998 19.6 47.5998 19.6C47.9998 19.5 48.3998 19.4 48.6998 19.2L48.7998 19.1H48.8998H48.9998C48.9998 19.1 49.1998 19 49.2998 19H49.3998C49.6998 19 50.0998 18.9 50.3998 18.8H50.4998C50.5998 18.8 50.6998 18.8 50.7998 18.8C51.1998 18.8 51.5998 18.7 51.9998 18.6C52.1998 18.5 52.3998 18.5 52.5998 18.4L52.7998 18.3C52.7998 18.3 52.8998 18.3 52.9998 18.3C53.0998 18.3 53.1998 18.3 53.2998 18.3C53.6998 18.3 54.0998 18.2 54.3998 18.2C53.9998 18.2 53.6998 18.3 53.2998 18.3C53.1998 18.3 53.0998 18.3 52.9998 18.3C52.8998 18.3 52.8998 18.3 52.7998 18.3L52.5998 18.4C52.3998 18.5 52.1998 18.5 51.9998 18.6C51.5998 18.7 51.1998 18.8 50.8998 18.8C50.7998 18.8 50.6998 18.8 50.5998 18.8H50.4998C50.1998 18.9 49.7998 19 49.4998 19H49.3998C49.3998 19 49.2998 19 49.2998 19.1H49.1998L48.9998 19.2C48.9998 19.2 48.8998 19.2 48.8998 19.3C48.4998 19.5 48.1998 19.6 47.7998 19.7H47.6998C47.5998 19.7 47.3998 19.8 47.2998 19.8C47.1998 19.8 47.1998 19.8 47.0998 19.8C46.7998 20 46.4998 19.9 46.1998 20C46.0998 20 46.0998 20 45.9998 20C45.8998 20 45.7998 20.1 45.6998 20.1L45.5998 20.2C45.2998 20.3 45.1998 20.2 44.8998 20.3L44.7998 20.2Z" fill="#D6D4D4"/>
<path d="M44.5 8.30001C45.1 8.20001 45.6 8.30001 46.1 8.20001H46.3C46.4 8.20001 46.5 8.20001 46.5 8.20001H46.7C46.8 8.20001 46.8 8.20001 46.9 8.20001C48.5 8.30001 50.1 8.60001 51.7 9.00001L51.9 9.10001C52 9.10001 52 9.10001 52.1 9.20001C53 9.90001 53.9 10.6 54.7 11.4L54.8 11.5L55.3 11.9L55.9 12.4C56.1 12.6 56.3 12.8 56.5 12.9C56.3 12.7 56.1 12.5 55.9 12.4L55.3 11.9L54.8 11.5C54.8 11.5 54.7 11.2 54.6 11.2C53.8 10.5 52.9 9.80001 52.1 9.20001C52 9.20001 52 9.10001 51.9 9.10001L51.7 9.00001C50.1 8.60001 48.6 8.40001 46.9 8.20001H46.7H46.5C46.4 8.20001 46.3 8.20001 46.3 8.20001H46.2C45.6 8.20001 45 8.20001 44.5 8.30001Z" fill="#C7C7C7"/>
<path d="M47 10.2C47.3 10.3 47.7 10.3 48 10.4C48.1 10.4 48.2 10.4 48.2 10.5C48.9 10.7 50.1 10.6 50.8 10.8C50.9 10.8 50.9 10.9 51 10.9C51.5 11.3 51.7 12.1 52.2 12.5C51.9 11.9 51.5 11.3 51 10.8C50.9 10.8 50.9 10.7 50.8 10.7C50 10.4 48.8 10.7 48 10.4H47.7C47.5 10.4 47.3 10.3 47.1 10.3C47 10.2 47 10.2 47 10.2Z" fill="white"/>
<path opacity="0.7" d="M57.9998 8.89999C57.5998 8.59999 57.2998 8.29999 56.8998 7.99999C56.4998 7.69999 56.0998 7.49999 55.6998 7.19999L55.3998 6.99999L55.2998 6.89999C55.2998 6.89999 55.1998 6.79999 55.0998 6.79999C54.9998 6.69999 54.8998 6.69999 54.7998 6.59999C54.6998 6.49999 54.5998 6.49999 54.4998 6.39999C53.9998 6.19999 53.4998 5.99999 52.9998 5.79999C52.8998 5.79999 52.7998 5.69999 52.6998 5.69999C51.7998 5.39999 50.6998 5.29999 49.6998 5.09999C49.5998 5.09999 49.4998 5.09999 49.3998 5.09999C49.2998 5.09999 49.1998 5.09999 49.1998 5.09999C49.0998 5.09999 48.9998 5.09999 48.8998 4.99999C48.7998 4.99999 48.6998 4.99999 48.5998 4.89999C48.4998 4.89999 48.3998 4.89999 48.2998 4.79999C48.3998 4.79999 48.4998 4.89999 48.5998 4.89999L48.8998 4.99999C48.9998 4.99999 49.0998 4.99999 49.1998 5.09999H49.3998H49.5998C50.6998 5.39999 51.5998 5.39999 52.6998 5.79999C52.7998 5.99999 52.8998 5.99999 52.9998 6.09999C53.4998 6.29999 53.8998 6.49999 54.3998 6.69999L54.6998 6.89999C54.7998 6.89999 54.8998 6.89999 54.9998 6.99999L55.0998 7.09999C55.0998 7.09999 55.1998 7.19999 55.2998 7.19999C55.3998 7.29999 55.4998 7.29999 55.5998 7.39999C55.9998 7.69999 56.3998 7.89999 56.7998 8.09999C57.1998 8.39999 57.5998 8.69999 57.9998 8.89999Z" fill="#C7C7C7"/>
<path d="M56.4 8.30001C56.3 8.10001 56.1 8.00001 56 7.90001L55.5999 7.50001L55.5 7.40001H55.4L55.2999 7.30001L55.2 7.20001L55.0999 7.10001C54.8999 7.00001 54.7 6.90001 54.5 6.80001L54.4 6.70001C54 6.50001 53.6 6.40001 53.2 6.30001H53.0999H53H52.9H52.7999L52.7 6.20001C52.7 6.20001 52.7999 6.20001 52.7999 6.30001C52.7999 6.30001 52.9 6.30001 52.9 6.40001L53 6.50001H53.0999H53.2C53.6 6.70001 54 6.80001 54.4 7.00001L54.5 7.10001C54.7 7.00001 54.9 7.10001 55 7.20001L55.0999 7.30001L55.2 7.40001H55.2999L55.4 7.50001L55.5 7.60001C55.7 7.70001 55.8 7.80001 56 8.00001C56.1 8.00001 56.2 8.10001 56.4 8.30001Z" fill="#C7C7C7"/>
<path opacity="0.7" d="M44.3999 9.20001C44.0999 9.30001 43.8999 9.50001 43.6999 9.60001L43.5999 9.70001C43.2999 9.80001 42.8999 10 42.5999 10.1C42.5999 10.1 42.3999 10.2 42.2999 10.2C42.1999 10.2 42.1999 10.2 42.0999 10.2H41.9999H41.8999C41.7999 10.2 41.7999 10.2 41.6999 10.2H41.5999C41.4999 10.2 41.4999 10.2 41.3999 10.2H41.2999C41.2999 10.2 41.2999 10.2 41.1999 10.2H41.0999C40.8999 10.2 40.7999 10.2 40.5999 10.2C40.3999 10.2 40.2999 10.2 40.0999 10.2C40.2999 10.2 40.3999 10.2 40.5999 10.2C40.7999 10.2 40.8999 10.2 41.0999 10.2H41.1999C41.1999 10.2 41.1999 10.2 41.2999 10.2H41.3999C41.4999 10.2 41.5999 10.2 41.6999 10.2H41.7999H41.8999H41.9999V10.2C42.1999 10.2 42.2999 10.2 42.4999 10.1C42.5999 10.1 42.6999 10 42.6999 10C42.9999 9.90001 43.1999 9.80001 43.3999 9.70001L43.4999 9.60001C43.6999 9.50001 43.9999 9.40001 44.1999 9.30001L44.3999 9.20001Z" fill="#C7C7C7"/>
<path d="M44.3 9.20001C44.2 9.20001 43.9 9.40001 43.6 9.50001C43.2 9.70001 42.9 9.80001 42.5 9.90001C43.1 9.70001 43.8 9.40001 44.4 9.10001L44.3 9.20001Z" fill="white"/>
<path opacity="0.7" d="M54.8998 8.70001C54.6998 8.70001 54.5998 8.70001 54.3998 8.70001H54.2998C54.0998 8.70001 53.8998 8.70001 53.6998 8.60001C53.6998 8.60001 53.5998 8.60001 53.4998 8.60001C53.4998 8.60001 53.4998 8.60001 53.3998 8.60001C53.2998 8.60001 53.2998 8.60001 53.2998 8.60001H53.1998L53.0998 8.50001H52.9998C52.9998 8.50001 52.9998 8.50001 52.8998 8.50001H52.7998L52.4998 8.30001C52.3998 8.30001 52.3998 8.20001 52.2998 8.20001C52.3998 8.20001 52.3998 8.30001 52.4998 8.30001C52.5998 8.30001 52.6998 8.40001 52.6998 8.40001H52.7998C52.7998 8.40001 52.8998 8.40001 52.8998 8.50001C52.8998 8.50001 52.8998 8.50001 52.9998 8.50001H53.0998C53.1998 8.50001 53.2998 8.60001 53.3998 8.60001C53.4998 8.60001 53.4998 8.60001 53.4998 8.60001C53.6998 8.60001 53.7998 8.60001 53.9998 8.60001H54.0998C54.4998 8.60001 54.5998 8.60001 54.8998 8.70001Z" fill="#C7C7C7"/>
<path d="M54.7999 8.70001C54.6999 8.70001 54.5 8.70001 54.4 8.70001C54.2 8.70001 54 8.70001 53.7 8.60001C54.1 8.60001 54.5 8.60001 54.9 8.60001L54.7999 8.70001Z" fill="white"/>
<path opacity="0.7" d="M29.0999 30.3C29.1999 30 29.1999 29.7 29.2999 29.4C29.2999 29.2 29.3999 29 29.3999 28.7C29.3999 28.6 29.6999 28 29.6999 28L29.5999 28.1C29.5999 28.1 29.3999 28.7 29.2999 28.8C29.2999 29.1 29.1999 29.4 29.1999 29.6C29.0999 29.9 29.0999 30.1 29.0999 30.3Z" fill="white"/>
<g opacity="0.4">
<g opacity="0.3">
<path d="M44.4 17.6L44.2999 17.1L44.0999 17.4L43.7 17.8L44.5 13.5L47.2999 4.69999C47.2999 4.69999 44.7 13.9 44.9 14.3C45 14.5 45.6 12.7 46.2 10.6C45.5 12.8 45 14.7 45 14.7C45 14.7 46 12.2 46.9 9.59999C46.6 10.4 46.3 11.3 46.2 12.2C46.5 12.1 49.2 5.99999 50 4.39999C49.2 6.09999 45.6 14.3 45.5 14.5C45.4 14.7 50 7.29999 50 7.29999C50 7.29999 47.5 11.4 46.4 13.5C46 14.4 44.9999 16.4 46.0999 14.9C47.1999 13.2 48.7999 11.1 49.0999 10.7C49.4999 9.99999 43.6999 18.7 47.0999 14.6C50.4999 10.5 53.9 6.99999 53.9 6.99999C53.9 6.99999 45.2999 16.4 47.0999 15.2C48.4999 14.2 49.7 13 50.9 11.8L47.4 15.9L44.5999 17.7L44.5 18V17.9L44 18.1L44.4 17.6Z" fill="white"/>
<path d="M50.0999 4.5L50.2999 4L50.0999 4.5Z" fill="white"/>
<path d="M47 9.69999C47.8 7.39999 49.1 3.89999 49.1 3.89999L47 9.69999Z" fill="white"/>
<path d="M46.2 10.7C47 7.89998 48 4.69998 48 4.69998C48 4.69998 47.1 7.89998 46.2 10.7Z" fill="white"/>
</g>
<path opacity="0.2" d="M44.9001 21C45.4001 22.5 45.9 28.6 46 29.5C46.1 30.4 44.5001 18.3 44.7001 24.6C44.9001 30.9 44.6 36.5 44.6 36.5C44.6 36.5 44.9 21.7 44.3 24.1C43.8 26 43.5001 28 43.4001 30L43.3 23.7L44.8 19.2L44.9001 21Z" fill="white"/>
<path opacity="0.3" d="M57.2001 23.3C52.3001 21.1 47.2001 17.8 49.7001 19.9C52.2001 22 56.6 24.9 56.6 24.9C56.6 24.9 43.6 16.6 47.6 19.6C51.6 22.6 52.8 23.9 52.8 23.9C52.8 23.9 45.9 18.3 47.1 19.6C48.3 20.9 51.7001 24.4 51.7001 24.4C51.7001 24.4 46.4001 18.8 46.2001 19.1C46.0001 19.5 53.3 28 53.3 28C53.3 28 45.7 19.3 45.6 19.4C45.5 19.5 49.7001 27 49.7001 27C49.7001 27 46 20 45.8 20.6C45.5 21.2 44.8 18.3 44.8 18.3V17.8L51.7001 16.5L57.7001 15.3C57.7001 15.3 48.7 17 48.6 17.3C48.5 17.6 54.6 16.8 54.6 16.8C54.6 16.8 47.7001 17.6 47.7001 17.9C47.7001 18.2 56.4001 17.8 56.4001 17.8C56.4001 17.8 48.1 18.1 48.1 18.3C48.1 18.5 59 20.3 59 20.3C59 20.3 50.2 19.1 50 19.3C49.9 19.4 55.6 20.9 55.6 20.9C55.6 20.9 51.1 19.8 51.6 20.3C52.3 20.9 57.2001 23.3 57.2001 23.3Z" fill="white"/>
<path opacity="0.3" d="M38.5 25.4C41.5 21.6 43.5 18.7 42.3 21.5C41.1 24.2 41.6 22.7 41.6 22.7C41.6 22.7 44.6 17.1 42.6 21.2C40.6 25.3 40.2 26.8 40.2 26.8C40.2 26.8 43.5 19.5 43.1 21C42.7 22.5 41.3 26.7 41.3 26.7C41.3 26.7 43.4 20 43.6 20.2C43.8 20.4 41.3 30.1 41.3 30.1C41.3 30.1 44 20 44 20.1C44.1 20.2 43.7 27.8 43.7 27.8C43.7 27.8 43.9 20.8 44.4 21.1C44.9 21.5 44.3 18.9 44.3 18.9L44.1 18.5L38.2 20.5L33 22.2C33 22.2 40.7 19.7 40.9 19.9C41.1 20.1 36 22.1 36 22.1C36 22.1 41.7 19.8 41.8 20C41.9 20.3 35 23.6 35 23.6C35 23.6 41.7 20.3 41.7 20.4C41.7 20.6 33.9 26.7 33.9 26.7C33.9 26.7 40.4 21.9 40.6 22C40.8 22 36.8 25.7 36.8 25.7C36.8 25.7 40.5 22.3 40.3 22.9C39.8 23.7 39.2 24.6 38.5 25.4Z" fill="white"/>
<path opacity="0.3" d="M43.9 17.8L35.4 15.6C35.4 15.6 40.4 17.6 40.2 17.6C40 17.6 33.2 17 33.2 17C33.2 17 39.0999 17.5 39.2999 17.8C39.4999 18.1 33.5999 18.5 33.5999 18.5C33.5999 18.5 41.8999 17.8 41.7999 18C41.7999 18.1 34.5 19.3 34.5 19.3C34.5 19.3 41.6999 18 41.5999 18.3C41.3999 18.7 34.9 20 34.9 20L41.2999 19L44.2 17.9L43.9 17.8Z" fill="white"/>
<path opacity="0.3" d="M44.4999 18.1L49.3999 14.3C49.3999 14.3 46.6999 17 46.7999 17C46.8999 17 51.0999 14.6 51.0999 14.6C51.0999 14.6 47.4999 16.6 47.3999 16.9C47.2999 17.2 51.1999 15.6 51.1999 15.6C51.1999 15.6 45.7999 17.6 45.8999 17.7C45.8999 17.8 50.7999 16.4 50.7999 16.4C50.7999 16.4 45.8999 17.7 46.0999 17.9C46.2999 18.1 50.7999 17 50.7999 17L46.4999 18.3L44.3999 18.5L44.4999 18.1Z" fill="white"/>
<path opacity="0.3" d="M44.3 17.6L41.6 8.60001C41.6 8.60001 43.6001 16.5 43.4001 16.8C43.2001 17.1 41.6 12.9 41.6 12.9C41.6 12.9 42.9 16.6 42.5 16.3C42.1 16 37.8 11.1 37.8 11.1C37.8 11.1 42.4 16.5 42.5 16.8C42.5 17 38.2001 14 38.2001 14C38.2001 14 42.1 16.4 42 17C41.9 17.6 37.3 15.3 37.3 15.3C37.3 15.3 42.0001 17.1 42.2001 17.6C42.4001 18.1 44.6 18.1 44.6 18.1L44.3 17.6Z" fill="white"/>
<path opacity="0.3" d="M47 27.1C47.7 29.1 48.1 30.5 48.6 32.4C48.2 31 47.7 29.1 47.3 27.8L47 27.1Z" fill="white"/>
<path opacity="0.3" d="M36.8001 26C35.6001 26.7 35.0001 28.4 33.6001 29.3C34.5001 28.6 35.3001 27.7 36.0001 26.8C36.3001 26.6 36.5001 26.3 36.8001 26Z" fill="white"/>
<path opacity="0.3" d="M32.2 30.5C32.1 30.6 31.9 30.7 31.8 30.9C31.7 31 31.6 31.2 31.5 31.3C31.6 31.2 31.8 31.1 31.9 30.9C32.1 30.8 32.2 30.6 32.2 30.5Z" fill="white"/>
<path opacity="0.3" d="M34.2001 25.3C33.5001 25.6 32.8001 25.9 32.1001 26.2C31.4001 26.5 30.8001 26.9 30.1001 27.2C30.8001 26.9 31.5001 26.6 32.2001 26.3C32.8001 25.9 33.5001 25.6 34.2001 25.3Z" fill="white"/>
<path opacity="0.3" d="M33.3 19.7C32.6 19.6 31.8 19.7 31.2 20C30.8 20.1 30.5 20.1 30.1 20.2C29.8 20.3 29.4 20.3 29 20.4C29.7 20.3 30.4 20.2 31.1 20.1C31.8 20 32.6 19.9 33.3 19.7Z" fill="white"/>
<path opacity="0.3" d="M38.5001 14.7C37.6001 14.2 36.7001 13.7 35.8001 13.2C34.9001 12.7 34.0001 12.3 33.1001 11.8C34.4001 12.8 36.2001 13.3 37.8001 14.3C38.0001 14.5 38.3001 14.6 38.5001 14.7Z" fill="white"/>
<path opacity="0.3" d="M39.3 10.5C39.5 10.8 39.7001 11.2 39.9001 11.5C40.1001 11.8 40.3 12.1 40.6 12.4C40.4 12.1 40.2 11.7 40 11.4C39.8 11.1 39.6 10.8 39.3 10.5Z" fill="white"/>
</g>
<g opacity="0.5">
<path d="M44.9001 20.2L45.1001 20C45.0001 20 45.0001 20 44.9001 20H44.7001L46.5001 19.1L50.4001 17.8C50.4001 17.8 46.3001 19.3 46.2001 19.5C46.8001 19.4 47.3001 19.2 47.9001 19C46.9001 19.3 46.1001 19.7 46.1001 19.7C46.1001 19.7 47.3001 19.4 48.5001 19C48.1001 19.1 47.7001 19.3 47.4001 19.4C47.5001 19.5 50.4001 18.9 51.2001 18.7C50.4001 18.9 46.5001 19.7 46.4001 19.8C46.3001 19.8 50.1001 19.5 50.1001 19.5C50.1001 19.5 48.0001 19.7 47.0001 19.8C46.6001 19.9 45.6001 20.1 46.4001 20.1C47.3001 20.1 48.4001 20.1 48.7001 20.1C49.0001 20.1 44.5001 20.2 46.8001 20.4C49.1001 20.6 51.2001 20.9 51.2001 20.9C51.2001 20.9 45.8001 20.3 46.6001 20.6C47.3001 20.8 48.0001 21 48.7001 21.1L46.4001 20.9L45.1001 20.3H45.0001L44.9001 20.2H44.6001H44.9001Z" fill="white"/>
<path d="M48.5 19C49.5 18.7 51.2 18.2 51.2 18.2L48.5 19Z" fill="white"/>
<path d="M48 19L50.7 18.1C50.6 18 49.2 18.5 48 19Z" fill="white"/>
<path d="M44.9 28.7C44.9 25.3 45.6 21.4 45 23.5C44.5 25.6 43.8 28.9 43.8 28.9C43.8 28.9 45.4 19.1 44.6 22.2C44.3 23.6 43.9 25.1 43.4 26.4C43.4 26.4 44.9 20.8 44.4 21.9C44 23 42.9 26 42.9 26C42.9 26 44.8 21.2 44.6 21.3C44.4 21.3 41.3 28.1 41.3 28.1L44.4 21.1C44.3 21.1 41 25.8 41 25.8C41 25.8 44.1 21.5 43.7 21.6C43.3 21.6 44.7 20.3 44.7 20.3L45 20.1L47.5 23.5L49.7 26.5C49.7 26.5 46.5 22.1 46.3 22.1C46.1 22.1 48.1 25.3 48.1 25.3C48.1 25.3 45.9 21.7 45.8 21.8C45.7 21.9 48 26.6 48 26.6C48 26.6 45.8 22.1 45.7 22.2C45.6 22.3 47.6 30 47.6 30C47.6 30 45.8 23.6 45.7 23.6C45.6 23.6 46.2 27.2 46.2 27.2C46.2 27.2 45.7 24.4 45.5 24.8C45.1 26.1 45 27.4 44.9 28.7Z" fill="white"/>
<path opacity="0.5" d="M38 27.9C40.4 25 43.7 22.1 41.8 23.5C39.9 25 37 27.4 37 27.4C37 27.4 45.2 20 42.3 22.3C41.1 23.4 39.7 24.3 38.3 25.1C38.3 25.1 43.5 21.3 42.3 21.9C41.1 22.5 38.2 24.3 38.2 24.3C38.2 24.3 43.1 21.5 42.9 21.4C42.7 21.3 35.5 25 35.5 25C35.5 25 43 21 42.9 21C42.8 21 36.8 22.7 36.8 22.7C36.8 22.7 42.3 21.2 42 20.9C41.7 20.6 43.8 20.5 43.8 20.5H44.1L43.8 25.1L43.5 29.1C43.5 29.1 43.9 23.1 43.7 23C43.5 22.9 43 27.1 43 27.1C43 27.1 43.7 22.6 43.5 22.5C43.3 22.5 42 28.1 42 28.1C42 28.1 43.3 22.7 43.1 22.7C43 22.7 39.7 29.5 39.7 29.5C39.7 29.5 42.2 23.9 42.1 23.8C42 23.7 40 27.2 40 27.2C40 27.2 41.6 24.5 41.1 24.7C40 25.8 39 26.9 38 27.9Z" fill="white"/>
<path d="M39.7 19.1C42.7 19.6 44.8 19.8 42.9 19.9C41 20.1 42 19.9 42 19.9C42 19.9 45.9999 19.8 43.0999 20C41.7999 20 40.4999 20.2 39.2999 20.5C39.2999 20.5 44.4 19.9 43.4 20.2C42.4 20.5 39.7 21.1 39.7 21.1C39.7 21.1 44.1 20.1 44 20.3C43.9 20.5 37.7 22.2 37.7 22.2C37.7 22.2 44.2 20.4 44.2 20.5C44.2 20.6 39.7 22.8 39.7 22.8C39.7 22.8 43.8 20.7 43.7 21C43.6 21.4 45 20.3 45 20.3L45.2 20.1L42.5999 17.4L40.2999 15.1C40.2999 15.1 43.6999 18.6 43.5999 18.7C43.4999 18.9 41.0999 16.7 41.0999 16.7C41.0999 16.7 43.8999 19.1 43.7999 19.3C43.6999 19.4 40 16.7 40 16.7C40 16.7 43.6 19.3 43.5 19.4C43.4 19.4 37.9 17.1 37.9 17.1C37.9 17.1 42.2999 19.2 42.2999 19.3C42.2999 19.4 39.2 18.4 39.2 18.4C39.2 18.4 42.1 19.3 41.7 19.4C40.9 19.2 40.3 19.2 39.7 19.1Z" fill="white"/>
<path d="M44.7999 19.6L44 14.2C44 14.2 44.3999 17.9 44.2999 17.8C44.1999 17.7 42.7 13.5 42.7 13.5C42.7 13.5 43.9 16.9 43.7 17.2C43.6 17.4 41.9 14.2 41.9 14.2C41.9 14.2 44.3 18.6 44.2 18.6C44.1 18.6 41.5999 15 41.5999 15C41.5999 15 44.2 18.6 43.9 18.6C43.7 18.6 41.2 15.4 41.2 15.4L43.2999 18.6L44.5999 19.9L44.7999 19.6Z" fill="white"/>
<path d="M44.7999 20L47.9 21.3C47.9 21.3 45.9 20.7 46 20.8C46.1 20.9 48.2 22.2 48.2 22.2C47.6 21.8 46.9 21.4 46.2 21.1C46 21.1 47.7 22.6 47.7 22.6C47.7 22.6 45.5 20.5 45.4 20.6C45.4 20.7 47.2 22.7 47.2 22.7C46.6 22 46 21.4 45.4 20.8C45.9 21.5 46.4 22.2 46.9 22.9L45.2999 21.1L44.7 20.1L44.7999 20Z" fill="white"/>
<path d="M45.0999 19.8L49.5999 15.4C49.5999 15.4 45.4999 19 45.2999 19C45.0999 19 47.0999 16.7 47.0999 16.7C47.0999 16.7 45.2999 18.6 45.3999 18.3C45.4999 18 47.2999 14 47.2999 14C47.2999 14 45.2999 18.3 45.1999 18.4C45.0999 18.5 45.7999 15.1 45.7999 15.1C45.7999 15.1 45.3999 18 44.9999 18.2L44.5999 18.3C44.5999 18.3 44.8999 18.2 44.5999 18.5C44.3999 18.8 44.9999 20 44.9999 20L45.0999 19.8Z" fill="white"/>
</g>
<path opacity="0.5" d="M62.4 16.2C58.9 17.6 50.6 18.1 47.5 19.5C50.2 19 57.8 17.3 60.6 16.6C61.2 16.4 61.8 16.3 62.4 16.2Z" fill="white"/>
<path opacity="0.3" d="M31.2999 23.8C29.6999 24 28.2999 25.4 26.3999 25.7C27.6999 25.4 28.8999 24.9 30.0999 24.3C30.5999 24.1 30.9999 24 31.2999 23.8Z" fill="white"/>
<path opacity="0.3" d="M24.4999 26.2C24.2999 26.2 24.0999 26.3 23.8999 26.4C23.6999 26.5 23.5999 26.6 23.3999 26.7C23.5999 26.7 23.7999 26.6 23.8999 26.5C24.1999 26.5 24.3999 26.4 24.4999 26.2Z" fill="white"/>
<path opacity="0.3" d="M29.0999 22C28.1999 22 27.3999 22 26.4999 22C25.5999 22 24.7999 22.1 23.8999 22.1C24.7999 22.1 25.5999 22.1 26.4999 22.1C27.3999 22.1 28.1999 22 29.0999 22Z" fill="white"/>
<path opacity="0.3" d="M30.9998 16.2C30.2998 15.8 29.4998 15.6 28.6998 15.6C28.2998 15.5 27.8998 15.4 27.4998 15.3C27.0998 15.2 26.6998 15.1 26.2998 15.1C27.0998 15.3 27.7998 15.5 28.5998 15.7C29.3998 15.9 30.1998 16.1 30.9998 16.2Z" fill="white"/>
<path opacity="0.3" d="M38.7999 13.5C38.1999 12.6 37.4999 11.8 36.7999 11C36.0999 10.2 35.4 9.3 34.7 8.5C35.6 10 37.2 11.2 38.2 12.9L38.7999 13.5Z" fill="white"/>
<path opacity="0.3" d="M41.7998 9.70001C41.7998 10.1 41.7998 10.5 41.8998 10.9C41.9998 11.3 41.9998 11.7 42.1998 12.1C42.1998 11.7 42.1998 11.3 42.0998 10.9C41.8998 10.5 41.8998 10.1 41.7998 9.70001Z" fill="white"/>
<path d="M34.2 25.7C34.1 25.6 34.1 25.6 34 25.6H34.1L34.2 25.7C34.4 25.7 34.4 25.8 34.5 25.8C34.6 26.1 34.6 26.4 34.6 26.7C34.5 27 34.4 27.3 34.2 27.5L34.3 27.4C34.7 27 34.5 25.9 34.2 25.7Z" fill="#C7C7C7"/>
<path d="M32.8 27.6C32.7 27.6 32.6 27.6 32.5 27.6C33.1 27.6 33.7 27.4 34.2 27C34 27.2 33.8 27.4 33.6 27.5C33.3 27.6 33 27.6 32.8 27.6Z" fill="#C7C7C7"/>
<path d="M34.2 26.1C34.2 26 34.1 26 34 25.9C33.9 25.8 33.8 25.7 33.7 25.7C33.8 25.8 33.9 25.8 34 25.9C34.1 26 34.2 26.1 34.2 26.1C34.3 26.3 34.4 26.4 34.4 26.6C34.4 26.8 34.3 26.9 34.2 27C34.3 26.9 34.2999 26.7 34.2999 26.6C34.2999 26.5 34.2 26.3 34.2 26.1Z" fill="#C7C7C7"/>
<path d="M33.8999 25.6C34.2999 25.8 34.2999 26 34.2999 26.4C34.1999 26.1 34.1999 25.8 33.8999 25.6Z" fill="#C7C7C7"/>
<path d="M33.7 27.5H33.7999C33.7999 27.5 33.9 27.5 33.9 27.4L34 27.3H34.0999L33.9 27.4L33.7 27.5Z" fill="#C7C7C7"/>
<path d="M32.7999 27.4C32.6999 27.4 32.5999 27.4 32.5999 27.4C32.5999 27.4 32.7999 27.4 32.7999 27.4C33.0999 27.4 33.2999 27.4 33.5999 27.3C33.2999 27.4 32.9999 27.4 32.7999 27.4Z" fill="#C7C7C7"/>
<path d="M33.5999 25.8C33.8999 25.9 34.0999 26.2 34.1999 26.5C34.1999 26.7 34.0999 26.8 33.9999 27C33.8999 27.1 33.7999 27.3 33.5999 27.3C33.7999 27.2 33.8999 27.1 33.9999 26.9C34.0999 26.8 34.0999 26.7 34.0999 26.6C34.0999 26.5 34.0999 26.4 34.0999 26.3C34.0999 26.2 33.9999 26.1 33.8999 26C33.7999 25.9 33.6999 25.8 33.5999 25.8Z" fill="#C7C7C7"/>
<path d="M33.5999 26.4C33.5999 26.3 33.4999 26.2 33.3999 26.1C33.2999 26 33.1999 26 33.0999 25.9H33.1999C33.2999 25.9 33.3999 26 33.4999 26.1C33.5999 26.2 33.5999 26.3 33.5999 26.4C33.6999 26.5 33.5999 26.6 33.5999 26.7C33.4999 26.8 33.3999 26.9 33.2999 27C33.3999 26.9 33.4999 26.8 33.5999 26.7C33.6999 26.7 33.6999 26.5 33.5999 26.4Z" fill="#C7C7C7"/>
<path d="M33.2998 25.9C33.4998 25.9 33.5998 26 33.6998 26.1C33.7998 26.2 33.7998 26.3 33.7998 26.5C33.7998 26.6 33.7998 26.8 33.6998 26.9C33.5998 27 33.4998 27.1 33.3998 27.2C33.4998 27.2 33.4998 27.1 33.5998 27C33.8998 26.7 33.7998 26.2 33.2998 25.9Z" fill="#C7C7C7"/>
<path opacity="0.7" d="M33.2999 26.4C33.2999 26.3 33.1999 26.3 33.1999 26.2C33.0999 26.2 33.0999 26.1 32.9999 26.1C33.0999 26.1 33.0999 26.2 33.1999 26.2C33.1999 26.3 33.2999 26.3 33.2999 26.4C33.2999 26.5 33.2999 26.6 33.2999 26.6C33.2999 26.7 32.9999 26.8 32.8999 26.8C32.9999 26.7 33.1999 26.7 33.2999 26.6V26.5C33.2999 26.5 33.2999 26.4 33.2999 26.4Z" fill="#C7C7C7"/>
<path opacity="0.7" d="M33.0999 26C33.1999 26 33.1999 26.1 33.2999 26.2C33.3999 26.3 33.3999 26.4 33.3999 26.4C33.3999 26.5 33.3999 26.6 33.2999 26.6C33.2999 26.7 33.1999 26.7 33.0999 26.8L33.1999 26.7C33.4999 26.5 33.3999 26.2 33.0999 26Z" fill="#C7C7C7"/>
<path opacity="0.7" d="M35.3999 5.89998C35.2999 5.69998 35.1999 5.39998 35.0999 5.19998V5.09998C34.9999 4.69998 34.9999 4.39998 34.8999 3.99998C34.8999 3.89998 34.8999 3.79998 34.8999 3.69998C34.8999 3.59998 34.8999 3.59998 34.9999 3.49998V3.19998V3.09998L35.0999 2.89998V2.79998C35.0999 2.69998 35.0999 2.59998 35.1999 2.59998V2.39998V2.29998V2.09998L35.3999 1.39998C35.4999 1.19998 35.4999 0.899982 35.5999 0.699982C35.4999 0.899982 35.3999 1.09998 35.3999 1.39998C35.2999 1.59998 35.2999 1.89998 35.1999 2.09998L35.0999 2.29998V2.39998V2.49998C34.9999 2.59998 34.9999 2.69998 34.9999 2.79998V2.99998V3.09998V3.29998V3.49998C34.9999 3.69998 34.8999 3.89998 34.8999 4.19998C34.8999 4.29998 34.9999 4.39998 34.9999 4.39998C34.9999 4.69998 35.0999 4.89998 35.0999 5.19998V5.29998C35.1999 5.49998 35.2999 5.69998 35.3999 5.89998C35.2999 5.99998 35.2999 5.99998 35.3999 5.89998Z" fill="#C7C7C7"/>
<path d="M35.2999 5.9C35.2999 5.8 35.0999 5.5 35.0999 5.2C34.9999 4.8 34.8999 4.4 34.8999 4C34.8999 4 35.2999 6.4 35.5999 6.6L35.2999 5.9Z" fill="white"/>
<path d="M38.5999 15.2C38.5999 15.1 38.5999 15 38.6999 14.9L38.7999 14.6V14.4V14.2V14V13.8V13.5V13.2C38.8999 12.4 38.8999 11.5 38.5999 10.7L38.4999 10.4C38.4999 9.80001 38.3999 9.10001 38.1999 8.50001C38.1999 8.40001 37.8999 8.30001 37.7999 8.20001C37.6999 7.50001 37.5999 6.90001 37.6999 6.20001V6.00001L37.5999 5.00001C37.3999 2.80001 37.5999 3.80001 37.3999 1.60001C37.5999 3.80001 37.3999 2.80001 37.5999 5.00001L37.6999 6.00001V6.30001C37.5999 7.00001 37.6999 7.60001 37.7999 8.30001C37.7999 8.40001 38.0999 8.50001 38.1999 8.60001C38.2999 9.30001 38.4999 10 38.4999 10.8C38.4999 10.9 38.4999 11 38.5999 11.1C38.6999 11.8 38.6999 12.6 38.6999 13.3V13.6V13.9V14V14.2V14.4V14.6V14.9L38.5999 15.2L38.4999 15.6C38.4999 15.4 38.5999 15.3 38.5999 15.2Z" fill="white"/>
<path d="M40.7998 18.6C40.3998 18.1 39.9998 17.9 39.6998 17.4L39.3998 17L38.8998 16.5L37.6998 15.2L37.5998 15.1C37.0998 14.5 36.4998 13.9 35.9998 13.2L35.8998 13C35.0998 12 34.3998 10.9 33.6998 9.69999C33.4998 9.29999 33.2998 8.99999 33.0998 8.59999L32.9998 8.39999C32.7998 7.99999 32.5998 7.59999 32.1998 7.29999L31.9998 7.09999C31.4998 6.49999 31.2998 6.19999 30.7998 5.59999C30.1998 4.89999 30.7998 4.69999 30.0998 3.99999C29.3998 3.29999 28.7998 2.59999 28.2998 1.79999C28.7998 2.59999 29.3998 3.39999 30.0998 4.09999C30.8998 4.89999 30.0998 4.79999 30.8998 5.59999C31.4998 6.19999 31.3998 6.59999 31.8998 7.19999L32.0998 7.39999C32.3998 7.79999 32.5998 8.09999 32.8998 8.49999L32.9998 8.59999L33.5998 9.69999C34.2998 10.9 34.9998 12 35.7998 13.1L35.9998 13.3C36.4998 14 36.9998 14.6 37.4998 15.2L37.5998 15.3L38.7998 16.6L39.5998 17.5L39.7998 17.7C40.1998 17.9 40.3998 18.4 40.7998 18.7V18.6Z" fill="#D6D4D4"/>
<path d="M40.7999 18.8C40.6999 18.3 40.4999 17.7 40.2999 17.2C40.2999 17.1 40.1999 17 40.1999 17C39.9999 16.3 39.5999 16 39.3999 15.4L39.2999 15.2L38.9999 14.5L38.8999 14.3C38.6999 13.5 38.1999 12.9 37.9999 12.1V11.9C37.7999 11.3 37.4999 10.8 37.2999 10.2L36.4999 8.30001L36.3999 8.10001C36.1999 7.70001 35.9999 7.30001 35.7999 6.80001L35.6999 6.60001L35.2999 6.00001C35.2999 5.90001 35.1999 5.80001 35.1999 5.80001L35.0999 5.70001L34.9999 5.50001C34.8999 5.40001 34.7999 5.20001 34.6999 5.00001C34.4999 4.70001 34.2999 4.40001 34.0999 4.10001C33.8999 3.80001 33.6999 3.40001 33.4999 3.10001L33.1999 2.60001C33.0999 2.40001 32.9999 2.30001 32.8999 2.10001C32.9999 2.40001 32.9999 2.50001 33.0999 2.70001L33.3999 3.20001C33.5999 3.50001 33.7999 3.80001 33.9999 4.20001C34.1999 4.50001 34.3999 4.90001 34.5999 5.10001L34.9999 5.60001L35.0999 5.70001L35.1999 5.80001L35.2999 6.00001L35.5999 6.60001L35.6999 6.80001C35.9999 7.10001 36.0999 7.70001 36.2999 8.10001L36.3999 8.30001C36.6999 9.00001 36.9999 9.60001 37.1999 10.2L37.8999 11.9L37.9999 12.1C38.2999 12.8 38.5999 13.6 38.8999 14.3L38.9999 14.5C39.0999 14.8 39.2999 15.1 39.3999 15.3L39.4999 15.5C39.7999 15.8 39.8999 16.4 40.0999 16.7L40.1999 16.9C40.3999 17.5 40.5999 18.1 40.6999 18.7L40.7999 18.8Z" fill="white"/>
<path d="M44 19.7C44.5 19.7 45.1 20 45.7 20.1C45.8 20.1 45.9 20.1 46 20.1C46.2 20.1 46.4 20.2 46.7 20.2C46.9 20.2 47 20.3 47.2 20.3C47.9 20.5 48.6 20.7 49.3 20.8C49.4 20.8 49.6 20.8 49.8 20.9C50.1 21 50.4 21 50.7 21C50.8 21 50.9 21 51 21C51.9 21.2 52.8 21.3 53.7 21.4C53.8 21.4 53.9 21.4 54 21.4C54.1 21.4 54.2 21.4 54.3 21.4H54.6C54.8 21.4 55 21.5 55.3 21.5C55.4 21.5 55.4 21.5 55.5 21.5C56.3 21.7 57.1 21.9 57.9 22L58.1 22.1C58.3 22.2 58.6 22.2 58.8 22.3C59.8 22.6 59.3 22.1 60.3 22.2C60.8 22.3 61.1 22.3 61.6 22.4H62C62.1 22.4 62.2 22.4 62.4 22.5C62.6 22.6 62.4 22.4 62.6 22.5C63.6 22.8 65.2 22.5 66.2 22.7C65.2 22.4 63.6 22.7 62.6 22.5C62.4 22.4 62.6 22.6 62.4 22.5C62.3 22.5 62.2 22.5 62 22.4H61.6C61.1 22.3 60.8 22.3 60.3 22.2C59.3 22 59.7 22.5 58.8 22.2C58.6 22.1 58.3 22 58.1 22C58 22 57.9 22 57.9 21.9C57.1 21.7 56.3 21.6 55.4 21.4C55.3 21.4 55.3 21.4 55.2 21.4C55.1 21.4 55 21.4 54.8 21.3H54.5C54.3 21.3 54.2 21.3 54 21.3C53.8 21.3 53.8 21.3 53.7 21.3C52.7 21.2 51.9 21.1 51.1 20.9C51 20.9 50.9 20.9 50.8 20.9C50.5 20.8 50.2 20.8 49.9 20.7C49.7 20.7 49.6 20.6 49.4 20.6C48.6 20.5 48 20.2 47.2 20.1C47 20.1 46.9 20 46.7 20C46.5 20 46.3 19.9 46 19.9H45.7C45.1 20 44.6 19.7 44 19.7Z" fill="#D6D4D4"/>
<path d="M41 3.30001C41.1 3.30001 41.1999 3.20001 41.2999 3.20001C41.6999 3.20001 42.1999 3.20001 42.5999 3.30001C42.1999 3.30001 41.7999 3.30001 41.2999 3.20001C41.0999 3.20001 41 3.30001 41 3.30001C40.9 3.30001 40.8 3.30001 40.7 3.30001C40.6 3.30001 40.3 3.40001 40.2 3.50001C40.4 3.40001 40.5999 3.40001 40.7999 3.30001C40.8999 3.40001 40.9 3.40001 41 3.30001Z" fill="#C7C7C7"/>
<path d="M37.2998 4.80001C38.1998 4.40001 39.1998 4.00001 40.0998 3.60001C39.1998 3.90001 38.1998 4.30001 37.2998 4.80001Z" fill="#C7C7C7"/>
<path d="M34.2 6.49999L34.4 6.39999L34.6 6.19999L34.7 6.09999L34.8 5.99999H35.1C35.8 5.59999 36.6 5.19999 37.3 4.89999L35 5.99999C35 5.89999 34.9 5.99999 34.8 5.99999L34.7 6.09999L34.6 6.19999L34.4 6.39999L34.2 6.49999C33.6 6.89999 33 7.29999 32.5 7.79999L32.6 7.89999C33.1 7.29999 33.8 7.09999 34.2 6.49999Z" fill="#C7C7C7"/>
<path d="M36.2 8C36.6 7.9 36.8999 7.7 37.2999 7.6C37.3999 7.6 37.4999 7.5 37.5999 7.5C38.3999 7.3 39.4 6.3 40.2 6.1C40.3 6.1 40.4 6.1 40.5 6C41.3 6.1 41.9 6.7 42.7 6.7C41.9 6.4 41.4 6 40.5 6C40.4 6 40.3 6 40.2 6.1C39.2 6.4 38.3 7.4 37.4 7.6H37C36.8 7.7 36.6 7.8 36.4 7.9L36.2 8Z" fill="white"/>
<path d="M56.2 21.8C56.7 22 57.0999 22.4 57.5999 22.6L57.7999 22.7C57.9999 22.9 58.3 23 58.5 23.2C58.8 23.4 58.9999 23.5 59.2999 23.6C59.3999 23.7 59.6 23.7 59.7 23.7L60.0999 23.8L60.9 24.1C61.5 24.3 60.6 23.7 61.2 24C60.6 23.8 61.5 24.3 60.9 24.1L60.0999 23.8L59.7 23.7L59.2999 23.6C58.9999 23.5 58.8 23.4 58.5 23.2C58.3 23.1 57.9999 22.9 57.7999 22.7L57.5999 22.6C57.1999 22.3 56.8 22.1 56.4 21.9L56.2 21.8Z" fill="#C7C7C7"/>
<path d="M35.6999 12.3C35.5999 12.4 35.3999 12.5 35.2999 12.6L34.8999 13L34.7999 13.1H34.6999L34.5999 13.2L34.4999 13.3C34.3999 13.5 34.2999 13.6 34.0999 13.8L34.1999 14C33.9999 14.3 33.8999 14.7 33.6999 15.1V15.2V15.3L33.5999 15.4L33.4999 15.5C33.4999 15.5 33.4999 15.6 33.3999 15.6L33.4999 15.5C33.4999 15.5 33.4999 15.4 33.5999 15.4L33.6999 15.3V15.2V15.1C33.8999 14.7 33.9999 14.3 34.2999 14L34.3999 13.9C34.4999 13.7 34.5999 13.6 34.6999 13.4L34.7999 13.3L34.8999 13.2H34.9999L35.0999 13.1L35.4999 12.7C35.4999 12.6 35.5999 12.4 35.6999 12.3Z" fill="#C7C7C7"/>
<path opacity="0.7" d="M33.0999 8.70001C32.9999 9.00001 32.7999 9.30001 32.5999 9.60001L32.4999 9.80001C32.2999 10.1 31.9999 10.5 31.7999 10.8L31.5999 11C31.4999 11.1 31.4999 11 31.3999 11.1L31.2999 11.2L31.1999 11.3C31.1999 11.3 31.0999 11.4 30.9999 11.4C30.9999 11.4 30.9999 11.5 30.8999 11.5C30.8999 11.5 30.7999 11.6 30.6999 11.6H30.5999H30.4999L30.3999 11.7C30.1999 11.8 30.0999 11.9 29.8999 12C29.6999 12.1 29.5999 12.2 29.3999 12.3C29.5999 12.2 29.6999 12.1 29.8999 12C30.0999 11.9 30.1999 11.8 30.3999 11.7L30.4999 11.6C30.4999 11.6 30.4999 11.6 30.5999 11.6H30.6999L30.8999 11.4L30.9999 11.3L31.0999 11.2L31.1999 11.1L31.2999 11C31.3999 10.9 31.5999 10.8 31.6999 10.6L31.7999 10.4C31.9999 10.2 32.1999 9.90001 32.2999 9.70001L32.3999 9.50001C32.7999 9.30001 32.9999 9.10001 33.0999 8.70001C33.0999 8.80001 33.0999 8.80001 33.0999 8.70001Z" fill="#C7C7C7"/>
<path d="M33.0999 8.80001L32.6999 9.50001C32.4999 9.90001 32.1999 10.3 31.8999 10.6C32.3999 10 32.7999 9.30001 33.0999 8.60001V8.80001Z" fill="white"/>
<path d="M60.8998 22.2L60.9998 22.4C60.9998 22.4 60.9998 22.4 60.8998 22.4C60.7998 22.4 60.7998 22.3 60.8998 22.2L60.7998 22C60.7998 21.7 61.4998 20.9 61.8998 20.9H61.6998C61.1998 21 60.7998 21.9 60.8998 22.2Z" fill="#C7C7C7"/>
<path d="M63 21.6C63.1 21.6 63.1 21.7 63.2 21.7C62.8 21.4 62.2 21.2 61.7 21.3C61.9 21.2 62.2 21.2 62.4 21.3C62.6 21.3 62.8 21.4 63 21.6Z" fill="#C7C7C7"/>
<path d="M61.2 21.9C61.2 22 61.2 22.1 61.2 22.1C61.2 22.2 61.2 22.3 61.3 22.4C61.2 22.3 61.2 22.2 61.2 22C61.1 22 61.1 22 61.2 21.9C61.2 21.7 61.2 21.6 61.3 21.5C61.4 21.4 61.5 21.3 61.6 21.3C61.5 21.4 61.4 21.4 61.3 21.5C61.2 21.7 61.2 21.8 61.2 21.9Z" fill="#C7C7C7"/>
<path d="M61.1 22.5C60.9 22.1 61.1 22 61.2 21.7C61.1 22 60.9 22.1 61.1 22.5Z" fill="#C7C7C7"/>
<path d="M62.1998 21.2H62.0998H61.9998H61.8998H61.7998L61.9998 21.3C62.0998 21.2 62.1998 21.2 62.1998 21.2Z" fill="#C7C7C7"/>
<path d="M62.7999 21.7L63 21.8L62.7999 21.7C62.5999 21.5 62.4 21.5 62.2 21.4C62.5 21.5 62.6999 21.6 62.7999 21.7Z" fill="#C7C7C7"/>
<path d="M61.4 22.5C61.3 22.3 61.2999 22 61.2999 21.7C61.3999 21.6 61.6 21.5 61.7 21.5C61.9 21.5 62 21.4 62.2 21.5C62 21.5 61.9 21.5 61.7 21.5C61.6 21.5 61.5 21.6 61.4 21.7C61.3 21.8 61.3 21.9 61.2 22C61.2 22.1 61.2 22.2 61.2 22.3C61.2 22.4 61.4 22.4 61.4 22.5Z" fill="#C7C7C7"/>
<path d="M61.6999 22C61.6999 22.1 61.6999 22.2 61.6999 22.3C61.6999 22.4 61.7999 22.5 61.7999 22.6C61.7999 22.6 61.7999 22.6 61.6999 22.6C61.5999 22.5 61.5999 22.4 61.5999 22.3C61.5999 22.2 61.5999 22.1 61.6999 22C61.6999 21.9 61.7999 21.8 61.8999 21.8C61.9999 21.8 62.0999 21.8 62.2999 21.8C62.1999 21.8 62.0999 21.8 61.8999 21.8C61.7999 21.8 61.6999 21.9 61.6999 22Z" fill="#C7C7C7"/>
<path d="M61.5999 22.5C61.4999 22.4 61.3999 22.3 61.3999 22.2C61.3999 22.1 61.3999 22 61.4999 21.9C61.5999 21.8 61.6999 21.7 61.7999 21.7C61.8999 21.7 61.9999 21.6 62.1999 21.7C62.0999 21.7 62.0999 21.7 61.9999 21.7C61.5999 21.7 61.3999 22.1 61.5999 22.5Z" fill="#C7C7C7"/>
<path opacity="0.7" d="M61.8999 22.2C61.8999 22.3 61.8999 22.3 61.8999 22.4C61.8999 22.5 61.8999 22.5 61.9999 22.6C61.9999 22.5 61.9999 22.5 61.9999 22.4C61.8999 22.3 61.8999 22.3 61.8999 22.2C61.9999 22.2 61.9999 22.2 61.8999 22.2C61.9999 22.1 61.9999 22.1 62.0999 22.1C62.1999 22.1 62.3999 22.1 62.4999 22.1C62.3999 22.1 62.1999 22.1 62.0999 22.1C61.9999 22.1 61.9999 22.2 61.8999 22.2Z" fill="#C7C7C7"/>
<path opacity="0.7" d="M61.8998 22.6C61.8998 22.5 61.7998 22.5 61.7998 22.4C61.7998 22.3 61.7998 22.2 61.8998 22.2C61.8998 22.1 61.9998 22.1 62.0998 22.1C62.1998 22.1 62.1998 22.1 62.2998 22.1H62.1998C61.8998 22 61.7998 22.2 61.8998 22.6Z" fill="#C7C7C7"/>
<path opacity="0.7" d="M57.9 23.5C57.6 24.1 57.4 24.7 57.2 25.3C57.4 24.7 57.6 24.1 57.9 23.5Z" fill="white"/>
<path opacity="0.7" d="M55.3 28.5C55.2 28.6 55.1 28.7 55 28.8L54.8 29L54.5 29.3C54 31.3 52.2 30.2 50.8 31L50.5 31.2C50.6 31.1 50.7 31.1 50.8 31C52.3 30.2 53.9 31.6 54.7 29.3L55 29L55.3 28.7L55.6 28.4C56.4 27.5 57 26.4 57.3 25.2C56.6 26.4 56 27.5 55.3 28.5Z" fill="white"/>
<path opacity="0.7" d="M57.2998 15.2C57.8998 16.5 58.1998 17.9 58.2998 19.4V19.8C58.2998 20.7 58.1998 21.5 58.0998 22.4C58.0998 22.5 58.0998 22.7 57.9998 22.8C57.8998 23 57.8998 23.3 57.7998 23.5C57.8998 23.2 58.0998 23 58.1998 22.7L58.2998 22.3C58.3998 21.9 58.3998 21.5 58.3998 21.1C58.3998 20.7 58.3998 20.3 58.3998 19.9V19.5C58.2998 18 57.8998 16.6 57.2998 15.2C57.3998 15.2 57.3998 15.2 57.2998 15.2Z" fill="white"/>
<path d="M56.8 25C56.6 25.6 56.3 26.3 56 26.9C56.2 26.5 56.6 25.7 56.7 25.3L56.8 25Z" fill="white"/>
<path opacity="0.3" d="M54.2 29.2C53.6 30 53.4 30.4 52.7 30.4C52.6 30.4 52.4999 30.4 52.2999 30.4C51.1999 30.4 49.9999 30.3 49.0999 30.8L48.7 31C48.7 31 47.8 32.1 47.7 32.1L48.7 31C48.8 31 48.9 30.9 49 30.9C50.2 30.3 51.6999 30.9 52.7999 30.6C52.8999 30.6 52.9999 30.5 53.0999 30.5C54.0999 30.2 54.5 29.2 55 28.2L55.2 27.8C54.9 27.2 55.9 27.3 55.7 26.7C55.5 27.1 55.4999 27.1 55.2999 27.5L55 27.9C54.8 28.3 54.5999 28.6 54.2999 29L54.2 29.2Z" fill="white"/>
<path opacity="0.3" d="M57.5999 16C57.3999 17.3 57.8999 18.1 58.1999 19.4C58.3999 19.9 58.3999 20.5 58.2999 21C58.1999 21.5 57.8999 22 57.5999 22.4L57.4999 22.7C57.3999 23.2 57.2999 23.6 57.0999 24C57.0999 24.1 56.9999 24.3 56.8999 24.7C56.9999 24.6 57.0999 24.5 57.1999 24.4C57.1999 24.3 57.2999 24.2 57.2999 24C57.3999 23.6 57.4999 23.3 57.5999 22.9L57.6999 22.6L57.7999 22.3C58.0999 21.9 58.2999 21.5 58.3999 21.1C58.4999 20.6 58.4999 20.2 58.2999 19.7L58.1999 19.3C57.7999 18.2 57.6999 17.1 57.5999 16C57.5999 16 57.6999 16 57.5999 16Z" fill="white"/>
</g>
<defs>
<clipPath id="clip0_1510_9369">
<rect width="105" height="63" fill="white"/>
</clipPath>
</defs>
</svg>
