<svg width="16" height="16" viewBox="0 0 16 16" fill="none" xmlns="http://www.w3.org/2000/svg">
<path d="M9.53125 8.96155V6.46926L1.54834 1.2937L0.0183125 3.65361L1 4.29008V5.54995C0.41925 5.74598 0 6.29595 0 6.94201C0 7.75189 0.658875 8.41076 1.46875 8.41076C1.88603 8.41076 2.285 8.23236 2.56341 7.9213L1.86481 7.29608C1.76403 7.4087 1.61966 7.47326 1.46875 7.47326C1.17581 7.47326 0.9375 7.23495 0.9375 6.94201C0.9375 6.64908 1.17581 6.41076 1.46875 6.41076H1.9375V4.89789L5.86459 7.44392V8.96155H9.53125Z" fill="#217B56"/>
<path d="M16 9.17277L14.6382 8.23236H10.4688V9.89902H0V13.33H1.28691C1.28688 13.3261 1.28663 13.3223 1.28663 13.3184C1.28663 12.0361 2.32981 10.9929 3.61206 10.9929C4.89431 10.9929 5.9375 12.0361 5.9375 13.3184C5.9375 13.3223 5.93722 13.3261 5.93719 13.33H9.39612C9.39609 13.3261 9.39584 13.3223 9.39584 13.3184C9.39584 12.0361 10.439 10.9929 11.7213 10.9929C13.0035 10.9929 14.0467 12.0361 14.0467 13.3184C14.0467 13.3223 14.0464 13.3261 14.0464 13.33H16V9.17277Z" fill="#217B56"/>
<path d="M10.4688 7.29489H14.1765L13.3513 4.47327H10.4688V7.29489Z" fill="#217B56"/>
<path d="M4.15251 14.5891C4.85695 14.2879 5.18381 13.4726 4.88256 12.7682C4.58131 12.0637 3.76603 11.7368 3.06159 12.0381C2.35714 12.3393 2.03028 13.1546 2.33153 13.8591C2.63278 14.5635 3.44806 14.8904 4.15251 14.5891Z" fill="#217B56"/>
<path d="M12.1717 14.6354C12.8977 14.3886 13.286 13.6 13.0392 12.8741C12.7924 12.1482 12.0038 11.7598 11.2779 12.0066C10.552 12.2535 10.1636 13.042 10.4104 13.7679C10.6573 14.4938 11.4458 14.8822 12.1717 14.6354Z" fill="#217B56"/>
</svg>
