<svg width="87" height="95" viewBox="0 0 87 95" fill="none" xmlns="http://www.w3.org/2000/svg">
<path d="M48.8465 90.4678C69.5953 90.4678 86.4156 89.2516 86.4156 87.7514C86.4156 86.2511 69.5953 85.035 48.8465 85.035C28.0976 85.035 11.2773 86.2511 11.2773 87.7514C11.2773 89.2516 28.0976 90.4678 48.8465 90.4678Z" fill="#E9F2EE"/>
<path d="M73.4363 88.262H21.1298C18.3064 88.262 16.0176 85.9732 16.0176 83.1498V6.50436C16.0176 3.68088 18.3064 1.39209 21.1298 1.39209H73.4363C76.2597 1.39209 78.5485 3.68088 78.5485 6.50436V83.1498C78.5485 85.9732 76.2597 88.262 73.4363 88.262Z" fill="#217B56"/>
<path d="M72.915 5.21283H20.9043V82.5459H72.915V5.21283Z" fill="white"/>
<path d="M52.7472 5.14213H41.4198C40.4196 5.14213 39.6016 4.32408 39.6016 3.32392V1.81821C39.6016 0.818051 40.4196 0 41.4198 0H52.7472C53.7474 0 54.5654 0.818051 54.5654 1.81821V3.32392C54.5654 4.32408 53.7474 5.14213 52.7472 5.14213Z" fill="#2C3E50"/>
<path d="M57.9299 7.71361H36.2381C35.238 7.71361 34.4199 6.89556 34.4199 5.89539V4.38968C34.4199 3.38952 35.238 2.57147 36.2381 2.57147H57.9299C58.9301 2.57147 59.7482 3.38952 59.7482 4.38968V5.89539C59.7482 6.89483 58.9301 7.71361 57.9299 7.71361Z" fill="#2C3E50"/>
<path d="M37.4131 28.8365H26.8629C26.4047 28.8365 26.0332 28.4649 26.0332 28.0067V27.3191C26.0332 26.8609 26.4047 26.4894 26.8629 26.4894H37.4131C37.8713 26.4894 38.2428 26.8609 38.2428 27.3191V28.0067C38.2428 28.4649 37.8713 28.8365 37.4131 28.8365Z" fill="#E9F2EE"/>
<path d="M34.1521 22.0743H26.8238C26.3657 22.0743 25.9941 21.7028 25.9941 21.2446V20.5569C25.9941 20.0987 26.3657 19.7272 26.8238 19.7272H34.1521C34.6103 19.7272 34.9818 20.0987 34.9818 20.5569V21.2446C34.9818 21.7028 34.6103 22.0743 34.1521 22.0743Z" fill="#E9F2EE"/>
<path d="M40.5388 35.8529H26.5934C26.1352 35.8529 25.7637 35.4814 25.7637 35.0232V34.3356C25.7637 33.8774 26.1352 33.5059 26.5934 33.5059H40.5381C40.9963 33.5059 41.3678 33.8774 41.3678 34.3356V35.0232C41.3685 35.4814 40.997 35.8529 40.5388 35.8529Z" fill="#E9F2EE"/>
<path d="M68.3132 78.3886H26.5934C26.1352 78.3886 25.7637 78.0171 25.7637 77.5589V76.8713C25.7637 76.4131 26.1352 76.0416 26.5934 76.0416H68.3132C68.7714 76.0416 69.1429 76.4131 69.1429 76.8713V77.5589C69.1429 78.0164 68.7714 78.3886 68.3132 78.3886Z" fill="#E9F2EE"/>
<path d="M68.741 44.1646H25.8047V72.8429H68.741V44.1646Z" fill="#E9F2EE"/>
<path d="M33.8248 51.2808H30.0718C29.5568 51.2808 29.1387 50.8634 29.1387 50.3476V49.5747C29.1387 49.0597 29.5561 48.6416 30.0718 48.6416H33.8248C34.3398 48.6416 34.7579 49.059 34.7579 49.5747V50.3476C34.7579 50.8634 34.3405 51.2808 33.8248 51.2808Z" fill="white"/>
<path d="M64.2968 51.2808H40.5347C40.0197 51.2808 39.6016 50.8634 39.6016 50.3476V49.5747C39.6016 49.0597 40.019 48.6416 40.5347 48.6416H64.2968C64.8118 48.6416 65.2299 49.059 65.2299 49.5747V50.3476C65.2299 50.8634 64.8125 51.2808 64.2968 51.2808Z" fill="white"/>
<path d="M33.8248 59.0905H30.0718C29.5568 59.0905 29.1387 58.6731 29.1387 58.1573V57.3844C29.1387 56.8694 29.5561 56.4513 30.0718 56.4513H33.8248C34.3398 56.4513 34.7579 56.8687 34.7579 57.3844V58.1573C34.7579 58.6723 34.3405 59.0905 33.8248 59.0905Z" fill="white"/>
<path d="M64.2968 59.0905H40.5347C40.0197 59.0905 39.6016 58.6731 39.6016 58.1573V57.3844C39.6016 56.8694 40.019 56.4513 40.5347 56.4513H64.2968C64.8118 56.4513 65.2299 56.8687 65.2299 57.3844V58.1573C65.2299 58.6723 64.8125 59.0905 64.2968 59.0905Z" fill="white"/>
<path d="M33.8248 67.5916H30.0718C29.5568 67.5916 29.1387 67.1742 29.1387 66.6584V65.8855C29.1387 65.3705 29.5561 64.9524 30.0718 64.9524H33.8248C34.3398 64.9524 34.7579 65.3698 34.7579 65.8855V66.6584C34.7579 67.1734 34.3405 67.5916 33.8248 67.5916Z" fill="white"/>
<path d="M53.6687 67.5916H40.5347C40.0197 67.5916 39.6016 67.1742 39.6016 66.6584V65.8855C39.6016 65.3705 40.019 64.9524 40.5347 64.9524H53.6687C54.1837 64.9524 54.6018 65.3698 54.6018 65.8855V66.6584C54.6018 67.1734 54.1844 67.5916 53.6687 67.5916Z" fill="white"/>
<path d="M40.3887 2.88757H53.2247" stroke="#566573" stroke-width="0.321822" stroke-miterlimit="10" stroke-linecap="round" stroke-linejoin="round"/>
<path d="M59 33.979C63.9706 33.979 68 29.9543 68 24.9895C68 20.0247 63.9706 16 59 16C54.0294 16 50 20.0247 50 24.9895C50 29.9543 54.0294 33.979 59 33.979Z" fill="#EB2227"/>
<path d="M55.8594 23.9663L58.6348 28.4702L62.7617 21.715" stroke="white" stroke-width="0.788551" stroke-miterlimit="10" stroke-linecap="round" stroke-linejoin="round"/>
<path d="M11.7973 94.4116C18.3127 94.4116 23.5945 93.7309 23.5945 92.8913C23.5945 92.0517 18.3127 91.371 11.7973 91.371C5.28181 91.371 0 92.0517 0 92.8913C0 93.7309 5.28181 94.4116 11.7973 94.4116Z" fill="#E9F2EE"/>
<path d="M20.9526 50.175C23.2327 48.8303 24.0391 48.2089 26.298 46.8059L27.5196 47.731C23.4097 51.224 23.1751 52.8295 20.9242 53.2949C18.9989 51.7929 20.4966 50.6019 20.9526 50.175Z" fill="#C95836"/>
<path d="M26.0078 46.9654L26.9832 46.0541C27.1784 45.872 27.4319 45.7657 27.6993 45.7547L28.7796 45.7103C29.1562 45.695 29.4323 46.06 29.3143 46.4176L28.0234 47.4935C27.7386 47.731 27.3503 47.8614 26.9373 47.8592L26.2489 47.8549L26.0078 46.9654Z" fill="#C95836"/>
<path fill-rule="evenodd" clip-rule="evenodd" d="M25.6514 46.9975L26.7805 48.8288L21.7695 53.7L23.4115 48.2388L25.6514 46.9975Z" fill="#BDD7CC"/>
<path opacity="0.38" d="M39.9234 39.3011C44.4007 37.4013 46.4654 32.1733 44.535 27.6242C42.6047 23.0751 37.4103 20.9275 32.933 22.8273C28.4557 24.7272 26.391 29.9551 28.3214 34.5042C30.2517 39.0533 35.4461 41.201 39.9234 39.3011Z" fill="white"/>
<path d="M31.9743 39.2433L30.3301 43.3731L31.9822 44.0308L33.6264 39.901L31.9743 39.2433Z" fill="#969FA7"/>
<path d="M26.0509 56.5206C25.0624 56.1257 24.5765 54.9952 24.9713 54.0081L29.3297 43.112C29.7245 42.1249 30.8565 41.6398 31.845 42.0339C32.8335 42.4287 33.3194 43.5592 32.9246 44.5463L28.5662 55.4425C28.1714 56.4302 27.0394 56.9154 26.0509 56.5206Z" fill="#2C3E50"/>
<path d="M30.7115 22.2921C29.0047 23.4591 27.5522 25.0609 26.7269 27.1254C24.6144 32.4066 27.188 38.3981 32.4758 40.5077C37.7629 42.6173 43.7617 40.0466 45.8742 34.7661C47.9867 29.4856 45.4131 23.4933 40.1253 21.3837C38.5795 20.7667 36.9725 20.5504 35.4202 20.6844C35.4195 20.6844 33.0316 20.7063 30.7115 22.2921ZM33.154 38.8119C28.8044 37.076 26.6875 32.1473 28.4249 27.8028C30.1623 23.4584 35.0975 21.3437 39.4464 23.0796C43.7959 24.8155 45.9128 29.7442 44.1755 34.0886C42.4381 38.4331 37.5036 40.5478 33.154 38.8119Z" fill="#2C3E50"/>
<path fill-rule="evenodd" clip-rule="evenodd" d="M16.383 91.5233C16.383 91.5233 14.5983 80.8909 16.5855 76.6367L15.2051 62.1945L21.9615 62.5405L18.3192 91.5947L16.383 91.5233Z" fill="#E3633D"/>
<path fill-rule="evenodd" clip-rule="evenodd" d="M17.212 41.8072C17.212 41.8072 17.0466 43.1454 16.909 44.2541C16.8725 44.5491 16.6525 44.8063 16.3335 44.9265C16.0144 45.0467 15.6465 45.011 15.3705 44.834C15.2801 44.7757 15.192 44.7196 15.1082 44.6657C14.7294 44.4224 14.551 44.013 14.65 43.6145C14.9043 42.5925 15.3661 40.7321 15.3661 40.7321L17.212 41.8072Z" fill="#C95836"/>
<path fill-rule="evenodd" clip-rule="evenodd" d="M17.1953 42.5408L17.0242 43.3385L16.2148 42.5736L17.1953 42.5408Z" fill="#873B24"/>
<path fill-rule="evenodd" clip-rule="evenodd" d="M14.8703 40.4385C14.7378 40.0677 14.9279 39.6598 15.295 39.5272C15.6869 39.3859 16.1808 39.2082 16.572 39.0669C16.9391 38.9343 17.2888 39.1528 17.476 39.4988C17.6975 39.9068 17.9517 40.8282 18.0559 41.5188C18.1149 41.9085 17.9495 42.3463 17.5824 42.4789C17.1905 42.6202 15.8822 42.6661 15.5165 41.9996C15.2382 41.4911 15.0656 40.9841 14.8703 40.4385Z" fill="#C95836"/>
<path fill-rule="evenodd" clip-rule="evenodd" d="M15.6472 42.3827C14.5297 42.3223 13.7234 41.2595 14.0031 40.177C14.0635 39.9431 14.1415 39.7385 14.2427 39.5957C14.8765 38.7011 15.841 38.0943 17.158 38.8395C17.158 38.8395 17.2957 40.6031 15.6486 42.3827H15.6472Z" fill="#262D4D"/>
<path fill-rule="evenodd" clip-rule="evenodd" d="M16.0827 41.4605C16.2881 41.7096 16.6196 41.7737 16.8236 41.6025C17.0275 41.4321 17.0261 41.0912 16.8206 40.842C16.6152 40.5929 16.2838 40.5288 16.0798 40.7C15.8758 40.8712 15.8773 41.2114 16.0827 41.4605Z" fill="#C95836"/>
<path fill-rule="evenodd" clip-rule="evenodd" d="M11.1576 78.1053L5.11511 89.7962C3.91025 90.2558 3.26849 89.1799 3.59046 88.0479C4.93737 83.1388 4.80916 80.5419 8.7661 76.1166L11.1576 78.1053Z" fill="#E3633D"/>
<path fill-rule="evenodd" clip-rule="evenodd" d="M16.9163 63.9085L13.4445 76.0343C13.3032 76.6032 12.9746 77.4213 12.7146 77.9465L6.9569 88.5622L3.79688 86.8212C4.48963 81.7781 5.51748 79.3866 8.26446 74.1731L9.86779 62.7524L13.0628 62.8238L16.9163 63.9085Z" fill="#217B56"/>
<path fill-rule="evenodd" clip-rule="evenodd" d="M15.0132 63.3738L11.6281 75.1987C11.4868 75.7676 11.1582 76.5857 10.8982 77.1109L5.20898 87.5999L6.95654 88.5629L12.7142 77.9472C12.975 77.4219 13.3028 76.6039 13.4441 76.035L16.9159 63.9092L15.0132 63.3738Z" fill="#066132"/>
<path fill-rule="evenodd" clip-rule="evenodd" d="M5.17539 89.7656L5.25187 91.4191C5.22856 91.7754 5.76179 93.1878 5.76179 93.1878C5.61756 93.4865 5.31962 93.367 5.14042 93.206L2.55806 89.845C2.55806 89.845 1.54333 88.6773 3.55968 88.1754C3.77603 88.9898 4.59117 89.9754 5.17539 89.7656Z" fill="#221F14"/>
<path fill-rule="evenodd" clip-rule="evenodd" d="M12.1733 55.0782L21.4093 55.618C22.9194 56.1417 22.4729 64.7921 22.4729 64.7921L16.4129 65.1796C13.5195 65.1847 10.0492 65.6779 9.86704 62.7531C9.53341 57.3874 12.1733 55.0782 12.1733 55.0782Z" fill="#217B56"/>
<path fill-rule="evenodd" clip-rule="evenodd" d="M18.551 43.9875L15.1564 43.6509L14.2284 43.7034L11.6606 44.6489C10.482 45.2572 9.95456 46.4453 9.8788 48.23L9.52914 52.2773C9.55318 57.4784 9.34047 58.3365 9.1875 61.4696C14.2255 63.2383 21.7737 62.8311 23.3129 60.5095C23.114 57.2074 23.0849 51.9575 22.3164 49.169C21.6265 46.6653 19.7377 45.8764 18.551 43.9875Z" fill="#BDD7CC"/>
<path fill-rule="evenodd" clip-rule="evenodd" d="M18.3812 91.1292L19.326 92.0274C19.5933 92.2634 21.0386 92.7063 21.0386 92.7063C21.1872 93.0028 20.9096 93.1652 20.6729 93.2089L16.4311 93.1951C16.4311 93.1951 15.4484 93.0094 16.284 91.1088C17.0612 91.4352 18.1903 91.7185 18.3812 91.1292Z" fill="#221F14"/>
<path fill-rule="evenodd" clip-rule="evenodd" d="M22.4736 64.7921L21.1288 77.0672L19.2917 89.3817L14.3535 89.4684C14.3535 89.4684 14.7767 87.3253 14.7105 86.6493C14.6442 85.9725 14.3513 79.5512 15.8039 76.569L15.4717 64.5335L22.4736 64.7921Z" fill="#217B56"/>
<path d="M13.2695 65.2393L15.4265 65.2721" stroke="#3C4285" stroke-width="0.36907" stroke-miterlimit="10" stroke-linecap="round" stroke-linejoin="round"/>
<path fill-rule="evenodd" clip-rule="evenodd" d="M19.6934 44.7764C19.6934 44.7764 27.5956 51.5685 26.9713 52.5505L26.7091 52.9919C26.3682 53.5652 25.5224 53.657 24.9899 53.1776L21.0242 49.609L20.2368 48.9308L19.6934 44.7764Z" fill="#C95836"/>
<path d="M30.6388 49.979L31.7832 49.2906C32.0119 49.1529 32.1838 48.938 32.2668 48.6845L32.6048 47.6589C32.7229 47.3012 32.4468 46.9363 32.0702 46.9523L30.681 47.8985C30.3743 48.1069 30.1427 48.4442 30.032 48.8419L29.8477 49.5048L30.6388 49.979Z" fill="#C95836"/>
<path fill-rule="evenodd" clip-rule="evenodd" d="M18.5488 43.9875C18.5488 43.9875 20.7881 44.6744 21.6651 45.6593C22.3557 46.4351 24.5534 48.8055 25.4553 49.7765C25.6927 50.0322 26.0606 50.1189 26.3877 49.9965L29.8333 48.356L31.0571 49.9979C31.0571 49.9979 26.7235 54.491 25.3358 53.7859C24.4602 53.3408 19.4929 49.6104 19.4929 49.6104L18.5488 43.9875Z" fill="#BDD7CC"/>
<path d="M22.5658 51.8271L19.8749 49.6032L19.3184 49.1916" stroke="#217B56" stroke-width="0.36907" stroke-miterlimit="10" stroke-linecap="round" stroke-linejoin="round"/>
<path d="M63.9883 5.15234L72.9154 5.2128L73.067 45.2667" stroke="#39446B" stroke-width="0.291548" stroke-miterlimit="10" stroke-linecap="round" stroke-linejoin="round"/>
</svg>
