<svg width="37" height="37" viewBox="0 0 37 37" fill="none" xmlns="http://www.w3.org/2000/svg">
<path d="M13.7131 29.9931L10.5277 28.6287C10.3204 28.5385 10.1438 28.3898 10.0196 28.2009C9.8954 28.012 9.82886 27.7911 9.82812 27.565V27.1719L9.81656 27.114C10.5142 26.9761 11.1361 26.5848 11.5625 26.0156L11.6145 25.9058C12.1187 26.2499 12.6972 26.4698 13.3027 26.5475L13.2969 26.5937V28.3512C13.2975 28.9245 13.4405 29.4887 13.7131 29.9931Z" fill="white"/>
<path d="M18.5 28.1605V29.4844L16.8755 30.0278L16.3089 29.785C16.1016 29.6947 15.9251 29.5461 15.8009 29.3572C15.6767 29.1683 15.6101 28.9473 15.6094 28.7212V26.2006C15.7402 26.1382 15.8676 26.0687 15.9909 25.9925C16.2344 26.5092 16.5834 26.9691 17.0156 27.3425C17.4478 27.7159 17.9535 27.9946 18.5 28.1605Z" fill="white"/>
<path d="M19.6562 28.3281C20.187 28.3294 20.7128 28.2254 21.2031 28.0219C21.6933 27.8185 22.1383 27.5197 22.5122 27.1429L22.5469 27.1719V29.282C22.5459 29.5126 22.4761 29.7376 22.3463 29.9282C22.2165 30.1188 22.0327 30.2662 21.8184 30.3515L19.6562 31.2187L16.8755 30.0278L18.5 29.4844V28.1604C18.8753 28.2719 19.2647 28.3284 19.6562 28.3281Z" fill="white"/>
<path d="M27.1719 24.4431V27.0331C27.1718 27.2482 27.1116 27.459 26.9983 27.6419C26.8849 27.8247 26.7228 27.9722 26.5302 28.068L24.8594 28.9062V26.0156L24.8189 25.8826C25.7322 25.6553 26.5536 25.1528 27.1719 24.4431Z" fill="white"/>
<path d="M24.8594 26.0157V29.2069C24.8596 29.8183 24.6983 30.4189 24.3917 30.9478C24.085 31.4768 23.6441 31.9153 23.1134 32.2189L20.8125 33.5313L19.6562 31.2188L21.8184 30.3516C22.0327 30.2663 22.2165 30.1189 22.3463 29.9283C22.4761 29.7377 22.5459 29.5127 22.5469 29.2821V27.1719L22.5122 27.143C22.8456 26.8119 23.1177 26.4244 23.3158 25.9983C23.443 26.0041 23.5702 26.0157 23.7031 26.0157C24.079 26.016 24.4536 25.9713 24.8189 25.8827L24.8594 26.0157Z" fill="#9A6948"/>
<path d="M16.8755 30.0278L19.6562 31.2187L20.8125 33.5312L21.9688 36.4219H17.3438V32.375L15.4012 31.5425C14.7779 31.2732 14.2468 30.8277 13.8729 30.2608C13.4991 29.694 13.2989 29.0303 13.2969 28.3512V26.5937L13.3027 26.5475C13.4916 26.5806 13.6832 26.5961 13.875 26.5937C14.4751 26.5925 15.0674 26.4583 15.6094 26.2006V28.7212C15.6101 28.9473 15.6767 29.1683 15.8009 29.3572C15.9251 29.5461 16.1016 29.6947 16.3089 29.785L16.8755 30.0278Z" fill="#9A6948"/>
<path d="M15.54 16.5633C14.9835 17.0934 14.6176 17.7925 14.4994 18.552C14.2927 18.5201 14.0841 18.5027 13.875 18.5C13.0074 18.4993 12.1626 18.7774 11.4651 19.2933C10.7676 19.8092 10.2544 20.5357 10.0011 21.3654C9.74786 22.1952 9.76795 23.0844 10.0584 23.9019C10.3489 24.7194 10.8944 25.4219 11.6145 25.9058L11.5625 26.0156C11.1361 26.5848 10.5142 26.9761 9.81655 27.114C9.63037 27.1539 9.44039 27.1733 9.24999 27.1719C8.66301 27.1707 8.0903 26.9908 7.60802 26.6562C7.12575 26.3216 6.75676 25.8481 6.55015 25.2987C6.30307 25.3864 6.04338 25.4333 5.78124 25.4375C5.16793 25.4375 4.57974 25.1938 4.14606 24.7602C3.71238 24.3265 3.46874 23.7383 3.46874 23.125C3.46874 23.044 3.48609 22.9689 3.49187 22.8937C2.97043 22.6716 2.5258 22.3011 2.21328 21.8282C1.90075 21.3554 1.73413 20.8011 1.73413 20.2344C1.73413 19.6676 1.90075 19.1133 2.21328 18.6405C2.5258 18.1676 2.97043 17.7971 3.49187 17.575C3.48609 17.4998 3.46874 17.4247 3.46874 17.3437C3.46483 16.848 3.58949 16.3596 3.83058 15.9264C4.07166 15.4932 4.42093 15.1299 4.84431 14.8719C5.26768 14.6139 5.7507 14.4701 6.24624 14.4544C6.74178 14.4388 7.23291 14.5519 7.67171 14.7826C7.83925 14.3463 8.13488 13.9709 8.51976 13.7057C8.90463 13.4405 9.36073 13.298 9.82812 13.2969L9.87437 13.2911C10.0097 14.2555 10.4892 15.1384 11.2245 15.777C11.9598 16.4156 12.9011 16.7667 13.875 16.7656C14.4002 16.7648 14.9204 16.6627 15.407 16.465C15.4489 16.501 15.4933 16.5338 15.54 16.5633Z" fill="#2F5224"/>
<path d="M30.0625 9.25C30.063 9.85182 29.9287 10.4461 29.6696 10.9893C29.4105 11.5325 29.0331 12.0108 28.5652 12.3892C28.1194 12.2236 27.6474 12.1394 27.1719 12.1406C26.0986 12.1406 25.0692 12.567 24.3103 13.3259C23.5514 14.0849 23.125 15.1142 23.125 16.1875C23.1277 16.3927 23.1451 16.5975 23.177 16.8003C22.4141 16.884 21.6844 17.1584 21.0553 17.5981C20.8224 17.102 20.4749 16.6684 20.0415 16.333C19.6081 15.9975 19.1012 15.7699 18.5626 15.6688C18.0239 15.5677 17.469 15.5961 16.9435 15.7517C16.4179 15.9072 15.9369 16.1854 15.54 16.5633C15.4933 16.5338 15.4489 16.501 15.407 16.465C14.9204 16.6627 14.4002 16.7648 13.875 16.7656C12.9011 16.7667 11.9598 16.4156 11.2245 15.777C10.4892 15.1384 10.0097 14.2555 9.87437 13.2911C9.84129 13.1021 9.82581 12.9105 9.82812 12.7187C9.82893 12.5232 9.84439 12.328 9.87437 12.1348C9.85703 12.1348 9.84547 12.1406 9.82812 12.1406C9.06148 12.1406 8.32624 11.8361 7.78414 11.294C7.24205 10.7519 6.9375 10.0166 6.9375 9.25C6.9375 8.48336 7.24205 7.74811 7.78414 7.20602C8.32624 6.66392 9.06148 6.35937 9.82812 6.35937C9.85125 6.35937 9.86859 6.36515 9.88594 6.36515C9.84896 6.17268 9.82961 5.97723 9.82812 5.78125C9.82812 5.01461 10.1327 4.27936 10.6748 3.73727C11.2169 3.19517 11.9521 2.89062 12.7188 2.89062C13.115 2.89008 13.507 2.97281 13.8692 3.13343C14.4005 2.23836 15.2569 1.58299 16.2597 1.30401C17.2625 1.02504 18.3343 1.144 19.2516 1.63609C19.8303 1.10699 20.5505 0.757776 21.3243 0.631077C22.0981 0.504379 22.892 0.605672 23.6092 0.922594C24.3265 1.23952 24.9359 1.75836 25.3632 2.41581C25.7905 3.07326 26.0172 3.84088 26.0156 4.625C26.0151 4.81861 25.9996 5.01188 25.9694 5.20312H26.0156C27.0889 5.20312 28.1183 5.62949 28.8772 6.38842C29.6361 7.14736 30.0625 8.1767 30.0625 9.25Z" fill="#5CB34F"/>
<path d="M18.5 28.1605C17.9534 27.9946 17.4478 27.716 17.0156 27.3425C16.5834 26.9691 16.2343 26.5092 15.9909 25.9925C15.8676 26.0687 15.7402 26.1382 15.6094 26.2006C15.0674 26.4583 14.4751 26.5926 13.875 26.5938C13.6832 26.5961 13.4916 26.5806 13.3026 26.5475C12.6972 26.4699 12.1187 26.2499 11.6145 25.9058C10.8944 25.4219 10.3489 24.7194 10.0584 23.9019C9.76794 23.0844 9.74785 22.1952 10.0011 21.3655C10.2544 20.5357 10.7676 19.8093 11.4651 19.2934C12.1626 18.7774 13.0074 18.4993 13.875 18.5C14.0841 18.5028 14.2927 18.5201 14.4994 18.5521C14.6176 17.7926 14.9834 17.0934 15.54 16.5633C15.9369 16.1854 16.4179 15.9072 16.9434 15.7517C17.4689 15.5962 18.0239 15.5678 18.5625 15.6688C19.1012 15.7699 19.6081 15.9975 20.0415 16.333C20.4749 16.6684 20.8224 17.1021 21.0553 17.5981C21.6844 17.1584 22.414 16.884 23.177 16.8003C23.1451 16.5976 23.1277 16.3928 23.125 16.1875C23.125 15.1142 23.5513 14.0849 24.3103 13.3259C25.0692 12.567 26.0986 12.1406 27.1719 12.1406C27.6474 12.1394 28.1193 12.2236 28.5651 12.3892C28.6658 12.4237 28.7642 12.4643 28.86 12.5106C29.3446 12.2532 29.8876 12.1256 30.4362 12.1402C30.9848 12.1548 31.5202 12.3112 31.9904 12.594C32.4607 12.8769 32.8497 13.2766 33.1197 13.7543C33.3897 14.2321 33.5315 14.7716 33.5312 15.3203C33.53 15.9786 33.3262 16.6205 32.9473 17.1588C33.506 17.4209 33.9974 17.8072 34.3838 18.2884C34.7703 18.7695 35.0416 19.3327 35.177 19.9348C35.3124 20.5369 35.3082 21.1619 35.165 21.7622C35.0217 22.3625 34.743 22.922 34.3503 23.398C33.9575 23.8741 33.4611 24.2539 32.899 24.5087C32.3369 24.7634 31.724 24.8862 31.1071 24.8676C30.4903 24.8491 29.8859 24.6897 29.3401 24.4017C28.7943 24.1137 28.3216 23.7047 27.9581 23.206C27.7626 23.6571 27.4973 24.0746 27.1719 24.4431C26.5536 25.1528 25.7322 25.6553 24.8189 25.8827C24.4536 25.9713 24.079 26.0159 23.7031 26.0156C23.5701 26.0156 23.4429 26.0041 23.3158 25.9983C22.9898 26.6939 22.4726 27.2825 21.8246 27.695C21.1765 28.1076 20.4244 28.3272 19.6562 28.3281C19.2647 28.3284 18.8753 28.2719 18.5 28.1605Z" fill="#7BC24F"/>
<path d="M31.2187 21.9687C30.5836 21.9683 29.9575 21.8184 29.3911 21.5312C28.8246 21.2439 28.3337 20.8274 27.9581 20.3153C27.7626 20.7664 27.4973 21.1839 27.1719 21.5525C26.5536 22.2621 25.7322 22.7647 24.8189 22.992C24.4536 23.0806 24.079 23.1253 23.7031 23.125C23.5701 23.125 23.443 23.1134 23.3158 23.1076C22.9898 23.8033 22.4726 24.3918 21.8246 24.8043C21.1765 25.2169 20.4245 25.4365 19.6562 25.4375C18.8861 25.4384 18.1318 25.219 17.4823 24.8052C16.8329 24.3913 16.3154 23.8003 15.9909 23.1018C15.8676 23.1781 15.7402 23.2475 15.6094 23.31C15.0674 23.5676 14.4751 23.7019 13.875 23.7031C13.6832 23.7054 13.4916 23.6899 13.3026 23.6568C12.6972 23.5792 12.1187 23.3593 11.6145 23.0151C10.9246 22.5502 10.3945 21.8841 10.0964 21.1073C9.76909 21.9609 9.74104 22.9003 10.0168 23.7719C10.2926 24.6435 10.8558 25.3957 11.6145 25.9057C12.1187 26.2499 12.6972 26.4698 13.3026 26.5475C13.4916 26.5805 13.6832 26.596 13.875 26.5937C14.4751 26.5925 15.0674 26.4582 15.6094 26.2006C15.7402 26.1382 15.8676 26.0687 15.9909 25.9925C16.3154 26.6909 16.8329 27.2819 17.4823 27.6958C18.1318 28.1097 18.8861 28.3291 19.6562 28.3281C20.4245 28.3271 21.1765 28.1075 21.8246 27.695C22.4726 27.2824 22.9898 26.6939 23.3158 25.9982C23.443 26.004 23.5701 26.0156 23.7031 26.0156C24.079 26.0159 24.4536 25.9712 24.8189 25.8826C25.7322 25.6553 26.5536 25.1528 27.1719 24.4431C27.4973 24.0745 27.7626 23.657 27.9581 23.2059C28.5338 24.0007 29.3792 24.5587 30.3364 24.7755C31.2935 24.9923 32.2969 24.853 33.1588 24.3837C34.0208 23.9145 34.6823 23.1473 35.0197 22.2258C35.3571 21.3042 35.3473 20.2913 34.9922 19.3764C34.6992 20.1395 34.1817 20.7957 33.508 21.2585C32.8343 21.7214 32.0361 21.969 31.2187 21.9687Z" fill="#44853B"/>
<path d="M32.9612 17.1663L32.9352 17.1703C32.8142 17.9696 32.4012 18.6958 31.776 19.2083C31.1508 19.7209 30.3578 19.9834 29.5503 19.9453C29.0303 19.9522 28.5151 19.8446 28.0413 19.6303C27.5675 19.416 27.1465 19.1002 26.8082 18.7052C26.64 19.0486 26.4166 19.3621 26.1469 19.6331C25.6057 20.1767 24.9185 20.5519 24.1685 20.7131C23.8602 20.7793 23.5456 20.8127 23.2302 20.8125C23.1181 20.8125 23.0111 20.8038 22.9042 20.7992C22.7336 21.1243 22.5047 21.4154 22.2289 21.6577C21.5657 22.2389 20.7115 22.5555 19.8297 22.5469C19.5017 22.5472 19.175 22.5049 18.8579 22.4208C18.4136 22.3086 17.9972 22.1064 17.6342 21.8268C17.2713 21.5472 16.9695 21.1961 16.7477 20.7952C16.6454 20.853 16.5384 20.9033 16.4269 20.9512C15.9651 21.1456 15.4692 21.2458 14.9682 21.2461C14.8072 21.2478 14.6463 21.2362 14.4872 21.2114C13.9847 21.1553 13.5003 20.991 13.0674 20.7298C12.4471 20.3663 11.9732 19.7976 11.7273 19.1221C10.984 19.5893 10.4126 20.2854 10.0993 21.1056C10.3974 21.8824 10.9275 22.5485 11.6174 23.0134C12.1216 23.3576 12.7001 23.5775 13.3056 23.6551C13.4935 23.6886 13.6841 23.7047 13.875 23.7031C14.4751 23.7019 15.0674 23.5676 15.6094 23.31C15.7402 23.2476 15.8676 23.1781 15.9909 23.1019C16.3154 23.8003 16.8329 24.3913 17.4824 24.8052C18.1318 25.2191 18.8861 25.4385 19.6563 25.4375C20.4245 25.4365 21.1766 25.2169 21.8246 24.8044C22.4726 24.3918 22.9898 23.8033 23.3158 23.1077C23.443 23.1134 23.5702 23.125 23.7031 23.125C24.079 23.1253 24.4536 23.0806 24.8189 22.992C25.7322 22.7647 26.5536 22.2622 27.1719 21.5525C27.4973 21.1839 27.7626 20.7664 27.9581 20.3153C28.3868 20.9007 28.9652 21.3599 29.6326 21.6447C30.2999 21.9295 31.0316 22.0293 31.7509 21.9338C32.4702 21.8383 33.1505 21.551 33.7204 21.1019C34.2903 20.6528 34.7288 20.0586 34.9899 19.3816C34.6245 18.4093 33.8977 17.6156 32.9612 17.1663Z" fill="#5CB34F"/>
<path d="M13.7131 29.9931C13.5842 29.7535 13.4841 29.4995 13.4148 29.2364L10.7595 28.0969C10.6555 28.0518 10.5668 27.9776 10.5041 27.8832C10.4414 27.7888 10.4074 27.6783 10.4062 27.565V26.9233C10.2173 27.0082 10.0195 27.0722 9.81656 27.1141C9.63037 27.1539 9.4404 27.1733 9.25 27.1719V27.565C9.25072 27.9041 9.35045 28.2357 9.53696 28.5189C9.72346 28.8022 9.98862 29.0248 10.2999 29.1595L13.4859 30.525C13.5482 30.5518 13.6148 30.5675 13.6825 30.5712L14.1328 30.595C13.9719 30.4099 13.8312 30.2081 13.7131 29.9931Z" fill="#5D241D"/>
<path d="M17.9219 27.9298V29.0681L16.6922 29.4798C16.6151 29.5058 16.5443 29.5478 16.4845 29.6031C16.4247 29.6584 16.3773 29.7257 16.3453 29.8006L16.8749 30.0278L17.6744 30.3701L18.6827 30.0325C18.7978 29.9941 18.8979 29.9206 18.9688 29.8222C19.0398 29.7239 19.078 29.6057 19.0781 29.4844V28.2865C18.6757 28.2322 18.285 28.1116 17.9219 27.9298Z" fill="#5D241D"/>
<path d="M27.7344 23.6274C27.5769 23.9188 27.3883 24.1923 27.1719 24.4431C26.9957 24.6427 26.8023 24.8263 26.5938 24.9918V27.0331C26.5941 27.1413 26.564 27.2475 26.507 27.3395C26.45 27.4315 26.3682 27.5056 26.2712 27.5534L24.8594 28.2593V29.2069C24.8594 29.3005 24.8484 29.3919 24.8409 29.4844H24.8594C24.9493 29.4845 25.038 29.4635 25.1184 29.4231L26.7886 28.5848C27.0778 28.4418 27.3212 28.2207 27.4912 27.9464C27.6611 27.6722 27.7508 27.3558 27.75 27.0331V23.7031C27.7469 23.6775 27.7416 23.6522 27.7344 23.6274Z" fill="#5D241D"/>
<path d="M20.6044 35.2656C20.337 35.2657 20.0778 35.1732 19.871 35.0037C19.6642 34.8342 19.5225 34.5982 19.4701 34.336L19.0781 32.375L14.8977 30.2845C14.7642 30.2178 14.6519 30.1153 14.5733 29.9883C14.4948 29.8614 14.4532 29.7151 14.4531 29.5659V29.1323C14.4531 28.919 14.5379 28.7145 14.6887 28.5637C14.8395 28.4128 15.044 28.3281 15.2573 28.3281H15.6094V26.2006C15.0674 26.4583 14.4751 26.5925 13.875 26.5937C13.6832 26.5961 13.4916 26.5806 13.3027 26.5475L13.2969 26.5937V28.3512C13.2989 29.0303 13.4991 29.694 13.8729 30.2608C14.2468 30.8277 14.7779 31.2732 15.4012 31.5425L17.3438 32.375V36.4219H21.9688L21.5063 35.2656H20.6044Z" fill="#714226"/>
<path d="M24.8189 25.8827C24.4536 25.9713 24.079 26.016 23.7031 26.0157C23.5702 26.0157 23.443 26.0041 23.3158 25.9983C23.1177 26.4244 22.8456 26.8119 22.5122 27.143L22.5469 27.1719V29.2821C22.5459 29.5127 22.4761 29.7377 22.3463 29.9283C22.2165 30.1189 22.0327 30.2663 21.8184 30.3516L19.6562 31.2188L20.8125 33.5313L22.0693 32.8144L21.9971 32.7069C21.8333 32.4609 21.7698 32.1616 21.8198 31.8703C21.8698 31.579 22.0294 31.318 22.2659 31.1407L23.0094 30.5828C23.2248 30.4213 23.3996 30.2118 23.52 29.971C23.6404 29.7302 23.7031 29.4646 23.7031 29.1953V28.3282C23.7031 28.0215 23.8249 27.7274 24.0418 27.5106C24.2586 27.2937 24.5527 27.1719 24.8594 27.1719V26.0157L24.8189 25.8827Z" fill="#714226"/>
<path d="M30.3516 12.1406C29.8315 12.1396 29.3193 12.2667 28.86 12.5106C28.7643 12.4642 28.6658 12.4237 28.5652 12.3892C28.1194 12.2235 27.6474 12.1393 27.1719 12.1406C26.0986 12.1406 25.0692 12.567 24.3103 13.3259C23.5514 14.0848 23.125 15.1142 23.125 16.1875C23.1277 16.3927 23.1451 16.5975 23.177 16.8003C22.4141 16.884 21.6844 17.1584 21.0553 17.5981C20.7387 16.9271 20.215 16.3756 19.5613 16.0246C18.9076 15.6737 18.1585 15.542 17.4243 15.6488C16.6901 15.7556 16.0096 16.0954 15.4831 16.618C14.9565 17.1407 14.6117 17.8186 14.4994 18.552L14.4531 18.5462V20.2806L14.4994 20.2864C14.6176 19.5269 14.9835 18.8278 15.54 18.2976C15.9369 17.9197 16.4179 17.6415 16.9435 17.486C17.469 17.3305 18.0239 17.3021 18.5626 17.4032C19.1012 17.5042 19.6081 17.7319 20.0415 18.0673C20.4749 18.4027 20.8224 18.8364 21.0553 19.3325C21.6844 18.8927 22.4141 18.6184 23.177 18.5347C23.1451 18.3319 23.1277 18.1271 23.125 17.9219C23.125 16.8486 23.5514 15.8192 24.3103 15.0603C25.0692 14.3013 26.0986 13.875 27.1719 13.875C27.6474 13.8737 28.1194 13.9579 28.5652 14.1236C28.6658 14.158 28.7643 14.1986 28.86 14.245C29.2781 14.0233 29.7405 13.8977 30.2133 13.8774C30.6861 13.8571 31.1575 13.9426 31.5931 14.1277C32.0287 14.3128 32.4174 14.5927 32.731 14.9472C33.0446 15.3016 33.2752 15.7216 33.4058 16.1765C33.5431 15.7044 33.5682 15.2067 33.479 14.7232C33.3899 14.2396 33.1889 13.7836 32.8922 13.3916C32.5955 12.9995 32.2112 12.6822 31.7701 12.465C31.329 12.2478 30.8432 12.1367 30.3516 12.1406Z" fill="#8EE05B"/>
<path d="M25.4849 10.6375C24.8234 10.1375 24.0551 9.79761 23.2402 9.64446C22.4253 9.4913 21.586 9.52907 20.7882 9.75481C19.9903 9.98054 19.2556 10.3881 18.6417 10.9455C18.0279 11.5029 17.5515 12.1949 17.2501 12.9674C17.272 12.1892 16.4199 11.6955 15.6614 11.5186C14.4629 11.2484 13.212 11.3286 12.0579 11.7498C11.8107 11.8682 11.5519 11.9607 11.2856 12.0256C10.9884 12.0678 10.6814 12.0314 10.3802 12.0834C10.2073 12.1144 10.0364 12.1559 9.86858 12.2077C9.84381 12.377 9.8303 12.5477 9.82811 12.7188C9.82579 12.9106 9.84128 13.1022 9.87436 13.2911C10.0097 14.2555 10.4892 15.1384 11.2245 15.777C11.9597 16.4156 12.9011 16.7667 13.875 16.7656C14.4002 16.7648 14.9204 16.6627 15.407 16.465C15.4489 16.501 15.4933 16.5338 15.54 16.5633C15.9369 16.1854 16.4179 15.9072 16.9434 15.7517C17.469 15.5962 18.0239 15.5678 18.5626 15.6688C19.1012 15.7699 19.6081 15.9975 20.0415 16.333C20.4749 16.6684 20.8224 17.1021 21.0553 17.5981C21.6844 17.1584 22.414 16.884 23.177 16.8003C23.1451 16.5976 23.1277 16.3928 23.125 16.1875C23.125 15.1142 23.5513 14.0849 24.3103 13.326C25.0692 12.567 26.0986 12.1406 27.1719 12.1406C27.6474 12.1394 28.1193 12.2236 28.5651 12.3892C29.3224 11.7741 29.831 10.9053 29.9966 9.94377C29.2501 9.65144 28.4397 9.56164 27.6474 9.68347C26.855 9.8053 26.109 10.1344 25.4849 10.6375Z" fill="#44853B"/>
<path d="M28.9571 6.47499C28.7664 6.47499 28.5756 6.46632 28.3842 6.47904C27.1217 6.51981 25.9237 7.04625 25.0398 7.94863C24.6198 7.53092 24.1181 7.20436 23.5661 6.98938C23.0141 6.7744 22.4237 6.67562 21.8318 6.69923C21.2399 6.72283 20.6593 6.86831 20.1262 7.12656C19.5931 7.38481 19.119 7.75028 18.7336 8.20012C18.2974 7.83667 17.788 7.57145 17.2402 7.42251C16.6923 7.27357 16.1188 7.24441 15.5586 7.33701C14.9985 7.42961 14.4648 7.6418 13.994 7.95914C13.5233 8.27647 13.1263 8.6915 12.8303 9.17599C12.5058 8.89862 12.1298 8.68799 11.7237 8.55614C11.3177 8.4243 10.8896 8.37385 10.4641 8.40767C9.61205 8.48087 8.79442 8.77761 8.09377 9.26792C7.73022 9.51773 7.39316 9.80404 7.08783 10.1224C7.27128 10.7061 7.6357 11.2163 8.12834 11.5791C8.62099 11.9419 9.21631 12.1386 9.82814 12.1406C9.84549 12.1406 9.85705 12.1348 9.87439 12.1348C9.87092 12.1585 9.87439 12.1828 9.86861 12.2065C10.0365 12.1547 10.2073 12.1132 10.3803 12.0822C10.6815 12.0302 10.9884 12.0666 11.2856 12.0244C11.5519 11.9595 11.8108 11.8671 12.058 11.7487C13.2121 11.3274 14.463 11.2472 15.6614 11.5174C16.4199 11.6908 17.2721 12.188 17.2501 12.9662C17.5517 12.1938 18.0281 11.5019 18.642 10.9446C19.256 10.3874 19.9907 9.97994 20.7885 9.75432C21.5863 9.52871 22.4256 9.49104 23.2405 9.64427C24.0553 9.7975 24.8235 10.1375 25.4849 10.6375C26.1088 10.1348 26.8544 9.80593 27.6463 9.6841C28.4382 9.56227 29.2482 9.65184 29.9943 9.94374C30.1087 9.32447 30.074 8.68685 29.893 8.08365C29.7121 7.48046 29.3901 6.92903 28.9537 6.47499H28.9571Z" fill="#52A147"/>
<path d="M4.67182 23.6094C4.79621 23.086 4.95437 22.5711 5.1453 22.0681C4.83339 21.9924 4.55871 21.8079 4.37062 21.5478C4.13804 21.2575 3.98247 20.9132 3.9183 20.5468C3.85413 20.1803 3.88344 19.8036 4.00351 19.4516C4.13617 19.0985 4.36681 18.7907 4.66835 18.5641C4.81703 18.4508 4.98139 18.3596 5.15629 18.2936C5.27191 18.2502 5.62919 18.2311 5.66966 18.1288C5.70551 18.038 5.42223 17.6339 5.3806 17.5368C5.27555 17.3096 5.18668 17.0753 5.11466 16.8355C4.96722 16.3614 4.91649 15.8624 4.96551 15.3683C4.99117 15.1574 5.03923 14.9498 5.10888 14.7491C4.61889 14.9832 4.20498 15.351 3.91481 15.81C3.62465 16.269 3.47002 16.8007 3.46874 17.3437C3.46874 17.4246 3.48609 17.4998 3.49187 17.575C2.97043 17.7971 2.5258 18.1676 2.21328 18.6404C1.90075 19.1133 1.73413 19.6676 1.73413 20.2343C1.73413 20.8011 1.90075 21.3554 2.21328 21.8282C2.5258 22.3011 2.97043 22.6716 3.49187 22.8937C3.48609 22.9689 3.46874 23.044 3.46874 23.125C3.46872 23.5196 3.57009 23.9076 3.76315 24.2518C3.9562 24.596 4.23446 24.8848 4.57123 25.0906C4.53712 24.5946 4.57097 24.0963 4.67182 23.6094Z" fill="#39632C"/>
<path d="M15.407 16.465C14.9204 16.6627 14.4003 16.7648 13.875 16.7656C12.9012 16.7667 11.9598 16.4156 11.2245 15.777C10.4892 15.1384 10.0097 14.2555 9.87438 13.2911L9.82813 13.2969C9.37066 13.2983 8.92391 13.4354 8.54438 13.6908C8.16485 13.9463 7.86961 14.3085 7.696 14.7318C7.87696 15.3255 8.11168 15.9042 8.34755 16.4789C8.42386 16.6662 8.50075 16.8535 8.59268 17.0339C8.73576 17.341 8.92465 17.6246 9.15288 17.875C8.9229 18.0232 8.70625 18.1911 8.50538 18.3768C8.31052 18.5749 8.14011 18.7956 7.99778 19.0342C7.71362 19.5121 7.53099 20.0435 7.46129 20.5951C7.35842 21.7022 7.54758 22.8168 8.00993 23.828C7.37876 24.2324 6.90582 24.8414 6.67041 25.5531C6.90611 26.0371 7.27274 26.4453 7.72871 26.7314C8.18467 27.0175 8.7117 27.1701 9.25 27.1719C9.4404 27.1733 9.63038 27.1539 9.81657 27.114C10.5142 26.9761 11.1361 26.5848 11.5625 26.0156L11.6145 25.9058C10.8945 25.4219 10.3489 24.7194 10.0585 23.9019C9.76797 23.0844 9.74787 22.1952 10.0011 21.3654C10.2544 20.5357 10.7676 19.8092 11.4651 19.2933C12.1626 18.7774 13.0074 18.4993 13.875 18.5C14.0841 18.5027 14.2927 18.5201 14.4994 18.552C14.6176 17.7925 14.9835 17.0934 15.54 16.5633C15.4933 16.5338 15.4489 16.501 15.407 16.465Z" fill="#233D1B"/>
<path d="M8.00992 23.8303C7.54758 22.8192 7.35841 21.7045 7.46128 20.5974C7.53098 20.0458 7.71361 19.5144 7.99778 19.0365C8.1401 18.7979 8.31052 18.5772 8.50537 18.3792C8.70625 18.1934 8.9229 18.0255 9.15287 17.8774C8.92464 17.6269 8.73576 17.3433 8.59267 17.0362C8.50075 16.8558 8.42386 16.6685 8.34755 16.4812C8.11167 15.9065 7.87695 15.3249 7.696 14.7341C7.68848 14.7514 7.67866 14.7676 7.67172 14.785C7.27818 14.5743 6.83978 14.4614 6.39346 14.4557C5.94714 14.4499 5.50598 14.5516 5.10716 14.752C5.03751 14.9527 4.98944 15.1603 4.96378 15.3712C4.91477 15.8653 4.96549 16.3643 5.11294 16.8385C5.18496 17.0782 5.27383 17.3125 5.37887 17.5397C5.42339 17.6369 5.70667 18.041 5.66794 18.1317C5.62747 18.2341 5.27019 18.2531 5.15456 18.2965C4.97967 18.3626 4.8153 18.4537 4.66662 18.5671C4.36509 18.7936 4.13444 19.1014 4.00178 19.4545C3.88171 19.8066 3.8524 20.1833 3.91657 20.5497C3.98074 20.9161 4.13631 21.2604 4.36889 21.5508C4.55698 21.8108 4.83166 21.9953 5.14358 22.0711C4.95225 22.574 4.7937 23.0889 4.66894 23.6123C4.56931 24.0984 4.53644 24.5957 4.57123 25.0906C4.93431 25.3169 5.35345 25.437 5.78125 25.4375C6.04338 25.4333 6.30308 25.3864 6.55016 25.2987C6.58427 25.3878 6.62878 25.4722 6.67041 25.5554C6.90582 24.8438 7.37876 24.2347 8.00992 23.8303Z" fill="#2F5224"/>
<path d="M8.09375 9.26792C8.62525 8.90528 9.21939 8.64438 9.84605 8.49843C9.88834 7.7647 10.2093 7.07481 10.7432 6.56978C11.2771 6.06474 11.9838 5.78268 12.7188 5.78125C13.115 5.78071 13.507 5.86343 13.8692 6.02406C14.4005 5.12899 15.2569 4.47362 16.2597 4.19464C17.2625 3.91566 18.3343 4.03463 19.2516 4.52672C19.7074 4.109 20.2532 3.80165 20.8468 3.6284C21.4403 3.45515 22.0658 3.42063 22.6748 3.52752C23.2838 3.6344 23.8601 3.87982 24.3591 4.24484C24.8582 4.60985 25.2667 5.08468 25.5531 5.63267C25.8353 5.38234 26.0156 5.20312 26.0156 5.20312H25.9694C25.9996 5.01188 26.0151 4.81861 26.0156 4.625C26.0172 3.84088 25.7905 3.07326 25.3632 2.41581C24.9359 1.75836 24.3265 1.23952 23.6092 0.922594C22.892 0.605672 22.0981 0.504379 21.3243 0.631077C20.5505 0.757776 19.8303 1.10699 19.2516 1.63609C18.3343 1.144 17.2625 1.02504 16.2597 1.30401C15.2569 1.58299 14.4005 2.23836 13.8692 3.13343C13.507 2.97281 13.115 2.89008 12.7188 2.89062C11.9521 2.89062 11.2169 3.19517 10.6748 3.73727C10.1327 4.27936 9.82812 5.01461 9.82812 5.78125C9.82961 5.97723 9.84896 6.17268 9.88594 6.36515C9.86859 6.36515 9.85125 6.35937 9.82812 6.35937C9.06148 6.35937 8.32624 6.66392 7.78414 7.20602C7.24205 7.74811 6.9375 8.48336 6.9375 9.25C6.94037 9.68465 7.04407 10.1127 7.24044 10.5005C7.18034 10.3782 7.12877 10.2518 7.08608 10.1224C7.39196 9.80395 7.7296 9.51764 8.09375 9.26792Z" fill="#7BC24F"/>
</svg>
