<svg width="32" height="32" viewBox="0 0 32 32" fill="none" xmlns="http://www.w3.org/2000/svg">
<path fill-rule="evenodd" clip-rule="evenodd" d="M16.4594 1.48851L16 2L15.5433 1.48616C15.8047 1.25372 16.1991 1.25473 16.4594 1.48851ZM15.9978 2.94023C15.764 3.16275 15.4515 3.46706 15.0843 3.84103C14.2533 4.68747 13.1465 5.88667 12.0414 7.29871C9.80146 10.1609 7.6875 13.7499 7.6875 17C7.6875 21.5909 11.4091 25.3125 16 25.3125C20.5909 25.3125 24.3125 21.5909 24.3125 17C24.3125 13.7922 22.1995 10.2037 19.9578 7.32901C18.8524 5.91136 17.7452 4.70407 16.9139 3.8509C16.5454 3.47279 16.2319 3.16504 15.9978 2.94023ZM15.5429 1.48644C15.5431 1.48628 15.5433 1.48616 16 2C16.4594 1.48851 16.4595 1.48864 16.4597 1.4888L16.4602 1.48927L16.4619 1.49076L16.4676 1.49595L16.4887 1.51506C16.5069 1.53164 16.5334 1.55587 16.5676 1.58746C16.636 1.65064 16.7353 1.7433 16.861 1.86316C17.1125 2.10284 17.4702 2.45159 17.8986 2.89129C18.7548 3.76989 19.8976 5.01572 21.0422 6.48349C23.3005 9.37961 25.6875 13.2912 25.6875 17C25.6875 22.3503 21.3503 26.6875 16 26.6875C10.6497 26.6875 6.3125 22.3503 6.3125 17C6.3125 13.2501 8.69854 9.33913 10.9586 6.45129C12.1035 4.98833 13.2467 3.75003 14.1032 2.87772C14.5318 2.44116 14.8896 2.09525 15.1412 1.8576C15.2671 1.73875 15.3664 1.64692 15.4349 1.58429C15.4691 1.55298 15.4956 1.52896 15.5139 1.51251L15.535 1.49355L15.5407 1.4884L15.5424 1.48691L15.5429 1.48644Z" fill="#217B56"/>
<path fill-rule="evenodd" clip-rule="evenodd" d="M16 10.3125C16.3797 10.3125 16.6875 10.6203 16.6875 11V31C16.6875 31.3797 16.3797 31.6875 16 31.6875C15.6203 31.6875 15.3125 31.3797 15.3125 31V11C15.3125 10.6203 15.6203 10.3125 16 10.3125Z" fill="#EB2227"/>
<path fill-rule="evenodd" clip-rule="evenodd" d="M9.3125 31C9.3125 30.6203 9.6203 30.3125 10 30.3125H22C22.3797 30.3125 22.6875 30.6203 22.6875 31C22.6875 31.3797 22.3797 31.6875 22 31.6875H10C9.6203 31.6875 9.3125 31.3797 9.3125 31Z" fill="#EB2227"/>
<path fill-rule="evenodd" clip-rule="evenodd" d="M21.4861 17.0139C21.7546 17.2823 21.7546 17.7177 21.4861 17.9861L16.4861 22.9861C16.2177 23.2546 15.7823 23.2546 15.5139 22.9861C15.2454 22.7177 15.2454 22.2823 15.5139 22.0139L20.5139 17.0139C20.7823 16.7454 21.2177 16.7454 21.4861 17.0139Z" fill="#EB2227"/>
<path fill-rule="evenodd" clip-rule="evenodd" d="M10.5139 14.0139C10.7823 13.7454 11.2177 13.7454 11.4861 14.0139L16.4861 19.0139C16.7546 19.2823 16.7546 19.7177 16.4861 19.9861C16.2177 20.2546 15.7823 20.2546 15.5139 19.9861L10.5139 14.9861C10.2454 14.7177 10.2454 14.2823 10.5139 14.0139Z" fill="#EB2227"/>
</svg>
