<svg width="64" height="64" viewBox="0 0 64 64" fill="none" xmlns="http://www.w3.org/2000/svg">
<path fill-rule="evenodd" clip-rule="evenodd" d="M8 22.375C7.03859 22.375 6.11656 22.7569 5.43674 23.4367C4.75692 24.1166 4.375 25.0386 4.375 26V58C4.375 58.7594 3.75939 59.375 3 59.375C2.24061 59.375 1.625 58.7594 1.625 58V26C1.625 24.3092 2.29665 22.6877 3.49219 21.4922C4.68774 20.2966 6.30925 19.625 8 19.625H61C61.7594 19.625 62.375 20.2406 62.375 21C62.375 21.7594 61.7594 22.375 61 22.375H8Z" fill="#2C3E50"/>
<path fill-rule="evenodd" clip-rule="evenodd" d="M45.0277 5.02773C45.5647 4.49076 46.4353 4.49076 46.9723 5.02773L61.9723 20.0277C62.5092 20.5647 62.5092 21.4353 61.9723 21.9723L46.9723 36.9723C46.4353 37.5092 45.5647 37.5092 45.0277 36.9723C44.4908 36.4353 44.4908 35.5647 45.0277 35.0277L59.0555 21L45.0277 6.97227C44.4908 6.4353 44.4908 5.5647 45.0277 5.02773Z" fill="#2C3E50"/>
</svg>
