<svg width="24" height="24" viewBox="0 0 24 24" fill="none" xmlns="http://www.w3.org/2000/svg">
<path d="M4 20.1254C4 17.4107 5.90948 15.0983 8.50454 14.6705L8.7383 14.6319C10.8163 14.2894 12.9337 14.2894 15.0117 14.6319L15.2455 14.6705C17.8405 15.0983 19.75 17.4107 19.75 20.1254C19.75 21.2988 18.8292 22.25 17.6934 22.25H6.05665C4.92079 22.25 4 21.2988 4 20.1254Z" stroke="black" stroke-width="1.5"/>
<path d="M16.4688 6.42969C16.4688 8.87613 14.4121 10.8594 11.875 10.8594C9.33797 10.8594 7.28128 8.87613 7.28128 6.42969C7.28128 3.98324 9.33797 2 11.875 2C14.4121 2 16.4688 3.98324 16.4688 6.42969Z" stroke="black" stroke-width="1.5"/>
</svg>
