<svg width="24" height="24" viewBox="0 0 24 24" fill="none" xmlns="http://www.w3.org/2000/svg">
<path fill-rule="evenodd" clip-rule="evenodd" d="M16.3608 1.40829C16.5738 1.33798 16.8048 1.34525 17.0129 1.42883C17.221 1.51241 17.3928 1.6669 17.498 1.86497C17.5 1.86871 17.5019 1.87247 17.5038 1.87626L17.9535 2.77586C18.566 2.84912 19.14 3.12571 19.5806 3.56633C20.0992 4.08498 20.3906 4.78843 20.3906 5.52192V9.00004C20.3906 9.90367 20.1267 10.7876 19.6314 11.5434C19.2078 12.1899 18.6306 12.7185 17.954 13.0837L18.0838 14.122C18.0889 14.1635 18.1052 14.203 18.1308 14.2362C18.1563 14.2694 18.1903 14.2951 18.2292 14.3106L22.4988 16.0191C22.8728 16.1687 23.1934 16.427 23.4192 16.7606C23.645 17.0942 23.7656 17.4877 23.7656 17.8905C23.7656 17.8906 23.7656 17.8905 23.7656 17.8905V21.375C23.7656 21.6598 23.5348 21.8907 23.25 21.8907H18C17.7152 21.8907 17.4844 21.6598 17.4844 21.375C17.4844 21.0903 17.7152 20.8594 18 20.8594H22.7344V17.8905C22.7344 17.6938 22.6754 17.5016 22.5652 17.3387C22.4549 17.1757 22.2983 17.0496 22.1157 16.9765L17.8459 15.268C17.636 15.1839 17.4523 15.0451 17.3142 14.866C17.1761 14.687 17.0885 14.4742 17.0605 14.2498L16.885 12.8459C16.8566 12.6189 16.9811 12.4004 17.1908 12.3092C17.8352 12.0286 18.3836 11.566 18.7689 10.9782C19.1541 10.3904 19.3593 9.70285 19.3594 9.00004C19.3594 9.00004 19.3594 9.00005 19.3594 9.00004V5.52192C19.3594 5.06194 19.1766 4.62079 18.8514 4.29553C18.5261 3.97027 18.085 3.78755 17.625 3.78755C17.4297 3.78755 17.2511 3.67717 17.1638 3.50246L16.6183 2.41121L13.9211 3.37412C13.6715 3.46635 13.4395 3.60059 13.2351 3.77104C13.0164 3.95343 12.6913 3.92399 12.5089 3.70528C12.3265 3.48658 12.3559 3.16144 12.5746 2.97905C12.8702 2.73255 13.2059 2.53858 13.567 2.40557L13.5719 2.40379L16.3491 1.41231C16.353 1.41093 16.3569 1.40959 16.3608 1.40829Z" fill="#217B56"/>
<path fill-rule="evenodd" clip-rule="evenodd" d="M4.96858 4.59361C5.83887 3.72333 7.01923 3.23441 8.25 3.23441C9.48077 3.23441 10.6611 3.72333 11.5314 4.59361C12.4017 5.4639 12.8906 6.64426 12.8906 7.87503V8.24773C12.9065 10.0072 13.3988 11.7294 14.3152 13.2315C14.3971 13.3657 14.4132 13.5299 14.3591 13.6775C14.305 13.8251 14.1865 13.94 14.0373 13.9895C12.8945 14.3683 11.6784 14.4485 10.5033 14.2287L10.5838 14.8719C10.5889 14.9135 10.6052 14.953 10.6308 14.9862C10.6563 15.0193 10.6902 15.045 10.7291 15.0606M10.7291 15.0606L14.9988 16.7691C15.3728 16.9187 15.6934 17.177 15.9192 17.5106C16.145 17.8441 16.2656 18.2377 16.2656 18.6405C16.2656 18.6405 16.2656 18.6405 16.2656 18.6405V21.375C16.2656 21.6598 16.0348 21.8907 15.75 21.8907H0.75C0.465228 21.8907 0.234375 21.6598 0.234375 21.375V18.6406C0.234375 18.6406 0.234375 18.6406 0.234375 18.6406C0.234355 18.2378 0.355026 17.8441 0.580823 17.5106C0.806626 17.177 1.1272 16.9187 1.5012 16.7691L5.77266 15.0606C5.81144 15.045 5.84558 15.0193 5.87111 14.9862C5.89668 14.953 5.91291 14.9136 5.91809 14.8721L5.99856 14.2289C4.82283 14.4489 3.60599 14.3686 2.46268 13.9894C2.31347 13.94 2.19499 13.8251 2.14088 13.6775C2.08677 13.5299 2.10295 13.3657 2.18482 13.2315C3.10117 11.7294 3.59346 10.0072 3.60938 8.24773V7.87503C3.60938 6.64426 4.0983 5.4639 4.96858 4.59361M8.25 4.26566C7.29273 4.26566 6.37468 4.64593 5.69779 5.32282C5.0209 5.99971 4.64062 6.91776 4.64062 7.87503V8.25458C4.62546 9.97462 4.19859 11.6626 3.4 13.1787C4.40794 13.3992 5.45926 13.3592 6.45328 13.0576C6.62038 13.0069 6.80178 13.0442 6.9353 13.1568C7.06882 13.2693 7.13631 13.4418 7.11464 13.615L6.94141 14.9997C6.9414 14.9998 6.94141 14.9997 6.94141 14.9997C6.91339 15.2241 6.82577 15.437 6.68769 15.616C6.54958 15.7951 6.36601 15.9339 6.15609 16.0179L1.8843 17.7265C1.88428 17.7265 1.88433 17.7265 1.8843 17.7265C1.70169 17.7996 1.54508 17.9257 1.43482 18.0886C1.32454 18.2516 1.26561 18.4438 1.26562 18.6405V20.8594H15.2344V18.6405C15.2344 18.4438 15.1755 18.2516 15.0652 18.0886C14.9549 17.9257 14.7983 17.7996 14.6157 17.7265L10.3459 16.018C10.136 15.9339 9.9523 15.7951 9.81419 15.616C9.67611 15.437 9.58851 15.2242 9.56049 14.9999C9.56048 14.9999 9.5605 15 9.56049 14.9999L9.38724 13.615C9.36556 13.4418 9.43304 13.2693 9.56654 13.1568C9.70004 13.0443 9.88143 13.0069 10.0485 13.0576C11.042 13.3589 12.0926 13.3988 13.1 13.1786C12.3014 11.6625 11.8746 9.97458 11.8594 8.25458L11.8594 8.25003L11.8594 7.87503C11.8594 6.91776 11.4791 5.99971 10.8022 5.32282C10.1253 4.64593 9.20727 4.26566 8.25 4.26566Z" fill="#217B56"/>
</svg>
