<svg width="24" height="24" viewBox="0 0 24 24" fill="none" xmlns="http://www.w3.org/2000/svg">
<path fill-rule="evenodd" clip-rule="evenodd" d="M20.3243 17.7532L14.625 16.125V14.3321C15.6896 13.4565 16.518 12.147 16.9391 10.8555C17.6141 10.7561 18.2074 10.1107 18.3458 9.2445C18.5029 8.26125 18.015 7.36687 17.2504 7.18275V5.25C17.2504 3.94687 16.2874 2.625 14.2504 2.625L13.6084 1.26375C13.4419 0.930371 13.0418 0.781496 12.7073 0.915371L8.5785 2.56687C7.57275 2.96887 6.75 4.18425 6.75 5.26687V7.18275C5.98537 7.36687 5.4975 8.26125 5.65463 9.2445C5.793 10.1107 6.38587 10.7561 7.06125 10.8555C7.482 12.147 8.31075 13.4565 9.37537 14.3321V16.125L3.67575 17.7532C2.388 18.1211 1.5 19.2986 1.5 20.6377V23.25H22.5V20.6377C22.5 19.2986 21.612 18.1211 20.3243 17.7532Z" stroke="#217B56" stroke-width="1.03125" stroke-linecap="round" stroke-linejoin="round"/>
</svg>
