<svg width="20" height="20" viewBox="0 0 20 20" fill="none" xmlns="http://www.w3.org/2000/svg">
<path fill-rule="evenodd" clip-rule="evenodd" d="M11.1816 11.1901C11.4156 11.1508 11.6372 11.3086 11.6765 11.5427C11.798 12.2663 12.1504 13.2621 13.1187 13.585C13.9729 13.8697 14.7667 14.1961 15.3571 14.7521C15.9682 15.3275 16.3223 16.1089 16.3852 17.2151C16.3986 17.452 16.2175 17.655 15.9806 17.6685C15.7436 17.6819 15.5407 17.5008 15.5272 17.2638C15.4744 16.3347 15.1904 15.7755 14.768 15.3777C14.3249 14.9605 13.6898 14.6811 12.8469 14.4002L12.8468 14.4002C11.3876 13.9137 10.9587 12.4576 10.829 11.685C10.7897 11.451 10.9476 11.2294 11.1816 11.1901Z" fill="#596481"/>
<path fill-rule="evenodd" clip-rule="evenodd" d="M8.81636 11.1891C9.05039 11.2284 9.20827 11.45 9.16899 11.684C9.03936 12.4562 8.61231 13.9135 7.1527 14.4002L7.15265 14.4002C6.3086 14.6815 5.67065 14.9589 5.22479 15.3749C4.80033 15.7709 4.51444 16.3278 4.46172 17.256C4.44827 17.4929 4.24529 17.6741 4.00836 17.6606C3.77144 17.6472 3.59028 17.4442 3.60373 17.2072C3.66664 16.0995 4.02419 15.3197 4.63856 14.7465C5.23151 14.1933 6.02776 13.8692 6.88088 13.5849M8.81636 11.1891C8.58232 11.1498 8.36075 11.3077 8.32147 11.5417L8.81636 11.1891ZM8.32147 11.5417C8.19984 12.2663 7.84878 13.2622 6.88093 13.5849L8.32147 11.5417Z" fill="#596481"/>
<path fill-rule="evenodd" clip-rule="evenodd" d="M10 4.80469C8.51137 4.80469 7.30469 6.01137 7.30469 7.5V8.75C7.30469 10.2386 8.51137 11.4453 10 11.4453C11.4886 11.4453 12.6953 10.2386 12.6953 8.75V7.5C12.6953 6.01137 11.4886 4.80469 10 4.80469ZM6.44531 7.5C6.44531 5.53675 8.03675 3.94531 10 3.94531C11.9632 3.94531 13.5547 5.53675 13.5547 7.5V8.75C13.5547 10.7132 11.9632 12.3047 10 12.3047C8.03675 12.3047 6.44531 10.7132 6.44531 8.75V7.5Z" fill="#596481"/>
<path fill-rule="evenodd" clip-rule="evenodd" d="M10 1.05469C5.05964 1.05469 1.05469 5.05964 1.05469 10C1.05469 14.9404 5.05964 18.9453 10 18.9453C14.9404 18.9453 18.9453 14.9404 18.9453 10C18.9453 5.05964 14.9404 1.05469 10 1.05469ZM0.195312 10C0.195312 4.58502 4.58502 0.195312 10 0.195312C15.415 0.195312 19.8047 4.58502 19.8047 10C19.8047 15.415 15.415 19.8047 10 19.8047C4.58502 19.8047 0.195312 15.415 0.195312 10Z" fill="#596481"/>
</svg>
