<svg width="20" height="20" viewBox="0 0 20 20" fill="none" xmlns="http://www.w3.org/2000/svg">
<path d="M0.792548 10.5228C0.683676 10.3699 0.624962 10.187 0.624514 9.9993C0.624067 9.81161 0.681907 9.62841 0.790048 9.475C1.85005 7.97094 5.24755 3.75 9.99974 3.75C14.7107 3.75 18.1317 7.96469 19.2057 9.47219C19.3153 9.6262 19.3739 9.81062 19.3735 9.99962C19.373 10.1886 19.3135 10.3727 19.2032 10.5262C18.1223 12.0312 14.6748 16.25 9.99974 16.25C5.28474 16.25 1.86068 12.0253 0.792548 10.5228Z" stroke="#2E3A5B" stroke-width="0.859375" stroke-linecap="round" stroke-linejoin="round"/>
<path d="M10.001 13.75C12.072 13.75 13.751 12.0711 13.751 10C13.751 7.92893 12.072 6.25 10.001 6.25C7.92991 6.25 6.25098 7.92893 6.25098 10C6.25098 12.0711 7.92991 13.75 10.001 13.75Z" stroke="#2E3A5B" stroke-width="0.859375" stroke-linecap="round" stroke-linejoin="round"/>
</svg>
