<svg width="20" height="20" viewBox="0 0 20 20" fill="none" xmlns="http://www.w3.org/2000/svg">
<path d="M5.21585 14.7844C3.48466 13.6572 1.98371 12.211 0.793036 10.5228C0.684164 10.3699 0.62545 10.187 0.625003 9.9993C0.624555 9.81161 0.682395 9.62841 0.790536 9.475C1.85053 7.97094 5.24803 3.75 10.0002 3.75C11.7007 3.77994 13.3585 4.28749 14.7843 5.21469" stroke="#2E3A5B" stroke-width="0.859375" stroke-linecap="round" stroke-linejoin="round"/>
<path d="M16.2216 6.25C17.3496 7.193 18.3528 8.27577 19.2073 9.47219C19.3168 9.6262 19.3755 9.81062 19.375 9.99962C19.3746 10.1886 19.315 10.3727 19.2048 10.5262C18.1226 12.0312 14.6751 16.25 10.0001 16.25C8.92457 16.2444 7.86018 16.0322 6.86475 15.625" stroke="#2E3A5B" stroke-width="0.859375" stroke-linecap="round" stroke-linejoin="round"/>
<path d="M1.5625 18.4375L18.4375 1.5625" stroke="#2E3A5B" stroke-width="0.859375" stroke-linecap="round" stroke-linejoin="round"/>
<path d="M13.5379 8.75C13.7731 9.41766 13.8147 10.1383 13.6579 10.8286C13.501 11.5189 13.1522 12.1507 12.6515 12.6512C12.1509 13.1517 11.5189 13.5003 10.8286 13.657C10.1382 13.8136 9.41759 13.7717 8.75 13.5363" stroke="#2E3A5B" stroke-width="0.859375" stroke-linecap="round" stroke-linejoin="round"/>
<path d="M7.35011 12.6518C6.65622 11.9467 6.26907 10.9959 6.27298 10.0067C6.27689 9.01739 6.67155 8.06975 7.37099 7.37015C8.07043 6.67054 9.01798 6.27566 10.0073 6.27152C10.9965 6.26737 11.9473 6.6543 12.6526 7.34802" stroke="#2E3A5B" stroke-width="0.859375" stroke-linecap="round" stroke-linejoin="round"/>
</svg>
