<svg width="16" height="16" viewBox="0 0 16 16" fill="none" xmlns="http://www.w3.org/2000/svg">
<g clip-path="url(#clip0_100_4887)">
<path d="M15.8 12.526L9.48301 0.88C9.32721 0.591064 9.08962 0.354522 8.80001 0.2C8.40653 -0.0105689 7.94582 -0.0572597 7.5181 0.0700835C7.09038 0.197427 6.73023 0.488503 6.51601 0.88L0.200006 12.526C0.0618988 12.7823 -0.00715436 13.0701 -0.000367905 13.3611C0.00641855 13.6522 0.0888111 13.9365 0.238714 14.186C0.388616 14.4356 0.60087 14.6419 0.85462 14.7846C1.10837 14.9273 1.39488 15.0015 1.68601 15H14.314C14.593 15 14.8678 14.9313 15.114 14.8C15.3091 14.6965 15.4817 14.5553 15.622 14.3847C15.7622 14.2142 15.8673 14.0175 15.9312 13.8061C15.995 13.5947 16.0164 13.3727 15.9941 13.153C15.9717 12.9333 15.9061 12.7202 15.801 12.526H15.8ZM8.00001 13C7.80222 13 7.60889 12.9414 7.44444 12.8315C7.27999 12.7216 7.15181 12.5654 7.07613 12.3827C7.00044 12.2 6.98064 11.9989 7.01922 11.8049C7.05781 11.6109 7.15305 11.4327 7.2929 11.2929C7.43275 11.153 7.61093 11.0578 7.80492 11.0192C7.9989 10.9806 8.19996 11.0004 8.38269 11.0761C8.56542 11.1518 8.72159 11.28 8.83148 11.4444C8.94136 11.6089 9.00001 11.8022 9.00001 12C9.00001 12.2652 8.89465 12.5196 8.70711 12.7071C8.51958 12.8946 8.26522 13 8.00001 13ZM9.00001 9.5C9.00001 9.63261 8.94733 9.75979 8.85356 9.85355C8.75979 9.94732 8.63261 10 8.50001 10H7.50001C7.3674 10 7.24022 9.94732 7.14645 9.85355C7.05268 9.75979 7.00001 9.63261 7.00001 9.5V5.5C7.00001 5.36739 7.05268 5.24021 7.14645 5.14645C7.24022 5.05268 7.3674 5 7.50001 5H8.50001C8.63261 5 8.75979 5.05268 8.85356 5.14645C8.94733 5.24021 9.00001 5.36739 9.00001 5.5V9.5Z" fill="white"/>
</g>
<defs>
<clipPath id="clip0_100_4887">
<rect width="16" height="16" fill="white"/>
</clipPath>
</defs>
</svg>
