<svg width="24" height="24" viewBox="0 0 24 24" fill="none" xmlns="http://www.w3.org/2000/svg">
<path fill-rule="evenodd" clip-rule="evenodd" d="M12 16.7344C12.2848 16.7344 12.5156 16.9652 12.5156 17.25V23.25C12.5156 23.5348 12.2848 23.7656 12 23.7656C11.7152 23.7656 11.4844 23.5348 11.4844 23.25V17.25C11.4844 16.9652 11.7152 16.7344 12 16.7344Z" fill="#566573"/>
<path fill-rule="evenodd" clip-rule="evenodd" d="M8.48438 20.25C8.48438 19.9652 8.71523 19.7344 9 19.7344H15C15.2848 19.7344 15.5156 19.9652 15.5156 20.25C15.5156 20.5348 15.2848 20.7656 15 20.7656H9C8.71523 20.7656 8.48438 20.5348 8.48438 20.25Z" fill="#566573"/>
<path fill-rule="evenodd" clip-rule="evenodd" d="M12 1.26562C7.72842 1.26562 4.26562 4.72842 4.26562 9C4.26562 13.2716 7.72842 16.7344 12 16.7344C16.2716 16.7344 19.7344 13.2716 19.7344 9C19.7344 4.72842 16.2716 1.26562 12 1.26562ZM3.23438 9C3.23438 4.15888 7.15888 0.234375 12 0.234375C16.8411 0.234375 20.7656 4.15888 20.7656 9C20.7656 13.8411 16.8411 17.7656 12 17.7656C7.15888 17.7656 3.23438 13.8411 3.23438 9Z" fill="#566573"/>
</svg>
