<svg width="164" height="115" viewBox="0 0 164 115" fill="none" xmlns="http://www.w3.org/2000/svg">
<path d="M82.4998 82.7311C44.116 82.7311 12.9997 80.5629 12.9997 77.8884C12.9997 75.2138 44.116 73.0456 82.4998 73.0456C120.884 73.0456 152 75.2138 152 77.8884C152 80.5629 120.884 82.7311 82.4998 82.7311Z" fill="#EBF7F2"/>
<path d="M105.68 42.8604H112.994C113.891 42.8604 114.619 43.5874 114.619 44.484V45.8283C114.619 46.725 113.891 47.4519 112.994 47.4519H105.68C104.782 47.4519 104.054 46.725 104.054 45.8283V44.484C104.054 43.5874 104.782 42.8604 105.68 42.8604Z" fill="#2E3A5B"/>
<path d="M109.008 69.5637L66.0148 69.5918C66.0148 69.5918 66.1272 59.048 57.3461 58.8159C48.5651 58.5838 49.0465 69.111 49.0465 69.111L49.0746 70.806C49.0746 70.806 42.8868 70.2167 41.0954 69.2997C40.6924 68.43 40.3895 67.5173 40.1926 66.5793C39.9373 65.2133 40.1199 62.3819 40.1199 62.3819L41.5819 61.2532C41.5819 61.2532 41.0086 54.7269 41.9522 52.3572C41.9522 52.3572 41.0584 49.8396 41.2907 48.2976L59.9037 32.0004L86.621 32.3014C90.2026 32.3767 92.0311 33.1802 95.2399 34.7744C107.228 40.7319 114.499 45.9687 114.499 45.9687C114.499 45.9687 127.988 48.3716 132.689 51.9924C134.573 53.7882 135.562 54.9973 136.265 59.7342L136.373 61.6039L125.283 65.1751L109.008 69.5637Z" fill="#4D9578"/>
<path d="M134.674 67.9632L133.855 71.4501C133.855 72.5266 132.261 73.2357 131.183 73.2357L31.7247 73.3403L25.8588 73.2383C25.3358 73.2307 24.8241 73.0852 24.3757 72.8164C23.9272 72.5476 23.5578 72.1651 23.305 71.7078L21.4676 68.3764C24.2027 61.8553 28.4049 58.1591 34.8262 57.3748L79.9509 54.2883L109.256 59.0353L134.674 67.9632Z" fill="#2E3A5B"/>
<path d="M123.758 60.3349C123.303 60.348 122.85 60.4056 122.407 60.5071C121.844 60.3781 121.268 60.3202 120.691 60.3349C116.403 60.4484 113.002 64.4813 113.094 69.3418C113.186 74.2024 116.737 78.0516 121.025 77.9381C121.486 77.9266 123.503 77.9534 124.09 77.9381C128.377 77.8246 131.778 73.7917 131.686 68.9312C131.594 64.0706 128.045 60.2214 123.758 60.3349Z" fill="#2E3A5B"/>
<path d="M62.3142 60.3349C61.8593 60.348 61.4069 60.4056 60.9633 60.5071C60.4007 60.3782 59.8242 60.3203 59.2472 60.3349C54.9594 60.4484 51.5578 64.4813 51.6511 69.3418C51.7443 74.2024 55.2927 78.0516 59.5804 77.9381C60.0427 77.9266 62.0588 77.9534 62.6449 77.9381C66.9327 77.8246 70.3343 73.7917 70.2423 68.9312C70.1504 64.0706 66.602 60.2214 62.3142 60.3349Z" fill="#2E3A5B"/>
<path d="M99.0669 61.0721C98.9966 61.0721 98.9264 61.0797 98.8574 61.0836H95.3243V62.2735C92.9672 63.8384 91.4069 66.7655 91.4695 70.079C91.532 73.3925 93.1856 76.201 95.5797 77.6486V78.6765H99.1332C99.2213 78.6765 99.3107 78.6765 99.4001 78.6765C103.688 78.563 107.088 74.5302 106.996 69.6696C106.904 64.809 103.353 60.9586 99.0669 61.0721Z" fill="#2E3A5B"/>
<path d="M88.4002 69.8958C88.3917 65.0334 91.672 61.0859 95.7268 61.0789C99.7817 61.0718 103.076 65.0078 103.084 69.8702C103.093 74.7326 99.8125 78.68 95.7576 78.6871C91.7027 78.6942 88.4087 74.7582 88.4002 69.8958Z" fill="#8592AB"/>
<path d="M95.4684 75.9334C92.5144 75.9113 90.1401 73.1782 90.1653 69.8289C90.1905 66.4797 92.6056 63.7825 95.5595 63.8046C98.5135 63.8268 100.888 66.5599 100.863 69.9091C100.837 73.2584 98.4224 75.9556 95.4684 75.9334Z" fill="#E0D7CD"/>
<path d="M95.5173 71.9131C94.5315 71.9059 93.7389 70.9939 93.7471 69.876C93.7553 68.7582 94.5612 67.8579 95.547 67.8651C96.5329 67.8723 97.3254 68.7843 97.3172 69.9022C97.309 71.02 96.5031 71.9203 95.5173 71.9131Z" fill="#F7FEFB"/>
<path d="M38.4946 61.0721C38.4244 61.0721 38.3541 61.0797 38.2852 61.0836H34.7521V62.2735C32.395 63.8384 30.8346 66.7655 30.8972 70.079C30.9598 73.3925 32.6133 76.201 35.0074 77.6486V78.6765H38.561C38.6491 78.6765 38.7385 78.6765 38.8278 78.6765C43.1156 78.563 46.5159 74.5302 46.424 69.6696C46.332 64.809 42.781 60.9586 38.4946 61.0721Z" fill="#2E3A5B"/>
<path d="M27.8279 69.8962C27.8194 65.0338 31.0997 61.0864 35.1546 61.0793C39.2094 61.0722 42.5035 65.0082 42.512 69.8706C42.5205 74.733 39.2402 78.6805 35.1853 78.6875C31.1305 78.6946 27.8364 74.7586 27.8279 69.8962Z" fill="#8592AB"/>
<path d="M85.9807 68.3636L43.3255 68.4732C43.3255 68.4732 41.7102 59.928 35.2186 60.0198C27.6646 60.1334 27.2101 68.3878 27.2101 68.3878H21.4642C21.4642 68.3878 18.5273 61.0797 21.1194 59.0327C21.1194 59.0327 23.1815 54.7231 24.0932 52.3534C24.0932 52.3534 23.2262 49.8357 23.4548 48.2937L29.8251 43.3005C32.5321 39.6477 43.1046 34.2949 47.4932 33.573C56.716 32.054 64.2368 31.0579 73.4775 35.6863C87.7491 42.8363 92.3893 50.6086 92.3893 50.6086C92.3893 50.6086 98.0203 50.2056 106.9 51.9937C108.718 53.7895 108.985 55.9041 109.402 57.8159L109.365 68.4158L105.933 68.4057C105.521 68.4043 105.122 68.2655 104.798 68.0113C104.474 67.7571 104.244 67.4021 104.145 67.0027C103.499 64.3613 101.347 59.9382 96.5583 59.7979C91.9935 59.6704 88.3301 61.0198 87.4146 67.1328C87.3614 67.4749 87.1878 67.7867 86.9249 68.0124C86.6621 68.238 86.3272 68.3625 85.9807 68.3636V68.3636Z" fill="#217B56"/>
<path d="M23.8022 53.7692C23.8022 53.7692 107.437 52.5257 106.9 51.9926C97.9834 49.3818 89.5994 46.6142 89.5994 46.6142C89.5994 46.6142 81.8041 38.7832 71.759 34.1484C64.8204 30.9471 52.6327 31.7901 44.4594 33.6586C39.0966 34.8855 33.5205 38.3776 31.6907 40.8366L23.4932 48.3245C23.2646 49.8652 24.1316 52.3841 24.1316 52.3841C23.9725 52.8327 23.8621 53.2971 23.8022 53.7692V53.7692Z" fill="#217B56"/>
<path d="M31.8077 50.795C31.8077 50.795 24.9994 46.3183 23.5539 48.4648C23.385 49.1717 23.3631 49.9056 23.4896 50.6212C23.6161 51.3369 23.8883 52.0189 24.2894 52.6252L32.0234 52.587L31.8077 50.795Z" fill="#F7FEFB"/>
<path d="M52.5946 34.2567L54.2188 46.9687L38.9103 47.0312C35.7603 47.0452 34.0761 43.358 36.1255 40.9692C41.1461 35.1074 49.2887 34.4212 52.5946 34.2567Z" fill="#2E3A5B"/>
<path d="M53.9191 34.1113C53.9191 34.1113 65.7532 32.2594 73.9928 37.0779C78.7453 39.857 83.0127 42.8274 87.1816 46.771L55.4309 47.0707L53.9191 34.1113Z" fill="#2E3A5B"/>
<path d="M31.1866 41.7039L31.6437 53.2846L33.5973 58.3518H34.1094L32.2515 53.2922L31.6897 40.8366L31.1866 41.7039Z" fill="#066132"/>
<path d="M85.2208 48.6254L86.6931 53.7691L86.4901 68.3318L87.186 68.3458L87.4707 53.7015L86.0329 48.665L85.2208 48.6254Z" fill="#066132"/>
<path d="M69.7701 33.3219H85.9991C88.6013 33.3184 91.1715 33.8948 93.5224 35.0092C101.056 38.5944 114.08 46.6154 114.08 46.6154H91.4462C90.2799 46.6144 89.1577 46.1697 88.3077 45.3719C83.3675 40.7409 76.7124 36.1711 69.7701 33.3219Z" fill="#2E3A5B"/>
<path d="M134.021 68.3547L108.726 68.4147V56.487L136.265 59.7342L136.373 63.0031C136.373 64.5693 135.97 68.3547 134.021 68.3547Z" fill="#4D9578"/>
<path d="M74.7622 47.0298L83.2534 46.9839C84.5175 46.9839 84.3056 42.3925 79.5224 42.4129L75.6101 42.4346C75.0007 42.4379 74.4177 42.6829 73.9891 43.1155C73.5605 43.5482 73.3214 44.1331 73.3245 44.7418V45.6141C73.3278 45.9921 73.4811 46.3533 73.7505 46.6187C74.02 46.884 74.3838 47.0319 74.7622 47.0298Z" fill="#066132"/>
<path d="M24.168 52.7552C24.168 52.7552 22.9256 51.3446 23.3699 48.4596" stroke="#3B260D" stroke-width="1.21333" stroke-linecap="round" stroke-linejoin="round"/>
<path d="M112.749 55.4756C111.241 53.839 109.319 52.6385 107.186 52.0001C106.355 51.7527 105.526 51.5167 104.905 51.3624C103.055 50.9224 100.325 51.0754 100.325 51.0754C100.325 51.0754 100.688 56.5329 103.994 56.4857C107.3 56.4385 113.67 56.4742 113.67 56.4742L112.749 55.4756Z" fill="#F7FEFB"/>
<path d="M130.205 54.977C132.077 52.7131 131.62 52.546 132.533 51.8739C132.533 51.8739 135.229 53.7628 135.561 56.1057C135.609 56.4373 135.113 56.4883 134.613 56.4564C132.365 56.3417 131.803 56.3595 131.803 56.3595L130.205 54.977Z" fill="#F7FEFB"/>
<path d="M111.549 52.9222H132.207V53.9515C132.207 54.6112 131.945 55.2439 131.478 55.7106C131.011 56.1772 130.378 56.4395 129.717 56.4398H114.038C113.378 56.4395 112.745 56.1772 112.278 55.7106C111.811 55.2439 111.549 54.6112 111.549 53.9515V52.9222Z" fill="#2E3A5B"/>
<path d="M126.29 58.2727H119.212C118.287 58.2727 117.537 57.5235 117.537 56.5994V55.2117C117.537 54.2876 118.287 53.5384 119.212 53.5384H126.29C127.215 53.5384 127.965 54.2876 127.965 55.2117V56.5994C127.965 57.5235 127.215 58.2727 126.29 58.2727Z" fill="#2E3A5B"/>
<path d="M35.1168 75.9301C32.1629 75.9079 29.7886 73.1748 29.8137 69.8256C29.8389 66.4763 32.254 63.7791 35.208 63.8013C38.162 63.8234 40.5362 66.5565 40.5111 69.9058C40.4859 73.255 38.0708 75.9522 35.1168 75.9301Z" fill="#E0D7CD"/>
<path d="M35.1657 71.9177C34.1799 71.9105 33.3874 70.9984 33.3956 69.8806C33.4038 68.7628 34.2096 67.8624 35.1955 67.8697C36.1813 67.8769 36.9738 68.7889 36.9656 69.9068C36.9574 71.0246 36.1516 71.9249 35.1657 71.9177Z" fill="#F7FEFB"/>
<path d="M58.4805 68.4338L55.0342 54.0548V48.4596" stroke="#066132" stroke-width="2.72467" stroke-miterlimit="10"/>
<path d="M67.5693 46.9572L56.1745 47.0643L59.7281 33.7631C62.8079 33.7899 66.7011 34.1457 70.3555 35.4211L67.5693 46.9572Z" fill="#596481"/>
<path d="M85.4398 33.3219H86.0003C88.6025 33.3184 91.1727 33.8948 93.5237 35.0092C95.6573 36.0295 98.2302 37.393 100.822 38.8354L98.944 46.6154H91.4475C90.2811 46.6144 89.1589 46.1697 88.3089 45.3719C86.727 43.8933 85.0695 42.4974 83.3432 41.1898L85.4398 33.3219Z" fill="#596481"/>
<path d="M133.912 68.3545L128.505 64.1763H117.258L108.726 68.4145L133.912 68.3545Z" fill="#4D9578"/>
<path d="M128.58 61.7441H117.536" stroke="#066132" stroke-width="2.72467" stroke-miterlimit="10"/>
<path d="M135.565 56.4629C135.565 56.4629 135.79 55.1977 135.015 53.7693C134.24 52.3408 132.602 51.6508 132.602 51.6508" stroke="#3B260D" stroke-width="1.21333" stroke-linecap="round" stroke-linejoin="round"/>
<path d="M59.0686 52.5804H64.5898V50.3893H58.6064C58.462 50.3893 58.3236 50.4465 58.2213 50.5483C58.1191 50.6502 58.0615 50.7884 58.0612 50.9326V51.5703C58.0609 51.7027 58.0867 51.8339 58.1371 51.9564C58.1876 52.0788 58.2617 52.1901 58.3553 52.2839C58.4489 52.3778 58.56 52.4522 58.6824 52.5031C58.8048 52.554 58.9361 52.5802 59.0686 52.5804V52.5804Z" fill="#066132"/>
<path d="M38.2691 52.5804H43.7852V50.3893H37.8005C37.6562 50.3893 37.5178 50.4465 37.4158 50.5484C37.3138 50.6503 37.2565 50.7885 37.2565 50.9326V51.5703C37.256 51.7032 37.2818 51.8349 37.3326 51.9577C37.3833 52.0806 37.4579 52.1922 37.552 52.2861C37.6462 52.38 37.758 52.4544 37.8811 52.5049C38.0041 52.5554 38.136 52.5811 38.2691 52.5804V52.5804Z" fill="#066132"/>
</svg>
